const music_lib = [{
  "header": {
    "keySignatures": [
      {
        "key": "Bb",
        "scale": "minor",
        "ticks": 0
      }
    ],
    "meta": [],
    "name": "Symphonie N°40 Gmoll K.550",
    "ppq": 256,
    "tempos": [
      {
        "bpm": 160,
        "ticks": 0
      },
      {
        "bpm": 160,
        "ticks": 102400
      },
      {
        "bpm": 120,
        "ticks": 102400
      },
      {
        "bpm": 160,
        "ticks": 102400
      }
    ],
    "timeSignatures": [
      {
        "ticks": 0,
        "timeSignature": [
          2,
          2
        ],
        "measures": 0
      }
    ]
  },
  "tracks": [
    {
      "channel": 0,
      "controlChanges": {
        "7": [
          {
            "number": 7,
            "ticks": 0,
            "time": 0,
            "value": 0.5669291338582677
          }
        ],
        "10": [
          {
            "number": 10,
            "ticks": 0,
            "time": 0,
            "value": 0.5511811023622047
          }
        ],
        "64": [
          {
            "number": 64,
            "ticks": 0,
            "time": 0,
            "value": 0
          }
        ],
        "91": [
          {
            "number": 91,
            "ticks": 0,
            "time": 0,
            "value": 0.4094488188976378
          }
        ],
        "121": [
          {
            "number": 121,
            "ticks": 0,
            "time": 0,
            "value": 0
          }
        ]
      },
      "pitchBends": [],
      "instrument": {
        "family": "pipe",
        "number": 73,
        "name": "flute"
      },
      "name": "Flute",
      "notes": [
        {
          "duration": 0.38232421875,
          "durationTicks": 261,
          "midi": 78,
          "name": "F#5",
          "ticks": 13568,
          "time": 19.875,
          "velocity": 0.4330708661417323
        },
        {
          "duration": 0.38232421875,
          "durationTicks": 261,
          "midi": 79,
          "name": "G5",
          "ticks": 13824,
          "time": 20.25,
          "velocity": 0.4566929133858268
        },
        {
          "duration": 0.38232421875,
          "durationTicks": 261,
          "midi": 81,
          "name": "A5",
          "ticks": 14080,
          "time": 20.625,
          "velocity": 0.5354330708661418
        },
        {
          "duration": 0.38232421875,
          "durationTicks": 261,
          "midi": 82,
          "name": "A#5",
          "ticks": 14336,
          "time": 21,
          "velocity": 0.5511811023622047
        },
        {
          "duration": 0.1904296875,
          "durationTicks": 130,
          "midi": 84,
          "name": "C6",
          "ticks": 14592,
          "time": 21.375,
          "velocity": 0.5511811023622047
        },
        {
          "duration": 0.1904296875,
          "durationTicks": 130,
          "midi": 82,
          "name": "A#5",
          "ticks": 14720,
          "time": 21.5625,
          "velocity": 0.49606299212598426
        },
        {
          "duration": 0.38232421875,
          "durationTicks": 261,
          "midi": 81,
          "name": "A5",
          "ticks": 14848,
          "time": 21.75,
          "velocity": 0.44881889763779526
        },
        {
          "duration": 0.38232421875,
          "durationTicks": 261,
          "midi": 79,
          "name": "G5",
          "ticks": 15104,
          "time": 22.125,
          "velocity": 0.3858267716535433
        },
        {
          "duration": 0.35595703125,
          "durationTicks": 243,
          "midi": 78,
          "name": "F#5",
          "ticks": 15360,
          "time": 22.5,
          "velocity": 0.47244094488188976
        },
        {
          "duration": 0.7646484375,
          "durationTicks": 522,
          "midi": 85,
          "name": "C#6",
          "ticks": 15872,
          "time": 23.25,
          "velocity": 0.6535433070866141
        },
        {
          "duration": 0.35595703125,
          "durationTicks": 243,
          "midi": 86,
          "name": "D6",
          "ticks": 16384,
          "time": 24,
          "velocity": 0.6771653543307087
        },
        {
          "duration": 0.7646484375,
          "durationTicks": 522,
          "midi": 85,
          "name": "C#6",
          "ticks": 16896,
          "time": 24.75,
          "velocity": 0.6850393700787402
        },
        {
          "duration": 0.35595703125,
          "durationTicks": 243,
          "midi": 86,
          "name": "D6",
          "ticks": 17408,
          "time": 25.5,
          "velocity": 0.6929133858267716
        },
        {
          "duration": 0.7646484375,
          "durationTicks": 522,
          "midi": 85,
          "name": "C#6",
          "ticks": 17920,
          "time": 26.25,
          "velocity": 0.6771653543307087
        },
        {
          "duration": 0.35595703125,
          "durationTicks": 243,
          "midi": 86,
          "name": "D6",
          "ticks": 18432,
          "time": 27,
          "velocity": 0.7165354330708661
        },
        {
          "duration": 0.1875,
          "durationTicks": 128,
          "midi": 85,
          "name": "C#6",
          "ticks": 18688,
          "time": 27.375,
          "velocity": 0.7480314960629921
        },
        {
          "duration": 0.1875,
          "durationTicks": 128,
          "midi": 86,
          "name": "D6",
          "ticks": 18944,
          "time": 27.75,
          "velocity": 0.8346456692913385
        },
        {
          "duration": 0.1875,
          "durationTicks": 128,
          "midi": 85,
          "name": "C#6",
          "ticks": 19200,
          "time": 28.125,
          "velocity": 0.7244094488188977
        },
        {
          "duration": 0.75,
          "durationTicks": 512,
          "midi": 86,
          "name": "D6",
          "ticks": 19456,
          "time": 28.5,
          "velocity": 0.7637795275590551
        },
        {
          "duration": 1.5,
          "durationTicks": 1024,
          "midi": 82,
          "name": "A#5",
          "ticks": 27648,
          "time": 40.5,
          "velocity": 0.6929133858267716
        },
        {
          "duration": 1.5,
          "durationTicks": 1024,
          "midi": 89,
          "name": "F6",
          "ticks": 28672,
          "time": 42,
          "velocity": 0.905511811023622
        },
        {
          "duration": 1.5,
          "durationTicks": 1024,
          "midi": 87,
          "name": "D#6",
          "ticks": 29696,
          "time": 43.5,
          "velocity": 0.7244094488188977
        },
        {
          "duration": 1.5,
          "durationTicks": 1024,
          "midi": 86,
          "name": "D6",
          "ticks": 30720,
          "time": 45,
          "velocity": 0.7559055118110236
        },
        {
          "duration": 1.5,
          "durationTicks": 1024,
          "midi": 84,
          "name": "C6",
          "ticks": 31744,
          "time": 46.5,
          "velocity": 0.7165354330708661
        },
        {
          "duration": 1.5,
          "durationTicks": 1024,
          "midi": 82,
          "name": "A#5",
          "ticks": 32768,
          "time": 48,
          "velocity": 0.7244094488188977
        },
        {
          "duration": 1.3125,
          "durationTicks": 896,
          "midi": 88,
          "name": "E6",
          "ticks": 33792,
          "time": 49.5,
          "velocity": 0.8503937007874016
        },
        {
          "duration": 0.17724609375,
          "durationTicks": 121,
          "midi": 89,
          "name": "F6",
          "ticks": 34688,
          "time": 50.8125,
          "velocity": 0.8110236220472441
        },
        {
          "duration": 1.3125,
          "durationTicks": 896,
          "midi": 88,
          "name": "E6",
          "ticks": 34816,
          "time": 51,
          "velocity": 0.7244094488188977
        },
        {
          "duration": 0.17724609375,
          "durationTicks": 121,
          "midi": 89,
          "name": "F6",
          "ticks": 35712,
          "time": 52.3125,
          "velocity": 0.7874015748031497
        },
        {
          "duration": 1.3125,
          "durationTicks": 896,
          "midi": 88,
          "name": "E6",
          "ticks": 35840,
          "time": 52.5,
          "velocity": 0.7007874015748031
        },
        {
          "duration": 0.17724609375,
          "durationTicks": 121,
          "midi": 89,
          "name": "F6",
          "ticks": 36736,
          "time": 53.8125,
          "velocity": 0.8503937007874016
        },
        {
          "duration": 1.5,
          "durationTicks": 1024,
          "midi": 88,
          "name": "E6",
          "ticks": 36864,
          "time": 54,
          "velocity": 0.7401574803149606
        },
        {
          "duration": 0.75,
          "durationTicks": 512,
          "midi": 89,
          "name": "F6",
          "ticks": 37888,
          "time": 55.5,
          "velocity": 0.7716535433070866
        },
        {
          "duration": 0.75,
          "durationTicks": 512,
          "midi": 87,
          "name": "D#6",
          "ticks": 38400,
          "time": 56.25,
          "velocity": 0.7480314960629921
        },
        {
          "duration": 0.75,
          "durationTicks": 512,
          "midi": 85,
          "name": "C#6",
          "ticks": 38912,
          "time": 57,
          "velocity": 0.7322834645669292
        },
        {
          "duration": 0.75,
          "durationTicks": 512,
          "midi": 88,
          "name": "E6",
          "ticks": 39424,
          "time": 57.75,
          "velocity": 0.8188976377952756
        },
        {
          "duration": 0.75,
          "durationTicks": 512,
          "midi": 89,
          "name": "F6",
          "ticks": 39936,
          "time": 58.5,
          "velocity": 0.8346456692913385
        },
        {
          "duration": 0.75,
          "durationTicks": 512,
          "midi": 87,
          "name": "D#6",
          "ticks": 40448,
          "time": 59.25,
          "velocity": 0.7401574803149606
        },
        {
          "duration": 0.75,
          "durationTicks": 512,
          "midi": 85,
          "name": "C#6",
          "ticks": 40960,
          "time": 60,
          "velocity": 0.7322834645669292
        },
        {
          "duration": 0.75,
          "durationTicks": 512,
          "midi": 88,
          "name": "E6",
          "ticks": 41472,
          "time": 60.75,
          "velocity": 0.8031496062992126
        },
        {
          "duration": 0.375,
          "durationTicks": 256,
          "midi": 89,
          "name": "F6",
          "ticks": 41984,
          "time": 61.5,
          "velocity": 0.8582677165354331
        },
        {
          "duration": 0.375,
          "durationTicks": 256,
          "midi": 77,
          "name": "F5",
          "ticks": 42496,
          "time": 62.25,
          "velocity": 0.6771653543307087
        },
        {
          "duration": 1.14697265625,
          "durationTicks": 783,
          "midi": 89,
          "name": "F6",
          "ticks": 52224,
          "time": 76.5,
          "velocity": 0.4566929133858268
        },
        {
          "duration": 0.38232421875,
          "durationTicks": 261,
          "midi": 88,
          "name": "E6",
          "ticks": 52992,
          "time": 77.625,
          "velocity": 0.4015748031496063
        },
        {
          "duration": 0.35595703125,
          "durationTicks": 243,
          "midi": 87,
          "name": "D#6",
          "ticks": 53248,
          "time": 78,
          "velocity": 0.4409448818897638
        },
        {
          "duration": 0.1875,
          "durationTicks": 128,
          "midi": 82,
          "name": "A#5",
          "ticks": 54528,
          "time": 79.875,
          "velocity": 0.41732283464566927
        },
        {
          "duration": 0.38232421875,
          "durationTicks": 261,
          "midi": 82,
          "name": "A#5",
          "ticks": 54784,
          "time": 80.25,
          "velocity": 0.49606299212598426
        },
        {
          "duration": 0.35595703125,
          "durationTicks": 243,
          "midi": 84,
          "name": "C6",
          "ticks": 55040,
          "time": 80.625,
          "velocity": 0.5590551181102362
        },
        {
          "duration": 0.57275390625,
          "durationTicks": 391,
          "midi": 86,
          "name": "D6",
          "ticks": 55296,
          "time": 81,
          "velocity": 0.49606299212598426
        },
        {
          "duration": 0.17724609375,
          "durationTicks": 121,
          "midi": 87,
          "name": "D#6",
          "ticks": 55680,
          "time": 81.5625,
          "velocity": 0.5354330708661418
        },
        {
          "duration": 0.375,
          "durationTicks": 256,
          "midi": 84,
          "name": "C6",
          "ticks": 55808,
          "time": 81.75,
          "velocity": 0.4094488188976378
        },
        {
          "duration": 0.7646484375,
          "durationTicks": 522,
          "midi": 79,
          "name": "G5",
          "ticks": 58624,
          "time": 85.875,
          "velocity": 0.4094488188976378
        },
        {
          "duration": 0.35595703125,
          "durationTicks": 243,
          "midi": 80,
          "name": "G#5",
          "ticks": 59136,
          "time": 86.625,
          "velocity": 0.41732283464566927
        },
        {
          "duration": 0.7646484375,
          "durationTicks": 522,
          "midi": 79,
          "name": "G5",
          "ticks": 59648,
          "time": 87.375,
          "velocity": 0.4251968503937008
        },
        {
          "duration": 0.35595703125,
          "durationTicks": 243,
          "midi": 80,
          "name": "G#5",
          "ticks": 60160,
          "time": 88.125,
          "velocity": 0.4409448818897638
        },
        {
          "duration": 0.7646484375,
          "durationTicks": 522,
          "midi": 79,
          "name": "G5",
          "ticks": 60672,
          "time": 88.875,
          "velocity": 0.4330708661417323
        },
        {
          "duration": 0.35595703125,
          "durationTicks": 243,
          "midi": 80,
          "name": "G#5",
          "ticks": 61184,
          "time": 89.625,
          "velocity": 0.41732283464566927
        },
        {
          "duration": 0.7646484375,
          "durationTicks": 522,
          "midi": 79,
          "name": "G5",
          "ticks": 61696,
          "time": 90.375,
          "velocity": 0.3700787401574803
        },
        {
          "duration": 0.35595703125,
          "durationTicks": 243,
          "midi": 80,
          "name": "G#5",
          "ticks": 62208,
          "time": 91.125,
          "velocity": 0.3858267716535433
        },
        {
          "duration": 1.5,
          "durationTicks": 1024,
          "midi": 82,
          "name": "A#5",
          "ticks": 62464,
          "time": 91.5,
          "velocity": 0.5118110236220472
        },
        {
          "duration": 1.5,
          "durationTicks": 1024,
          "midi": 91,
          "name": "G6",
          "ticks": 63488,
          "time": 93,
          "velocity": 0.7322834645669292
        },
        {
          "duration": 1.5,
          "durationTicks": 1024,
          "midi": 89,
          "name": "F6",
          "ticks": 64512,
          "time": 94.5,
          "velocity": 0.7874015748031497
        },
        {
          "duration": 0.0703125,
          "durationTicks": 48,
          "midi": 84,
          "name": "C6",
          "ticks": 65536,
          "time": 96,
          "velocity": 0.6377952755905512
        },
        {
          "duration": 0.0703125,
          "durationTicks": 48,
          "midi": 86,
          "name": "D6",
          "ticks": 65596,
          "time": 96.087890625,
          "velocity": 0.6377952755905512
        },
        {
          "duration": 0.06884765625,
          "durationTicks": 47,
          "midi": 84,
          "name": "C6",
          "ticks": 65655,
          "time": 96.17431640625,
          "velocity": 0.6377952755905512
        },
        {
          "duration": 0.06591796875,
          "durationTicks": 45,
          "midi": 86,
          "name": "D6",
          "ticks": 65712,
          "time": 96.2578125,
          "velocity": 0.6377952755905512
        },
        {
          "duration": 0.064453125,
          "durationTicks": 44,
          "midi": 84,
          "name": "C6",
          "ticks": 65768,
          "time": 96.33984375,
          "velocity": 0.6377952755905512
        },
        {
          "duration": 0.064453125,
          "durationTicks": 44,
          "midi": 86,
          "name": "D6",
          "ticks": 65823,
          "time": 96.42041015625,
          "velocity": 0.6377952755905512
        },
        {
          "duration": 0.0615234375,
          "durationTicks": 42,
          "midi": 84,
          "name": "C6",
          "ticks": 65876,
          "time": 96.498046875,
          "velocity": 0.6377952755905512
        },
        {
          "duration": 0.06005859375,
          "durationTicks": 41,
          "midi": 86,
          "name": "D6",
          "ticks": 65928,
          "time": 96.57421875,
          "velocity": 0.6377952755905512
        },
        {
          "duration": 0.05859375,
          "durationTicks": 40,
          "midi": 84,
          "name": "C6",
          "ticks": 65979,
          "time": 96.64892578125,
          "velocity": 0.6377952755905512
        },
        {
          "duration": 0.05859375,
          "durationTicks": 40,
          "midi": 86,
          "name": "D6",
          "ticks": 66029,
          "time": 96.72216796875,
          "velocity": 0.6377952755905512
        },
        {
          "duration": 0.06005859375,
          "durationTicks": 41,
          "midi": 84,
          "name": "C6",
          "ticks": 66081,
          "time": 96.79833984375,
          "velocity": 0.6377952755905512
        },
        {
          "duration": 0.0615234375,
          "durationTicks": 42,
          "midi": 86,
          "name": "D6",
          "ticks": 66134,
          "time": 96.8759765625,
          "velocity": 0.6377952755905512
        },
        {
          "duration": 0.06298828125,
          "durationTicks": 43,
          "midi": 84,
          "name": "C6",
          "ticks": 66188,
          "time": 96.955078125,
          "velocity": 0.6377952755905512
        },
        {
          "duration": 0.064453125,
          "durationTicks": 44,
          "midi": 86,
          "name": "D6",
          "ticks": 66244,
          "time": 97.037109375,
          "velocity": 0.6377952755905512
        },
        {
          "duration": 0.06591796875,
          "durationTicks": 45,
          "midi": 84,
          "name": "C6",
          "ticks": 66301,
          "time": 97.12060546875,
          "velocity": 0.6377952755905512
        },
        {
          "duration": 0.0673828125,
          "durationTicks": 46,
          "midi": 86,
          "name": "D6",
          "ticks": 66359,
          "time": 97.20556640625,
          "velocity": 0.6377952755905512
        },
        {
          "duration": 0.04248046875,
          "durationTicks": 29,
          "midi": 84,
          "name": "C6",
          "ticks": 66419,
          "time": 97.29345703125,
          "velocity": 0.6377952755905512
        },
        {
          "duration": 0.09521484375,
          "durationTicks": 65,
          "midi": 82,
          "name": "A#5",
          "ticks": 66432,
          "time": 97.3125,
          "velocity": 0.5669291338582677
        },
        {
          "duration": 0.087890625,
          "durationTicks": 60,
          "midi": 84,
          "name": "C6",
          "ticks": 66496,
          "time": 97.40625,
          "velocity": 0.7795275590551181
        },
        {
          "duration": 0.375,
          "durationTicks": 256,
          "midi": 82,
          "name": "A#5",
          "ticks": 66560,
          "time": 97.5,
          "velocity": 0.7007874015748031
        },
        {
          "duration": 0.1875,
          "durationTicks": 128,
          "midi": 84,
          "name": "C6",
          "ticks": 69632,
          "time": 102,
          "velocity": 0.6692913385826772
        },
        {
          "duration": 0.1875,
          "durationTicks": 128,
          "midi": 86,
          "name": "D6",
          "ticks": 70144,
          "time": 102.75,
          "velocity": 0.6929133858267716
        },
        {
          "duration": 0.9375,
          "durationTicks": 640,
          "midi": 91,
          "name": "G6",
          "ticks": 70656,
          "time": 103.5,
          "velocity": 0.7086614173228346
        },
        {
          "duration": 0.09375,
          "durationTicks": 64,
          "midi": 89,
          "name": "F6",
          "ticks": 71296,
          "time": 104.4375,
          "velocity": 0.44881889763779526
        },
        {
          "duration": 0.09375,
          "durationTicks": 64,
          "midi": 87,
          "name": "D#6",
          "ticks": 71424,
          "time": 104.625,
          "velocity": 0.4330708661417323
        },
        {
          "duration": 0.09375,
          "durationTicks": 64,
          "midi": 86,
          "name": "D6",
          "ticks": 71552,
          "time": 104.8125,
          "velocity": 0.44881889763779526
        },
        {
          "duration": 0.09375,
          "durationTicks": 64,
          "midi": 84,
          "name": "C6",
          "ticks": 71680,
          "time": 105,
          "velocity": 0.4094488188976378
        },
        {
          "duration": 0.09375,
          "durationTicks": 64,
          "midi": 82,
          "name": "A#5",
          "ticks": 71808,
          "time": 105.1875,
          "velocity": 0.4251968503937008
        },
        {
          "duration": 0.09375,
          "durationTicks": 64,
          "midi": 81,
          "name": "A5",
          "ticks": 71936,
          "time": 105.375,
          "velocity": 0.4251968503937008
        },
        {
          "duration": 0.09375,
          "durationTicks": 64,
          "midi": 79,
          "name": "G5",
          "ticks": 72064,
          "time": 105.5625,
          "velocity": 0.4330708661417323
        },
        {
          "duration": 0.09375,
          "durationTicks": 64,
          "midi": 77,
          "name": "F5",
          "ticks": 72192,
          "time": 105.75,
          "velocity": 0.4409448818897638
        },
        {
          "duration": 0.09375,
          "durationTicks": 64,
          "midi": 75,
          "name": "D#5",
          "ticks": 72320,
          "time": 105.9375,
          "velocity": 0.4330708661417323
        },
        {
          "duration": 0.09375,
          "durationTicks": 64,
          "midi": 74,
          "name": "D5",
          "ticks": 72448,
          "time": 106.125,
          "velocity": 0.4330708661417323
        },
        {
          "duration": 0.09375,
          "durationTicks": 64,
          "midi": 72,
          "name": "C5",
          "ticks": 72576,
          "time": 106.3125,
          "velocity": 0.48031496062992124
        },
        {
          "duration": 0.375,
          "durationTicks": 256,
          "midi": 70,
          "name": "A#4",
          "ticks": 72704,
          "time": 106.5,
          "velocity": 0.44881889763779526
        },
        {
          "duration": 1.5,
          "durationTicks": 1024,
          "midi": 90,
          "name": "F#6",
          "ticks": 77824,
          "time": 114,
          "velocity": 0.7007874015748031
        },
        {
          "duration": 1.3125,
          "durationTicks": 896,
          "midi": 91,
          "name": "G6",
          "ticks": 78848,
          "time": 115.5,
          "velocity": 0.7874015748031497
        },
        {
          "duration": 0.17724609375,
          "durationTicks": 121,
          "midi": 87,
          "name": "D#6",
          "ticks": 79744,
          "time": 116.8125,
          "velocity": 0.6771653543307087
        },
        {
          "duration": 0.7646484375,
          "durationTicks": 522,
          "midi": 86,
          "name": "D6",
          "ticks": 79872,
          "time": 117,
          "velocity": 0.7322834645669292
        },
        {
          "duration": 0.7119140625,
          "durationTicks": 486,
          "midi": 84,
          "name": "C6",
          "ticks": 80384,
          "time": 117.75,
          "velocity": 0.6929133858267716
        },
        {
          "duration": 0.375,
          "durationTicks": 256,
          "midi": 82,
          "name": "A#5",
          "ticks": 80896,
          "time": 118.5,
          "velocity": 0.7086614173228346
        },
        {
          "duration": 1.5,
          "durationTicks": 1024,
          "midi": 90,
          "name": "F#6",
          "ticks": 86016,
          "time": 126,
          "velocity": 0.7401574803149606
        },
        {
          "duration": 1.3125,
          "durationTicks": 896,
          "midi": 91,
          "name": "G6",
          "ticks": 87040,
          "time": 127.5,
          "velocity": 0.7952755905511811
        },
        {
          "duration": 0.17724609375,
          "durationTicks": 121,
          "midi": 87,
          "name": "D#6",
          "ticks": 87936,
          "time": 128.8125,
          "velocity": 0.6614173228346457
        },
        {
          "duration": 0.7646484375,
          "durationTicks": 522,
          "midi": 86,
          "name": "D6",
          "ticks": 88064,
          "time": 129,
          "velocity": 0.7244094488188977
        },
        {
          "duration": 0.7119140625,
          "durationTicks": 486,
          "midi": 84,
          "name": "C6",
          "ticks": 88576,
          "time": 129.75,
          "velocity": 0.6929133858267716
        },
        {
          "duration": 0.75,
          "durationTicks": 512,
          "midi": 82,
          "name": "A#5",
          "ticks": 89088,
          "time": 130.5,
          "velocity": 0.7165354330708661
        },
        {
          "duration": 0.1875,
          "durationTicks": 128,
          "midi": 89,
          "name": "F6",
          "ticks": 89984,
          "time": 131.8125,
          "velocity": 0.7007874015748031
        },
        {
          "duration": 0.1875,
          "durationTicks": 128,
          "midi": 87,
          "name": "D#6",
          "ticks": 90112,
          "time": 132,
          "velocity": 0.7007874015748031
        },
        {
          "duration": 0.1875,
          "durationTicks": 128,
          "midi": 86,
          "name": "D6",
          "ticks": 90240,
          "time": 132.1875,
          "velocity": 0.6929133858267716
        },
        {
          "duration": 0.1875,
          "durationTicks": 128,
          "midi": 84,
          "name": "C6",
          "ticks": 90368,
          "time": 132.375,
          "velocity": 0.7007874015748031
        },
        {
          "duration": 0.1875,
          "durationTicks": 128,
          "midi": 82,
          "name": "A#5",
          "ticks": 90496,
          "time": 132.5625,
          "velocity": 0.7007874015748031
        },
        {
          "duration": 0.1875,
          "durationTicks": 128,
          "midi": 81,
          "name": "A5",
          "ticks": 90624,
          "time": 132.75,
          "velocity": 0.7322834645669292
        },
        {
          "duration": 0.1875,
          "durationTicks": 128,
          "midi": 79,
          "name": "G5",
          "ticks": 90752,
          "time": 132.9375,
          "velocity": 0.7244094488188977
        },
        {
          "duration": 0.1875,
          "durationTicks": 128,
          "midi": 77,
          "name": "F5",
          "ticks": 90880,
          "time": 133.125,
          "velocity": 0.6771653543307087
        },
        {
          "duration": 0.1875,
          "durationTicks": 128,
          "midi": 75,
          "name": "D#5",
          "ticks": 91008,
          "time": 133.3125,
          "velocity": 0.6771653543307087
        },
        {
          "duration": 0.375,
          "durationTicks": 256,
          "midi": 74,
          "name": "D5",
          "ticks": 91136,
          "time": 133.5,
          "velocity": 0.7637795275590551
        },
        {
          "duration": 0.375,
          "durationTicks": 256,
          "midi": 77,
          "name": "F5",
          "ticks": 91392,
          "time": 133.875,
          "velocity": 0.8503937007874016
        },
        {
          "duration": 0.375,
          "durationTicks": 256,
          "midi": 79,
          "name": "G5",
          "ticks": 91648,
          "time": 134.25,
          "velocity": 0.84251968503937
        },
        {
          "duration": 0.375,
          "durationTicks": 256,
          "midi": 81,
          "name": "A5",
          "ticks": 91904,
          "time": 134.625,
          "velocity": 0.8188976377952756
        },
        {
          "duration": 0.1875,
          "durationTicks": 128,
          "midi": 82,
          "name": "A#5",
          "ticks": 92160,
          "time": 135,
          "velocity": 0.8188976377952756
        },
        {
          "duration": 0.1875,
          "durationTicks": 128,
          "midi": 77,
          "name": "F5",
          "ticks": 92288,
          "time": 135.1875,
          "velocity": 0.6614173228346457
        },
        {
          "duration": 0.1875,
          "durationTicks": 128,
          "midi": 86,
          "name": "D6",
          "ticks": 92416,
          "time": 135.375,
          "velocity": 0.9291338582677166
        },
        {
          "duration": 0.1875,
          "durationTicks": 128,
          "midi": 84,
          "name": "C6",
          "ticks": 92544,
          "time": 135.5625,
          "velocity": 0.7795275590551181
        },
        {
          "duration": 0.1875,
          "durationTicks": 128,
          "midi": 82,
          "name": "A#5",
          "ticks": 92672,
          "time": 135.75,
          "velocity": 0.7165354330708661
        },
        {
          "duration": 0.1875,
          "durationTicks": 128,
          "midi": 81,
          "name": "A5",
          "ticks": 92800,
          "time": 135.9375,
          "velocity": 0.7086614173228346
        },
        {
          "duration": 0.1875,
          "durationTicks": 128,
          "midi": 79,
          "name": "G5",
          "ticks": 92928,
          "time": 136.125,
          "velocity": 0.7322834645669292
        },
        {
          "duration": 0.1875,
          "durationTicks": 128,
          "midi": 77,
          "name": "F5",
          "ticks": 93056,
          "time": 136.3125,
          "velocity": 0.7007874015748031
        },
        {
          "duration": 0.1875,
          "durationTicks": 128,
          "midi": 87,
          "name": "D#6",
          "ticks": 93184,
          "time": 136.5,
          "velocity": 0.952755905511811
        },
        {
          "duration": 0.1875,
          "durationTicks": 128,
          "midi": 86,
          "name": "D6",
          "ticks": 93312,
          "time": 136.6875,
          "velocity": 0.7559055118110236
        },
        {
          "duration": 0.1875,
          "durationTicks": 128,
          "midi": 84,
          "name": "C6",
          "ticks": 93440,
          "time": 136.875,
          "velocity": 0.7401574803149606
        },
        {
          "duration": 0.1875,
          "durationTicks": 128,
          "midi": 82,
          "name": "A#5",
          "ticks": 93568,
          "time": 137.0625,
          "velocity": 0.7559055118110236
        },
        {
          "duration": 0.1875,
          "durationTicks": 128,
          "midi": 81,
          "name": "A5",
          "ticks": 93696,
          "time": 137.25,
          "velocity": 0.7322834645669292
        },
        {
          "duration": 0.1875,
          "durationTicks": 128,
          "midi": 84,
          "name": "C6",
          "ticks": 93824,
          "time": 137.4375,
          "velocity": 0.8110236220472441
        },
        {
          "duration": 0.1875,
          "durationTicks": 128,
          "midi": 89,
          "name": "F6",
          "ticks": 93952,
          "time": 137.625,
          "velocity": 0.84251968503937
        },
        {
          "duration": 0.1875,
          "durationTicks": 128,
          "midi": 87,
          "name": "D#6",
          "ticks": 94080,
          "time": 137.8125,
          "velocity": 0.7637795275590551
        },
        {
          "duration": 0.375,
          "durationTicks": 256,
          "midi": 86,
          "name": "D6",
          "ticks": 94208,
          "time": 138,
          "velocity": 0.7322834645669292
        },
        {
          "duration": 0.375,
          "durationTicks": 256,
          "midi": 89,
          "name": "F6",
          "ticks": 94976,
          "time": 139.125,
          "velocity": 0.7244094488188977
        },
        {
          "duration": 0.375,
          "durationTicks": 256,
          "midi": 86,
          "name": "D6",
          "ticks": 95232,
          "time": 139.5,
          "velocity": 0.6535433070866141
        },
        {
          "duration": 0.375,
          "durationTicks": 256,
          "midi": 91,
          "name": "G6",
          "ticks": 95488,
          "time": 139.875,
          "velocity": 0.8503937007874016
        },
        {
          "duration": 0.375,
          "durationTicks": 256,
          "midi": 89,
          "name": "F6",
          "ticks": 95744,
          "time": 140.25,
          "velocity": 0.7086614173228346
        },
        {
          "duration": 0.375,
          "durationTicks": 256,
          "midi": 81,
          "name": "A5",
          "ticks": 96000,
          "time": 140.625,
          "velocity": 0.6220472440944882
        },
        {
          "duration": 0.375,
          "durationTicks": 256,
          "midi": 82,
          "name": "A#5",
          "ticks": 96256,
          "time": 141,
          "velocity": 0.8188976377952756
        },
        {
          "duration": 0.1875,
          "durationTicks": 128,
          "midi": 82,
          "name": "A#5",
          "ticks": 96512,
          "time": 141.375,
          "velocity": 0.7559055118110236
        },
        {
          "duration": 0.1875,
          "durationTicks": 128,
          "midi": 82,
          "name": "A#5",
          "ticks": 96640,
          "time": 141.5625,
          "velocity": 0.7401574803149606
        },
        {
          "duration": 0.375,
          "durationTicks": 256,
          "midi": 81,
          "name": "A5",
          "ticks": 96768,
          "time": 141.75,
          "velocity": 0.7322834645669292
        },
        {
          "duration": 0.1875,
          "durationTicks": 128,
          "midi": 81,
          "name": "A5",
          "ticks": 97024,
          "time": 142.125,
          "velocity": 0.7637795275590551
        },
        {
          "duration": 0.1875,
          "durationTicks": 128,
          "midi": 81,
          "name": "A5",
          "ticks": 97152,
          "time": 142.3125,
          "velocity": 0.7480314960629921
        },
        {
          "duration": 0.375,
          "durationTicks": 256,
          "midi": 82,
          "name": "A#5",
          "ticks": 97280,
          "time": 142.5,
          "velocity": 0.8110236220472441
        },
        {
          "duration": 0.1875,
          "durationTicks": 128,
          "midi": 82,
          "name": "A#5",
          "ticks": 97536,
          "time": 142.875,
          "velocity": 0.8110236220472441
        },
        {
          "duration": 0.1875,
          "durationTicks": 128,
          "midi": 82,
          "name": "A#5",
          "ticks": 97664,
          "time": 143.0625,
          "velocity": 0.8110236220472441
        },
        {
          "duration": 0.375,
          "durationTicks": 256,
          "midi": 81,
          "name": "A5",
          "ticks": 97792,
          "time": 143.25,
          "velocity": 0.7165354330708661
        },
        {
          "duration": 0.1875,
          "durationTicks": 128,
          "midi": 81,
          "name": "A5",
          "ticks": 98048,
          "time": 143.625,
          "velocity": 0.7401574803149606
        },
        {
          "duration": 0.1875,
          "durationTicks": 128,
          "midi": 81,
          "name": "A5",
          "ticks": 98176,
          "time": 143.8125,
          "velocity": 0.8031496062992126
        },
        {
          "duration": 0.375,
          "durationTicks": 256,
          "midi": 82,
          "name": "A#5",
          "ticks": 98304,
          "time": 144,
          "velocity": 0.8110236220472441
        },
        {
          "duration": 0.1875,
          "durationTicks": 128,
          "midi": 82,
          "name": "A#5",
          "ticks": 98560,
          "time": 144.375,
          "velocity": 0.8031496062992126
        },
        {
          "duration": 0.1875,
          "durationTicks": 128,
          "midi": 82,
          "name": "A#5",
          "ticks": 98688,
          "time": 144.5625,
          "velocity": 0.7559055118110236
        },
        {
          "duration": 0.375,
          "durationTicks": 256,
          "midi": 81,
          "name": "A5",
          "ticks": 98816,
          "time": 144.75,
          "velocity": 0.7322834645669292
        },
        {
          "duration": 0.1875,
          "durationTicks": 128,
          "midi": 81,
          "name": "A5",
          "ticks": 99072,
          "time": 145.125,
          "velocity": 0.7637795275590551
        },
        {
          "duration": 0.1875,
          "durationTicks": 128,
          "midi": 81,
          "name": "A5",
          "ticks": 99200,
          "time": 145.3125,
          "velocity": 0.7716535433070866
        },
        {
          "duration": 0.375,
          "durationTicks": 256,
          "midi": 82,
          "name": "A#5",
          "ticks": 99328,
          "time": 145.5,
          "velocity": 0.8031496062992126
        },
        {
          "duration": 0.375,
          "durationTicks": 256,
          "midi": 81,
          "name": "A5",
          "ticks": 99584,
          "time": 145.875,
          "velocity": 0.7559055118110236
        },
        {
          "duration": 0.375,
          "durationTicks": 256,
          "midi": 82,
          "name": "A#5",
          "ticks": 99840,
          "time": 146.25,
          "velocity": 0.84251968503937
        },
        {
          "duration": 0.375,
          "durationTicks": 256,
          "midi": 81,
          "name": "A5",
          "ticks": 100096,
          "time": 146.625,
          "velocity": 0.7401574803149606
        },
        {
          "duration": 0.375,
          "durationTicks": 256,
          "midi": 82,
          "name": "A#5",
          "ticks": 100352,
          "time": 147,
          "velocity": 0.8346456692913385
        },
        {
          "duration": 0.375,
          "durationTicks": 256,
          "midi": 78,
          "name": "F#5",
          "ticks": 101376,
          "time": 148.5,
          "velocity": 0.6771653543307087
        },
        {
          "duration": 0.38232421875,
          "durationTicks": 261,
          "midi": 78,
          "name": "F#5",
          "ticks": 115968,
          "time": 169.875,
          "velocity": 0.47244094488188976
        },
        {
          "duration": 0.38232421875,
          "durationTicks": 261,
          "midi": 79,
          "name": "G5",
          "ticks": 116224,
          "time": 170.25,
          "velocity": 0.5196850393700787
        },
        {
          "duration": 0.38232421875,
          "durationTicks": 261,
          "midi": 81,
          "name": "A5",
          "ticks": 116480,
          "time": 170.625,
          "velocity": 0.5275590551181102
        },
        {
          "duration": 0.38232421875,
          "durationTicks": 261,
          "midi": 82,
          "name": "A#5",
          "ticks": 116736,
          "time": 171,
          "velocity": 0.5669291338582677
        },
        {
          "duration": 0.1904296875,
          "durationTicks": 130,
          "midi": 84,
          "name": "C6",
          "ticks": 116992,
          "time": 171.375,
          "velocity": 0.5590551181102362
        },
        {
          "duration": 0.1904296875,
          "durationTicks": 130,
          "midi": 82,
          "name": "A#5",
          "ticks": 117120,
          "time": 171.5625,
          "velocity": 0.5275590551181102
        },
        {
          "duration": 0.38232421875,
          "durationTicks": 261,
          "midi": 81,
          "name": "A5",
          "ticks": 117248,
          "time": 171.75,
          "velocity": 0.41732283464566927
        },
        {
          "duration": 0.38232421875,
          "durationTicks": 261,
          "midi": 79,
          "name": "G5",
          "ticks": 117504,
          "time": 172.125,
          "velocity": 0.4015748031496063
        },
        {
          "duration": 0.35595703125,
          "durationTicks": 243,
          "midi": 78,
          "name": "F#5",
          "ticks": 117760,
          "time": 172.5,
          "velocity": 0.4645669291338583
        },
        {
          "duration": 0.7646484375,
          "durationTicks": 522,
          "midi": 85,
          "name": "C#6",
          "ticks": 118272,
          "time": 173.25,
          "velocity": 0.6692913385826772
        },
        {
          "duration": 0.35595703125,
          "durationTicks": 243,
          "midi": 86,
          "name": "D6",
          "ticks": 118784,
          "time": 174,
          "velocity": 0.6692913385826772
        },
        {
          "duration": 0.7646484375,
          "durationTicks": 522,
          "midi": 85,
          "name": "C#6",
          "ticks": 119296,
          "time": 174.75,
          "velocity": 0.7086614173228346
        },
        {
          "duration": 0.35595703125,
          "durationTicks": 243,
          "midi": 86,
          "name": "D6",
          "ticks": 119808,
          "time": 175.5,
          "velocity": 0.7007874015748031
        },
        {
          "duration": 0.7646484375,
          "durationTicks": 522,
          "midi": 85,
          "name": "C#6",
          "ticks": 120320,
          "time": 176.25,
          "velocity": 0.6771653543307087
        },
        {
          "duration": 0.35595703125,
          "durationTicks": 243,
          "midi": 86,
          "name": "D6",
          "ticks": 120832,
          "time": 177,
          "velocity": 0.7086614173228346
        },
        {
          "duration": 0.1875,
          "durationTicks": 128,
          "midi": 85,
          "name": "C#6",
          "ticks": 121088,
          "time": 177.375,
          "velocity": 0.7165354330708661
        },
        {
          "duration": 0.1875,
          "durationTicks": 128,
          "midi": 86,
          "name": "D6",
          "ticks": 121344,
          "time": 177.75,
          "velocity": 0.7874015748031497
        },
        {
          "duration": 0.1875,
          "durationTicks": 128,
          "midi": 85,
          "name": "C#6",
          "ticks": 121600,
          "time": 178.125,
          "velocity": 0.7480314960629921
        },
        {
          "duration": 0.75,
          "durationTicks": 512,
          "midi": 86,
          "name": "D6",
          "ticks": 121856,
          "time": 178.5,
          "velocity": 0.8110236220472441
        },
        {
          "duration": 1.5,
          "durationTicks": 1024,
          "midi": 82,
          "name": "A#5",
          "ticks": 130048,
          "time": 190.5,
          "velocity": 0.7007874015748031
        },
        {
          "duration": 1.5,
          "durationTicks": 1024,
          "midi": 89,
          "name": "F6",
          "ticks": 131072,
          "time": 192,
          "velocity": 0.9212598425196851
        },
        {
          "duration": 1.5,
          "durationTicks": 1024,
          "midi": 87,
          "name": "D#6",
          "ticks": 132096,
          "time": 193.5,
          "velocity": 0.7401574803149606
        },
        {
          "duration": 1.5,
          "durationTicks": 1024,
          "midi": 86,
          "name": "D6",
          "ticks": 133120,
          "time": 195,
          "velocity": 0.7322834645669292
        },
        {
          "duration": 1.5,
          "durationTicks": 1024,
          "midi": 84,
          "name": "C6",
          "ticks": 134144,
          "time": 196.5,
          "velocity": 0.7244094488188977
        },
        {
          "duration": 1.5,
          "durationTicks": 1024,
          "midi": 82,
          "name": "A#5",
          "ticks": 135168,
          "time": 198,
          "velocity": 0.7401574803149606
        },
        {
          "duration": 1.3125,
          "durationTicks": 896,
          "midi": 88,
          "name": "E6",
          "ticks": 136192,
          "time": 199.5,
          "velocity": 0.8976377952755905
        },
        {
          "duration": 0.17724609375,
          "durationTicks": 121,
          "midi": 89,
          "name": "F6",
          "ticks": 137088,
          "time": 200.8125,
          "velocity": 0.8031496062992126
        },
        {
          "duration": 1.3125,
          "durationTicks": 896,
          "midi": 88,
          "name": "E6",
          "ticks": 137216,
          "time": 201,
          "velocity": 0.7559055118110236
        },
        {
          "duration": 0.17724609375,
          "durationTicks": 121,
          "midi": 89,
          "name": "F6",
          "ticks": 138112,
          "time": 202.3125,
          "velocity": 0.7874015748031497
        },
        {
          "duration": 1.3125,
          "durationTicks": 896,
          "midi": 88,
          "name": "E6",
          "ticks": 138240,
          "time": 202.5,
          "velocity": 0.7165354330708661
        },
        {
          "duration": 0.17724609375,
          "durationTicks": 121,
          "midi": 89,
          "name": "F6",
          "ticks": 139136,
          "time": 203.8125,
          "velocity": 0.8346456692913385
        },
        {
          "duration": 1.5,
          "durationTicks": 1024,
          "midi": 88,
          "name": "E6",
          "ticks": 139264,
          "time": 204,
          "velocity": 0.7480314960629921
        },
        {
          "duration": 0.75,
          "durationTicks": 512,
          "midi": 89,
          "name": "F6",
          "ticks": 140288,
          "time": 205.5,
          "velocity": 0.7952755905511811
        },
        {
          "duration": 0.75,
          "durationTicks": 512,
          "midi": 87,
          "name": "D#6",
          "ticks": 140800,
          "time": 206.25,
          "velocity": 0.7480314960629921
        },
        {
          "duration": 0.75,
          "durationTicks": 512,
          "midi": 85,
          "name": "C#6",
          "ticks": 141312,
          "time": 207,
          "velocity": 0.7007874015748031
        },
        {
          "duration": 0.75,
          "durationTicks": 512,
          "midi": 88,
          "name": "E6",
          "ticks": 141824,
          "time": 207.75,
          "velocity": 0.8267716535433071
        },
        {
          "duration": 0.75,
          "durationTicks": 512,
          "midi": 89,
          "name": "F6",
          "ticks": 142336,
          "time": 208.5,
          "velocity": 0.8346456692913385
        },
        {
          "duration": 0.75,
          "durationTicks": 512,
          "midi": 87,
          "name": "D#6",
          "ticks": 142848,
          "time": 209.25,
          "velocity": 0.7086614173228346
        },
        {
          "duration": 0.75,
          "durationTicks": 512,
          "midi": 85,
          "name": "C#6",
          "ticks": 143360,
          "time": 210,
          "velocity": 0.7401574803149606
        },
        {
          "duration": 0.75,
          "durationTicks": 512,
          "midi": 88,
          "name": "E6",
          "ticks": 143872,
          "time": 210.75,
          "velocity": 0.84251968503937
        },
        {
          "duration": 0.375,
          "durationTicks": 256,
          "midi": 89,
          "name": "F6",
          "ticks": 144384,
          "time": 211.5,
          "velocity": 0.8267716535433071
        },
        {
          "duration": 0.375,
          "durationTicks": 256,
          "midi": 77,
          "name": "F5",
          "ticks": 144896,
          "time": 212.25,
          "velocity": 0.6850393700787402
        },
        {
          "duration": 1.14697265625,
          "durationTicks": 783,
          "midi": 89,
          "name": "F6",
          "ticks": 154624,
          "time": 226.5,
          "velocity": 0.4015748031496063
        },
        {
          "duration": 0.38232421875,
          "durationTicks": 261,
          "midi": 88,
          "name": "E6",
          "ticks": 155392,
          "time": 227.625,
          "velocity": 0.3700787401574803
        },
        {
          "duration": 0.35595703125,
          "durationTicks": 243,
          "midi": 87,
          "name": "D#6",
          "ticks": 155648,
          "time": 228,
          "velocity": 0.4409448818897638
        },
        {
          "duration": 0.1875,
          "durationTicks": 128,
          "midi": 82,
          "name": "A#5",
          "ticks": 156928,
          "time": 229.875,
          "velocity": 0.4094488188976378
        },
        {
          "duration": 0.38232421875,
          "durationTicks": 261,
          "midi": 82,
          "name": "A#5",
          "ticks": 157184,
          "time": 230.25,
          "velocity": 0.4409448818897638
        },
        {
          "duration": 0.35595703125,
          "durationTicks": 243,
          "midi": 84,
          "name": "C6",
          "ticks": 157440,
          "time": 230.625,
          "velocity": 0.48031496062992124
        },
        {
          "duration": 0.57275390625,
          "durationTicks": 391,
          "midi": 86,
          "name": "D6",
          "ticks": 157696,
          "time": 231,
          "velocity": 0.4881889763779528
        },
        {
          "duration": 0.17724609375,
          "durationTicks": 121,
          "midi": 87,
          "name": "D#6",
          "ticks": 158080,
          "time": 231.5625,
          "velocity": 0.5354330708661418
        },
        {
          "duration": 0.375,
          "durationTicks": 256,
          "midi": 84,
          "name": "C6",
          "ticks": 158208,
          "time": 231.75,
          "velocity": 0.47244094488188976
        },
        {
          "duration": 0.7646484375,
          "durationTicks": 522,
          "midi": 79,
          "name": "G5",
          "ticks": 161024,
          "time": 235.875,
          "velocity": 0.41732283464566927
        },
        {
          "duration": 0.35595703125,
          "durationTicks": 243,
          "midi": 80,
          "name": "G#5",
          "ticks": 161536,
          "time": 236.625,
          "velocity": 0.4015748031496063
        },
        {
          "duration": 0.7646484375,
          "durationTicks": 522,
          "midi": 79,
          "name": "G5",
          "ticks": 162048,
          "time": 237.375,
          "velocity": 0.4330708661417323
        },
        {
          "duration": 0.35595703125,
          "durationTicks": 243,
          "midi": 80,
          "name": "G#5",
          "ticks": 162560,
          "time": 238.125,
          "velocity": 0.4251968503937008
        },
        {
          "duration": 0.7646484375,
          "durationTicks": 522,
          "midi": 79,
          "name": "G5",
          "ticks": 163072,
          "time": 238.875,
          "velocity": 0.4409448818897638
        },
        {
          "duration": 0.35595703125,
          "durationTicks": 243,
          "midi": 80,
          "name": "G#5",
          "ticks": 163584,
          "time": 239.625,
          "velocity": 0.41732283464566927
        },
        {
          "duration": 0.7646484375,
          "durationTicks": 522,
          "midi": 79,
          "name": "G5",
          "ticks": 164096,
          "time": 240.375,
          "velocity": 0.4409448818897638
        },
        {
          "duration": 0.35595703125,
          "durationTicks": 243,
          "midi": 80,
          "name": "G#5",
          "ticks": 164608,
          "time": 241.125,
          "velocity": 0.41732283464566927
        },
        {
          "duration": 1.5,
          "durationTicks": 1024,
          "midi": 82,
          "name": "A#5",
          "ticks": 164864,
          "time": 241.5,
          "velocity": 0.4566929133858268
        },
        {
          "duration": 1.5,
          "durationTicks": 1024,
          "midi": 91,
          "name": "G6",
          "ticks": 165888,
          "time": 243,
          "velocity": 0.8031496062992126
        },
        {
          "duration": 1.5,
          "durationTicks": 1024,
          "midi": 89,
          "name": "F6",
          "ticks": 166912,
          "time": 244.5,
          "velocity": 0.7480314960629921
        },
        {
          "duration": 0.0703125,
          "durationTicks": 48,
          "midi": 84,
          "name": "C6",
          "ticks": 167936,
          "time": 246,
          "velocity": 0.6850393700787402
        },
        {
          "duration": 0.0703125,
          "durationTicks": 48,
          "midi": 86,
          "name": "D6",
          "ticks": 167996,
          "time": 246.087890625,
          "velocity": 0.6850393700787402
        },
        {
          "duration": 0.06884765625,
          "durationTicks": 47,
          "midi": 84,
          "name": "C6",
          "ticks": 168055,
          "time": 246.17431640625,
          "velocity": 0.6850393700787402
        },
        {
          "duration": 0.06591796875,
          "durationTicks": 45,
          "midi": 86,
          "name": "D6",
          "ticks": 168112,
          "time": 246.2578125,
          "velocity": 0.6850393700787402
        },
        {
          "duration": 0.064453125,
          "durationTicks": 44,
          "midi": 84,
          "name": "C6",
          "ticks": 168168,
          "time": 246.33984375,
          "velocity": 0.6850393700787402
        },
        {
          "duration": 0.064453125,
          "durationTicks": 44,
          "midi": 86,
          "name": "D6",
          "ticks": 168223,
          "time": 246.42041015625,
          "velocity": 0.6850393700787402
        },
        {
          "duration": 0.0615234375,
          "durationTicks": 42,
          "midi": 84,
          "name": "C6",
          "ticks": 168276,
          "time": 246.498046875,
          "velocity": 0.6850393700787402
        },
        {
          "duration": 0.06005859375,
          "durationTicks": 41,
          "midi": 86,
          "name": "D6",
          "ticks": 168328,
          "time": 246.57421875,
          "velocity": 0.6850393700787402
        },
        {
          "duration": 0.05859375,
          "durationTicks": 40,
          "midi": 84,
          "name": "C6",
          "ticks": 168379,
          "time": 246.64892578125,
          "velocity": 0.6850393700787402
        },
        {
          "duration": 0.05859375,
          "durationTicks": 40,
          "midi": 86,
          "name": "D6",
          "ticks": 168429,
          "time": 246.72216796875,
          "velocity": 0.6850393700787402
        },
        {
          "duration": 0.06005859375,
          "durationTicks": 41,
          "midi": 84,
          "name": "C6",
          "ticks": 168481,
          "time": 246.79833984375,
          "velocity": 0.6850393700787402
        },
        {
          "duration": 0.0615234375,
          "durationTicks": 42,
          "midi": 86,
          "name": "D6",
          "ticks": 168534,
          "time": 246.8759765625,
          "velocity": 0.6850393700787402
        },
        {
          "duration": 0.06298828125,
          "durationTicks": 43,
          "midi": 84,
          "name": "C6",
          "ticks": 168588,
          "time": 246.955078125,
          "velocity": 0.6850393700787402
        },
        {
          "duration": 0.064453125,
          "durationTicks": 44,
          "midi": 86,
          "name": "D6",
          "ticks": 168644,
          "time": 247.037109375,
          "velocity": 0.6850393700787402
        },
        {
          "duration": 0.06591796875,
          "durationTicks": 45,
          "midi": 84,
          "name": "C6",
          "ticks": 168701,
          "time": 247.12060546875,
          "velocity": 0.6850393700787402
        },
        {
          "duration": 0.0673828125,
          "durationTicks": 46,
          "midi": 86,
          "name": "D6",
          "ticks": 168759,
          "time": 247.20556640625,
          "velocity": 0.6850393700787402
        },
        {
          "duration": 0.04248046875,
          "durationTicks": 29,
          "midi": 84,
          "name": "C6",
          "ticks": 168819,
          "time": 247.29345703125,
          "velocity": 0.6850393700787402
        },
        {
          "duration": 0.09521484375,
          "durationTicks": 65,
          "midi": 82,
          "name": "A#5",
          "ticks": 168832,
          "time": 247.3125,
          "velocity": 0.6377952755905512
        },
        {
          "duration": 0.087890625,
          "durationTicks": 60,
          "midi": 84,
          "name": "C6",
          "ticks": 168896,
          "time": 247.40625,
          "velocity": 0.8031496062992126
        },
        {
          "duration": 0.375,
          "durationTicks": 256,
          "midi": 82,
          "name": "A#5",
          "ticks": 168960,
          "time": 247.5,
          "velocity": 0.7480314960629921
        },
        {
          "duration": 0.1875,
          "durationTicks": 128,
          "midi": 84,
          "name": "C6",
          "ticks": 172032,
          "time": 252,
          "velocity": 0.6850393700787402
        },
        {
          "duration": 0.1875,
          "durationTicks": 128,
          "midi": 86,
          "name": "D6",
          "ticks": 172544,
          "time": 252.75,
          "velocity": 0.6850393700787402
        },
        {
          "duration": 0.9375,
          "durationTicks": 640,
          "midi": 91,
          "name": "G6",
          "ticks": 173056,
          "time": 253.5,
          "velocity": 0.6535433070866141
        },
        {
          "duration": 0.09375,
          "durationTicks": 64,
          "midi": 89,
          "name": "F6",
          "ticks": 173696,
          "time": 254.4375,
          "velocity": 0.4566929133858268
        },
        {
          "duration": 0.09375,
          "durationTicks": 64,
          "midi": 87,
          "name": "D#6",
          "ticks": 173824,
          "time": 254.625,
          "velocity": 0.44881889763779526
        },
        {
          "duration": 0.09375,
          "durationTicks": 64,
          "midi": 86,
          "name": "D6",
          "ticks": 173952,
          "time": 254.8125,
          "velocity": 0.44881889763779526
        },
        {
          "duration": 0.09375,
          "durationTicks": 64,
          "midi": 84,
          "name": "C6",
          "ticks": 174080,
          "time": 255,
          "velocity": 0.4330708661417323
        },
        {
          "duration": 0.09375,
          "durationTicks": 64,
          "midi": 82,
          "name": "A#5",
          "ticks": 174208,
          "time": 255.1875,
          "velocity": 0.44881889763779526
        },
        {
          "duration": 0.09375,
          "durationTicks": 64,
          "midi": 81,
          "name": "A5",
          "ticks": 174336,
          "time": 255.375,
          "velocity": 0.41732283464566927
        },
        {
          "duration": 0.09375,
          "durationTicks": 64,
          "midi": 79,
          "name": "G5",
          "ticks": 174464,
          "time": 255.5625,
          "velocity": 0.44881889763779526
        },
        {
          "duration": 0.09375,
          "durationTicks": 64,
          "midi": 77,
          "name": "F5",
          "ticks": 174592,
          "time": 255.75,
          "velocity": 0.47244094488188976
        },
        {
          "duration": 0.09375,
          "durationTicks": 64,
          "midi": 75,
          "name": "D#5",
          "ticks": 174720,
          "time": 255.9375,
          "velocity": 0.4566929133858268
        },
        {
          "duration": 0.09375,
          "durationTicks": 64,
          "midi": 74,
          "name": "D5",
          "ticks": 174848,
          "time": 256.125,
          "velocity": 0.4881889763779528
        },
        {
          "duration": 0.09375,
          "durationTicks": 64,
          "midi": 72,
          "name": "C5",
          "ticks": 174976,
          "time": 256.3125,
          "velocity": 0.4409448818897638
        },
        {
          "duration": 0.375,
          "durationTicks": 256,
          "midi": 70,
          "name": "A#4",
          "ticks": 175104,
          "time": 256.5,
          "velocity": 0.4330708661417323
        },
        {
          "duration": 1.5,
          "durationTicks": 1024,
          "midi": 90,
          "name": "F#6",
          "ticks": 180224,
          "time": 264,
          "velocity": 0.7086614173228346
        },
        {
          "duration": 1.3125,
          "durationTicks": 896,
          "midi": 91,
          "name": "G6",
          "ticks": 181248,
          "time": 265.5,
          "velocity": 0.8188976377952756
        },
        {
          "duration": 0.17724609375,
          "durationTicks": 121,
          "midi": 87,
          "name": "D#6",
          "ticks": 182144,
          "time": 266.8125,
          "velocity": 0.6692913385826772
        },
        {
          "duration": 0.7646484375,
          "durationTicks": 522,
          "midi": 86,
          "name": "D6",
          "ticks": 182272,
          "time": 267,
          "velocity": 0.7165354330708661
        },
        {
          "duration": 0.7119140625,
          "durationTicks": 486,
          "midi": 84,
          "name": "C6",
          "ticks": 182784,
          "time": 267.75,
          "velocity": 0.6771653543307087
        },
        {
          "duration": 0.375,
          "durationTicks": 256,
          "midi": 82,
          "name": "A#5",
          "ticks": 183296,
          "time": 268.5,
          "velocity": 0.7244094488188977
        },
        {
          "duration": 1.5,
          "durationTicks": 1024,
          "midi": 90,
          "name": "F#6",
          "ticks": 188416,
          "time": 276,
          "velocity": 0.7165354330708661
        },
        {
          "duration": 1.3125,
          "durationTicks": 896,
          "midi": 91,
          "name": "G6",
          "ticks": 189440,
          "time": 277.5,
          "velocity": 0.8346456692913385
        },
        {
          "duration": 0.17724609375,
          "durationTicks": 121,
          "midi": 87,
          "name": "D#6",
          "ticks": 190336,
          "time": 278.8125,
          "velocity": 0.6692913385826772
        },
        {
          "duration": 0.7646484375,
          "durationTicks": 522,
          "midi": 86,
          "name": "D6",
          "ticks": 190464,
          "time": 279,
          "velocity": 0.7086614173228346
        },
        {
          "duration": 0.7119140625,
          "durationTicks": 486,
          "midi": 84,
          "name": "C6",
          "ticks": 190976,
          "time": 279.75,
          "velocity": 0.6614173228346457
        },
        {
          "duration": 0.75,
          "durationTicks": 512,
          "midi": 82,
          "name": "A#5",
          "ticks": 191488,
          "time": 280.5,
          "velocity": 0.7559055118110236
        },
        {
          "duration": 0.1875,
          "durationTicks": 128,
          "midi": 89,
          "name": "F6",
          "ticks": 192384,
          "time": 281.8125,
          "velocity": 0.6771653543307087
        },
        {
          "duration": 0.1875,
          "durationTicks": 128,
          "midi": 87,
          "name": "D#6",
          "ticks": 192512,
          "time": 282,
          "velocity": 0.7165354330708661
        },
        {
          "duration": 0.1875,
          "durationTicks": 128,
          "midi": 86,
          "name": "D6",
          "ticks": 192640,
          "time": 282.1875,
          "velocity": 0.6850393700787402
        },
        {
          "duration": 0.1875,
          "durationTicks": 128,
          "midi": 84,
          "name": "C6",
          "ticks": 192768,
          "time": 282.375,
          "velocity": 0.6771653543307087
        },
        {
          "duration": 0.1875,
          "durationTicks": 128,
          "midi": 82,
          "name": "A#5",
          "ticks": 192896,
          "time": 282.5625,
          "velocity": 0.7165354330708661
        },
        {
          "duration": 0.1875,
          "durationTicks": 128,
          "midi": 81,
          "name": "A5",
          "ticks": 193024,
          "time": 282.75,
          "velocity": 0.7244094488188977
        },
        {
          "duration": 0.1875,
          "durationTicks": 128,
          "midi": 79,
          "name": "G5",
          "ticks": 193152,
          "time": 282.9375,
          "velocity": 0.7322834645669292
        },
        {
          "duration": 0.1875,
          "durationTicks": 128,
          "midi": 77,
          "name": "F5",
          "ticks": 193280,
          "time": 283.125,
          "velocity": 0.7165354330708661
        },
        {
          "duration": 0.1875,
          "durationTicks": 128,
          "midi": 75,
          "name": "D#5",
          "ticks": 193408,
          "time": 283.3125,
          "velocity": 0.7165354330708661
        },
        {
          "duration": 0.375,
          "durationTicks": 256,
          "midi": 74,
          "name": "D5",
          "ticks": 193536,
          "time": 283.5,
          "velocity": 0.6771653543307087
        },
        {
          "duration": 0.375,
          "durationTicks": 256,
          "midi": 77,
          "name": "F5",
          "ticks": 193792,
          "time": 283.875,
          "velocity": 0.84251968503937
        },
        {
          "duration": 0.375,
          "durationTicks": 256,
          "midi": 79,
          "name": "G5",
          "ticks": 194048,
          "time": 284.25,
          "velocity": 0.8503937007874016
        },
        {
          "duration": 0.375,
          "durationTicks": 256,
          "midi": 81,
          "name": "A5",
          "ticks": 194304,
          "time": 284.625,
          "velocity": 0.8031496062992126
        },
        {
          "duration": 0.1875,
          "durationTicks": 128,
          "midi": 82,
          "name": "A#5",
          "ticks": 194560,
          "time": 285,
          "velocity": 0.8110236220472441
        },
        {
          "duration": 0.1875,
          "durationTicks": 128,
          "midi": 77,
          "name": "F5",
          "ticks": 194688,
          "time": 285.1875,
          "velocity": 0.7007874015748031
        },
        {
          "duration": 0.1875,
          "durationTicks": 128,
          "midi": 86,
          "name": "D6",
          "ticks": 194816,
          "time": 285.375,
          "velocity": 0.9448818897637795
        },
        {
          "duration": 0.1875,
          "durationTicks": 128,
          "midi": 84,
          "name": "C6",
          "ticks": 194944,
          "time": 285.5625,
          "velocity": 0.7322834645669292
        },
        {
          "duration": 0.1875,
          "durationTicks": 128,
          "midi": 82,
          "name": "A#5",
          "ticks": 195072,
          "time": 285.75,
          "velocity": 0.7401574803149606
        },
        {
          "duration": 0.1875,
          "durationTicks": 128,
          "midi": 81,
          "name": "A5",
          "ticks": 195200,
          "time": 285.9375,
          "velocity": 0.7165354330708661
        },
        {
          "duration": 0.1875,
          "durationTicks": 128,
          "midi": 79,
          "name": "G5",
          "ticks": 195328,
          "time": 286.125,
          "velocity": 0.7086614173228346
        },
        {
          "duration": 0.1875,
          "durationTicks": 128,
          "midi": 77,
          "name": "F5",
          "ticks": 195456,
          "time": 286.3125,
          "velocity": 0.7401574803149606
        },
        {
          "duration": 0.1875,
          "durationTicks": 128,
          "midi": 87,
          "name": "D#6",
          "ticks": 195584,
          "time": 286.5,
          "velocity": 0.937007874015748
        },
        {
          "duration": 0.1875,
          "durationTicks": 128,
          "midi": 86,
          "name": "D6",
          "ticks": 195712,
          "time": 286.6875,
          "velocity": 0.7401574803149606
        },
        {
          "duration": 0.1875,
          "durationTicks": 128,
          "midi": 84,
          "name": "C6",
          "ticks": 195840,
          "time": 286.875,
          "velocity": 0.7086614173228346
        },
        {
          "duration": 0.1875,
          "durationTicks": 128,
          "midi": 82,
          "name": "A#5",
          "ticks": 195968,
          "time": 287.0625,
          "velocity": 0.7165354330708661
        },
        {
          "duration": 0.1875,
          "durationTicks": 128,
          "midi": 81,
          "name": "A5",
          "ticks": 196096,
          "time": 287.25,
          "velocity": 0.7559055118110236
        },
        {
          "duration": 0.1875,
          "durationTicks": 128,
          "midi": 84,
          "name": "C6",
          "ticks": 196224,
          "time": 287.4375,
          "velocity": 0.8188976377952756
        },
        {
          "duration": 0.1875,
          "durationTicks": 128,
          "midi": 89,
          "name": "F6",
          "ticks": 196352,
          "time": 287.625,
          "velocity": 0.8267716535433071
        },
        {
          "duration": 0.1875,
          "durationTicks": 128,
          "midi": 87,
          "name": "D#6",
          "ticks": 196480,
          "time": 287.8125,
          "velocity": 0.7559055118110236
        },
        {
          "duration": 0.375,
          "durationTicks": 256,
          "midi": 86,
          "name": "D6",
          "ticks": 196608,
          "time": 288,
          "velocity": 0.7165354330708661
        },
        {
          "duration": 0.375,
          "durationTicks": 256,
          "midi": 89,
          "name": "F6",
          "ticks": 197376,
          "time": 289.125,
          "velocity": 0.6692913385826772
        },
        {
          "duration": 0.375,
          "durationTicks": 256,
          "midi": 86,
          "name": "D6",
          "ticks": 197632,
          "time": 289.5,
          "velocity": 0.6929133858267716
        },
        {
          "duration": 0.375,
          "durationTicks": 256,
          "midi": 91,
          "name": "G6",
          "ticks": 197888,
          "time": 289.875,
          "velocity": 0.8031496062992126
        },
        {
          "duration": 0.375,
          "durationTicks": 256,
          "midi": 89,
          "name": "F6",
          "ticks": 198144,
          "time": 290.25,
          "velocity": 0.7559055118110236
        },
        {
          "duration": 0.375,
          "durationTicks": 256,
          "midi": 81,
          "name": "A5",
          "ticks": 198400,
          "time": 290.625,
          "velocity": 0.6141732283464567
        },
        {
          "duration": 0.375,
          "durationTicks": 256,
          "midi": 82,
          "name": "A#5",
          "ticks": 198656,
          "time": 291,
          "velocity": 0.7637795275590551
        },
        {
          "duration": 0.1875,
          "durationTicks": 128,
          "midi": 82,
          "name": "A#5",
          "ticks": 198912,
          "time": 291.375,
          "velocity": 0.7559055118110236
        },
        {
          "duration": 0.1875,
          "durationTicks": 128,
          "midi": 82,
          "name": "A#5",
          "ticks": 199040,
          "time": 291.5625,
          "velocity": 0.7637795275590551
        },
        {
          "duration": 0.375,
          "durationTicks": 256,
          "midi": 81,
          "name": "A5",
          "ticks": 199168,
          "time": 291.75,
          "velocity": 0.7637795275590551
        },
        {
          "duration": 0.1875,
          "durationTicks": 128,
          "midi": 81,
          "name": "A5",
          "ticks": 199424,
          "time": 292.125,
          "velocity": 0.7795275590551181
        },
        {
          "duration": 0.1875,
          "durationTicks": 128,
          "midi": 81,
          "name": "A5",
          "ticks": 199552,
          "time": 292.3125,
          "velocity": 0.8031496062992126
        },
        {
          "duration": 0.375,
          "durationTicks": 256,
          "midi": 82,
          "name": "A#5",
          "ticks": 199680,
          "time": 292.5,
          "velocity": 0.8110236220472441
        },
        {
          "duration": 0.1875,
          "durationTicks": 128,
          "midi": 82,
          "name": "A#5",
          "ticks": 199936,
          "time": 292.875,
          "velocity": 0.7795275590551181
        },
        {
          "duration": 0.1875,
          "durationTicks": 128,
          "midi": 82,
          "name": "A#5",
          "ticks": 200064,
          "time": 293.0625,
          "velocity": 0.7716535433070866
        },
        {
          "duration": 0.375,
          "durationTicks": 256,
          "midi": 81,
          "name": "A5",
          "ticks": 200192,
          "time": 293.25,
          "velocity": 0.7244094488188977
        },
        {
          "duration": 0.1875,
          "durationTicks": 128,
          "midi": 81,
          "name": "A5",
          "ticks": 200448,
          "time": 293.625,
          "velocity": 0.7795275590551181
        },
        {
          "duration": 0.1875,
          "durationTicks": 128,
          "midi": 81,
          "name": "A5",
          "ticks": 200576,
          "time": 293.8125,
          "velocity": 0.7637795275590551
        },
        {
          "duration": 0.375,
          "durationTicks": 256,
          "midi": 82,
          "name": "A#5",
          "ticks": 200704,
          "time": 294,
          "velocity": 0.8110236220472441
        },
        {
          "duration": 0.1875,
          "durationTicks": 128,
          "midi": 82,
          "name": "A#5",
          "ticks": 200960,
          "time": 294.375,
          "velocity": 0.7401574803149606
        },
        {
          "duration": 0.1875,
          "durationTicks": 128,
          "midi": 82,
          "name": "A#5",
          "ticks": 201088,
          "time": 294.5625,
          "velocity": 0.7637795275590551
        },
        {
          "duration": 0.375,
          "durationTicks": 256,
          "midi": 81,
          "name": "A5",
          "ticks": 201216,
          "time": 294.75,
          "velocity": 0.7401574803149606
        },
        {
          "duration": 0.1875,
          "durationTicks": 128,
          "midi": 81,
          "name": "A5",
          "ticks": 201472,
          "time": 295.125,
          "velocity": 0.7874015748031497
        },
        {
          "duration": 0.1875,
          "durationTicks": 128,
          "midi": 81,
          "name": "A5",
          "ticks": 201600,
          "time": 295.3125,
          "velocity": 0.7480314960629921
        },
        {
          "duration": 0.375,
          "durationTicks": 256,
          "midi": 82,
          "name": "A#5",
          "ticks": 201728,
          "time": 295.5,
          "velocity": 0.7874015748031497
        },
        {
          "duration": 0.375,
          "durationTicks": 256,
          "midi": 81,
          "name": "A5",
          "ticks": 201984,
          "time": 295.875,
          "velocity": 0.7165354330708661
        },
        {
          "duration": 0.375,
          "durationTicks": 256,
          "midi": 82,
          "name": "A#5",
          "ticks": 202240,
          "time": 296.25,
          "velocity": 0.8110236220472441
        },
        {
          "duration": 0.375,
          "durationTicks": 256,
          "midi": 81,
          "name": "A5",
          "ticks": 202496,
          "time": 296.625,
          "velocity": 0.7401574803149606
        },
        {
          "duration": 0.375,
          "durationTicks": 256,
          "midi": 82,
          "name": "A#5",
          "ticks": 202752,
          "time": 297,
          "velocity": 0.8188976377952756
        },
        {
          "duration": 0.375,
          "durationTicks": 256,
          "midi": 78,
          "name": "F#5",
          "ticks": 203776,
          "time": 298.5,
          "velocity": 0.6850393700787402
        },
        {
          "duration": 0.375,
          "durationTicks": 256,
          "midi": 79,
          "name": "G5",
          "ticks": 204800,
          "time": 300,
          "velocity": 0.6850393700787402
        },
        {
          "duration": 0.375,
          "durationTicks": 256,
          "midi": 80,
          "name": "G#5",
          "ticks": 205312,
          "time": 300.75,
          "velocity": 0.7007874015748031
        },
        {
          "duration": 1.529296875,
          "durationTicks": 1044,
          "midi": 86,
          "name": "D6",
          "ticks": 205824,
          "time": 301.5,
          "velocity": 0.3937007874015748
        },
        {
          "duration": 0.7646484375,
          "durationTicks": 522,
          "midi": 85,
          "name": "C#6",
          "ticks": 206848,
          "time": 303,
          "velocity": 0.4251968503937008
        },
        {
          "duration": 0.7646484375,
          "durationTicks": 522,
          "midi": 83,
          "name": "B5",
          "ticks": 207360,
          "time": 303.75,
          "velocity": 0.3937007874015748
        },
        {
          "duration": 0.7646484375,
          "durationTicks": 522,
          "midi": 81,
          "name": "A5",
          "ticks": 207872,
          "time": 304.5,
          "velocity": 0.4015748031496063
        },
        {
          "duration": 0.7119140625,
          "durationTicks": 486,
          "midi": 80,
          "name": "G#5",
          "ticks": 208384,
          "time": 305.25,
          "velocity": 0.48031496062992124
        },
        {
          "duration": 0.375,
          "durationTicks": 256,
          "midi": 78,
          "name": "F#5",
          "ticks": 208896,
          "time": 306,
          "velocity": 0.44881889763779526
        },
        {
          "duration": 0.75,
          "durationTicks": 512,
          "midi": 90,
          "name": "F#6",
          "ticks": 218880,
          "time": 320.625,
          "velocity": 0.6771653543307087
        },
        {
          "duration": 0.75,
          "durationTicks": 512,
          "midi": 88,
          "name": "E6",
          "ticks": 219392,
          "time": 321.375,
          "velocity": 0.6850393700787402
        },
        {
          "duration": 0.375,
          "durationTicks": 256,
          "midi": 87,
          "name": "D#6",
          "ticks": 219904,
          "time": 322.125,
          "velocity": 0.7716535433070866
        },
        {
          "duration": 0.375,
          "durationTicks": 256,
          "midi": 88,
          "name": "E6",
          "ticks": 220160,
          "time": 322.5,
          "velocity": 0.8110236220472441
        },
        {
          "duration": 0.75,
          "durationTicks": 512,
          "midi": 88,
          "name": "E6",
          "ticks": 222976,
          "time": 326.625,
          "velocity": 0.7244094488188977
        },
        {
          "duration": 0.75,
          "durationTicks": 512,
          "midi": 86,
          "name": "D6",
          "ticks": 223488,
          "time": 327.375,
          "velocity": 0.7322834645669292
        },
        {
          "duration": 0.375,
          "durationTicks": 256,
          "midi": 85,
          "name": "C#6",
          "ticks": 224000,
          "time": 328.125,
          "velocity": 0.7559055118110236
        },
        {
          "duration": 0.375,
          "durationTicks": 256,
          "midi": 86,
          "name": "D6",
          "ticks": 224256,
          "time": 328.5,
          "velocity": 0.8110236220472441
        },
        {
          "duration": 0.75,
          "durationTicks": 512,
          "midi": 86,
          "name": "D6",
          "ticks": 227072,
          "time": 332.625,
          "velocity": 0.6850393700787402
        },
        {
          "duration": 0.75,
          "durationTicks": 512,
          "midi": 84,
          "name": "C6",
          "ticks": 227584,
          "time": 333.375,
          "velocity": 0.7165354330708661
        },
        {
          "duration": 0.375,
          "durationTicks": 256,
          "midi": 83,
          "name": "B5",
          "ticks": 228096,
          "time": 334.125,
          "velocity": 0.7401574803149606
        },
        {
          "duration": 0.375,
          "durationTicks": 256,
          "midi": 84,
          "name": "C6",
          "ticks": 228352,
          "time": 334.5,
          "velocity": 0.8110236220472441
        },
        {
          "duration": 1.125,
          "durationTicks": 768,
          "midi": 77,
          "name": "F5",
          "ticks": 230400,
          "time": 337.5,
          "velocity": 0.7007874015748031
        },
        {
          "duration": 0.375,
          "durationTicks": 256,
          "midi": 84,
          "name": "C6",
          "ticks": 231168,
          "time": 338.625,
          "velocity": 0.9133858267716536
        },
        {
          "duration": 0.375,
          "durationTicks": 256,
          "midi": 89,
          "name": "F6",
          "ticks": 231424,
          "time": 339,
          "velocity": 0.889763779527559
        },
        {
          "duration": 0.375,
          "durationTicks": 256,
          "midi": 87,
          "name": "D#6",
          "ticks": 231936,
          "time": 339.75,
          "velocity": 0.7165354330708661
        },
        {
          "duration": 3.375,
          "durationTicks": 2304,
          "midi": 86,
          "name": "D6",
          "ticks": 232448,
          "time": 340.5,
          "velocity": 0.7244094488188977
        },
        {
          "duration": 0.1875,
          "durationTicks": 128,
          "midi": 84,
          "name": "C6",
          "ticks": 234752,
          "time": 343.875,
          "velocity": 0.7637795275590551
        },
        {
          "duration": 0.1875,
          "durationTicks": 128,
          "midi": 82,
          "name": "A#5",
          "ticks": 234880,
          "time": 344.0625,
          "velocity": 0.7322834645669292
        },
        {
          "duration": 2.625,
          "durationTicks": 1792,
          "midi": 84,
          "name": "C6",
          "ticks": 235008,
          "time": 344.25,
          "velocity": 0.7952755905511811
        },
        {
          "duration": 0.1875,
          "durationTicks": 128,
          "midi": 82,
          "name": "A#5",
          "ticks": 236800,
          "time": 346.875,
          "velocity": 0.7165354330708661
        },
        {
          "duration": 0.1875,
          "durationTicks": 128,
          "midi": 81,
          "name": "A5",
          "ticks": 236928,
          "time": 347.0625,
          "velocity": 0.7244094488188977
        },
        {
          "duration": 0.375,
          "durationTicks": 256,
          "midi": 82,
          "name": "A#5",
          "ticks": 237056,
          "time": 347.25,
          "velocity": 0.8188976377952756
        },
        {
          "duration": 0.57275390625,
          "durationTicks": 391,
          "midi": 91,
          "name": "G6",
          "ticks": 237568,
          "time": 348,
          "velocity": 0.7165354330708661
        },
        {
          "duration": 0.17724609375,
          "durationTicks": 121,
          "midi": 89,
          "name": "F6",
          "ticks": 237952,
          "time": 348.5625,
          "velocity": 0.6614173228346457
        },
        {
          "duration": 0.57275390625,
          "durationTicks": 391,
          "midi": 88,
          "name": "E6",
          "ticks": 238080,
          "time": 348.75,
          "velocity": 0.7401574803149606
        },
        {
          "duration": 0.17724609375,
          "durationTicks": 121,
          "midi": 86,
          "name": "D6",
          "ticks": 238464,
          "time": 349.3125,
          "velocity": 0.6850393700787402
        },
        {
          "duration": 0.38232421875,
          "durationTicks": 261,
          "midi": 85,
          "name": "C#6",
          "ticks": 238592,
          "time": 349.5,
          "velocity": 0.7322834645669292
        },
        {
          "duration": 0.38232421875,
          "durationTicks": 261,
          "midi": 88,
          "name": "E6",
          "ticks": 238848,
          "time": 349.875,
          "velocity": 0.8031496062992126
        },
        {
          "duration": 0.38232421875,
          "durationTicks": 261,
          "midi": 89,
          "name": "F6",
          "ticks": 239104,
          "time": 350.25,
          "velocity": 0.889763779527559
        },
        {
          "duration": 0.38232421875,
          "durationTicks": 261,
          "midi": 86,
          "name": "D6",
          "ticks": 239360,
          "time": 350.625,
          "velocity": 0.7874015748031497
        },
        {
          "duration": 0.38232421875,
          "durationTicks": 261,
          "midi": 85,
          "name": "C#6",
          "ticks": 239616,
          "time": 351,
          "velocity": 0.7480314960629921
        },
        {
          "duration": 0.38232421875,
          "durationTicks": 261,
          "midi": 88,
          "name": "E6",
          "ticks": 239872,
          "time": 351.375,
          "velocity": 0.8031496062992126
        },
        {
          "duration": 0.38232421875,
          "durationTicks": 261,
          "midi": 89,
          "name": "F6",
          "ticks": 240128,
          "time": 351.75,
          "velocity": 0.8267716535433071
        },
        {
          "duration": 0.35595703125,
          "durationTicks": 243,
          "midi": 86,
          "name": "D6",
          "ticks": 240384,
          "time": 352.125,
          "velocity": 0.8110236220472441
        },
        {
          "duration": 0.38232421875,
          "durationTicks": 261,
          "midi": 85,
          "name": "C#6",
          "ticks": 240640,
          "time": 352.5,
          "velocity": 0.7795275590551181
        },
        {
          "duration": 0.38232421875,
          "durationTicks": 261,
          "midi": 88,
          "name": "E6",
          "ticks": 240896,
          "time": 352.875,
          "velocity": 0.84251968503937
        },
        {
          "duration": 0.38232421875,
          "durationTicks": 261,
          "midi": 89,
          "name": "F6",
          "ticks": 241152,
          "time": 353.25,
          "velocity": 0.8267716535433071
        },
        {
          "duration": 0.38232421875,
          "durationTicks": 261,
          "midi": 86,
          "name": "D6",
          "ticks": 241408,
          "time": 353.625,
          "velocity": 0.7716535433070866
        },
        {
          "duration": 0.38232421875,
          "durationTicks": 261,
          "midi": 85,
          "name": "C#6",
          "ticks": 241664,
          "time": 354,
          "velocity": 0.7244094488188977
        },
        {
          "duration": 0.38232421875,
          "durationTicks": 261,
          "midi": 88,
          "name": "E6",
          "ticks": 241920,
          "time": 354.375,
          "velocity": 0.8031496062992126
        },
        {
          "duration": 0.38232421875,
          "durationTicks": 261,
          "midi": 89,
          "name": "F6",
          "ticks": 242176,
          "time": 354.75,
          "velocity": 0.8110236220472441
        },
        {
          "duration": 0.38232421875,
          "durationTicks": 261,
          "midi": 86,
          "name": "D6",
          "ticks": 242432,
          "time": 355.125,
          "velocity": 0.7401574803149606
        },
        {
          "duration": 0.7119140625,
          "durationTicks": 486,
          "midi": 85,
          "name": "C#6",
          "ticks": 242688,
          "time": 355.5,
          "velocity": 0.7165354330708661
        },
        {
          "duration": 0.1904296875,
          "durationTicks": 130,
          "midi": 77,
          "name": "F5",
          "ticks": 244480,
          "time": 358.125,
          "velocity": 0.4094488188976378
        },
        {
          "duration": 0.17724609375,
          "durationTicks": 121,
          "midi": 75,
          "name": "D#5",
          "ticks": 244608,
          "time": 358.3125,
          "velocity": 0.3543307086614173
        },
        {
          "duration": 0.1875,
          "durationTicks": 128,
          "midi": 75,
          "name": "D#5",
          "ticks": 244736,
          "time": 358.5,
          "velocity": 0.47244094488188976
        },
        {
          "duration": 0.1904296875,
          "durationTicks": 130,
          "midi": 77,
          "name": "F5",
          "ticks": 244992,
          "time": 358.875,
          "velocity": 0.5196850393700787
        },
        {
          "duration": 0.17724609375,
          "durationTicks": 121,
          "midi": 75,
          "name": "D#5",
          "ticks": 245120,
          "time": 359.0625,
          "velocity": 0.5354330708661418
        },
        {
          "duration": 0.1875,
          "durationTicks": 128,
          "midi": 75,
          "name": "D#5",
          "ticks": 245248,
          "time": 359.25,
          "velocity": 0.5118110236220472
        },
        {
          "duration": 0.1875,
          "durationTicks": 128,
          "midi": 75,
          "name": "D#5",
          "ticks": 245504,
          "time": 359.625,
          "velocity": 0.47244094488188976
        },
        {
          "duration": 0.1904296875,
          "durationTicks": 130,
          "midi": 78,
          "name": "F#5",
          "ticks": 246528,
          "time": 361.125,
          "velocity": 0.4409448818897638
        },
        {
          "duration": 0.17724609375,
          "durationTicks": 121,
          "midi": 77,
          "name": "F5",
          "ticks": 246656,
          "time": 361.3125,
          "velocity": 0.4330708661417323
        },
        {
          "duration": 0.1875,
          "durationTicks": 128,
          "midi": 77,
          "name": "F5",
          "ticks": 246784,
          "time": 361.5,
          "velocity": 0.5039370078740157
        },
        {
          "duration": 0.1904296875,
          "durationTicks": 130,
          "midi": 78,
          "name": "F#5",
          "ticks": 247040,
          "time": 361.875,
          "velocity": 0.5039370078740157
        },
        {
          "duration": 0.17724609375,
          "durationTicks": 121,
          "midi": 77,
          "name": "F5",
          "ticks": 247168,
          "time": 362.0625,
          "velocity": 0.4881889763779528
        },
        {
          "duration": 0.1875,
          "durationTicks": 128,
          "midi": 77,
          "name": "F5",
          "ticks": 247296,
          "time": 362.25,
          "velocity": 0.5039370078740157
        },
        {
          "duration": 0.1875,
          "durationTicks": 128,
          "midi": 77,
          "name": "F5",
          "ticks": 247552,
          "time": 362.625,
          "velocity": 0.47244094488188976
        },
        {
          "duration": 0.1904296875,
          "durationTicks": 130,
          "midi": 79,
          "name": "G5",
          "ticks": 248576,
          "time": 364.125,
          "velocity": 0.44881889763779526
        },
        {
          "duration": 0.17724609375,
          "durationTicks": 121,
          "midi": 77,
          "name": "F5",
          "ticks": 248704,
          "time": 364.3125,
          "velocity": 0.4330708661417323
        },
        {
          "duration": 0.1875,
          "durationTicks": 128,
          "midi": 77,
          "name": "F5",
          "ticks": 248832,
          "time": 364.5,
          "velocity": 0.4409448818897638
        },
        {
          "duration": 0.1904296875,
          "durationTicks": 130,
          "midi": 79,
          "name": "G5",
          "ticks": 249088,
          "time": 364.875,
          "velocity": 0.5196850393700787
        },
        {
          "duration": 0.17724609375,
          "durationTicks": 121,
          "midi": 77,
          "name": "F5",
          "ticks": 249216,
          "time": 365.0625,
          "velocity": 0.49606299212598426
        },
        {
          "duration": 0.1875,
          "durationTicks": 128,
          "midi": 77,
          "name": "F5",
          "ticks": 249344,
          "time": 365.25,
          "velocity": 0.5039370078740157
        },
        {
          "duration": 0.1875,
          "durationTicks": 128,
          "midi": 77,
          "name": "F5",
          "ticks": 249600,
          "time": 365.625,
          "velocity": 0.4881889763779528
        },
        {
          "duration": 0.1904296875,
          "durationTicks": 130,
          "midi": 80,
          "name": "G#5",
          "ticks": 250624,
          "time": 367.125,
          "velocity": 0.4330708661417323
        },
        {
          "duration": 0.17724609375,
          "durationTicks": 121,
          "midi": 79,
          "name": "G5",
          "ticks": 250752,
          "time": 367.3125,
          "velocity": 0.4251968503937008
        },
        {
          "duration": 0.1875,
          "durationTicks": 128,
          "midi": 79,
          "name": "G5",
          "ticks": 250880,
          "time": 367.5,
          "velocity": 0.4566929133858268
        },
        {
          "duration": 0.1904296875,
          "durationTicks": 130,
          "midi": 80,
          "name": "G#5",
          "ticks": 251136,
          "time": 367.875,
          "velocity": 0.5118110236220472
        },
        {
          "duration": 0.17724609375,
          "durationTicks": 121,
          "midi": 79,
          "name": "G5",
          "ticks": 251264,
          "time": 368.0625,
          "velocity": 0.44881889763779526
        },
        {
          "duration": 0.1875,
          "durationTicks": 128,
          "midi": 79,
          "name": "G5",
          "ticks": 251392,
          "time": 368.25,
          "velocity": 0.48031496062992124
        },
        {
          "duration": 0.1875,
          "durationTicks": 128,
          "midi": 79,
          "name": "G5",
          "ticks": 251648,
          "time": 368.625,
          "velocity": 0.48031496062992124
        },
        {
          "duration": 0.1904296875,
          "durationTicks": 130,
          "midi": 83,
          "name": "B5",
          "ticks": 253184,
          "time": 370.875,
          "velocity": 0.47244094488188976
        },
        {
          "duration": 0.17724609375,
          "durationTicks": 121,
          "midi": 84,
          "name": "C6",
          "ticks": 253312,
          "time": 371.0625,
          "velocity": 0.5039370078740157
        },
        {
          "duration": 0.1875,
          "durationTicks": 128,
          "midi": 84,
          "name": "C6",
          "ticks": 253440,
          "time": 371.25,
          "velocity": 0.48031496062992124
        },
        {
          "duration": 0.1904296875,
          "durationTicks": 130,
          "midi": 87,
          "name": "D#6",
          "ticks": 255232,
          "time": 373.875,
          "velocity": 0.4409448818897638
        },
        {
          "duration": 0.17724609375,
          "durationTicks": 121,
          "midi": 86,
          "name": "D6",
          "ticks": 255360,
          "time": 374.0625,
          "velocity": 0.41732283464566927
        },
        {
          "duration": 0.1875,
          "durationTicks": 128,
          "midi": 86,
          "name": "D6",
          "ticks": 255488,
          "time": 374.25,
          "velocity": 0.47244094488188976
        },
        {
          "duration": 0.1904296875,
          "durationTicks": 130,
          "midi": 91,
          "name": "G6",
          "ticks": 257280,
          "time": 376.875,
          "velocity": 0.4330708661417323
        },
        {
          "duration": 0.17724609375,
          "durationTicks": 121,
          "midi": 90,
          "name": "F#6",
          "ticks": 257408,
          "time": 377.0625,
          "velocity": 0.4094488188976378
        },
        {
          "duration": 0.1875,
          "durationTicks": 128,
          "midi": 90,
          "name": "F#6",
          "ticks": 257536,
          "time": 377.25,
          "velocity": 0.48031496062992124
        },
        {
          "duration": 0.38232421875,
          "durationTicks": 261,
          "midi": 81,
          "name": "A5",
          "ticks": 258048,
          "time": 378,
          "velocity": 0.6692913385826772
        },
        {
          "duration": 0.38232421875,
          "durationTicks": 261,
          "midi": 84,
          "name": "C6",
          "ticks": 258304,
          "time": 378.375,
          "velocity": 0.7244094488188977
        },
        {
          "duration": 0.35595703125,
          "durationTicks": 243,
          "midi": 87,
          "name": "D#6",
          "ticks": 258560,
          "time": 378.75,
          "velocity": 0.8582677165354331
        },
        {
          "duration": 0.38232421875,
          "durationTicks": 261,
          "midi": 79,
          "name": "G5",
          "ticks": 259072,
          "time": 379.5,
          "velocity": 0.6456692913385826
        },
        {
          "duration": 0.38232421875,
          "durationTicks": 261,
          "midi": 82,
          "name": "A#5",
          "ticks": 259328,
          "time": 379.875,
          "velocity": 0.6692913385826772
        },
        {
          "duration": 0.35595703125,
          "durationTicks": 243,
          "midi": 86,
          "name": "D6",
          "ticks": 259584,
          "time": 380.25,
          "velocity": 0.8582677165354331
        },
        {
          "duration": 0.38232421875,
          "durationTicks": 261,
          "midi": 91,
          "name": "G6",
          "ticks": 260096,
          "time": 381,
          "velocity": 0.6850393700787402
        },
        {
          "duration": 0.38232421875,
          "durationTicks": 261,
          "midi": 88,
          "name": "E6",
          "ticks": 260352,
          "time": 381.375,
          "velocity": 0.6220472440944882
        },
        {
          "duration": 0.35595703125,
          "durationTicks": 243,
          "midi": 85,
          "name": "C#6",
          "ticks": 260608,
          "time": 381.75,
          "velocity": 0.6850393700787402
        },
        {
          "duration": 0.38232421875,
          "durationTicks": 261,
          "midi": 86,
          "name": "D6",
          "ticks": 261120,
          "time": 382.5,
          "velocity": 0.6771653543307087
        },
        {
          "duration": 0.38232421875,
          "durationTicks": 261,
          "midi": 81,
          "name": "A5",
          "ticks": 261376,
          "time": 382.875,
          "velocity": 0.6062992125984252
        },
        {
          "duration": 0.35595703125,
          "durationTicks": 243,
          "midi": 78,
          "name": "F#5",
          "ticks": 261632,
          "time": 383.25,
          "velocity": 0.7086614173228346
        },
        {
          "duration": 0.38232421875,
          "durationTicks": 261,
          "midi": 81,
          "name": "A5",
          "ticks": 262144,
          "time": 384,
          "velocity": 0.6771653543307087
        },
        {
          "duration": 0.38232421875,
          "durationTicks": 261,
          "midi": 84,
          "name": "C6",
          "ticks": 262400,
          "time": 384.375,
          "velocity": 0.7322834645669292
        },
        {
          "duration": 0.35595703125,
          "durationTicks": 243,
          "midi": 90,
          "name": "F#6",
          "ticks": 262656,
          "time": 384.75,
          "velocity": 0.8818897637795275
        },
        {
          "duration": 0.38232421875,
          "durationTicks": 261,
          "midi": 82,
          "name": "A#5",
          "ticks": 263168,
          "time": 385.5,
          "velocity": 0.7007874015748031
        },
        {
          "duration": 0.38232421875,
          "durationTicks": 261,
          "midi": 86,
          "name": "D6",
          "ticks": 263424,
          "time": 385.875,
          "velocity": 0.7559055118110236
        },
        {
          "duration": 0.35595703125,
          "durationTicks": 243,
          "midi": 91,
          "name": "G6",
          "ticks": 263680,
          "time": 386.25,
          "velocity": 0.8740157480314961
        },
        {
          "duration": 0.1904296875,
          "durationTicks": 130,
          "midi": 87,
          "name": "D#6",
          "ticks": 265472,
          "time": 388.875,
          "velocity": 0.3858267716535433
        },
        {
          "duration": 0.17724609375,
          "durationTicks": 121,
          "midi": 86,
          "name": "D6",
          "ticks": 265600,
          "time": 389.0625,
          "velocity": 0.3858267716535433
        },
        {
          "duration": 1.125,
          "durationTicks": 768,
          "midi": 86,
          "name": "D6",
          "ticks": 265728,
          "time": 389.25,
          "velocity": 0.47244094488188976
        },
        {
          "duration": 0.1904296875,
          "durationTicks": 130,
          "midi": 86,
          "name": "D6",
          "ticks": 266496,
          "time": 390.375,
          "velocity": 0.4645669291338583
        },
        {
          "duration": 0.17724609375,
          "durationTicks": 121,
          "midi": 84,
          "name": "C6",
          "ticks": 266624,
          "time": 390.5625,
          "velocity": 0.4094488188976378
        },
        {
          "duration": 1.125,
          "durationTicks": 768,
          "midi": 84,
          "name": "C6",
          "ticks": 266752,
          "time": 390.75,
          "velocity": 0.4409448818897638
        },
        {
          "duration": 0.1904296875,
          "durationTicks": 130,
          "midi": 84,
          "name": "C6",
          "ticks": 267520,
          "time": 391.875,
          "velocity": 0.48031496062992124
        },
        {
          "duration": 0.17724609375,
          "durationTicks": 121,
          "midi": 83,
          "name": "B5",
          "ticks": 267648,
          "time": 392.0625,
          "velocity": 0.49606299212598426
        },
        {
          "duration": 1.125,
          "durationTicks": 768,
          "midi": 82,
          "name": "A#5",
          "ticks": 267776,
          "time": 392.25,
          "velocity": 0.4645669291338583
        },
        {
          "duration": 0.1904296875,
          "durationTicks": 130,
          "midi": 82,
          "name": "A#5",
          "ticks": 268544,
          "time": 393.375,
          "velocity": 0.4645669291338583
        },
        {
          "duration": 0.17724609375,
          "durationTicks": 121,
          "midi": 81,
          "name": "A5",
          "ticks": 268672,
          "time": 393.5625,
          "velocity": 0.4251968503937008
        },
        {
          "duration": 1.125,
          "durationTicks": 768,
          "midi": 81,
          "name": "A5",
          "ticks": 268800,
          "time": 393.75,
          "velocity": 0.4566929133858268
        },
        {
          "duration": 0.1904296875,
          "durationTicks": 130,
          "midi": 81,
          "name": "A5",
          "ticks": 269568,
          "time": 394.875,
          "velocity": 0.5196850393700787
        },
        {
          "duration": 0.17724609375,
          "durationTicks": 121,
          "midi": 80,
          "name": "G#5",
          "ticks": 269696,
          "time": 395.0625,
          "velocity": 0.5039370078740157
        },
        {
          "duration": 1.5,
          "durationTicks": 1024,
          "midi": 79,
          "name": "G5",
          "ticks": 269824,
          "time": 395.25,
          "velocity": 0.44881889763779526
        },
        {
          "duration": 0.75,
          "durationTicks": 512,
          "midi": 78,
          "name": "F#5",
          "ticks": 270848,
          "time": 396.75,
          "velocity": 0.4251968503937008
        },
        {
          "duration": 0.375,
          "durationTicks": 256,
          "midi": 79,
          "name": "G5",
          "ticks": 271360,
          "time": 397.5,
          "velocity": 0.48031496062992124
        },
        {
          "duration": 0.38232421875,
          "durationTicks": 261,
          "midi": 78,
          "name": "F#5",
          "ticks": 282880,
          "time": 414.375,
          "velocity": 0.4409448818897638
        },
        {
          "duration": 0.38232421875,
          "durationTicks": 261,
          "midi": 79,
          "name": "G5",
          "ticks": 283136,
          "time": 414.75,
          "velocity": 0.44881889763779526
        },
        {
          "duration": 0.38232421875,
          "durationTicks": 261,
          "midi": 81,
          "name": "A5",
          "ticks": 283392,
          "time": 415.125,
          "velocity": 0.48031496062992124
        },
        {
          "duration": 0.38232421875,
          "durationTicks": 261,
          "midi": 82,
          "name": "A#5",
          "ticks": 283648,
          "time": 415.5,
          "velocity": 0.48031496062992124
        },
        {
          "duration": 0.1904296875,
          "durationTicks": 130,
          "midi": 84,
          "name": "C6",
          "ticks": 283904,
          "time": 415.875,
          "velocity": 0.5039370078740157
        },
        {
          "duration": 0.1904296875,
          "durationTicks": 130,
          "midi": 82,
          "name": "A#5",
          "ticks": 284032,
          "time": 416.0625,
          "velocity": 0.4330708661417323
        },
        {
          "duration": 0.38232421875,
          "durationTicks": 261,
          "midi": 81,
          "name": "A5",
          "ticks": 284160,
          "time": 416.25,
          "velocity": 0.4330708661417323
        },
        {
          "duration": 0.38232421875,
          "durationTicks": 261,
          "midi": 79,
          "name": "G5",
          "ticks": 284416,
          "time": 416.625,
          "velocity": 0.3700787401574803
        },
        {
          "duration": 0.35595703125,
          "durationTicks": 243,
          "midi": 78,
          "name": "F#5",
          "ticks": 284672,
          "time": 417,
          "velocity": 0.4251968503937008
        },
        {
          "duration": 0.7646484375,
          "durationTicks": 522,
          "midi": 85,
          "name": "C#6",
          "ticks": 285184,
          "time": 417.75,
          "velocity": 0.6535433070866141
        },
        {
          "duration": 0.35595703125,
          "durationTicks": 243,
          "midi": 86,
          "name": "D6",
          "ticks": 285696,
          "time": 418.5,
          "velocity": 0.6614173228346457
        },
        {
          "duration": 0.7646484375,
          "durationTicks": 522,
          "midi": 85,
          "name": "C#6",
          "ticks": 286208,
          "time": 419.25,
          "velocity": 0.7086614173228346
        },
        {
          "duration": 0.35595703125,
          "durationTicks": 243,
          "midi": 86,
          "name": "D6",
          "ticks": 286720,
          "time": 420,
          "velocity": 0.6850393700787402
        },
        {
          "duration": 0.7646484375,
          "durationTicks": 522,
          "midi": 85,
          "name": "C#6",
          "ticks": 287232,
          "time": 420.75,
          "velocity": 0.7007874015748031
        },
        {
          "duration": 0.35595703125,
          "durationTicks": 243,
          "midi": 86,
          "name": "D6",
          "ticks": 287744,
          "time": 421.5,
          "velocity": 0.7244094488188977
        },
        {
          "duration": 0.1875,
          "durationTicks": 128,
          "midi": 85,
          "name": "C#6",
          "ticks": 288000,
          "time": 421.875,
          "velocity": 0.7401574803149606
        },
        {
          "duration": 0.1875,
          "durationTicks": 128,
          "midi": 86,
          "name": "D6",
          "ticks": 288256,
          "time": 422.25,
          "velocity": 0.8503937007874016
        },
        {
          "duration": 0.1875,
          "durationTicks": 128,
          "midi": 85,
          "name": "C#6",
          "ticks": 288512,
          "time": 422.625,
          "velocity": 0.7244094488188977
        },
        {
          "duration": 0.75,
          "durationTicks": 512,
          "midi": 86,
          "name": "D6",
          "ticks": 288768,
          "time": 423,
          "velocity": 0.84251968503937
        },
        {
          "duration": 1.5,
          "durationTicks": 1024,
          "midi": 82,
          "name": "A#5",
          "ticks": 292864,
          "time": 429,
          "velocity": 0.4566929133858268
        },
        {
          "duration": 1.5,
          "durationTicks": 1024,
          "midi": 83,
          "name": "B5",
          "ticks": 293888,
          "time": 430.5,
          "velocity": 0.49606299212598426
        },
        {
          "duration": 0.7646484375,
          "durationTicks": 522,
          "midi": 82,
          "name": "A#5",
          "ticks": 294912,
          "time": 432,
          "velocity": 0.47244094488188976
        },
        {
          "duration": 0.7646484375,
          "durationTicks": 522,
          "midi": 86,
          "name": "D6",
          "ticks": 295424,
          "time": 432.75,
          "velocity": 0.5196850393700787
        },
        {
          "duration": 0.7646484375,
          "durationTicks": 522,
          "midi": 89,
          "name": "F6",
          "ticks": 295936,
          "time": 433.5,
          "velocity": 0.5590551181102362
        },
        {
          "duration": 0.7119140625,
          "durationTicks": 486,
          "midi": 80,
          "name": "G#5",
          "ticks": 296448,
          "time": 434.25,
          "velocity": 0.4881889763779528
        },
        {
          "duration": 0.75,
          "durationTicks": 512,
          "midi": 79,
          "name": "G5",
          "ticks": 296960,
          "time": 435,
          "velocity": 0.6929133858267716
        },
        {
          "duration": 0.75,
          "durationTicks": 512,
          "midi": 75,
          "name": "D#5",
          "ticks": 297472,
          "time": 435.75,
          "velocity": 0.6771653543307087
        },
        {
          "duration": 1.5,
          "durationTicks": 1024,
          "midi": 82,
          "name": "A#5",
          "ticks": 297984,
          "time": 436.5,
          "velocity": 0.889763779527559
        },
        {
          "duration": 1.5,
          "durationTicks": 1024,
          "midi": 80,
          "name": "G#5",
          "ticks": 299008,
          "time": 438,
          "velocity": 0.7322834645669292
        },
        {
          "duration": 0.75,
          "durationTicks": 512,
          "midi": 79,
          "name": "G5",
          "ticks": 300032,
          "time": 439.5,
          "velocity": 0.7165354330708661
        },
        {
          "duration": 0.75,
          "durationTicks": 512,
          "midi": 91,
          "name": "G6",
          "ticks": 300544,
          "time": 440.25,
          "velocity": 0.968503937007874
        },
        {
          "duration": 1.5,
          "durationTicks": 1024,
          "midi": 89,
          "name": "F6",
          "ticks": 301056,
          "time": 441,
          "velocity": 0.7559055118110236
        },
        {
          "duration": 0.75,
          "durationTicks": 512,
          "midi": 88,
          "name": "E6",
          "ticks": 302080,
          "time": 442.5,
          "velocity": 0.7086614173228346
        },
        {
          "duration": 0.75,
          "durationTicks": 512,
          "midi": 85,
          "name": "C#6",
          "ticks": 302592,
          "time": 443.25,
          "velocity": 0.7086614173228346
        },
        {
          "duration": 0.75,
          "durationTicks": 512,
          "midi": 84,
          "name": "C6",
          "ticks": 303104,
          "time": 444,
          "velocity": 0.6929133858267716
        },
        {
          "duration": 0.75,
          "durationTicks": 512,
          "midi": 82,
          "name": "A#5",
          "ticks": 303616,
          "time": 444.75,
          "velocity": 0.7007874015748031
        },
        {
          "duration": 0.75,
          "durationTicks": 512,
          "midi": 80,
          "name": "G#5",
          "ticks": 304128,
          "time": 445.5,
          "velocity": 0.7007874015748031
        },
        {
          "duration": 0.75,
          "durationTicks": 512,
          "midi": 77,
          "name": "F5",
          "ticks": 304640,
          "time": 446.25,
          "velocity": 0.6929133858267716
        },
        {
          "duration": 1.5,
          "durationTicks": 1024,
          "midi": 84,
          "name": "C6",
          "ticks": 305152,
          "time": 447,
          "velocity": 0.8661417322834646
        },
        {
          "duration": 1.5,
          "durationTicks": 1024,
          "midi": 85,
          "name": "C#6",
          "ticks": 306176,
          "time": 448.5,
          "velocity": 0.8110236220472441
        },
        {
          "duration": 1.5,
          "durationTicks": 1024,
          "midi": 84,
          "name": "C6",
          "ticks": 307200,
          "time": 450,
          "velocity": 0.7637795275590551
        },
        {
          "duration": 1.5,
          "durationTicks": 1024,
          "midi": 82,
          "name": "A#5",
          "ticks": 308224,
          "time": 451.5,
          "velocity": 0.7165354330708661
        },
        {
          "duration": 0.375,
          "durationTicks": 256,
          "midi": 80,
          "name": "G#5",
          "ticks": 309248,
          "time": 453,
          "velocity": 0.7007874015748031
        },
        {
          "duration": 0.375,
          "durationTicks": 256,
          "midi": 89,
          "name": "F6",
          "ticks": 309504,
          "time": 453.375,
          "velocity": 0.9212598425196851
        },
        {
          "duration": 0.375,
          "durationTicks": 256,
          "midi": 89,
          "name": "F6",
          "ticks": 309760,
          "time": 453.75,
          "velocity": 0.7795275590551181
        },
        {
          "duration": 0.375,
          "durationTicks": 256,
          "midi": 89,
          "name": "F6",
          "ticks": 310016,
          "time": 454.125,
          "velocity": 0.7637795275590551
        },
        {
          "duration": 0.375,
          "durationTicks": 256,
          "midi": 89,
          "name": "F6",
          "ticks": 310528,
          "time": 454.875,
          "velocity": 0.7007874015748031
        },
        {
          "duration": 0.375,
          "durationTicks": 256,
          "midi": 89,
          "name": "F6",
          "ticks": 310784,
          "time": 455.25,
          "velocity": 0.7480314960629921
        },
        {
          "duration": 0.375,
          "durationTicks": 256,
          "midi": 89,
          "name": "F6",
          "ticks": 311040,
          "time": 455.625,
          "velocity": 0.7637795275590551
        },
        {
          "duration": 0.38232421875,
          "durationTicks": 261,
          "midi": 89,
          "name": "F6",
          "ticks": 311552,
          "time": 456.375,
          "velocity": 0.6929133858267716
        },
        {
          "duration": 0.35595703125,
          "durationTicks": 243,
          "midi": 87,
          "name": "D#6",
          "ticks": 311808,
          "time": 456.75,
          "velocity": 0.6692913385826772
        },
        {
          "duration": 0.375,
          "durationTicks": 256,
          "midi": 87,
          "name": "D#6",
          "ticks": 312064,
          "time": 457.125,
          "velocity": 0.7637795275590551
        },
        {
          "duration": 0.375,
          "durationTicks": 256,
          "midi": 87,
          "name": "D#6",
          "ticks": 312576,
          "time": 457.875,
          "velocity": 0.6771653543307087
        },
        {
          "duration": 0.375,
          "durationTicks": 256,
          "midi": 87,
          "name": "D#6",
          "ticks": 312832,
          "time": 458.25,
          "velocity": 0.7637795275590551
        },
        {
          "duration": 0.375,
          "durationTicks": 256,
          "midi": 87,
          "name": "D#6",
          "ticks": 313088,
          "time": 458.625,
          "velocity": 0.8188976377952756
        },
        {
          "duration": 0.38232421875,
          "durationTicks": 261,
          "midi": 87,
          "name": "D#6",
          "ticks": 313600,
          "time": 459.375,
          "velocity": 0.7007874015748031
        },
        {
          "duration": 0.35595703125,
          "durationTicks": 243,
          "midi": 86,
          "name": "D6",
          "ticks": 313856,
          "time": 459.75,
          "velocity": 0.6850393700787402
        },
        {
          "duration": 0.375,
          "durationTicks": 256,
          "midi": 86,
          "name": "D6",
          "ticks": 314112,
          "time": 460.125,
          "velocity": 0.7244094488188977
        },
        {
          "duration": 0.375,
          "durationTicks": 256,
          "midi": 86,
          "name": "D6",
          "ticks": 314624,
          "time": 460.875,
          "velocity": 0.7007874015748031
        },
        {
          "duration": 0.375,
          "durationTicks": 256,
          "midi": 86,
          "name": "D6",
          "ticks": 314880,
          "time": 461.25,
          "velocity": 0.7795275590551181
        },
        {
          "duration": 0.375,
          "durationTicks": 256,
          "midi": 86,
          "name": "D6",
          "ticks": 315136,
          "time": 461.625,
          "velocity": 0.7874015748031497
        },
        {
          "duration": 0.38232421875,
          "durationTicks": 261,
          "midi": 86,
          "name": "D6",
          "ticks": 315648,
          "time": 462.375,
          "velocity": 0.6771653543307087
        },
        {
          "duration": 0.35595703125,
          "durationTicks": 243,
          "midi": 84,
          "name": "C6",
          "ticks": 315904,
          "time": 462.75,
          "velocity": 0.6614173228346457
        },
        {
          "duration": 0.375,
          "durationTicks": 256,
          "midi": 84,
          "name": "C6",
          "ticks": 316160,
          "time": 463.125,
          "velocity": 0.7716535433070866
        },
        {
          "duration": 0.375,
          "durationTicks": 256,
          "midi": 84,
          "name": "C6",
          "ticks": 316672,
          "time": 463.875,
          "velocity": 0.6929133858267716
        },
        {
          "duration": 0.38232421875,
          "durationTicks": 261,
          "midi": 84,
          "name": "C6",
          "ticks": 316928,
          "time": 464.25,
          "velocity": 0.7401574803149606
        },
        {
          "duration": 0.35595703125,
          "durationTicks": 243,
          "midi": 78,
          "name": "F#5",
          "ticks": 317184,
          "time": 464.625,
          "velocity": 0.6299212598425197
        },
        {
          "duration": 1.5,
          "durationTicks": 1024,
          "midi": 79,
          "name": "G5",
          "ticks": 317440,
          "time": 465,
          "velocity": 0.7322834645669292
        },
        {
          "duration": 1.5,
          "durationTicks": 1024,
          "midi": 86,
          "name": "D6",
          "ticks": 318464,
          "time": 466.5,
          "velocity": 0.9212598425196851
        },
        {
          "duration": 1.5,
          "durationTicks": 1024,
          "midi": 84,
          "name": "C6",
          "ticks": 319488,
          "time": 468,
          "velocity": 0.7401574803149606
        },
        {
          "duration": 1.5,
          "durationTicks": 1024,
          "midi": 82,
          "name": "A#5",
          "ticks": 320512,
          "time": 469.5,
          "velocity": 0.7401574803149606
        },
        {
          "duration": 1.14697265625,
          "durationTicks": 783,
          "midi": 81,
          "name": "A5",
          "ticks": 321536,
          "time": 471,
          "velocity": 0.7007874015748031
        },
        {
          "duration": 0.35595703125,
          "durationTicks": 243,
          "midi": 78,
          "name": "F#5",
          "ticks": 322304,
          "time": 472.125,
          "velocity": 0.6456692913385826
        },
        {
          "duration": 1.14697265625,
          "durationTicks": 783,
          "midi": 79,
          "name": "G5",
          "ticks": 322560,
          "time": 472.5,
          "velocity": 0.7952755905511811
        },
        {
          "duration": 0.35595703125,
          "durationTicks": 243,
          "midi": 86,
          "name": "D6",
          "ticks": 323328,
          "time": 473.625,
          "velocity": 0.9212598425196851
        },
        {
          "duration": 1.3125,
          "durationTicks": 896,
          "midi": 85,
          "name": "C#6",
          "ticks": 323584,
          "time": 474,
          "velocity": 0.8031496062992126
        },
        {
          "duration": 0.17724609375,
          "durationTicks": 121,
          "midi": 86,
          "name": "D6",
          "ticks": 324480,
          "time": 475.3125,
          "velocity": 0.7952755905511811
        },
        {
          "duration": 1.3125,
          "durationTicks": 896,
          "midi": 85,
          "name": "C#6",
          "ticks": 324608,
          "time": 475.5,
          "velocity": 0.7322834645669292
        },
        {
          "duration": 0.17724609375,
          "durationTicks": 121,
          "midi": 86,
          "name": "D6",
          "ticks": 325504,
          "time": 476.8125,
          "velocity": 0.7952755905511811
        },
        {
          "duration": 1.3125,
          "durationTicks": 896,
          "midi": 85,
          "name": "C#6",
          "ticks": 325632,
          "time": 477,
          "velocity": 0.7559055118110236
        },
        {
          "duration": 0.17724609375,
          "durationTicks": 121,
          "midi": 86,
          "name": "D6",
          "ticks": 326528,
          "time": 478.3125,
          "velocity": 0.84251968503937
        },
        {
          "duration": 1.5,
          "durationTicks": 1024,
          "midi": 85,
          "name": "C#6",
          "ticks": 326656,
          "time": 478.5,
          "velocity": 0.7401574803149606
        },
        {
          "duration": 0.75,
          "durationTicks": 512,
          "midi": 86,
          "name": "D6",
          "ticks": 327680,
          "time": 480,
          "velocity": 0.7952755905511811
        },
        {
          "duration": 0.75,
          "durationTicks": 512,
          "midi": 84,
          "name": "C6",
          "ticks": 328192,
          "time": 480.75,
          "velocity": 0.7165354330708661
        },
        {
          "duration": 0.75,
          "durationTicks": 512,
          "midi": 82,
          "name": "A#5",
          "ticks": 328704,
          "time": 481.5,
          "velocity": 0.7322834645669292
        },
        {
          "duration": 0.75,
          "durationTicks": 512,
          "midi": 85,
          "name": "C#6",
          "ticks": 329216,
          "time": 482.25,
          "velocity": 0.8582677165354331
        },
        {
          "duration": 0.75,
          "durationTicks": 512,
          "midi": 86,
          "name": "D6",
          "ticks": 329728,
          "time": 483,
          "velocity": 0.8346456692913385
        },
        {
          "duration": 0.75,
          "durationTicks": 512,
          "midi": 90,
          "name": "F#6",
          "ticks": 330240,
          "time": 483.75,
          "velocity": 0.8582677165354331
        },
        {
          "duration": 0.75,
          "durationTicks": 512,
          "midi": 91,
          "name": "G6",
          "ticks": 330752,
          "time": 484.5,
          "velocity": 0.8110236220472441
        },
        {
          "duration": 0.75,
          "durationTicks": 512,
          "midi": 85,
          "name": "C#6",
          "ticks": 331264,
          "time": 485.25,
          "velocity": 0.6614173228346457
        },
        {
          "duration": 0.375,
          "durationTicks": 256,
          "midi": 86,
          "name": "D6",
          "ticks": 331776,
          "time": 486,
          "velocity": 0.8031496062992126
        },
        {
          "duration": 0.375,
          "durationTicks": 256,
          "midi": 74,
          "name": "D5",
          "ticks": 332288,
          "time": 486.75,
          "velocity": 0.7165354330708661
        },
        {
          "duration": 1.14697265625,
          "durationTicks": 783,
          "midi": 84,
          "name": "C6",
          "ticks": 334848,
          "time": 490.5,
          "velocity": 0.3937007874015748
        },
        {
          "duration": 0.09521484375,
          "durationTicks": 65,
          "midi": 86,
          "name": "D6",
          "ticks": 335616,
          "time": 491.625,
          "velocity": 0.3937007874015748
        },
        {
          "duration": 0.09521484375,
          "durationTicks": 65,
          "midi": 84,
          "name": "C6",
          "ticks": 335680,
          "time": 491.71875,
          "velocity": 0.4409448818897638
        },
        {
          "duration": 0.09521484375,
          "durationTicks": 65,
          "midi": 82,
          "name": "A#5",
          "ticks": 335744,
          "time": 491.8125,
          "velocity": 0.3858267716535433
        },
        {
          "duration": 0.09521484375,
          "durationTicks": 65,
          "midi": 81,
          "name": "A5",
          "ticks": 335808,
          "time": 491.90625,
          "velocity": 0.4251968503937008
        },
        {
          "duration": 0.35595703125,
          "durationTicks": 243,
          "midi": 79,
          "name": "G5",
          "ticks": 335872,
          "time": 492,
          "velocity": 0.3858267716535433
        },
        {
          "duration": 0.1904296875,
          "durationTicks": 130,
          "midi": 79,
          "name": "G5",
          "ticks": 340992,
          "time": 499.5,
          "velocity": 0.4566929133858268
        },
        {
          "duration": 0.1904296875,
          "durationTicks": 130,
          "midi": 78,
          "name": "F#5",
          "ticks": 341120,
          "time": 499.6875,
          "velocity": 0.4330708661417323
        },
        {
          "duration": 0.1904296875,
          "durationTicks": 130,
          "midi": 81,
          "name": "A5",
          "ticks": 341248,
          "time": 499.875,
          "velocity": 0.5433070866141733
        },
        {
          "duration": 0.1904296875,
          "durationTicks": 130,
          "midi": 79,
          "name": "G5",
          "ticks": 341376,
          "time": 500.0625,
          "velocity": 0.49606299212598426
        },
        {
          "duration": 0.1904296875,
          "durationTicks": 130,
          "midi": 82,
          "name": "A#5",
          "ticks": 341504,
          "time": 500.25,
          "velocity": 0.5196850393700787
        },
        {
          "duration": 0.1904296875,
          "durationTicks": 130,
          "midi": 81,
          "name": "A5",
          "ticks": 341632,
          "time": 500.4375,
          "velocity": 0.49606299212598426
        },
        {
          "duration": 0.1904296875,
          "durationTicks": 130,
          "midi": 84,
          "name": "C6",
          "ticks": 341760,
          "time": 500.625,
          "velocity": 0.5354330708661418
        },
        {
          "duration": 0.17724609375,
          "durationTicks": 121,
          "midi": 82,
          "name": "A#5",
          "ticks": 341888,
          "time": 500.8125,
          "velocity": 0.5196850393700787
        },
        {
          "duration": 1.14697265625,
          "durationTicks": 783,
          "midi": 86,
          "name": "D6",
          "ticks": 342016,
          "time": 501,
          "velocity": 0.5511811023622047
        },
        {
          "duration": 0.38232421875,
          "durationTicks": 261,
          "midi": 85,
          "name": "C#6",
          "ticks": 342784,
          "time": 502.125,
          "velocity": 0.5669291338582677
        },
        {
          "duration": 0.35595703125,
          "durationTicks": 243,
          "midi": 84,
          "name": "C6",
          "ticks": 343040,
          "time": 502.5,
          "velocity": 0.4409448818897638
        },
        {
          "duration": 0.1875,
          "durationTicks": 128,
          "midi": 79,
          "name": "G5",
          "ticks": 344320,
          "time": 504.375,
          "velocity": 0.44881889763779526
        },
        {
          "duration": 0.38232421875,
          "durationTicks": 261,
          "midi": 79,
          "name": "G5",
          "ticks": 344576,
          "time": 504.75,
          "velocity": 0.48031496062992124
        },
        {
          "duration": 0.35595703125,
          "durationTicks": 243,
          "midi": 81,
          "name": "A5",
          "ticks": 344832,
          "time": 505.125,
          "velocity": 0.4881889763779528
        },
        {
          "duration": 0.57275390625,
          "durationTicks": 391,
          "midi": 82,
          "name": "A#5",
          "ticks": 345088,
          "time": 505.5,
          "velocity": 0.5196850393700787
        },
        {
          "duration": 0.17724609375,
          "durationTicks": 121,
          "midi": 84,
          "name": "C6",
          "ticks": 345472,
          "time": 506.0625,
          "velocity": 0.5590551181102362
        },
        {
          "duration": 0.375,
          "durationTicks": 256,
          "midi": 81,
          "name": "A5",
          "ticks": 345600,
          "time": 506.25,
          "velocity": 0.4330708661417323
        },
        {
          "duration": 1.14697265625,
          "durationTicks": 783,
          "midi": 87,
          "name": "D#6",
          "ticks": 346112,
          "time": 507,
          "velocity": 0.4015748031496063
        },
        {
          "duration": 0.38232421875,
          "durationTicks": 261,
          "midi": 86,
          "name": "D6",
          "ticks": 346880,
          "time": 508.125,
          "velocity": 0.3700787401574803
        },
        {
          "duration": 0.38232421875,
          "durationTicks": 261,
          "midi": 85,
          "name": "C#6",
          "ticks": 347136,
          "time": 508.5,
          "velocity": 0.4645669291338583
        },
        {
          "duration": 0.38232421875,
          "durationTicks": 261,
          "midi": 84,
          "name": "C6",
          "ticks": 347392,
          "time": 508.875,
          "velocity": 0.44881889763779526
        },
        {
          "duration": 0.38232421875,
          "durationTicks": 261,
          "midi": 83,
          "name": "B5",
          "ticks": 347648,
          "time": 509.25,
          "velocity": 0.4330708661417323
        },
        {
          "duration": 0.35595703125,
          "durationTicks": 243,
          "midi": 82,
          "name": "A#5",
          "ticks": 347904,
          "time": 509.625,
          "velocity": 0.3700787401574803
        },
        {
          "duration": 0.7646484375,
          "durationTicks": 522,
          "midi": 86,
          "name": "D6",
          "ticks": 348416,
          "time": 510.375,
          "velocity": 0.3858267716535433
        },
        {
          "duration": 0.35595703125,
          "durationTicks": 243,
          "midi": 87,
          "name": "D#6",
          "ticks": 348928,
          "time": 511.125,
          "velocity": 0.3779527559055118
        },
        {
          "duration": 0.7646484375,
          "durationTicks": 522,
          "midi": 86,
          "name": "D6",
          "ticks": 349440,
          "time": 511.875,
          "velocity": 0.4566929133858268
        },
        {
          "duration": 0.35595703125,
          "durationTicks": 243,
          "midi": 87,
          "name": "D#6",
          "ticks": 349952,
          "time": 512.625,
          "velocity": 0.4645669291338583
        },
        {
          "duration": 0.7646484375,
          "durationTicks": 522,
          "midi": 86,
          "name": "D6",
          "ticks": 350464,
          "time": 513.375,
          "velocity": 0.4330708661417323
        },
        {
          "duration": 0.35595703125,
          "durationTicks": 243,
          "midi": 87,
          "name": "D#6",
          "ticks": 350976,
          "time": 514.125,
          "velocity": 0.44881889763779526
        },
        {
          "duration": 0.7646484375,
          "durationTicks": 522,
          "midi": 86,
          "name": "D6",
          "ticks": 351488,
          "time": 514.875,
          "velocity": 0.4015748031496063
        },
        {
          "duration": 0.35595703125,
          "durationTicks": 243,
          "midi": 87,
          "name": "D#6",
          "ticks": 352000,
          "time": 515.625,
          "velocity": 0.3937007874015748
        },
        {
          "duration": 3,
          "durationTicks": 2048,
          "midi": 86,
          "name": "D6",
          "ticks": 352256,
          "time": 516,
          "velocity": 0.47244094488188976
        },
        {
          "duration": 0.75,
          "durationTicks": 512,
          "midi": 87,
          "name": "D#6",
          "ticks": 354304,
          "time": 519,
          "velocity": 0.8031496062992126
        },
        {
          "duration": 0.1875,
          "durationTicks": 128,
          "midi": 84,
          "name": "C6",
          "ticks": 354816,
          "time": 519.75,
          "velocity": 0.6771653543307087
        },
        {
          "duration": 0.1875,
          "durationTicks": 128,
          "midi": 81,
          "name": "A5",
          "ticks": 355072,
          "time": 520.125,
          "velocity": 0.6929133858267716
        },
        {
          "duration": 0.38232421875,
          "durationTicks": 261,
          "midi": 82,
          "name": "A#5",
          "ticks": 355328,
          "time": 520.5,
          "velocity": 0.7874015748031497
        },
        {
          "duration": 0.35595703125,
          "durationTicks": 243,
          "midi": 85,
          "name": "C#6",
          "ticks": 355584,
          "time": 520.875,
          "velocity": 0.8582677165354331
        },
        {
          "duration": 1.5,
          "durationTicks": 1024,
          "midi": 89,
          "name": "F6",
          "ticks": 355840,
          "time": 521.25,
          "velocity": 0.8661417322834646
        },
        {
          "duration": 0.1875,
          "durationTicks": 128,
          "midi": 86,
          "name": "D6",
          "ticks": 356864,
          "time": 522.75,
          "velocity": 0.7322834645669292
        },
        {
          "duration": 0.1875,
          "durationTicks": 128,
          "midi": 83,
          "name": "B5",
          "ticks": 357120,
          "time": 523.125,
          "velocity": 0.7322834645669292
        },
        {
          "duration": 0.38232421875,
          "durationTicks": 261,
          "midi": 84,
          "name": "C6",
          "ticks": 357376,
          "time": 523.5,
          "velocity": 0.7874015748031497
        },
        {
          "duration": 0.35595703125,
          "durationTicks": 243,
          "midi": 87,
          "name": "D#6",
          "ticks": 357632,
          "time": 523.875,
          "velocity": 0.8740157480314961
        },
        {
          "duration": 1.5,
          "durationTicks": 1024,
          "midi": 91,
          "name": "G6",
          "ticks": 357888,
          "time": 524.25,
          "velocity": 0.8661417322834646
        },
        {
          "duration": 0.1875,
          "durationTicks": 128,
          "midi": 88,
          "name": "E6",
          "ticks": 358912,
          "time": 525.75,
          "velocity": 0.7007874015748031
        },
        {
          "duration": 0.1875,
          "durationTicks": 128,
          "midi": 85,
          "name": "C#6",
          "ticks": 359168,
          "time": 526.125,
          "velocity": 0.6614173228346457
        },
        {
          "duration": 1.5,
          "durationTicks": 1024,
          "midi": 86,
          "name": "D6",
          "ticks": 359424,
          "time": 526.5,
          "velocity": 0.8031496062992126
        },
        {
          "duration": 1.33740234375,
          "durationTicks": 913,
          "midi": 81,
          "name": "A5",
          "ticks": 360448,
          "time": 528,
          "velocity": 0.6614173228346457
        },
        {
          "duration": 0.09521484375,
          "durationTicks": 65,
          "midi": 79,
          "name": "G5",
          "ticks": 361344,
          "time": 529.3125,
          "velocity": 0.5905511811023622
        },
        {
          "duration": 0.087890625,
          "durationTicks": 60,
          "midi": 81,
          "name": "A5",
          "ticks": 361408,
          "time": 529.40625,
          "velocity": 0.7952755905511811
        },
        {
          "duration": 0.375,
          "durationTicks": 256,
          "midi": 79,
          "name": "G5",
          "ticks": 361472,
          "time": 529.5,
          "velocity": 0.7322834645669292
        },
        {
          "duration": 0.1875,
          "durationTicks": 128,
          "midi": 81,
          "name": "A5",
          "ticks": 364544,
          "time": 534,
          "velocity": 0.7322834645669292
        },
        {
          "duration": 0.1875,
          "durationTicks": 128,
          "midi": 82,
          "name": "A#5",
          "ticks": 365056,
          "time": 534.75,
          "velocity": 0.6614173228346457
        },
        {
          "duration": 0.9375,
          "durationTicks": 640,
          "midi": 87,
          "name": "D#6",
          "ticks": 365568,
          "time": 535.5,
          "velocity": 0.7086614173228346
        },
        {
          "duration": 0.09375,
          "durationTicks": 64,
          "midi": 86,
          "name": "D6",
          "ticks": 366208,
          "time": 536.4375,
          "velocity": 0.4645669291338583
        },
        {
          "duration": 0.09375,
          "durationTicks": 64,
          "midi": 84,
          "name": "C6",
          "ticks": 366336,
          "time": 536.625,
          "velocity": 0.4566929133858268
        },
        {
          "duration": 0.09375,
          "durationTicks": 64,
          "midi": 82,
          "name": "A#5",
          "ticks": 366464,
          "time": 536.8125,
          "velocity": 0.4409448818897638
        },
        {
          "duration": 0.09375,
          "durationTicks": 64,
          "midi": 81,
          "name": "A5",
          "ticks": 366592,
          "time": 537,
          "velocity": 0.4645669291338583
        },
        {
          "duration": 0.09375,
          "durationTicks": 64,
          "midi": 79,
          "name": "G5",
          "ticks": 366720,
          "time": 537.1875,
          "velocity": 0.4251968503937008
        },
        {
          "duration": 0.09375,
          "durationTicks": 64,
          "midi": 78,
          "name": "F#5",
          "ticks": 366848,
          "time": 537.375,
          "velocity": 0.4566929133858268
        },
        {
          "duration": 0.09375,
          "durationTicks": 64,
          "midi": 75,
          "name": "D#5",
          "ticks": 366976,
          "time": 537.5625,
          "velocity": 0.41732283464566927
        },
        {
          "duration": 0.09375,
          "durationTicks": 64,
          "midi": 74,
          "name": "D5",
          "ticks": 367104,
          "time": 537.75,
          "velocity": 0.4330708661417323
        },
        {
          "duration": 0.09375,
          "durationTicks": 64,
          "midi": 72,
          "name": "C5",
          "ticks": 367232,
          "time": 537.9375,
          "velocity": 0.4566929133858268
        },
        {
          "duration": 0.09375,
          "durationTicks": 64,
          "midi": 70,
          "name": "A#4",
          "ticks": 367360,
          "time": 538.125,
          "velocity": 0.4330708661417323
        },
        {
          "duration": 0.09375,
          "durationTicks": 64,
          "midi": 69,
          "name": "A4",
          "ticks": 367488,
          "time": 538.3125,
          "velocity": 0.41732283464566927
        },
        {
          "duration": 0.375,
          "durationTicks": 256,
          "midi": 67,
          "name": "G4",
          "ticks": 367616,
          "time": 538.5,
          "velocity": 0.4409448818897638
        },
        {
          "duration": 0.1904296875,
          "durationTicks": 130,
          "midi": 87,
          "name": "D#6",
          "ticks": 370432,
          "time": 542.625,
          "velocity": 0.4251968503937008
        },
        {
          "duration": 0.17724609375,
          "durationTicks": 121,
          "midi": 86,
          "name": "D6",
          "ticks": 370560,
          "time": 542.8125,
          "velocity": 0.3937007874015748
        },
        {
          "duration": 0.1875,
          "durationTicks": 128,
          "midi": 86,
          "name": "D6",
          "ticks": 370688,
          "time": 543,
          "velocity": 0.4645669291338583
        },
        {
          "duration": 0.1904296875,
          "durationTicks": 130,
          "midi": 87,
          "name": "D#6",
          "ticks": 370944,
          "time": 543.375,
          "velocity": 0.5039370078740157
        },
        {
          "duration": 0.17724609375,
          "durationTicks": 121,
          "midi": 86,
          "name": "D6",
          "ticks": 371072,
          "time": 543.5625,
          "velocity": 0.44881889763779526
        },
        {
          "duration": 0.1875,
          "durationTicks": 128,
          "midi": 86,
          "name": "D6",
          "ticks": 371200,
          "time": 543.75,
          "velocity": 0.4645669291338583
        },
        {
          "duration": 1.5,
          "durationTicks": 1024,
          "midi": 89,
          "name": "F6",
          "ticks": 372736,
          "time": 546,
          "velocity": 0.6771653543307087
        },
        {
          "duration": 1.5,
          "durationTicks": 1024,
          "midi": 87,
          "name": "D#6",
          "ticks": 373760,
          "time": 547.5,
          "velocity": 0.7322834645669292
        },
        {
          "duration": 0.7646484375,
          "durationTicks": 522,
          "midi": 86,
          "name": "D6",
          "ticks": 374784,
          "time": 549,
          "velocity": 0.7322834645669292
        },
        {
          "duration": 0.7119140625,
          "durationTicks": 486,
          "midi": 81,
          "name": "A5",
          "ticks": 375296,
          "time": 549.75,
          "velocity": 0.6377952755905512
        },
        {
          "duration": 0.375,
          "durationTicks": 256,
          "midi": 79,
          "name": "G5",
          "ticks": 375808,
          "time": 550.5,
          "velocity": 0.7244094488188977
        },
        {
          "duration": 0.1904296875,
          "durationTicks": 130,
          "midi": 87,
          "name": "D#6",
          "ticks": 379648,
          "time": 556.125,
          "velocity": 0.4330708661417323
        },
        {
          "duration": 0.17724609375,
          "durationTicks": 121,
          "midi": 86,
          "name": "D6",
          "ticks": 379776,
          "time": 556.3125,
          "velocity": 0.4094488188976378
        },
        {
          "duration": 0.1875,
          "durationTicks": 128,
          "midi": 86,
          "name": "D6",
          "ticks": 379904,
          "time": 556.5,
          "velocity": 0.4881889763779528
        },
        {
          "duration": 0.1904296875,
          "durationTicks": 130,
          "midi": 87,
          "name": "D#6",
          "ticks": 380160,
          "time": 556.875,
          "velocity": 0.4881889763779528
        },
        {
          "duration": 0.17724609375,
          "durationTicks": 121,
          "midi": 86,
          "name": "D6",
          "ticks": 380288,
          "time": 557.0625,
          "velocity": 0.4566929133858268
        },
        {
          "duration": 0.1875,
          "durationTicks": 128,
          "midi": 86,
          "name": "D6",
          "ticks": 380416,
          "time": 557.25,
          "velocity": 0.4645669291338583
        },
        {
          "duration": 1.5,
          "durationTicks": 1024,
          "midi": 89,
          "name": "F6",
          "ticks": 380928,
          "time": 558,
          "velocity": 0.6456692913385826
        },
        {
          "duration": 1.5,
          "durationTicks": 1024,
          "midi": 87,
          "name": "D#6",
          "ticks": 381952,
          "time": 559.5,
          "velocity": 0.7244094488188977
        },
        {
          "duration": 0.7646484375,
          "durationTicks": 522,
          "midi": 86,
          "name": "D6",
          "ticks": 382976,
          "time": 561,
          "velocity": 0.7795275590551181
        },
        {
          "duration": 0.7119140625,
          "durationTicks": 486,
          "midi": 81,
          "name": "A5",
          "ticks": 383488,
          "time": 561.75,
          "velocity": 0.6456692913385826
        },
        {
          "duration": 0.75,
          "durationTicks": 512,
          "midi": 79,
          "name": "G5",
          "ticks": 384000,
          "time": 562.5,
          "velocity": 0.6850393700787402
        },
        {
          "duration": 0.1875,
          "durationTicks": 128,
          "midi": 86,
          "name": "D6",
          "ticks": 384896,
          "time": 563.8125,
          "velocity": 0.6771653543307087
        },
        {
          "duration": 0.1875,
          "durationTicks": 128,
          "midi": 84,
          "name": "C6",
          "ticks": 385024,
          "time": 564,
          "velocity": 0.6850393700787402
        },
        {
          "duration": 0.1875,
          "durationTicks": 128,
          "midi": 82,
          "name": "A#5",
          "ticks": 385152,
          "time": 564.1875,
          "velocity": 0.7244094488188977
        },
        {
          "duration": 0.1875,
          "durationTicks": 128,
          "midi": 81,
          "name": "A5",
          "ticks": 385280,
          "time": 564.375,
          "velocity": 0.7086614173228346
        },
        {
          "duration": 0.1875,
          "durationTicks": 128,
          "midi": 79,
          "name": "G5",
          "ticks": 385408,
          "time": 564.5625,
          "velocity": 0.7086614173228346
        },
        {
          "duration": 0.1875,
          "durationTicks": 128,
          "midi": 78,
          "name": "F#5",
          "ticks": 385536,
          "time": 564.75,
          "velocity": 0.7322834645669292
        },
        {
          "duration": 0.1875,
          "durationTicks": 128,
          "midi": 75,
          "name": "D#5",
          "ticks": 385664,
          "time": 564.9375,
          "velocity": 0.7086614173228346
        },
        {
          "duration": 0.1875,
          "durationTicks": 128,
          "midi": 74,
          "name": "D5",
          "ticks": 385792,
          "time": 565.125,
          "velocity": 0.7244094488188977
        },
        {
          "duration": 0.1875,
          "durationTicks": 128,
          "midi": 72,
          "name": "C5",
          "ticks": 385920,
          "time": 565.3125,
          "velocity": 0.7007874015748031
        },
        {
          "duration": 0.375,
          "durationTicks": 256,
          "midi": 70,
          "name": "A#4",
          "ticks": 386048,
          "time": 565.5,
          "velocity": 0.7244094488188977
        },
        {
          "duration": 0.375,
          "durationTicks": 256,
          "midi": 86,
          "name": "D6",
          "ticks": 386304,
          "time": 565.875,
          "velocity": 0.9291338582677166
        },
        {
          "duration": 0.375,
          "durationTicks": 256,
          "midi": 87,
          "name": "D#6",
          "ticks": 386560,
          "time": 566.25,
          "velocity": 0.8661417322834646
        },
        {
          "duration": 0.375,
          "durationTicks": 256,
          "midi": 78,
          "name": "F#5",
          "ticks": 386816,
          "time": 566.625,
          "velocity": 0.6299212598425197
        },
        {
          "duration": 0.375,
          "durationTicks": 256,
          "midi": 79,
          "name": "G5",
          "ticks": 387072,
          "time": 567,
          "velocity": 0.7952755905511811
        },
        {
          "duration": 0.1875,
          "durationTicks": 128,
          "midi": 91,
          "name": "G6",
          "ticks": 388480,
          "time": 569.0625,
          "velocity": 0.6850393700787402
        },
        {
          "duration": 0.1875,
          "durationTicks": 128,
          "midi": 90,
          "name": "F#6",
          "ticks": 388608,
          "time": 569.25,
          "velocity": 0.7480314960629921
        },
        {
          "duration": 0.1875,
          "durationTicks": 128,
          "midi": 87,
          "name": "D#6",
          "ticks": 388736,
          "time": 569.4375,
          "velocity": 0.6771653543307087
        },
        {
          "duration": 0.1875,
          "durationTicks": 128,
          "midi": 86,
          "name": "D6",
          "ticks": 388864,
          "time": 569.625,
          "velocity": 0.7322834645669292
        },
        {
          "duration": 0.1875,
          "durationTicks": 128,
          "midi": 84,
          "name": "C6",
          "ticks": 388992,
          "time": 569.8125,
          "velocity": 0.7244094488188977
        },
        {
          "duration": 0.375,
          "durationTicks": 256,
          "midi": 82,
          "name": "A#5",
          "ticks": 389120,
          "time": 570,
          "velocity": 0.7086614173228346
        },
        {
          "duration": 0.7646484375,
          "durationTicks": 522,
          "midi": 79,
          "name": "G5",
          "ticks": 389376,
          "time": 570.375,
          "velocity": 0.7086614173228346
        },
        {
          "duration": 0.7646484375,
          "durationTicks": 522,
          "midi": 80,
          "name": "G#5",
          "ticks": 389888,
          "time": 571.125,
          "velocity": 0.7401574803149606
        },
        {
          "duration": 0.7646484375,
          "durationTicks": 522,
          "midi": 81,
          "name": "A5",
          "ticks": 390400,
          "time": 571.875,
          "velocity": 0.8110236220472441
        },
        {
          "duration": 0.7646484375,
          "durationTicks": 522,
          "midi": 82,
          "name": "A#5",
          "ticks": 390912,
          "time": 572.625,
          "velocity": 0.8661417322834646
        },
        {
          "duration": 0.7646484375,
          "durationTicks": 522,
          "midi": 83,
          "name": "B5",
          "ticks": 391424,
          "time": 573.375,
          "velocity": 0.8110236220472441
        },
        {
          "duration": 0.7646484375,
          "durationTicks": 522,
          "midi": 84,
          "name": "C6",
          "ticks": 391936,
          "time": 574.125,
          "velocity": 0.8818897637795275
        },
        {
          "duration": 0.7119140625,
          "durationTicks": 486,
          "midi": 85,
          "name": "C#6",
          "ticks": 392448,
          "time": 574.875,
          "velocity": 0.7952755905511811
        },
        {
          "duration": 0.09375,
          "durationTicks": 64,
          "midi": 86,
          "name": "D6",
          "ticks": 393152,
          "time": 575.90625,
          "velocity": 0.4015748031496063
        },
        {
          "duration": 1.529296875,
          "durationTicks": 1044,
          "midi": 86,
          "name": "D6",
          "ticks": 393216,
          "time": 576,
          "velocity": 0.49606299212598426
        },
        {
          "duration": 1.423828125,
          "durationTicks": 972,
          "midi": 78,
          "name": "F#5",
          "ticks": 394240,
          "time": 577.5,
          "velocity": 0.3858267716535433
        },
        {
          "duration": 0.375,
          "durationTicks": 256,
          "midi": 79,
          "name": "G5",
          "ticks": 395264,
          "time": 579,
          "velocity": 0.48031496062992124
        },
        {
          "duration": 0.1904296875,
          "durationTicks": 130,
          "midi": 87,
          "name": "D#6",
          "ticks": 400128,
          "time": 586.125,
          "velocity": 0.41732283464566927
        },
        {
          "duration": 0.17724609375,
          "durationTicks": 121,
          "midi": 86,
          "name": "D6",
          "ticks": 400256,
          "time": 586.3125,
          "velocity": 0.3858267716535433
        },
        {
          "duration": 0.1875,
          "durationTicks": 128,
          "midi": 86,
          "name": "D6",
          "ticks": 400384,
          "time": 586.5,
          "velocity": 0.5118110236220472
        },
        {
          "duration": 0.1904296875,
          "durationTicks": 130,
          "midi": 87,
          "name": "D#6",
          "ticks": 400640,
          "time": 586.875,
          "velocity": 0.49606299212598426
        },
        {
          "duration": 0.17724609375,
          "durationTicks": 121,
          "midi": 86,
          "name": "D6",
          "ticks": 400768,
          "time": 587.0625,
          "velocity": 0.5196850393700787
        },
        {
          "duration": 0.1875,
          "durationTicks": 128,
          "midi": 86,
          "name": "D6",
          "ticks": 400896,
          "time": 587.25,
          "velocity": 0.48031496062992124
        },
        {
          "duration": 0.1904296875,
          "durationTicks": 130,
          "midi": 87,
          "name": "D#6",
          "ticks": 401152,
          "time": 587.625,
          "velocity": 0.5039370078740157
        },
        {
          "duration": 0.17724609375,
          "durationTicks": 121,
          "midi": 86,
          "name": "D6",
          "ticks": 401280,
          "time": 587.8125,
          "velocity": 0.4645669291338583
        },
        {
          "duration": 0.375,
          "durationTicks": 256,
          "midi": 86,
          "name": "D6",
          "ticks": 401408,
          "time": 588,
          "velocity": 0.7716535433070866
        },
        {
          "duration": 0.1875,
          "durationTicks": 128,
          "midi": 86,
          "name": "D6",
          "ticks": 401664,
          "time": 588.375,
          "velocity": 0.7952755905511811
        },
        {
          "duration": 0.1875,
          "durationTicks": 128,
          "midi": 86,
          "name": "D6",
          "ticks": 401792,
          "time": 588.5625,
          "velocity": 0.7716535433070866
        },
        {
          "duration": 0.375,
          "durationTicks": 256,
          "midi": 86,
          "name": "D6",
          "ticks": 401920,
          "time": 588.75,
          "velocity": 0.7952755905511811
        },
        {
          "duration": 0.1875,
          "durationTicks": 128,
          "midi": 86,
          "name": "D6",
          "ticks": 402176,
          "time": 589.125,
          "velocity": 0.7795275590551181
        },
        {
          "duration": 0.1875,
          "durationTicks": 128,
          "midi": 86,
          "name": "D6",
          "ticks": 402304,
          "time": 589.3125,
          "velocity": 0.7716535433070866
        },
        {
          "duration": 0.375,
          "durationTicks": 256,
          "midi": 86,
          "name": "D6",
          "ticks": 402432,
          "time": 589.5,
          "velocity": 0.7637795275590551
        },
        {
          "duration": 0.1875,
          "durationTicks": 128,
          "midi": 86,
          "name": "D6",
          "ticks": 402688,
          "time": 589.875,
          "velocity": 0.7637795275590551
        },
        {
          "duration": 0.1875,
          "durationTicks": 128,
          "midi": 86,
          "name": "D6",
          "ticks": 402816,
          "time": 590.0625,
          "velocity": 0.7716535433070866
        },
        {
          "duration": 0.375,
          "durationTicks": 256,
          "midi": 86,
          "name": "D6",
          "ticks": 402944,
          "time": 590.25,
          "velocity": 0.7322834645669292
        },
        {
          "duration": 0.1875,
          "durationTicks": 128,
          "midi": 86,
          "name": "D6",
          "ticks": 403200,
          "time": 590.625,
          "velocity": 0.7874015748031497
        },
        {
          "duration": 0.1875,
          "durationTicks": 128,
          "midi": 86,
          "name": "D6",
          "ticks": 403328,
          "time": 590.8125,
          "velocity": 0.7874015748031497
        },
        {
          "duration": 0.375,
          "durationTicks": 256,
          "midi": 86,
          "name": "D6",
          "ticks": 403456,
          "time": 591,
          "velocity": 0.7480314960629921
        },
        {
          "duration": 0.1875,
          "durationTicks": 128,
          "midi": 86,
          "name": "D6",
          "ticks": 403712,
          "time": 591.375,
          "velocity": 0.7559055118110236
        },
        {
          "duration": 0.1875,
          "durationTicks": 128,
          "midi": 86,
          "name": "D6",
          "ticks": 403840,
          "time": 591.5625,
          "velocity": 0.7559055118110236
        },
        {
          "duration": 0.375,
          "durationTicks": 256,
          "midi": 86,
          "name": "D6",
          "ticks": 403968,
          "time": 591.75,
          "velocity": 0.7795275590551181
        },
        {
          "duration": 0.1875,
          "durationTicks": 128,
          "midi": 86,
          "name": "D6",
          "ticks": 404224,
          "time": 592.125,
          "velocity": 0.7795275590551181
        },
        {
          "duration": 0.1875,
          "durationTicks": 128,
          "midi": 86,
          "name": "D6",
          "ticks": 404352,
          "time": 592.3125,
          "velocity": 0.7480314960629921
        },
        {
          "duration": 0.375,
          "durationTicks": 256,
          "midi": 86,
          "name": "D6",
          "ticks": 404480,
          "time": 592.5,
          "velocity": 0.7559055118110236
        },
        {
          "duration": 0.375,
          "durationTicks": 256,
          "midi": 90,
          "name": "F#6",
          "ticks": 404736,
          "time": 592.875,
          "velocity": 0.8740157480314961
        },
        {
          "duration": 0.375,
          "durationTicks": 256,
          "midi": 91,
          "name": "G6",
          "ticks": 404992,
          "time": 593.25,
          "velocity": 0.8110236220472441
        },
        {
          "duration": 0.375,
          "durationTicks": 256,
          "midi": 90,
          "name": "F#6",
          "ticks": 405248,
          "time": 593.625,
          "velocity": 0.7244094488188977
        },
        {
          "duration": 0.375,
          "durationTicks": 256,
          "midi": 91,
          "name": "G6",
          "ticks": 405504,
          "time": 594,
          "velocity": 0.8188976377952756
        },
        {
          "duration": 0.375,
          "durationTicks": 256,
          "midi": 91,
          "name": "G6",
          "ticks": 406528,
          "time": 595.5,
          "velocity": 0.7086614173228346
        },
        {
          "duration": 0.375,
          "durationTicks": 256,
          "midi": 91,
          "name": "G6",
          "ticks": 407040,
          "time": 596.25,
          "velocity": 0.7165354330708661
        },
        {
          "duration": 0.75,
          "durationTicks": 512,
          "midi": 91,
          "name": "G6",
          "ticks": 407552,
          "time": 597,
          "velocity": 0.6929133858267716
        }
      ],
      "endOfTrackTicks": 408065
    },
    {
      "channel": 1,
      "controlChanges": {
        "7": [
          {
            "number": 7,
            "ticks": 0,
            "time": 0,
            "value": 0.5669291338582677
          }
        ],
        "10": [
          {
            "number": 10,
            "ticks": 0,
            "time": 0,
            "value": 0.4251968503937008
          }
        ],
        "64": [
          {
            "number": 64,
            "ticks": 0,
            "time": 0,
            "value": 0
          }
        ],
        "91": [
          {
            "number": 91,
            "ticks": 0,
            "time": 0,
            "value": 0.4330708661417323
          }
        ],
        "121": [
          {
            "number": 121,
            "ticks": 0,
            "time": 0,
            "value": 0
          }
        ]
      },
      "pitchBends": [],
      "instrument": {
        "family": "reed",
        "number": 68,
        "name": "oboe"
      },
      "name": "Oboe",
      "notes": [
        {
          "duration": 0.7646484375,
          "durationTicks": 522,
          "midi": 79,
          "name": "G5",
          "ticks": 15872,
          "time": 23.25,
          "velocity": 0.6850393700787402
        },
        {
          "duration": 0.7646484375,
          "durationTicks": 522,
          "midi": 82,
          "name": "A#5",
          "ticks": 15872,
          "time": 23.25,
          "velocity": 0.6850393700787402
        },
        {
          "duration": 0.35595703125,
          "durationTicks": 243,
          "midi": 78,
          "name": "F#5",
          "ticks": 16384,
          "time": 24,
          "velocity": 0.6377952755905512
        },
        {
          "duration": 0.35595703125,
          "durationTicks": 243,
          "midi": 81,
          "name": "A5",
          "ticks": 16384,
          "time": 24,
          "velocity": 0.6377952755905512
        },
        {
          "duration": 0.7646484375,
          "durationTicks": 522,
          "midi": 79,
          "name": "G5",
          "ticks": 16896,
          "time": 24.75,
          "velocity": 0.7322834645669292
        },
        {
          "duration": 0.7646484375,
          "durationTicks": 522,
          "midi": 82,
          "name": "A#5",
          "ticks": 16896,
          "time": 24.75,
          "velocity": 0.7322834645669292
        },
        {
          "duration": 0.35595703125,
          "durationTicks": 243,
          "midi": 78,
          "name": "F#5",
          "ticks": 17408,
          "time": 25.5,
          "velocity": 0.6692913385826772
        },
        {
          "duration": 0.35595703125,
          "durationTicks": 243,
          "midi": 81,
          "name": "A5",
          "ticks": 17408,
          "time": 25.5,
          "velocity": 0.6692913385826772
        },
        {
          "duration": 0.7646484375,
          "durationTicks": 522,
          "midi": 79,
          "name": "G5",
          "ticks": 17920,
          "time": 26.25,
          "velocity": 0.6614173228346457
        },
        {
          "duration": 0.7646484375,
          "durationTicks": 522,
          "midi": 82,
          "name": "A#5",
          "ticks": 17920,
          "time": 26.25,
          "velocity": 0.6614173228346457
        },
        {
          "duration": 0.35595703125,
          "durationTicks": 243,
          "midi": 78,
          "name": "F#5",
          "ticks": 18432,
          "time": 27,
          "velocity": 0.6456692913385826
        },
        {
          "duration": 0.35595703125,
          "durationTicks": 243,
          "midi": 81,
          "name": "A5",
          "ticks": 18432,
          "time": 27,
          "velocity": 0.6456692913385826
        },
        {
          "duration": 0.1875,
          "durationTicks": 128,
          "midi": 79,
          "name": "G5",
          "ticks": 18688,
          "time": 27.375,
          "velocity": 0.8110236220472441
        },
        {
          "duration": 0.1875,
          "durationTicks": 128,
          "midi": 82,
          "name": "A#5",
          "ticks": 18688,
          "time": 27.375,
          "velocity": 0.8110236220472441
        },
        {
          "duration": 0.1875,
          "durationTicks": 128,
          "midi": 78,
          "name": "F#5",
          "ticks": 18944,
          "time": 27.75,
          "velocity": 0.7165354330708661
        },
        {
          "duration": 0.1875,
          "durationTicks": 128,
          "midi": 81,
          "name": "A5",
          "ticks": 18944,
          "time": 27.75,
          "velocity": 0.7165354330708661
        },
        {
          "duration": 0.1875,
          "durationTicks": 128,
          "midi": 79,
          "name": "G5",
          "ticks": 19200,
          "time": 28.125,
          "velocity": 0.8110236220472441
        },
        {
          "duration": 0.1875,
          "durationTicks": 128,
          "midi": 82,
          "name": "A#5",
          "ticks": 19200,
          "time": 28.125,
          "velocity": 0.8110236220472441
        },
        {
          "duration": 0.75,
          "durationTicks": 512,
          "midi": 78,
          "name": "F#5",
          "ticks": 19456,
          "time": 28.5,
          "velocity": 0.7874015748031497
        },
        {
          "duration": 0.75,
          "durationTicks": 512,
          "midi": 81,
          "name": "A5",
          "ticks": 19456,
          "time": 28.5,
          "velocity": 0.7874015748031497
        },
        {
          "duration": 6,
          "durationTicks": 4096,
          "midi": 82,
          "name": "A#5",
          "ticks": 21504,
          "time": 31.5,
          "velocity": 0.4015748031496063
        },
        {
          "duration": 3,
          "durationTicks": 2048,
          "midi": 74,
          "name": "D5",
          "ticks": 21504,
          "time": 31.5,
          "velocity": 0.41732283464566927
        },
        {
          "duration": 6,
          "durationTicks": 4096,
          "midi": 72,
          "name": "C5",
          "ticks": 23552,
          "time": 34.5,
          "velocity": 0.4251968503937008
        },
        {
          "duration": 3,
          "durationTicks": 2048,
          "midi": 81,
          "name": "A5",
          "ticks": 25600,
          "time": 37.5,
          "velocity": 0.44881889763779526
        },
        {
          "duration": 1.5,
          "durationTicks": 1024,
          "midi": 82,
          "name": "A#5",
          "ticks": 27648,
          "time": 40.5,
          "velocity": 0.8188976377952756
        },
        {
          "duration": 1.5,
          "durationTicks": 1024,
          "midi": 74,
          "name": "D5",
          "ticks": 27648,
          "time": 40.5,
          "velocity": 0.8346456692913385
        },
        {
          "duration": 1.5,
          "durationTicks": 1024,
          "midi": 77,
          "name": "F5",
          "ticks": 28672,
          "time": 42,
          "velocity": 0.6929133858267716
        },
        {
          "duration": 1.5,
          "durationTicks": 1024,
          "midi": 75,
          "name": "D#5",
          "ticks": 29696,
          "time": 43.5,
          "velocity": 0.7322834645669292
        },
        {
          "duration": 1.5,
          "durationTicks": 1024,
          "midi": 74,
          "name": "D5",
          "ticks": 30720,
          "time": 45,
          "velocity": 0.7165354330708661
        },
        {
          "duration": 1.5,
          "durationTicks": 1024,
          "midi": 72,
          "name": "C5",
          "ticks": 31744,
          "time": 46.5,
          "velocity": 0.7322834645669292
        },
        {
          "duration": 1.5,
          "durationTicks": 1024,
          "midi": 70,
          "name": "A#4",
          "ticks": 32768,
          "time": 48,
          "velocity": 0.6850393700787402
        },
        {
          "duration": 1.5,
          "durationTicks": 1024,
          "midi": 79,
          "name": "G5",
          "ticks": 33792,
          "time": 49.5,
          "velocity": 0.9606299212598425
        },
        {
          "duration": 1.5,
          "durationTicks": 1024,
          "midi": 82,
          "name": "A#5",
          "ticks": 33792,
          "time": 49.5,
          "velocity": 0.9606299212598425
        },
        {
          "duration": 1.5,
          "durationTicks": 1024,
          "midi": 79,
          "name": "G5",
          "ticks": 34816,
          "time": 51,
          "velocity": 0.7874015748031497
        },
        {
          "duration": 1.5,
          "durationTicks": 1024,
          "midi": 82,
          "name": "A#5",
          "ticks": 34816,
          "time": 51,
          "velocity": 0.7874015748031497
        },
        {
          "duration": 1.5,
          "durationTicks": 1024,
          "midi": 79,
          "name": "G5",
          "ticks": 35840,
          "time": 52.5,
          "velocity": 0.7874015748031497
        },
        {
          "duration": 1.5,
          "durationTicks": 1024,
          "midi": 82,
          "name": "A#5",
          "ticks": 35840,
          "time": 52.5,
          "velocity": 0.7874015748031497
        },
        {
          "duration": 1.5,
          "durationTicks": 1024,
          "midi": 79,
          "name": "G5",
          "ticks": 36864,
          "time": 54,
          "velocity": 0.7165354330708661
        },
        {
          "duration": 1.5,
          "durationTicks": 1024,
          "midi": 82,
          "name": "A#5",
          "ticks": 36864,
          "time": 54,
          "velocity": 0.7165354330708661
        },
        {
          "duration": 2.25,
          "durationTicks": 1536,
          "midi": 77,
          "name": "F5",
          "ticks": 37888,
          "time": 55.5,
          "velocity": 0.7480314960629921
        },
        {
          "duration": 1.5,
          "durationTicks": 1024,
          "midi": 81,
          "name": "A5",
          "ticks": 37888,
          "time": 55.5,
          "velocity": 0.7480314960629921
        },
        {
          "duration": 0.7646484375,
          "durationTicks": 522,
          "midi": 82,
          "name": "A#5",
          "ticks": 38912,
          "time": 57,
          "velocity": 0.7795275590551181
        },
        {
          "duration": 0.7119140625,
          "durationTicks": 486,
          "midi": 76,
          "name": "E5",
          "ticks": 39424,
          "time": 57.75,
          "velocity": 0.6692913385826772
        },
        {
          "duration": 0.7119140625,
          "durationTicks": 486,
          "midi": 79,
          "name": "G5",
          "ticks": 39424,
          "time": 57.75,
          "velocity": 0.6692913385826772
        },
        {
          "duration": 2.25,
          "durationTicks": 1536,
          "midi": 77,
          "name": "F5",
          "ticks": 39936,
          "time": 58.5,
          "velocity": 0.7952755905511811
        },
        {
          "duration": 1.5,
          "durationTicks": 1024,
          "midi": 81,
          "name": "A5",
          "ticks": 39936,
          "time": 58.5,
          "velocity": 0.7952755905511811
        },
        {
          "duration": 1.423828125,
          "durationTicks": 972,
          "midi": 82,
          "name": "A#5",
          "ticks": 40960,
          "time": 60,
          "velocity": 0.9448818897637795
        },
        {
          "duration": 0.7119140625,
          "durationTicks": 486,
          "midi": 79,
          "name": "G5",
          "ticks": 41472,
          "time": 60.75,
          "velocity": 0.8267716535433071
        },
        {
          "duration": 0.375,
          "durationTicks": 256,
          "midi": 77,
          "name": "F5",
          "ticks": 41984,
          "time": 61.5,
          "velocity": 0.8267716535433071
        },
        {
          "duration": 0.375,
          "durationTicks": 256,
          "midi": 81,
          "name": "A5",
          "ticks": 41984,
          "time": 61.5,
          "velocity": 0.8267716535433071
        },
        {
          "duration": 0.375,
          "durationTicks": 256,
          "midi": 69,
          "name": "A4",
          "ticks": 42496,
          "time": 62.25,
          "velocity": 0.6692913385826772
        },
        {
          "duration": 0.375,
          "durationTicks": 256,
          "midi": 72,
          "name": "C5",
          "ticks": 42496,
          "time": 62.25,
          "velocity": 0.6692913385826772
        },
        {
          "duration": 3,
          "durationTicks": 2048,
          "midi": 73,
          "name": "C#5",
          "ticks": 62464,
          "time": 91.5,
          "velocity": 0.4015748031496063
        },
        {
          "duration": 1.5,
          "durationTicks": 1024,
          "midi": 79,
          "name": "G5",
          "ticks": 62464,
          "time": 91.5,
          "velocity": 0.4015748031496063
        },
        {
          "duration": 1.5,
          "durationTicks": 1024,
          "midi": 82,
          "name": "A#5",
          "ticks": 63488,
          "time": 93,
          "velocity": 0.6614173228346457
        },
        {
          "duration": 1.5,
          "durationTicks": 1024,
          "midi": 74,
          "name": "D5",
          "ticks": 64512,
          "time": 94.5,
          "velocity": 0.7874015748031497
        },
        {
          "duration": 1.5,
          "durationTicks": 1024,
          "midi": 82,
          "name": "A#5",
          "ticks": 64512,
          "time": 94.5,
          "velocity": 0.7874015748031497
        },
        {
          "duration": 0.0703125,
          "durationTicks": 48,
          "midi": 81,
          "name": "A5",
          "ticks": 65536,
          "time": 96,
          "velocity": 0.7795275590551181
        },
        {
          "duration": 1.423828125,
          "durationTicks": 972,
          "midi": 75,
          "name": "D#5",
          "ticks": 65536,
          "time": 96,
          "velocity": 0.6614173228346457
        },
        {
          "duration": 0.0703125,
          "durationTicks": 48,
          "midi": 82,
          "name": "A#5",
          "ticks": 65596,
          "time": 96.087890625,
          "velocity": 0.7795275590551181
        },
        {
          "duration": 0.06884765625,
          "durationTicks": 47,
          "midi": 81,
          "name": "A5",
          "ticks": 65655,
          "time": 96.17431640625,
          "velocity": 0.7795275590551181
        },
        {
          "duration": 0.06591796875,
          "durationTicks": 45,
          "midi": 82,
          "name": "A#5",
          "ticks": 65712,
          "time": 96.2578125,
          "velocity": 0.7795275590551181
        },
        {
          "duration": 0.064453125,
          "durationTicks": 44,
          "midi": 81,
          "name": "A5",
          "ticks": 65768,
          "time": 96.33984375,
          "velocity": 0.7795275590551181
        },
        {
          "duration": 0.064453125,
          "durationTicks": 44,
          "midi": 82,
          "name": "A#5",
          "ticks": 65823,
          "time": 96.42041015625,
          "velocity": 0.7795275590551181
        },
        {
          "duration": 0.0615234375,
          "durationTicks": 42,
          "midi": 81,
          "name": "A5",
          "ticks": 65876,
          "time": 96.498046875,
          "velocity": 0.7795275590551181
        },
        {
          "duration": 0.06005859375,
          "durationTicks": 41,
          "midi": 82,
          "name": "A#5",
          "ticks": 65928,
          "time": 96.57421875,
          "velocity": 0.7795275590551181
        },
        {
          "duration": 0.05859375,
          "durationTicks": 40,
          "midi": 81,
          "name": "A5",
          "ticks": 65979,
          "time": 96.64892578125,
          "velocity": 0.7795275590551181
        },
        {
          "duration": 0.05859375,
          "durationTicks": 40,
          "midi": 82,
          "name": "A#5",
          "ticks": 66029,
          "time": 96.72216796875,
          "velocity": 0.7795275590551181
        },
        {
          "duration": 0.06005859375,
          "durationTicks": 41,
          "midi": 81,
          "name": "A5",
          "ticks": 66081,
          "time": 96.79833984375,
          "velocity": 0.7795275590551181
        },
        {
          "duration": 0.0615234375,
          "durationTicks": 42,
          "midi": 82,
          "name": "A#5",
          "ticks": 66134,
          "time": 96.8759765625,
          "velocity": 0.7795275590551181
        },
        {
          "duration": 0.06298828125,
          "durationTicks": 43,
          "midi": 81,
          "name": "A5",
          "ticks": 66188,
          "time": 96.955078125,
          "velocity": 0.7795275590551181
        },
        {
          "duration": 0.064453125,
          "durationTicks": 44,
          "midi": 82,
          "name": "A#5",
          "ticks": 66244,
          "time": 97.037109375,
          "velocity": 0.7795275590551181
        },
        {
          "duration": 0.06591796875,
          "durationTicks": 45,
          "midi": 81,
          "name": "A5",
          "ticks": 66301,
          "time": 97.12060546875,
          "velocity": 0.7795275590551181
        },
        {
          "duration": 0.0673828125,
          "durationTicks": 46,
          "midi": 82,
          "name": "A#5",
          "ticks": 66359,
          "time": 97.20556640625,
          "velocity": 0.7795275590551181
        },
        {
          "duration": 0.04248046875,
          "durationTicks": 29,
          "midi": 81,
          "name": "A5",
          "ticks": 66419,
          "time": 97.29345703125,
          "velocity": 0.7795275590551181
        },
        {
          "duration": 0.09521484375,
          "durationTicks": 65,
          "midi": 79,
          "name": "G5",
          "ticks": 66432,
          "time": 97.3125,
          "velocity": 0.7165354330708661
        },
        {
          "duration": 0.087890625,
          "durationTicks": 60,
          "midi": 81,
          "name": "A5",
          "ticks": 66496,
          "time": 97.40625,
          "velocity": 0.8031496062992126
        },
        {
          "duration": 0.375,
          "durationTicks": 256,
          "midi": 74,
          "name": "D5",
          "ticks": 66560,
          "time": 97.5,
          "velocity": 0.7874015748031497
        },
        {
          "duration": 0.375,
          "durationTicks": 256,
          "midi": 82,
          "name": "A#5",
          "ticks": 66560,
          "time": 97.5,
          "velocity": 0.7874015748031497
        },
        {
          "duration": 0.1875,
          "durationTicks": 128,
          "midi": 74,
          "name": "D5",
          "ticks": 68608,
          "time": 100.5,
          "velocity": 0.6929133858267716
        },
        {
          "duration": 0.1875,
          "durationTicks": 128,
          "midi": 77,
          "name": "F5",
          "ticks": 68608,
          "time": 100.5,
          "velocity": 0.6929133858267716
        },
        {
          "duration": 0.1875,
          "durationTicks": 128,
          "midi": 75,
          "name": "D#5",
          "ticks": 69120,
          "time": 101.25,
          "velocity": 0.6850393700787402
        },
        {
          "duration": 0.1875,
          "durationTicks": 128,
          "midi": 79,
          "name": "G5",
          "ticks": 69120,
          "time": 101.25,
          "velocity": 0.6850393700787402
        },
        {
          "duration": 0.1875,
          "durationTicks": 128,
          "midi": 77,
          "name": "F5",
          "ticks": 69632,
          "time": 102,
          "velocity": 0.6692913385826772
        },
        {
          "duration": 0.1875,
          "durationTicks": 128,
          "midi": 81,
          "name": "A5",
          "ticks": 69632,
          "time": 102,
          "velocity": 0.6692913385826772
        },
        {
          "duration": 0.1875,
          "durationTicks": 128,
          "midi": 77,
          "name": "F5",
          "ticks": 70144,
          "time": 102.75,
          "velocity": 0.6929133858267716
        },
        {
          "duration": 0.1875,
          "durationTicks": 128,
          "midi": 82,
          "name": "A#5",
          "ticks": 70144,
          "time": 102.75,
          "velocity": 0.6929133858267716
        },
        {
          "duration": 1.5,
          "durationTicks": 1024,
          "midi": 81,
          "name": "A5",
          "ticks": 77824,
          "time": 114,
          "velocity": 0.7086614173228346
        },
        {
          "duration": 1.5,
          "durationTicks": 1024,
          "midi": 84,
          "name": "C6",
          "ticks": 77824,
          "time": 114,
          "velocity": 0.7086614173228346
        },
        {
          "duration": 0.75,
          "durationTicks": 512,
          "midi": 82,
          "name": "A#5",
          "ticks": 78848,
          "time": 115.5,
          "velocity": 0.7007874015748031
        },
        {
          "duration": 1.5,
          "durationTicks": 1024,
          "midi": 79,
          "name": "G5",
          "ticks": 78848,
          "time": 115.5,
          "velocity": 0.8582677165354331
        },
        {
          "duration": 0.75,
          "durationTicks": 512,
          "midi": 84,
          "name": "C6",
          "ticks": 79360,
          "time": 116.25,
          "velocity": 0.8110236220472441
        },
        {
          "duration": 0.7646484375,
          "durationTicks": 522,
          "midi": 82,
          "name": "A#5",
          "ticks": 79872,
          "time": 117,
          "velocity": 0.7480314960629921
        },
        {
          "duration": 0.7646484375,
          "durationTicks": 522,
          "midi": 77,
          "name": "F5",
          "ticks": 79872,
          "time": 117,
          "velocity": 0.7322834645669292
        },
        {
          "duration": 0.7119140625,
          "durationTicks": 486,
          "midi": 81,
          "name": "A5",
          "ticks": 80384,
          "time": 117.75,
          "velocity": 0.7086614173228346
        },
        {
          "duration": 0.7119140625,
          "durationTicks": 486,
          "midi": 75,
          "name": "D#5",
          "ticks": 80384,
          "time": 117.75,
          "velocity": 0.6850393700787402
        },
        {
          "duration": 0.375,
          "durationTicks": 256,
          "midi": 82,
          "name": "A#5",
          "ticks": 80896,
          "time": 118.5,
          "velocity": 0.7874015748031497
        },
        {
          "duration": 0.375,
          "durationTicks": 256,
          "midi": 74,
          "name": "D5",
          "ticks": 80896,
          "time": 118.5,
          "velocity": 0.7165354330708661
        },
        {
          "duration": 1.5,
          "durationTicks": 1024,
          "midi": 81,
          "name": "A5",
          "ticks": 86016,
          "time": 126,
          "velocity": 0.7322834645669292
        },
        {
          "duration": 1.5,
          "durationTicks": 1024,
          "midi": 84,
          "name": "C6",
          "ticks": 86016,
          "time": 126,
          "velocity": 0.7322834645669292
        },
        {
          "duration": 0.7646484375,
          "durationTicks": 522,
          "midi": 82,
          "name": "A#5",
          "ticks": 87040,
          "time": 127.5,
          "velocity": 0.7244094488188977
        },
        {
          "duration": 1.423828125,
          "durationTicks": 972,
          "midi": 79,
          "name": "G5",
          "ticks": 87040,
          "time": 127.5,
          "velocity": 0.6850393700787402
        },
        {
          "duration": 0.7119140625,
          "durationTicks": 486,
          "midi": 84,
          "name": "C6",
          "ticks": 87552,
          "time": 128.25,
          "velocity": 0.7401574803149606
        },
        {
          "duration": 0.7646484375,
          "durationTicks": 522,
          "midi": 82,
          "name": "A#5",
          "ticks": 88064,
          "time": 129,
          "velocity": 0.6692913385826772
        },
        {
          "duration": 0.7646484375,
          "durationTicks": 522,
          "midi": 77,
          "name": "F5",
          "ticks": 88064,
          "time": 129,
          "velocity": 0.7007874015748031
        },
        {
          "duration": 0.7119140625,
          "durationTicks": 486,
          "midi": 81,
          "name": "A5",
          "ticks": 88576,
          "time": 129.75,
          "velocity": 0.6299212598425197
        },
        {
          "duration": 0.7119140625,
          "durationTicks": 486,
          "midi": 75,
          "name": "D#5",
          "ticks": 88576,
          "time": 129.75,
          "velocity": 0.6692913385826772
        },
        {
          "duration": 0.75,
          "durationTicks": 512,
          "midi": 82,
          "name": "A#5",
          "ticks": 89088,
          "time": 130.5,
          "velocity": 0.8188976377952756
        },
        {
          "duration": 0.75,
          "durationTicks": 512,
          "midi": 74,
          "name": "D5",
          "ticks": 89088,
          "time": 130.5,
          "velocity": 0.7086614173228346
        },
        {
          "duration": 0.1875,
          "durationTicks": 128,
          "midi": 77,
          "name": "F5",
          "ticks": 89984,
          "time": 131.8125,
          "velocity": 0.6850393700787402
        },
        {
          "duration": 0.1875,
          "durationTicks": 128,
          "midi": 75,
          "name": "D#5",
          "ticks": 90112,
          "time": 132,
          "velocity": 0.6771653543307087
        },
        {
          "duration": 0.1875,
          "durationTicks": 128,
          "midi": 74,
          "name": "D5",
          "ticks": 90240,
          "time": 132.1875,
          "velocity": 0.7007874015748031
        },
        {
          "duration": 0.1875,
          "durationTicks": 128,
          "midi": 72,
          "name": "C5",
          "ticks": 90368,
          "time": 132.375,
          "velocity": 0.7007874015748031
        },
        {
          "duration": 0.1875,
          "durationTicks": 128,
          "midi": 70,
          "name": "A#4",
          "ticks": 90496,
          "time": 132.5625,
          "velocity": 0.7165354330708661
        },
        {
          "duration": 0.1875,
          "durationTicks": 128,
          "midi": 69,
          "name": "A4",
          "ticks": 90624,
          "time": 132.75,
          "velocity": 0.7716535433070866
        },
        {
          "duration": 0.1875,
          "durationTicks": 128,
          "midi": 67,
          "name": "G4",
          "ticks": 90752,
          "time": 132.9375,
          "velocity": 0.7480314960629921
        },
        {
          "duration": 0.1875,
          "durationTicks": 128,
          "midi": 65,
          "name": "F4",
          "ticks": 90880,
          "time": 133.125,
          "velocity": 0.7086614173228346
        },
        {
          "duration": 0.1875,
          "durationTicks": 128,
          "midi": 63,
          "name": "D#4",
          "ticks": 91008,
          "time": 133.3125,
          "velocity": 0.7559055118110236
        },
        {
          "duration": 0.375,
          "durationTicks": 256,
          "midi": 62,
          "name": "D4",
          "ticks": 91136,
          "time": 133.5,
          "velocity": 0.7086614173228346
        },
        {
          "duration": 0.375,
          "durationTicks": 256,
          "midi": 77,
          "name": "F5",
          "ticks": 91392,
          "time": 133.875,
          "velocity": 0.968503937007874
        },
        {
          "duration": 0.75,
          "durationTicks": 512,
          "midi": 70,
          "name": "A#4",
          "ticks": 91392,
          "time": 133.875,
          "velocity": 0.6771653543307087
        },
        {
          "duration": 0.375,
          "durationTicks": 256,
          "midi": 79,
          "name": "G5",
          "ticks": 91648,
          "time": 134.25,
          "velocity": 0.8346456692913385
        },
        {
          "duration": 0.375,
          "durationTicks": 256,
          "midi": 81,
          "name": "A5",
          "ticks": 91904,
          "time": 134.625,
          "velocity": 0.8188976377952756
        },
        {
          "duration": 0.375,
          "durationTicks": 256,
          "midi": 75,
          "name": "D#5",
          "ticks": 91904,
          "time": 134.625,
          "velocity": 0.8661417322834646
        },
        {
          "duration": 0.1875,
          "durationTicks": 128,
          "midi": 82,
          "name": "A#5",
          "ticks": 92160,
          "time": 135,
          "velocity": 0.7952755905511811
        },
        {
          "duration": 0.375,
          "durationTicks": 256,
          "midi": 74,
          "name": "D5",
          "ticks": 92160,
          "time": 135,
          "velocity": 0.7559055118110236
        },
        {
          "duration": 0.1875,
          "durationTicks": 128,
          "midi": 77,
          "name": "F5",
          "ticks": 92288,
          "time": 135.1875,
          "velocity": 0.6614173228346457
        },
        {
          "duration": 0.1875,
          "durationTicks": 128,
          "midi": 86,
          "name": "D6",
          "ticks": 92416,
          "time": 135.375,
          "velocity": 0.8976377952755905
        },
        {
          "duration": 0.1875,
          "durationTicks": 128,
          "midi": 84,
          "name": "C6",
          "ticks": 92544,
          "time": 135.5625,
          "velocity": 0.7480314960629921
        },
        {
          "duration": 0.1875,
          "durationTicks": 128,
          "midi": 82,
          "name": "A#5",
          "ticks": 92672,
          "time": 135.75,
          "velocity": 0.7244094488188977
        },
        {
          "duration": 0.1875,
          "durationTicks": 128,
          "midi": 81,
          "name": "A5",
          "ticks": 92800,
          "time": 135.9375,
          "velocity": 0.7165354330708661
        },
        {
          "duration": 0.1875,
          "durationTicks": 128,
          "midi": 79,
          "name": "G5",
          "ticks": 92928,
          "time": 136.125,
          "velocity": 0.7559055118110236
        },
        {
          "duration": 0.1875,
          "durationTicks": 128,
          "midi": 77,
          "name": "F5",
          "ticks": 93056,
          "time": 136.3125,
          "velocity": 0.6929133858267716
        },
        {
          "duration": 0.1875,
          "durationTicks": 128,
          "midi": 75,
          "name": "D#5",
          "ticks": 93184,
          "time": 136.5,
          "velocity": 0.6929133858267716
        },
        {
          "duration": 0.1875,
          "durationTicks": 128,
          "midi": 74,
          "name": "D5",
          "ticks": 93312,
          "time": 136.6875,
          "velocity": 0.7322834645669292
        },
        {
          "duration": 0.1875,
          "durationTicks": 128,
          "midi": 72,
          "name": "C5",
          "ticks": 93440,
          "time": 136.875,
          "velocity": 0.7322834645669292
        },
        {
          "duration": 0.1875,
          "durationTicks": 128,
          "midi": 70,
          "name": "A#4",
          "ticks": 93568,
          "time": 137.0625,
          "velocity": 0.7401574803149606
        },
        {
          "duration": 0.1875,
          "durationTicks": 128,
          "midi": 69,
          "name": "A4",
          "ticks": 93696,
          "time": 137.25,
          "velocity": 0.7007874015748031
        },
        {
          "duration": 0.1875,
          "durationTicks": 128,
          "midi": 72,
          "name": "C5",
          "ticks": 93824,
          "time": 137.4375,
          "velocity": 0.8031496062992126
        },
        {
          "duration": 0.1875,
          "durationTicks": 128,
          "midi": 77,
          "name": "F5",
          "ticks": 93952,
          "time": 137.625,
          "velocity": 0.8582677165354331
        },
        {
          "duration": 0.1875,
          "durationTicks": 128,
          "midi": 75,
          "name": "D#5",
          "ticks": 94080,
          "time": 137.8125,
          "velocity": 0.7165354330708661
        },
        {
          "duration": 0.375,
          "durationTicks": 256,
          "midi": 74,
          "name": "D5",
          "ticks": 94208,
          "time": 138,
          "velocity": 0.7244094488188977
        },
        {
          "duration": 0.375,
          "durationTicks": 256,
          "midi": 70,
          "name": "A#4",
          "ticks": 94464,
          "time": 138.375,
          "velocity": 0.8267716535433071
        },
        {
          "duration": 0.375,
          "durationTicks": 256,
          "midi": 77,
          "name": "F5",
          "ticks": 94464,
          "time": 138.375,
          "velocity": 0.8267716535433071
        },
        {
          "duration": 0.375,
          "durationTicks": 256,
          "midi": 75,
          "name": "D#5",
          "ticks": 94720,
          "time": 138.75,
          "velocity": 0.8188976377952756
        },
        {
          "duration": 0.375,
          "durationTicks": 256,
          "midi": 79,
          "name": "G5",
          "ticks": 94720,
          "time": 138.75,
          "velocity": 0.8188976377952756
        },
        {
          "duration": 0.375,
          "durationTicks": 256,
          "midi": 81,
          "name": "A5",
          "ticks": 94976,
          "time": 139.125,
          "velocity": 0.8582677165354331
        },
        {
          "duration": 0.375,
          "durationTicks": 256,
          "midi": 84,
          "name": "C6",
          "ticks": 94976,
          "time": 139.125,
          "velocity": 0.8582677165354331
        },
        {
          "duration": 0.375,
          "durationTicks": 256,
          "midi": 82,
          "name": "A#5",
          "ticks": 95232,
          "time": 139.5,
          "velocity": 0.7874015748031497
        },
        {
          "duration": 0.375,
          "durationTicks": 256,
          "midi": 75,
          "name": "D#5",
          "ticks": 95488,
          "time": 139.875,
          "velocity": 0.7874015748031497
        },
        {
          "duration": 0.375,
          "durationTicks": 256,
          "midi": 82,
          "name": "A#5",
          "ticks": 95488,
          "time": 139.875,
          "velocity": 0.7874015748031497
        },
        {
          "duration": 0.375,
          "durationTicks": 256,
          "midi": 74,
          "name": "D5",
          "ticks": 95744,
          "time": 140.25,
          "velocity": 0.7952755905511811
        },
        {
          "duration": 0.375,
          "durationTicks": 256,
          "midi": 82,
          "name": "A#5",
          "ticks": 95744,
          "time": 140.25,
          "velocity": 0.7952755905511811
        },
        {
          "duration": 0.375,
          "durationTicks": 256,
          "midi": 75,
          "name": "D#5",
          "ticks": 96000,
          "time": 140.625,
          "velocity": 0.6929133858267716
        },
        {
          "duration": 0.375,
          "durationTicks": 256,
          "midi": 77,
          "name": "F5",
          "ticks": 96000,
          "time": 140.625,
          "velocity": 0.6929133858267716
        },
        {
          "duration": 0.375,
          "durationTicks": 256,
          "midi": 74,
          "name": "D5",
          "ticks": 96256,
          "time": 141,
          "velocity": 0.7795275590551181
        },
        {
          "duration": 0.375,
          "durationTicks": 256,
          "midi": 77,
          "name": "F5",
          "ticks": 96256,
          "time": 141,
          "velocity": 0.7795275590551181
        },
        {
          "duration": 0.1875,
          "durationTicks": 128,
          "midi": 74,
          "name": "D5",
          "ticks": 96512,
          "time": 141.375,
          "velocity": 0.7952755905511811
        },
        {
          "duration": 0.1875,
          "durationTicks": 128,
          "midi": 77,
          "name": "F5",
          "ticks": 96512,
          "time": 141.375,
          "velocity": 0.7952755905511811
        },
        {
          "duration": 0.1875,
          "durationTicks": 128,
          "midi": 74,
          "name": "D5",
          "ticks": 96640,
          "time": 141.5625,
          "velocity": 0.7559055118110236
        },
        {
          "duration": 0.1875,
          "durationTicks": 128,
          "midi": 77,
          "name": "F5",
          "ticks": 96640,
          "time": 141.5625,
          "velocity": 0.7559055118110236
        },
        {
          "duration": 0.375,
          "durationTicks": 256,
          "midi": 75,
          "name": "D#5",
          "ticks": 96768,
          "time": 141.75,
          "velocity": 0.7716535433070866
        },
        {
          "duration": 0.375,
          "durationTicks": 256,
          "midi": 77,
          "name": "F5",
          "ticks": 96768,
          "time": 141.75,
          "velocity": 0.7716535433070866
        },
        {
          "duration": 0.1875,
          "durationTicks": 128,
          "midi": 75,
          "name": "D#5",
          "ticks": 97024,
          "time": 142.125,
          "velocity": 0.7401574803149606
        },
        {
          "duration": 0.1875,
          "durationTicks": 128,
          "midi": 77,
          "name": "F5",
          "ticks": 97024,
          "time": 142.125,
          "velocity": 0.7401574803149606
        },
        {
          "duration": 0.1875,
          "durationTicks": 128,
          "midi": 75,
          "name": "D#5",
          "ticks": 97152,
          "time": 142.3125,
          "velocity": 0.7559055118110236
        },
        {
          "duration": 0.1875,
          "durationTicks": 128,
          "midi": 77,
          "name": "F5",
          "ticks": 97152,
          "time": 142.3125,
          "velocity": 0.7559055118110236
        },
        {
          "duration": 0.375,
          "durationTicks": 256,
          "midi": 74,
          "name": "D5",
          "ticks": 97280,
          "time": 142.5,
          "velocity": 0.7795275590551181
        },
        {
          "duration": 0.375,
          "durationTicks": 256,
          "midi": 77,
          "name": "F5",
          "ticks": 97280,
          "time": 142.5,
          "velocity": 0.7795275590551181
        },
        {
          "duration": 0.1875,
          "durationTicks": 128,
          "midi": 74,
          "name": "D5",
          "ticks": 97536,
          "time": 142.875,
          "velocity": 0.7480314960629921
        },
        {
          "duration": 0.1875,
          "durationTicks": 128,
          "midi": 77,
          "name": "F5",
          "ticks": 97536,
          "time": 142.875,
          "velocity": 0.7480314960629921
        },
        {
          "duration": 0.1875,
          "durationTicks": 128,
          "midi": 74,
          "name": "D5",
          "ticks": 97664,
          "time": 143.0625,
          "velocity": 0.7795275590551181
        },
        {
          "duration": 0.1875,
          "durationTicks": 128,
          "midi": 77,
          "name": "F5",
          "ticks": 97664,
          "time": 143.0625,
          "velocity": 0.7795275590551181
        },
        {
          "duration": 0.375,
          "durationTicks": 256,
          "midi": 75,
          "name": "D#5",
          "ticks": 97792,
          "time": 143.25,
          "velocity": 0.7480314960629921
        },
        {
          "duration": 0.375,
          "durationTicks": 256,
          "midi": 77,
          "name": "F5",
          "ticks": 97792,
          "time": 143.25,
          "velocity": 0.7480314960629921
        },
        {
          "duration": 0.1875,
          "durationTicks": 128,
          "midi": 75,
          "name": "D#5",
          "ticks": 98048,
          "time": 143.625,
          "velocity": 0.7637795275590551
        },
        {
          "duration": 0.1875,
          "durationTicks": 128,
          "midi": 77,
          "name": "F5",
          "ticks": 98048,
          "time": 143.625,
          "velocity": 0.7637795275590551
        },
        {
          "duration": 0.1875,
          "durationTicks": 128,
          "midi": 75,
          "name": "D#5",
          "ticks": 98176,
          "time": 143.8125,
          "velocity": 0.7874015748031497
        },
        {
          "duration": 0.1875,
          "durationTicks": 128,
          "midi": 77,
          "name": "F5",
          "ticks": 98176,
          "time": 143.8125,
          "velocity": 0.7874015748031497
        },
        {
          "duration": 0.375,
          "durationTicks": 256,
          "midi": 74,
          "name": "D5",
          "ticks": 98304,
          "time": 144,
          "velocity": 0.7716535433070866
        },
        {
          "duration": 0.375,
          "durationTicks": 256,
          "midi": 77,
          "name": "F5",
          "ticks": 98304,
          "time": 144,
          "velocity": 0.7716535433070866
        },
        {
          "duration": 0.1875,
          "durationTicks": 128,
          "midi": 74,
          "name": "D5",
          "ticks": 98560,
          "time": 144.375,
          "velocity": 0.7637795275590551
        },
        {
          "duration": 0.1875,
          "durationTicks": 128,
          "midi": 77,
          "name": "F5",
          "ticks": 98560,
          "time": 144.375,
          "velocity": 0.7637795275590551
        },
        {
          "duration": 0.1875,
          "durationTicks": 128,
          "midi": 74,
          "name": "D5",
          "ticks": 98688,
          "time": 144.5625,
          "velocity": 0.7952755905511811
        },
        {
          "duration": 0.1875,
          "durationTicks": 128,
          "midi": 77,
          "name": "F5",
          "ticks": 98688,
          "time": 144.5625,
          "velocity": 0.7952755905511811
        },
        {
          "duration": 0.375,
          "durationTicks": 256,
          "midi": 75,
          "name": "D#5",
          "ticks": 98816,
          "time": 144.75,
          "velocity": 0.7322834645669292
        },
        {
          "duration": 0.375,
          "durationTicks": 256,
          "midi": 77,
          "name": "F5",
          "ticks": 98816,
          "time": 144.75,
          "velocity": 0.7322834645669292
        },
        {
          "duration": 0.1875,
          "durationTicks": 128,
          "midi": 75,
          "name": "D#5",
          "ticks": 99072,
          "time": 145.125,
          "velocity": 0.7637795275590551
        },
        {
          "duration": 0.1875,
          "durationTicks": 128,
          "midi": 77,
          "name": "F5",
          "ticks": 99072,
          "time": 145.125,
          "velocity": 0.7637795275590551
        },
        {
          "duration": 0.1875,
          "durationTicks": 128,
          "midi": 75,
          "name": "D#5",
          "ticks": 99200,
          "time": 145.3125,
          "velocity": 0.7874015748031497
        },
        {
          "duration": 0.1875,
          "durationTicks": 128,
          "midi": 77,
          "name": "F5",
          "ticks": 99200,
          "time": 145.3125,
          "velocity": 0.7874015748031497
        },
        {
          "duration": 0.375,
          "durationTicks": 256,
          "midi": 74,
          "name": "D5",
          "ticks": 99328,
          "time": 145.5,
          "velocity": 0.7952755905511811
        },
        {
          "duration": 0.375,
          "durationTicks": 256,
          "midi": 77,
          "name": "F5",
          "ticks": 99328,
          "time": 145.5,
          "velocity": 0.7952755905511811
        },
        {
          "duration": 0.375,
          "durationTicks": 256,
          "midi": 75,
          "name": "D#5",
          "ticks": 99584,
          "time": 145.875,
          "velocity": 0.7952755905511811
        },
        {
          "duration": 0.375,
          "durationTicks": 256,
          "midi": 77,
          "name": "F5",
          "ticks": 99584,
          "time": 145.875,
          "velocity": 0.7952755905511811
        },
        {
          "duration": 0.375,
          "durationTicks": 256,
          "midi": 74,
          "name": "D5",
          "ticks": 99840,
          "time": 146.25,
          "velocity": 0.7480314960629921
        },
        {
          "duration": 0.375,
          "durationTicks": 256,
          "midi": 77,
          "name": "F5",
          "ticks": 99840,
          "time": 146.25,
          "velocity": 0.7480314960629921
        },
        {
          "duration": 0.375,
          "durationTicks": 256,
          "midi": 75,
          "name": "D#5",
          "ticks": 100096,
          "time": 146.625,
          "velocity": 0.7716535433070866
        },
        {
          "duration": 0.375,
          "durationTicks": 256,
          "midi": 77,
          "name": "F5",
          "ticks": 100096,
          "time": 146.625,
          "velocity": 0.7716535433070866
        },
        {
          "duration": 0.375,
          "durationTicks": 256,
          "midi": 74,
          "name": "D5",
          "ticks": 100352,
          "time": 147,
          "velocity": 0.7401574803149606
        },
        {
          "duration": 0.375,
          "durationTicks": 256,
          "midi": 77,
          "name": "F5",
          "ticks": 100352,
          "time": 147,
          "velocity": 0.7401574803149606
        },
        {
          "duration": 0.375,
          "durationTicks": 256,
          "midi": 72,
          "name": "C5",
          "ticks": 101376,
          "time": 148.5,
          "velocity": 0.6850393700787402
        },
        {
          "duration": 0.375,
          "durationTicks": 256,
          "midi": 78,
          "name": "F#5",
          "ticks": 101376,
          "time": 148.5,
          "velocity": 0.6850393700787402
        },
        {
          "duration": 0.7646484375,
          "durationTicks": 522,
          "midi": 79,
          "name": "G5",
          "ticks": 118272,
          "time": 173.25,
          "velocity": 0.6850393700787402
        },
        {
          "duration": 0.7646484375,
          "durationTicks": 522,
          "midi": 82,
          "name": "A#5",
          "ticks": 118272,
          "time": 173.25,
          "velocity": 0.6850393700787402
        },
        {
          "duration": 0.35595703125,
          "durationTicks": 243,
          "midi": 78,
          "name": "F#5",
          "ticks": 118784,
          "time": 174,
          "velocity": 0.6850393700787402
        },
        {
          "duration": 0.35595703125,
          "durationTicks": 243,
          "midi": 81,
          "name": "A5",
          "ticks": 118784,
          "time": 174,
          "velocity": 0.6850393700787402
        },
        {
          "duration": 0.7646484375,
          "durationTicks": 522,
          "midi": 79,
          "name": "G5",
          "ticks": 119296,
          "time": 174.75,
          "velocity": 0.7086614173228346
        },
        {
          "duration": 0.7646484375,
          "durationTicks": 522,
          "midi": 82,
          "name": "A#5",
          "ticks": 119296,
          "time": 174.75,
          "velocity": 0.7086614173228346
        },
        {
          "duration": 0.35595703125,
          "durationTicks": 243,
          "midi": 78,
          "name": "F#5",
          "ticks": 119808,
          "time": 175.5,
          "velocity": 0.6535433070866141
        },
        {
          "duration": 0.35595703125,
          "durationTicks": 243,
          "midi": 81,
          "name": "A5",
          "ticks": 119808,
          "time": 175.5,
          "velocity": 0.6535433070866141
        },
        {
          "duration": 0.7646484375,
          "durationTicks": 522,
          "midi": 79,
          "name": "G5",
          "ticks": 120320,
          "time": 176.25,
          "velocity": 0.7165354330708661
        },
        {
          "duration": 0.7646484375,
          "durationTicks": 522,
          "midi": 82,
          "name": "A#5",
          "ticks": 120320,
          "time": 176.25,
          "velocity": 0.7165354330708661
        },
        {
          "duration": 0.35595703125,
          "durationTicks": 243,
          "midi": 78,
          "name": "F#5",
          "ticks": 120832,
          "time": 177,
          "velocity": 0.6771653543307087
        },
        {
          "duration": 0.35595703125,
          "durationTicks": 243,
          "midi": 81,
          "name": "A5",
          "ticks": 120832,
          "time": 177,
          "velocity": 0.6771653543307087
        },
        {
          "duration": 0.1875,
          "durationTicks": 128,
          "midi": 79,
          "name": "G5",
          "ticks": 121088,
          "time": 177.375,
          "velocity": 0.8110236220472441
        },
        {
          "duration": 0.1875,
          "durationTicks": 128,
          "midi": 82,
          "name": "A#5",
          "ticks": 121088,
          "time": 177.375,
          "velocity": 0.8110236220472441
        },
        {
          "duration": 0.1875,
          "durationTicks": 128,
          "midi": 78,
          "name": "F#5",
          "ticks": 121344,
          "time": 177.75,
          "velocity": 0.7637795275590551
        },
        {
          "duration": 0.1875,
          "durationTicks": 128,
          "midi": 81,
          "name": "A5",
          "ticks": 121344,
          "time": 177.75,
          "velocity": 0.7637795275590551
        },
        {
          "duration": 0.1875,
          "durationTicks": 128,
          "midi": 79,
          "name": "G5",
          "ticks": 121600,
          "time": 178.125,
          "velocity": 0.8031496062992126
        },
        {
          "duration": 0.1875,
          "durationTicks": 128,
          "midi": 82,
          "name": "A#5",
          "ticks": 121600,
          "time": 178.125,
          "velocity": 0.8031496062992126
        },
        {
          "duration": 0.75,
          "durationTicks": 512,
          "midi": 78,
          "name": "F#5",
          "ticks": 121856,
          "time": 178.5,
          "velocity": 0.7244094488188977
        },
        {
          "duration": 0.75,
          "durationTicks": 512,
          "midi": 81,
          "name": "A5",
          "ticks": 121856,
          "time": 178.5,
          "velocity": 0.7244094488188977
        },
        {
          "duration": 6,
          "durationTicks": 4096,
          "midi": 82,
          "name": "A#5",
          "ticks": 123904,
          "time": 181.5,
          "velocity": 0.4409448818897638
        },
        {
          "duration": 3,
          "durationTicks": 2048,
          "midi": 74,
          "name": "D5",
          "ticks": 123904,
          "time": 181.5,
          "velocity": 0.44881889763779526
        },
        {
          "duration": 6,
          "durationTicks": 4096,
          "midi": 72,
          "name": "C5",
          "ticks": 125952,
          "time": 184.5,
          "velocity": 0.4566929133858268
        },
        {
          "duration": 3,
          "durationTicks": 2048,
          "midi": 81,
          "name": "A5",
          "ticks": 128000,
          "time": 187.5,
          "velocity": 0.47244094488188976
        },
        {
          "duration": 1.5,
          "durationTicks": 1024,
          "midi": 82,
          "name": "A#5",
          "ticks": 130048,
          "time": 190.5,
          "velocity": 0.8031496062992126
        },
        {
          "duration": 1.5,
          "durationTicks": 1024,
          "midi": 74,
          "name": "D5",
          "ticks": 130048,
          "time": 190.5,
          "velocity": 0.7952755905511811
        },
        {
          "duration": 1.5,
          "durationTicks": 1024,
          "midi": 77,
          "name": "F5",
          "ticks": 131072,
          "time": 192,
          "velocity": 0.6456692913385826
        },
        {
          "duration": 1.5,
          "durationTicks": 1024,
          "midi": 75,
          "name": "D#5",
          "ticks": 132096,
          "time": 193.5,
          "velocity": 0.7007874015748031
        },
        {
          "duration": 1.5,
          "durationTicks": 1024,
          "midi": 74,
          "name": "D5",
          "ticks": 133120,
          "time": 195,
          "velocity": 0.7401574803149606
        },
        {
          "duration": 1.5,
          "durationTicks": 1024,
          "midi": 72,
          "name": "C5",
          "ticks": 134144,
          "time": 196.5,
          "velocity": 0.7165354330708661
        },
        {
          "duration": 1.5,
          "durationTicks": 1024,
          "midi": 70,
          "name": "A#4",
          "ticks": 135168,
          "time": 198,
          "velocity": 0.7322834645669292
        },
        {
          "duration": 1.5,
          "durationTicks": 1024,
          "midi": 79,
          "name": "G5",
          "ticks": 136192,
          "time": 199.5,
          "velocity": 0.952755905511811
        },
        {
          "duration": 1.5,
          "durationTicks": 1024,
          "midi": 82,
          "name": "A#5",
          "ticks": 136192,
          "time": 199.5,
          "velocity": 0.952755905511811
        },
        {
          "duration": 1.5,
          "durationTicks": 1024,
          "midi": 79,
          "name": "G5",
          "ticks": 137216,
          "time": 201,
          "velocity": 0.8503937007874016
        },
        {
          "duration": 1.5,
          "durationTicks": 1024,
          "midi": 82,
          "name": "A#5",
          "ticks": 137216,
          "time": 201,
          "velocity": 0.8503937007874016
        },
        {
          "duration": 1.5,
          "durationTicks": 1024,
          "midi": 79,
          "name": "G5",
          "ticks": 138240,
          "time": 202.5,
          "velocity": 0.7874015748031497
        },
        {
          "duration": 1.5,
          "durationTicks": 1024,
          "midi": 82,
          "name": "A#5",
          "ticks": 138240,
          "time": 202.5,
          "velocity": 0.7874015748031497
        },
        {
          "duration": 1.5,
          "durationTicks": 1024,
          "midi": 79,
          "name": "G5",
          "ticks": 139264,
          "time": 204,
          "velocity": 0.7952755905511811
        },
        {
          "duration": 1.5,
          "durationTicks": 1024,
          "midi": 82,
          "name": "A#5",
          "ticks": 139264,
          "time": 204,
          "velocity": 0.7952755905511811
        },
        {
          "duration": 2.25,
          "durationTicks": 1536,
          "midi": 77,
          "name": "F5",
          "ticks": 140288,
          "time": 205.5,
          "velocity": 0.7401574803149606
        },
        {
          "duration": 1.5,
          "durationTicks": 1024,
          "midi": 81,
          "name": "A5",
          "ticks": 140288,
          "time": 205.5,
          "velocity": 0.7401574803149606
        },
        {
          "duration": 0.7646484375,
          "durationTicks": 522,
          "midi": 82,
          "name": "A#5",
          "ticks": 141312,
          "time": 207,
          "velocity": 0.8188976377952756
        },
        {
          "duration": 0.7119140625,
          "durationTicks": 486,
          "midi": 76,
          "name": "E5",
          "ticks": 141824,
          "time": 207.75,
          "velocity": 0.7086614173228346
        },
        {
          "duration": 0.7119140625,
          "durationTicks": 486,
          "midi": 79,
          "name": "G5",
          "ticks": 141824,
          "time": 207.75,
          "velocity": 0.7086614173228346
        },
        {
          "duration": 2.25,
          "durationTicks": 1536,
          "midi": 77,
          "name": "F5",
          "ticks": 142336,
          "time": 208.5,
          "velocity": 0.8110236220472441
        },
        {
          "duration": 1.5,
          "durationTicks": 1024,
          "midi": 81,
          "name": "A5",
          "ticks": 142336,
          "time": 208.5,
          "velocity": 0.8110236220472441
        },
        {
          "duration": 1.423828125,
          "durationTicks": 972,
          "midi": 82,
          "name": "A#5",
          "ticks": 143360,
          "time": 210,
          "velocity": 0.8976377952755905
        },
        {
          "duration": 0.7119140625,
          "durationTicks": 486,
          "midi": 79,
          "name": "G5",
          "ticks": 143872,
          "time": 210.75,
          "velocity": 0.8188976377952756
        },
        {
          "duration": 0.375,
          "durationTicks": 256,
          "midi": 77,
          "name": "F5",
          "ticks": 144384,
          "time": 211.5,
          "velocity": 0.8582677165354331
        },
        {
          "duration": 0.375,
          "durationTicks": 256,
          "midi": 81,
          "name": "A5",
          "ticks": 144384,
          "time": 211.5,
          "velocity": 0.8582677165354331
        },
        {
          "duration": 0.375,
          "durationTicks": 256,
          "midi": 69,
          "name": "A4",
          "ticks": 144896,
          "time": 212.25,
          "velocity": 0.6771653543307087
        },
        {
          "duration": 0.375,
          "durationTicks": 256,
          "midi": 72,
          "name": "C5",
          "ticks": 144896,
          "time": 212.25,
          "velocity": 0.6771653543307087
        },
        {
          "duration": 3,
          "durationTicks": 2048,
          "midi": 73,
          "name": "C#5",
          "ticks": 164864,
          "time": 241.5,
          "velocity": 0.4015748031496063
        },
        {
          "duration": 1.5,
          "durationTicks": 1024,
          "midi": 79,
          "name": "G5",
          "ticks": 164864,
          "time": 241.5,
          "velocity": 0.4015748031496063
        },
        {
          "duration": 1.5,
          "durationTicks": 1024,
          "midi": 82,
          "name": "A#5",
          "ticks": 165888,
          "time": 243,
          "velocity": 0.7086614173228346
        },
        {
          "duration": 1.5,
          "durationTicks": 1024,
          "midi": 74,
          "name": "D5",
          "ticks": 166912,
          "time": 244.5,
          "velocity": 0.7716535433070866
        },
        {
          "duration": 1.5,
          "durationTicks": 1024,
          "midi": 82,
          "name": "A#5",
          "ticks": 166912,
          "time": 244.5,
          "velocity": 0.7716535433070866
        },
        {
          "duration": 0.0703125,
          "durationTicks": 48,
          "midi": 81,
          "name": "A5",
          "ticks": 167936,
          "time": 246,
          "velocity": 0.7401574803149606
        },
        {
          "duration": 1.423828125,
          "durationTicks": 972,
          "midi": 75,
          "name": "D#5",
          "ticks": 167936,
          "time": 246,
          "velocity": 0.6456692913385826
        },
        {
          "duration": 0.0703125,
          "durationTicks": 48,
          "midi": 82,
          "name": "A#5",
          "ticks": 167996,
          "time": 246.087890625,
          "velocity": 0.7401574803149606
        },
        {
          "duration": 0.06884765625,
          "durationTicks": 47,
          "midi": 81,
          "name": "A5",
          "ticks": 168055,
          "time": 246.17431640625,
          "velocity": 0.7401574803149606
        },
        {
          "duration": 0.06591796875,
          "durationTicks": 45,
          "midi": 82,
          "name": "A#5",
          "ticks": 168112,
          "time": 246.2578125,
          "velocity": 0.7401574803149606
        },
        {
          "duration": 0.064453125,
          "durationTicks": 44,
          "midi": 81,
          "name": "A5",
          "ticks": 168168,
          "time": 246.33984375,
          "velocity": 0.7401574803149606
        },
        {
          "duration": 0.064453125,
          "durationTicks": 44,
          "midi": 82,
          "name": "A#5",
          "ticks": 168223,
          "time": 246.42041015625,
          "velocity": 0.7401574803149606
        },
        {
          "duration": 0.0615234375,
          "durationTicks": 42,
          "midi": 81,
          "name": "A5",
          "ticks": 168276,
          "time": 246.498046875,
          "velocity": 0.7401574803149606
        },
        {
          "duration": 0.06005859375,
          "durationTicks": 41,
          "midi": 82,
          "name": "A#5",
          "ticks": 168328,
          "time": 246.57421875,
          "velocity": 0.7401574803149606
        },
        {
          "duration": 0.05859375,
          "durationTicks": 40,
          "midi": 81,
          "name": "A5",
          "ticks": 168379,
          "time": 246.64892578125,
          "velocity": 0.7401574803149606
        },
        {
          "duration": 0.05859375,
          "durationTicks": 40,
          "midi": 82,
          "name": "A#5",
          "ticks": 168429,
          "time": 246.72216796875,
          "velocity": 0.7401574803149606
        },
        {
          "duration": 0.06005859375,
          "durationTicks": 41,
          "midi": 81,
          "name": "A5",
          "ticks": 168481,
          "time": 246.79833984375,
          "velocity": 0.7401574803149606
        },
        {
          "duration": 0.0615234375,
          "durationTicks": 42,
          "midi": 82,
          "name": "A#5",
          "ticks": 168534,
          "time": 246.8759765625,
          "velocity": 0.7401574803149606
        },
        {
          "duration": 0.06298828125,
          "durationTicks": 43,
          "midi": 81,
          "name": "A5",
          "ticks": 168588,
          "time": 246.955078125,
          "velocity": 0.7401574803149606
        },
        {
          "duration": 0.064453125,
          "durationTicks": 44,
          "midi": 82,
          "name": "A#5",
          "ticks": 168644,
          "time": 247.037109375,
          "velocity": 0.7401574803149606
        },
        {
          "duration": 0.06591796875,
          "durationTicks": 45,
          "midi": 81,
          "name": "A5",
          "ticks": 168701,
          "time": 247.12060546875,
          "velocity": 0.7401574803149606
        },
        {
          "duration": 0.0673828125,
          "durationTicks": 46,
          "midi": 82,
          "name": "A#5",
          "ticks": 168759,
          "time": 247.20556640625,
          "velocity": 0.7401574803149606
        },
        {
          "duration": 0.04248046875,
          "durationTicks": 29,
          "midi": 81,
          "name": "A5",
          "ticks": 168819,
          "time": 247.29345703125,
          "velocity": 0.7401574803149606
        },
        {
          "duration": 0.09521484375,
          "durationTicks": 65,
          "midi": 79,
          "name": "G5",
          "ticks": 168832,
          "time": 247.3125,
          "velocity": 0.7086614173228346
        },
        {
          "duration": 0.087890625,
          "durationTicks": 60,
          "midi": 81,
          "name": "A5",
          "ticks": 168896,
          "time": 247.40625,
          "velocity": 0.8110236220472441
        },
        {
          "duration": 0.375,
          "durationTicks": 256,
          "midi": 74,
          "name": "D5",
          "ticks": 168960,
          "time": 247.5,
          "velocity": 0.7952755905511811
        },
        {
          "duration": 0.375,
          "durationTicks": 256,
          "midi": 82,
          "name": "A#5",
          "ticks": 168960,
          "time": 247.5,
          "velocity": 0.7952755905511811
        },
        {
          "duration": 0.1875,
          "durationTicks": 128,
          "midi": 74,
          "name": "D5",
          "ticks": 171008,
          "time": 250.5,
          "velocity": 0.6850393700787402
        },
        {
          "duration": 0.1875,
          "durationTicks": 128,
          "midi": 77,
          "name": "F5",
          "ticks": 171008,
          "time": 250.5,
          "velocity": 0.6850393700787402
        },
        {
          "duration": 0.1875,
          "durationTicks": 128,
          "midi": 75,
          "name": "D#5",
          "ticks": 171520,
          "time": 251.25,
          "velocity": 0.7086614173228346
        },
        {
          "duration": 0.1875,
          "durationTicks": 128,
          "midi": 79,
          "name": "G5",
          "ticks": 171520,
          "time": 251.25,
          "velocity": 0.7086614173228346
        },
        {
          "duration": 0.1875,
          "durationTicks": 128,
          "midi": 77,
          "name": "F5",
          "ticks": 172032,
          "time": 252,
          "velocity": 0.7165354330708661
        },
        {
          "duration": 0.1875,
          "durationTicks": 128,
          "midi": 81,
          "name": "A5",
          "ticks": 172032,
          "time": 252,
          "velocity": 0.7165354330708661
        },
        {
          "duration": 0.1875,
          "durationTicks": 128,
          "midi": 77,
          "name": "F5",
          "ticks": 172544,
          "time": 252.75,
          "velocity": 0.7086614173228346
        },
        {
          "duration": 0.1875,
          "durationTicks": 128,
          "midi": 82,
          "name": "A#5",
          "ticks": 172544,
          "time": 252.75,
          "velocity": 0.7086614173228346
        },
        {
          "duration": 1.5,
          "durationTicks": 1024,
          "midi": 81,
          "name": "A5",
          "ticks": 180224,
          "time": 264,
          "velocity": 0.6850393700787402
        },
        {
          "duration": 1.5,
          "durationTicks": 1024,
          "midi": 84,
          "name": "C6",
          "ticks": 180224,
          "time": 264,
          "velocity": 0.6850393700787402
        },
        {
          "duration": 0.75,
          "durationTicks": 512,
          "midi": 82,
          "name": "A#5",
          "ticks": 181248,
          "time": 265.5,
          "velocity": 0.6929133858267716
        },
        {
          "duration": 1.5,
          "durationTicks": 1024,
          "midi": 79,
          "name": "G5",
          "ticks": 181248,
          "time": 265.5,
          "velocity": 0.8740157480314961
        },
        {
          "duration": 0.75,
          "durationTicks": 512,
          "midi": 84,
          "name": "C6",
          "ticks": 181760,
          "time": 266.25,
          "velocity": 0.84251968503937
        },
        {
          "duration": 0.7646484375,
          "durationTicks": 522,
          "midi": 82,
          "name": "A#5",
          "ticks": 182272,
          "time": 267,
          "velocity": 0.7244094488188977
        },
        {
          "duration": 0.7646484375,
          "durationTicks": 522,
          "midi": 77,
          "name": "F5",
          "ticks": 182272,
          "time": 267,
          "velocity": 0.7480314960629921
        },
        {
          "duration": 0.7119140625,
          "durationTicks": 486,
          "midi": 81,
          "name": "A5",
          "ticks": 182784,
          "time": 267.75,
          "velocity": 0.6929133858267716
        },
        {
          "duration": 0.7119140625,
          "durationTicks": 486,
          "midi": 75,
          "name": "D#5",
          "ticks": 182784,
          "time": 267.75,
          "velocity": 0.7322834645669292
        },
        {
          "duration": 0.375,
          "durationTicks": 256,
          "midi": 82,
          "name": "A#5",
          "ticks": 183296,
          "time": 268.5,
          "velocity": 0.7480314960629921
        },
        {
          "duration": 0.375,
          "durationTicks": 256,
          "midi": 74,
          "name": "D5",
          "ticks": 183296,
          "time": 268.5,
          "velocity": 0.7007874015748031
        },
        {
          "duration": 1.5,
          "durationTicks": 1024,
          "midi": 81,
          "name": "A5",
          "ticks": 188416,
          "time": 276,
          "velocity": 0.7165354330708661
        },
        {
          "duration": 1.5,
          "durationTicks": 1024,
          "midi": 84,
          "name": "C6",
          "ticks": 188416,
          "time": 276,
          "velocity": 0.7165354330708661
        },
        {
          "duration": 0.7646484375,
          "durationTicks": 522,
          "midi": 82,
          "name": "A#5",
          "ticks": 189440,
          "time": 277.5,
          "velocity": 0.7244094488188977
        },
        {
          "duration": 1.423828125,
          "durationTicks": 972,
          "midi": 79,
          "name": "G5",
          "ticks": 189440,
          "time": 277.5,
          "velocity": 0.6771653543307087
        },
        {
          "duration": 0.7119140625,
          "durationTicks": 486,
          "midi": 84,
          "name": "C6",
          "ticks": 189952,
          "time": 278.25,
          "velocity": 0.7795275590551181
        },
        {
          "duration": 0.7646484375,
          "durationTicks": 522,
          "midi": 82,
          "name": "A#5",
          "ticks": 190464,
          "time": 279,
          "velocity": 0.7401574803149606
        },
        {
          "duration": 0.7646484375,
          "durationTicks": 522,
          "midi": 77,
          "name": "F5",
          "ticks": 190464,
          "time": 279,
          "velocity": 0.7086614173228346
        },
        {
          "duration": 0.7119140625,
          "durationTicks": 486,
          "midi": 81,
          "name": "A5",
          "ticks": 190976,
          "time": 279.75,
          "velocity": 0.7165354330708661
        },
        {
          "duration": 0.7119140625,
          "durationTicks": 486,
          "midi": 75,
          "name": "D#5",
          "ticks": 190976,
          "time": 279.75,
          "velocity": 0.6535433070866141
        },
        {
          "duration": 0.75,
          "durationTicks": 512,
          "midi": 82,
          "name": "A#5",
          "ticks": 191488,
          "time": 280.5,
          "velocity": 0.8346456692913385
        },
        {
          "duration": 0.75,
          "durationTicks": 512,
          "midi": 74,
          "name": "D5",
          "ticks": 191488,
          "time": 280.5,
          "velocity": 0.7559055118110236
        },
        {
          "duration": 0.1875,
          "durationTicks": 128,
          "midi": 77,
          "name": "F5",
          "ticks": 192384,
          "time": 281.8125,
          "velocity": 0.6850393700787402
        },
        {
          "duration": 0.1875,
          "durationTicks": 128,
          "midi": 75,
          "name": "D#5",
          "ticks": 192512,
          "time": 282,
          "velocity": 0.7165354330708661
        },
        {
          "duration": 0.1875,
          "durationTicks": 128,
          "midi": 74,
          "name": "D5",
          "ticks": 192640,
          "time": 282.1875,
          "velocity": 0.7007874015748031
        },
        {
          "duration": 0.1875,
          "durationTicks": 128,
          "midi": 72,
          "name": "C5",
          "ticks": 192768,
          "time": 282.375,
          "velocity": 0.7165354330708661
        },
        {
          "duration": 0.1875,
          "durationTicks": 128,
          "midi": 70,
          "name": "A#4",
          "ticks": 192896,
          "time": 282.5625,
          "velocity": 0.7244094488188977
        },
        {
          "duration": 0.1875,
          "durationTicks": 128,
          "midi": 69,
          "name": "A4",
          "ticks": 193024,
          "time": 282.75,
          "velocity": 0.7244094488188977
        },
        {
          "duration": 0.1875,
          "durationTicks": 128,
          "midi": 67,
          "name": "G4",
          "ticks": 193152,
          "time": 282.9375,
          "velocity": 0.7086614173228346
        },
        {
          "duration": 0.1875,
          "durationTicks": 128,
          "midi": 65,
          "name": "F4",
          "ticks": 193280,
          "time": 283.125,
          "velocity": 0.7244094488188977
        },
        {
          "duration": 0.1875,
          "durationTicks": 128,
          "midi": 63,
          "name": "D#4",
          "ticks": 193408,
          "time": 283.3125,
          "velocity": 0.7165354330708661
        },
        {
          "duration": 0.375,
          "durationTicks": 256,
          "midi": 62,
          "name": "D4",
          "ticks": 193536,
          "time": 283.5,
          "velocity": 0.7322834645669292
        },
        {
          "duration": 0.375,
          "durationTicks": 256,
          "midi": 77,
          "name": "F5",
          "ticks": 193792,
          "time": 283.875,
          "velocity": 0.952755905511811
        },
        {
          "duration": 0.75,
          "durationTicks": 512,
          "midi": 70,
          "name": "A#4",
          "ticks": 193792,
          "time": 283.875,
          "velocity": 0.6929133858267716
        },
        {
          "duration": 0.375,
          "durationTicks": 256,
          "midi": 79,
          "name": "G5",
          "ticks": 194048,
          "time": 284.25,
          "velocity": 0.84251968503937
        },
        {
          "duration": 0.375,
          "durationTicks": 256,
          "midi": 81,
          "name": "A5",
          "ticks": 194304,
          "time": 284.625,
          "velocity": 0.8031496062992126
        },
        {
          "duration": 0.375,
          "durationTicks": 256,
          "midi": 75,
          "name": "D#5",
          "ticks": 194304,
          "time": 284.625,
          "velocity": 0.8188976377952756
        },
        {
          "duration": 0.1875,
          "durationTicks": 128,
          "midi": 82,
          "name": "A#5",
          "ticks": 194560,
          "time": 285,
          "velocity": 0.8346456692913385
        },
        {
          "duration": 0.375,
          "durationTicks": 256,
          "midi": 74,
          "name": "D5",
          "ticks": 194560,
          "time": 285,
          "velocity": 0.7480314960629921
        },
        {
          "duration": 0.1875,
          "durationTicks": 128,
          "midi": 77,
          "name": "F5",
          "ticks": 194688,
          "time": 285.1875,
          "velocity": 0.6692913385826772
        },
        {
          "duration": 0.1875,
          "durationTicks": 128,
          "midi": 86,
          "name": "D6",
          "ticks": 194816,
          "time": 285.375,
          "velocity": 0.9291338582677166
        },
        {
          "duration": 0.1875,
          "durationTicks": 128,
          "midi": 84,
          "name": "C6",
          "ticks": 194944,
          "time": 285.5625,
          "velocity": 0.7401574803149606
        },
        {
          "duration": 0.1875,
          "durationTicks": 128,
          "midi": 82,
          "name": "A#5",
          "ticks": 195072,
          "time": 285.75,
          "velocity": 0.7086614173228346
        },
        {
          "duration": 0.1875,
          "durationTicks": 128,
          "midi": 81,
          "name": "A5",
          "ticks": 195200,
          "time": 285.9375,
          "velocity": 0.7322834645669292
        },
        {
          "duration": 0.1875,
          "durationTicks": 128,
          "midi": 79,
          "name": "G5",
          "ticks": 195328,
          "time": 286.125,
          "velocity": 0.6929133858267716
        },
        {
          "duration": 0.1875,
          "durationTicks": 128,
          "midi": 77,
          "name": "F5",
          "ticks": 195456,
          "time": 286.3125,
          "velocity": 0.7244094488188977
        },
        {
          "duration": 0.1875,
          "durationTicks": 128,
          "midi": 75,
          "name": "D#5",
          "ticks": 195584,
          "time": 286.5,
          "velocity": 0.6929133858267716
        },
        {
          "duration": 0.1875,
          "durationTicks": 128,
          "midi": 74,
          "name": "D5",
          "ticks": 195712,
          "time": 286.6875,
          "velocity": 0.7480314960629921
        },
        {
          "duration": 0.1875,
          "durationTicks": 128,
          "midi": 72,
          "name": "C5",
          "ticks": 195840,
          "time": 286.875,
          "velocity": 0.7401574803149606
        },
        {
          "duration": 0.1875,
          "durationTicks": 128,
          "midi": 70,
          "name": "A#4",
          "ticks": 195968,
          "time": 287.0625,
          "velocity": 0.7007874015748031
        },
        {
          "duration": 0.1875,
          "durationTicks": 128,
          "midi": 69,
          "name": "A4",
          "ticks": 196096,
          "time": 287.25,
          "velocity": 0.7086614173228346
        },
        {
          "duration": 0.1875,
          "durationTicks": 128,
          "midi": 72,
          "name": "C5",
          "ticks": 196224,
          "time": 287.4375,
          "velocity": 0.8346456692913385
        },
        {
          "duration": 0.1875,
          "durationTicks": 128,
          "midi": 77,
          "name": "F5",
          "ticks": 196352,
          "time": 287.625,
          "velocity": 0.8818897637795275
        },
        {
          "duration": 0.1875,
          "durationTicks": 128,
          "midi": 75,
          "name": "D#5",
          "ticks": 196480,
          "time": 287.8125,
          "velocity": 0.7480314960629921
        },
        {
          "duration": 0.375,
          "durationTicks": 256,
          "midi": 74,
          "name": "D5",
          "ticks": 196608,
          "time": 288,
          "velocity": 0.7401574803149606
        },
        {
          "duration": 0.375,
          "durationTicks": 256,
          "midi": 70,
          "name": "A#4",
          "ticks": 196864,
          "time": 288.375,
          "velocity": 0.7795275590551181
        },
        {
          "duration": 0.375,
          "durationTicks": 256,
          "midi": 77,
          "name": "F5",
          "ticks": 196864,
          "time": 288.375,
          "velocity": 0.7795275590551181
        },
        {
          "duration": 0.375,
          "durationTicks": 256,
          "midi": 75,
          "name": "D#5",
          "ticks": 197120,
          "time": 288.75,
          "velocity": 0.8188976377952756
        },
        {
          "duration": 0.375,
          "durationTicks": 256,
          "midi": 79,
          "name": "G5",
          "ticks": 197120,
          "time": 288.75,
          "velocity": 0.8188976377952756
        },
        {
          "duration": 0.375,
          "durationTicks": 256,
          "midi": 81,
          "name": "A5",
          "ticks": 197376,
          "time": 289.125,
          "velocity": 0.8740157480314961
        },
        {
          "duration": 0.375,
          "durationTicks": 256,
          "midi": 84,
          "name": "C6",
          "ticks": 197376,
          "time": 289.125,
          "velocity": 0.8740157480314961
        },
        {
          "duration": 0.375,
          "durationTicks": 256,
          "midi": 82,
          "name": "A#5",
          "ticks": 197632,
          "time": 289.5,
          "velocity": 0.7795275590551181
        },
        {
          "duration": 0.375,
          "durationTicks": 256,
          "midi": 75,
          "name": "D#5",
          "ticks": 197888,
          "time": 289.875,
          "velocity": 0.7795275590551181
        },
        {
          "duration": 0.375,
          "durationTicks": 256,
          "midi": 82,
          "name": "A#5",
          "ticks": 197888,
          "time": 289.875,
          "velocity": 0.7795275590551181
        },
        {
          "duration": 0.375,
          "durationTicks": 256,
          "midi": 74,
          "name": "D5",
          "ticks": 198144,
          "time": 290.25,
          "velocity": 0.7559055118110236
        },
        {
          "duration": 0.375,
          "durationTicks": 256,
          "midi": 82,
          "name": "A#5",
          "ticks": 198144,
          "time": 290.25,
          "velocity": 0.7559055118110236
        },
        {
          "duration": 0.375,
          "durationTicks": 256,
          "midi": 75,
          "name": "D#5",
          "ticks": 198400,
          "time": 290.625,
          "velocity": 0.6850393700787402
        },
        {
          "duration": 0.375,
          "durationTicks": 256,
          "midi": 77,
          "name": "F5",
          "ticks": 198400,
          "time": 290.625,
          "velocity": 0.6850393700787402
        },
        {
          "duration": 0.375,
          "durationTicks": 256,
          "midi": 74,
          "name": "D5",
          "ticks": 198656,
          "time": 291,
          "velocity": 0.7401574803149606
        },
        {
          "duration": 0.375,
          "durationTicks": 256,
          "midi": 77,
          "name": "F5",
          "ticks": 198656,
          "time": 291,
          "velocity": 0.7401574803149606
        },
        {
          "duration": 0.1875,
          "durationTicks": 128,
          "midi": 74,
          "name": "D5",
          "ticks": 198912,
          "time": 291.375,
          "velocity": 0.7559055118110236
        },
        {
          "duration": 0.1875,
          "durationTicks": 128,
          "midi": 77,
          "name": "F5",
          "ticks": 198912,
          "time": 291.375,
          "velocity": 0.7559055118110236
        },
        {
          "duration": 0.1875,
          "durationTicks": 128,
          "midi": 74,
          "name": "D5",
          "ticks": 199040,
          "time": 291.5625,
          "velocity": 0.7795275590551181
        },
        {
          "duration": 0.1875,
          "durationTicks": 128,
          "midi": 77,
          "name": "F5",
          "ticks": 199040,
          "time": 291.5625,
          "velocity": 0.7795275590551181
        },
        {
          "duration": 0.375,
          "durationTicks": 256,
          "midi": 75,
          "name": "D#5",
          "ticks": 199168,
          "time": 291.75,
          "velocity": 0.8110236220472441
        },
        {
          "duration": 0.375,
          "durationTicks": 256,
          "midi": 77,
          "name": "F5",
          "ticks": 199168,
          "time": 291.75,
          "velocity": 0.8110236220472441
        },
        {
          "duration": 0.1875,
          "durationTicks": 128,
          "midi": 75,
          "name": "D#5",
          "ticks": 199424,
          "time": 292.125,
          "velocity": 0.7559055118110236
        },
        {
          "duration": 0.1875,
          "durationTicks": 128,
          "midi": 77,
          "name": "F5",
          "ticks": 199424,
          "time": 292.125,
          "velocity": 0.7559055118110236
        },
        {
          "duration": 0.1875,
          "durationTicks": 128,
          "midi": 75,
          "name": "D#5",
          "ticks": 199552,
          "time": 292.3125,
          "velocity": 0.7637795275590551
        },
        {
          "duration": 0.1875,
          "durationTicks": 128,
          "midi": 77,
          "name": "F5",
          "ticks": 199552,
          "time": 292.3125,
          "velocity": 0.7637795275590551
        },
        {
          "duration": 0.375,
          "durationTicks": 256,
          "midi": 74,
          "name": "D5",
          "ticks": 199680,
          "time": 292.5,
          "velocity": 0.7559055118110236
        },
        {
          "duration": 0.375,
          "durationTicks": 256,
          "midi": 77,
          "name": "F5",
          "ticks": 199680,
          "time": 292.5,
          "velocity": 0.7559055118110236
        },
        {
          "duration": 0.1875,
          "durationTicks": 128,
          "midi": 74,
          "name": "D5",
          "ticks": 199936,
          "time": 292.875,
          "velocity": 0.7559055118110236
        },
        {
          "duration": 0.1875,
          "durationTicks": 128,
          "midi": 77,
          "name": "F5",
          "ticks": 199936,
          "time": 292.875,
          "velocity": 0.7559055118110236
        },
        {
          "duration": 0.1875,
          "durationTicks": 128,
          "midi": 74,
          "name": "D5",
          "ticks": 200064,
          "time": 293.0625,
          "velocity": 0.7952755905511811
        },
        {
          "duration": 0.1875,
          "durationTicks": 128,
          "midi": 77,
          "name": "F5",
          "ticks": 200064,
          "time": 293.0625,
          "velocity": 0.7952755905511811
        },
        {
          "duration": 0.375,
          "durationTicks": 256,
          "midi": 75,
          "name": "D#5",
          "ticks": 200192,
          "time": 293.25,
          "velocity": 0.7401574803149606
        },
        {
          "duration": 0.375,
          "durationTicks": 256,
          "midi": 77,
          "name": "F5",
          "ticks": 200192,
          "time": 293.25,
          "velocity": 0.7401574803149606
        },
        {
          "duration": 0.1875,
          "durationTicks": 128,
          "midi": 75,
          "name": "D#5",
          "ticks": 200448,
          "time": 293.625,
          "velocity": 0.7559055118110236
        },
        {
          "duration": 0.1875,
          "durationTicks": 128,
          "midi": 77,
          "name": "F5",
          "ticks": 200448,
          "time": 293.625,
          "velocity": 0.7559055118110236
        },
        {
          "duration": 0.1875,
          "durationTicks": 128,
          "midi": 75,
          "name": "D#5",
          "ticks": 200576,
          "time": 293.8125,
          "velocity": 0.7874015748031497
        },
        {
          "duration": 0.1875,
          "durationTicks": 128,
          "midi": 77,
          "name": "F5",
          "ticks": 200576,
          "time": 293.8125,
          "velocity": 0.7874015748031497
        },
        {
          "duration": 0.375,
          "durationTicks": 256,
          "midi": 74,
          "name": "D5",
          "ticks": 200704,
          "time": 294,
          "velocity": 0.7322834645669292
        },
        {
          "duration": 0.375,
          "durationTicks": 256,
          "midi": 77,
          "name": "F5",
          "ticks": 200704,
          "time": 294,
          "velocity": 0.7322834645669292
        },
        {
          "duration": 0.1875,
          "durationTicks": 128,
          "midi": 74,
          "name": "D5",
          "ticks": 200960,
          "time": 294.375,
          "velocity": 0.7716535433070866
        },
        {
          "duration": 0.1875,
          "durationTicks": 128,
          "midi": 77,
          "name": "F5",
          "ticks": 200960,
          "time": 294.375,
          "velocity": 0.7716535433070866
        },
        {
          "duration": 0.1875,
          "durationTicks": 128,
          "midi": 74,
          "name": "D5",
          "ticks": 201088,
          "time": 294.5625,
          "velocity": 0.7716535433070866
        },
        {
          "duration": 0.1875,
          "durationTicks": 128,
          "midi": 77,
          "name": "F5",
          "ticks": 201088,
          "time": 294.5625,
          "velocity": 0.7716535433070866
        },
        {
          "duration": 0.375,
          "durationTicks": 256,
          "midi": 75,
          "name": "D#5",
          "ticks": 201216,
          "time": 294.75,
          "velocity": 0.7874015748031497
        },
        {
          "duration": 0.375,
          "durationTicks": 256,
          "midi": 77,
          "name": "F5",
          "ticks": 201216,
          "time": 294.75,
          "velocity": 0.7874015748031497
        },
        {
          "duration": 0.1875,
          "durationTicks": 128,
          "midi": 75,
          "name": "D#5",
          "ticks": 201472,
          "time": 295.125,
          "velocity": 0.7480314960629921
        },
        {
          "duration": 0.1875,
          "durationTicks": 128,
          "midi": 77,
          "name": "F5",
          "ticks": 201472,
          "time": 295.125,
          "velocity": 0.7480314960629921
        },
        {
          "duration": 0.1875,
          "durationTicks": 128,
          "midi": 75,
          "name": "D#5",
          "ticks": 201600,
          "time": 295.3125,
          "velocity": 0.7480314960629921
        },
        {
          "duration": 0.1875,
          "durationTicks": 128,
          "midi": 77,
          "name": "F5",
          "ticks": 201600,
          "time": 295.3125,
          "velocity": 0.7480314960629921
        },
        {
          "duration": 0.375,
          "durationTicks": 256,
          "midi": 74,
          "name": "D5",
          "ticks": 201728,
          "time": 295.5,
          "velocity": 0.7716535433070866
        },
        {
          "duration": 0.375,
          "durationTicks": 256,
          "midi": 77,
          "name": "F5",
          "ticks": 201728,
          "time": 295.5,
          "velocity": 0.7716535433070866
        },
        {
          "duration": 0.375,
          "durationTicks": 256,
          "midi": 75,
          "name": "D#5",
          "ticks": 201984,
          "time": 295.875,
          "velocity": 0.7795275590551181
        },
        {
          "duration": 0.375,
          "durationTicks": 256,
          "midi": 77,
          "name": "F5",
          "ticks": 201984,
          "time": 295.875,
          "velocity": 0.7795275590551181
        },
        {
          "duration": 0.375,
          "durationTicks": 256,
          "midi": 74,
          "name": "D5",
          "ticks": 202240,
          "time": 296.25,
          "velocity": 0.7795275590551181
        },
        {
          "duration": 0.375,
          "durationTicks": 256,
          "midi": 77,
          "name": "F5",
          "ticks": 202240,
          "time": 296.25,
          "velocity": 0.7795275590551181
        },
        {
          "duration": 0.375,
          "durationTicks": 256,
          "midi": 75,
          "name": "D#5",
          "ticks": 202496,
          "time": 296.625,
          "velocity": 0.7637795275590551
        },
        {
          "duration": 0.375,
          "durationTicks": 256,
          "midi": 77,
          "name": "F5",
          "ticks": 202496,
          "time": 296.625,
          "velocity": 0.7637795275590551
        },
        {
          "duration": 0.375,
          "durationTicks": 256,
          "midi": 74,
          "name": "D5",
          "ticks": 202752,
          "time": 297,
          "velocity": 0.7637795275590551
        },
        {
          "duration": 0.375,
          "durationTicks": 256,
          "midi": 77,
          "name": "F5",
          "ticks": 202752,
          "time": 297,
          "velocity": 0.7637795275590551
        },
        {
          "duration": 0.375,
          "durationTicks": 256,
          "midi": 72,
          "name": "C5",
          "ticks": 203776,
          "time": 298.5,
          "velocity": 0.6692913385826772
        },
        {
          "duration": 0.375,
          "durationTicks": 256,
          "midi": 78,
          "name": "F#5",
          "ticks": 203776,
          "time": 298.5,
          "velocity": 0.6692913385826772
        },
        {
          "duration": 0.375,
          "durationTicks": 256,
          "midi": 70,
          "name": "A#4",
          "ticks": 204800,
          "time": 300,
          "velocity": 0.7086614173228346
        },
        {
          "duration": 0.375,
          "durationTicks": 256,
          "midi": 79,
          "name": "G5",
          "ticks": 204800,
          "time": 300,
          "velocity": 0.7086614173228346
        },
        {
          "duration": 0.375,
          "durationTicks": 256,
          "midi": 71,
          "name": "B4",
          "ticks": 205312,
          "time": 300.75,
          "velocity": 0.6850393700787402
        },
        {
          "duration": 0.375,
          "durationTicks": 256,
          "midi": 80,
          "name": "G#5",
          "ticks": 205312,
          "time": 300.75,
          "velocity": 0.6850393700787402
        },
        {
          "duration": 1.529296875,
          "durationTicks": 1044,
          "midi": 83,
          "name": "B5",
          "ticks": 205824,
          "time": 301.5,
          "velocity": 0.4251968503937008
        },
        {
          "duration": 0.7646484375,
          "durationTicks": 522,
          "midi": 81,
          "name": "A5",
          "ticks": 206848,
          "time": 303,
          "velocity": 0.3779527559055118
        },
        {
          "duration": 0.7646484375,
          "durationTicks": 522,
          "midi": 80,
          "name": "G#5",
          "ticks": 207360,
          "time": 303.75,
          "velocity": 0.4409448818897638
        },
        {
          "duration": 0.7646484375,
          "durationTicks": 522,
          "midi": 78,
          "name": "F#5",
          "ticks": 207872,
          "time": 304.5,
          "velocity": 0.4015748031496063
        },
        {
          "duration": 0.7119140625,
          "durationTicks": 486,
          "midi": 77,
          "name": "F5",
          "ticks": 208384,
          "time": 305.25,
          "velocity": 0.4409448818897638
        },
        {
          "duration": 0.375,
          "durationTicks": 256,
          "midi": 78,
          "name": "F#5",
          "ticks": 208896,
          "time": 306,
          "velocity": 0.5196850393700787
        },
        {
          "duration": 0.375,
          "durationTicks": 256,
          "midi": 81,
          "name": "A5",
          "ticks": 218880,
          "time": 320.625,
          "velocity": 0.6850393700787402
        },
        {
          "duration": 0.75,
          "durationTicks": 512,
          "midi": 78,
          "name": "F#5",
          "ticks": 218880,
          "time": 320.625,
          "velocity": 0.6771653543307087
        },
        {
          "duration": 0.75,
          "durationTicks": 512,
          "midi": 79,
          "name": "G5",
          "ticks": 219136,
          "time": 321,
          "velocity": 0.7480314960629921
        },
        {
          "duration": 0.75,
          "durationTicks": 512,
          "midi": 76,
          "name": "E5",
          "ticks": 219392,
          "time": 321.375,
          "velocity": 0.7401574803149606
        },
        {
          "duration": 0.75,
          "durationTicks": 512,
          "midi": 78,
          "name": "F#5",
          "ticks": 219648,
          "time": 321.75,
          "velocity": 0.7007874015748031
        },
        {
          "duration": 0.375,
          "durationTicks": 256,
          "midi": 75,
          "name": "D#5",
          "ticks": 219904,
          "time": 322.125,
          "velocity": 0.6929133858267716
        },
        {
          "duration": 0.375,
          "durationTicks": 256,
          "midi": 79,
          "name": "G5",
          "ticks": 220160,
          "time": 322.5,
          "velocity": 0.7952755905511811
        },
        {
          "duration": 0.375,
          "durationTicks": 256,
          "midi": 76,
          "name": "E5",
          "ticks": 220160,
          "time": 322.5,
          "velocity": 0.7795275590551181
        },
        {
          "duration": 0.75,
          "durationTicks": 512,
          "midi": 76,
          "name": "E5",
          "ticks": 222976,
          "time": 326.625,
          "velocity": 0.6929133858267716
        },
        {
          "duration": 0.75,
          "durationTicks": 512,
          "midi": 81,
          "name": "A5",
          "ticks": 223232,
          "time": 327,
          "velocity": 0.7480314960629921
        },
        {
          "duration": 0.75,
          "durationTicks": 512,
          "midi": 74,
          "name": "D5",
          "ticks": 223488,
          "time": 327.375,
          "velocity": 0.6850393700787402
        },
        {
          "duration": 0.75,
          "durationTicks": 512,
          "midi": 79,
          "name": "G5",
          "ticks": 223744,
          "time": 327.75,
          "velocity": 0.7637795275590551
        },
        {
          "duration": 0.375,
          "durationTicks": 256,
          "midi": 73,
          "name": "C#5",
          "ticks": 224000,
          "time": 328.125,
          "velocity": 0.7637795275590551
        },
        {
          "duration": 0.375,
          "durationTicks": 256,
          "midi": 77,
          "name": "F5",
          "ticks": 224256,
          "time": 328.5,
          "velocity": 0.7559055118110236
        },
        {
          "duration": 0.375,
          "durationTicks": 256,
          "midi": 74,
          "name": "D5",
          "ticks": 224256,
          "time": 328.5,
          "velocity": 0.7952755905511811
        },
        {
          "duration": 1.125,
          "durationTicks": 768,
          "midi": 67,
          "name": "G4",
          "ticks": 226304,
          "time": 331.5,
          "velocity": 0.7007874015748031
        },
        {
          "duration": 0.375,
          "durationTicks": 256,
          "midi": 77,
          "name": "F5",
          "ticks": 227072,
          "time": 332.625,
          "velocity": 0.968503937007874
        },
        {
          "duration": 0.75,
          "durationTicks": 512,
          "midi": 74,
          "name": "D5",
          "ticks": 227072,
          "time": 332.625,
          "velocity": 0.9133858267716536
        },
        {
          "duration": 0.75,
          "durationTicks": 512,
          "midi": 76,
          "name": "E5",
          "ticks": 227328,
          "time": 333,
          "velocity": 0.7874015748031497
        },
        {
          "duration": 0.75,
          "durationTicks": 512,
          "midi": 72,
          "name": "C5",
          "ticks": 227584,
          "time": 333.375,
          "velocity": 0.7007874015748031
        },
        {
          "duration": 0.75,
          "durationTicks": 512,
          "midi": 74,
          "name": "D5",
          "ticks": 227840,
          "time": 333.75,
          "velocity": 0.7086614173228346
        },
        {
          "duration": 0.375,
          "durationTicks": 256,
          "midi": 71,
          "name": "B4",
          "ticks": 228096,
          "time": 334.125,
          "velocity": 0.7007874015748031
        },
        {
          "duration": 0.375,
          "durationTicks": 256,
          "midi": 76,
          "name": "E5",
          "ticks": 228352,
          "time": 334.5,
          "velocity": 0.7952755905511811
        },
        {
          "duration": 0.375,
          "durationTicks": 256,
          "midi": 72,
          "name": "C5",
          "ticks": 228352,
          "time": 334.5,
          "velocity": 0.8267716535433071
        },
        {
          "duration": 1.125,
          "durationTicks": 768,
          "midi": 77,
          "name": "F5",
          "ticks": 230400,
          "time": 337.5,
          "velocity": 0.6771653543307087
        },
        {
          "duration": 1.125,
          "durationTicks": 768,
          "midi": 65,
          "name": "F4",
          "ticks": 230400,
          "time": 337.5,
          "velocity": 0.6692913385826772
        },
        {
          "duration": 0.75,
          "durationTicks": 512,
          "midi": 84,
          "name": "C6",
          "ticks": 231168,
          "time": 338.625,
          "velocity": 0.8661417322834646
        },
        {
          "duration": 0.375,
          "durationTicks": 256,
          "midi": 72,
          "name": "C5",
          "ticks": 231168,
          "time": 338.625,
          "velocity": 0.8976377952755905
        },
        {
          "duration": 0.75,
          "durationTicks": 512,
          "midi": 77,
          "name": "F5",
          "ticks": 231424,
          "time": 339,
          "velocity": 0.889763779527559
        },
        {
          "duration": 0.75,
          "durationTicks": 512,
          "midi": 82,
          "name": "A#5",
          "ticks": 231680,
          "time": 339.375,
          "velocity": 0.6929133858267716
        },
        {
          "duration": 0.75,
          "durationTicks": 512,
          "midi": 75,
          "name": "D#5",
          "ticks": 231936,
          "time": 339.75,
          "velocity": 0.7401574803149606
        },
        {
          "duration": 0.375,
          "durationTicks": 256,
          "midi": 81,
          "name": "A5",
          "ticks": 232192,
          "time": 340.125,
          "velocity": 0.7322834645669292
        },
        {
          "duration": 0.75,
          "durationTicks": 512,
          "midi": 82,
          "name": "A#5",
          "ticks": 232448,
          "time": 340.5,
          "velocity": 0.8031496062992126
        },
        {
          "duration": 3.375,
          "durationTicks": 2304,
          "midi": 74,
          "name": "D5",
          "ticks": 232448,
          "time": 340.5,
          "velocity": 0.7559055118110236
        },
        {
          "duration": 0.75,
          "durationTicks": 512,
          "midi": 77,
          "name": "F5",
          "ticks": 232960,
          "time": 341.25,
          "velocity": 0.6692913385826772
        },
        {
          "duration": 1.875,
          "durationTicks": 1280,
          "midi": 86,
          "name": "D6",
          "ticks": 233472,
          "time": 342,
          "velocity": 0.9212598425196851
        },
        {
          "duration": 0.1875,
          "durationTicks": 128,
          "midi": 72,
          "name": "C5",
          "ticks": 234752,
          "time": 343.875,
          "velocity": 0.7716535433070866
        },
        {
          "duration": 0.1875,
          "durationTicks": 128,
          "midi": 84,
          "name": "C6",
          "ticks": 234752,
          "time": 343.875,
          "velocity": 0.7716535433070866
        },
        {
          "duration": 0.1875,
          "durationTicks": 128,
          "midi": 70,
          "name": "A#4",
          "ticks": 234880,
          "time": 344.0625,
          "velocity": 0.6850393700787402
        },
        {
          "duration": 0.1875,
          "durationTicks": 128,
          "midi": 82,
          "name": "A#5",
          "ticks": 234880,
          "time": 344.0625,
          "velocity": 0.6850393700787402
        },
        {
          "duration": 2.625,
          "durationTicks": 1792,
          "midi": 72,
          "name": "C5",
          "ticks": 235008,
          "time": 344.25,
          "velocity": 0.8031496062992126
        },
        {
          "duration": 2.625,
          "durationTicks": 1792,
          "midi": 84,
          "name": "C6",
          "ticks": 235008,
          "time": 344.25,
          "velocity": 0.8031496062992126
        },
        {
          "duration": 0.1875,
          "durationTicks": 128,
          "midi": 70,
          "name": "A#4",
          "ticks": 236800,
          "time": 346.875,
          "velocity": 0.7480314960629921
        },
        {
          "duration": 0.1875,
          "durationTicks": 128,
          "midi": 82,
          "name": "A#5",
          "ticks": 236800,
          "time": 346.875,
          "velocity": 0.7480314960629921
        },
        {
          "duration": 0.1875,
          "durationTicks": 128,
          "midi": 69,
          "name": "A4",
          "ticks": 236928,
          "time": 347.0625,
          "velocity": 0.7244094488188977
        },
        {
          "duration": 0.1875,
          "durationTicks": 128,
          "midi": 81,
          "name": "A5",
          "ticks": 236928,
          "time": 347.0625,
          "velocity": 0.7244094488188977
        },
        {
          "duration": 0.375,
          "durationTicks": 256,
          "midi": 70,
          "name": "A#4",
          "ticks": 237056,
          "time": 347.25,
          "velocity": 0.7874015748031497
        },
        {
          "duration": 0.375,
          "durationTicks": 256,
          "midi": 82,
          "name": "A#5",
          "ticks": 237056,
          "time": 347.25,
          "velocity": 0.7874015748031497
        },
        {
          "duration": 0.57275390625,
          "durationTicks": 391,
          "midi": 79,
          "name": "G5",
          "ticks": 237568,
          "time": 348,
          "velocity": 0.6771653543307087
        },
        {
          "duration": 0.17724609375,
          "durationTicks": 121,
          "midi": 77,
          "name": "F5",
          "ticks": 237952,
          "time": 348.5625,
          "velocity": 0.6299212598425197
        },
        {
          "duration": 0.57275390625,
          "durationTicks": 391,
          "midi": 76,
          "name": "E5",
          "ticks": 238080,
          "time": 348.75,
          "velocity": 0.7401574803149606
        },
        {
          "duration": 0.17724609375,
          "durationTicks": 121,
          "midi": 74,
          "name": "D5",
          "ticks": 238464,
          "time": 349.3125,
          "velocity": 0.6692913385826772
        },
        {
          "duration": 0.7646484375,
          "durationTicks": 522,
          "midi": 73,
          "name": "C#5",
          "ticks": 238592,
          "time": 349.5,
          "velocity": 0.7322834645669292
        },
        {
          "duration": 0.7119140625,
          "durationTicks": 486,
          "midi": 74,
          "name": "D5",
          "ticks": 239104,
          "time": 350.25,
          "velocity": 0.7874015748031497
        },
        {
          "duration": 0.7119140625,
          "durationTicks": 486,
          "midi": 77,
          "name": "F5",
          "ticks": 239104,
          "time": 350.25,
          "velocity": 0.7874015748031497
        },
        {
          "duration": 0.7646484375,
          "durationTicks": 522,
          "midi": 73,
          "name": "C#5",
          "ticks": 239616,
          "time": 351,
          "velocity": 0.7165354330708661
        },
        {
          "duration": 0.7646484375,
          "durationTicks": 522,
          "midi": 76,
          "name": "E5",
          "ticks": 239616,
          "time": 351,
          "velocity": 0.7165354330708661
        },
        {
          "duration": 0.7119140625,
          "durationTicks": 486,
          "midi": 74,
          "name": "D5",
          "ticks": 240128,
          "time": 351.75,
          "velocity": 0.7244094488188977
        },
        {
          "duration": 0.7119140625,
          "durationTicks": 486,
          "midi": 77,
          "name": "F5",
          "ticks": 240128,
          "time": 351.75,
          "velocity": 0.7244094488188977
        },
        {
          "duration": 0.7646484375,
          "durationTicks": 522,
          "midi": 73,
          "name": "C#5",
          "ticks": 240640,
          "time": 352.5,
          "velocity": 0.7874015748031497
        },
        {
          "duration": 0.7646484375,
          "durationTicks": 522,
          "midi": 76,
          "name": "E5",
          "ticks": 240640,
          "time": 352.5,
          "velocity": 0.7874015748031497
        },
        {
          "duration": 0.7646484375,
          "durationTicks": 522,
          "midi": 74,
          "name": "D5",
          "ticks": 241152,
          "time": 353.25,
          "velocity": 0.8267716535433071
        },
        {
          "duration": 0.7646484375,
          "durationTicks": 522,
          "midi": 77,
          "name": "F5",
          "ticks": 241152,
          "time": 353.25,
          "velocity": 0.8267716535433071
        },
        {
          "duration": 0.7646484375,
          "durationTicks": 522,
          "midi": 73,
          "name": "C#5",
          "ticks": 241664,
          "time": 354,
          "velocity": 0.7165354330708661
        },
        {
          "duration": 0.7646484375,
          "durationTicks": 522,
          "midi": 76,
          "name": "E5",
          "ticks": 241664,
          "time": 354,
          "velocity": 0.7165354330708661
        },
        {
          "duration": 0.7646484375,
          "durationTicks": 522,
          "midi": 74,
          "name": "D5",
          "ticks": 242176,
          "time": 354.75,
          "velocity": 0.7480314960629921
        },
        {
          "duration": 0.7646484375,
          "durationTicks": 522,
          "midi": 77,
          "name": "F5",
          "ticks": 242176,
          "time": 354.75,
          "velocity": 0.7480314960629921
        },
        {
          "duration": 0.7119140625,
          "durationTicks": 486,
          "midi": 73,
          "name": "C#5",
          "ticks": 242688,
          "time": 355.5,
          "velocity": 0.7480314960629921
        },
        {
          "duration": 0.7119140625,
          "durationTicks": 486,
          "midi": 76,
          "name": "E5",
          "ticks": 242688,
          "time": 355.5,
          "velocity": 0.7480314960629921
        },
        {
          "duration": 0.38232421875,
          "durationTicks": 261,
          "midi": 75,
          "name": "D#5",
          "ticks": 258048,
          "time": 378,
          "velocity": 0.7086614173228346
        },
        {
          "duration": 0.375,
          "durationTicks": 256,
          "midi": 78,
          "name": "F#5",
          "ticks": 258048,
          "time": 378,
          "velocity": 0.7086614173228346
        },
        {
          "duration": 0.38232421875,
          "durationTicks": 261,
          "midi": 78,
          "name": "F#5",
          "ticks": 258304,
          "time": 378.375,
          "velocity": 0.7795275590551181
        },
        {
          "duration": 0.375,
          "durationTicks": 256,
          "midi": 81,
          "name": "A5",
          "ticks": 258304,
          "time": 378.375,
          "velocity": 0.7795275590551181
        },
        {
          "duration": 0.35595703125,
          "durationTicks": 243,
          "midi": 81,
          "name": "A5",
          "ticks": 258560,
          "time": 378.75,
          "velocity": 0.8582677165354331
        },
        {
          "duration": 0.35595703125,
          "durationTicks": 243,
          "midi": 84,
          "name": "C6",
          "ticks": 258560,
          "time": 378.75,
          "velocity": 0.8582677165354331
        },
        {
          "duration": 0.38232421875,
          "durationTicks": 261,
          "midi": 70,
          "name": "A#4",
          "ticks": 259072,
          "time": 379.5,
          "velocity": 0.6850393700787402
        },
        {
          "duration": 0.375,
          "durationTicks": 256,
          "midi": 74,
          "name": "D5",
          "ticks": 259072,
          "time": 379.5,
          "velocity": 0.6850393700787402
        },
        {
          "duration": 0.38232421875,
          "durationTicks": 261,
          "midi": 74,
          "name": "D5",
          "ticks": 259328,
          "time": 379.875,
          "velocity": 0.7795275590551181
        },
        {
          "duration": 0.375,
          "durationTicks": 256,
          "midi": 79,
          "name": "G5",
          "ticks": 259328,
          "time": 379.875,
          "velocity": 0.7795275590551181
        },
        {
          "duration": 0.35595703125,
          "durationTicks": 243,
          "midi": 79,
          "name": "G5",
          "ticks": 259584,
          "time": 380.25,
          "velocity": 0.8346456692913385
        },
        {
          "duration": 0.35595703125,
          "durationTicks": 243,
          "midi": 82,
          "name": "A#5",
          "ticks": 259584,
          "time": 380.25,
          "velocity": 0.8346456692913385
        },
        {
          "duration": 0.375,
          "durationTicks": 256,
          "midi": 82,
          "name": "A#5",
          "ticks": 260096,
          "time": 381,
          "velocity": 0.6771653543307087
        },
        {
          "duration": 0.38232421875,
          "durationTicks": 261,
          "midi": 85,
          "name": "C#6",
          "ticks": 260096,
          "time": 381,
          "velocity": 0.6771653543307087
        },
        {
          "duration": 0.375,
          "durationTicks": 256,
          "midi": 79,
          "name": "G5",
          "ticks": 260352,
          "time": 381.375,
          "velocity": 0.6299212598425197
        },
        {
          "duration": 0.38232421875,
          "durationTicks": 261,
          "midi": 82,
          "name": "A#5",
          "ticks": 260352,
          "time": 381.375,
          "velocity": 0.6299212598425197
        },
        {
          "duration": 0.35595703125,
          "durationTicks": 243,
          "midi": 76,
          "name": "E5",
          "ticks": 260608,
          "time": 381.75,
          "velocity": 0.6850393700787402
        },
        {
          "duration": 0.35595703125,
          "durationTicks": 243,
          "midi": 79,
          "name": "G5",
          "ticks": 260608,
          "time": 381.75,
          "velocity": 0.6850393700787402
        },
        {
          "duration": 0.375,
          "durationTicks": 256,
          "midi": 78,
          "name": "F#5",
          "ticks": 261120,
          "time": 382.5,
          "velocity": 0.7244094488188977
        },
        {
          "duration": 0.38232421875,
          "durationTicks": 261,
          "midi": 81,
          "name": "A5",
          "ticks": 261120,
          "time": 382.5,
          "velocity": 0.7244094488188977
        },
        {
          "duration": 0.375,
          "durationTicks": 256,
          "midi": 74,
          "name": "D5",
          "ticks": 261376,
          "time": 382.875,
          "velocity": 0.6299212598425197
        },
        {
          "duration": 0.38232421875,
          "durationTicks": 261,
          "midi": 78,
          "name": "F#5",
          "ticks": 261376,
          "time": 382.875,
          "velocity": 0.6299212598425197
        },
        {
          "duration": 0.35595703125,
          "durationTicks": 243,
          "midi": 69,
          "name": "A4",
          "ticks": 261632,
          "time": 383.25,
          "velocity": 0.6929133858267716
        },
        {
          "duration": 0.35595703125,
          "durationTicks": 243,
          "midi": 74,
          "name": "D5",
          "ticks": 261632,
          "time": 383.25,
          "velocity": 0.6929133858267716
        },
        {
          "duration": 0.38232421875,
          "durationTicks": 261,
          "midi": 72,
          "name": "C5",
          "ticks": 262144,
          "time": 384,
          "velocity": 0.6850393700787402
        },
        {
          "duration": 0.375,
          "durationTicks": 256,
          "midi": 78,
          "name": "F#5",
          "ticks": 262144,
          "time": 384,
          "velocity": 0.6850393700787402
        },
        {
          "duration": 0.38232421875,
          "durationTicks": 261,
          "midi": 78,
          "name": "F#5",
          "ticks": 262400,
          "time": 384.375,
          "velocity": 0.7480314960629921
        },
        {
          "duration": 0.375,
          "durationTicks": 256,
          "midi": 81,
          "name": "A5",
          "ticks": 262400,
          "time": 384.375,
          "velocity": 0.7480314960629921
        },
        {
          "duration": 0.35595703125,
          "durationTicks": 243,
          "midi": 81,
          "name": "A5",
          "ticks": 262656,
          "time": 384.75,
          "velocity": 0.8582677165354331
        },
        {
          "duration": 0.35595703125,
          "durationTicks": 243,
          "midi": 84,
          "name": "C6",
          "ticks": 262656,
          "time": 384.75,
          "velocity": 0.8582677165354331
        },
        {
          "duration": 0.38232421875,
          "durationTicks": 261,
          "midi": 74,
          "name": "D5",
          "ticks": 263168,
          "time": 385.5,
          "velocity": 0.6692913385826772
        },
        {
          "duration": 0.375,
          "durationTicks": 256,
          "midi": 79,
          "name": "G5",
          "ticks": 263168,
          "time": 385.5,
          "velocity": 0.6692913385826772
        },
        {
          "duration": 0.38232421875,
          "durationTicks": 261,
          "midi": 79,
          "name": "G5",
          "ticks": 263424,
          "time": 385.875,
          "velocity": 0.7086614173228346
        },
        {
          "duration": 0.375,
          "durationTicks": 256,
          "midi": 82,
          "name": "A#5",
          "ticks": 263424,
          "time": 385.875,
          "velocity": 0.7086614173228346
        },
        {
          "duration": 0.35595703125,
          "durationTicks": 243,
          "midi": 82,
          "name": "A#5",
          "ticks": 263680,
          "time": 386.25,
          "velocity": 0.889763779527559
        },
        {
          "duration": 0.35595703125,
          "durationTicks": 243,
          "midi": 86,
          "name": "D6",
          "ticks": 263680,
          "time": 386.25,
          "velocity": 0.889763779527559
        },
        {
          "duration": 0.7646484375,
          "durationTicks": 522,
          "midi": 79,
          "name": "G5",
          "ticks": 285184,
          "time": 417.75,
          "velocity": 0.7165354330708661
        },
        {
          "duration": 0.7646484375,
          "durationTicks": 522,
          "midi": 82,
          "name": "A#5",
          "ticks": 285184,
          "time": 417.75,
          "velocity": 0.7165354330708661
        },
        {
          "duration": 0.35595703125,
          "durationTicks": 243,
          "midi": 78,
          "name": "F#5",
          "ticks": 285696,
          "time": 418.5,
          "velocity": 0.6692913385826772
        },
        {
          "duration": 0.35595703125,
          "durationTicks": 243,
          "midi": 81,
          "name": "A5",
          "ticks": 285696,
          "time": 418.5,
          "velocity": 0.6692913385826772
        },
        {
          "duration": 0.7646484375,
          "durationTicks": 522,
          "midi": 79,
          "name": "G5",
          "ticks": 286208,
          "time": 419.25,
          "velocity": 0.7007874015748031
        },
        {
          "duration": 0.7646484375,
          "durationTicks": 522,
          "midi": 82,
          "name": "A#5",
          "ticks": 286208,
          "time": 419.25,
          "velocity": 0.7007874015748031
        },
        {
          "duration": 0.35595703125,
          "durationTicks": 243,
          "midi": 78,
          "name": "F#5",
          "ticks": 286720,
          "time": 420,
          "velocity": 0.6535433070866141
        },
        {
          "duration": 0.35595703125,
          "durationTicks": 243,
          "midi": 81,
          "name": "A5",
          "ticks": 286720,
          "time": 420,
          "velocity": 0.6535433070866141
        },
        {
          "duration": 0.7646484375,
          "durationTicks": 522,
          "midi": 79,
          "name": "G5",
          "ticks": 287232,
          "time": 420.75,
          "velocity": 0.7322834645669292
        },
        {
          "duration": 0.7646484375,
          "durationTicks": 522,
          "midi": 82,
          "name": "A#5",
          "ticks": 287232,
          "time": 420.75,
          "velocity": 0.7322834645669292
        },
        {
          "duration": 0.35595703125,
          "durationTicks": 243,
          "midi": 78,
          "name": "F#5",
          "ticks": 287744,
          "time": 421.5,
          "velocity": 0.6692913385826772
        },
        {
          "duration": 0.35595703125,
          "durationTicks": 243,
          "midi": 81,
          "name": "A5",
          "ticks": 287744,
          "time": 421.5,
          "velocity": 0.6692913385826772
        },
        {
          "duration": 0.1875,
          "durationTicks": 128,
          "midi": 79,
          "name": "G5",
          "ticks": 288000,
          "time": 421.875,
          "velocity": 0.8031496062992126
        },
        {
          "duration": 0.1875,
          "durationTicks": 128,
          "midi": 82,
          "name": "A#5",
          "ticks": 288000,
          "time": 421.875,
          "velocity": 0.8031496062992126
        },
        {
          "duration": 0.1875,
          "durationTicks": 128,
          "midi": 78,
          "name": "F#5",
          "ticks": 288256,
          "time": 422.25,
          "velocity": 0.7244094488188977
        },
        {
          "duration": 0.1875,
          "durationTicks": 128,
          "midi": 81,
          "name": "A5",
          "ticks": 288256,
          "time": 422.25,
          "velocity": 0.7244094488188977
        },
        {
          "duration": 0.1875,
          "durationTicks": 128,
          "midi": 79,
          "name": "G5",
          "ticks": 288512,
          "time": 422.625,
          "velocity": 0.7795275590551181
        },
        {
          "duration": 0.1875,
          "durationTicks": 128,
          "midi": 82,
          "name": "A#5",
          "ticks": 288512,
          "time": 422.625,
          "velocity": 0.7795275590551181
        },
        {
          "duration": 0.75,
          "durationTicks": 512,
          "midi": 78,
          "name": "F#5",
          "ticks": 288768,
          "time": 423,
          "velocity": 0.7165354330708661
        },
        {
          "duration": 0.75,
          "durationTicks": 512,
          "midi": 81,
          "name": "A5",
          "ticks": 288768,
          "time": 423,
          "velocity": 0.7165354330708661
        },
        {
          "duration": 5.25,
          "durationTicks": 3584,
          "midi": 80,
          "name": "G#5",
          "ticks": 292864,
          "time": 429,
          "velocity": 0.7165354330708661
        },
        {
          "duration": 0.7119140625,
          "durationTicks": 486,
          "midi": 77,
          "name": "F5",
          "ticks": 296448,
          "time": 434.25,
          "velocity": 0.7244094488188977
        },
        {
          "duration": 1.5,
          "durationTicks": 1024,
          "midi": 75,
          "name": "D#5",
          "ticks": 296960,
          "time": 435,
          "velocity": 0.7007874015748031
        },
        {
          "duration": 1.5,
          "durationTicks": 1024,
          "midi": 70,
          "name": "A#4",
          "ticks": 297984,
          "time": 436.5,
          "velocity": 0.905511811023622
        },
        {
          "duration": 1.5,
          "durationTicks": 1024,
          "midi": 82,
          "name": "A#5",
          "ticks": 297984,
          "time": 436.5,
          "velocity": 0.905511811023622
        },
        {
          "duration": 1.5,
          "durationTicks": 1024,
          "midi": 68,
          "name": "G#4",
          "ticks": 299008,
          "time": 438,
          "velocity": 0.7322834645669292
        },
        {
          "duration": 1.5,
          "durationTicks": 1024,
          "midi": 80,
          "name": "G#5",
          "ticks": 299008,
          "time": 438,
          "velocity": 0.7322834645669292
        },
        {
          "duration": 1.5,
          "durationTicks": 1024,
          "midi": 67,
          "name": "G4",
          "ticks": 300032,
          "time": 439.5,
          "velocity": 0.7401574803149606
        },
        {
          "duration": 1.5,
          "durationTicks": 1024,
          "midi": 79,
          "name": "G5",
          "ticks": 300032,
          "time": 439.5,
          "velocity": 0.7401574803149606
        },
        {
          "duration": 1.5,
          "durationTicks": 1024,
          "midi": 65,
          "name": "F4",
          "ticks": 301056,
          "time": 441,
          "velocity": 0.5511811023622047
        },
        {
          "duration": 0.75,
          "durationTicks": 512,
          "midi": 64,
          "name": "E4",
          "ticks": 302080,
          "time": 442.5,
          "velocity": 0.6771653543307087
        },
        {
          "duration": 0.75,
          "durationTicks": 512,
          "midi": 61,
          "name": "C#4",
          "ticks": 302592,
          "time": 443.25,
          "velocity": 0.6771653543307087
        },
        {
          "duration": 0.75,
          "durationTicks": 512,
          "midi": 60,
          "name": "C4",
          "ticks": 303104,
          "time": 444,
          "velocity": 0.7086614173228346
        },
        {
          "duration": 0.75,
          "durationTicks": 512,
          "midi": 67,
          "name": "G4",
          "ticks": 303616,
          "time": 444.75,
          "velocity": 0.968503937007874
        },
        {
          "duration": 0.75,
          "durationTicks": 512,
          "midi": 70,
          "name": "A#4",
          "ticks": 303616,
          "time": 444.75,
          "velocity": 0.968503937007874
        },
        {
          "duration": 0.75,
          "durationTicks": 512,
          "midi": 65,
          "name": "F4",
          "ticks": 304128,
          "time": 445.5,
          "velocity": 0.7401574803149606
        },
        {
          "duration": 0.75,
          "durationTicks": 512,
          "midi": 68,
          "name": "G#4",
          "ticks": 304128,
          "time": 445.5,
          "velocity": 0.7401574803149606
        },
        {
          "duration": 0.75,
          "durationTicks": 512,
          "midi": 65,
          "name": "F4",
          "ticks": 304640,
          "time": 446.25,
          "velocity": 0.6850393700787402
        },
        {
          "duration": 1.5,
          "durationTicks": 1024,
          "midi": 72,
          "name": "C5",
          "ticks": 305152,
          "time": 447,
          "velocity": 0.889763779527559
        },
        {
          "duration": 1.5,
          "durationTicks": 1024,
          "midi": 84,
          "name": "C6",
          "ticks": 305664,
          "time": 447.75,
          "velocity": 1
        },
        {
          "duration": 1.5,
          "durationTicks": 1024,
          "midi": 73,
          "name": "C#5",
          "ticks": 306176,
          "time": 448.5,
          "velocity": 0.84251968503937
        },
        {
          "duration": 1.5,
          "durationTicks": 1024,
          "midi": 82,
          "name": "A#5",
          "ticks": 306688,
          "time": 449.25,
          "velocity": 0.7165354330708661
        },
        {
          "duration": 1.5,
          "durationTicks": 1024,
          "midi": 72,
          "name": "C5",
          "ticks": 307200,
          "time": 450,
          "velocity": 0.7401574803149606
        },
        {
          "duration": 1.5,
          "durationTicks": 1024,
          "midi": 80,
          "name": "G#5",
          "ticks": 307712,
          "time": 450.75,
          "velocity": 0.7244094488188977
        },
        {
          "duration": 1.5,
          "durationTicks": 1024,
          "midi": 70,
          "name": "A#4",
          "ticks": 308224,
          "time": 451.5,
          "velocity": 0.7322834645669292
        },
        {
          "duration": 0.75,
          "durationTicks": 512,
          "midi": 79,
          "name": "G5",
          "ticks": 308736,
          "time": 452.25,
          "velocity": 0.7244094488188977
        },
        {
          "duration": 0.375,
          "durationTicks": 256,
          "midi": 68,
          "name": "G#4",
          "ticks": 309248,
          "time": 453,
          "velocity": 0.7007874015748031
        },
        {
          "duration": 0.375,
          "durationTicks": 256,
          "midi": 77,
          "name": "F5",
          "ticks": 309248,
          "time": 453,
          "velocity": 0.7007874015748031
        },
        {
          "duration": 0.375,
          "durationTicks": 256,
          "midi": 77,
          "name": "F5",
          "ticks": 309504,
          "time": 453.375,
          "velocity": 0.8188976377952756
        },
        {
          "duration": 0.375,
          "durationTicks": 256,
          "midi": 80,
          "name": "G#5",
          "ticks": 309504,
          "time": 453.375,
          "velocity": 0.8188976377952756
        },
        {
          "duration": 0.375,
          "durationTicks": 256,
          "midi": 77,
          "name": "F5",
          "ticks": 309760,
          "time": 453.75,
          "velocity": 0.7952755905511811
        },
        {
          "duration": 0.375,
          "durationTicks": 256,
          "midi": 80,
          "name": "G#5",
          "ticks": 309760,
          "time": 453.75,
          "velocity": 0.7952755905511811
        },
        {
          "duration": 0.375,
          "durationTicks": 256,
          "midi": 77,
          "name": "F5",
          "ticks": 310016,
          "time": 454.125,
          "velocity": 0.7795275590551181
        },
        {
          "duration": 0.375,
          "durationTicks": 256,
          "midi": 80,
          "name": "G#5",
          "ticks": 310016,
          "time": 454.125,
          "velocity": 0.7795275590551181
        },
        {
          "duration": 0.375,
          "durationTicks": 256,
          "midi": 74,
          "name": "D5",
          "ticks": 310528,
          "time": 454.875,
          "velocity": 0.6850393700787402
        },
        {
          "duration": 0.375,
          "durationTicks": 256,
          "midi": 80,
          "name": "G#5",
          "ticks": 310528,
          "time": 454.875,
          "velocity": 0.6850393700787402
        },
        {
          "duration": 0.375,
          "durationTicks": 256,
          "midi": 74,
          "name": "D5",
          "ticks": 310784,
          "time": 455.25,
          "velocity": 0.7795275590551181
        },
        {
          "duration": 0.375,
          "durationTicks": 256,
          "midi": 80,
          "name": "G#5",
          "ticks": 310784,
          "time": 455.25,
          "velocity": 0.7795275590551181
        },
        {
          "duration": 0.375,
          "durationTicks": 256,
          "midi": 74,
          "name": "D5",
          "ticks": 311040,
          "time": 455.625,
          "velocity": 0.7637795275590551
        },
        {
          "duration": 0.375,
          "durationTicks": 256,
          "midi": 80,
          "name": "G#5",
          "ticks": 311040,
          "time": 455.625,
          "velocity": 0.7637795275590551
        },
        {
          "duration": 0.75,
          "durationTicks": 512,
          "midi": 74,
          "name": "D5",
          "ticks": 311552,
          "time": 456.375,
          "velocity": 0.6850393700787402
        },
        {
          "duration": 0.75,
          "durationTicks": 512,
          "midi": 79,
          "name": "G5",
          "ticks": 311552,
          "time": 456.375,
          "velocity": 0.6850393700787402
        },
        {
          "duration": 0.375,
          "durationTicks": 256,
          "midi": 74,
          "name": "D5",
          "ticks": 312064,
          "time": 457.125,
          "velocity": 0.7322834645669292
        },
        {
          "duration": 0.375,
          "durationTicks": 256,
          "midi": 79,
          "name": "G5",
          "ticks": 312064,
          "time": 457.125,
          "velocity": 0.7322834645669292
        },
        {
          "duration": 0.375,
          "durationTicks": 256,
          "midi": 72,
          "name": "C5",
          "ticks": 312576,
          "time": 457.875,
          "velocity": 0.6850393700787402
        },
        {
          "duration": 0.375,
          "durationTicks": 256,
          "midi": 79,
          "name": "G5",
          "ticks": 312576,
          "time": 457.875,
          "velocity": 0.6850393700787402
        },
        {
          "duration": 0.375,
          "durationTicks": 256,
          "midi": 72,
          "name": "C5",
          "ticks": 312832,
          "time": 458.25,
          "velocity": 0.7401574803149606
        },
        {
          "duration": 0.375,
          "durationTicks": 256,
          "midi": 79,
          "name": "G5",
          "ticks": 312832,
          "time": 458.25,
          "velocity": 0.7401574803149606
        },
        {
          "duration": 0.375,
          "durationTicks": 256,
          "midi": 72,
          "name": "C5",
          "ticks": 313088,
          "time": 458.625,
          "velocity": 0.7480314960629921
        },
        {
          "duration": 0.375,
          "durationTicks": 256,
          "midi": 79,
          "name": "G5",
          "ticks": 313088,
          "time": 458.625,
          "velocity": 0.7480314960629921
        },
        {
          "duration": 0.75,
          "durationTicks": 512,
          "midi": 72,
          "name": "C5",
          "ticks": 313600,
          "time": 459.375,
          "velocity": 0.7244094488188977
        },
        {
          "duration": 0.75,
          "durationTicks": 512,
          "midi": 77,
          "name": "F5",
          "ticks": 313600,
          "time": 459.375,
          "velocity": 0.7244094488188977
        },
        {
          "duration": 0.375,
          "durationTicks": 256,
          "midi": 72,
          "name": "C5",
          "ticks": 314112,
          "time": 460.125,
          "velocity": 0.7637795275590551
        },
        {
          "duration": 0.375,
          "durationTicks": 256,
          "midi": 77,
          "name": "F5",
          "ticks": 314112,
          "time": 460.125,
          "velocity": 0.7637795275590551
        },
        {
          "duration": 0.375,
          "durationTicks": 256,
          "midi": 71,
          "name": "B4",
          "ticks": 314624,
          "time": 460.875,
          "velocity": 0.6771653543307087
        },
        {
          "duration": 0.375,
          "durationTicks": 256,
          "midi": 77,
          "name": "F5",
          "ticks": 314624,
          "time": 460.875,
          "velocity": 0.6771653543307087
        },
        {
          "duration": 0.375,
          "durationTicks": 256,
          "midi": 71,
          "name": "B4",
          "ticks": 314880,
          "time": 461.25,
          "velocity": 0.7480314960629921
        },
        {
          "duration": 0.375,
          "durationTicks": 256,
          "midi": 77,
          "name": "F5",
          "ticks": 314880,
          "time": 461.25,
          "velocity": 0.7480314960629921
        },
        {
          "duration": 0.375,
          "durationTicks": 256,
          "midi": 71,
          "name": "B4",
          "ticks": 315136,
          "time": 461.625,
          "velocity": 0.7637795275590551
        },
        {
          "duration": 0.375,
          "durationTicks": 256,
          "midi": 77,
          "name": "F5",
          "ticks": 315136,
          "time": 461.625,
          "velocity": 0.7637795275590551
        },
        {
          "duration": 0.75,
          "durationTicks": 512,
          "midi": 72,
          "name": "C5",
          "ticks": 315648,
          "time": 462.375,
          "velocity": 0.7007874015748031
        },
        {
          "duration": 0.75,
          "durationTicks": 512,
          "midi": 75,
          "name": "D#5",
          "ticks": 315648,
          "time": 462.375,
          "velocity": 0.7007874015748031
        },
        {
          "duration": 0.375,
          "durationTicks": 256,
          "midi": 72,
          "name": "C5",
          "ticks": 316160,
          "time": 463.125,
          "velocity": 0.7559055118110236
        },
        {
          "duration": 0.375,
          "durationTicks": 256,
          "midi": 75,
          "name": "D#5",
          "ticks": 316160,
          "time": 463.125,
          "velocity": 0.7559055118110236
        },
        {
          "duration": 0.75,
          "durationTicks": 512,
          "midi": 69,
          "name": "A4",
          "ticks": 316672,
          "time": 463.875,
          "velocity": 0.7086614173228346
        },
        {
          "duration": 0.75,
          "durationTicks": 512,
          "midi": 78,
          "name": "F#5",
          "ticks": 316672,
          "time": 463.875,
          "velocity": 0.7086614173228346
        },
        {
          "duration": 0.375,
          "durationTicks": 256,
          "midi": 72,
          "name": "C5",
          "ticks": 317184,
          "time": 464.625,
          "velocity": 0.6535433070866141
        },
        {
          "duration": 0.375,
          "durationTicks": 256,
          "midi": 74,
          "name": "D5",
          "ticks": 317184,
          "time": 464.625,
          "velocity": 0.6535433070866141
        },
        {
          "duration": 1.5,
          "durationTicks": 1024,
          "midi": 70,
          "name": "A#4",
          "ticks": 317440,
          "time": 465,
          "velocity": 0.7874015748031497
        },
        {
          "duration": 1.5,
          "durationTicks": 1024,
          "midi": 74,
          "name": "D5",
          "ticks": 317440,
          "time": 465,
          "velocity": 0.7874015748031497
        },
        {
          "duration": 1.5,
          "durationTicks": 1024,
          "midi": 74,
          "name": "D5",
          "ticks": 318464,
          "time": 466.5,
          "velocity": 0.7716535433070866
        },
        {
          "duration": 1.5,
          "durationTicks": 1024,
          "midi": 72,
          "name": "C5",
          "ticks": 319488,
          "time": 468,
          "velocity": 0.9606299212598425
        },
        {
          "duration": 1.5,
          "durationTicks": 1024,
          "midi": 84,
          "name": "C6",
          "ticks": 319488,
          "time": 468,
          "velocity": 0.9606299212598425
        },
        {
          "duration": 1.5,
          "durationTicks": 1024,
          "midi": 70,
          "name": "A#4",
          "ticks": 320512,
          "time": 469.5,
          "velocity": 0.7322834645669292
        },
        {
          "duration": 1.5,
          "durationTicks": 1024,
          "midi": 82,
          "name": "A#5",
          "ticks": 320512,
          "time": 469.5,
          "velocity": 0.7322834645669292
        },
        {
          "duration": 1.125,
          "durationTicks": 768,
          "midi": 69,
          "name": "A4",
          "ticks": 321536,
          "time": 471,
          "velocity": 0.7322834645669292
        },
        {
          "duration": 1.125,
          "durationTicks": 768,
          "midi": 81,
          "name": "A5",
          "ticks": 321536,
          "time": 471,
          "velocity": 0.7322834645669292
        },
        {
          "duration": 0.375,
          "durationTicks": 256,
          "midi": 66,
          "name": "F#4",
          "ticks": 322304,
          "time": 472.125,
          "velocity": 0.7165354330708661
        },
        {
          "duration": 0.375,
          "durationTicks": 256,
          "midi": 78,
          "name": "F#5",
          "ticks": 322304,
          "time": 472.125,
          "velocity": 0.7165354330708661
        },
        {
          "duration": 1.14697265625,
          "durationTicks": 783,
          "midi": 67,
          "name": "G4",
          "ticks": 322560,
          "time": 472.5,
          "velocity": 0.5354330708661418
        },
        {
          "duration": 1.423828125,
          "durationTicks": 972,
          "midi": 79,
          "name": "G5",
          "ticks": 322560,
          "time": 472.5,
          "velocity": 0.8661417322834646
        },
        {
          "duration": 0.35595703125,
          "durationTicks": 243,
          "midi": 74,
          "name": "D5",
          "ticks": 323328,
          "time": 473.625,
          "velocity": 0.6299212598425197
        },
        {
          "duration": 1.5,
          "durationTicks": 1024,
          "midi": 76,
          "name": "E5",
          "ticks": 323584,
          "time": 474,
          "velocity": 0.8818897637795275
        },
        {
          "duration": 1.5,
          "durationTicks": 1024,
          "midi": 79,
          "name": "G5",
          "ticks": 323584,
          "time": 474,
          "velocity": 0.8818897637795275
        },
        {
          "duration": 1.5,
          "durationTicks": 1024,
          "midi": 76,
          "name": "E5",
          "ticks": 324608,
          "time": 475.5,
          "velocity": 0.7952755905511811
        },
        {
          "duration": 1.5,
          "durationTicks": 1024,
          "midi": 79,
          "name": "G5",
          "ticks": 324608,
          "time": 475.5,
          "velocity": 0.7952755905511811
        },
        {
          "duration": 1.5,
          "durationTicks": 1024,
          "midi": 76,
          "name": "E5",
          "ticks": 325632,
          "time": 477,
          "velocity": 0.7637795275590551
        },
        {
          "duration": 1.5,
          "durationTicks": 1024,
          "midi": 79,
          "name": "G5",
          "ticks": 325632,
          "time": 477,
          "velocity": 0.7637795275590551
        },
        {
          "duration": 1.5,
          "durationTicks": 1024,
          "midi": 76,
          "name": "E5",
          "ticks": 326656,
          "time": 478.5,
          "velocity": 0.7480314960629921
        },
        {
          "duration": 1.5,
          "durationTicks": 1024,
          "midi": 79,
          "name": "G5",
          "ticks": 326656,
          "time": 478.5,
          "velocity": 0.7480314960629921
        },
        {
          "duration": 0.75,
          "durationTicks": 512,
          "midi": 74,
          "name": "D5",
          "ticks": 327680,
          "time": 480,
          "velocity": 0.7480314960629921
        },
        {
          "duration": 0.75,
          "durationTicks": 512,
          "midi": 78,
          "name": "F#5",
          "ticks": 327680,
          "time": 480,
          "velocity": 0.7480314960629921
        },
        {
          "duration": 0.75,
          "durationTicks": 512,
          "midi": 78,
          "name": "F#5",
          "ticks": 328192,
          "time": 480.75,
          "velocity": 0.84251968503937
        },
        {
          "duration": 0.75,
          "durationTicks": 512,
          "midi": 81,
          "name": "A5",
          "ticks": 328192,
          "time": 480.75,
          "velocity": 0.84251968503937
        },
        {
          "duration": 0.75,
          "durationTicks": 512,
          "midi": 79,
          "name": "G5",
          "ticks": 328704,
          "time": 481.5,
          "velocity": 0.8110236220472441
        },
        {
          "duration": 0.75,
          "durationTicks": 512,
          "midi": 82,
          "name": "A#5",
          "ticks": 328704,
          "time": 481.5,
          "velocity": 0.8110236220472441
        },
        {
          "duration": 0.75,
          "durationTicks": 512,
          "midi": 76,
          "name": "E5",
          "ticks": 329216,
          "time": 482.25,
          "velocity": 0.7086614173228346
        },
        {
          "duration": 0.75,
          "durationTicks": 512,
          "midi": 79,
          "name": "G5",
          "ticks": 329216,
          "time": 482.25,
          "velocity": 0.7086614173228346
        },
        {
          "duration": 0.75,
          "durationTicks": 512,
          "midi": 74,
          "name": "D5",
          "ticks": 329728,
          "time": 483,
          "velocity": 0.7165354330708661
        },
        {
          "duration": 0.75,
          "durationTicks": 512,
          "midi": 78,
          "name": "F#5",
          "ticks": 329728,
          "time": 483,
          "velocity": 0.7165354330708661
        },
        {
          "duration": 0.75,
          "durationTicks": 512,
          "midi": 81,
          "name": "A5",
          "ticks": 330240,
          "time": 483.75,
          "velocity": 0.905511811023622
        },
        {
          "duration": 0.75,
          "durationTicks": 512,
          "midi": 84,
          "name": "C6",
          "ticks": 330240,
          "time": 483.75,
          "velocity": 0.905511811023622
        },
        {
          "duration": 0.75,
          "durationTicks": 512,
          "midi": 79,
          "name": "G5",
          "ticks": 330752,
          "time": 484.5,
          "velocity": 0.7322834645669292
        },
        {
          "duration": 0.75,
          "durationTicks": 512,
          "midi": 82,
          "name": "A#5",
          "ticks": 330752,
          "time": 484.5,
          "velocity": 0.7322834645669292
        },
        {
          "duration": 0.75,
          "durationTicks": 512,
          "midi": 76,
          "name": "E5",
          "ticks": 331264,
          "time": 485.25,
          "velocity": 0.7244094488188977
        },
        {
          "duration": 0.75,
          "durationTicks": 512,
          "midi": 79,
          "name": "G5",
          "ticks": 331264,
          "time": 485.25,
          "velocity": 0.7244094488188977
        },
        {
          "duration": 0.375,
          "durationTicks": 256,
          "midi": 74,
          "name": "D5",
          "ticks": 331776,
          "time": 486,
          "velocity": 0.7165354330708661
        },
        {
          "duration": 0.375,
          "durationTicks": 256,
          "midi": 78,
          "name": "F#5",
          "ticks": 331776,
          "time": 486,
          "velocity": 0.7165354330708661
        },
        {
          "duration": 0.375,
          "durationTicks": 256,
          "midi": 66,
          "name": "F#4",
          "ticks": 332288,
          "time": 486.75,
          "velocity": 0.6850393700787402
        },
        {
          "duration": 0.375,
          "durationTicks": 256,
          "midi": 69,
          "name": "A4",
          "ticks": 332288,
          "time": 486.75,
          "velocity": 0.6850393700787402
        },
        {
          "duration": 1.14697265625,
          "durationTicks": 783,
          "midi": 72,
          "name": "C5",
          "ticks": 334848,
          "time": 490.5,
          "velocity": 0.41732283464566927
        },
        {
          "duration": 0.09521484375,
          "durationTicks": 65,
          "midi": 74,
          "name": "D5",
          "ticks": 335616,
          "time": 491.625,
          "velocity": 0.4094488188976378
        },
        {
          "duration": 0.09521484375,
          "durationTicks": 65,
          "midi": 72,
          "name": "C5",
          "ticks": 335680,
          "time": 491.71875,
          "velocity": 0.47244094488188976
        },
        {
          "duration": 0.09521484375,
          "durationTicks": 65,
          "midi": 70,
          "name": "A#4",
          "ticks": 335744,
          "time": 491.8125,
          "velocity": 0.44881889763779526
        },
        {
          "duration": 0.09521484375,
          "durationTicks": 65,
          "midi": 69,
          "name": "A4",
          "ticks": 335808,
          "time": 491.90625,
          "velocity": 0.4645669291338583
        },
        {
          "duration": 0.35595703125,
          "durationTicks": 243,
          "midi": 67,
          "name": "G4",
          "ticks": 335872,
          "time": 492,
          "velocity": 0.4094488188976378
        },
        {
          "duration": 0.1904296875,
          "durationTicks": 130,
          "midi": 67,
          "name": "G4",
          "ticks": 340992,
          "time": 499.5,
          "velocity": 0.4094488188976378
        },
        {
          "duration": 0.1904296875,
          "durationTicks": 130,
          "midi": 66,
          "name": "F#4",
          "ticks": 341120,
          "time": 499.6875,
          "velocity": 0.33858267716535434
        },
        {
          "duration": 0.1904296875,
          "durationTicks": 130,
          "midi": 69,
          "name": "A4",
          "ticks": 341248,
          "time": 499.875,
          "velocity": 0.5118110236220472
        },
        {
          "duration": 0.1904296875,
          "durationTicks": 130,
          "midi": 67,
          "name": "G4",
          "ticks": 341376,
          "time": 500.0625,
          "velocity": 0.47244094488188976
        },
        {
          "duration": 0.1904296875,
          "durationTicks": 130,
          "midi": 70,
          "name": "A#4",
          "ticks": 341504,
          "time": 500.25,
          "velocity": 0.5196850393700787
        },
        {
          "duration": 0.1904296875,
          "durationTicks": 130,
          "midi": 69,
          "name": "A4",
          "ticks": 341632,
          "time": 500.4375,
          "velocity": 0.5118110236220472
        },
        {
          "duration": 0.1904296875,
          "durationTicks": 130,
          "midi": 72,
          "name": "C5",
          "ticks": 341760,
          "time": 500.625,
          "velocity": 0.5196850393700787
        },
        {
          "duration": 0.17724609375,
          "durationTicks": 121,
          "midi": 70,
          "name": "A#4",
          "ticks": 341888,
          "time": 500.8125,
          "velocity": 0.5196850393700787
        },
        {
          "duration": 1.14697265625,
          "durationTicks": 783,
          "midi": 74,
          "name": "D5",
          "ticks": 342016,
          "time": 501,
          "velocity": 0.5275590551181102
        },
        {
          "duration": 0.38232421875,
          "durationTicks": 261,
          "midi": 73,
          "name": "C#5",
          "ticks": 342784,
          "time": 502.125,
          "velocity": 0.5196850393700787
        },
        {
          "duration": 0.38232421875,
          "durationTicks": 261,
          "midi": 72,
          "name": "C5",
          "ticks": 343040,
          "time": 502.5,
          "velocity": 0.48031496062992124
        },
        {
          "duration": 0.38232421875,
          "durationTicks": 261,
          "midi": 71,
          "name": "B4",
          "ticks": 344320,
          "time": 504.375,
          "velocity": 0.4330708661417323
        },
        {
          "duration": 0.7119140625,
          "durationTicks": 486,
          "midi": 79,
          "name": "G5",
          "ticks": 344576,
          "time": 504.75,
          "velocity": 0.5590551181102362
        },
        {
          "duration": 0.38232421875,
          "durationTicks": 261,
          "midi": 72,
          "name": "C5",
          "ticks": 344576,
          "time": 504.75,
          "velocity": 0.4015748031496063
        },
        {
          "duration": 0.35595703125,
          "durationTicks": 243,
          "midi": 73,
          "name": "C#5",
          "ticks": 344832,
          "time": 505.125,
          "velocity": 0.41732283464566927
        },
        {
          "duration": 0.57275390625,
          "durationTicks": 391,
          "midi": 79,
          "name": "G5",
          "ticks": 345088,
          "time": 505.5,
          "velocity": 0.4881889763779528
        },
        {
          "duration": 0.7119140625,
          "durationTicks": 486,
          "midi": 74,
          "name": "D5",
          "ticks": 345088,
          "time": 505.5,
          "velocity": 0.5118110236220472
        },
        {
          "duration": 0.17724609375,
          "durationTicks": 121,
          "midi": 81,
          "name": "A5",
          "ticks": 345472,
          "time": 506.0625,
          "velocity": 0.5275590551181102
        },
        {
          "duration": 0.375,
          "durationTicks": 256,
          "midi": 78,
          "name": "F#5",
          "ticks": 345600,
          "time": 506.25,
          "velocity": 0.44881889763779526
        },
        {
          "duration": 0.75,
          "durationTicks": 512,
          "midi": 75,
          "name": "D#5",
          "ticks": 354304,
          "time": 519,
          "velocity": 0.6850393700787402
        },
        {
          "duration": 1.5,
          "durationTicks": 1024,
          "midi": 66,
          "name": "F#4",
          "ticks": 354304,
          "time": 519,
          "velocity": 0.7007874015748031
        },
        {
          "duration": 0.1875,
          "durationTicks": 128,
          "midi": 72,
          "name": "C5",
          "ticks": 354816,
          "time": 519.75,
          "velocity": 0.6771653543307087
        },
        {
          "duration": 0.1875,
          "durationTicks": 128,
          "midi": 69,
          "name": "A4",
          "ticks": 355072,
          "time": 520.125,
          "velocity": 0.6929133858267716
        },
        {
          "duration": 0.38232421875,
          "durationTicks": 261,
          "midi": 70,
          "name": "A#4",
          "ticks": 355328,
          "time": 520.5,
          "velocity": 0.7952755905511811
        },
        {
          "duration": 1.423828125,
          "durationTicks": 972,
          "midi": 65,
          "name": "F4",
          "ticks": 355328,
          "time": 520.5,
          "velocity": 0.7322834645669292
        },
        {
          "duration": 0.35595703125,
          "durationTicks": 243,
          "midi": 73,
          "name": "C#5",
          "ticks": 355584,
          "time": 520.875,
          "velocity": 0.8740157480314961
        },
        {
          "duration": 1.5,
          "durationTicks": 1024,
          "midi": 77,
          "name": "F5",
          "ticks": 355840,
          "time": 521.25,
          "velocity": 0.8503937007874016
        },
        {
          "duration": 1.5,
          "durationTicks": 1024,
          "midi": 68,
          "name": "G#4",
          "ticks": 356352,
          "time": 522,
          "velocity": 0.8346456692913385
        },
        {
          "duration": 0.1875,
          "durationTicks": 128,
          "midi": 74,
          "name": "D5",
          "ticks": 356864,
          "time": 522.75,
          "velocity": 0.7007874015748031
        },
        {
          "duration": 0.1875,
          "durationTicks": 128,
          "midi": 71,
          "name": "B4",
          "ticks": 357120,
          "time": 523.125,
          "velocity": 0.7244094488188977
        },
        {
          "duration": 0.38232421875,
          "durationTicks": 261,
          "midi": 72,
          "name": "C5",
          "ticks": 357376,
          "time": 523.5,
          "velocity": 0.8031496062992126
        },
        {
          "duration": 1.423828125,
          "durationTicks": 972,
          "midi": 67,
          "name": "G4",
          "ticks": 357376,
          "time": 523.5,
          "velocity": 0.7480314960629921
        },
        {
          "duration": 0.35595703125,
          "durationTicks": 243,
          "midi": 75,
          "name": "D#5",
          "ticks": 357632,
          "time": 523.875,
          "velocity": 0.889763779527559
        },
        {
          "duration": 1.5,
          "durationTicks": 1024,
          "midi": 79,
          "name": "G5",
          "ticks": 357888,
          "time": 524.25,
          "velocity": 0.8503937007874016
        },
        {
          "duration": 3,
          "durationTicks": 2048,
          "midi": 70,
          "name": "A#4",
          "ticks": 358400,
          "time": 525,
          "velocity": 0.8346456692913385
        },
        {
          "duration": 0.1875,
          "durationTicks": 128,
          "midi": 76,
          "name": "E5",
          "ticks": 358912,
          "time": 525.75,
          "velocity": 0.6535433070866141
        },
        {
          "duration": 0.1875,
          "durationTicks": 128,
          "midi": 73,
          "name": "C#5",
          "ticks": 359168,
          "time": 526.125,
          "velocity": 0.7244094488188977
        },
        {
          "duration": 1.5,
          "durationTicks": 1024,
          "midi": 74,
          "name": "D5",
          "ticks": 359424,
          "time": 526.5,
          "velocity": 0.7637795275590551
        },
        {
          "duration": 1.33740234375,
          "durationTicks": 913,
          "midi": 78,
          "name": "F#5",
          "ticks": 360448,
          "time": 528,
          "velocity": 0.8267716535433071
        },
        {
          "duration": 1.423828125,
          "durationTicks": 972,
          "midi": 72,
          "name": "C5",
          "ticks": 360448,
          "time": 528,
          "velocity": 0.7952755905511811
        },
        {
          "duration": 0.09521484375,
          "durationTicks": 65,
          "midi": 76,
          "name": "E5",
          "ticks": 361344,
          "time": 529.3125,
          "velocity": 0.7322834645669292
        },
        {
          "duration": 0.087890625,
          "durationTicks": 60,
          "midi": 78,
          "name": "F#5",
          "ticks": 361408,
          "time": 529.40625,
          "velocity": 0.8188976377952756
        },
        {
          "duration": 0.375,
          "durationTicks": 256,
          "midi": 70,
          "name": "A#4",
          "ticks": 361472,
          "time": 529.5,
          "velocity": 0.8267716535433071
        },
        {
          "duration": 0.375,
          "durationTicks": 256,
          "midi": 79,
          "name": "G5",
          "ticks": 361472,
          "time": 529.5,
          "velocity": 0.8267716535433071
        },
        {
          "duration": 0.1875,
          "durationTicks": 128,
          "midi": 71,
          "name": "B4",
          "ticks": 363520,
          "time": 532.5,
          "velocity": 0.6771653543307087
        },
        {
          "duration": 0.1875,
          "durationTicks": 128,
          "midi": 74,
          "name": "D5",
          "ticks": 363520,
          "time": 532.5,
          "velocity": 0.6771653543307087
        },
        {
          "duration": 0.1875,
          "durationTicks": 128,
          "midi": 72,
          "name": "C5",
          "ticks": 364032,
          "time": 533.25,
          "velocity": 0.6929133858267716
        },
        {
          "duration": 0.1875,
          "durationTicks": 128,
          "midi": 75,
          "name": "D#5",
          "ticks": 364032,
          "time": 533.25,
          "velocity": 0.6929133858267716
        },
        {
          "duration": 0.1875,
          "durationTicks": 128,
          "midi": 74,
          "name": "D5",
          "ticks": 364544,
          "time": 534,
          "velocity": 0.7007874015748031
        },
        {
          "duration": 0.1875,
          "durationTicks": 128,
          "midi": 78,
          "name": "F#5",
          "ticks": 364544,
          "time": 534,
          "velocity": 0.7007874015748031
        },
        {
          "duration": 0.1875,
          "durationTicks": 128,
          "midi": 74,
          "name": "D5",
          "ticks": 365056,
          "time": 534.75,
          "velocity": 0.6850393700787402
        },
        {
          "duration": 0.1875,
          "durationTicks": 128,
          "midi": 79,
          "name": "G5",
          "ticks": 365056,
          "time": 534.75,
          "velocity": 0.6850393700787402
        },
        {
          "duration": 3,
          "durationTicks": 2048,
          "midi": 79,
          "name": "G5",
          "ticks": 372736,
          "time": 546,
          "velocity": 0.6771653543307087
        },
        {
          "duration": 1.5,
          "durationTicks": 1024,
          "midi": 83,
          "name": "B5",
          "ticks": 372736,
          "time": 546,
          "velocity": 0.6771653543307087
        },
        {
          "duration": 1.5,
          "durationTicks": 1024,
          "midi": 84,
          "name": "C6",
          "ticks": 373760,
          "time": 547.5,
          "velocity": 0.7244094488188977
        },
        {
          "duration": 0.75,
          "durationTicks": 512,
          "midi": 79,
          "name": "G5",
          "ticks": 374784,
          "time": 549,
          "velocity": 0.7244094488188977
        },
        {
          "duration": 0.75,
          "durationTicks": 512,
          "midi": 82,
          "name": "A#5",
          "ticks": 374784,
          "time": 549,
          "velocity": 0.7244094488188977
        },
        {
          "duration": 0.75,
          "durationTicks": 512,
          "midi": 72,
          "name": "C5",
          "ticks": 375296,
          "time": 549.75,
          "velocity": 0.6929133858267716
        },
        {
          "duration": 0.75,
          "durationTicks": 512,
          "midi": 78,
          "name": "F#5",
          "ticks": 375296,
          "time": 549.75,
          "velocity": 0.6929133858267716
        },
        {
          "duration": 0.375,
          "durationTicks": 256,
          "midi": 70,
          "name": "A#4",
          "ticks": 375808,
          "time": 550.5,
          "velocity": 0.7637795275590551
        },
        {
          "duration": 0.375,
          "durationTicks": 256,
          "midi": 79,
          "name": "G5",
          "ticks": 375808,
          "time": 550.5,
          "velocity": 0.7637795275590551
        },
        {
          "duration": 3,
          "durationTicks": 2048,
          "midi": 79,
          "name": "G5",
          "ticks": 380928,
          "time": 558,
          "velocity": 0.7086614173228346
        },
        {
          "duration": 1.5,
          "durationTicks": 1024,
          "midi": 83,
          "name": "B5",
          "ticks": 380928,
          "time": 558,
          "velocity": 0.7086614173228346
        },
        {
          "duration": 1.5,
          "durationTicks": 1024,
          "midi": 84,
          "name": "C6",
          "ticks": 381952,
          "time": 559.5,
          "velocity": 0.7559055118110236
        },
        {
          "duration": 0.7646484375,
          "durationTicks": 522,
          "midi": 79,
          "name": "G5",
          "ticks": 382976,
          "time": 561,
          "velocity": 0.7322834645669292
        },
        {
          "duration": 0.7646484375,
          "durationTicks": 522,
          "midi": 82,
          "name": "A#5",
          "ticks": 382976,
          "time": 561,
          "velocity": 0.7322834645669292
        },
        {
          "duration": 0.7119140625,
          "durationTicks": 486,
          "midi": 72,
          "name": "C5",
          "ticks": 383488,
          "time": 561.75,
          "velocity": 0.6299212598425197
        },
        {
          "duration": 0.7119140625,
          "durationTicks": 486,
          "midi": 78,
          "name": "F#5",
          "ticks": 383488,
          "time": 561.75,
          "velocity": 0.6299212598425197
        },
        {
          "duration": 0.75,
          "durationTicks": 512,
          "midi": 70,
          "name": "A#4",
          "ticks": 384000,
          "time": 562.5,
          "velocity": 0.8031496062992126
        },
        {
          "duration": 0.75,
          "durationTicks": 512,
          "midi": 79,
          "name": "G5",
          "ticks": 384000,
          "time": 562.5,
          "velocity": 0.8031496062992126
        },
        {
          "duration": 0.1875,
          "durationTicks": 128,
          "midi": 74,
          "name": "D5",
          "ticks": 384896,
          "time": 563.8125,
          "velocity": 0.6692913385826772
        },
        {
          "duration": 0.1875,
          "durationTicks": 128,
          "midi": 72,
          "name": "C5",
          "ticks": 385024,
          "time": 564,
          "velocity": 0.7086614173228346
        },
        {
          "duration": 0.1875,
          "durationTicks": 128,
          "midi": 70,
          "name": "A#4",
          "ticks": 385152,
          "time": 564.1875,
          "velocity": 0.6614173228346457
        },
        {
          "duration": 0.1875,
          "durationTicks": 128,
          "midi": 69,
          "name": "A4",
          "ticks": 385280,
          "time": 564.375,
          "velocity": 0.7165354330708661
        },
        {
          "duration": 0.1875,
          "durationTicks": 128,
          "midi": 67,
          "name": "G4",
          "ticks": 385408,
          "time": 564.5625,
          "velocity": 0.6614173228346457
        },
        {
          "duration": 0.1875,
          "durationTicks": 128,
          "midi": 66,
          "name": "F#4",
          "ticks": 385536,
          "time": 564.75,
          "velocity": 0.7086614173228346
        },
        {
          "duration": 0.1875,
          "durationTicks": 128,
          "midi": 75,
          "name": "D#5",
          "ticks": 385664,
          "time": 564.9375,
          "velocity": 0.9212598425196851
        },
        {
          "duration": 0.1875,
          "durationTicks": 128,
          "midi": 74,
          "name": "D5",
          "ticks": 385792,
          "time": 565.125,
          "velocity": 0.7716535433070866
        },
        {
          "duration": 0.1875,
          "durationTicks": 128,
          "midi": 72,
          "name": "C5",
          "ticks": 385920,
          "time": 565.3125,
          "velocity": 0.6929133858267716
        },
        {
          "duration": 0.375,
          "durationTicks": 256,
          "midi": 70,
          "name": "A#4",
          "ticks": 386048,
          "time": 565.5,
          "velocity": 0.7322834645669292
        },
        {
          "duration": 0.375,
          "durationTicks": 256,
          "midi": 74,
          "name": "D5",
          "ticks": 386304,
          "time": 565.875,
          "velocity": 0.952755905511811
        },
        {
          "duration": 0.375,
          "durationTicks": 256,
          "midi": 79,
          "name": "G5",
          "ticks": 386304,
          "time": 565.875,
          "velocity": 0.952755905511811
        },
        {
          "duration": 0.375,
          "durationTicks": 256,
          "midi": 72,
          "name": "C5",
          "ticks": 386560,
          "time": 566.25,
          "velocity": 0.8110236220472441
        },
        {
          "duration": 0.375,
          "durationTicks": 256,
          "midi": 79,
          "name": "G5",
          "ticks": 386560,
          "time": 566.25,
          "velocity": 0.8110236220472441
        },
        {
          "duration": 0.375,
          "durationTicks": 256,
          "midi": 69,
          "name": "A4",
          "ticks": 386816,
          "time": 566.625,
          "velocity": 0.5984251968503937
        },
        {
          "duration": 0.375,
          "durationTicks": 256,
          "midi": 72,
          "name": "C5",
          "ticks": 386816,
          "time": 566.625,
          "velocity": 0.5984251968503937
        },
        {
          "duration": 0.1875,
          "durationTicks": 128,
          "midi": 67,
          "name": "G4",
          "ticks": 387072,
          "time": 567,
          "velocity": 0.6771653543307087
        },
        {
          "duration": 0.1875,
          "durationTicks": 128,
          "midi": 70,
          "name": "A#4",
          "ticks": 387072,
          "time": 567,
          "velocity": 0.6771653543307087
        },
        {
          "duration": 0.1875,
          "durationTicks": 128,
          "midi": 74,
          "name": "D5",
          "ticks": 387200,
          "time": 567.1875,
          "velocity": 0.8503937007874016
        },
        {
          "duration": 0.1875,
          "durationTicks": 128,
          "midi": 82,
          "name": "A#5",
          "ticks": 387328,
          "time": 567.375,
          "velocity": 0.968503937007874
        },
        {
          "duration": 0.1875,
          "durationTicks": 128,
          "midi": 81,
          "name": "A5",
          "ticks": 387456,
          "time": 567.5625,
          "velocity": 0.7795275590551181
        },
        {
          "duration": 0.1875,
          "durationTicks": 128,
          "midi": 79,
          "name": "G5",
          "ticks": 387584,
          "time": 567.75,
          "velocity": 0.7007874015748031
        },
        {
          "duration": 0.1875,
          "durationTicks": 128,
          "midi": 77,
          "name": "F5",
          "ticks": 387712,
          "time": 567.9375,
          "velocity": 0.7401574803149606
        },
        {
          "duration": 0.1875,
          "durationTicks": 128,
          "midi": 75,
          "name": "D#5",
          "ticks": 387840,
          "time": 568.125,
          "velocity": 0.7401574803149606
        },
        {
          "duration": 0.1875,
          "durationTicks": 128,
          "midi": 74,
          "name": "D5",
          "ticks": 387968,
          "time": 568.3125,
          "velocity": 0.7007874015748031
        },
        {
          "duration": 0.1875,
          "durationTicks": 128,
          "midi": 73,
          "name": "C#5",
          "ticks": 388096,
          "time": 568.5,
          "velocity": 0.7559055118110236
        },
        {
          "duration": 0.1875,
          "durationTicks": 128,
          "midi": 76,
          "name": "E5",
          "ticks": 388224,
          "time": 568.6875,
          "velocity": 0.8503937007874016
        },
        {
          "duration": 0.1875,
          "durationTicks": 128,
          "midi": 81,
          "name": "A5",
          "ticks": 388352,
          "time": 568.875,
          "velocity": 0.8976377952755905
        },
        {
          "duration": 0.1875,
          "durationTicks": 128,
          "midi": 79,
          "name": "G5",
          "ticks": 388480,
          "time": 569.0625,
          "velocity": 0.7559055118110236
        },
        {
          "duration": 0.1875,
          "durationTicks": 128,
          "midi": 78,
          "name": "F#5",
          "ticks": 388608,
          "time": 569.25,
          "velocity": 0.6929133858267716
        },
        {
          "duration": 0.1875,
          "durationTicks": 128,
          "midi": 75,
          "name": "D#5",
          "ticks": 388736,
          "time": 569.4375,
          "velocity": 0.6850393700787402
        },
        {
          "duration": 0.1875,
          "durationTicks": 128,
          "midi": 74,
          "name": "D5",
          "ticks": 388864,
          "time": 569.625,
          "velocity": 0.7559055118110236
        },
        {
          "duration": 0.1875,
          "durationTicks": 128,
          "midi": 72,
          "name": "C5",
          "ticks": 388992,
          "time": 569.8125,
          "velocity": 0.7086614173228346
        },
        {
          "duration": 0.375,
          "durationTicks": 256,
          "midi": 70,
          "name": "A#4",
          "ticks": 389120,
          "time": 570,
          "velocity": 0.7401574803149606
        },
        {
          "duration": 0.7646484375,
          "durationTicks": 522,
          "midi": 67,
          "name": "G4",
          "ticks": 389376,
          "time": 570.375,
          "velocity": 0.905511811023622
        },
        {
          "duration": 0.7646484375,
          "durationTicks": 522,
          "midi": 79,
          "name": "G5",
          "ticks": 389376,
          "time": 570.375,
          "velocity": 0.905511811023622
        },
        {
          "duration": 0.7646484375,
          "durationTicks": 522,
          "midi": 68,
          "name": "G#4",
          "ticks": 389888,
          "time": 571.125,
          "velocity": 0.968503937007874
        },
        {
          "duration": 0.7646484375,
          "durationTicks": 522,
          "midi": 80,
          "name": "G#5",
          "ticks": 389888,
          "time": 571.125,
          "velocity": 0.968503937007874
        },
        {
          "duration": 0.7646484375,
          "durationTicks": 522,
          "midi": 69,
          "name": "A4",
          "ticks": 390400,
          "time": 571.875,
          "velocity": 0.8031496062992126
        },
        {
          "duration": 0.7646484375,
          "durationTicks": 522,
          "midi": 81,
          "name": "A5",
          "ticks": 390400,
          "time": 571.875,
          "velocity": 0.8031496062992126
        },
        {
          "duration": 0.7646484375,
          "durationTicks": 522,
          "midi": 70,
          "name": "A#4",
          "ticks": 390912,
          "time": 572.625,
          "velocity": 0.8503937007874016
        },
        {
          "duration": 0.7646484375,
          "durationTicks": 522,
          "midi": 82,
          "name": "A#5",
          "ticks": 390912,
          "time": 572.625,
          "velocity": 0.8503937007874016
        },
        {
          "duration": 0.7646484375,
          "durationTicks": 522,
          "midi": 71,
          "name": "B4",
          "ticks": 391424,
          "time": 573.375,
          "velocity": 0.8110236220472441
        },
        {
          "duration": 0.7646484375,
          "durationTicks": 522,
          "midi": 83,
          "name": "B5",
          "ticks": 391424,
          "time": 573.375,
          "velocity": 0.8110236220472441
        },
        {
          "duration": 0.7646484375,
          "durationTicks": 522,
          "midi": 72,
          "name": "C5",
          "ticks": 391936,
          "time": 574.125,
          "velocity": 0.8582677165354331
        },
        {
          "duration": 0.7646484375,
          "durationTicks": 522,
          "midi": 84,
          "name": "C6",
          "ticks": 391936,
          "time": 574.125,
          "velocity": 0.8582677165354331
        },
        {
          "duration": 0.7119140625,
          "durationTicks": 486,
          "midi": 73,
          "name": "C#5",
          "ticks": 392448,
          "time": 574.875,
          "velocity": 0.8110236220472441
        },
        {
          "duration": 0.7119140625,
          "durationTicks": 486,
          "midi": 85,
          "name": "C#6",
          "ticks": 392448,
          "time": 574.875,
          "velocity": 0.8110236220472441
        },
        {
          "duration": 0.375,
          "durationTicks": 256,
          "midi": 79,
          "name": "G5",
          "ticks": 401408,
          "time": 588,
          "velocity": 0.7244094488188977
        },
        {
          "duration": 0.375,
          "durationTicks": 256,
          "midi": 82,
          "name": "A#5",
          "ticks": 401408,
          "time": 588,
          "velocity": 0.7244094488188977
        },
        {
          "duration": 0.1875,
          "durationTicks": 128,
          "midi": 79,
          "name": "G5",
          "ticks": 401664,
          "time": 588.375,
          "velocity": 0.7401574803149606
        },
        {
          "duration": 0.1875,
          "durationTicks": 128,
          "midi": 82,
          "name": "A#5",
          "ticks": 401664,
          "time": 588.375,
          "velocity": 0.7401574803149606
        },
        {
          "duration": 0.1875,
          "durationTicks": 128,
          "midi": 79,
          "name": "G5",
          "ticks": 401792,
          "time": 588.5625,
          "velocity": 0.7952755905511811
        },
        {
          "duration": 0.1875,
          "durationTicks": 128,
          "midi": 82,
          "name": "A#5",
          "ticks": 401792,
          "time": 588.5625,
          "velocity": 0.7952755905511811
        },
        {
          "duration": 0.375,
          "durationTicks": 256,
          "midi": 78,
          "name": "F#5",
          "ticks": 401920,
          "time": 588.75,
          "velocity": 0.7401574803149606
        },
        {
          "duration": 0.375,
          "durationTicks": 256,
          "midi": 81,
          "name": "A5",
          "ticks": 401920,
          "time": 588.75,
          "velocity": 0.7401574803149606
        },
        {
          "duration": 0.1875,
          "durationTicks": 128,
          "midi": 78,
          "name": "F#5",
          "ticks": 402176,
          "time": 589.125,
          "velocity": 0.7795275590551181
        },
        {
          "duration": 0.1875,
          "durationTicks": 128,
          "midi": 81,
          "name": "A5",
          "ticks": 402176,
          "time": 589.125,
          "velocity": 0.7795275590551181
        },
        {
          "duration": 0.1875,
          "durationTicks": 128,
          "midi": 78,
          "name": "F#5",
          "ticks": 402304,
          "time": 589.3125,
          "velocity": 0.7716535433070866
        },
        {
          "duration": 0.1875,
          "durationTicks": 128,
          "midi": 81,
          "name": "A5",
          "ticks": 402304,
          "time": 589.3125,
          "velocity": 0.7716535433070866
        },
        {
          "duration": 0.375,
          "durationTicks": 256,
          "midi": 79,
          "name": "G5",
          "ticks": 402432,
          "time": 589.5,
          "velocity": 0.84251968503937
        },
        {
          "duration": 0.375,
          "durationTicks": 256,
          "midi": 82,
          "name": "A#5",
          "ticks": 402432,
          "time": 589.5,
          "velocity": 0.84251968503937
        },
        {
          "duration": 0.1875,
          "durationTicks": 128,
          "midi": 79,
          "name": "G5",
          "ticks": 402688,
          "time": 589.875,
          "velocity": 0.7874015748031497
        },
        {
          "duration": 0.1875,
          "durationTicks": 128,
          "midi": 82,
          "name": "A#5",
          "ticks": 402688,
          "time": 589.875,
          "velocity": 0.7874015748031497
        },
        {
          "duration": 0.1875,
          "durationTicks": 128,
          "midi": 79,
          "name": "G5",
          "ticks": 402816,
          "time": 590.0625,
          "velocity": 0.7637795275590551
        },
        {
          "duration": 0.1875,
          "durationTicks": 128,
          "midi": 82,
          "name": "A#5",
          "ticks": 402816,
          "time": 590.0625,
          "velocity": 0.7637795275590551
        },
        {
          "duration": 0.375,
          "durationTicks": 256,
          "midi": 78,
          "name": "F#5",
          "ticks": 402944,
          "time": 590.25,
          "velocity": 0.7480314960629921
        },
        {
          "duration": 0.375,
          "durationTicks": 256,
          "midi": 81,
          "name": "A5",
          "ticks": 402944,
          "time": 590.25,
          "velocity": 0.7480314960629921
        },
        {
          "duration": 0.1875,
          "durationTicks": 128,
          "midi": 78,
          "name": "F#5",
          "ticks": 403200,
          "time": 590.625,
          "velocity": 0.7874015748031497
        },
        {
          "duration": 0.1875,
          "durationTicks": 128,
          "midi": 81,
          "name": "A5",
          "ticks": 403200,
          "time": 590.625,
          "velocity": 0.7874015748031497
        },
        {
          "duration": 0.1875,
          "durationTicks": 128,
          "midi": 78,
          "name": "F#5",
          "ticks": 403328,
          "time": 590.8125,
          "velocity": 0.7637795275590551
        },
        {
          "duration": 0.1875,
          "durationTicks": 128,
          "midi": 81,
          "name": "A5",
          "ticks": 403328,
          "time": 590.8125,
          "velocity": 0.7637795275590551
        },
        {
          "duration": 0.375,
          "durationTicks": 256,
          "midi": 79,
          "name": "G5",
          "ticks": 403456,
          "time": 591,
          "velocity": 0.7874015748031497
        },
        {
          "duration": 0.375,
          "durationTicks": 256,
          "midi": 82,
          "name": "A#5",
          "ticks": 403456,
          "time": 591,
          "velocity": 0.7874015748031497
        },
        {
          "duration": 0.1875,
          "durationTicks": 128,
          "midi": 79,
          "name": "G5",
          "ticks": 403712,
          "time": 591.375,
          "velocity": 0.7637795275590551
        },
        {
          "duration": 0.1875,
          "durationTicks": 128,
          "midi": 82,
          "name": "A#5",
          "ticks": 403712,
          "time": 591.375,
          "velocity": 0.7637795275590551
        },
        {
          "duration": 0.1875,
          "durationTicks": 128,
          "midi": 79,
          "name": "G5",
          "ticks": 403840,
          "time": 591.5625,
          "velocity": 0.7795275590551181
        },
        {
          "duration": 0.1875,
          "durationTicks": 128,
          "midi": 82,
          "name": "A#5",
          "ticks": 403840,
          "time": 591.5625,
          "velocity": 0.7795275590551181
        },
        {
          "duration": 0.375,
          "durationTicks": 256,
          "midi": 78,
          "name": "F#5",
          "ticks": 403968,
          "time": 591.75,
          "velocity": 0.7322834645669292
        },
        {
          "duration": 0.375,
          "durationTicks": 256,
          "midi": 81,
          "name": "A5",
          "ticks": 403968,
          "time": 591.75,
          "velocity": 0.7322834645669292
        },
        {
          "duration": 0.1875,
          "durationTicks": 128,
          "midi": 78,
          "name": "F#5",
          "ticks": 404224,
          "time": 592.125,
          "velocity": 0.7716535433070866
        },
        {
          "duration": 0.1875,
          "durationTicks": 128,
          "midi": 81,
          "name": "A5",
          "ticks": 404224,
          "time": 592.125,
          "velocity": 0.7716535433070866
        },
        {
          "duration": 0.1875,
          "durationTicks": 128,
          "midi": 78,
          "name": "F#5",
          "ticks": 404352,
          "time": 592.3125,
          "velocity": 0.7401574803149606
        },
        {
          "duration": 0.1875,
          "durationTicks": 128,
          "midi": 81,
          "name": "A5",
          "ticks": 404352,
          "time": 592.3125,
          "velocity": 0.7401574803149606
        },
        {
          "duration": 0.375,
          "durationTicks": 256,
          "midi": 79,
          "name": "G5",
          "ticks": 404480,
          "time": 592.5,
          "velocity": 0.8267716535433071
        },
        {
          "duration": 0.375,
          "durationTicks": 256,
          "midi": 82,
          "name": "A#5",
          "ticks": 404480,
          "time": 592.5,
          "velocity": 0.8267716535433071
        },
        {
          "duration": 0.375,
          "durationTicks": 256,
          "midi": 78,
          "name": "F#5",
          "ticks": 404736,
          "time": 592.875,
          "velocity": 0.7480314960629921
        },
        {
          "duration": 0.375,
          "durationTicks": 256,
          "midi": 81,
          "name": "A5",
          "ticks": 404736,
          "time": 592.875,
          "velocity": 0.7480314960629921
        },
        {
          "duration": 0.375,
          "durationTicks": 256,
          "midi": 79,
          "name": "G5",
          "ticks": 404992,
          "time": 593.25,
          "velocity": 0.8110236220472441
        },
        {
          "duration": 0.375,
          "durationTicks": 256,
          "midi": 82,
          "name": "A#5",
          "ticks": 404992,
          "time": 593.25,
          "velocity": 0.8110236220472441
        },
        {
          "duration": 0.375,
          "durationTicks": 256,
          "midi": 78,
          "name": "F#5",
          "ticks": 405248,
          "time": 593.625,
          "velocity": 0.7165354330708661
        },
        {
          "duration": 0.375,
          "durationTicks": 256,
          "midi": 81,
          "name": "A5",
          "ticks": 405248,
          "time": 593.625,
          "velocity": 0.7165354330708661
        },
        {
          "duration": 0.375,
          "durationTicks": 256,
          "midi": 79,
          "name": "G5",
          "ticks": 405504,
          "time": 594,
          "velocity": 0.8031496062992126
        },
        {
          "duration": 0.375,
          "durationTicks": 256,
          "midi": 82,
          "name": "A#5",
          "ticks": 405504,
          "time": 594,
          "velocity": 0.8031496062992126
        },
        {
          "duration": 0.375,
          "durationTicks": 256,
          "midi": 79,
          "name": "G5",
          "ticks": 406528,
          "time": 595.5,
          "velocity": 0.6692913385826772
        },
        {
          "duration": 0.375,
          "durationTicks": 256,
          "midi": 82,
          "name": "A#5",
          "ticks": 406528,
          "time": 595.5,
          "velocity": 0.6692913385826772
        },
        {
          "duration": 0.375,
          "durationTicks": 256,
          "midi": 79,
          "name": "G5",
          "ticks": 407040,
          "time": 596.25,
          "velocity": 0.6771653543307087
        },
        {
          "duration": 0.375,
          "durationTicks": 256,
          "midi": 82,
          "name": "A#5",
          "ticks": 407040,
          "time": 596.25,
          "velocity": 0.6771653543307087
        },
        {
          "duration": 0.75,
          "durationTicks": 512,
          "midi": 79,
          "name": "G5",
          "ticks": 407552,
          "time": 597,
          "velocity": 0.7007874015748031
        },
        {
          "duration": 0.75,
          "durationTicks": 512,
          "midi": 82,
          "name": "A#5",
          "ticks": 407552,
          "time": 597,
          "velocity": 0.7007874015748031
        }
      ],
      "endOfTrackTicks": 408065
    },
    {
      "channel": 2,
      "controlChanges": {
        "7": [
          {
            "number": 7,
            "ticks": 0,
            "time": 0,
            "value": 0.5905511811023622
          }
        ],
        "10": [
          {
            "number": 10,
            "ticks": 0,
            "time": 0,
            "value": 0.47244094488188976
          }
        ],
        "64": [
          {
            "number": 64,
            "ticks": 0,
            "time": 0,
            "value": 0
          }
        ],
        "91": [
          {
            "number": 91,
            "ticks": 0,
            "time": 0,
            "value": 0.44881889763779526
          }
        ],
        "121": [
          {
            "number": 121,
            "ticks": 0,
            "time": 0,
            "value": 0
          }
        ]
      },
      "pitchBends": [],
      "instrument": {
        "family": "reed",
        "number": 71,
        "name": "clarinet"
      },
      "name": "Clarinet in Bb",
      "notes": [
        {
          "duration": 0.38232421875,
          "durationTicks": 261,
          "midi": 66,
          "name": "F#4",
          "ticks": 13568,
          "time": 19.875,
          "velocity": 0.4645669291338583
        },
        {
          "duration": 0.38232421875,
          "durationTicks": 261,
          "midi": 67,
          "name": "G4",
          "ticks": 13824,
          "time": 20.25,
          "velocity": 0.4881889763779528
        },
        {
          "duration": 0.38232421875,
          "durationTicks": 261,
          "midi": 69,
          "name": "A4",
          "ticks": 14080,
          "time": 20.625,
          "velocity": 0.5196850393700787
        },
        {
          "duration": 0.38232421875,
          "durationTicks": 261,
          "midi": 70,
          "name": "A#4",
          "ticks": 14336,
          "time": 21,
          "velocity": 0.5354330708661418
        },
        {
          "duration": 0.1904296875,
          "durationTicks": 130,
          "midi": 72,
          "name": "C5",
          "ticks": 14592,
          "time": 21.375,
          "velocity": 0.5433070866141733
        },
        {
          "duration": 0.1904296875,
          "durationTicks": 130,
          "midi": 70,
          "name": "A#4",
          "ticks": 14720,
          "time": 21.5625,
          "velocity": 0.49606299212598426
        },
        {
          "duration": 0.38232421875,
          "durationTicks": 261,
          "midi": 69,
          "name": "A4",
          "ticks": 14848,
          "time": 21.75,
          "velocity": 0.48031496062992124
        },
        {
          "duration": 0.38232421875,
          "durationTicks": 261,
          "midi": 67,
          "name": "G4",
          "ticks": 15104,
          "time": 22.125,
          "velocity": 0.41732283464566927
        },
        {
          "duration": 0.35595703125,
          "durationTicks": 243,
          "midi": 66,
          "name": "F#4",
          "ticks": 15360,
          "time": 22.5,
          "velocity": 0.4566929133858268
        },
        {
          "duration": 0.7646484375,
          "durationTicks": 522,
          "midi": 73,
          "name": "C#5",
          "ticks": 15872,
          "time": 23.25,
          "velocity": 0.7165354330708661
        },
        {
          "duration": 0.7646484375,
          "durationTicks": 522,
          "midi": 76,
          "name": "E5",
          "ticks": 15872,
          "time": 23.25,
          "velocity": 0.7165354330708661
        },
        {
          "duration": 0.35595703125,
          "durationTicks": 243,
          "midi": 74,
          "name": "D5",
          "ticks": 16384,
          "time": 24,
          "velocity": 0.7401574803149606
        },
        {
          "duration": 0.35595703125,
          "durationTicks": 243,
          "midi": 78,
          "name": "F#5",
          "ticks": 16384,
          "time": 24,
          "velocity": 0.7401574803149606
        },
        {
          "duration": 0.7646484375,
          "durationTicks": 522,
          "midi": 73,
          "name": "C#5",
          "ticks": 16896,
          "time": 24.75,
          "velocity": 0.7007874015748031
        },
        {
          "duration": 0.7646484375,
          "durationTicks": 522,
          "midi": 76,
          "name": "E5",
          "ticks": 16896,
          "time": 24.75,
          "velocity": 0.7007874015748031
        },
        {
          "duration": 0.35595703125,
          "durationTicks": 243,
          "midi": 74,
          "name": "D5",
          "ticks": 17408,
          "time": 25.5,
          "velocity": 0.7244094488188977
        },
        {
          "duration": 0.35595703125,
          "durationTicks": 243,
          "midi": 78,
          "name": "F#5",
          "ticks": 17408,
          "time": 25.5,
          "velocity": 0.7244094488188977
        },
        {
          "duration": 0.7646484375,
          "durationTicks": 522,
          "midi": 73,
          "name": "C#5",
          "ticks": 17920,
          "time": 26.25,
          "velocity": 0.6850393700787402
        },
        {
          "duration": 0.7646484375,
          "durationTicks": 522,
          "midi": 76,
          "name": "E5",
          "ticks": 17920,
          "time": 26.25,
          "velocity": 0.6850393700787402
        },
        {
          "duration": 0.35595703125,
          "durationTicks": 243,
          "midi": 74,
          "name": "D5",
          "ticks": 18432,
          "time": 27,
          "velocity": 0.7086614173228346
        },
        {
          "duration": 0.35595703125,
          "durationTicks": 243,
          "midi": 78,
          "name": "F#5",
          "ticks": 18432,
          "time": 27,
          "velocity": 0.7086614173228346
        },
        {
          "duration": 0.1875,
          "durationTicks": 128,
          "midi": 73,
          "name": "C#5",
          "ticks": 18688,
          "time": 27.375,
          "velocity": 0.7637795275590551
        },
        {
          "duration": 0.1875,
          "durationTicks": 128,
          "midi": 76,
          "name": "E5",
          "ticks": 18688,
          "time": 27.375,
          "velocity": 0.7637795275590551
        },
        {
          "duration": 0.1875,
          "durationTicks": 128,
          "midi": 74,
          "name": "D5",
          "ticks": 18944,
          "time": 27.75,
          "velocity": 0.8110236220472441
        },
        {
          "duration": 0.1875,
          "durationTicks": 128,
          "midi": 78,
          "name": "F#5",
          "ticks": 18944,
          "time": 27.75,
          "velocity": 0.8110236220472441
        },
        {
          "duration": 0.1875,
          "durationTicks": 128,
          "midi": 73,
          "name": "C#5",
          "ticks": 19200,
          "time": 28.125,
          "velocity": 0.7559055118110236
        },
        {
          "duration": 0.1875,
          "durationTicks": 128,
          "midi": 76,
          "name": "E5",
          "ticks": 19200,
          "time": 28.125,
          "velocity": 0.7559055118110236
        },
        {
          "duration": 0.75,
          "durationTicks": 512,
          "midi": 74,
          "name": "D5",
          "ticks": 19456,
          "time": 28.5,
          "velocity": 0.8503937007874016
        },
        {
          "duration": 0.75,
          "durationTicks": 512,
          "midi": 78,
          "name": "F#5",
          "ticks": 19456,
          "time": 28.5,
          "velocity": 0.8503937007874016
        },
        {
          "duration": 1.5,
          "durationTicks": 1024,
          "midi": 70,
          "name": "A#4",
          "ticks": 27648,
          "time": 40.5,
          "velocity": 0.6771653543307087
        },
        {
          "duration": 1.5,
          "durationTicks": 1024,
          "midi": 65,
          "name": "F4",
          "ticks": 28672,
          "time": 42,
          "velocity": 0.6377952755905512
        },
        {
          "duration": 1.5,
          "durationTicks": 1024,
          "midi": 75,
          "name": "D#5",
          "ticks": 29696,
          "time": 43.5,
          "velocity": 0.9448818897637795
        },
        {
          "duration": 1.5,
          "durationTicks": 1024,
          "midi": 74,
          "name": "D5",
          "ticks": 30720,
          "time": 45,
          "velocity": 0.7480314960629921
        },
        {
          "duration": 1.5,
          "durationTicks": 1024,
          "midi": 72,
          "name": "C5",
          "ticks": 31744,
          "time": 46.5,
          "velocity": 0.6771653543307087
        },
        {
          "duration": 1.5,
          "durationTicks": 1024,
          "midi": 70,
          "name": "A#4",
          "ticks": 32768,
          "time": 48,
          "velocity": 0.7165354330708661
        },
        {
          "duration": 1.5,
          "durationTicks": 1024,
          "midi": 70,
          "name": "A#4",
          "ticks": 33792,
          "time": 49.5,
          "velocity": 0.7637795275590551
        },
        {
          "duration": 1.3125,
          "durationTicks": 896,
          "midi": 76,
          "name": "E5",
          "ticks": 34816,
          "time": 51,
          "velocity": 0.9133858267716536
        },
        {
          "duration": 1.5,
          "durationTicks": 1024,
          "midi": 70,
          "name": "A#4",
          "ticks": 34816,
          "time": 51,
          "velocity": 0.7874015748031497
        },
        {
          "duration": 0.1875,
          "durationTicks": 128,
          "midi": 77,
          "name": "F5",
          "ticks": 35712,
          "time": 52.3125,
          "velocity": 0.8110236220472441
        },
        {
          "duration": 1.3125,
          "durationTicks": 896,
          "midi": 76,
          "name": "E5",
          "ticks": 35840,
          "time": 52.5,
          "velocity": 0.7559055118110236
        },
        {
          "duration": 1.5,
          "durationTicks": 1024,
          "midi": 70,
          "name": "A#4",
          "ticks": 35840,
          "time": 52.5,
          "velocity": 0.7322834645669292
        },
        {
          "duration": 0.1875,
          "durationTicks": 128,
          "midi": 77,
          "name": "F5",
          "ticks": 36736,
          "time": 53.8125,
          "velocity": 0.8582677165354331
        },
        {
          "duration": 1.3125,
          "durationTicks": 896,
          "midi": 76,
          "name": "E5",
          "ticks": 36864,
          "time": 54,
          "velocity": 0.7322834645669292
        },
        {
          "duration": 1.5,
          "durationTicks": 1024,
          "midi": 70,
          "name": "A#4",
          "ticks": 36864,
          "time": 54,
          "velocity": 0.7559055118110236
        },
        {
          "duration": 0.1875,
          "durationTicks": 128,
          "midi": 77,
          "name": "F5",
          "ticks": 37760,
          "time": 55.3125,
          "velocity": 0.8267716535433071
        },
        {
          "duration": 0.75,
          "durationTicks": 512,
          "midi": 69,
          "name": "A4",
          "ticks": 37888,
          "time": 55.5,
          "velocity": 0.7637795275590551
        },
        {
          "duration": 0.75,
          "durationTicks": 512,
          "midi": 77,
          "name": "F5",
          "ticks": 37888,
          "time": 55.5,
          "velocity": 0.7637795275590551
        },
        {
          "duration": 0.75,
          "durationTicks": 512,
          "midi": 72,
          "name": "C5",
          "ticks": 38400,
          "time": 56.25,
          "velocity": 0.7086614173228346
        },
        {
          "duration": 0.75,
          "durationTicks": 512,
          "midi": 75,
          "name": "D#5",
          "ticks": 38400,
          "time": 56.25,
          "velocity": 0.7086614173228346
        },
        {
          "duration": 1.5,
          "durationTicks": 1024,
          "midi": 70,
          "name": "A#4",
          "ticks": 38912,
          "time": 57,
          "velocity": 0.7244094488188977
        },
        {
          "duration": 1.5,
          "durationTicks": 1024,
          "midi": 73,
          "name": "C#5",
          "ticks": 38912,
          "time": 57,
          "velocity": 0.7244094488188977
        },
        {
          "duration": 0.75,
          "durationTicks": 512,
          "midi": 69,
          "name": "A4",
          "ticks": 39936,
          "time": 58.5,
          "velocity": 0.7244094488188977
        },
        {
          "duration": 0.75,
          "durationTicks": 512,
          "midi": 72,
          "name": "C5",
          "ticks": 39936,
          "time": 58.5,
          "velocity": 0.7244094488188977
        },
        {
          "duration": 0.75,
          "durationTicks": 512,
          "midi": 72,
          "name": "C5",
          "ticks": 40448,
          "time": 59.25,
          "velocity": 0.7952755905511811
        },
        {
          "duration": 0.75,
          "durationTicks": 512,
          "midi": 75,
          "name": "D#5",
          "ticks": 40448,
          "time": 59.25,
          "velocity": 0.7952755905511811
        },
        {
          "duration": 0.75,
          "durationTicks": 512,
          "midi": 70,
          "name": "A#4",
          "ticks": 40960,
          "time": 60,
          "velocity": 0.7795275590551181
        },
        {
          "duration": 0.75,
          "durationTicks": 512,
          "midi": 73,
          "name": "C#5",
          "ticks": 40960,
          "time": 60,
          "velocity": 0.7795275590551181
        },
        {
          "duration": 0.75,
          "durationTicks": 512,
          "midi": 73,
          "name": "C#5",
          "ticks": 41472,
          "time": 60.75,
          "velocity": 0.8031496062992126
        },
        {
          "duration": 0.75,
          "durationTicks": 512,
          "midi": 76,
          "name": "E5",
          "ticks": 41472,
          "time": 60.75,
          "velocity": 0.8031496062992126
        },
        {
          "duration": 0.375,
          "durationTicks": 256,
          "midi": 72,
          "name": "C5",
          "ticks": 41984,
          "time": 61.5,
          "velocity": 0.8346456692913385
        },
        {
          "duration": 0.375,
          "durationTicks": 256,
          "midi": 77,
          "name": "F5",
          "ticks": 41984,
          "time": 61.5,
          "velocity": 0.8346456692913385
        },
        {
          "duration": 0.375,
          "durationTicks": 256,
          "midi": 69,
          "name": "A4",
          "ticks": 42496,
          "time": 62.25,
          "velocity": 0.6771653543307087
        },
        {
          "duration": 0.375,
          "durationTicks": 256,
          "midi": 72,
          "name": "C5",
          "ticks": 42496,
          "time": 62.25,
          "velocity": 0.6771653543307087
        },
        {
          "duration": 1.14697265625,
          "durationTicks": 783,
          "midi": 75,
          "name": "D#5",
          "ticks": 45056,
          "time": 66,
          "velocity": 0.4409448818897638
        },
        {
          "duration": 0.09521484375,
          "durationTicks": 65,
          "midi": 77,
          "name": "F5",
          "ticks": 45824,
          "time": 67.125,
          "velocity": 0.44881889763779526
        },
        {
          "duration": 0.09521484375,
          "durationTicks": 65,
          "midi": 75,
          "name": "D#5",
          "ticks": 45888,
          "time": 67.21875,
          "velocity": 0.4330708661417323
        },
        {
          "duration": 0.09521484375,
          "durationTicks": 65,
          "midi": 74,
          "name": "D5",
          "ticks": 45952,
          "time": 67.3125,
          "velocity": 0.4251968503937008
        },
        {
          "duration": 0.09521484375,
          "durationTicks": 65,
          "midi": 72,
          "name": "C5",
          "ticks": 46016,
          "time": 67.40625,
          "velocity": 0.4645669291338583
        },
        {
          "duration": 0.35595703125,
          "durationTicks": 243,
          "midi": 70,
          "name": "A#4",
          "ticks": 46080,
          "time": 67.5,
          "velocity": 0.4330708661417323
        },
        {
          "duration": 0.1904296875,
          "durationTicks": 130,
          "midi": 70,
          "name": "A#4",
          "ticks": 51200,
          "time": 75,
          "velocity": 0.4409448818897638
        },
        {
          "duration": 0.1904296875,
          "durationTicks": 130,
          "midi": 69,
          "name": "A4",
          "ticks": 51328,
          "time": 75.1875,
          "velocity": 0.4251968503937008
        },
        {
          "duration": 0.1904296875,
          "durationTicks": 130,
          "midi": 72,
          "name": "C5",
          "ticks": 51456,
          "time": 75.375,
          "velocity": 0.5275590551181102
        },
        {
          "duration": 0.1904296875,
          "durationTicks": 130,
          "midi": 70,
          "name": "A#4",
          "ticks": 51584,
          "time": 75.5625,
          "velocity": 0.5039370078740157
        },
        {
          "duration": 0.1904296875,
          "durationTicks": 130,
          "midi": 74,
          "name": "D5",
          "ticks": 51712,
          "time": 75.75,
          "velocity": 0.5433070866141733
        },
        {
          "duration": 0.1904296875,
          "durationTicks": 130,
          "midi": 72,
          "name": "C5",
          "ticks": 51840,
          "time": 75.9375,
          "velocity": 0.5118110236220472
        },
        {
          "duration": 0.1904296875,
          "durationTicks": 130,
          "midi": 75,
          "name": "D#5",
          "ticks": 51968,
          "time": 76.125,
          "velocity": 0.5196850393700787
        },
        {
          "duration": 0.17724609375,
          "durationTicks": 121,
          "midi": 74,
          "name": "D5",
          "ticks": 52096,
          "time": 76.3125,
          "velocity": 0.48031496062992124
        },
        {
          "duration": 1.14697265625,
          "durationTicks": 783,
          "midi": 77,
          "name": "F5",
          "ticks": 52224,
          "time": 76.5,
          "velocity": 0.5196850393700787
        },
        {
          "duration": 0.38232421875,
          "durationTicks": 261,
          "midi": 76,
          "name": "E5",
          "ticks": 52992,
          "time": 77.625,
          "velocity": 0.48031496062992124
        },
        {
          "duration": 0.35595703125,
          "durationTicks": 243,
          "midi": 75,
          "name": "D#5",
          "ticks": 53248,
          "time": 78,
          "velocity": 0.4645669291338583
        },
        {
          "duration": 0.1875,
          "durationTicks": 128,
          "midi": 70,
          "name": "A#4",
          "ticks": 54528,
          "time": 79.875,
          "velocity": 0.4094488188976378
        },
        {
          "duration": 1.24658203125,
          "durationTicks": 851,
          "midi": 70,
          "name": "A#4",
          "ticks": 54784,
          "time": 80.25,
          "velocity": 0.47244094488188976
        },
        {
          "duration": 0.35595703125,
          "durationTicks": 243,
          "midi": 72,
          "name": "C5",
          "ticks": 55040,
          "time": 80.625,
          "velocity": 0.49606299212598426
        },
        {
          "duration": 0.57275390625,
          "durationTicks": 391,
          "midi": 74,
          "name": "D5",
          "ticks": 55296,
          "time": 81,
          "velocity": 0.48031496062992124
        },
        {
          "duration": 0.17724609375,
          "durationTicks": 121,
          "midi": 75,
          "name": "D#5",
          "ticks": 55680,
          "time": 81.5625,
          "velocity": 0.5118110236220472
        },
        {
          "duration": 0.17724609375,
          "durationTicks": 121,
          "midi": 72,
          "name": "C5",
          "ticks": 55680,
          "time": 81.5625,
          "velocity": 0.5354330708661418
        },
        {
          "duration": 0.375,
          "durationTicks": 256,
          "midi": 72,
          "name": "C5",
          "ticks": 55808,
          "time": 81.75,
          "velocity": 0.47244094488188976
        },
        {
          "duration": 0.375,
          "durationTicks": 256,
          "midi": 69,
          "name": "A4",
          "ticks": 55808,
          "time": 81.75,
          "velocity": 0.4094488188976378
        },
        {
          "duration": 1.14697265625,
          "durationTicks": 783,
          "midi": 79,
          "name": "G5",
          "ticks": 56320,
          "time": 82.5,
          "velocity": 0.4409448818897638
        },
        {
          "duration": 0.38232421875,
          "durationTicks": 261,
          "midi": 78,
          "name": "F#5",
          "ticks": 57088,
          "time": 83.625,
          "velocity": 0.4094488188976378
        },
        {
          "duration": 0.38232421875,
          "durationTicks": 261,
          "midi": 77,
          "name": "F5",
          "ticks": 57344,
          "time": 84,
          "velocity": 0.4645669291338583
        },
        {
          "duration": 0.38232421875,
          "durationTicks": 261,
          "midi": 76,
          "name": "E5",
          "ticks": 57600,
          "time": 84.375,
          "velocity": 0.47244094488188976
        },
        {
          "duration": 0.38232421875,
          "durationTicks": 261,
          "midi": 75,
          "name": "D#5",
          "ticks": 57856,
          "time": 84.75,
          "velocity": 0.44881889763779526
        },
        {
          "duration": 0.35595703125,
          "durationTicks": 243,
          "midi": 74,
          "name": "D5",
          "ticks": 58112,
          "time": 85.125,
          "velocity": 0.4566929133858268
        },
        {
          "duration": 1.14697265625,
          "durationTicks": 783,
          "midi": 70,
          "name": "A#4",
          "ticks": 58368,
          "time": 85.5,
          "velocity": 0.44881889763779526
        },
        {
          "duration": 1.14697265625,
          "durationTicks": 783,
          "midi": 73,
          "name": "C#5",
          "ticks": 58368,
          "time": 85.5,
          "velocity": 0.44881889763779526
        },
        {
          "duration": 0.35595703125,
          "durationTicks": 243,
          "midi": 68,
          "name": "G#4",
          "ticks": 59136,
          "time": 86.625,
          "velocity": 0.4409448818897638
        },
        {
          "duration": 0.35595703125,
          "durationTicks": 243,
          "midi": 72,
          "name": "C5",
          "ticks": 59136,
          "time": 86.625,
          "velocity": 0.4409448818897638
        },
        {
          "duration": 1.14697265625,
          "durationTicks": 783,
          "midi": 70,
          "name": "A#4",
          "ticks": 59392,
          "time": 87,
          "velocity": 0.4881889763779528
        },
        {
          "duration": 1.14697265625,
          "durationTicks": 783,
          "midi": 73,
          "name": "C#5",
          "ticks": 59392,
          "time": 87,
          "velocity": 0.4881889763779528
        },
        {
          "duration": 0.35595703125,
          "durationTicks": 243,
          "midi": 68,
          "name": "G#4",
          "ticks": 60160,
          "time": 88.125,
          "velocity": 0.44881889763779526
        },
        {
          "duration": 0.35595703125,
          "durationTicks": 243,
          "midi": 72,
          "name": "C5",
          "ticks": 60160,
          "time": 88.125,
          "velocity": 0.44881889763779526
        },
        {
          "duration": 1.14697265625,
          "durationTicks": 783,
          "midi": 70,
          "name": "A#4",
          "ticks": 60416,
          "time": 88.5,
          "velocity": 0.48031496062992124
        },
        {
          "duration": 1.14697265625,
          "durationTicks": 783,
          "midi": 73,
          "name": "C#5",
          "ticks": 60416,
          "time": 88.5,
          "velocity": 0.48031496062992124
        },
        {
          "duration": 0.35595703125,
          "durationTicks": 243,
          "midi": 68,
          "name": "G#4",
          "ticks": 61184,
          "time": 89.625,
          "velocity": 0.44881889763779526
        },
        {
          "duration": 0.35595703125,
          "durationTicks": 243,
          "midi": 72,
          "name": "C5",
          "ticks": 61184,
          "time": 89.625,
          "velocity": 0.44881889763779526
        },
        {
          "duration": 1.14697265625,
          "durationTicks": 783,
          "midi": 70,
          "name": "A#4",
          "ticks": 61440,
          "time": 90,
          "velocity": 0.48031496062992124
        },
        {
          "duration": 1.14697265625,
          "durationTicks": 783,
          "midi": 73,
          "name": "C#5",
          "ticks": 61440,
          "time": 90,
          "velocity": 0.48031496062992124
        },
        {
          "duration": 0.35595703125,
          "durationTicks": 243,
          "midi": 68,
          "name": "G#4",
          "ticks": 62208,
          "time": 91.125,
          "velocity": 0.48031496062992124
        },
        {
          "duration": 0.35595703125,
          "durationTicks": 243,
          "midi": 72,
          "name": "C5",
          "ticks": 62208,
          "time": 91.125,
          "velocity": 0.48031496062992124
        },
        {
          "duration": 1.5,
          "durationTicks": 1024,
          "midi": 67,
          "name": "G4",
          "ticks": 62464,
          "time": 91.5,
          "velocity": 0.44881889763779526
        },
        {
          "duration": 1.5,
          "durationTicks": 1024,
          "midi": 70,
          "name": "A#4",
          "ticks": 62464,
          "time": 91.5,
          "velocity": 0.44881889763779526
        },
        {
          "duration": 1.5,
          "durationTicks": 1024,
          "midi": 70,
          "name": "A#4",
          "ticks": 63488,
          "time": 93,
          "velocity": 0.6299212598425197
        },
        {
          "duration": 1.5,
          "durationTicks": 1024,
          "midi": 73,
          "name": "C#5",
          "ticks": 63488,
          "time": 93,
          "velocity": 0.6299212598425197
        },
        {
          "duration": 1.5,
          "durationTicks": 1024,
          "midi": 70,
          "name": "A#4",
          "ticks": 64512,
          "time": 94.5,
          "velocity": 0.8346456692913385
        },
        {
          "duration": 1.5,
          "durationTicks": 1024,
          "midi": 74,
          "name": "D5",
          "ticks": 64512,
          "time": 94.5,
          "velocity": 0.8346456692913385
        },
        {
          "duration": 1.5,
          "durationTicks": 1024,
          "midi": 69,
          "name": "A4",
          "ticks": 65536,
          "time": 96,
          "velocity": 0.7165354330708661
        },
        {
          "duration": 1.5,
          "durationTicks": 1024,
          "midi": 72,
          "name": "C5",
          "ticks": 65536,
          "time": 96,
          "velocity": 0.7165354330708661
        },
        {
          "duration": 0.375,
          "durationTicks": 256,
          "midi": 70,
          "name": "A#4",
          "ticks": 66560,
          "time": 97.5,
          "velocity": 0.7165354330708661
        },
        {
          "duration": 0.1875,
          "durationTicks": 128,
          "midi": 62,
          "name": "D4",
          "ticks": 68608,
          "time": 100.5,
          "velocity": 0.7244094488188977
        },
        {
          "duration": 0.1875,
          "durationTicks": 128,
          "midi": 65,
          "name": "F4",
          "ticks": 68608,
          "time": 100.5,
          "velocity": 0.7244094488188977
        },
        {
          "duration": 0.1875,
          "durationTicks": 128,
          "midi": 63,
          "name": "D#4",
          "ticks": 69120,
          "time": 101.25,
          "velocity": 0.6535433070866141
        },
        {
          "duration": 0.1875,
          "durationTicks": 128,
          "midi": 67,
          "name": "G4",
          "ticks": 69120,
          "time": 101.25,
          "velocity": 0.6535433070866141
        },
        {
          "duration": 0.1875,
          "durationTicks": 128,
          "midi": 69,
          "name": "A4",
          "ticks": 69632,
          "time": 102,
          "velocity": 0.6771653543307087
        },
        {
          "duration": 0.1875,
          "durationTicks": 128,
          "midi": 72,
          "name": "C5",
          "ticks": 69632,
          "time": 102,
          "velocity": 0.6771653543307087
        },
        {
          "duration": 0.1875,
          "durationTicks": 128,
          "midi": 70,
          "name": "A#4",
          "ticks": 70144,
          "time": 102.75,
          "velocity": 0.6929133858267716
        },
        {
          "duration": 0.1875,
          "durationTicks": 128,
          "midi": 74,
          "name": "D5",
          "ticks": 70144,
          "time": 102.75,
          "velocity": 0.6929133858267716
        },
        {
          "duration": 0.1904296875,
          "durationTicks": 130,
          "midi": 79,
          "name": "G5",
          "ticks": 73472,
          "time": 107.625,
          "velocity": 0.4409448818897638
        },
        {
          "duration": 0.17724609375,
          "durationTicks": 121,
          "midi": 77,
          "name": "F5",
          "ticks": 73600,
          "time": 107.8125,
          "velocity": 0.4409448818897638
        },
        {
          "duration": 0.1875,
          "durationTicks": 128,
          "midi": 77,
          "name": "F5",
          "ticks": 73728,
          "time": 108,
          "velocity": 0.4645669291338583
        },
        {
          "duration": 0.1904296875,
          "durationTicks": 130,
          "midi": 79,
          "name": "G5",
          "ticks": 73984,
          "time": 108.375,
          "velocity": 0.5118110236220472
        },
        {
          "duration": 0.17724609375,
          "durationTicks": 121,
          "midi": 77,
          "name": "F5",
          "ticks": 74112,
          "time": 108.5625,
          "velocity": 0.5039370078740157
        },
        {
          "duration": 0.1875,
          "durationTicks": 128,
          "midi": 77,
          "name": "F5",
          "ticks": 74240,
          "time": 108.75,
          "velocity": 0.47244094488188976
        },
        {
          "duration": 0.1904296875,
          "durationTicks": 130,
          "midi": 79,
          "name": "G5",
          "ticks": 75520,
          "time": 110.625,
          "velocity": 0.4094488188976378
        },
        {
          "duration": 0.17724609375,
          "durationTicks": 121,
          "midi": 77,
          "name": "F5",
          "ticks": 75648,
          "time": 110.8125,
          "velocity": 0.33858267716535434
        },
        {
          "duration": 0.1875,
          "durationTicks": 128,
          "midi": 77,
          "name": "F5",
          "ticks": 75776,
          "time": 111,
          "velocity": 0.48031496062992124
        },
        {
          "duration": 0.1904296875,
          "durationTicks": 130,
          "midi": 79,
          "name": "G5",
          "ticks": 76032,
          "time": 111.375,
          "velocity": 0.49606299212598426
        },
        {
          "duration": 0.17724609375,
          "durationTicks": 121,
          "midi": 77,
          "name": "F5",
          "ticks": 76160,
          "time": 111.5625,
          "velocity": 0.4645669291338583
        },
        {
          "duration": 0.1875,
          "durationTicks": 128,
          "midi": 77,
          "name": "F5",
          "ticks": 76288,
          "time": 111.75,
          "velocity": 0.5118110236220472
        },
        {
          "duration": 1.5,
          "durationTicks": 1024,
          "midi": 72,
          "name": "C5",
          "ticks": 77824,
          "time": 114,
          "velocity": 0.6929133858267716
        },
        {
          "duration": 1.5,
          "durationTicks": 1024,
          "midi": 78,
          "name": "F#5",
          "ticks": 77824,
          "time": 114,
          "velocity": 0.6929133858267716
        },
        {
          "duration": 1.5,
          "durationTicks": 1024,
          "midi": 79,
          "name": "G5",
          "ticks": 78848,
          "time": 115.5,
          "velocity": 0.7795275590551181
        },
        {
          "duration": 0.75,
          "durationTicks": 512,
          "midi": 70,
          "name": "A#4",
          "ticks": 78848,
          "time": 115.5,
          "velocity": 0.7086614173228346
        },
        {
          "duration": 0.75,
          "durationTicks": 512,
          "midi": 75,
          "name": "D#5",
          "ticks": 79360,
          "time": 116.25,
          "velocity": 0.8661417322834646
        },
        {
          "duration": 0.5625,
          "durationTicks": 384,
          "midi": 74,
          "name": "D5",
          "ticks": 79872,
          "time": 117,
          "velocity": 0.6929133858267716
        },
        {
          "duration": 0.57275390625,
          "durationTicks": 391,
          "midi": 77,
          "name": "F5",
          "ticks": 79872,
          "time": 117,
          "velocity": 0.6929133858267716
        },
        {
          "duration": 0.17724609375,
          "durationTicks": 121,
          "midi": 70,
          "name": "A#4",
          "ticks": 80256,
          "time": 117.5625,
          "velocity": 0.6377952755905512
        },
        {
          "duration": 0.17724609375,
          "durationTicks": 121,
          "midi": 74,
          "name": "D5",
          "ticks": 80256,
          "time": 117.5625,
          "velocity": 0.6377952755905512
        },
        {
          "duration": 0.5625,
          "durationTicks": 384,
          "midi": 72,
          "name": "C5",
          "ticks": 80384,
          "time": 117.75,
          "velocity": 0.7716535433070866
        },
        {
          "duration": 0.57275390625,
          "durationTicks": 391,
          "midi": 75,
          "name": "D#5",
          "ticks": 80384,
          "time": 117.75,
          "velocity": 0.7716535433070866
        },
        {
          "duration": 0.17724609375,
          "durationTicks": 121,
          "midi": 69,
          "name": "A4",
          "ticks": 80768,
          "time": 118.3125,
          "velocity": 0.7086614173228346
        },
        {
          "duration": 0.17724609375,
          "durationTicks": 121,
          "midi": 72,
          "name": "C5",
          "ticks": 80768,
          "time": 118.3125,
          "velocity": 0.7086614173228346
        },
        {
          "duration": 0.375,
          "durationTicks": 256,
          "midi": 70,
          "name": "A#4",
          "ticks": 80896,
          "time": 118.5,
          "velocity": 0.7165354330708661
        },
        {
          "duration": 0.1904296875,
          "durationTicks": 130,
          "midi": 79,
          "name": "G5",
          "ticks": 82688,
          "time": 121.125,
          "velocity": 0.44881889763779526
        },
        {
          "duration": 0.17724609375,
          "durationTicks": 121,
          "midi": 77,
          "name": "F5",
          "ticks": 82816,
          "time": 121.3125,
          "velocity": 0.4015748031496063
        },
        {
          "duration": 0.1875,
          "durationTicks": 128,
          "midi": 77,
          "name": "F5",
          "ticks": 82944,
          "time": 121.5,
          "velocity": 0.48031496062992124
        },
        {
          "duration": 0.1904296875,
          "durationTicks": 130,
          "midi": 79,
          "name": "G5",
          "ticks": 83200,
          "time": 121.875,
          "velocity": 0.4881889763779528
        },
        {
          "duration": 0.17724609375,
          "durationTicks": 121,
          "midi": 77,
          "name": "F5",
          "ticks": 83328,
          "time": 122.0625,
          "velocity": 0.47244094488188976
        },
        {
          "duration": 0.1875,
          "durationTicks": 128,
          "midi": 77,
          "name": "F5",
          "ticks": 83456,
          "time": 122.25,
          "velocity": 0.47244094488188976
        },
        {
          "duration": 0.1904296875,
          "durationTicks": 130,
          "midi": 79,
          "name": "G5",
          "ticks": 84736,
          "time": 124.125,
          "velocity": 0.4330708661417323
        },
        {
          "duration": 0.17724609375,
          "durationTicks": 121,
          "midi": 77,
          "name": "F5",
          "ticks": 84864,
          "time": 124.3125,
          "velocity": 0.41732283464566927
        },
        {
          "duration": 0.1875,
          "durationTicks": 128,
          "midi": 77,
          "name": "F5",
          "ticks": 84992,
          "time": 124.5,
          "velocity": 0.4645669291338583
        },
        {
          "duration": 0.1904296875,
          "durationTicks": 130,
          "midi": 79,
          "name": "G5",
          "ticks": 85248,
          "time": 124.875,
          "velocity": 0.5039370078740157
        },
        {
          "duration": 0.17724609375,
          "durationTicks": 121,
          "midi": 77,
          "name": "F5",
          "ticks": 85376,
          "time": 125.0625,
          "velocity": 0.4645669291338583
        },
        {
          "duration": 0.1875,
          "durationTicks": 128,
          "midi": 77,
          "name": "F5",
          "ticks": 85504,
          "time": 125.25,
          "velocity": 0.48031496062992124
        },
        {
          "duration": 1.5,
          "durationTicks": 1024,
          "midi": 72,
          "name": "C5",
          "ticks": 86016,
          "time": 126,
          "velocity": 0.7322834645669292
        },
        {
          "duration": 1.5,
          "durationTicks": 1024,
          "midi": 78,
          "name": "F#5",
          "ticks": 86016,
          "time": 126,
          "velocity": 0.7322834645669292
        },
        {
          "duration": 0.75,
          "durationTicks": 512,
          "midi": 70,
          "name": "A#4",
          "ticks": 87040,
          "time": 127.5,
          "velocity": 0.6062992125984252
        },
        {
          "duration": 1.5,
          "durationTicks": 1024,
          "midi": 79,
          "name": "G5",
          "ticks": 87040,
          "time": 127.5,
          "velocity": 0.6850393700787402
        },
        {
          "duration": 0.75,
          "durationTicks": 512,
          "midi": 75,
          "name": "D#5",
          "ticks": 87552,
          "time": 128.25,
          "velocity": 0.8582677165354331
        },
        {
          "duration": 0.5625,
          "durationTicks": 384,
          "midi": 74,
          "name": "D5",
          "ticks": 88064,
          "time": 129,
          "velocity": 0.8503937007874016
        },
        {
          "duration": 0.57275390625,
          "durationTicks": 391,
          "midi": 77,
          "name": "F5",
          "ticks": 88064,
          "time": 129,
          "velocity": 0.8503937007874016
        },
        {
          "duration": 0.17724609375,
          "durationTicks": 121,
          "midi": 70,
          "name": "A#4",
          "ticks": 88448,
          "time": 129.5625,
          "velocity": 0.7952755905511811
        },
        {
          "duration": 0.17724609375,
          "durationTicks": 121,
          "midi": 74,
          "name": "D5",
          "ticks": 88448,
          "time": 129.5625,
          "velocity": 0.7952755905511811
        },
        {
          "duration": 0.5625,
          "durationTicks": 384,
          "midi": 72,
          "name": "C5",
          "ticks": 88576,
          "time": 129.75,
          "velocity": 0.8503937007874016
        },
        {
          "duration": 0.57275390625,
          "durationTicks": 391,
          "midi": 75,
          "name": "D#5",
          "ticks": 88576,
          "time": 129.75,
          "velocity": 0.8503937007874016
        },
        {
          "duration": 0.17724609375,
          "durationTicks": 121,
          "midi": 69,
          "name": "A4",
          "ticks": 88960,
          "time": 130.3125,
          "velocity": 0.7874015748031497
        },
        {
          "duration": 0.17724609375,
          "durationTicks": 121,
          "midi": 72,
          "name": "C5",
          "ticks": 88960,
          "time": 130.3125,
          "velocity": 0.7874015748031497
        },
        {
          "duration": 0.75,
          "durationTicks": 512,
          "midi": 70,
          "name": "A#4",
          "ticks": 89088,
          "time": 130.5,
          "velocity": 0.7322834645669292
        },
        {
          "duration": 0.1875,
          "durationTicks": 128,
          "midi": 77,
          "name": "F5",
          "ticks": 89984,
          "time": 131.8125,
          "velocity": 0.6929133858267716
        },
        {
          "duration": 0.1875,
          "durationTicks": 128,
          "midi": 75,
          "name": "D#5",
          "ticks": 90112,
          "time": 132,
          "velocity": 0.6850393700787402
        },
        {
          "duration": 0.1875,
          "durationTicks": 128,
          "midi": 74,
          "name": "D5",
          "ticks": 90240,
          "time": 132.1875,
          "velocity": 0.7244094488188977
        },
        {
          "duration": 0.1875,
          "durationTicks": 128,
          "midi": 72,
          "name": "C5",
          "ticks": 90368,
          "time": 132.375,
          "velocity": 0.7086614173228346
        },
        {
          "duration": 0.1875,
          "durationTicks": 128,
          "midi": 70,
          "name": "A#4",
          "ticks": 90496,
          "time": 132.5625,
          "velocity": 0.7480314960629921
        },
        {
          "duration": 0.1875,
          "durationTicks": 128,
          "midi": 69,
          "name": "A4",
          "ticks": 90624,
          "time": 132.75,
          "velocity": 0.7322834645669292
        },
        {
          "duration": 0.1875,
          "durationTicks": 128,
          "midi": 67,
          "name": "G4",
          "ticks": 90752,
          "time": 132.9375,
          "velocity": 0.7086614173228346
        },
        {
          "duration": 0.1875,
          "durationTicks": 128,
          "midi": 65,
          "name": "F4",
          "ticks": 90880,
          "time": 133.125,
          "velocity": 0.7322834645669292
        },
        {
          "duration": 0.1875,
          "durationTicks": 128,
          "midi": 63,
          "name": "D#4",
          "ticks": 91008,
          "time": 133.3125,
          "velocity": 0.6929133858267716
        },
        {
          "duration": 0.375,
          "durationTicks": 256,
          "midi": 62,
          "name": "D4",
          "ticks": 91136,
          "time": 133.5,
          "velocity": 0.7165354330708661
        },
        {
          "duration": 0.375,
          "durationTicks": 256,
          "midi": 77,
          "name": "F5",
          "ticks": 91392,
          "time": 133.875,
          "velocity": 0.968503937007874
        },
        {
          "duration": 0.75,
          "durationTicks": 512,
          "midi": 70,
          "name": "A#4",
          "ticks": 91392,
          "time": 133.875,
          "velocity": 0.8976377952755905
        },
        {
          "duration": 0.375,
          "durationTicks": 256,
          "midi": 79,
          "name": "G5",
          "ticks": 91648,
          "time": 134.25,
          "velocity": 0.8740157480314961
        },
        {
          "duration": 0.375,
          "durationTicks": 256,
          "midi": 72,
          "name": "C5",
          "ticks": 91904,
          "time": 134.625,
          "velocity": 0.6614173228346457
        },
        {
          "duration": 0.375,
          "durationTicks": 256,
          "midi": 69,
          "name": "A4",
          "ticks": 91904,
          "time": 134.625,
          "velocity": 0.7322834645669292
        },
        {
          "duration": 0.1875,
          "durationTicks": 128,
          "midi": 70,
          "name": "A#4",
          "ticks": 92160,
          "time": 135,
          "velocity": 0.7086614173228346
        },
        {
          "duration": 0.1875,
          "durationTicks": 128,
          "midi": 65,
          "name": "F4",
          "ticks": 92288,
          "time": 135.1875,
          "velocity": 0.6141732283464567
        },
        {
          "duration": 0.1875,
          "durationTicks": 128,
          "midi": 74,
          "name": "D5",
          "ticks": 92416,
          "time": 135.375,
          "velocity": 0.9133858267716536
        },
        {
          "duration": 0.1875,
          "durationTicks": 128,
          "midi": 72,
          "name": "C5",
          "ticks": 92544,
          "time": 135.5625,
          "velocity": 0.7007874015748031
        },
        {
          "duration": 0.1875,
          "durationTicks": 128,
          "midi": 70,
          "name": "A#4",
          "ticks": 92672,
          "time": 135.75,
          "velocity": 0.7165354330708661
        },
        {
          "duration": 0.1875,
          "durationTicks": 128,
          "midi": 69,
          "name": "A4",
          "ticks": 92800,
          "time": 135.9375,
          "velocity": 0.7401574803149606
        },
        {
          "duration": 0.1875,
          "durationTicks": 128,
          "midi": 67,
          "name": "G4",
          "ticks": 92928,
          "time": 136.125,
          "velocity": 0.7322834645669292
        },
        {
          "duration": 0.1875,
          "durationTicks": 128,
          "midi": 65,
          "name": "F4",
          "ticks": 93056,
          "time": 136.3125,
          "velocity": 0.6929133858267716
        },
        {
          "duration": 0.1875,
          "durationTicks": 128,
          "midi": 63,
          "name": "D#4",
          "ticks": 93184,
          "time": 136.5,
          "velocity": 0.7007874015748031
        },
        {
          "duration": 0.1875,
          "durationTicks": 128,
          "midi": 62,
          "name": "D4",
          "ticks": 93312,
          "time": 136.6875,
          "velocity": 0.7007874015748031
        },
        {
          "duration": 0.1875,
          "durationTicks": 128,
          "midi": 60,
          "name": "C4",
          "ticks": 93440,
          "time": 136.875,
          "velocity": 0.7322834645669292
        },
        {
          "duration": 0.1875,
          "durationTicks": 128,
          "midi": 58,
          "name": "A#3",
          "ticks": 93568,
          "time": 137.0625,
          "velocity": 0.7322834645669292
        },
        {
          "duration": 0.1875,
          "durationTicks": 128,
          "midi": 57,
          "name": "A3",
          "ticks": 93696,
          "time": 137.25,
          "velocity": 0.7480314960629921
        },
        {
          "duration": 0.1875,
          "durationTicks": 128,
          "midi": 60,
          "name": "C4",
          "ticks": 93824,
          "time": 137.4375,
          "velocity": 0.8503937007874016
        },
        {
          "duration": 0.1875,
          "durationTicks": 128,
          "midi": 65,
          "name": "F4",
          "ticks": 93952,
          "time": 137.625,
          "velocity": 0.8582677165354331
        },
        {
          "duration": 0.1875,
          "durationTicks": 128,
          "midi": 63,
          "name": "D#4",
          "ticks": 94080,
          "time": 137.8125,
          "velocity": 0.7401574803149606
        },
        {
          "duration": 0.375,
          "durationTicks": 256,
          "midi": 62,
          "name": "D4",
          "ticks": 94208,
          "time": 138,
          "velocity": 0.7322834645669292
        },
        {
          "duration": 0.375,
          "durationTicks": 256,
          "midi": 69,
          "name": "A4",
          "ticks": 94976,
          "time": 139.125,
          "velocity": 0.6929133858267716
        },
        {
          "duration": 0.375,
          "durationTicks": 256,
          "midi": 75,
          "name": "D#5",
          "ticks": 94976,
          "time": 139.125,
          "velocity": 0.6929133858267716
        },
        {
          "duration": 0.375,
          "durationTicks": 256,
          "midi": 70,
          "name": "A#4",
          "ticks": 95232,
          "time": 139.5,
          "velocity": 0.7559055118110236
        },
        {
          "duration": 0.375,
          "durationTicks": 256,
          "midi": 74,
          "name": "D5",
          "ticks": 95232,
          "time": 139.5,
          "velocity": 0.7559055118110236
        },
        {
          "duration": 0.375,
          "durationTicks": 256,
          "midi": 75,
          "name": "D#5",
          "ticks": 95488,
          "time": 139.875,
          "velocity": 0.8503937007874016
        },
        {
          "duration": 0.375,
          "durationTicks": 256,
          "midi": 79,
          "name": "G5",
          "ticks": 95488,
          "time": 139.875,
          "velocity": 0.8503937007874016
        },
        {
          "duration": 0.375,
          "durationTicks": 256,
          "midi": 74,
          "name": "D5",
          "ticks": 95744,
          "time": 140.25,
          "velocity": 0.7007874015748031
        },
        {
          "duration": 0.375,
          "durationTicks": 256,
          "midi": 77,
          "name": "F5",
          "ticks": 95744,
          "time": 140.25,
          "velocity": 0.7007874015748031
        },
        {
          "duration": 0.375,
          "durationTicks": 256,
          "midi": 69,
          "name": "A4",
          "ticks": 96000,
          "time": 140.625,
          "velocity": 0.6771653543307087
        },
        {
          "duration": 0.375,
          "durationTicks": 256,
          "midi": 72,
          "name": "C5",
          "ticks": 96000,
          "time": 140.625,
          "velocity": 0.6771653543307087
        },
        {
          "duration": 0.375,
          "durationTicks": 256,
          "midi": 70,
          "name": "A#4",
          "ticks": 96256,
          "time": 141,
          "velocity": 0.8346456692913385
        },
        {
          "duration": 0.375,
          "durationTicks": 256,
          "midi": 74,
          "name": "D5",
          "ticks": 96256,
          "time": 141,
          "velocity": 0.8346456692913385
        },
        {
          "duration": 0.1875,
          "durationTicks": 128,
          "midi": 70,
          "name": "A#4",
          "ticks": 96512,
          "time": 141.375,
          "velocity": 0.7795275590551181
        },
        {
          "duration": 0.1875,
          "durationTicks": 128,
          "midi": 74,
          "name": "D5",
          "ticks": 96512,
          "time": 141.375,
          "velocity": 0.7795275590551181
        },
        {
          "duration": 0.1875,
          "durationTicks": 128,
          "midi": 70,
          "name": "A#4",
          "ticks": 96640,
          "time": 141.5625,
          "velocity": 0.7716535433070866
        },
        {
          "duration": 0.1875,
          "durationTicks": 128,
          "midi": 74,
          "name": "D5",
          "ticks": 96640,
          "time": 141.5625,
          "velocity": 0.7716535433070866
        },
        {
          "duration": 0.375,
          "durationTicks": 256,
          "midi": 69,
          "name": "A4",
          "ticks": 96768,
          "time": 141.75,
          "velocity": 0.7244094488188977
        },
        {
          "duration": 0.375,
          "durationTicks": 256,
          "midi": 72,
          "name": "C5",
          "ticks": 96768,
          "time": 141.75,
          "velocity": 0.7244094488188977
        },
        {
          "duration": 0.1875,
          "durationTicks": 128,
          "midi": 69,
          "name": "A4",
          "ticks": 97024,
          "time": 142.125,
          "velocity": 0.7637795275590551
        },
        {
          "duration": 0.1875,
          "durationTicks": 128,
          "midi": 72,
          "name": "C5",
          "ticks": 97024,
          "time": 142.125,
          "velocity": 0.7637795275590551
        },
        {
          "duration": 0.1875,
          "durationTicks": 128,
          "midi": 69,
          "name": "A4",
          "ticks": 97152,
          "time": 142.3125,
          "velocity": 0.7637795275590551
        },
        {
          "duration": 0.1875,
          "durationTicks": 128,
          "midi": 72,
          "name": "C5",
          "ticks": 97152,
          "time": 142.3125,
          "velocity": 0.7637795275590551
        },
        {
          "duration": 0.375,
          "durationTicks": 256,
          "midi": 70,
          "name": "A#4",
          "ticks": 97280,
          "time": 142.5,
          "velocity": 0.7795275590551181
        },
        {
          "duration": 0.375,
          "durationTicks": 256,
          "midi": 74,
          "name": "D5",
          "ticks": 97280,
          "time": 142.5,
          "velocity": 0.7795275590551181
        },
        {
          "duration": 0.1875,
          "durationTicks": 128,
          "midi": 70,
          "name": "A#4",
          "ticks": 97536,
          "time": 142.875,
          "velocity": 0.7795275590551181
        },
        {
          "duration": 0.1875,
          "durationTicks": 128,
          "midi": 74,
          "name": "D5",
          "ticks": 97536,
          "time": 142.875,
          "velocity": 0.7795275590551181
        },
        {
          "duration": 0.1875,
          "durationTicks": 128,
          "midi": 70,
          "name": "A#4",
          "ticks": 97664,
          "time": 143.0625,
          "velocity": 0.7480314960629921
        },
        {
          "duration": 0.1875,
          "durationTicks": 128,
          "midi": 74,
          "name": "D5",
          "ticks": 97664,
          "time": 143.0625,
          "velocity": 0.7480314960629921
        },
        {
          "duration": 0.375,
          "durationTicks": 256,
          "midi": 69,
          "name": "A4",
          "ticks": 97792,
          "time": 143.25,
          "velocity": 0.7086614173228346
        },
        {
          "duration": 0.375,
          "durationTicks": 256,
          "midi": 72,
          "name": "C5",
          "ticks": 97792,
          "time": 143.25,
          "velocity": 0.7086614173228346
        },
        {
          "duration": 0.1875,
          "durationTicks": 128,
          "midi": 69,
          "name": "A4",
          "ticks": 98048,
          "time": 143.625,
          "velocity": 0.7322834645669292
        },
        {
          "duration": 0.1875,
          "durationTicks": 128,
          "midi": 72,
          "name": "C5",
          "ticks": 98048,
          "time": 143.625,
          "velocity": 0.7322834645669292
        },
        {
          "duration": 0.1875,
          "durationTicks": 128,
          "midi": 69,
          "name": "A4",
          "ticks": 98176,
          "time": 143.8125,
          "velocity": 0.7637795275590551
        },
        {
          "duration": 0.1875,
          "durationTicks": 128,
          "midi": 72,
          "name": "C5",
          "ticks": 98176,
          "time": 143.8125,
          "velocity": 0.7637795275590551
        },
        {
          "duration": 0.375,
          "durationTicks": 256,
          "midi": 70,
          "name": "A#4",
          "ticks": 98304,
          "time": 144,
          "velocity": 0.8110236220472441
        },
        {
          "duration": 0.375,
          "durationTicks": 256,
          "midi": 74,
          "name": "D5",
          "ticks": 98304,
          "time": 144,
          "velocity": 0.8110236220472441
        },
        {
          "duration": 0.1875,
          "durationTicks": 128,
          "midi": 70,
          "name": "A#4",
          "ticks": 98560,
          "time": 144.375,
          "velocity": 0.7480314960629921
        },
        {
          "duration": 0.1875,
          "durationTicks": 128,
          "midi": 74,
          "name": "D5",
          "ticks": 98560,
          "time": 144.375,
          "velocity": 0.7480314960629921
        },
        {
          "duration": 0.1875,
          "durationTicks": 128,
          "midi": 70,
          "name": "A#4",
          "ticks": 98688,
          "time": 144.5625,
          "velocity": 0.7559055118110236
        },
        {
          "duration": 0.1875,
          "durationTicks": 128,
          "midi": 74,
          "name": "D5",
          "ticks": 98688,
          "time": 144.5625,
          "velocity": 0.7559055118110236
        },
        {
          "duration": 0.375,
          "durationTicks": 256,
          "midi": 69,
          "name": "A4",
          "ticks": 98816,
          "time": 144.75,
          "velocity": 0.7007874015748031
        },
        {
          "duration": 0.375,
          "durationTicks": 256,
          "midi": 72,
          "name": "C5",
          "ticks": 98816,
          "time": 144.75,
          "velocity": 0.7007874015748031
        },
        {
          "duration": 0.1875,
          "durationTicks": 128,
          "midi": 69,
          "name": "A4",
          "ticks": 99072,
          "time": 145.125,
          "velocity": 0.7795275590551181
        },
        {
          "duration": 0.1875,
          "durationTicks": 128,
          "midi": 72,
          "name": "C5",
          "ticks": 99072,
          "time": 145.125,
          "velocity": 0.7795275590551181
        },
        {
          "duration": 0.1875,
          "durationTicks": 128,
          "midi": 69,
          "name": "A4",
          "ticks": 99200,
          "time": 145.3125,
          "velocity": 0.7637795275590551
        },
        {
          "duration": 0.1875,
          "durationTicks": 128,
          "midi": 72,
          "name": "C5",
          "ticks": 99200,
          "time": 145.3125,
          "velocity": 0.7637795275590551
        },
        {
          "duration": 0.375,
          "durationTicks": 256,
          "midi": 70,
          "name": "A#4",
          "ticks": 99328,
          "time": 145.5,
          "velocity": 0.8267716535433071
        },
        {
          "duration": 0.375,
          "durationTicks": 256,
          "midi": 74,
          "name": "D5",
          "ticks": 99328,
          "time": 145.5,
          "velocity": 0.8267716535433071
        },
        {
          "duration": 0.375,
          "durationTicks": 256,
          "midi": 69,
          "name": "A4",
          "ticks": 99584,
          "time": 145.875,
          "velocity": 0.7480314960629921
        },
        {
          "duration": 0.375,
          "durationTicks": 256,
          "midi": 72,
          "name": "C5",
          "ticks": 99584,
          "time": 145.875,
          "velocity": 0.7480314960629921
        },
        {
          "duration": 0.375,
          "durationTicks": 256,
          "midi": 70,
          "name": "A#4",
          "ticks": 99840,
          "time": 146.25,
          "velocity": 0.8346456692913385
        },
        {
          "duration": 0.375,
          "durationTicks": 256,
          "midi": 74,
          "name": "D5",
          "ticks": 99840,
          "time": 146.25,
          "velocity": 0.8346456692913385
        },
        {
          "duration": 0.375,
          "durationTicks": 256,
          "midi": 69,
          "name": "A4",
          "ticks": 100096,
          "time": 146.625,
          "velocity": 0.7322834645669292
        },
        {
          "duration": 0.375,
          "durationTicks": 256,
          "midi": 72,
          "name": "C5",
          "ticks": 100096,
          "time": 146.625,
          "velocity": 0.7322834645669292
        },
        {
          "duration": 0.375,
          "durationTicks": 256,
          "midi": 70,
          "name": "A#4",
          "ticks": 100352,
          "time": 147,
          "velocity": 0.8031496062992126
        },
        {
          "duration": 0.375,
          "durationTicks": 256,
          "midi": 74,
          "name": "D5",
          "ticks": 100352,
          "time": 147,
          "velocity": 0.8031496062992126
        },
        {
          "duration": 0.375,
          "durationTicks": 256,
          "midi": 72,
          "name": "C5",
          "ticks": 101376,
          "time": 148.5,
          "velocity": 0.7322834645669292
        },
        {
          "duration": 0.375,
          "durationTicks": 256,
          "midi": 78,
          "name": "F#5",
          "ticks": 101376,
          "time": 148.5,
          "velocity": 0.7322834645669292
        },
        {
          "duration": 0.38232421875,
          "durationTicks": 261,
          "midi": 66,
          "name": "F#4",
          "ticks": 115968,
          "time": 169.875,
          "velocity": 0.41732283464566927
        },
        {
          "duration": 0.38232421875,
          "durationTicks": 261,
          "midi": 67,
          "name": "G4",
          "ticks": 116224,
          "time": 170.25,
          "velocity": 0.3937007874015748
        },
        {
          "duration": 0.38232421875,
          "durationTicks": 261,
          "midi": 69,
          "name": "A4",
          "ticks": 116480,
          "time": 170.625,
          "velocity": 0.5511811023622047
        },
        {
          "duration": 0.38232421875,
          "durationTicks": 261,
          "midi": 70,
          "name": "A#4",
          "ticks": 116736,
          "time": 171,
          "velocity": 0.5748031496062992
        },
        {
          "duration": 0.1904296875,
          "durationTicks": 130,
          "midi": 72,
          "name": "C5",
          "ticks": 116992,
          "time": 171.375,
          "velocity": 0.5196850393700787
        },
        {
          "duration": 0.1904296875,
          "durationTicks": 130,
          "midi": 70,
          "name": "A#4",
          "ticks": 117120,
          "time": 171.5625,
          "velocity": 0.5275590551181102
        },
        {
          "duration": 0.38232421875,
          "durationTicks": 261,
          "midi": 69,
          "name": "A4",
          "ticks": 117248,
          "time": 171.75,
          "velocity": 0.4645669291338583
        },
        {
          "duration": 0.38232421875,
          "durationTicks": 261,
          "midi": 67,
          "name": "G4",
          "ticks": 117504,
          "time": 172.125,
          "velocity": 0.44881889763779526
        },
        {
          "duration": 0.35595703125,
          "durationTicks": 243,
          "midi": 66,
          "name": "F#4",
          "ticks": 117760,
          "time": 172.5,
          "velocity": 0.4251968503937008
        },
        {
          "duration": 0.7646484375,
          "durationTicks": 522,
          "midi": 73,
          "name": "C#5",
          "ticks": 118272,
          "time": 173.25,
          "velocity": 0.6929133858267716
        },
        {
          "duration": 0.7646484375,
          "durationTicks": 522,
          "midi": 76,
          "name": "E5",
          "ticks": 118272,
          "time": 173.25,
          "velocity": 0.6929133858267716
        },
        {
          "duration": 0.35595703125,
          "durationTicks": 243,
          "midi": 74,
          "name": "D5",
          "ticks": 118784,
          "time": 174,
          "velocity": 0.7244094488188977
        },
        {
          "duration": 0.35595703125,
          "durationTicks": 243,
          "midi": 78,
          "name": "F#5",
          "ticks": 118784,
          "time": 174,
          "velocity": 0.7244094488188977
        },
        {
          "duration": 0.7646484375,
          "durationTicks": 522,
          "midi": 73,
          "name": "C#5",
          "ticks": 119296,
          "time": 174.75,
          "velocity": 0.7007874015748031
        },
        {
          "duration": 0.7646484375,
          "durationTicks": 522,
          "midi": 76,
          "name": "E5",
          "ticks": 119296,
          "time": 174.75,
          "velocity": 0.7007874015748031
        },
        {
          "duration": 0.35595703125,
          "durationTicks": 243,
          "midi": 74,
          "name": "D5",
          "ticks": 119808,
          "time": 175.5,
          "velocity": 0.7244094488188977
        },
        {
          "duration": 0.35595703125,
          "durationTicks": 243,
          "midi": 78,
          "name": "F#5",
          "ticks": 119808,
          "time": 175.5,
          "velocity": 0.7244094488188977
        },
        {
          "duration": 0.7646484375,
          "durationTicks": 522,
          "midi": 73,
          "name": "C#5",
          "ticks": 120320,
          "time": 176.25,
          "velocity": 0.7165354330708661
        },
        {
          "duration": 0.7646484375,
          "durationTicks": 522,
          "midi": 76,
          "name": "E5",
          "ticks": 120320,
          "time": 176.25,
          "velocity": 0.7165354330708661
        },
        {
          "duration": 0.35595703125,
          "durationTicks": 243,
          "midi": 74,
          "name": "D5",
          "ticks": 120832,
          "time": 177,
          "velocity": 0.7559055118110236
        },
        {
          "duration": 0.35595703125,
          "durationTicks": 243,
          "midi": 78,
          "name": "F#5",
          "ticks": 120832,
          "time": 177,
          "velocity": 0.7559055118110236
        },
        {
          "duration": 0.1875,
          "durationTicks": 128,
          "midi": 73,
          "name": "C#5",
          "ticks": 121088,
          "time": 177.375,
          "velocity": 0.7401574803149606
        },
        {
          "duration": 0.1875,
          "durationTicks": 128,
          "midi": 76,
          "name": "E5",
          "ticks": 121088,
          "time": 177.375,
          "velocity": 0.7401574803149606
        },
        {
          "duration": 0.1875,
          "durationTicks": 128,
          "midi": 74,
          "name": "D5",
          "ticks": 121344,
          "time": 177.75,
          "velocity": 0.8346456692913385
        },
        {
          "duration": 0.1875,
          "durationTicks": 128,
          "midi": 78,
          "name": "F#5",
          "ticks": 121344,
          "time": 177.75,
          "velocity": 0.8346456692913385
        },
        {
          "duration": 0.1875,
          "durationTicks": 128,
          "midi": 73,
          "name": "C#5",
          "ticks": 121600,
          "time": 178.125,
          "velocity": 0.7007874015748031
        },
        {
          "duration": 0.1875,
          "durationTicks": 128,
          "midi": 76,
          "name": "E5",
          "ticks": 121600,
          "time": 178.125,
          "velocity": 0.7007874015748031
        },
        {
          "duration": 0.75,
          "durationTicks": 512,
          "midi": 74,
          "name": "D5",
          "ticks": 121856,
          "time": 178.5,
          "velocity": 0.8031496062992126
        },
        {
          "duration": 0.75,
          "durationTicks": 512,
          "midi": 78,
          "name": "F#5",
          "ticks": 121856,
          "time": 178.5,
          "velocity": 0.8031496062992126
        },
        {
          "duration": 1.5,
          "durationTicks": 1024,
          "midi": 70,
          "name": "A#4",
          "ticks": 130048,
          "time": 190.5,
          "velocity": 0.7007874015748031
        },
        {
          "duration": 1.5,
          "durationTicks": 1024,
          "midi": 65,
          "name": "F4",
          "ticks": 131072,
          "time": 192,
          "velocity": 0.6692913385826772
        },
        {
          "duration": 1.5,
          "durationTicks": 1024,
          "midi": 75,
          "name": "D#5",
          "ticks": 132096,
          "time": 193.5,
          "velocity": 0.9212598425196851
        },
        {
          "duration": 1.5,
          "durationTicks": 1024,
          "midi": 74,
          "name": "D5",
          "ticks": 133120,
          "time": 195,
          "velocity": 0.7165354330708661
        },
        {
          "duration": 1.5,
          "durationTicks": 1024,
          "midi": 72,
          "name": "C5",
          "ticks": 134144,
          "time": 196.5,
          "velocity": 0.6929133858267716
        },
        {
          "duration": 1.5,
          "durationTicks": 1024,
          "midi": 70,
          "name": "A#4",
          "ticks": 135168,
          "time": 198,
          "velocity": 0.6929133858267716
        },
        {
          "duration": 1.5,
          "durationTicks": 1024,
          "midi": 70,
          "name": "A#4",
          "ticks": 136192,
          "time": 199.5,
          "velocity": 0.8031496062992126
        },
        {
          "duration": 1.3125,
          "durationTicks": 896,
          "midi": 76,
          "name": "E5",
          "ticks": 137216,
          "time": 201,
          "velocity": 0.8661417322834646
        },
        {
          "duration": 1.5,
          "durationTicks": 1024,
          "midi": 70,
          "name": "A#4",
          "ticks": 137216,
          "time": 201,
          "velocity": 0.7559055118110236
        },
        {
          "duration": 0.1875,
          "durationTicks": 128,
          "midi": 77,
          "name": "F5",
          "ticks": 138112,
          "time": 202.3125,
          "velocity": 0.8188976377952756
        },
        {
          "duration": 1.3125,
          "durationTicks": 896,
          "midi": 76,
          "name": "E5",
          "ticks": 138240,
          "time": 202.5,
          "velocity": 0.7480314960629921
        },
        {
          "duration": 1.5,
          "durationTicks": 1024,
          "midi": 70,
          "name": "A#4",
          "ticks": 138240,
          "time": 202.5,
          "velocity": 0.7716535433070866
        },
        {
          "duration": 0.1875,
          "durationTicks": 128,
          "midi": 77,
          "name": "F5",
          "ticks": 139136,
          "time": 203.8125,
          "velocity": 0.8031496062992126
        },
        {
          "duration": 1.3125,
          "durationTicks": 896,
          "midi": 76,
          "name": "E5",
          "ticks": 139264,
          "time": 204,
          "velocity": 0.7401574803149606
        },
        {
          "duration": 1.5,
          "durationTicks": 1024,
          "midi": 70,
          "name": "A#4",
          "ticks": 139264,
          "time": 204,
          "velocity": 0.7716535433070866
        },
        {
          "duration": 0.1875,
          "durationTicks": 128,
          "midi": 77,
          "name": "F5",
          "ticks": 140160,
          "time": 205.3125,
          "velocity": 0.8267716535433071
        },
        {
          "duration": 0.75,
          "durationTicks": 512,
          "midi": 69,
          "name": "A4",
          "ticks": 140288,
          "time": 205.5,
          "velocity": 0.8110236220472441
        },
        {
          "duration": 0.75,
          "durationTicks": 512,
          "midi": 77,
          "name": "F5",
          "ticks": 140288,
          "time": 205.5,
          "velocity": 0.8110236220472441
        },
        {
          "duration": 0.75,
          "durationTicks": 512,
          "midi": 72,
          "name": "C5",
          "ticks": 140800,
          "time": 206.25,
          "velocity": 0.7244094488188977
        },
        {
          "duration": 0.75,
          "durationTicks": 512,
          "midi": 75,
          "name": "D#5",
          "ticks": 140800,
          "time": 206.25,
          "velocity": 0.7244094488188977
        },
        {
          "duration": 1.5,
          "durationTicks": 1024,
          "midi": 70,
          "name": "A#4",
          "ticks": 141312,
          "time": 207,
          "velocity": 0.7244094488188977
        },
        {
          "duration": 1.5,
          "durationTicks": 1024,
          "midi": 73,
          "name": "C#5",
          "ticks": 141312,
          "time": 207,
          "velocity": 0.7244094488188977
        },
        {
          "duration": 0.75,
          "durationTicks": 512,
          "midi": 69,
          "name": "A4",
          "ticks": 142336,
          "time": 208.5,
          "velocity": 0.7244094488188977
        },
        {
          "duration": 0.75,
          "durationTicks": 512,
          "midi": 72,
          "name": "C5",
          "ticks": 142336,
          "time": 208.5,
          "velocity": 0.7244094488188977
        },
        {
          "duration": 0.75,
          "durationTicks": 512,
          "midi": 72,
          "name": "C5",
          "ticks": 142848,
          "time": 209.25,
          "velocity": 0.8346456692913385
        },
        {
          "duration": 0.75,
          "durationTicks": 512,
          "midi": 75,
          "name": "D#5",
          "ticks": 142848,
          "time": 209.25,
          "velocity": 0.8346456692913385
        },
        {
          "duration": 0.75,
          "durationTicks": 512,
          "midi": 70,
          "name": "A#4",
          "ticks": 143360,
          "time": 210,
          "velocity": 0.7165354330708661
        },
        {
          "duration": 0.75,
          "durationTicks": 512,
          "midi": 73,
          "name": "C#5",
          "ticks": 143360,
          "time": 210,
          "velocity": 0.7165354330708661
        },
        {
          "duration": 0.75,
          "durationTicks": 512,
          "midi": 73,
          "name": "C#5",
          "ticks": 143872,
          "time": 210.75,
          "velocity": 0.8661417322834646
        },
        {
          "duration": 0.75,
          "durationTicks": 512,
          "midi": 76,
          "name": "E5",
          "ticks": 143872,
          "time": 210.75,
          "velocity": 0.8661417322834646
        },
        {
          "duration": 0.375,
          "durationTicks": 256,
          "midi": 72,
          "name": "C5",
          "ticks": 144384,
          "time": 211.5,
          "velocity": 0.7874015748031497
        },
        {
          "duration": 0.375,
          "durationTicks": 256,
          "midi": 77,
          "name": "F5",
          "ticks": 144384,
          "time": 211.5,
          "velocity": 0.7874015748031497
        },
        {
          "duration": 0.375,
          "durationTicks": 256,
          "midi": 69,
          "name": "A4",
          "ticks": 144896,
          "time": 212.25,
          "velocity": 0.6771653543307087
        },
        {
          "duration": 0.375,
          "durationTicks": 256,
          "midi": 72,
          "name": "C5",
          "ticks": 144896,
          "time": 212.25,
          "velocity": 0.6771653543307087
        },
        {
          "duration": 1.14697265625,
          "durationTicks": 783,
          "midi": 75,
          "name": "D#5",
          "ticks": 147456,
          "time": 216,
          "velocity": 0.4645669291338583
        },
        {
          "duration": 0.09521484375,
          "durationTicks": 65,
          "midi": 77,
          "name": "F5",
          "ticks": 148224,
          "time": 217.125,
          "velocity": 0.48031496062992124
        },
        {
          "duration": 0.09521484375,
          "durationTicks": 65,
          "midi": 75,
          "name": "D#5",
          "ticks": 148288,
          "time": 217.21875,
          "velocity": 0.44881889763779526
        },
        {
          "duration": 0.09521484375,
          "durationTicks": 65,
          "midi": 74,
          "name": "D5",
          "ticks": 148352,
          "time": 217.3125,
          "velocity": 0.3858267716535433
        },
        {
          "duration": 0.09521484375,
          "durationTicks": 65,
          "midi": 72,
          "name": "C5",
          "ticks": 148416,
          "time": 217.40625,
          "velocity": 0.4251968503937008
        },
        {
          "duration": 0.35595703125,
          "durationTicks": 243,
          "midi": 70,
          "name": "A#4",
          "ticks": 148480,
          "time": 217.5,
          "velocity": 0.4251968503937008
        },
        {
          "duration": 0.1904296875,
          "durationTicks": 130,
          "midi": 70,
          "name": "A#4",
          "ticks": 153600,
          "time": 225,
          "velocity": 0.3937007874015748
        },
        {
          "duration": 0.1904296875,
          "durationTicks": 130,
          "midi": 69,
          "name": "A4",
          "ticks": 153728,
          "time": 225.1875,
          "velocity": 0.3464566929133858
        },
        {
          "duration": 0.1904296875,
          "durationTicks": 130,
          "midi": 72,
          "name": "C5",
          "ticks": 153856,
          "time": 225.375,
          "velocity": 0.5039370078740157
        },
        {
          "duration": 0.1904296875,
          "durationTicks": 130,
          "midi": 70,
          "name": "A#4",
          "ticks": 153984,
          "time": 225.5625,
          "velocity": 0.4566929133858268
        },
        {
          "duration": 0.1904296875,
          "durationTicks": 130,
          "midi": 74,
          "name": "D5",
          "ticks": 154112,
          "time": 225.75,
          "velocity": 0.4881889763779528
        },
        {
          "duration": 0.1904296875,
          "durationTicks": 130,
          "midi": 72,
          "name": "C5",
          "ticks": 154240,
          "time": 225.9375,
          "velocity": 0.4645669291338583
        },
        {
          "duration": 0.1904296875,
          "durationTicks": 130,
          "midi": 75,
          "name": "D#5",
          "ticks": 154368,
          "time": 226.125,
          "velocity": 0.5196850393700787
        },
        {
          "duration": 0.17724609375,
          "durationTicks": 121,
          "midi": 74,
          "name": "D5",
          "ticks": 154496,
          "time": 226.3125,
          "velocity": 0.4881889763779528
        },
        {
          "duration": 1.14697265625,
          "durationTicks": 783,
          "midi": 77,
          "name": "F5",
          "ticks": 154624,
          "time": 226.5,
          "velocity": 0.5118110236220472
        },
        {
          "duration": 0.38232421875,
          "durationTicks": 261,
          "midi": 76,
          "name": "E5",
          "ticks": 155392,
          "time": 227.625,
          "velocity": 0.5196850393700787
        },
        {
          "duration": 0.35595703125,
          "durationTicks": 243,
          "midi": 75,
          "name": "D#5",
          "ticks": 155648,
          "time": 228,
          "velocity": 0.4330708661417323
        },
        {
          "duration": 0.1875,
          "durationTicks": 128,
          "midi": 70,
          "name": "A#4",
          "ticks": 156928,
          "time": 229.875,
          "velocity": 0.4409448818897638
        },
        {
          "duration": 1.24658203125,
          "durationTicks": 851,
          "midi": 70,
          "name": "A#4",
          "ticks": 157184,
          "time": 230.25,
          "velocity": 0.49606299212598426
        },
        {
          "duration": 0.35595703125,
          "durationTicks": 243,
          "midi": 72,
          "name": "C5",
          "ticks": 157440,
          "time": 230.625,
          "velocity": 0.5039370078740157
        },
        {
          "duration": 0.57275390625,
          "durationTicks": 391,
          "midi": 74,
          "name": "D5",
          "ticks": 157696,
          "time": 231,
          "velocity": 0.5354330708661418
        },
        {
          "duration": 0.17724609375,
          "durationTicks": 121,
          "midi": 75,
          "name": "D#5",
          "ticks": 158080,
          "time": 231.5625,
          "velocity": 0.5039370078740157
        },
        {
          "duration": 0.17724609375,
          "durationTicks": 121,
          "midi": 72,
          "name": "C5",
          "ticks": 158080,
          "time": 231.5625,
          "velocity": 0.5039370078740157
        },
        {
          "duration": 0.375,
          "durationTicks": 256,
          "midi": 72,
          "name": "C5",
          "ticks": 158208,
          "time": 231.75,
          "velocity": 0.4566929133858268
        },
        {
          "duration": 0.375,
          "durationTicks": 256,
          "midi": 69,
          "name": "A4",
          "ticks": 158208,
          "time": 231.75,
          "velocity": 0.4409448818897638
        },
        {
          "duration": 1.14697265625,
          "durationTicks": 783,
          "midi": 79,
          "name": "G5",
          "ticks": 158720,
          "time": 232.5,
          "velocity": 0.4409448818897638
        },
        {
          "duration": 0.38232421875,
          "durationTicks": 261,
          "midi": 78,
          "name": "F#5",
          "ticks": 159488,
          "time": 233.625,
          "velocity": 0.4094488188976378
        },
        {
          "duration": 0.38232421875,
          "durationTicks": 261,
          "midi": 77,
          "name": "F5",
          "ticks": 159744,
          "time": 234,
          "velocity": 0.4881889763779528
        },
        {
          "duration": 0.38232421875,
          "durationTicks": 261,
          "midi": 76,
          "name": "E5",
          "ticks": 160000,
          "time": 234.375,
          "velocity": 0.48031496062992124
        },
        {
          "duration": 0.38232421875,
          "durationTicks": 261,
          "midi": 75,
          "name": "D#5",
          "ticks": 160256,
          "time": 234.75,
          "velocity": 0.47244094488188976
        },
        {
          "duration": 0.35595703125,
          "durationTicks": 243,
          "midi": 74,
          "name": "D5",
          "ticks": 160512,
          "time": 235.125,
          "velocity": 0.4566929133858268
        },
        {
          "duration": 1.14697265625,
          "durationTicks": 783,
          "midi": 70,
          "name": "A#4",
          "ticks": 160768,
          "time": 235.5,
          "velocity": 0.4566929133858268
        },
        {
          "duration": 1.14697265625,
          "durationTicks": 783,
          "midi": 73,
          "name": "C#5",
          "ticks": 160768,
          "time": 235.5,
          "velocity": 0.4566929133858268
        },
        {
          "duration": 0.35595703125,
          "durationTicks": 243,
          "midi": 68,
          "name": "G#4",
          "ticks": 161536,
          "time": 236.625,
          "velocity": 0.4566929133858268
        },
        {
          "duration": 0.35595703125,
          "durationTicks": 243,
          "midi": 72,
          "name": "C5",
          "ticks": 161536,
          "time": 236.625,
          "velocity": 0.4566929133858268
        },
        {
          "duration": 1.14697265625,
          "durationTicks": 783,
          "midi": 70,
          "name": "A#4",
          "ticks": 161792,
          "time": 237,
          "velocity": 0.5196850393700787
        },
        {
          "duration": 1.14697265625,
          "durationTicks": 783,
          "midi": 73,
          "name": "C#5",
          "ticks": 161792,
          "time": 237,
          "velocity": 0.5196850393700787
        },
        {
          "duration": 0.35595703125,
          "durationTicks": 243,
          "midi": 68,
          "name": "G#4",
          "ticks": 162560,
          "time": 238.125,
          "velocity": 0.47244094488188976
        },
        {
          "duration": 0.35595703125,
          "durationTicks": 243,
          "midi": 72,
          "name": "C5",
          "ticks": 162560,
          "time": 238.125,
          "velocity": 0.47244094488188976
        },
        {
          "duration": 1.14697265625,
          "durationTicks": 783,
          "midi": 70,
          "name": "A#4",
          "ticks": 162816,
          "time": 238.5,
          "velocity": 0.5196850393700787
        },
        {
          "duration": 1.14697265625,
          "durationTicks": 783,
          "midi": 73,
          "name": "C#5",
          "ticks": 162816,
          "time": 238.5,
          "velocity": 0.5196850393700787
        },
        {
          "duration": 0.35595703125,
          "durationTicks": 243,
          "midi": 68,
          "name": "G#4",
          "ticks": 163584,
          "time": 239.625,
          "velocity": 0.5039370078740157
        },
        {
          "duration": 0.35595703125,
          "durationTicks": 243,
          "midi": 72,
          "name": "C5",
          "ticks": 163584,
          "time": 239.625,
          "velocity": 0.5039370078740157
        },
        {
          "duration": 1.14697265625,
          "durationTicks": 783,
          "midi": 70,
          "name": "A#4",
          "ticks": 163840,
          "time": 240,
          "velocity": 0.5039370078740157
        },
        {
          "duration": 1.14697265625,
          "durationTicks": 783,
          "midi": 73,
          "name": "C#5",
          "ticks": 163840,
          "time": 240,
          "velocity": 0.5039370078740157
        },
        {
          "duration": 0.35595703125,
          "durationTicks": 243,
          "midi": 68,
          "name": "G#4",
          "ticks": 164608,
          "time": 241.125,
          "velocity": 0.5118110236220472
        },
        {
          "duration": 0.35595703125,
          "durationTicks": 243,
          "midi": 72,
          "name": "C5",
          "ticks": 164608,
          "time": 241.125,
          "velocity": 0.5118110236220472
        },
        {
          "duration": 1.5,
          "durationTicks": 1024,
          "midi": 67,
          "name": "G4",
          "ticks": 164864,
          "time": 241.5,
          "velocity": 0.4330708661417323
        },
        {
          "duration": 1.5,
          "durationTicks": 1024,
          "midi": 70,
          "name": "A#4",
          "ticks": 164864,
          "time": 241.5,
          "velocity": 0.4330708661417323
        },
        {
          "duration": 1.5,
          "durationTicks": 1024,
          "midi": 70,
          "name": "A#4",
          "ticks": 165888,
          "time": 243,
          "velocity": 0.6456692913385826
        },
        {
          "duration": 1.5,
          "durationTicks": 1024,
          "midi": 73,
          "name": "C#5",
          "ticks": 165888,
          "time": 243,
          "velocity": 0.6456692913385826
        },
        {
          "duration": 1.5,
          "durationTicks": 1024,
          "midi": 70,
          "name": "A#4",
          "ticks": 166912,
          "time": 244.5,
          "velocity": 0.7952755905511811
        },
        {
          "duration": 1.5,
          "durationTicks": 1024,
          "midi": 74,
          "name": "D5",
          "ticks": 166912,
          "time": 244.5,
          "velocity": 0.7952755905511811
        },
        {
          "duration": 1.5,
          "durationTicks": 1024,
          "midi": 69,
          "name": "A4",
          "ticks": 167936,
          "time": 246,
          "velocity": 0.7007874015748031
        },
        {
          "duration": 1.5,
          "durationTicks": 1024,
          "midi": 72,
          "name": "C5",
          "ticks": 167936,
          "time": 246,
          "velocity": 0.7007874015748031
        },
        {
          "duration": 0.375,
          "durationTicks": 256,
          "midi": 70,
          "name": "A#4",
          "ticks": 168960,
          "time": 247.5,
          "velocity": 0.7086614173228346
        },
        {
          "duration": 0.1875,
          "durationTicks": 128,
          "midi": 62,
          "name": "D4",
          "ticks": 171008,
          "time": 250.5,
          "velocity": 0.6850393700787402
        },
        {
          "duration": 0.1875,
          "durationTicks": 128,
          "midi": 65,
          "name": "F4",
          "ticks": 171008,
          "time": 250.5,
          "velocity": 0.6850393700787402
        },
        {
          "duration": 0.1875,
          "durationTicks": 128,
          "midi": 63,
          "name": "D#4",
          "ticks": 171520,
          "time": 251.25,
          "velocity": 0.7007874015748031
        },
        {
          "duration": 0.1875,
          "durationTicks": 128,
          "midi": 67,
          "name": "G4",
          "ticks": 171520,
          "time": 251.25,
          "velocity": 0.7007874015748031
        },
        {
          "duration": 0.1875,
          "durationTicks": 128,
          "midi": 69,
          "name": "A4",
          "ticks": 172032,
          "time": 252,
          "velocity": 0.6929133858267716
        },
        {
          "duration": 0.1875,
          "durationTicks": 128,
          "midi": 72,
          "name": "C5",
          "ticks": 172032,
          "time": 252,
          "velocity": 0.6929133858267716
        },
        {
          "duration": 0.1875,
          "durationTicks": 128,
          "midi": 70,
          "name": "A#4",
          "ticks": 172544,
          "time": 252.75,
          "velocity": 0.7165354330708661
        },
        {
          "duration": 0.1875,
          "durationTicks": 128,
          "midi": 74,
          "name": "D5",
          "ticks": 172544,
          "time": 252.75,
          "velocity": 0.7165354330708661
        },
        {
          "duration": 0.1904296875,
          "durationTicks": 130,
          "midi": 79,
          "name": "G5",
          "ticks": 175872,
          "time": 257.625,
          "velocity": 0.4330708661417323
        },
        {
          "duration": 0.17724609375,
          "durationTicks": 121,
          "midi": 77,
          "name": "F5",
          "ticks": 176000,
          "time": 257.8125,
          "velocity": 0.4094488188976378
        },
        {
          "duration": 0.1875,
          "durationTicks": 128,
          "midi": 77,
          "name": "F5",
          "ticks": 176128,
          "time": 258,
          "velocity": 0.4645669291338583
        },
        {
          "duration": 0.1904296875,
          "durationTicks": 130,
          "midi": 79,
          "name": "G5",
          "ticks": 176384,
          "time": 258.375,
          "velocity": 0.4881889763779528
        },
        {
          "duration": 0.17724609375,
          "durationTicks": 121,
          "midi": 77,
          "name": "F5",
          "ticks": 176512,
          "time": 258.5625,
          "velocity": 0.47244094488188976
        },
        {
          "duration": 0.1875,
          "durationTicks": 128,
          "midi": 77,
          "name": "F5",
          "ticks": 176640,
          "time": 258.75,
          "velocity": 0.4409448818897638
        },
        {
          "duration": 0.1904296875,
          "durationTicks": 130,
          "midi": 79,
          "name": "G5",
          "ticks": 177920,
          "time": 260.625,
          "velocity": 0.4015748031496063
        },
        {
          "duration": 0.17724609375,
          "durationTicks": 121,
          "midi": 77,
          "name": "F5",
          "ticks": 178048,
          "time": 260.8125,
          "velocity": 0.3543307086614173
        },
        {
          "duration": 0.1875,
          "durationTicks": 128,
          "midi": 77,
          "name": "F5",
          "ticks": 178176,
          "time": 261,
          "velocity": 0.47244094488188976
        },
        {
          "duration": 0.1904296875,
          "durationTicks": 130,
          "midi": 79,
          "name": "G5",
          "ticks": 178432,
          "time": 261.375,
          "velocity": 0.5039370078740157
        },
        {
          "duration": 0.17724609375,
          "durationTicks": 121,
          "midi": 77,
          "name": "F5",
          "ticks": 178560,
          "time": 261.5625,
          "velocity": 0.4645669291338583
        },
        {
          "duration": 0.1875,
          "durationTicks": 128,
          "midi": 77,
          "name": "F5",
          "ticks": 178688,
          "time": 261.75,
          "velocity": 0.48031496062992124
        },
        {
          "duration": 1.5,
          "durationTicks": 1024,
          "midi": 72,
          "name": "C5",
          "ticks": 180224,
          "time": 264,
          "velocity": 0.7007874015748031
        },
        {
          "duration": 1.5,
          "durationTicks": 1024,
          "midi": 78,
          "name": "F#5",
          "ticks": 180224,
          "time": 264,
          "velocity": 0.7007874015748031
        },
        {
          "duration": 1.5,
          "durationTicks": 1024,
          "midi": 79,
          "name": "G5",
          "ticks": 181248,
          "time": 265.5,
          "velocity": 0.7874015748031497
        },
        {
          "duration": 0.75,
          "durationTicks": 512,
          "midi": 70,
          "name": "A#4",
          "ticks": 181248,
          "time": 265.5,
          "velocity": 0.7007874015748031
        },
        {
          "duration": 0.75,
          "durationTicks": 512,
          "midi": 75,
          "name": "D#5",
          "ticks": 181760,
          "time": 266.25,
          "velocity": 0.8582677165354331
        },
        {
          "duration": 0.5625,
          "durationTicks": 384,
          "midi": 74,
          "name": "D5",
          "ticks": 182272,
          "time": 267,
          "velocity": 0.7244094488188977
        },
        {
          "duration": 0.57275390625,
          "durationTicks": 391,
          "midi": 77,
          "name": "F5",
          "ticks": 182272,
          "time": 267,
          "velocity": 0.7244094488188977
        },
        {
          "duration": 0.17724609375,
          "durationTicks": 121,
          "midi": 70,
          "name": "A#4",
          "ticks": 182656,
          "time": 267.5625,
          "velocity": 0.6850393700787402
        },
        {
          "duration": 0.17724609375,
          "durationTicks": 121,
          "midi": 74,
          "name": "D5",
          "ticks": 182656,
          "time": 267.5625,
          "velocity": 0.6850393700787402
        },
        {
          "duration": 0.5625,
          "durationTicks": 384,
          "midi": 72,
          "name": "C5",
          "ticks": 182784,
          "time": 267.75,
          "velocity": 0.7559055118110236
        },
        {
          "duration": 0.57275390625,
          "durationTicks": 391,
          "midi": 75,
          "name": "D#5",
          "ticks": 182784,
          "time": 267.75,
          "velocity": 0.7559055118110236
        },
        {
          "duration": 0.17724609375,
          "durationTicks": 121,
          "midi": 69,
          "name": "A4",
          "ticks": 183168,
          "time": 268.3125,
          "velocity": 0.7086614173228346
        },
        {
          "duration": 0.17724609375,
          "durationTicks": 121,
          "midi": 72,
          "name": "C5",
          "ticks": 183168,
          "time": 268.3125,
          "velocity": 0.7086614173228346
        },
        {
          "duration": 0.375,
          "durationTicks": 256,
          "midi": 70,
          "name": "A#4",
          "ticks": 183296,
          "time": 268.5,
          "velocity": 0.6929133858267716
        },
        {
          "duration": 0.1904296875,
          "durationTicks": 130,
          "midi": 79,
          "name": "G5",
          "ticks": 185088,
          "time": 271.125,
          "velocity": 0.44881889763779526
        },
        {
          "duration": 0.17724609375,
          "durationTicks": 121,
          "midi": 77,
          "name": "F5",
          "ticks": 185216,
          "time": 271.3125,
          "velocity": 0.4251968503937008
        },
        {
          "duration": 0.1875,
          "durationTicks": 128,
          "midi": 77,
          "name": "F5",
          "ticks": 185344,
          "time": 271.5,
          "velocity": 0.47244094488188976
        },
        {
          "duration": 0.1904296875,
          "durationTicks": 130,
          "midi": 79,
          "name": "G5",
          "ticks": 185600,
          "time": 271.875,
          "velocity": 0.5275590551181102
        },
        {
          "duration": 0.17724609375,
          "durationTicks": 121,
          "midi": 77,
          "name": "F5",
          "ticks": 185728,
          "time": 272.0625,
          "velocity": 0.4645669291338583
        },
        {
          "duration": 0.1875,
          "durationTicks": 128,
          "midi": 77,
          "name": "F5",
          "ticks": 185856,
          "time": 272.25,
          "velocity": 0.47244094488188976
        },
        {
          "duration": 0.1904296875,
          "durationTicks": 130,
          "midi": 79,
          "name": "G5",
          "ticks": 187136,
          "time": 274.125,
          "velocity": 0.4251968503937008
        },
        {
          "duration": 0.17724609375,
          "durationTicks": 121,
          "midi": 77,
          "name": "F5",
          "ticks": 187264,
          "time": 274.3125,
          "velocity": 0.3937007874015748
        },
        {
          "duration": 0.1875,
          "durationTicks": 128,
          "midi": 77,
          "name": "F5",
          "ticks": 187392,
          "time": 274.5,
          "velocity": 0.4251968503937008
        },
        {
          "duration": 0.1904296875,
          "durationTicks": 130,
          "midi": 79,
          "name": "G5",
          "ticks": 187648,
          "time": 274.875,
          "velocity": 0.5275590551181102
        },
        {
          "duration": 0.17724609375,
          "durationTicks": 121,
          "midi": 77,
          "name": "F5",
          "ticks": 187776,
          "time": 275.0625,
          "velocity": 0.5039370078740157
        },
        {
          "duration": 0.1875,
          "durationTicks": 128,
          "midi": 77,
          "name": "F5",
          "ticks": 187904,
          "time": 275.25,
          "velocity": 0.4881889763779528
        },
        {
          "duration": 1.5,
          "durationTicks": 1024,
          "midi": 72,
          "name": "C5",
          "ticks": 188416,
          "time": 276,
          "velocity": 0.6535433070866141
        },
        {
          "duration": 1.5,
          "durationTicks": 1024,
          "midi": 78,
          "name": "F#5",
          "ticks": 188416,
          "time": 276,
          "velocity": 0.6535433070866141
        },
        {
          "duration": 0.75,
          "durationTicks": 512,
          "midi": 70,
          "name": "A#4",
          "ticks": 189440,
          "time": 277.5,
          "velocity": 0.6062992125984252
        },
        {
          "duration": 1.5,
          "durationTicks": 1024,
          "midi": 79,
          "name": "G5",
          "ticks": 189440,
          "time": 277.5,
          "velocity": 0.7244094488188977
        },
        {
          "duration": 0.75,
          "durationTicks": 512,
          "midi": 75,
          "name": "D#5",
          "ticks": 189952,
          "time": 278.25,
          "velocity": 0.8582677165354331
        },
        {
          "duration": 0.5625,
          "durationTicks": 384,
          "midi": 74,
          "name": "D5",
          "ticks": 190464,
          "time": 279,
          "velocity": 0.8110236220472441
        },
        {
          "duration": 0.57275390625,
          "durationTicks": 391,
          "midi": 77,
          "name": "F5",
          "ticks": 190464,
          "time": 279,
          "velocity": 0.8110236220472441
        },
        {
          "duration": 0.17724609375,
          "durationTicks": 121,
          "midi": 70,
          "name": "A#4",
          "ticks": 190848,
          "time": 279.5625,
          "velocity": 0.7322834645669292
        },
        {
          "duration": 0.17724609375,
          "durationTicks": 121,
          "midi": 74,
          "name": "D5",
          "ticks": 190848,
          "time": 279.5625,
          "velocity": 0.7322834645669292
        },
        {
          "duration": 0.5625,
          "durationTicks": 384,
          "midi": 72,
          "name": "C5",
          "ticks": 190976,
          "time": 279.75,
          "velocity": 0.8188976377952756
        },
        {
          "duration": 0.57275390625,
          "durationTicks": 391,
          "midi": 75,
          "name": "D#5",
          "ticks": 190976,
          "time": 279.75,
          "velocity": 0.8188976377952756
        },
        {
          "duration": 0.17724609375,
          "durationTicks": 121,
          "midi": 69,
          "name": "A4",
          "ticks": 191360,
          "time": 280.3125,
          "velocity": 0.7401574803149606
        },
        {
          "duration": 0.17724609375,
          "durationTicks": 121,
          "midi": 72,
          "name": "C5",
          "ticks": 191360,
          "time": 280.3125,
          "velocity": 0.7401574803149606
        },
        {
          "duration": 0.75,
          "durationTicks": 512,
          "midi": 70,
          "name": "A#4",
          "ticks": 191488,
          "time": 280.5,
          "velocity": 0.6614173228346457
        },
        {
          "duration": 0.1875,
          "durationTicks": 128,
          "midi": 77,
          "name": "F5",
          "ticks": 192384,
          "time": 281.8125,
          "velocity": 0.6456692913385826
        },
        {
          "duration": 0.1875,
          "durationTicks": 128,
          "midi": 75,
          "name": "D#5",
          "ticks": 192512,
          "time": 282,
          "velocity": 0.7086614173228346
        },
        {
          "duration": 0.1875,
          "durationTicks": 128,
          "midi": 74,
          "name": "D5",
          "ticks": 192640,
          "time": 282.1875,
          "velocity": 0.7401574803149606
        },
        {
          "duration": 0.1875,
          "durationTicks": 128,
          "midi": 72,
          "name": "C5",
          "ticks": 192768,
          "time": 282.375,
          "velocity": 0.7244094488188977
        },
        {
          "duration": 0.1875,
          "durationTicks": 128,
          "midi": 70,
          "name": "A#4",
          "ticks": 192896,
          "time": 282.5625,
          "velocity": 0.7480314960629921
        },
        {
          "duration": 0.1875,
          "durationTicks": 128,
          "midi": 69,
          "name": "A4",
          "ticks": 193024,
          "time": 282.75,
          "velocity": 0.7480314960629921
        },
        {
          "duration": 0.1875,
          "durationTicks": 128,
          "midi": 67,
          "name": "G4",
          "ticks": 193152,
          "time": 282.9375,
          "velocity": 0.7165354330708661
        },
        {
          "duration": 0.1875,
          "durationTicks": 128,
          "midi": 65,
          "name": "F4",
          "ticks": 193280,
          "time": 283.125,
          "velocity": 0.7244094488188977
        },
        {
          "duration": 0.1875,
          "durationTicks": 128,
          "midi": 63,
          "name": "D#4",
          "ticks": 193408,
          "time": 283.3125,
          "velocity": 0.7401574803149606
        },
        {
          "duration": 0.375,
          "durationTicks": 256,
          "midi": 62,
          "name": "D4",
          "ticks": 193536,
          "time": 283.5,
          "velocity": 0.7086614173228346
        },
        {
          "duration": 0.375,
          "durationTicks": 256,
          "midi": 77,
          "name": "F5",
          "ticks": 193792,
          "time": 283.875,
          "velocity": 0.9921259842519685
        },
        {
          "duration": 0.75,
          "durationTicks": 512,
          "midi": 70,
          "name": "A#4",
          "ticks": 193792,
          "time": 283.875,
          "velocity": 0.905511811023622
        },
        {
          "duration": 0.375,
          "durationTicks": 256,
          "midi": 79,
          "name": "G5",
          "ticks": 194048,
          "time": 284.25,
          "velocity": 0.8503937007874016
        },
        {
          "duration": 0.375,
          "durationTicks": 256,
          "midi": 72,
          "name": "C5",
          "ticks": 194304,
          "time": 284.625,
          "velocity": 0.7007874015748031
        },
        {
          "duration": 0.375,
          "durationTicks": 256,
          "midi": 69,
          "name": "A4",
          "ticks": 194304,
          "time": 284.625,
          "velocity": 0.7559055118110236
        },
        {
          "duration": 0.1875,
          "durationTicks": 128,
          "midi": 70,
          "name": "A#4",
          "ticks": 194560,
          "time": 285,
          "velocity": 0.7165354330708661
        },
        {
          "duration": 0.1875,
          "durationTicks": 128,
          "midi": 65,
          "name": "F4",
          "ticks": 194688,
          "time": 285.1875,
          "velocity": 0.6456692913385826
        },
        {
          "duration": 0.1875,
          "durationTicks": 128,
          "midi": 74,
          "name": "D5",
          "ticks": 194816,
          "time": 285.375,
          "velocity": 0.9291338582677166
        },
        {
          "duration": 0.1875,
          "durationTicks": 128,
          "midi": 72,
          "name": "C5",
          "ticks": 194944,
          "time": 285.5625,
          "velocity": 0.7637795275590551
        },
        {
          "duration": 0.1875,
          "durationTicks": 128,
          "midi": 70,
          "name": "A#4",
          "ticks": 195072,
          "time": 285.75,
          "velocity": 0.7244094488188977
        },
        {
          "duration": 0.1875,
          "durationTicks": 128,
          "midi": 69,
          "name": "A4",
          "ticks": 195200,
          "time": 285.9375,
          "velocity": 0.7322834645669292
        },
        {
          "duration": 0.1875,
          "durationTicks": 128,
          "midi": 67,
          "name": "G4",
          "ticks": 195328,
          "time": 286.125,
          "velocity": 0.7322834645669292
        },
        {
          "duration": 0.1875,
          "durationTicks": 128,
          "midi": 65,
          "name": "F4",
          "ticks": 195456,
          "time": 286.3125,
          "velocity": 0.7480314960629921
        },
        {
          "duration": 0.1875,
          "durationTicks": 128,
          "midi": 63,
          "name": "D#4",
          "ticks": 195584,
          "time": 286.5,
          "velocity": 0.7322834645669292
        },
        {
          "duration": 0.1875,
          "durationTicks": 128,
          "midi": 62,
          "name": "D4",
          "ticks": 195712,
          "time": 286.6875,
          "velocity": 0.7716535433070866
        },
        {
          "duration": 0.1875,
          "durationTicks": 128,
          "midi": 60,
          "name": "C4",
          "ticks": 195840,
          "time": 286.875,
          "velocity": 0.6850393700787402
        },
        {
          "duration": 0.1875,
          "durationTicks": 128,
          "midi": 58,
          "name": "A#3",
          "ticks": 195968,
          "time": 287.0625,
          "velocity": 0.7244094488188977
        },
        {
          "duration": 0.1875,
          "durationTicks": 128,
          "midi": 57,
          "name": "A3",
          "ticks": 196096,
          "time": 287.25,
          "velocity": 0.7637795275590551
        },
        {
          "duration": 0.1875,
          "durationTicks": 128,
          "midi": 60,
          "name": "C4",
          "ticks": 196224,
          "time": 287.4375,
          "velocity": 0.8346456692913385
        },
        {
          "duration": 0.1875,
          "durationTicks": 128,
          "midi": 65,
          "name": "F4",
          "ticks": 196352,
          "time": 287.625,
          "velocity": 0.905511811023622
        },
        {
          "duration": 0.1875,
          "durationTicks": 128,
          "midi": 63,
          "name": "D#4",
          "ticks": 196480,
          "time": 287.8125,
          "velocity": 0.7322834645669292
        },
        {
          "duration": 0.375,
          "durationTicks": 256,
          "midi": 62,
          "name": "D4",
          "ticks": 196608,
          "time": 288,
          "velocity": 0.7244094488188977
        },
        {
          "duration": 0.375,
          "durationTicks": 256,
          "midi": 69,
          "name": "A4",
          "ticks": 197376,
          "time": 289.125,
          "velocity": 0.7086614173228346
        },
        {
          "duration": 0.375,
          "durationTicks": 256,
          "midi": 75,
          "name": "D#5",
          "ticks": 197376,
          "time": 289.125,
          "velocity": 0.7086614173228346
        },
        {
          "duration": 0.375,
          "durationTicks": 256,
          "midi": 70,
          "name": "A#4",
          "ticks": 197632,
          "time": 289.5,
          "velocity": 0.7086614173228346
        },
        {
          "duration": 0.375,
          "durationTicks": 256,
          "midi": 74,
          "name": "D5",
          "ticks": 197632,
          "time": 289.5,
          "velocity": 0.7086614173228346
        },
        {
          "duration": 0.375,
          "durationTicks": 256,
          "midi": 75,
          "name": "D#5",
          "ticks": 197888,
          "time": 289.875,
          "velocity": 0.8661417322834646
        },
        {
          "duration": 0.375,
          "durationTicks": 256,
          "midi": 79,
          "name": "G5",
          "ticks": 197888,
          "time": 289.875,
          "velocity": 0.8661417322834646
        },
        {
          "duration": 0.375,
          "durationTicks": 256,
          "midi": 74,
          "name": "D5",
          "ticks": 198144,
          "time": 290.25,
          "velocity": 0.7637795275590551
        },
        {
          "duration": 0.375,
          "durationTicks": 256,
          "midi": 77,
          "name": "F5",
          "ticks": 198144,
          "time": 290.25,
          "velocity": 0.7637795275590551
        },
        {
          "duration": 0.375,
          "durationTicks": 256,
          "midi": 69,
          "name": "A4",
          "ticks": 198400,
          "time": 290.625,
          "velocity": 0.6771653543307087
        },
        {
          "duration": 0.375,
          "durationTicks": 256,
          "midi": 72,
          "name": "C5",
          "ticks": 198400,
          "time": 290.625,
          "velocity": 0.6771653543307087
        },
        {
          "duration": 0.375,
          "durationTicks": 256,
          "midi": 70,
          "name": "A#4",
          "ticks": 198656,
          "time": 291,
          "velocity": 0.8031496062992126
        },
        {
          "duration": 0.375,
          "durationTicks": 256,
          "midi": 74,
          "name": "D5",
          "ticks": 198656,
          "time": 291,
          "velocity": 0.8031496062992126
        },
        {
          "duration": 0.1875,
          "durationTicks": 128,
          "midi": 70,
          "name": "A#4",
          "ticks": 198912,
          "time": 291.375,
          "velocity": 0.7637795275590551
        },
        {
          "duration": 0.1875,
          "durationTicks": 128,
          "midi": 74,
          "name": "D5",
          "ticks": 198912,
          "time": 291.375,
          "velocity": 0.7637795275590551
        },
        {
          "duration": 0.1875,
          "durationTicks": 128,
          "midi": 70,
          "name": "A#4",
          "ticks": 199040,
          "time": 291.5625,
          "velocity": 0.8031496062992126
        },
        {
          "duration": 0.1875,
          "durationTicks": 128,
          "midi": 74,
          "name": "D5",
          "ticks": 199040,
          "time": 291.5625,
          "velocity": 0.8031496062992126
        },
        {
          "duration": 0.375,
          "durationTicks": 256,
          "midi": 69,
          "name": "A4",
          "ticks": 199168,
          "time": 291.75,
          "velocity": 0.6850393700787402
        },
        {
          "duration": 0.375,
          "durationTicks": 256,
          "midi": 72,
          "name": "C5",
          "ticks": 199168,
          "time": 291.75,
          "velocity": 0.6850393700787402
        },
        {
          "duration": 0.1875,
          "durationTicks": 128,
          "midi": 69,
          "name": "A4",
          "ticks": 199424,
          "time": 292.125,
          "velocity": 0.7559055118110236
        },
        {
          "duration": 0.1875,
          "durationTicks": 128,
          "midi": 72,
          "name": "C5",
          "ticks": 199424,
          "time": 292.125,
          "velocity": 0.7559055118110236
        },
        {
          "duration": 0.1875,
          "durationTicks": 128,
          "midi": 69,
          "name": "A4",
          "ticks": 199552,
          "time": 292.3125,
          "velocity": 0.7716535433070866
        },
        {
          "duration": 0.1875,
          "durationTicks": 128,
          "midi": 72,
          "name": "C5",
          "ticks": 199552,
          "time": 292.3125,
          "velocity": 0.7716535433070866
        },
        {
          "duration": 0.375,
          "durationTicks": 256,
          "midi": 70,
          "name": "A#4",
          "ticks": 199680,
          "time": 292.5,
          "velocity": 0.8503937007874016
        },
        {
          "duration": 0.375,
          "durationTicks": 256,
          "midi": 74,
          "name": "D5",
          "ticks": 199680,
          "time": 292.5,
          "velocity": 0.8503937007874016
        },
        {
          "duration": 0.1875,
          "durationTicks": 128,
          "midi": 70,
          "name": "A#4",
          "ticks": 199936,
          "time": 292.875,
          "velocity": 0.7716535433070866
        },
        {
          "duration": 0.1875,
          "durationTicks": 128,
          "midi": 74,
          "name": "D5",
          "ticks": 199936,
          "time": 292.875,
          "velocity": 0.7716535433070866
        },
        {
          "duration": 0.1875,
          "durationTicks": 128,
          "midi": 70,
          "name": "A#4",
          "ticks": 200064,
          "time": 293.0625,
          "velocity": 0.7480314960629921
        },
        {
          "duration": 0.1875,
          "durationTicks": 128,
          "midi": 74,
          "name": "D5",
          "ticks": 200064,
          "time": 293.0625,
          "velocity": 0.7480314960629921
        },
        {
          "duration": 0.375,
          "durationTicks": 256,
          "midi": 69,
          "name": "A4",
          "ticks": 200192,
          "time": 293.25,
          "velocity": 0.7165354330708661
        },
        {
          "duration": 0.375,
          "durationTicks": 256,
          "midi": 72,
          "name": "C5",
          "ticks": 200192,
          "time": 293.25,
          "velocity": 0.7165354330708661
        },
        {
          "duration": 0.1875,
          "durationTicks": 128,
          "midi": 69,
          "name": "A4",
          "ticks": 200448,
          "time": 293.625,
          "velocity": 0.7795275590551181
        },
        {
          "duration": 0.1875,
          "durationTicks": 128,
          "midi": 72,
          "name": "C5",
          "ticks": 200448,
          "time": 293.625,
          "velocity": 0.7795275590551181
        },
        {
          "duration": 0.1875,
          "durationTicks": 128,
          "midi": 69,
          "name": "A4",
          "ticks": 200576,
          "time": 293.8125,
          "velocity": 0.7401574803149606
        },
        {
          "duration": 0.1875,
          "durationTicks": 128,
          "midi": 72,
          "name": "C5",
          "ticks": 200576,
          "time": 293.8125,
          "velocity": 0.7401574803149606
        },
        {
          "duration": 0.375,
          "durationTicks": 256,
          "midi": 70,
          "name": "A#4",
          "ticks": 200704,
          "time": 294,
          "velocity": 0.8267716535433071
        },
        {
          "duration": 0.375,
          "durationTicks": 256,
          "midi": 74,
          "name": "D5",
          "ticks": 200704,
          "time": 294,
          "velocity": 0.8267716535433071
        },
        {
          "duration": 0.1875,
          "durationTicks": 128,
          "midi": 70,
          "name": "A#4",
          "ticks": 200960,
          "time": 294.375,
          "velocity": 0.7559055118110236
        },
        {
          "duration": 0.1875,
          "durationTicks": 128,
          "midi": 74,
          "name": "D5",
          "ticks": 200960,
          "time": 294.375,
          "velocity": 0.7559055118110236
        },
        {
          "duration": 0.1875,
          "durationTicks": 128,
          "midi": 70,
          "name": "A#4",
          "ticks": 201088,
          "time": 294.5625,
          "velocity": 0.7637795275590551
        },
        {
          "duration": 0.1875,
          "durationTicks": 128,
          "midi": 74,
          "name": "D5",
          "ticks": 201088,
          "time": 294.5625,
          "velocity": 0.7637795275590551
        },
        {
          "duration": 0.375,
          "durationTicks": 256,
          "midi": 69,
          "name": "A4",
          "ticks": 201216,
          "time": 294.75,
          "velocity": 0.7322834645669292
        },
        {
          "duration": 0.375,
          "durationTicks": 256,
          "midi": 72,
          "name": "C5",
          "ticks": 201216,
          "time": 294.75,
          "velocity": 0.7322834645669292
        },
        {
          "duration": 0.1875,
          "durationTicks": 128,
          "midi": 69,
          "name": "A4",
          "ticks": 201472,
          "time": 295.125,
          "velocity": 0.7637795275590551
        },
        {
          "duration": 0.1875,
          "durationTicks": 128,
          "midi": 72,
          "name": "C5",
          "ticks": 201472,
          "time": 295.125,
          "velocity": 0.7637795275590551
        },
        {
          "duration": 0.1875,
          "durationTicks": 128,
          "midi": 69,
          "name": "A4",
          "ticks": 201600,
          "time": 295.3125,
          "velocity": 0.7952755905511811
        },
        {
          "duration": 0.1875,
          "durationTicks": 128,
          "midi": 72,
          "name": "C5",
          "ticks": 201600,
          "time": 295.3125,
          "velocity": 0.7952755905511811
        },
        {
          "duration": 0.375,
          "durationTicks": 256,
          "midi": 70,
          "name": "A#4",
          "ticks": 201728,
          "time": 295.5,
          "velocity": 0.8188976377952756
        },
        {
          "duration": 0.375,
          "durationTicks": 256,
          "midi": 74,
          "name": "D5",
          "ticks": 201728,
          "time": 295.5,
          "velocity": 0.8188976377952756
        },
        {
          "duration": 0.375,
          "durationTicks": 256,
          "midi": 69,
          "name": "A4",
          "ticks": 201984,
          "time": 295.875,
          "velocity": 0.7165354330708661
        },
        {
          "duration": 0.375,
          "durationTicks": 256,
          "midi": 72,
          "name": "C5",
          "ticks": 201984,
          "time": 295.875,
          "velocity": 0.7165354330708661
        },
        {
          "duration": 0.375,
          "durationTicks": 256,
          "midi": 70,
          "name": "A#4",
          "ticks": 202240,
          "time": 296.25,
          "velocity": 0.8188976377952756
        },
        {
          "duration": 0.375,
          "durationTicks": 256,
          "midi": 74,
          "name": "D5",
          "ticks": 202240,
          "time": 296.25,
          "velocity": 0.8188976377952756
        },
        {
          "duration": 0.375,
          "durationTicks": 256,
          "midi": 69,
          "name": "A4",
          "ticks": 202496,
          "time": 296.625,
          "velocity": 0.7559055118110236
        },
        {
          "duration": 0.375,
          "durationTicks": 256,
          "midi": 72,
          "name": "C5",
          "ticks": 202496,
          "time": 296.625,
          "velocity": 0.7559055118110236
        },
        {
          "duration": 0.375,
          "durationTicks": 256,
          "midi": 70,
          "name": "A#4",
          "ticks": 202752,
          "time": 297,
          "velocity": 0.84251968503937
        },
        {
          "duration": 0.375,
          "durationTicks": 256,
          "midi": 74,
          "name": "D5",
          "ticks": 202752,
          "time": 297,
          "velocity": 0.84251968503937
        },
        {
          "duration": 0.375,
          "durationTicks": 256,
          "midi": 72,
          "name": "C5",
          "ticks": 203776,
          "time": 298.5,
          "velocity": 0.6614173228346457
        },
        {
          "duration": 0.375,
          "durationTicks": 256,
          "midi": 78,
          "name": "F#5",
          "ticks": 203776,
          "time": 298.5,
          "velocity": 0.6614173228346457
        },
        {
          "duration": 0.375,
          "durationTicks": 256,
          "midi": 70,
          "name": "A#4",
          "ticks": 204800,
          "time": 300,
          "velocity": 0.6929133858267716
        },
        {
          "duration": 0.375,
          "durationTicks": 256,
          "midi": 79,
          "name": "G5",
          "ticks": 204800,
          "time": 300,
          "velocity": 0.6929133858267716
        },
        {
          "duration": 0.375,
          "durationTicks": 256,
          "midi": 71,
          "name": "B4",
          "ticks": 205312,
          "time": 300.75,
          "velocity": 0.7007874015748031
        },
        {
          "duration": 0.375,
          "durationTicks": 256,
          "midi": 80,
          "name": "G#5",
          "ticks": 205312,
          "time": 300.75,
          "velocity": 0.7007874015748031
        },
        {
          "duration": 0.375,
          "durationTicks": 256,
          "midi": 81,
          "name": "A5",
          "ticks": 218880,
          "time": 320.625,
          "velocity": 0.6771653543307087
        },
        {
          "duration": 0.75,
          "durationTicks": 512,
          "midi": 78,
          "name": "F#5",
          "ticks": 218880,
          "time": 320.625,
          "velocity": 0.7007874015748031
        },
        {
          "duration": 0.75,
          "durationTicks": 512,
          "midi": 79,
          "name": "G5",
          "ticks": 219136,
          "time": 321,
          "velocity": 0.6850393700787402
        },
        {
          "duration": 0.75,
          "durationTicks": 512,
          "midi": 76,
          "name": "E5",
          "ticks": 219392,
          "time": 321.375,
          "velocity": 0.7637795275590551
        },
        {
          "duration": 0.75,
          "durationTicks": 512,
          "midi": 78,
          "name": "F#5",
          "ticks": 219648,
          "time": 321.75,
          "velocity": 0.7086614173228346
        },
        {
          "duration": 0.375,
          "durationTicks": 256,
          "midi": 75,
          "name": "D#5",
          "ticks": 219904,
          "time": 322.125,
          "velocity": 0.7795275590551181
        },
        {
          "duration": 0.375,
          "durationTicks": 256,
          "midi": 79,
          "name": "G5",
          "ticks": 220160,
          "time": 322.5,
          "velocity": 0.8188976377952756
        },
        {
          "duration": 0.375,
          "durationTicks": 256,
          "midi": 76,
          "name": "E5",
          "ticks": 220160,
          "time": 322.5,
          "velocity": 0.7952755905511811
        },
        {
          "duration": 0.75,
          "durationTicks": 512,
          "midi": 76,
          "name": "E5",
          "ticks": 222976,
          "time": 326.625,
          "velocity": 0.6771653543307087
        },
        {
          "duration": 0.75,
          "durationTicks": 512,
          "midi": 74,
          "name": "D5",
          "ticks": 223488,
          "time": 327.375,
          "velocity": 0.7322834645669292
        },
        {
          "duration": 0.375,
          "durationTicks": 256,
          "midi": 73,
          "name": "C#5",
          "ticks": 224000,
          "time": 328.125,
          "velocity": 0.7244094488188977
        },
        {
          "duration": 0.375,
          "durationTicks": 256,
          "midi": 74,
          "name": "D5",
          "ticks": 224256,
          "time": 328.5,
          "velocity": 0.7795275590551181
        },
        {
          "duration": 1.125,
          "durationTicks": 768,
          "midi": 67,
          "name": "G4",
          "ticks": 226304,
          "time": 331.5,
          "velocity": 0.7086614173228346
        },
        {
          "duration": 0.75,
          "durationTicks": 512,
          "midi": 74,
          "name": "D5",
          "ticks": 227072,
          "time": 332.625,
          "velocity": 0.8818897637795275
        },
        {
          "duration": 0.75,
          "durationTicks": 512,
          "midi": 72,
          "name": "C5",
          "ticks": 227584,
          "time": 333.375,
          "velocity": 0.7165354330708661
        },
        {
          "duration": 0.375,
          "durationTicks": 256,
          "midi": 71,
          "name": "B4",
          "ticks": 228096,
          "time": 334.125,
          "velocity": 0.7637795275590551
        },
        {
          "duration": 0.375,
          "durationTicks": 256,
          "midi": 72,
          "name": "C5",
          "ticks": 228352,
          "time": 334.5,
          "velocity": 0.7952755905511811
        },
        {
          "duration": 3,
          "durationTicks": 2048,
          "midi": 74,
          "name": "D5",
          "ticks": 232448,
          "time": 340.5,
          "velocity": 0.6850393700787402
        },
        {
          "duration": 0.75,
          "durationTicks": 512,
          "midi": 70,
          "name": "A#4",
          "ticks": 232448,
          "time": 340.5,
          "velocity": 0.6771653543307087
        },
        {
          "duration": 0.75,
          "durationTicks": 512,
          "midi": 65,
          "name": "F4",
          "ticks": 232960,
          "time": 341.25,
          "velocity": 0.6377952755905512
        },
        {
          "duration": 1.875,
          "durationTicks": 1280,
          "midi": 74,
          "name": "D5",
          "ticks": 233472,
          "time": 342,
          "velocity": 0.9291338582677166
        },
        {
          "duration": 0.375,
          "durationTicks": 256,
          "midi": 74,
          "name": "D5",
          "ticks": 234496,
          "time": 343.5,
          "velocity": 0.7716535433070866
        },
        {
          "duration": 0.1875,
          "durationTicks": 128,
          "midi": 72,
          "name": "C5",
          "ticks": 234752,
          "time": 343.875,
          "velocity": 0.7244094488188977
        },
        {
          "duration": 0.1875,
          "durationTicks": 128,
          "midi": 70,
          "name": "A#4",
          "ticks": 234880,
          "time": 344.0625,
          "velocity": 0.7322834645669292
        },
        {
          "duration": 2.625,
          "durationTicks": 1792,
          "midi": 72,
          "name": "C5",
          "ticks": 235008,
          "time": 344.25,
          "velocity": 0.8188976377952756
        },
        {
          "duration": 0.1875,
          "durationTicks": 128,
          "midi": 70,
          "name": "A#4",
          "ticks": 236800,
          "time": 346.875,
          "velocity": 0.7244094488188977
        },
        {
          "duration": 0.1875,
          "durationTicks": 128,
          "midi": 69,
          "name": "A4",
          "ticks": 236928,
          "time": 347.0625,
          "velocity": 0.7244094488188977
        },
        {
          "duration": 0.375,
          "durationTicks": 256,
          "midi": 70,
          "name": "A#4",
          "ticks": 237056,
          "time": 347.25,
          "velocity": 0.84251968503937
        },
        {
          "duration": 0.57275390625,
          "durationTicks": 391,
          "midi": 79,
          "name": "G5",
          "ticks": 237568,
          "time": 348,
          "velocity": 0.6929133858267716
        },
        {
          "duration": 0.17724609375,
          "durationTicks": 121,
          "midi": 77,
          "name": "F5",
          "ticks": 237952,
          "time": 348.5625,
          "velocity": 0.6456692913385826
        },
        {
          "duration": 0.57275390625,
          "durationTicks": 391,
          "midi": 76,
          "name": "E5",
          "ticks": 238080,
          "time": 348.75,
          "velocity": 0.7480314960629921
        },
        {
          "duration": 0.17724609375,
          "durationTicks": 121,
          "midi": 74,
          "name": "D5",
          "ticks": 238464,
          "time": 349.3125,
          "velocity": 0.6929133858267716
        },
        {
          "duration": 0.7646484375,
          "durationTicks": 522,
          "midi": 73,
          "name": "C#5",
          "ticks": 238592,
          "time": 349.5,
          "velocity": 0.7559055118110236
        },
        {
          "duration": 0.7119140625,
          "durationTicks": 486,
          "midi": 74,
          "name": "D5",
          "ticks": 239104,
          "time": 350.25,
          "velocity": 0.8503937007874016
        },
        {
          "duration": 0.7119140625,
          "durationTicks": 486,
          "midi": 77,
          "name": "F5",
          "ticks": 239104,
          "time": 350.25,
          "velocity": 0.8503937007874016
        },
        {
          "duration": 0.7646484375,
          "durationTicks": 522,
          "midi": 73,
          "name": "C#5",
          "ticks": 239616,
          "time": 351,
          "velocity": 0.7480314960629921
        },
        {
          "duration": 0.7646484375,
          "durationTicks": 522,
          "midi": 76,
          "name": "E5",
          "ticks": 239616,
          "time": 351,
          "velocity": 0.7480314960629921
        },
        {
          "duration": 0.7119140625,
          "durationTicks": 486,
          "midi": 74,
          "name": "D5",
          "ticks": 240128,
          "time": 351.75,
          "velocity": 0.7716535433070866
        },
        {
          "duration": 0.7119140625,
          "durationTicks": 486,
          "midi": 77,
          "name": "F5",
          "ticks": 240128,
          "time": 351.75,
          "velocity": 0.7716535433070866
        },
        {
          "duration": 0.7646484375,
          "durationTicks": 522,
          "midi": 73,
          "name": "C#5",
          "ticks": 240640,
          "time": 352.5,
          "velocity": 0.7086614173228346
        },
        {
          "duration": 0.7646484375,
          "durationTicks": 522,
          "midi": 76,
          "name": "E5",
          "ticks": 240640,
          "time": 352.5,
          "velocity": 0.7086614173228346
        },
        {
          "duration": 0.7646484375,
          "durationTicks": 522,
          "midi": 74,
          "name": "D5",
          "ticks": 241152,
          "time": 353.25,
          "velocity": 0.7480314960629921
        },
        {
          "duration": 0.7646484375,
          "durationTicks": 522,
          "midi": 77,
          "name": "F5",
          "ticks": 241152,
          "time": 353.25,
          "velocity": 0.7480314960629921
        },
        {
          "duration": 0.7646484375,
          "durationTicks": 522,
          "midi": 73,
          "name": "C#5",
          "ticks": 241664,
          "time": 354,
          "velocity": 0.7165354330708661
        },
        {
          "duration": 0.7646484375,
          "durationTicks": 522,
          "midi": 76,
          "name": "E5",
          "ticks": 241664,
          "time": 354,
          "velocity": 0.7165354330708661
        },
        {
          "duration": 0.7646484375,
          "durationTicks": 522,
          "midi": 74,
          "name": "D5",
          "ticks": 242176,
          "time": 354.75,
          "velocity": 0.7244094488188977
        },
        {
          "duration": 0.7646484375,
          "durationTicks": 522,
          "midi": 77,
          "name": "F5",
          "ticks": 242176,
          "time": 354.75,
          "velocity": 0.7244094488188977
        },
        {
          "duration": 0.7119140625,
          "durationTicks": 486,
          "midi": 73,
          "name": "C#5",
          "ticks": 242688,
          "time": 355.5,
          "velocity": 0.7480314960629921
        },
        {
          "duration": 0.7119140625,
          "durationTicks": 486,
          "midi": 76,
          "name": "E5",
          "ticks": 242688,
          "time": 355.5,
          "velocity": 0.7480314960629921
        },
        {
          "duration": 0.1904296875,
          "durationTicks": 130,
          "midi": 73,
          "name": "C#5",
          "ticks": 244480,
          "time": 358.125,
          "velocity": 0.41732283464566927
        },
        {
          "duration": 0.17724609375,
          "durationTicks": 121,
          "midi": 72,
          "name": "C5",
          "ticks": 244608,
          "time": 358.3125,
          "velocity": 0.3858267716535433
        },
        {
          "duration": 0.1875,
          "durationTicks": 128,
          "midi": 72,
          "name": "C5",
          "ticks": 244736,
          "time": 358.5,
          "velocity": 0.4881889763779528
        },
        {
          "duration": 4.5,
          "durationTicks": 3072,
          "midi": 65,
          "name": "F4",
          "ticks": 244736,
          "time": 358.5,
          "velocity": 0.4251968503937008
        },
        {
          "duration": 0.1904296875,
          "durationTicks": 130,
          "midi": 73,
          "name": "C#5",
          "ticks": 244992,
          "time": 358.875,
          "velocity": 0.48031496062992124
        },
        {
          "duration": 0.17724609375,
          "durationTicks": 121,
          "midi": 72,
          "name": "C5",
          "ticks": 245120,
          "time": 359.0625,
          "velocity": 0.4330708661417323
        },
        {
          "duration": 0.1875,
          "durationTicks": 128,
          "midi": 72,
          "name": "C5",
          "ticks": 245248,
          "time": 359.25,
          "velocity": 0.48031496062992124
        },
        {
          "duration": 0.1875,
          "durationTicks": 128,
          "midi": 72,
          "name": "C5",
          "ticks": 245504,
          "time": 359.625,
          "velocity": 0.49606299212598426
        },
        {
          "duration": 0.1904296875,
          "durationTicks": 130,
          "midi": 75,
          "name": "D#5",
          "ticks": 246528,
          "time": 361.125,
          "velocity": 0.4330708661417323
        },
        {
          "duration": 0.17724609375,
          "durationTicks": 121,
          "midi": 73,
          "name": "C#5",
          "ticks": 246656,
          "time": 361.3125,
          "velocity": 0.41732283464566927
        },
        {
          "duration": 0.1875,
          "durationTicks": 128,
          "midi": 73,
          "name": "C#5",
          "ticks": 246784,
          "time": 361.5,
          "velocity": 0.4881889763779528
        },
        {
          "duration": 0.1904296875,
          "durationTicks": 130,
          "midi": 75,
          "name": "D#5",
          "ticks": 247040,
          "time": 361.875,
          "velocity": 0.5275590551181102
        },
        {
          "duration": 0.17724609375,
          "durationTicks": 121,
          "midi": 73,
          "name": "C#5",
          "ticks": 247168,
          "time": 362.0625,
          "velocity": 0.5354330708661418
        },
        {
          "duration": 0.1875,
          "durationTicks": 128,
          "midi": 73,
          "name": "C#5",
          "ticks": 247296,
          "time": 362.25,
          "velocity": 0.44881889763779526
        },
        {
          "duration": 0.1875,
          "durationTicks": 128,
          "midi": 73,
          "name": "C#5",
          "ticks": 247552,
          "time": 362.625,
          "velocity": 0.47244094488188976
        },
        {
          "duration": 6,
          "durationTicks": 4096,
          "midi": 67,
          "name": "G4",
          "ticks": 247808,
          "time": 363,
          "velocity": 0.5118110236220472
        },
        {
          "duration": 0.1904296875,
          "durationTicks": 130,
          "midi": 75,
          "name": "D#5",
          "ticks": 248576,
          "time": 364.125,
          "velocity": 0.4251968503937008
        },
        {
          "duration": 0.17724609375,
          "durationTicks": 121,
          "midi": 74,
          "name": "D5",
          "ticks": 248704,
          "time": 364.3125,
          "velocity": 0.3700787401574803
        },
        {
          "duration": 0.1875,
          "durationTicks": 128,
          "midi": 74,
          "name": "D5",
          "ticks": 248832,
          "time": 364.5,
          "velocity": 0.47244094488188976
        },
        {
          "duration": 0.1904296875,
          "durationTicks": 130,
          "midi": 75,
          "name": "D#5",
          "ticks": 249088,
          "time": 364.875,
          "velocity": 0.49606299212598426
        },
        {
          "duration": 0.17724609375,
          "durationTicks": 121,
          "midi": 74,
          "name": "D5",
          "ticks": 249216,
          "time": 365.0625,
          "velocity": 0.48031496062992124
        },
        {
          "duration": 0.1875,
          "durationTicks": 128,
          "midi": 74,
          "name": "D5",
          "ticks": 249344,
          "time": 365.25,
          "velocity": 0.4566929133858268
        },
        {
          "duration": 0.1875,
          "durationTicks": 128,
          "midi": 74,
          "name": "D5",
          "ticks": 249600,
          "time": 365.625,
          "velocity": 0.49606299212598426
        },
        {
          "duration": 0.1904296875,
          "durationTicks": 130,
          "midi": 77,
          "name": "F5",
          "ticks": 250624,
          "time": 367.125,
          "velocity": 0.41732283464566927
        },
        {
          "duration": 0.17724609375,
          "durationTicks": 121,
          "midi": 75,
          "name": "D#5",
          "ticks": 250752,
          "time": 367.3125,
          "velocity": 0.3858267716535433
        },
        {
          "duration": 0.1875,
          "durationTicks": 128,
          "midi": 75,
          "name": "D#5",
          "ticks": 250880,
          "time": 367.5,
          "velocity": 0.48031496062992124
        },
        {
          "duration": 0.1904296875,
          "durationTicks": 130,
          "midi": 77,
          "name": "F5",
          "ticks": 251136,
          "time": 367.875,
          "velocity": 0.5354330708661418
        },
        {
          "duration": 0.17724609375,
          "durationTicks": 121,
          "midi": 75,
          "name": "D#5",
          "ticks": 251264,
          "time": 368.0625,
          "velocity": 0.49606299212598426
        },
        {
          "duration": 0.1875,
          "durationTicks": 128,
          "midi": 75,
          "name": "D#5",
          "ticks": 251392,
          "time": 368.25,
          "velocity": 0.4881889763779528
        },
        {
          "duration": 0.1875,
          "durationTicks": 128,
          "midi": 75,
          "name": "D#5",
          "ticks": 251648,
          "time": 368.625,
          "velocity": 0.4645669291338583
        },
        {
          "duration": 0.1904296875,
          "durationTicks": 130,
          "midi": 74,
          "name": "D5",
          "ticks": 253184,
          "time": 370.875,
          "velocity": 0.4409448818897638
        },
        {
          "duration": 0.1904296875,
          "durationTicks": 130,
          "midi": 80,
          "name": "G#5",
          "ticks": 253184,
          "time": 370.875,
          "velocity": 0.4409448818897638
        },
        {
          "duration": 0.17724609375,
          "durationTicks": 121,
          "midi": 75,
          "name": "D#5",
          "ticks": 253312,
          "time": 371.0625,
          "velocity": 0.48031496062992124
        },
        {
          "duration": 0.17724609375,
          "durationTicks": 121,
          "midi": 81,
          "name": "A5",
          "ticks": 253312,
          "time": 371.0625,
          "velocity": 0.48031496062992124
        },
        {
          "duration": 0.1875,
          "durationTicks": 128,
          "midi": 75,
          "name": "D#5",
          "ticks": 253440,
          "time": 371.25,
          "velocity": 0.48031496062992124
        },
        {
          "duration": 0.1875,
          "durationTicks": 128,
          "midi": 81,
          "name": "A5",
          "ticks": 253440,
          "time": 371.25,
          "velocity": 0.48031496062992124
        },
        {
          "duration": 0.1904296875,
          "durationTicks": 130,
          "midi": 71,
          "name": "B4",
          "ticks": 255232,
          "time": 373.875,
          "velocity": 0.4330708661417323
        },
        {
          "duration": 0.1904296875,
          "durationTicks": 130,
          "midi": 80,
          "name": "G#5",
          "ticks": 255232,
          "time": 373.875,
          "velocity": 0.4330708661417323
        },
        {
          "duration": 0.17724609375,
          "durationTicks": 121,
          "midi": 72,
          "name": "C5",
          "ticks": 255360,
          "time": 374.0625,
          "velocity": 0.4330708661417323
        },
        {
          "duration": 0.17724609375,
          "durationTicks": 121,
          "midi": 81,
          "name": "A5",
          "ticks": 255360,
          "time": 374.0625,
          "velocity": 0.4330708661417323
        },
        {
          "duration": 0.1875,
          "durationTicks": 128,
          "midi": 72,
          "name": "C5",
          "ticks": 255488,
          "time": 374.25,
          "velocity": 0.5275590551181102
        },
        {
          "duration": 0.1875,
          "durationTicks": 128,
          "midi": 81,
          "name": "A5",
          "ticks": 255488,
          "time": 374.25,
          "velocity": 0.5275590551181102
        },
        {
          "duration": 0.1904296875,
          "durationTicks": 130,
          "midi": 71,
          "name": "B4",
          "ticks": 257280,
          "time": 376.875,
          "velocity": 0.44881889763779526
        },
        {
          "duration": 0.1904296875,
          "durationTicks": 130,
          "midi": 80,
          "name": "G#5",
          "ticks": 257280,
          "time": 376.875,
          "velocity": 0.44881889763779526
        },
        {
          "duration": 0.17724609375,
          "durationTicks": 121,
          "midi": 72,
          "name": "C5",
          "ticks": 257408,
          "time": 377.0625,
          "velocity": 0.47244094488188976
        },
        {
          "duration": 0.17724609375,
          "durationTicks": 121,
          "midi": 81,
          "name": "A5",
          "ticks": 257408,
          "time": 377.0625,
          "velocity": 0.47244094488188976
        },
        {
          "duration": 0.1875,
          "durationTicks": 128,
          "midi": 72,
          "name": "C5",
          "ticks": 257536,
          "time": 377.25,
          "velocity": 0.4566929133858268
        },
        {
          "duration": 0.1875,
          "durationTicks": 128,
          "midi": 81,
          "name": "A5",
          "ticks": 257536,
          "time": 377.25,
          "velocity": 0.4566929133858268
        },
        {
          "duration": 0.38232421875,
          "durationTicks": 261,
          "midi": 69,
          "name": "A4",
          "ticks": 258048,
          "time": 378,
          "velocity": 0.6692913385826772
        },
        {
          "duration": 0.375,
          "durationTicks": 256,
          "midi": 72,
          "name": "C5",
          "ticks": 258048,
          "time": 378,
          "velocity": 0.6692913385826772
        },
        {
          "duration": 0.38232421875,
          "durationTicks": 261,
          "midi": 72,
          "name": "C5",
          "ticks": 258304,
          "time": 378.375,
          "velocity": 0.7086614173228346
        },
        {
          "duration": 0.375,
          "durationTicks": 256,
          "midi": 75,
          "name": "D#5",
          "ticks": 258304,
          "time": 378.375,
          "velocity": 0.7086614173228346
        },
        {
          "duration": 0.35595703125,
          "durationTicks": 243,
          "midi": 75,
          "name": "D#5",
          "ticks": 258560,
          "time": 378.75,
          "velocity": 0.889763779527559
        },
        {
          "duration": 0.35595703125,
          "durationTicks": 243,
          "midi": 78,
          "name": "F#5",
          "ticks": 258560,
          "time": 378.75,
          "velocity": 0.889763779527559
        },
        {
          "duration": 0.38232421875,
          "durationTicks": 261,
          "midi": 67,
          "name": "G4",
          "ticks": 259072,
          "time": 379.5,
          "velocity": 0.7086614173228346
        },
        {
          "duration": 0.375,
          "durationTicks": 256,
          "midi": 70,
          "name": "A#4",
          "ticks": 259072,
          "time": 379.5,
          "velocity": 0.7086614173228346
        },
        {
          "duration": 0.38232421875,
          "durationTicks": 261,
          "midi": 70,
          "name": "A#4",
          "ticks": 259328,
          "time": 379.875,
          "velocity": 0.7874015748031497
        },
        {
          "duration": 0.375,
          "durationTicks": 256,
          "midi": 74,
          "name": "D5",
          "ticks": 259328,
          "time": 379.875,
          "velocity": 0.7874015748031497
        },
        {
          "duration": 0.35595703125,
          "durationTicks": 243,
          "midi": 74,
          "name": "D5",
          "ticks": 259584,
          "time": 380.25,
          "velocity": 0.8818897637795275
        },
        {
          "duration": 0.35595703125,
          "durationTicks": 243,
          "midi": 79,
          "name": "G5",
          "ticks": 259584,
          "time": 380.25,
          "velocity": 0.8818897637795275
        },
        {
          "duration": 0.375,
          "durationTicks": 256,
          "midi": 76,
          "name": "E5",
          "ticks": 260096,
          "time": 381,
          "velocity": 0.6535433070866141
        },
        {
          "duration": 0.38232421875,
          "durationTicks": 261,
          "midi": 79,
          "name": "G5",
          "ticks": 260096,
          "time": 381,
          "velocity": 0.6535433070866141
        },
        {
          "duration": 0.375,
          "durationTicks": 256,
          "midi": 73,
          "name": "C#5",
          "ticks": 260352,
          "time": 381.375,
          "velocity": 0.6062992125984252
        },
        {
          "duration": 0.38232421875,
          "durationTicks": 261,
          "midi": 76,
          "name": "E5",
          "ticks": 260352,
          "time": 381.375,
          "velocity": 0.6062992125984252
        },
        {
          "duration": 0.35595703125,
          "durationTicks": 243,
          "midi": 70,
          "name": "A#4",
          "ticks": 260608,
          "time": 381.75,
          "velocity": 0.6535433070866141
        },
        {
          "duration": 0.35595703125,
          "durationTicks": 243,
          "midi": 73,
          "name": "C#5",
          "ticks": 260608,
          "time": 381.75,
          "velocity": 0.6535433070866141
        },
        {
          "duration": 0.375,
          "durationTicks": 256,
          "midi": 69,
          "name": "A4",
          "ticks": 261120,
          "time": 382.5,
          "velocity": 0.7007874015748031
        },
        {
          "duration": 0.38232421875,
          "durationTicks": 261,
          "midi": 74,
          "name": "D5",
          "ticks": 261120,
          "time": 382.5,
          "velocity": 0.7007874015748031
        },
        {
          "duration": 0.375,
          "durationTicks": 256,
          "midi": 66,
          "name": "F#4",
          "ticks": 261376,
          "time": 382.875,
          "velocity": 0.6062992125984252
        },
        {
          "duration": 0.38232421875,
          "durationTicks": 261,
          "midi": 69,
          "name": "A4",
          "ticks": 261376,
          "time": 382.875,
          "velocity": 0.6062992125984252
        },
        {
          "duration": 0.35595703125,
          "durationTicks": 243,
          "midi": 62,
          "name": "D4",
          "ticks": 261632,
          "time": 383.25,
          "velocity": 0.6535433070866141
        },
        {
          "duration": 0.35595703125,
          "durationTicks": 243,
          "midi": 66,
          "name": "F#4",
          "ticks": 261632,
          "time": 383.25,
          "velocity": 0.6535433070866141
        },
        {
          "duration": 0.38232421875,
          "durationTicks": 261,
          "midi": 66,
          "name": "F#4",
          "ticks": 262144,
          "time": 384,
          "velocity": 0.6850393700787402
        },
        {
          "duration": 0.375,
          "durationTicks": 256,
          "midi": 69,
          "name": "A4",
          "ticks": 262144,
          "time": 384,
          "velocity": 0.6850393700787402
        },
        {
          "duration": 0.38232421875,
          "durationTicks": 261,
          "midi": 69,
          "name": "A4",
          "ticks": 262400,
          "time": 384.375,
          "velocity": 0.7322834645669292
        },
        {
          "duration": 0.375,
          "durationTicks": 256,
          "midi": 72,
          "name": "C5",
          "ticks": 262400,
          "time": 384.375,
          "velocity": 0.7322834645669292
        },
        {
          "duration": 0.35595703125,
          "durationTicks": 243,
          "midi": 72,
          "name": "C5",
          "ticks": 262656,
          "time": 384.75,
          "velocity": 0.9133858267716536
        },
        {
          "duration": 0.35595703125,
          "durationTicks": 243,
          "midi": 78,
          "name": "F#5",
          "ticks": 262656,
          "time": 384.75,
          "velocity": 0.9133858267716536
        },
        {
          "duration": 0.38232421875,
          "durationTicks": 261,
          "midi": 67,
          "name": "G4",
          "ticks": 263168,
          "time": 385.5,
          "velocity": 0.6771653543307087
        },
        {
          "duration": 0.375,
          "durationTicks": 256,
          "midi": 70,
          "name": "A#4",
          "ticks": 263168,
          "time": 385.5,
          "velocity": 0.6771653543307087
        },
        {
          "duration": 0.38232421875,
          "durationTicks": 261,
          "midi": 70,
          "name": "A#4",
          "ticks": 263424,
          "time": 385.875,
          "velocity": 0.7401574803149606
        },
        {
          "duration": 0.375,
          "durationTicks": 256,
          "midi": 74,
          "name": "D5",
          "ticks": 263424,
          "time": 385.875,
          "velocity": 0.7401574803149606
        },
        {
          "duration": 0.35595703125,
          "durationTicks": 243,
          "midi": 74,
          "name": "D5",
          "ticks": 263680,
          "time": 386.25,
          "velocity": 0.905511811023622
        },
        {
          "duration": 0.35595703125,
          "durationTicks": 243,
          "midi": 79,
          "name": "G5",
          "ticks": 263680,
          "time": 386.25,
          "velocity": 0.905511811023622
        },
        {
          "duration": 0.1904296875,
          "durationTicks": 130,
          "midi": 78,
          "name": "F#5",
          "ticks": 265984,
          "time": 389.625,
          "velocity": 0.4409448818897638
        },
        {
          "duration": 0.1904296875,
          "durationTicks": 130,
          "midi": 81,
          "name": "A5",
          "ticks": 265984,
          "time": 389.625,
          "velocity": 0.4409448818897638
        },
        {
          "duration": 0.17724609375,
          "durationTicks": 121,
          "midi": 77,
          "name": "F5",
          "ticks": 266112,
          "time": 389.8125,
          "velocity": 0.4330708661417323
        },
        {
          "duration": 0.17724609375,
          "durationTicks": 121,
          "midi": 80,
          "name": "G#5",
          "ticks": 266112,
          "time": 389.8125,
          "velocity": 0.4330708661417323
        },
        {
          "duration": 1.125,
          "durationTicks": 768,
          "midi": 76,
          "name": "E5",
          "ticks": 266240,
          "time": 390,
          "velocity": 0.4330708661417323
        },
        {
          "duration": 1.125,
          "durationTicks": 768,
          "midi": 79,
          "name": "G5",
          "ticks": 266240,
          "time": 390,
          "velocity": 0.4330708661417323
        },
        {
          "duration": 0.1904296875,
          "durationTicks": 130,
          "midi": 76,
          "name": "E5",
          "ticks": 267008,
          "time": 391.125,
          "velocity": 0.4645669291338583
        },
        {
          "duration": 0.1904296875,
          "durationTicks": 130,
          "midi": 79,
          "name": "G5",
          "ticks": 267008,
          "time": 391.125,
          "velocity": 0.4645669291338583
        },
        {
          "duration": 0.17724609375,
          "durationTicks": 121,
          "midi": 75,
          "name": "D#5",
          "ticks": 267136,
          "time": 391.3125,
          "velocity": 0.4330708661417323
        },
        {
          "duration": 0.17724609375,
          "durationTicks": 121,
          "midi": 78,
          "name": "F#5",
          "ticks": 267136,
          "time": 391.3125,
          "velocity": 0.4330708661417323
        },
        {
          "duration": 1.125,
          "durationTicks": 768,
          "midi": 74,
          "name": "D5",
          "ticks": 267264,
          "time": 391.5,
          "velocity": 0.4251968503937008
        },
        {
          "duration": 1.125,
          "durationTicks": 768,
          "midi": 77,
          "name": "F5",
          "ticks": 267264,
          "time": 391.5,
          "velocity": 0.4251968503937008
        },
        {
          "duration": 0.1904296875,
          "durationTicks": 130,
          "midi": 74,
          "name": "D5",
          "ticks": 268032,
          "time": 392.625,
          "velocity": 0.4566929133858268
        },
        {
          "duration": 0.1904296875,
          "durationTicks": 130,
          "midi": 77,
          "name": "F5",
          "ticks": 268032,
          "time": 392.625,
          "velocity": 0.4566929133858268
        },
        {
          "duration": 0.17724609375,
          "durationTicks": 121,
          "midi": 73,
          "name": "C#5",
          "ticks": 268160,
          "time": 392.8125,
          "velocity": 0.4330708661417323
        },
        {
          "duration": 0.17724609375,
          "durationTicks": 121,
          "midi": 76,
          "name": "E5",
          "ticks": 268160,
          "time": 392.8125,
          "velocity": 0.4330708661417323
        },
        {
          "duration": 1.125,
          "durationTicks": 768,
          "midi": 73,
          "name": "C#5",
          "ticks": 268288,
          "time": 393,
          "velocity": 0.4645669291338583
        },
        {
          "duration": 1.125,
          "durationTicks": 768,
          "midi": 76,
          "name": "E5",
          "ticks": 268288,
          "time": 393,
          "velocity": 0.4645669291338583
        },
        {
          "duration": 0.1904296875,
          "durationTicks": 130,
          "midi": 72,
          "name": "C5",
          "ticks": 269056,
          "time": 394.125,
          "velocity": 0.44881889763779526
        },
        {
          "duration": 0.1904296875,
          "durationTicks": 130,
          "midi": 75,
          "name": "D#5",
          "ticks": 269056,
          "time": 394.125,
          "velocity": 0.44881889763779526
        },
        {
          "duration": 0.17724609375,
          "durationTicks": 121,
          "midi": 71,
          "name": "B4",
          "ticks": 269184,
          "time": 394.3125,
          "velocity": 0.4330708661417323
        },
        {
          "duration": 0.17724609375,
          "durationTicks": 121,
          "midi": 74,
          "name": "D5",
          "ticks": 269184,
          "time": 394.3125,
          "velocity": 0.4330708661417323
        },
        {
          "duration": 0.7646484375,
          "durationTicks": 522,
          "midi": 71,
          "name": "B4",
          "ticks": 269312,
          "time": 394.5,
          "velocity": 0.4645669291338583
        },
        {
          "duration": 0.7646484375,
          "durationTicks": 522,
          "midi": 74,
          "name": "D5",
          "ticks": 269312,
          "time": 394.5,
          "velocity": 0.4645669291338583
        },
        {
          "duration": 0.7119140625,
          "durationTicks": 486,
          "midi": 70,
          "name": "A#4",
          "ticks": 269824,
          "time": 395.25,
          "velocity": 0.41732283464566927
        },
        {
          "duration": 0.7119140625,
          "durationTicks": 486,
          "midi": 73,
          "name": "C#5",
          "ticks": 269824,
          "time": 395.25,
          "velocity": 0.41732283464566927
        },
        {
          "duration": 1.5,
          "durationTicks": 1024,
          "midi": 69,
          "name": "A4",
          "ticks": 270336,
          "time": 396,
          "velocity": 0.44881889763779526
        },
        {
          "duration": 1.529296875,
          "durationTicks": 1044,
          "midi": 72,
          "name": "C5",
          "ticks": 270336,
          "time": 396,
          "velocity": 0.44881889763779526
        },
        {
          "duration": 0.35595703125,
          "durationTicks": 243,
          "midi": 67,
          "name": "G4",
          "ticks": 271360,
          "time": 397.5,
          "velocity": 0.4015748031496063
        },
        {
          "duration": 0.35595703125,
          "durationTicks": 243,
          "midi": 69,
          "name": "A4",
          "ticks": 271360,
          "time": 397.5,
          "velocity": 0.4015748031496063
        },
        {
          "duration": 0.38232421875,
          "durationTicks": 261,
          "midi": 66,
          "name": "F#4",
          "ticks": 282880,
          "time": 414.375,
          "velocity": 0.44881889763779526
        },
        {
          "duration": 0.38232421875,
          "durationTicks": 261,
          "midi": 67,
          "name": "G4",
          "ticks": 283136,
          "time": 414.75,
          "velocity": 0.4409448818897638
        },
        {
          "duration": 0.38232421875,
          "durationTicks": 261,
          "midi": 69,
          "name": "A4",
          "ticks": 283392,
          "time": 415.125,
          "velocity": 0.5118110236220472
        },
        {
          "duration": 0.38232421875,
          "durationTicks": 261,
          "midi": 70,
          "name": "A#4",
          "ticks": 283648,
          "time": 415.5,
          "velocity": 0.5511811023622047
        },
        {
          "duration": 0.1904296875,
          "durationTicks": 130,
          "midi": 72,
          "name": "C5",
          "ticks": 283904,
          "time": 415.875,
          "velocity": 0.5196850393700787
        },
        {
          "duration": 0.1904296875,
          "durationTicks": 130,
          "midi": 70,
          "name": "A#4",
          "ticks": 284032,
          "time": 416.0625,
          "velocity": 0.49606299212598426
        },
        {
          "duration": 0.38232421875,
          "durationTicks": 261,
          "midi": 69,
          "name": "A4",
          "ticks": 284160,
          "time": 416.25,
          "velocity": 0.41732283464566927
        },
        {
          "duration": 0.38232421875,
          "durationTicks": 261,
          "midi": 67,
          "name": "G4",
          "ticks": 284416,
          "time": 416.625,
          "velocity": 0.3858267716535433
        },
        {
          "duration": 0.35595703125,
          "durationTicks": 243,
          "midi": 66,
          "name": "F#4",
          "ticks": 284672,
          "time": 417,
          "velocity": 0.44881889763779526
        },
        {
          "duration": 0.7646484375,
          "durationTicks": 522,
          "midi": 73,
          "name": "C#5",
          "ticks": 285184,
          "time": 417.75,
          "velocity": 0.6771653543307087
        },
        {
          "duration": 0.7646484375,
          "durationTicks": 522,
          "midi": 76,
          "name": "E5",
          "ticks": 285184,
          "time": 417.75,
          "velocity": 0.6771653543307087
        },
        {
          "duration": 0.35595703125,
          "durationTicks": 243,
          "midi": 74,
          "name": "D5",
          "ticks": 285696,
          "time": 418.5,
          "velocity": 0.7086614173228346
        },
        {
          "duration": 0.35595703125,
          "durationTicks": 243,
          "midi": 78,
          "name": "F#5",
          "ticks": 285696,
          "time": 418.5,
          "velocity": 0.7086614173228346
        },
        {
          "duration": 0.7646484375,
          "durationTicks": 522,
          "midi": 73,
          "name": "C#5",
          "ticks": 286208,
          "time": 419.25,
          "velocity": 0.7165354330708661
        },
        {
          "duration": 0.7646484375,
          "durationTicks": 522,
          "midi": 76,
          "name": "E5",
          "ticks": 286208,
          "time": 419.25,
          "velocity": 0.7165354330708661
        },
        {
          "duration": 0.35595703125,
          "durationTicks": 243,
          "midi": 74,
          "name": "D5",
          "ticks": 286720,
          "time": 420,
          "velocity": 0.7007874015748031
        },
        {
          "duration": 0.35595703125,
          "durationTicks": 243,
          "midi": 78,
          "name": "F#5",
          "ticks": 286720,
          "time": 420,
          "velocity": 0.7007874015748031
        },
        {
          "duration": 0.7646484375,
          "durationTicks": 522,
          "midi": 73,
          "name": "C#5",
          "ticks": 287232,
          "time": 420.75,
          "velocity": 0.7165354330708661
        },
        {
          "duration": 0.7646484375,
          "durationTicks": 522,
          "midi": 76,
          "name": "E5",
          "ticks": 287232,
          "time": 420.75,
          "velocity": 0.7165354330708661
        },
        {
          "duration": 0.35595703125,
          "durationTicks": 243,
          "midi": 74,
          "name": "D5",
          "ticks": 287744,
          "time": 421.5,
          "velocity": 0.7401574803149606
        },
        {
          "duration": 0.35595703125,
          "durationTicks": 243,
          "midi": 78,
          "name": "F#5",
          "ticks": 287744,
          "time": 421.5,
          "velocity": 0.7401574803149606
        },
        {
          "duration": 0.1875,
          "durationTicks": 128,
          "midi": 73,
          "name": "C#5",
          "ticks": 288000,
          "time": 421.875,
          "velocity": 0.7086614173228346
        },
        {
          "duration": 0.1875,
          "durationTicks": 128,
          "midi": 76,
          "name": "E5",
          "ticks": 288000,
          "time": 421.875,
          "velocity": 0.7086614173228346
        },
        {
          "duration": 0.1875,
          "durationTicks": 128,
          "midi": 74,
          "name": "D5",
          "ticks": 288256,
          "time": 422.25,
          "velocity": 0.7559055118110236
        },
        {
          "duration": 0.1875,
          "durationTicks": 128,
          "midi": 78,
          "name": "F#5",
          "ticks": 288256,
          "time": 422.25,
          "velocity": 0.7559055118110236
        },
        {
          "duration": 0.1875,
          "durationTicks": 128,
          "midi": 73,
          "name": "C#5",
          "ticks": 288512,
          "time": 422.625,
          "velocity": 0.7480314960629921
        },
        {
          "duration": 0.1875,
          "durationTicks": 128,
          "midi": 76,
          "name": "E5",
          "ticks": 288512,
          "time": 422.625,
          "velocity": 0.7480314960629921
        },
        {
          "duration": 0.75,
          "durationTicks": 512,
          "midi": 74,
          "name": "D5",
          "ticks": 288768,
          "time": 423,
          "velocity": 0.8267716535433071
        },
        {
          "duration": 0.75,
          "durationTicks": 512,
          "midi": 78,
          "name": "F#5",
          "ticks": 288768,
          "time": 423,
          "velocity": 0.8267716535433071
        },
        {
          "duration": 1.5,
          "durationTicks": 1024,
          "midi": 63,
          "name": "D#4",
          "ticks": 296960,
          "time": 435,
          "velocity": 0.6929133858267716
        },
        {
          "duration": 1.5,
          "durationTicks": 1024,
          "midi": 75,
          "name": "D#5",
          "ticks": 296960,
          "time": 435,
          "velocity": 0.6929133858267716
        },
        {
          "duration": 1.5,
          "durationTicks": 1024,
          "midi": 58,
          "name": "A#3",
          "ticks": 297984,
          "time": 436.5,
          "velocity": 0.6456692913385826
        },
        {
          "duration": 1.5,
          "durationTicks": 1024,
          "midi": 70,
          "name": "A#4",
          "ticks": 297984,
          "time": 436.5,
          "velocity": 0.6456692913385826
        },
        {
          "duration": 1.5,
          "durationTicks": 1024,
          "midi": 68,
          "name": "G#4",
          "ticks": 299008,
          "time": 438,
          "velocity": 0.6850393700787402
        },
        {
          "duration": 1.5,
          "durationTicks": 1024,
          "midi": 67,
          "name": "G4",
          "ticks": 300032,
          "time": 439.5,
          "velocity": 0.7086614173228346
        },
        {
          "duration": 1.5,
          "durationTicks": 1024,
          "midi": 77,
          "name": "F5",
          "ticks": 301056,
          "time": 441,
          "velocity": 0.9212598425196851
        },
        {
          "duration": 0.75,
          "durationTicks": 512,
          "midi": 76,
          "name": "E5",
          "ticks": 302080,
          "time": 442.5,
          "velocity": 0.7716535433070866
        },
        {
          "duration": 0.75,
          "durationTicks": 512,
          "midi": 73,
          "name": "C#5",
          "ticks": 302592,
          "time": 443.25,
          "velocity": 0.6929133858267716
        },
        {
          "duration": 0.75,
          "durationTicks": 512,
          "midi": 72,
          "name": "C5",
          "ticks": 303104,
          "time": 444,
          "velocity": 0.6929133858267716
        },
        {
          "duration": 0.75,
          "durationTicks": 512,
          "midi": 76,
          "name": "E5",
          "ticks": 303616,
          "time": 444.75,
          "velocity": 0.8818897637795275
        },
        {
          "duration": 0.75,
          "durationTicks": 512,
          "midi": 79,
          "name": "G5",
          "ticks": 303616,
          "time": 444.75,
          "velocity": 0.8818897637795275
        },
        {
          "duration": 1.5,
          "durationTicks": 1024,
          "midi": 77,
          "name": "F5",
          "ticks": 304128,
          "time": 445.5,
          "velocity": 0.7086614173228346
        },
        {
          "duration": 2.25,
          "durationTicks": 1536,
          "midi": 72,
          "name": "C5",
          "ticks": 305152,
          "time": 447,
          "velocity": 0.6614173228346457
        },
        {
          "duration": 1.5,
          "durationTicks": 1024,
          "midi": 73,
          "name": "C#5",
          "ticks": 306176,
          "time": 448.5,
          "velocity": 0.7952755905511811
        },
        {
          "duration": 1.5,
          "durationTicks": 1024,
          "midi": 70,
          "name": "A#4",
          "ticks": 306688,
          "time": 449.25,
          "velocity": 0.7165354330708661
        },
        {
          "duration": 1.5,
          "durationTicks": 1024,
          "midi": 72,
          "name": "C5",
          "ticks": 307200,
          "time": 450,
          "velocity": 0.7244094488188977
        },
        {
          "duration": 1.5,
          "durationTicks": 1024,
          "midi": 68,
          "name": "G#4",
          "ticks": 307712,
          "time": 450.75,
          "velocity": 0.7322834645669292
        },
        {
          "duration": 1.5,
          "durationTicks": 1024,
          "midi": 70,
          "name": "A#4",
          "ticks": 308224,
          "time": 451.5,
          "velocity": 0.7244094488188977
        },
        {
          "duration": 0.75,
          "durationTicks": 512,
          "midi": 67,
          "name": "G4",
          "ticks": 308736,
          "time": 452.25,
          "velocity": 0.7401574803149606
        },
        {
          "duration": 0.375,
          "durationTicks": 256,
          "midi": 65,
          "name": "F4",
          "ticks": 309248,
          "time": 453,
          "velocity": 0.7952755905511811
        },
        {
          "duration": 0.375,
          "durationTicks": 256,
          "midi": 68,
          "name": "G#4",
          "ticks": 309248,
          "time": 453,
          "velocity": 0.7952755905511811
        },
        {
          "duration": 0.375,
          "durationTicks": 256,
          "midi": 68,
          "name": "G#4",
          "ticks": 309504,
          "time": 453.375,
          "velocity": 0.8582677165354331
        },
        {
          "duration": 0.375,
          "durationTicks": 256,
          "midi": 72,
          "name": "C5",
          "ticks": 309504,
          "time": 453.375,
          "velocity": 0.8582677165354331
        },
        {
          "duration": 0.375,
          "durationTicks": 256,
          "midi": 68,
          "name": "G#4",
          "ticks": 309760,
          "time": 453.75,
          "velocity": 0.8031496062992126
        },
        {
          "duration": 0.375,
          "durationTicks": 256,
          "midi": 72,
          "name": "C5",
          "ticks": 309760,
          "time": 453.75,
          "velocity": 0.8031496062992126
        },
        {
          "duration": 0.375,
          "durationTicks": 256,
          "midi": 68,
          "name": "G#4",
          "ticks": 310016,
          "time": 454.125,
          "velocity": 0.7952755905511811
        },
        {
          "duration": 0.375,
          "durationTicks": 256,
          "midi": 72,
          "name": "C5",
          "ticks": 310016,
          "time": 454.125,
          "velocity": 0.7952755905511811
        },
        {
          "duration": 0.375,
          "durationTicks": 256,
          "midi": 68,
          "name": "G#4",
          "ticks": 310528,
          "time": 454.875,
          "velocity": 0.6850393700787402
        },
        {
          "duration": 0.375,
          "durationTicks": 256,
          "midi": 77,
          "name": "F5",
          "ticks": 310528,
          "time": 454.875,
          "velocity": 0.6850393700787402
        },
        {
          "duration": 0.375,
          "durationTicks": 256,
          "midi": 68,
          "name": "G#4",
          "ticks": 310784,
          "time": 455.25,
          "velocity": 0.7637795275590551
        },
        {
          "duration": 0.375,
          "durationTicks": 256,
          "midi": 77,
          "name": "F5",
          "ticks": 310784,
          "time": 455.25,
          "velocity": 0.7637795275590551
        },
        {
          "duration": 0.375,
          "durationTicks": 256,
          "midi": 68,
          "name": "G#4",
          "ticks": 311040,
          "time": 455.625,
          "velocity": 0.7401574803149606
        },
        {
          "duration": 0.375,
          "durationTicks": 256,
          "midi": 77,
          "name": "F5",
          "ticks": 311040,
          "time": 455.625,
          "velocity": 0.7401574803149606
        },
        {
          "duration": 0.38232421875,
          "durationTicks": 261,
          "midi": 77,
          "name": "F5",
          "ticks": 311552,
          "time": 456.375,
          "velocity": 0.7244094488188977
        },
        {
          "duration": 0.7119140625,
          "durationTicks": 486,
          "midi": 70,
          "name": "A#4",
          "ticks": 311552,
          "time": 456.375,
          "velocity": 0.7401574803149606
        },
        {
          "duration": 0.35595703125,
          "durationTicks": 243,
          "midi": 75,
          "name": "D#5",
          "ticks": 311808,
          "time": 456.75,
          "velocity": 0.6535433070866141
        },
        {
          "duration": 0.375,
          "durationTicks": 256,
          "midi": 75,
          "name": "D#5",
          "ticks": 312064,
          "time": 457.125,
          "velocity": 0.7322834645669292
        },
        {
          "duration": 0.375,
          "durationTicks": 256,
          "midi": 70,
          "name": "A#4",
          "ticks": 312064,
          "time": 457.125,
          "velocity": 0.7480314960629921
        },
        {
          "duration": 0.375,
          "durationTicks": 256,
          "midi": 67,
          "name": "G4",
          "ticks": 312576,
          "time": 457.875,
          "velocity": 0.6771653543307087
        },
        {
          "duration": 0.375,
          "durationTicks": 256,
          "midi": 75,
          "name": "D#5",
          "ticks": 312576,
          "time": 457.875,
          "velocity": 0.6771653543307087
        },
        {
          "duration": 0.375,
          "durationTicks": 256,
          "midi": 67,
          "name": "G4",
          "ticks": 312832,
          "time": 458.25,
          "velocity": 0.7401574803149606
        },
        {
          "duration": 0.375,
          "durationTicks": 256,
          "midi": 75,
          "name": "D#5",
          "ticks": 312832,
          "time": 458.25,
          "velocity": 0.7401574803149606
        },
        {
          "duration": 0.375,
          "durationTicks": 256,
          "midi": 67,
          "name": "G4",
          "ticks": 313088,
          "time": 458.625,
          "velocity": 0.7244094488188977
        },
        {
          "duration": 0.375,
          "durationTicks": 256,
          "midi": 75,
          "name": "D#5",
          "ticks": 313088,
          "time": 458.625,
          "velocity": 0.7244094488188977
        },
        {
          "duration": 0.38232421875,
          "durationTicks": 261,
          "midi": 75,
          "name": "D#5",
          "ticks": 313600,
          "time": 459.375,
          "velocity": 0.7086614173228346
        },
        {
          "duration": 0.7119140625,
          "durationTicks": 486,
          "midi": 69,
          "name": "A4",
          "ticks": 313600,
          "time": 459.375,
          "velocity": 0.6850393700787402
        },
        {
          "duration": 0.35595703125,
          "durationTicks": 243,
          "midi": 74,
          "name": "D5",
          "ticks": 313856,
          "time": 459.75,
          "velocity": 0.6614173228346457
        },
        {
          "duration": 0.375,
          "durationTicks": 256,
          "midi": 74,
          "name": "D5",
          "ticks": 314112,
          "time": 460.125,
          "velocity": 0.7559055118110236
        },
        {
          "duration": 0.375,
          "durationTicks": 256,
          "midi": 69,
          "name": "A4",
          "ticks": 314112,
          "time": 460.125,
          "velocity": 0.7559055118110236
        },
        {
          "duration": 0.375,
          "durationTicks": 256,
          "midi": 65,
          "name": "F4",
          "ticks": 314624,
          "time": 460.875,
          "velocity": 0.6692913385826772
        },
        {
          "duration": 0.375,
          "durationTicks": 256,
          "midi": 74,
          "name": "D5",
          "ticks": 314624,
          "time": 460.875,
          "velocity": 0.6692913385826772
        },
        {
          "duration": 0.375,
          "durationTicks": 256,
          "midi": 65,
          "name": "F4",
          "ticks": 314880,
          "time": 461.25,
          "velocity": 0.7401574803149606
        },
        {
          "duration": 0.375,
          "durationTicks": 256,
          "midi": 74,
          "name": "D5",
          "ticks": 314880,
          "time": 461.25,
          "velocity": 0.7401574803149606
        },
        {
          "duration": 0.375,
          "durationTicks": 256,
          "midi": 65,
          "name": "F4",
          "ticks": 315136,
          "time": 461.625,
          "velocity": 0.7637795275590551
        },
        {
          "duration": 0.375,
          "durationTicks": 256,
          "midi": 74,
          "name": "D5",
          "ticks": 315136,
          "time": 461.625,
          "velocity": 0.7637795275590551
        },
        {
          "duration": 0.75,
          "durationTicks": 512,
          "midi": 63,
          "name": "D#4",
          "ticks": 315648,
          "time": 462.375,
          "velocity": 0.6850393700787402
        },
        {
          "duration": 0.75,
          "durationTicks": 512,
          "midi": 72,
          "name": "C5",
          "ticks": 315648,
          "time": 462.375,
          "velocity": 0.6850393700787402
        },
        {
          "duration": 0.375,
          "durationTicks": 256,
          "midi": 63,
          "name": "D#4",
          "ticks": 316160,
          "time": 463.125,
          "velocity": 0.7874015748031497
        },
        {
          "duration": 0.375,
          "durationTicks": 256,
          "midi": 72,
          "name": "C5",
          "ticks": 316160,
          "time": 463.125,
          "velocity": 0.7874015748031497
        },
        {
          "duration": 0.75,
          "durationTicks": 512,
          "midi": 62,
          "name": "D4",
          "ticks": 316672,
          "time": 463.875,
          "velocity": 0.6771653543307087
        },
        {
          "duration": 0.75,
          "durationTicks": 512,
          "midi": 66,
          "name": "F#4",
          "ticks": 316672,
          "time": 463.875,
          "velocity": 0.6771653543307087
        },
        {
          "duration": 0.375,
          "durationTicks": 256,
          "midi": 66,
          "name": "F#4",
          "ticks": 317184,
          "time": 464.625,
          "velocity": 0.8346456692913385
        },
        {
          "duration": 0.375,
          "durationTicks": 256,
          "midi": 69,
          "name": "A4",
          "ticks": 317184,
          "time": 464.625,
          "velocity": 0.8346456692913385
        },
        {
          "duration": 1.5,
          "durationTicks": 1024,
          "midi": 67,
          "name": "G4",
          "ticks": 317440,
          "time": 465,
          "velocity": 0.7795275590551181
        },
        {
          "duration": 1.5,
          "durationTicks": 1024,
          "midi": 70,
          "name": "A#4",
          "ticks": 317440,
          "time": 465,
          "velocity": 0.7795275590551181
        },
        {
          "duration": 1.5,
          "durationTicks": 1024,
          "midi": 62,
          "name": "D4",
          "ticks": 318464,
          "time": 466.5,
          "velocity": 0.8661417322834646
        },
        {
          "duration": 1.5,
          "durationTicks": 1024,
          "midi": 74,
          "name": "D5",
          "ticks": 318464,
          "time": 466.5,
          "velocity": 0.8661417322834646
        },
        {
          "duration": 1.5,
          "durationTicks": 1024,
          "midi": 72,
          "name": "C5",
          "ticks": 319488,
          "time": 468,
          "velocity": 0.7165354330708661
        },
        {
          "duration": 1.5,
          "durationTicks": 1024,
          "midi": 70,
          "name": "A#4",
          "ticks": 320512,
          "time": 469.5,
          "velocity": 0.7559055118110236
        },
        {
          "duration": 1.125,
          "durationTicks": 768,
          "midi": 69,
          "name": "A4",
          "ticks": 321536,
          "time": 471,
          "velocity": 0.7559055118110236
        },
        {
          "duration": 0.375,
          "durationTicks": 256,
          "midi": 66,
          "name": "F#4",
          "ticks": 322304,
          "time": 472.125,
          "velocity": 0.7165354330708661
        },
        {
          "duration": 1.423828125,
          "durationTicks": 972,
          "midi": 67,
          "name": "G4",
          "ticks": 322560,
          "time": 472.5,
          "velocity": 0.7637795275590551
        },
        {
          "duration": 0.35595703125,
          "durationTicks": 243,
          "midi": 74,
          "name": "D5",
          "ticks": 323328,
          "time": 473.625,
          "velocity": 0.9291338582677166
        },
        {
          "duration": 1.3125,
          "durationTicks": 896,
          "midi": 73,
          "name": "C#5",
          "ticks": 323584,
          "time": 474,
          "velocity": 0.7952755905511811
        },
        {
          "duration": 1.5,
          "durationTicks": 1024,
          "midi": 67,
          "name": "G4",
          "ticks": 323584,
          "time": 474,
          "velocity": 0.8110236220472441
        },
        {
          "duration": 0.17724609375,
          "durationTicks": 121,
          "midi": 74,
          "name": "D5",
          "ticks": 324480,
          "time": 475.3125,
          "velocity": 0.7874015748031497
        },
        {
          "duration": 1.3125,
          "durationTicks": 896,
          "midi": 73,
          "name": "C#5",
          "ticks": 324608,
          "time": 475.5,
          "velocity": 0.7322834645669292
        },
        {
          "duration": 1.5,
          "durationTicks": 1024,
          "midi": 67,
          "name": "G4",
          "ticks": 324608,
          "time": 475.5,
          "velocity": 0.7874015748031497
        },
        {
          "duration": 0.17724609375,
          "durationTicks": 121,
          "midi": 74,
          "name": "D5",
          "ticks": 325504,
          "time": 476.8125,
          "velocity": 0.8110236220472441
        },
        {
          "duration": 1.3125,
          "durationTicks": 896,
          "midi": 73,
          "name": "C#5",
          "ticks": 325632,
          "time": 477,
          "velocity": 0.7401574803149606
        },
        {
          "duration": 1.5,
          "durationTicks": 1024,
          "midi": 67,
          "name": "G4",
          "ticks": 325632,
          "time": 477,
          "velocity": 0.7637795275590551
        },
        {
          "duration": 0.17724609375,
          "durationTicks": 121,
          "midi": 74,
          "name": "D5",
          "ticks": 326528,
          "time": 478.3125,
          "velocity": 0.8188976377952756
        },
        {
          "duration": 1.5,
          "durationTicks": 1024,
          "midi": 67,
          "name": "G4",
          "ticks": 326656,
          "time": 478.5,
          "velocity": 0.7559055118110236
        },
        {
          "duration": 1.5,
          "durationTicks": 1024,
          "midi": 73,
          "name": "C#5",
          "ticks": 326656,
          "time": 478.5,
          "velocity": 0.7559055118110236
        },
        {
          "duration": 0.75,
          "durationTicks": 512,
          "midi": 66,
          "name": "F#4",
          "ticks": 327680,
          "time": 480,
          "velocity": 0.7874015748031497
        },
        {
          "duration": 0.75,
          "durationTicks": 512,
          "midi": 74,
          "name": "D5",
          "ticks": 327680,
          "time": 480,
          "velocity": 0.7874015748031497
        },
        {
          "duration": 0.75,
          "durationTicks": 512,
          "midi": 69,
          "name": "A4",
          "ticks": 328192,
          "time": 480.75,
          "velocity": 0.7480314960629921
        },
        {
          "duration": 0.75,
          "durationTicks": 512,
          "midi": 72,
          "name": "C5",
          "ticks": 328192,
          "time": 480.75,
          "velocity": 0.7480314960629921
        },
        {
          "duration": 0.75,
          "durationTicks": 512,
          "midi": 67,
          "name": "G4",
          "ticks": 328704,
          "time": 481.5,
          "velocity": 0.7086614173228346
        },
        {
          "duration": 0.75,
          "durationTicks": 512,
          "midi": 70,
          "name": "A#4",
          "ticks": 328704,
          "time": 481.5,
          "velocity": 0.7086614173228346
        },
        {
          "duration": 0.75,
          "durationTicks": 512,
          "midi": 70,
          "name": "A#4",
          "ticks": 329216,
          "time": 482.25,
          "velocity": 0.8031496062992126
        },
        {
          "duration": 0.75,
          "durationTicks": 512,
          "midi": 73,
          "name": "C#5",
          "ticks": 329216,
          "time": 482.25,
          "velocity": 0.8031496062992126
        },
        {
          "duration": 0.75,
          "durationTicks": 512,
          "midi": 69,
          "name": "A4",
          "ticks": 329728,
          "time": 483,
          "velocity": 0.8188976377952756
        },
        {
          "duration": 0.75,
          "durationTicks": 512,
          "midi": 74,
          "name": "D5",
          "ticks": 329728,
          "time": 483,
          "velocity": 0.8188976377952756
        },
        {
          "duration": 0.75,
          "durationTicks": 512,
          "midi": 72,
          "name": "C5",
          "ticks": 330240,
          "time": 483.75,
          "velocity": 0.8346456692913385
        },
        {
          "duration": 0.75,
          "durationTicks": 512,
          "midi": 78,
          "name": "F#5",
          "ticks": 330240,
          "time": 483.75,
          "velocity": 0.8346456692913385
        },
        {
          "duration": 0.75,
          "durationTicks": 512,
          "midi": 70,
          "name": "A#4",
          "ticks": 330752,
          "time": 484.5,
          "velocity": 0.7952755905511811
        },
        {
          "duration": 0.75,
          "durationTicks": 512,
          "midi": 79,
          "name": "G5",
          "ticks": 330752,
          "time": 484.5,
          "velocity": 0.7952755905511811
        },
        {
          "duration": 0.75,
          "durationTicks": 512,
          "midi": 70,
          "name": "A#4",
          "ticks": 331264,
          "time": 485.25,
          "velocity": 0.6456692913385826
        },
        {
          "duration": 0.75,
          "durationTicks": 512,
          "midi": 73,
          "name": "C#5",
          "ticks": 331264,
          "time": 485.25,
          "velocity": 0.6456692913385826
        },
        {
          "duration": 0.375,
          "durationTicks": 256,
          "midi": 69,
          "name": "A4",
          "ticks": 331776,
          "time": 486,
          "velocity": 0.7874015748031497
        },
        {
          "duration": 0.375,
          "durationTicks": 256,
          "midi": 74,
          "name": "D5",
          "ticks": 331776,
          "time": 486,
          "velocity": 0.7874015748031497
        },
        {
          "duration": 0.375,
          "durationTicks": 256,
          "midi": 66,
          "name": "F#4",
          "ticks": 332288,
          "time": 486.75,
          "velocity": 0.6929133858267716
        },
        {
          "duration": 0.375,
          "durationTicks": 256,
          "midi": 69,
          "name": "A4",
          "ticks": 332288,
          "time": 486.75,
          "velocity": 0.6929133858267716
        },
        {
          "duration": 1.14697265625,
          "durationTicks": 783,
          "midi": 77,
          "name": "F5",
          "ticks": 348160,
          "time": 510,
          "velocity": 0.4330708661417323
        },
        {
          "duration": 1.14697265625,
          "durationTicks": 783,
          "midi": 80,
          "name": "G#5",
          "ticks": 348160,
          "time": 510,
          "velocity": 0.4330708661417323
        },
        {
          "duration": 0.35595703125,
          "durationTicks": 243,
          "midi": 75,
          "name": "D#5",
          "ticks": 348928,
          "time": 511.125,
          "velocity": 0.4094488188976378
        },
        {
          "duration": 0.35595703125,
          "durationTicks": 243,
          "midi": 79,
          "name": "G5",
          "ticks": 348928,
          "time": 511.125,
          "velocity": 0.4094488188976378
        },
        {
          "duration": 1.14697265625,
          "durationTicks": 783,
          "midi": 77,
          "name": "F5",
          "ticks": 349184,
          "time": 511.5,
          "velocity": 0.5196850393700787
        },
        {
          "duration": 1.14697265625,
          "durationTicks": 783,
          "midi": 80,
          "name": "G#5",
          "ticks": 349184,
          "time": 511.5,
          "velocity": 0.5196850393700787
        },
        {
          "duration": 0.35595703125,
          "durationTicks": 243,
          "midi": 75,
          "name": "D#5",
          "ticks": 349952,
          "time": 512.625,
          "velocity": 0.49606299212598426
        },
        {
          "duration": 0.35595703125,
          "durationTicks": 243,
          "midi": 79,
          "name": "G5",
          "ticks": 349952,
          "time": 512.625,
          "velocity": 0.49606299212598426
        },
        {
          "duration": 1.14697265625,
          "durationTicks": 783,
          "midi": 77,
          "name": "F5",
          "ticks": 350208,
          "time": 513,
          "velocity": 0.5039370078740157
        },
        {
          "duration": 1.14697265625,
          "durationTicks": 783,
          "midi": 80,
          "name": "G#5",
          "ticks": 350208,
          "time": 513,
          "velocity": 0.5039370078740157
        },
        {
          "duration": 0.35595703125,
          "durationTicks": 243,
          "midi": 75,
          "name": "D#5",
          "ticks": 350976,
          "time": 514.125,
          "velocity": 0.4566929133858268
        },
        {
          "duration": 0.35595703125,
          "durationTicks": 243,
          "midi": 79,
          "name": "G5",
          "ticks": 350976,
          "time": 514.125,
          "velocity": 0.4566929133858268
        },
        {
          "duration": 1.14697265625,
          "durationTicks": 783,
          "midi": 77,
          "name": "F5",
          "ticks": 351232,
          "time": 514.5,
          "velocity": 0.4330708661417323
        },
        {
          "duration": 1.14697265625,
          "durationTicks": 783,
          "midi": 80,
          "name": "G#5",
          "ticks": 351232,
          "time": 514.5,
          "velocity": 0.4330708661417323
        },
        {
          "duration": 0.35595703125,
          "durationTicks": 243,
          "midi": 75,
          "name": "D#5",
          "ticks": 352000,
          "time": 515.625,
          "velocity": 0.3937007874015748
        },
        {
          "duration": 0.35595703125,
          "durationTicks": 243,
          "midi": 79,
          "name": "G5",
          "ticks": 352000,
          "time": 515.625,
          "velocity": 0.3937007874015748
        },
        {
          "duration": 2.25,
          "durationTicks": 1536,
          "midi": 77,
          "name": "F5",
          "ticks": 352256,
          "time": 516,
          "velocity": 0.5511811023622047
        },
        {
          "duration": 2.25,
          "durationTicks": 1536,
          "midi": 80,
          "name": "G#5",
          "ticks": 352256,
          "time": 516,
          "velocity": 0.5511811023622047
        },
        {
          "duration": 0.7119140625,
          "durationTicks": 486,
          "midi": 68,
          "name": "G#4",
          "ticks": 353792,
          "time": 518.25,
          "velocity": 0.47244094488188976
        },
        {
          "duration": 0.7119140625,
          "durationTicks": 486,
          "midi": 74,
          "name": "D5",
          "ticks": 353792,
          "time": 518.25,
          "velocity": 0.47244094488188976
        },
        {
          "duration": 0.75,
          "durationTicks": 512,
          "midi": 75,
          "name": "D#5",
          "ticks": 354304,
          "time": 519,
          "velocity": 0.7795275590551181
        },
        {
          "duration": 1.5,
          "durationTicks": 1024,
          "midi": 66,
          "name": "F#4",
          "ticks": 354304,
          "time": 519,
          "velocity": 0.6929133858267716
        },
        {
          "duration": 0.1875,
          "durationTicks": 128,
          "midi": 72,
          "name": "C5",
          "ticks": 354816,
          "time": 519.75,
          "velocity": 0.6929133858267716
        },
        {
          "duration": 0.1875,
          "durationTicks": 128,
          "midi": 69,
          "name": "A4",
          "ticks": 355072,
          "time": 520.125,
          "velocity": 0.7165354330708661
        },
        {
          "duration": 0.38232421875,
          "durationTicks": 261,
          "midi": 70,
          "name": "A#4",
          "ticks": 355328,
          "time": 520.5,
          "velocity": 0.7952755905511811
        },
        {
          "duration": 1.423828125,
          "durationTicks": 972,
          "midi": 65,
          "name": "F4",
          "ticks": 355328,
          "time": 520.5,
          "velocity": 0.7165354330708661
        },
        {
          "duration": 0.35595703125,
          "durationTicks": 243,
          "midi": 73,
          "name": "C#5",
          "ticks": 355584,
          "time": 520.875,
          "velocity": 0.905511811023622
        },
        {
          "duration": 1.5,
          "durationTicks": 1024,
          "midi": 77,
          "name": "F5",
          "ticks": 355840,
          "time": 521.25,
          "velocity": 0.8503937007874016
        },
        {
          "duration": 1.5,
          "durationTicks": 1024,
          "midi": 68,
          "name": "G#4",
          "ticks": 356352,
          "time": 522,
          "velocity": 0.8346456692913385
        },
        {
          "duration": 0.1875,
          "durationTicks": 128,
          "midi": 74,
          "name": "D5",
          "ticks": 356864,
          "time": 522.75,
          "velocity": 0.6929133858267716
        },
        {
          "duration": 0.1875,
          "durationTicks": 128,
          "midi": 71,
          "name": "B4",
          "ticks": 357120,
          "time": 523.125,
          "velocity": 0.7165354330708661
        },
        {
          "duration": 0.38232421875,
          "durationTicks": 261,
          "midi": 72,
          "name": "C5",
          "ticks": 357376,
          "time": 523.5,
          "velocity": 0.8031496062992126
        },
        {
          "duration": 1.423828125,
          "durationTicks": 972,
          "midi": 67,
          "name": "G4",
          "ticks": 357376,
          "time": 523.5,
          "velocity": 0.7716535433070866
        },
        {
          "duration": 0.35595703125,
          "durationTicks": 243,
          "midi": 75,
          "name": "D#5",
          "ticks": 357632,
          "time": 523.875,
          "velocity": 0.889763779527559
        },
        {
          "duration": 1.5,
          "durationTicks": 1024,
          "midi": 79,
          "name": "G5",
          "ticks": 357888,
          "time": 524.25,
          "velocity": 0.8818897637795275
        },
        {
          "duration": 1.5,
          "durationTicks": 1024,
          "midi": 70,
          "name": "A#4",
          "ticks": 358400,
          "time": 525,
          "velocity": 0.8346456692913385
        },
        {
          "duration": 0.1875,
          "durationTicks": 128,
          "midi": 76,
          "name": "E5",
          "ticks": 358912,
          "time": 525.75,
          "velocity": 0.7086614173228346
        },
        {
          "duration": 0.1875,
          "durationTicks": 128,
          "midi": 73,
          "name": "C#5",
          "ticks": 359168,
          "time": 526.125,
          "velocity": 0.7086614173228346
        },
        {
          "duration": 0.75,
          "durationTicks": 512,
          "midi": 70,
          "name": "A#4",
          "ticks": 359424,
          "time": 526.5,
          "velocity": 0.7952755905511811
        },
        {
          "duration": 0.75,
          "durationTicks": 512,
          "midi": 74,
          "name": "D5",
          "ticks": 359424,
          "time": 526.5,
          "velocity": 0.7952755905511811
        },
        {
          "duration": 0.75,
          "durationTicks": 512,
          "midi": 67,
          "name": "G4",
          "ticks": 359936,
          "time": 527.25,
          "velocity": 0.6850393700787402
        },
        {
          "duration": 0.75,
          "durationTicks": 512,
          "midi": 70,
          "name": "A#4",
          "ticks": 359936,
          "time": 527.25,
          "velocity": 0.6850393700787402
        },
        {
          "duration": 0.75,
          "durationTicks": 512,
          "midi": 69,
          "name": "A4",
          "ticks": 360448,
          "time": 528,
          "velocity": 0.8031496062992126
        },
        {
          "duration": 0.75,
          "durationTicks": 512,
          "midi": 72,
          "name": "C5",
          "ticks": 360448,
          "time": 528,
          "velocity": 0.8031496062992126
        },
        {
          "duration": 0.75,
          "durationTicks": 512,
          "midi": 66,
          "name": "F#4",
          "ticks": 360960,
          "time": 528.75,
          "velocity": 0.7086614173228346
        },
        {
          "duration": 0.75,
          "durationTicks": 512,
          "midi": 69,
          "name": "A4",
          "ticks": 360960,
          "time": 528.75,
          "velocity": 0.7086614173228346
        },
        {
          "duration": 0.375,
          "durationTicks": 256,
          "midi": 67,
          "name": "G4",
          "ticks": 361472,
          "time": 529.5,
          "velocity": 0.7559055118110236
        },
        {
          "duration": 0.1875,
          "durationTicks": 128,
          "midi": 62,
          "name": "D4",
          "ticks": 363520,
          "time": 532.5,
          "velocity": 0.7007874015748031
        },
        {
          "duration": 0.1875,
          "durationTicks": 128,
          "midi": 67,
          "name": "G4",
          "ticks": 363520,
          "time": 532.5,
          "velocity": 0.7007874015748031
        },
        {
          "duration": 0.1875,
          "durationTicks": 128,
          "midi": 63,
          "name": "D#4",
          "ticks": 364032,
          "time": 533.25,
          "velocity": 0.7007874015748031
        },
        {
          "duration": 0.1875,
          "durationTicks": 128,
          "midi": 67,
          "name": "G4",
          "ticks": 364032,
          "time": 533.25,
          "velocity": 0.7007874015748031
        },
        {
          "duration": 0.1875,
          "durationTicks": 128,
          "midi": 66,
          "name": "F#4",
          "ticks": 364544,
          "time": 534,
          "velocity": 0.6614173228346457
        },
        {
          "duration": 0.1875,
          "durationTicks": 128,
          "midi": 69,
          "name": "A4",
          "ticks": 364544,
          "time": 534,
          "velocity": 0.6614173228346457
        },
        {
          "duration": 0.1875,
          "durationTicks": 128,
          "midi": 67,
          "name": "G4",
          "ticks": 365056,
          "time": 534.75,
          "velocity": 0.7086614173228346
        },
        {
          "duration": 0.1875,
          "durationTicks": 128,
          "midi": 70,
          "name": "A#4",
          "ticks": 365056,
          "time": 534.75,
          "velocity": 0.7086614173228346
        },
        {
          "duration": 0.1904296875,
          "durationTicks": 130,
          "midi": 75,
          "name": "D#5",
          "ticks": 368384,
          "time": 539.625,
          "velocity": 0.4251968503937008
        },
        {
          "duration": 0.17724609375,
          "durationTicks": 121,
          "midi": 74,
          "name": "D5",
          "ticks": 368512,
          "time": 539.8125,
          "velocity": 0.4015748031496063
        },
        {
          "duration": 0.1875,
          "durationTicks": 128,
          "midi": 74,
          "name": "D5",
          "ticks": 368640,
          "time": 540,
          "velocity": 0.49606299212598426
        },
        {
          "duration": 0.1904296875,
          "durationTicks": 130,
          "midi": 75,
          "name": "D#5",
          "ticks": 368896,
          "time": 540.375,
          "velocity": 0.5118110236220472
        },
        {
          "duration": 0.17724609375,
          "durationTicks": 121,
          "midi": 74,
          "name": "D5",
          "ticks": 369024,
          "time": 540.5625,
          "velocity": 0.4330708661417323
        },
        {
          "duration": 0.1875,
          "durationTicks": 128,
          "midi": 74,
          "name": "D5",
          "ticks": 369152,
          "time": 540.75,
          "velocity": 0.48031496062992124
        },
        {
          "duration": 0.1904296875,
          "durationTicks": 130,
          "midi": 75,
          "name": "D#5",
          "ticks": 370432,
          "time": 542.625,
          "velocity": 0.4251968503937008
        },
        {
          "duration": 0.17724609375,
          "durationTicks": 121,
          "midi": 74,
          "name": "D5",
          "ticks": 370560,
          "time": 542.8125,
          "velocity": 0.3858267716535433
        },
        {
          "duration": 0.1875,
          "durationTicks": 128,
          "midi": 74,
          "name": "D5",
          "ticks": 370688,
          "time": 543,
          "velocity": 0.4566929133858268
        },
        {
          "duration": 0.1904296875,
          "durationTicks": 130,
          "midi": 75,
          "name": "D#5",
          "ticks": 370944,
          "time": 543.375,
          "velocity": 0.5118110236220472
        },
        {
          "duration": 0.17724609375,
          "durationTicks": 121,
          "midi": 74,
          "name": "D5",
          "ticks": 371072,
          "time": 543.5625,
          "velocity": 0.4881889763779528
        },
        {
          "duration": 0.1875,
          "durationTicks": 128,
          "midi": 74,
          "name": "D5",
          "ticks": 371200,
          "time": 543.75,
          "velocity": 0.4566929133858268
        },
        {
          "duration": 1.5,
          "durationTicks": 1024,
          "midi": 71,
          "name": "B4",
          "ticks": 372736,
          "time": 546,
          "velocity": 0.6850393700787402
        },
        {
          "duration": 1.5,
          "durationTicks": 1024,
          "midi": 77,
          "name": "F5",
          "ticks": 372736,
          "time": 546,
          "velocity": 0.6850393700787402
        },
        {
          "duration": 1.5,
          "durationTicks": 1024,
          "midi": 72,
          "name": "C5",
          "ticks": 373760,
          "time": 547.5,
          "velocity": 0.6929133858267716
        },
        {
          "duration": 1.5,
          "durationTicks": 1024,
          "midi": 75,
          "name": "D#5",
          "ticks": 373760,
          "time": 547.5,
          "velocity": 0.6929133858267716
        },
        {
          "duration": 0.5625,
          "durationTicks": 384,
          "midi": 70,
          "name": "A#4",
          "ticks": 374784,
          "time": 549,
          "velocity": 0.7007874015748031
        },
        {
          "duration": 0.57275390625,
          "durationTicks": 391,
          "midi": 74,
          "name": "D5",
          "ticks": 374784,
          "time": 549,
          "velocity": 0.7007874015748031
        },
        {
          "duration": 0.17724609375,
          "durationTicks": 121,
          "midi": 67,
          "name": "G4",
          "ticks": 375168,
          "time": 549.5625,
          "velocity": 0.6377952755905512
        },
        {
          "duration": 0.17724609375,
          "durationTicks": 121,
          "midi": 70,
          "name": "A#4",
          "ticks": 375168,
          "time": 549.5625,
          "velocity": 0.6377952755905512
        },
        {
          "duration": 0.5625,
          "durationTicks": 384,
          "midi": 69,
          "name": "A4",
          "ticks": 375296,
          "time": 549.75,
          "velocity": 0.8503937007874016
        },
        {
          "duration": 0.57275390625,
          "durationTicks": 391,
          "midi": 72,
          "name": "C5",
          "ticks": 375296,
          "time": 549.75,
          "velocity": 0.8503937007874016
        },
        {
          "duration": 0.17724609375,
          "durationTicks": 121,
          "midi": 66,
          "name": "F#4",
          "ticks": 375680,
          "time": 550.3125,
          "velocity": 0.7716535433070866
        },
        {
          "duration": 0.17724609375,
          "durationTicks": 121,
          "midi": 69,
          "name": "A4",
          "ticks": 375680,
          "time": 550.3125,
          "velocity": 0.7716535433070866
        },
        {
          "duration": 0.375,
          "durationTicks": 256,
          "midi": 67,
          "name": "G4",
          "ticks": 375808,
          "time": 550.5,
          "velocity": 0.7007874015748031
        },
        {
          "duration": 0.1904296875,
          "durationTicks": 130,
          "midi": 75,
          "name": "D#5",
          "ticks": 377600,
          "time": 553.125,
          "velocity": 0.4409448818897638
        },
        {
          "duration": 0.17724609375,
          "durationTicks": 121,
          "midi": 74,
          "name": "D5",
          "ticks": 377728,
          "time": 553.3125,
          "velocity": 0.4015748031496063
        },
        {
          "duration": 0.1875,
          "durationTicks": 128,
          "midi": 74,
          "name": "D5",
          "ticks": 377856,
          "time": 553.5,
          "velocity": 0.48031496062992124
        },
        {
          "duration": 0.1904296875,
          "durationTicks": 130,
          "midi": 75,
          "name": "D#5",
          "ticks": 378112,
          "time": 553.875,
          "velocity": 0.5039370078740157
        },
        {
          "duration": 0.17724609375,
          "durationTicks": 121,
          "midi": 74,
          "name": "D5",
          "ticks": 378240,
          "time": 554.0625,
          "velocity": 0.47244094488188976
        },
        {
          "duration": 0.1875,
          "durationTicks": 128,
          "midi": 74,
          "name": "D5",
          "ticks": 378368,
          "time": 554.25,
          "velocity": 0.5039370078740157
        },
        {
          "duration": 0.1904296875,
          "durationTicks": 130,
          "midi": 75,
          "name": "D#5",
          "ticks": 379648,
          "time": 556.125,
          "velocity": 0.4330708661417323
        },
        {
          "duration": 0.17724609375,
          "durationTicks": 121,
          "midi": 74,
          "name": "D5",
          "ticks": 379776,
          "time": 556.3125,
          "velocity": 0.3779527559055118
        },
        {
          "duration": 0.1875,
          "durationTicks": 128,
          "midi": 74,
          "name": "D5",
          "ticks": 379904,
          "time": 556.5,
          "velocity": 0.4881889763779528
        },
        {
          "duration": 0.1904296875,
          "durationTicks": 130,
          "midi": 75,
          "name": "D#5",
          "ticks": 380160,
          "time": 556.875,
          "velocity": 0.5039370078740157
        },
        {
          "duration": 0.17724609375,
          "durationTicks": 121,
          "midi": 74,
          "name": "D5",
          "ticks": 380288,
          "time": 557.0625,
          "velocity": 0.5039370078740157
        },
        {
          "duration": 0.1875,
          "durationTicks": 128,
          "midi": 74,
          "name": "D5",
          "ticks": 380416,
          "time": 557.25,
          "velocity": 0.47244094488188976
        },
        {
          "duration": 1.5,
          "durationTicks": 1024,
          "midi": 71,
          "name": "B4",
          "ticks": 380928,
          "time": 558,
          "velocity": 0.6692913385826772
        },
        {
          "duration": 1.5,
          "durationTicks": 1024,
          "midi": 77,
          "name": "F5",
          "ticks": 380928,
          "time": 558,
          "velocity": 0.6692913385826772
        },
        {
          "duration": 1.5,
          "durationTicks": 1024,
          "midi": 72,
          "name": "C5",
          "ticks": 381952,
          "time": 559.5,
          "velocity": 0.7244094488188977
        },
        {
          "duration": 1.5,
          "durationTicks": 1024,
          "midi": 75,
          "name": "D#5",
          "ticks": 381952,
          "time": 559.5,
          "velocity": 0.7244094488188977
        },
        {
          "duration": 0.5625,
          "durationTicks": 384,
          "midi": 70,
          "name": "A#4",
          "ticks": 382976,
          "time": 561,
          "velocity": 0.7244094488188977
        },
        {
          "duration": 0.5625,
          "durationTicks": 384,
          "midi": 74,
          "name": "D5",
          "ticks": 382976,
          "time": 561,
          "velocity": 0.7244094488188977
        },
        {
          "duration": 0.1875,
          "durationTicks": 128,
          "midi": 67,
          "name": "G4",
          "ticks": 383360,
          "time": 561.5625,
          "velocity": 0.6614173228346457
        },
        {
          "duration": 0.1875,
          "durationTicks": 128,
          "midi": 70,
          "name": "A#4",
          "ticks": 383360,
          "time": 561.5625,
          "velocity": 0.6614173228346457
        },
        {
          "duration": 0.5625,
          "durationTicks": 384,
          "midi": 69,
          "name": "A4",
          "ticks": 383488,
          "time": 561.75,
          "velocity": 0.8188976377952756
        },
        {
          "duration": 0.5625,
          "durationTicks": 384,
          "midi": 72,
          "name": "C5",
          "ticks": 383488,
          "time": 561.75,
          "velocity": 0.8188976377952756
        },
        {
          "duration": 0.1875,
          "durationTicks": 128,
          "midi": 66,
          "name": "F#4",
          "ticks": 383872,
          "time": 562.3125,
          "velocity": 0.6850393700787402
        },
        {
          "duration": 0.1875,
          "durationTicks": 128,
          "midi": 69,
          "name": "A4",
          "ticks": 383872,
          "time": 562.3125,
          "velocity": 0.6850393700787402
        },
        {
          "duration": 0.75,
          "durationTicks": 512,
          "midi": 67,
          "name": "G4",
          "ticks": 384000,
          "time": 562.5,
          "velocity": 0.6850393700787402
        },
        {
          "duration": 0.1875,
          "durationTicks": 128,
          "midi": 74,
          "name": "D5",
          "ticks": 384896,
          "time": 563.8125,
          "velocity": 0.7165354330708661
        },
        {
          "duration": 0.1875,
          "durationTicks": 128,
          "midi": 72,
          "name": "C5",
          "ticks": 385024,
          "time": 564,
          "velocity": 0.6929133858267716
        },
        {
          "duration": 0.1875,
          "durationTicks": 128,
          "midi": 70,
          "name": "A#4",
          "ticks": 385152,
          "time": 564.1875,
          "velocity": 0.7165354330708661
        },
        {
          "duration": 0.1875,
          "durationTicks": 128,
          "midi": 69,
          "name": "A4",
          "ticks": 385280,
          "time": 564.375,
          "velocity": 0.7165354330708661
        },
        {
          "duration": 0.1875,
          "durationTicks": 128,
          "midi": 67,
          "name": "G4",
          "ticks": 385408,
          "time": 564.5625,
          "velocity": 0.7244094488188977
        },
        {
          "duration": 0.1875,
          "durationTicks": 128,
          "midi": 66,
          "name": "F#4",
          "ticks": 385536,
          "time": 564.75,
          "velocity": 0.7637795275590551
        },
        {
          "duration": 0.1875,
          "durationTicks": 128,
          "midi": 75,
          "name": "D#5",
          "ticks": 385664,
          "time": 564.9375,
          "velocity": 0.9448818897637795
        },
        {
          "duration": 0.1875,
          "durationTicks": 128,
          "midi": 74,
          "name": "D5",
          "ticks": 385792,
          "time": 565.125,
          "velocity": 0.8031496062992126
        },
        {
          "duration": 0.1875,
          "durationTicks": 128,
          "midi": 72,
          "name": "C5",
          "ticks": 385920,
          "time": 565.3125,
          "velocity": 0.7007874015748031
        },
        {
          "duration": 0.375,
          "durationTicks": 256,
          "midi": 70,
          "name": "A#4",
          "ticks": 386048,
          "time": 565.5,
          "velocity": 0.7322834645669292
        },
        {
          "duration": 0.375,
          "durationTicks": 256,
          "midi": 67,
          "name": "G4",
          "ticks": 386304,
          "time": 565.875,
          "velocity": 0.8661417322834646
        },
        {
          "duration": 0.375,
          "durationTicks": 256,
          "midi": 74,
          "name": "D5",
          "ticks": 386304,
          "time": 565.875,
          "velocity": 0.8661417322834646
        },
        {
          "duration": 0.375,
          "durationTicks": 256,
          "midi": 67,
          "name": "G4",
          "ticks": 386560,
          "time": 566.25,
          "velocity": 0.8031496062992126
        },
        {
          "duration": 0.375,
          "durationTicks": 256,
          "midi": 75,
          "name": "D#5",
          "ticks": 386560,
          "time": 566.25,
          "velocity": 0.8031496062992126
        },
        {
          "duration": 0.375,
          "durationTicks": 256,
          "midi": 66,
          "name": "F#4",
          "ticks": 386816,
          "time": 566.625,
          "velocity": 0.6299212598425197
        },
        {
          "duration": 0.375,
          "durationTicks": 256,
          "midi": 69,
          "name": "A4",
          "ticks": 386816,
          "time": 566.625,
          "velocity": 0.6299212598425197
        },
        {
          "duration": 0.375,
          "durationTicks": 256,
          "midi": 67,
          "name": "G4",
          "ticks": 387072,
          "time": 567,
          "velocity": 0.7086614173228346
        },
        {
          "duration": 0.1875,
          "durationTicks": 128,
          "midi": 82,
          "name": "A#5",
          "ticks": 387328,
          "time": 567.375,
          "velocity": 0.968503937007874
        },
        {
          "duration": 0.1875,
          "durationTicks": 128,
          "midi": 81,
          "name": "A5",
          "ticks": 387456,
          "time": 567.5625,
          "velocity": 0.7874015748031497
        },
        {
          "duration": 0.1875,
          "durationTicks": 128,
          "midi": 79,
          "name": "G5",
          "ticks": 387584,
          "time": 567.75,
          "velocity": 0.7322834645669292
        },
        {
          "duration": 0.1875,
          "durationTicks": 128,
          "midi": 77,
          "name": "F5",
          "ticks": 387712,
          "time": 567.9375,
          "velocity": 0.7007874015748031
        },
        {
          "duration": 0.1875,
          "durationTicks": 128,
          "midi": 75,
          "name": "D#5",
          "ticks": 387840,
          "time": 568.125,
          "velocity": 0.6929133858267716
        },
        {
          "duration": 0.1875,
          "durationTicks": 128,
          "midi": 74,
          "name": "D5",
          "ticks": 387968,
          "time": 568.3125,
          "velocity": 0.7322834645669292
        },
        {
          "duration": 0.1875,
          "durationTicks": 128,
          "midi": 73,
          "name": "C#5",
          "ticks": 388096,
          "time": 568.5,
          "velocity": 0.6929133858267716
        },
        {
          "duration": 0.1875,
          "durationTicks": 128,
          "midi": 76,
          "name": "E5",
          "ticks": 388224,
          "time": 568.6875,
          "velocity": 0.84251968503937
        },
        {
          "duration": 0.1875,
          "durationTicks": 128,
          "midi": 81,
          "name": "A5",
          "ticks": 388352,
          "time": 568.875,
          "velocity": 0.889763779527559
        },
        {
          "duration": 0.1875,
          "durationTicks": 128,
          "midi": 79,
          "name": "G5",
          "ticks": 388480,
          "time": 569.0625,
          "velocity": 0.7559055118110236
        },
        {
          "duration": 0.1875,
          "durationTicks": 128,
          "midi": 78,
          "name": "F#5",
          "ticks": 388608,
          "time": 569.25,
          "velocity": 0.7165354330708661
        },
        {
          "duration": 0.1875,
          "durationTicks": 128,
          "midi": 75,
          "name": "D#5",
          "ticks": 388736,
          "time": 569.4375,
          "velocity": 0.7322834645669292
        },
        {
          "duration": 0.1875,
          "durationTicks": 128,
          "midi": 74,
          "name": "D5",
          "ticks": 388864,
          "time": 569.625,
          "velocity": 0.6929133858267716
        },
        {
          "duration": 0.1875,
          "durationTicks": 128,
          "midi": 72,
          "name": "C5",
          "ticks": 388992,
          "time": 569.8125,
          "velocity": 0.7480314960629921
        },
        {
          "duration": 0.375,
          "durationTicks": 256,
          "midi": 70,
          "name": "A#4",
          "ticks": 389120,
          "time": 570,
          "velocity": 0.7322834645669292
        },
        {
          "duration": 0.7646484375,
          "durationTicks": 522,
          "midi": 67,
          "name": "G4",
          "ticks": 389376,
          "time": 570.375,
          "velocity": 0.7165354330708661
        },
        {
          "duration": 0.7646484375,
          "durationTicks": 522,
          "midi": 68,
          "name": "G#4",
          "ticks": 389888,
          "time": 571.125,
          "velocity": 0.7322834645669292
        },
        {
          "duration": 0.7646484375,
          "durationTicks": 522,
          "midi": 69,
          "name": "A4",
          "ticks": 390400,
          "time": 571.875,
          "velocity": 0.8031496062992126
        },
        {
          "duration": 0.7646484375,
          "durationTicks": 522,
          "midi": 70,
          "name": "A#4",
          "ticks": 390912,
          "time": 572.625,
          "velocity": 0.8503937007874016
        },
        {
          "duration": 0.7646484375,
          "durationTicks": 522,
          "midi": 71,
          "name": "B4",
          "ticks": 391424,
          "time": 573.375,
          "velocity": 0.8267716535433071
        },
        {
          "duration": 0.7646484375,
          "durationTicks": 522,
          "midi": 72,
          "name": "C5",
          "ticks": 391936,
          "time": 574.125,
          "velocity": 0.8740157480314961
        },
        {
          "duration": 0.7119140625,
          "durationTicks": 486,
          "midi": 73,
          "name": "C#5",
          "ticks": 392448,
          "time": 574.875,
          "velocity": 0.8110236220472441
        },
        {
          "duration": 0.09375,
          "durationTicks": 64,
          "midi": 70,
          "name": "A#4",
          "ticks": 393152,
          "time": 575.90625,
          "velocity": 0.41732283464566927
        },
        {
          "duration": 0.09375,
          "durationTicks": 64,
          "midi": 79,
          "name": "G5",
          "ticks": 393152,
          "time": 575.90625,
          "velocity": 0.41732283464566927
        },
        {
          "duration": 1.529296875,
          "durationTicks": 1044,
          "midi": 70,
          "name": "A#4",
          "ticks": 393216,
          "time": 576,
          "velocity": 0.4881889763779528
        },
        {
          "duration": 1.529296875,
          "durationTicks": 1044,
          "midi": 79,
          "name": "G5",
          "ticks": 393216,
          "time": 576,
          "velocity": 0.4881889763779528
        },
        {
          "duration": 1.423828125,
          "durationTicks": 972,
          "midi": 69,
          "name": "A4",
          "ticks": 394240,
          "time": 577.5,
          "velocity": 0.3700787401574803
        },
        {
          "duration": 1.423828125,
          "durationTicks": 972,
          "midi": 72,
          "name": "C5",
          "ticks": 394240,
          "time": 577.5,
          "velocity": 0.3700787401574803
        },
        {
          "duration": 0.375,
          "durationTicks": 256,
          "midi": 67,
          "name": "G4",
          "ticks": 395264,
          "time": 579,
          "velocity": 0.44881889763779526
        },
        {
          "duration": 0.375,
          "durationTicks": 256,
          "midi": 70,
          "name": "A#4",
          "ticks": 395264,
          "time": 579,
          "velocity": 0.44881889763779526
        },
        {
          "duration": 0.1875,
          "durationTicks": 128,
          "midi": 75,
          "name": "D#5",
          "ticks": 400128,
          "time": 586.125,
          "velocity": 0.44881889763779526
        },
        {
          "duration": 0.1875,
          "durationTicks": 128,
          "midi": 74,
          "name": "D5",
          "ticks": 400256,
          "time": 586.3125,
          "velocity": 0.4881889763779528
        },
        {
          "duration": 0.375,
          "durationTicks": 256,
          "midi": 74,
          "name": "D5",
          "ticks": 400384,
          "time": 586.5,
          "velocity": 0.4881889763779528
        },
        {
          "duration": 0.1875,
          "durationTicks": 128,
          "midi": 75,
          "name": "D#5",
          "ticks": 400640,
          "time": 586.875,
          "velocity": 0.5433070866141733
        },
        {
          "duration": 0.1875,
          "durationTicks": 128,
          "midi": 74,
          "name": "D5",
          "ticks": 400768,
          "time": 587.0625,
          "velocity": 0.4645669291338583
        },
        {
          "duration": 0.375,
          "durationTicks": 256,
          "midi": 74,
          "name": "D5",
          "ticks": 400896,
          "time": 587.25,
          "velocity": 0.49606299212598426
        },
        {
          "duration": 0.1875,
          "durationTicks": 128,
          "midi": 75,
          "name": "D#5",
          "ticks": 401152,
          "time": 587.625,
          "velocity": 0.4881889763779528
        },
        {
          "duration": 0.1875,
          "durationTicks": 128,
          "midi": 74,
          "name": "D5",
          "ticks": 401280,
          "time": 587.8125,
          "velocity": 0.4881889763779528
        },
        {
          "duration": 0.375,
          "durationTicks": 256,
          "midi": 70,
          "name": "A#4",
          "ticks": 401408,
          "time": 588,
          "velocity": 0.7401574803149606
        },
        {
          "duration": 0.375,
          "durationTicks": 256,
          "midi": 74,
          "name": "D5",
          "ticks": 401408,
          "time": 588,
          "velocity": 0.7401574803149606
        },
        {
          "duration": 0.1875,
          "durationTicks": 128,
          "midi": 70,
          "name": "A#4",
          "ticks": 401664,
          "time": 588.375,
          "velocity": 0.7795275590551181
        },
        {
          "duration": 0.1875,
          "durationTicks": 128,
          "midi": 74,
          "name": "D5",
          "ticks": 401664,
          "time": 588.375,
          "velocity": 0.7795275590551181
        },
        {
          "duration": 0.1875,
          "durationTicks": 128,
          "midi": 70,
          "name": "A#4",
          "ticks": 401792,
          "time": 588.5625,
          "velocity": 0.7795275590551181
        },
        {
          "duration": 0.1875,
          "durationTicks": 128,
          "midi": 74,
          "name": "D5",
          "ticks": 401792,
          "time": 588.5625,
          "velocity": 0.7795275590551181
        },
        {
          "duration": 0.375,
          "durationTicks": 256,
          "midi": 72,
          "name": "C5",
          "ticks": 401920,
          "time": 588.75,
          "velocity": 0.7480314960629921
        },
        {
          "duration": 0.375,
          "durationTicks": 256,
          "midi": 74,
          "name": "D5",
          "ticks": 401920,
          "time": 588.75,
          "velocity": 0.7480314960629921
        },
        {
          "duration": 0.1875,
          "durationTicks": 128,
          "midi": 72,
          "name": "C5",
          "ticks": 402176,
          "time": 589.125,
          "velocity": 0.7637795275590551
        },
        {
          "duration": 0.1875,
          "durationTicks": 128,
          "midi": 74,
          "name": "D5",
          "ticks": 402176,
          "time": 589.125,
          "velocity": 0.7637795275590551
        },
        {
          "duration": 0.1875,
          "durationTicks": 128,
          "midi": 72,
          "name": "C5",
          "ticks": 402304,
          "time": 589.3125,
          "velocity": 0.7559055118110236
        },
        {
          "duration": 0.1875,
          "durationTicks": 128,
          "midi": 74,
          "name": "D5",
          "ticks": 402304,
          "time": 589.3125,
          "velocity": 0.7559055118110236
        },
        {
          "duration": 0.375,
          "durationTicks": 256,
          "midi": 70,
          "name": "A#4",
          "ticks": 402432,
          "time": 589.5,
          "velocity": 0.7795275590551181
        },
        {
          "duration": 0.375,
          "durationTicks": 256,
          "midi": 74,
          "name": "D5",
          "ticks": 402432,
          "time": 589.5,
          "velocity": 0.7795275590551181
        },
        {
          "duration": 0.1875,
          "durationTicks": 128,
          "midi": 70,
          "name": "A#4",
          "ticks": 402688,
          "time": 589.875,
          "velocity": 0.7716535433070866
        },
        {
          "duration": 0.1875,
          "durationTicks": 128,
          "midi": 74,
          "name": "D5",
          "ticks": 402688,
          "time": 589.875,
          "velocity": 0.7716535433070866
        },
        {
          "duration": 0.1875,
          "durationTicks": 128,
          "midi": 70,
          "name": "A#4",
          "ticks": 402816,
          "time": 590.0625,
          "velocity": 0.7874015748031497
        },
        {
          "duration": 0.1875,
          "durationTicks": 128,
          "midi": 74,
          "name": "D5",
          "ticks": 402816,
          "time": 590.0625,
          "velocity": 0.7874015748031497
        },
        {
          "duration": 0.375,
          "durationTicks": 256,
          "midi": 72,
          "name": "C5",
          "ticks": 402944,
          "time": 590.25,
          "velocity": 0.7559055118110236
        },
        {
          "duration": 0.375,
          "durationTicks": 256,
          "midi": 74,
          "name": "D5",
          "ticks": 402944,
          "time": 590.25,
          "velocity": 0.7559055118110236
        },
        {
          "duration": 0.1875,
          "durationTicks": 128,
          "midi": 72,
          "name": "C5",
          "ticks": 403200,
          "time": 590.625,
          "velocity": 0.7952755905511811
        },
        {
          "duration": 0.1875,
          "durationTicks": 128,
          "midi": 74,
          "name": "D5",
          "ticks": 403200,
          "time": 590.625,
          "velocity": 0.7952755905511811
        },
        {
          "duration": 0.1875,
          "durationTicks": 128,
          "midi": 72,
          "name": "C5",
          "ticks": 403328,
          "time": 590.8125,
          "velocity": 0.7637795275590551
        },
        {
          "duration": 0.1875,
          "durationTicks": 128,
          "midi": 74,
          "name": "D5",
          "ticks": 403328,
          "time": 590.8125,
          "velocity": 0.7637795275590551
        },
        {
          "duration": 0.375,
          "durationTicks": 256,
          "midi": 70,
          "name": "A#4",
          "ticks": 403456,
          "time": 591,
          "velocity": 0.7795275590551181
        },
        {
          "duration": 0.375,
          "durationTicks": 256,
          "midi": 74,
          "name": "D5",
          "ticks": 403456,
          "time": 591,
          "velocity": 0.7795275590551181
        },
        {
          "duration": 0.1875,
          "durationTicks": 128,
          "midi": 70,
          "name": "A#4",
          "ticks": 403712,
          "time": 591.375,
          "velocity": 0.7874015748031497
        },
        {
          "duration": 0.1875,
          "durationTicks": 128,
          "midi": 74,
          "name": "D5",
          "ticks": 403712,
          "time": 591.375,
          "velocity": 0.7874015748031497
        },
        {
          "duration": 0.1875,
          "durationTicks": 128,
          "midi": 70,
          "name": "A#4",
          "ticks": 403840,
          "time": 591.5625,
          "velocity": 0.8110236220472441
        },
        {
          "duration": 0.1875,
          "durationTicks": 128,
          "midi": 74,
          "name": "D5",
          "ticks": 403840,
          "time": 591.5625,
          "velocity": 0.8110236220472441
        },
        {
          "duration": 0.375,
          "durationTicks": 256,
          "midi": 72,
          "name": "C5",
          "ticks": 403968,
          "time": 591.75,
          "velocity": 0.7795275590551181
        },
        {
          "duration": 0.375,
          "durationTicks": 256,
          "midi": 74,
          "name": "D5",
          "ticks": 403968,
          "time": 591.75,
          "velocity": 0.7795275590551181
        },
        {
          "duration": 0.1875,
          "durationTicks": 128,
          "midi": 72,
          "name": "C5",
          "ticks": 404224,
          "time": 592.125,
          "velocity": 0.8188976377952756
        },
        {
          "duration": 0.1875,
          "durationTicks": 128,
          "midi": 74,
          "name": "D5",
          "ticks": 404224,
          "time": 592.125,
          "velocity": 0.8188976377952756
        },
        {
          "duration": 0.1875,
          "durationTicks": 128,
          "midi": 72,
          "name": "C5",
          "ticks": 404352,
          "time": 592.3125,
          "velocity": 0.7874015748031497
        },
        {
          "duration": 0.1875,
          "durationTicks": 128,
          "midi": 74,
          "name": "D5",
          "ticks": 404352,
          "time": 592.3125,
          "velocity": 0.7874015748031497
        },
        {
          "duration": 0.375,
          "durationTicks": 256,
          "midi": 70,
          "name": "A#4",
          "ticks": 404480,
          "time": 592.5,
          "velocity": 0.7952755905511811
        },
        {
          "duration": 0.375,
          "durationTicks": 256,
          "midi": 74,
          "name": "D5",
          "ticks": 404480,
          "time": 592.5,
          "velocity": 0.7952755905511811
        },
        {
          "duration": 0.375,
          "durationTicks": 256,
          "midi": 72,
          "name": "C5",
          "ticks": 404736,
          "time": 592.875,
          "velocity": 0.7401574803149606
        },
        {
          "duration": 0.375,
          "durationTicks": 256,
          "midi": 74,
          "name": "D5",
          "ticks": 404736,
          "time": 592.875,
          "velocity": 0.7401574803149606
        },
        {
          "duration": 0.375,
          "durationTicks": 256,
          "midi": 70,
          "name": "A#4",
          "ticks": 404992,
          "time": 593.25,
          "velocity": 0.7952755905511811
        },
        {
          "duration": 0.375,
          "durationTicks": 256,
          "midi": 74,
          "name": "D5",
          "ticks": 404992,
          "time": 593.25,
          "velocity": 0.7952755905511811
        },
        {
          "duration": 0.375,
          "durationTicks": 256,
          "midi": 72,
          "name": "C5",
          "ticks": 405248,
          "time": 593.625,
          "velocity": 0.8031496062992126
        },
        {
          "duration": 0.375,
          "durationTicks": 256,
          "midi": 74,
          "name": "D5",
          "ticks": 405248,
          "time": 593.625,
          "velocity": 0.8031496062992126
        },
        {
          "duration": 0.375,
          "durationTicks": 256,
          "midi": 70,
          "name": "A#4",
          "ticks": 405504,
          "time": 594,
          "velocity": 0.7795275590551181
        },
        {
          "duration": 0.375,
          "durationTicks": 256,
          "midi": 74,
          "name": "D5",
          "ticks": 405504,
          "time": 594,
          "velocity": 0.7795275590551181
        },
        {
          "duration": 0.375,
          "durationTicks": 256,
          "midi": 70,
          "name": "A#4",
          "ticks": 406528,
          "time": 595.5,
          "velocity": 0.6850393700787402
        },
        {
          "duration": 0.375,
          "durationTicks": 256,
          "midi": 74,
          "name": "D5",
          "ticks": 406528,
          "time": 595.5,
          "velocity": 0.6850393700787402
        },
        {
          "duration": 0.375,
          "durationTicks": 256,
          "midi": 70,
          "name": "A#4",
          "ticks": 407040,
          "time": 596.25,
          "velocity": 0.6929133858267716
        },
        {
          "duration": 0.375,
          "durationTicks": 256,
          "midi": 74,
          "name": "D5",
          "ticks": 407040,
          "time": 596.25,
          "velocity": 0.6929133858267716
        },
        {
          "duration": 0.75,
          "durationTicks": 512,
          "midi": 70,
          "name": "A#4",
          "ticks": 407552,
          "time": 597,
          "velocity": 0.6929133858267716
        },
        {
          "duration": 0.75,
          "durationTicks": 512,
          "midi": 74,
          "name": "D5",
          "ticks": 407552,
          "time": 597,
          "velocity": 0.6929133858267716
        }
      ],
      "endOfTrackTicks": 408065
    },
    {
      "channel": 3,
      "controlChanges": {
        "7": [
          {
            "number": 7,
            "ticks": 0,
            "time": 0,
            "value": 0.5905511811023622
          }
        ],
        "10": [
          {
            "number": 10,
            "ticks": 0,
            "time": 0,
            "value": 0.5511811023622047
          }
        ],
        "64": [
          {
            "number": 64,
            "ticks": 0,
            "time": 0,
            "value": 0
          }
        ],
        "91": [
          {
            "number": 91,
            "ticks": 0,
            "time": 0,
            "value": 0.44881889763779526
          }
        ],
        "121": [
          {
            "number": 121,
            "ticks": 0,
            "time": 0,
            "value": 0
          }
        ]
      },
      "pitchBends": [],
      "instrument": {
        "family": "reed",
        "number": 70,
        "name": "bassoon"
      },
      "name": "Bassoon",
      "notes": [
        {
          "duration": 0.38232421875,
          "durationTicks": 261,
          "midi": 54,
          "name": "F#3",
          "ticks": 13568,
          "time": 19.875,
          "velocity": 0.4409448818897638
        },
        {
          "duration": 0.38232421875,
          "durationTicks": 261,
          "midi": 55,
          "name": "G3",
          "ticks": 13824,
          "time": 20.25,
          "velocity": 0.44881889763779526
        },
        {
          "duration": 0.38232421875,
          "durationTicks": 261,
          "midi": 57,
          "name": "A3",
          "ticks": 14080,
          "time": 20.625,
          "velocity": 0.4645669291338583
        },
        {
          "duration": 0.38232421875,
          "durationTicks": 261,
          "midi": 58,
          "name": "A#3",
          "ticks": 14336,
          "time": 21,
          "velocity": 0.44881889763779526
        },
        {
          "duration": 0.1904296875,
          "durationTicks": 130,
          "midi": 60,
          "name": "C4",
          "ticks": 14592,
          "time": 21.375,
          "velocity": 0.5039370078740157
        },
        {
          "duration": 0.1904296875,
          "durationTicks": 130,
          "midi": 58,
          "name": "A#3",
          "ticks": 14720,
          "time": 21.5625,
          "velocity": 0.5118110236220472
        },
        {
          "duration": 0.38232421875,
          "durationTicks": 261,
          "midi": 57,
          "name": "A3",
          "ticks": 14848,
          "time": 21.75,
          "velocity": 0.44881889763779526
        },
        {
          "duration": 0.38232421875,
          "durationTicks": 261,
          "midi": 55,
          "name": "G3",
          "ticks": 15104,
          "time": 22.125,
          "velocity": 0.4251968503937008
        },
        {
          "duration": 0.35595703125,
          "durationTicks": 243,
          "midi": 54,
          "name": "F#3",
          "ticks": 15360,
          "time": 22.5,
          "velocity": 0.4881889763779528
        },
        {
          "duration": 0.75,
          "durationTicks": 512,
          "midi": 58,
          "name": "A#3",
          "ticks": 15872,
          "time": 23.25,
          "velocity": 0.4251968503937008
        },
        {
          "duration": 0.75,
          "durationTicks": 512,
          "midi": 64,
          "name": "E4",
          "ticks": 15872,
          "time": 23.25,
          "velocity": 0.4251968503937008
        },
        {
          "duration": 0.375,
          "durationTicks": 256,
          "midi": 57,
          "name": "A3",
          "ticks": 16384,
          "time": 24,
          "velocity": 0.5354330708661418
        },
        {
          "duration": 0.375,
          "durationTicks": 256,
          "midi": 66,
          "name": "F#4",
          "ticks": 16384,
          "time": 24,
          "velocity": 0.5354330708661418
        },
        {
          "duration": 0.75,
          "durationTicks": 512,
          "midi": 58,
          "name": "A#3",
          "ticks": 16896,
          "time": 24.75,
          "velocity": 0.41732283464566927
        },
        {
          "duration": 0.75,
          "durationTicks": 512,
          "midi": 64,
          "name": "E4",
          "ticks": 16896,
          "time": 24.75,
          "velocity": 0.41732283464566927
        },
        {
          "duration": 0.375,
          "durationTicks": 256,
          "midi": 57,
          "name": "A3",
          "ticks": 17408,
          "time": 25.5,
          "velocity": 0.5196850393700787
        },
        {
          "duration": 0.375,
          "durationTicks": 256,
          "midi": 66,
          "name": "F#4",
          "ticks": 17408,
          "time": 25.5,
          "velocity": 0.5196850393700787
        },
        {
          "duration": 0.75,
          "durationTicks": 512,
          "midi": 58,
          "name": "A#3",
          "ticks": 17920,
          "time": 26.25,
          "velocity": 0.4566929133858268
        },
        {
          "duration": 0.75,
          "durationTicks": 512,
          "midi": 64,
          "name": "E4",
          "ticks": 17920,
          "time": 26.25,
          "velocity": 0.4566929133858268
        },
        {
          "duration": 0.375,
          "durationTicks": 256,
          "midi": 57,
          "name": "A3",
          "ticks": 18432,
          "time": 27,
          "velocity": 0.5118110236220472
        },
        {
          "duration": 0.375,
          "durationTicks": 256,
          "midi": 66,
          "name": "F#4",
          "ticks": 18432,
          "time": 27,
          "velocity": 0.5118110236220472
        },
        {
          "duration": 0.1875,
          "durationTicks": 128,
          "midi": 58,
          "name": "A#3",
          "ticks": 18688,
          "time": 27.375,
          "velocity": 0.44881889763779526
        },
        {
          "duration": 0.1875,
          "durationTicks": 128,
          "midi": 64,
          "name": "E4",
          "ticks": 18688,
          "time": 27.375,
          "velocity": 0.44881889763779526
        },
        {
          "duration": 0.1875,
          "durationTicks": 128,
          "midi": 57,
          "name": "A3",
          "ticks": 18944,
          "time": 27.75,
          "velocity": 0.49606299212598426
        },
        {
          "duration": 0.1875,
          "durationTicks": 128,
          "midi": 66,
          "name": "F#4",
          "ticks": 18944,
          "time": 27.75,
          "velocity": 0.49606299212598426
        },
        {
          "duration": 0.1875,
          "durationTicks": 128,
          "midi": 58,
          "name": "A#3",
          "ticks": 19200,
          "time": 28.125,
          "velocity": 0.4330708661417323
        },
        {
          "duration": 0.1875,
          "durationTicks": 128,
          "midi": 64,
          "name": "E4",
          "ticks": 19200,
          "time": 28.125,
          "velocity": 0.4330708661417323
        },
        {
          "duration": 0.75,
          "durationTicks": 512,
          "midi": 66,
          "name": "F#4",
          "ticks": 19456,
          "time": 28.5,
          "velocity": 0.5118110236220472
        },
        {
          "duration": 1.5,
          "durationTicks": 1024,
          "midi": 57,
          "name": "A3",
          "ticks": 19456,
          "time": 28.5,
          "velocity": 0.4330708661417323
        },
        {
          "duration": 0.75,
          "durationTicks": 512,
          "midi": 60,
          "name": "C4",
          "ticks": 19968,
          "time": 29.25,
          "velocity": 0.4015748031496063
        },
        {
          "duration": 0.7646484375,
          "durationTicks": 522,
          "midi": 58,
          "name": "A#3",
          "ticks": 20480,
          "time": 30,
          "velocity": 0.4409448818897638
        },
        {
          "duration": 0.7646484375,
          "durationTicks": 522,
          "midi": 55,
          "name": "G3",
          "ticks": 20480,
          "time": 30,
          "velocity": 0.4251968503937008
        },
        {
          "duration": 0.7119140625,
          "durationTicks": 486,
          "midi": 57,
          "name": "A3",
          "ticks": 20992,
          "time": 30.75,
          "velocity": 0.4409448818897638
        },
        {
          "duration": 0.7119140625,
          "durationTicks": 486,
          "midi": 54,
          "name": "F#3",
          "ticks": 20992,
          "time": 30.75,
          "velocity": 0.44881889763779526
        },
        {
          "duration": 0.375,
          "durationTicks": 256,
          "midi": 58,
          "name": "A#3",
          "ticks": 21504,
          "time": 31.5,
          "velocity": 0.4566929133858268
        },
        {
          "duration": 0.375,
          "durationTicks": 256,
          "midi": 55,
          "name": "G3",
          "ticks": 21504,
          "time": 31.5,
          "velocity": 0.5118110236220472
        },
        {
          "duration": 3,
          "durationTicks": 2048,
          "midi": 67,
          "name": "G4",
          "ticks": 23552,
          "time": 34.5,
          "velocity": 0.3937007874015748
        },
        {
          "duration": 6,
          "durationTicks": 4096,
          "midi": 63,
          "name": "D#4",
          "ticks": 23552,
          "time": 34.5,
          "velocity": 0.47244094488188976
        },
        {
          "duration": 1.5,
          "durationTicks": 1024,
          "midi": 65,
          "name": "F4",
          "ticks": 25600,
          "time": 37.5,
          "velocity": 0.4566929133858268
        },
        {
          "duration": 1.875,
          "durationTicks": 1280,
          "midi": 65,
          "name": "F4",
          "ticks": 26624,
          "time": 39,
          "velocity": 0.5354330708661418
        },
        {
          "duration": 0.375,
          "durationTicks": 256,
          "midi": 62,
          "name": "D4",
          "ticks": 27648,
          "time": 40.5,
          "velocity": 0.4566929133858268
        },
        {
          "duration": 0.1875,
          "durationTicks": 128,
          "midi": 58,
          "name": "A#3",
          "ticks": 27904,
          "time": 40.875,
          "velocity": 0.6850393700787402
        },
        {
          "duration": 0.1875,
          "durationTicks": 128,
          "midi": 62,
          "name": "D4",
          "ticks": 28032,
          "time": 41.0625,
          "velocity": 0.8267716535433071
        },
        {
          "duration": 0.1875,
          "durationTicks": 128,
          "midi": 58,
          "name": "A#3",
          "ticks": 28160,
          "time": 41.25,
          "velocity": 0.7007874015748031
        },
        {
          "duration": 0.1875,
          "durationTicks": 128,
          "midi": 62,
          "name": "D4",
          "ticks": 28288,
          "time": 41.4375,
          "velocity": 0.8503937007874016
        },
        {
          "duration": 0.1875,
          "durationTicks": 128,
          "midi": 58,
          "name": "A#3",
          "ticks": 28416,
          "time": 41.625,
          "velocity": 0.7244094488188977
        },
        {
          "duration": 0.1875,
          "durationTicks": 128,
          "midi": 62,
          "name": "D4",
          "ticks": 28544,
          "time": 41.8125,
          "velocity": 0.84251968503937
        },
        {
          "duration": 0.1875,
          "durationTicks": 128,
          "midi": 57,
          "name": "A3",
          "ticks": 28672,
          "time": 42,
          "velocity": 0.7244094488188977
        },
        {
          "duration": 0.1875,
          "durationTicks": 128,
          "midi": 60,
          "name": "C4",
          "ticks": 28800,
          "time": 42.1875,
          "velocity": 0.8582677165354331
        },
        {
          "duration": 0.1875,
          "durationTicks": 128,
          "midi": 57,
          "name": "A3",
          "ticks": 28928,
          "time": 42.375,
          "velocity": 0.7244094488188977
        },
        {
          "duration": 0.1875,
          "durationTicks": 128,
          "midi": 60,
          "name": "C4",
          "ticks": 29056,
          "time": 42.5625,
          "velocity": 0.8346456692913385
        },
        {
          "duration": 0.1875,
          "durationTicks": 128,
          "midi": 57,
          "name": "A3",
          "ticks": 29184,
          "time": 42.75,
          "velocity": 0.7086614173228346
        },
        {
          "duration": 0.1875,
          "durationTicks": 128,
          "midi": 60,
          "name": "C4",
          "ticks": 29312,
          "time": 42.9375,
          "velocity": 0.84251968503937
        },
        {
          "duration": 0.1875,
          "durationTicks": 128,
          "midi": 57,
          "name": "A3",
          "ticks": 29440,
          "time": 43.125,
          "velocity": 0.7322834645669292
        },
        {
          "duration": 0.1875,
          "durationTicks": 128,
          "midi": 60,
          "name": "C4",
          "ticks": 29568,
          "time": 43.3125,
          "velocity": 0.8267716535433071
        },
        {
          "duration": 0.1875,
          "durationTicks": 128,
          "midi": 55,
          "name": "G3",
          "ticks": 29696,
          "time": 43.5,
          "velocity": 0.7086614173228346
        },
        {
          "duration": 0.1875,
          "durationTicks": 128,
          "midi": 58,
          "name": "A#3",
          "ticks": 29824,
          "time": 43.6875,
          "velocity": 0.8031496062992126
        },
        {
          "duration": 0.1875,
          "durationTicks": 128,
          "midi": 55,
          "name": "G3",
          "ticks": 29952,
          "time": 43.875,
          "velocity": 0.7165354330708661
        },
        {
          "duration": 0.1875,
          "durationTicks": 128,
          "midi": 58,
          "name": "A#3",
          "ticks": 30080,
          "time": 44.0625,
          "velocity": 0.84251968503937
        },
        {
          "duration": 0.1875,
          "durationTicks": 128,
          "midi": 55,
          "name": "G3",
          "ticks": 30208,
          "time": 44.25,
          "velocity": 0.7086614173228346
        },
        {
          "duration": 0.1875,
          "durationTicks": 128,
          "midi": 58,
          "name": "A#3",
          "ticks": 30336,
          "time": 44.4375,
          "velocity": 0.7795275590551181
        },
        {
          "duration": 0.1875,
          "durationTicks": 128,
          "midi": 55,
          "name": "G3",
          "ticks": 30464,
          "time": 44.625,
          "velocity": 0.7480314960629921
        },
        {
          "duration": 0.1875,
          "durationTicks": 128,
          "midi": 58,
          "name": "A#3",
          "ticks": 30592,
          "time": 44.8125,
          "velocity": 0.8503937007874016
        },
        {
          "duration": 0.1875,
          "durationTicks": 128,
          "midi": 53,
          "name": "F3",
          "ticks": 30720,
          "time": 45,
          "velocity": 0.7086614173228346
        },
        {
          "duration": 0.1875,
          "durationTicks": 128,
          "midi": 58,
          "name": "A#3",
          "ticks": 30848,
          "time": 45.1875,
          "velocity": 0.8188976377952756
        },
        {
          "duration": 0.1875,
          "durationTicks": 128,
          "midi": 53,
          "name": "F3",
          "ticks": 30976,
          "time": 45.375,
          "velocity": 0.7637795275590551
        },
        {
          "duration": 0.1875,
          "durationTicks": 128,
          "midi": 58,
          "name": "A#3",
          "ticks": 31104,
          "time": 45.5625,
          "velocity": 0.8267716535433071
        },
        {
          "duration": 0.1875,
          "durationTicks": 128,
          "midi": 53,
          "name": "F3",
          "ticks": 31232,
          "time": 45.75,
          "velocity": 0.7244094488188977
        },
        {
          "duration": 0.1875,
          "durationTicks": 128,
          "midi": 58,
          "name": "A#3",
          "ticks": 31360,
          "time": 45.9375,
          "velocity": 0.8267716535433071
        },
        {
          "duration": 0.1875,
          "durationTicks": 128,
          "midi": 53,
          "name": "F3",
          "ticks": 31488,
          "time": 46.125,
          "velocity": 0.7244094488188977
        },
        {
          "duration": 0.1875,
          "durationTicks": 128,
          "midi": 58,
          "name": "A#3",
          "ticks": 31616,
          "time": 46.3125,
          "velocity": 0.8031496062992126
        },
        {
          "duration": 0.1875,
          "durationTicks": 128,
          "midi": 51,
          "name": "D#3",
          "ticks": 31744,
          "time": 46.5,
          "velocity": 0.7086614173228346
        },
        {
          "duration": 0.1875,
          "durationTicks": 128,
          "midi": 55,
          "name": "G3",
          "ticks": 31872,
          "time": 46.6875,
          "velocity": 0.8031496062992126
        },
        {
          "duration": 0.1875,
          "durationTicks": 128,
          "midi": 51,
          "name": "D#3",
          "ticks": 32000,
          "time": 46.875,
          "velocity": 0.7716535433070866
        },
        {
          "duration": 0.1875,
          "durationTicks": 128,
          "midi": 55,
          "name": "G3",
          "ticks": 32128,
          "time": 47.0625,
          "velocity": 0.8110236220472441
        },
        {
          "duration": 0.1875,
          "durationTicks": 128,
          "midi": 51,
          "name": "D#3",
          "ticks": 32256,
          "time": 47.25,
          "velocity": 0.7165354330708661
        },
        {
          "duration": 0.1875,
          "durationTicks": 128,
          "midi": 55,
          "name": "G3",
          "ticks": 32384,
          "time": 47.4375,
          "velocity": 0.8031496062992126
        },
        {
          "duration": 0.1875,
          "durationTicks": 128,
          "midi": 51,
          "name": "D#3",
          "ticks": 32512,
          "time": 47.625,
          "velocity": 0.7480314960629921
        },
        {
          "duration": 0.1875,
          "durationTicks": 128,
          "midi": 55,
          "name": "G3",
          "ticks": 32640,
          "time": 47.8125,
          "velocity": 0.7952755905511811
        },
        {
          "duration": 0.1875,
          "durationTicks": 128,
          "midi": 50,
          "name": "D3",
          "ticks": 32768,
          "time": 48,
          "velocity": 0.7401574803149606
        },
        {
          "duration": 0.1875,
          "durationTicks": 128,
          "midi": 53,
          "name": "F3",
          "ticks": 32896,
          "time": 48.1875,
          "velocity": 0.8110236220472441
        },
        {
          "duration": 0.1875,
          "durationTicks": 128,
          "midi": 50,
          "name": "D3",
          "ticks": 33024,
          "time": 48.375,
          "velocity": 0.7401574803149606
        },
        {
          "duration": 0.1875,
          "durationTicks": 128,
          "midi": 53,
          "name": "F3",
          "ticks": 33152,
          "time": 48.5625,
          "velocity": 0.7637795275590551
        },
        {
          "duration": 0.1875,
          "durationTicks": 128,
          "midi": 50,
          "name": "D3",
          "ticks": 33280,
          "time": 48.75,
          "velocity": 0.7401574803149606
        },
        {
          "duration": 0.1875,
          "durationTicks": 128,
          "midi": 53,
          "name": "F3",
          "ticks": 33408,
          "time": 48.9375,
          "velocity": 0.7795275590551181
        },
        {
          "duration": 0.1875,
          "durationTicks": 128,
          "midi": 50,
          "name": "D3",
          "ticks": 33536,
          "time": 49.125,
          "velocity": 0.7007874015748031
        },
        {
          "duration": 0.1875,
          "durationTicks": 128,
          "midi": 53,
          "name": "F3",
          "ticks": 33664,
          "time": 49.3125,
          "velocity": 0.7874015748031497
        },
        {
          "duration": 1.3125,
          "durationTicks": 896,
          "midi": 64,
          "name": "E4",
          "ticks": 33792,
          "time": 49.5,
          "velocity": 0.9763779527559056
        },
        {
          "duration": 1.5,
          "durationTicks": 1024,
          "midi": 55,
          "name": "G3",
          "ticks": 33792,
          "time": 49.5,
          "velocity": 0.6929133858267716
        },
        {
          "duration": 0.17724609375,
          "durationTicks": 121,
          "midi": 65,
          "name": "F4",
          "ticks": 34688,
          "time": 50.8125,
          "velocity": 0.84251968503937
        },
        {
          "duration": 1.3125,
          "durationTicks": 896,
          "midi": 64,
          "name": "E4",
          "ticks": 34816,
          "time": 51,
          "velocity": 0.7401574803149606
        },
        {
          "duration": 1.5,
          "durationTicks": 1024,
          "midi": 55,
          "name": "G3",
          "ticks": 34816,
          "time": 51,
          "velocity": 0.7480314960629921
        },
        {
          "duration": 0.17724609375,
          "durationTicks": 121,
          "midi": 65,
          "name": "F4",
          "ticks": 35712,
          "time": 52.3125,
          "velocity": 0.8188976377952756
        },
        {
          "duration": 1.3125,
          "durationTicks": 896,
          "midi": 64,
          "name": "E4",
          "ticks": 35840,
          "time": 52.5,
          "velocity": 0.7559055118110236
        },
        {
          "duration": 1.5,
          "durationTicks": 1024,
          "midi": 55,
          "name": "G3",
          "ticks": 35840,
          "time": 52.5,
          "velocity": 0.7322834645669292
        },
        {
          "duration": 0.17724609375,
          "durationTicks": 121,
          "midi": 65,
          "name": "F4",
          "ticks": 36736,
          "time": 53.8125,
          "velocity": 0.8031496062992126
        },
        {
          "duration": 1.5,
          "durationTicks": 1024,
          "midi": 64,
          "name": "E4",
          "ticks": 36864,
          "time": 54,
          "velocity": 0.7637795275590551
        },
        {
          "duration": 1.5,
          "durationTicks": 1024,
          "midi": 55,
          "name": "G3",
          "ticks": 36864,
          "time": 54,
          "velocity": 0.7165354330708661
        },
        {
          "duration": 0.1875,
          "durationTicks": 128,
          "midi": 53,
          "name": "F3",
          "ticks": 37888,
          "time": 55.5,
          "velocity": 0.7874015748031497
        },
        {
          "duration": 0.1875,
          "durationTicks": 128,
          "midi": 65,
          "name": "F4",
          "ticks": 37888,
          "time": 55.5,
          "velocity": 0.7874015748031497
        },
        {
          "duration": 0.1875,
          "durationTicks": 128,
          "midi": 53,
          "name": "F3",
          "ticks": 38016,
          "time": 55.6875,
          "velocity": 0.6771653543307087
        },
        {
          "duration": 0.1875,
          "durationTicks": 128,
          "midi": 53,
          "name": "F3",
          "ticks": 38144,
          "time": 55.875,
          "velocity": 0.7559055118110236
        },
        {
          "duration": 0.1875,
          "durationTicks": 128,
          "midi": 53,
          "name": "F3",
          "ticks": 38272,
          "time": 56.0625,
          "velocity": 0.7874015748031497
        },
        {
          "duration": 0.1875,
          "durationTicks": 128,
          "midi": 53,
          "name": "F3",
          "ticks": 38400,
          "time": 56.25,
          "velocity": 0.7795275590551181
        },
        {
          "duration": 0.1875,
          "durationTicks": 128,
          "midi": 53,
          "name": "F3",
          "ticks": 38528,
          "time": 56.4375,
          "velocity": 0.7559055118110236
        },
        {
          "duration": 0.1875,
          "durationTicks": 128,
          "midi": 53,
          "name": "F3",
          "ticks": 38656,
          "time": 56.625,
          "velocity": 0.7874015748031497
        },
        {
          "duration": 0.1875,
          "durationTicks": 128,
          "midi": 53,
          "name": "F3",
          "ticks": 38784,
          "time": 56.8125,
          "velocity": 0.7401574803149606
        },
        {
          "duration": 0.1875,
          "durationTicks": 128,
          "midi": 53,
          "name": "F3",
          "ticks": 38912,
          "time": 57,
          "velocity": 0.7874015748031497
        },
        {
          "duration": 0.1875,
          "durationTicks": 128,
          "midi": 53,
          "name": "F3",
          "ticks": 39040,
          "time": 57.1875,
          "velocity": 0.7637795275590551
        },
        {
          "duration": 0.1875,
          "durationTicks": 128,
          "midi": 53,
          "name": "F3",
          "ticks": 39168,
          "time": 57.375,
          "velocity": 0.7401574803149606
        },
        {
          "duration": 0.1875,
          "durationTicks": 128,
          "midi": 53,
          "name": "F3",
          "ticks": 39296,
          "time": 57.5625,
          "velocity": 0.8110236220472441
        },
        {
          "duration": 0.1875,
          "durationTicks": 128,
          "midi": 53,
          "name": "F3",
          "ticks": 39424,
          "time": 57.75,
          "velocity": 0.7716535433070866
        },
        {
          "duration": 0.1875,
          "durationTicks": 128,
          "midi": 53,
          "name": "F3",
          "ticks": 39552,
          "time": 57.9375,
          "velocity": 0.7795275590551181
        },
        {
          "duration": 0.1875,
          "durationTicks": 128,
          "midi": 53,
          "name": "F3",
          "ticks": 39680,
          "time": 58.125,
          "velocity": 0.7165354330708661
        },
        {
          "duration": 0.1875,
          "durationTicks": 128,
          "midi": 53,
          "name": "F3",
          "ticks": 39808,
          "time": 58.3125,
          "velocity": 0.7716535433070866
        },
        {
          "duration": 0.1875,
          "durationTicks": 128,
          "midi": 53,
          "name": "F3",
          "ticks": 39936,
          "time": 58.5,
          "velocity": 0.7716535433070866
        },
        {
          "duration": 0.1875,
          "durationTicks": 128,
          "midi": 53,
          "name": "F3",
          "ticks": 40064,
          "time": 58.6875,
          "velocity": 0.7795275590551181
        },
        {
          "duration": 0.1875,
          "durationTicks": 128,
          "midi": 53,
          "name": "F3",
          "ticks": 40192,
          "time": 58.875,
          "velocity": 0.7637795275590551
        },
        {
          "duration": 0.1875,
          "durationTicks": 128,
          "midi": 53,
          "name": "F3",
          "ticks": 40320,
          "time": 59.0625,
          "velocity": 0.7637795275590551
        },
        {
          "duration": 0.1875,
          "durationTicks": 128,
          "midi": 53,
          "name": "F3",
          "ticks": 40448,
          "time": 59.25,
          "velocity": 0.7637795275590551
        },
        {
          "duration": 0.1875,
          "durationTicks": 128,
          "midi": 53,
          "name": "F3",
          "ticks": 40576,
          "time": 59.4375,
          "velocity": 0.7795275590551181
        },
        {
          "duration": 0.1875,
          "durationTicks": 128,
          "midi": 53,
          "name": "F3",
          "ticks": 40704,
          "time": 59.625,
          "velocity": 0.7795275590551181
        },
        {
          "duration": 0.1875,
          "durationTicks": 128,
          "midi": 53,
          "name": "F3",
          "ticks": 40832,
          "time": 59.8125,
          "velocity": 0.7637795275590551
        },
        {
          "duration": 0.1875,
          "durationTicks": 128,
          "midi": 53,
          "name": "F3",
          "ticks": 40960,
          "time": 60,
          "velocity": 0.7795275590551181
        },
        {
          "duration": 0.1875,
          "durationTicks": 128,
          "midi": 53,
          "name": "F3",
          "ticks": 41088,
          "time": 60.1875,
          "velocity": 0.7637795275590551
        },
        {
          "duration": 0.1875,
          "durationTicks": 128,
          "midi": 53,
          "name": "F3",
          "ticks": 41216,
          "time": 60.375,
          "velocity": 0.7637795275590551
        },
        {
          "duration": 0.1875,
          "durationTicks": 128,
          "midi": 53,
          "name": "F3",
          "ticks": 41344,
          "time": 60.5625,
          "velocity": 0.7637795275590551
        },
        {
          "duration": 0.1875,
          "durationTicks": 128,
          "midi": 53,
          "name": "F3",
          "ticks": 41472,
          "time": 60.75,
          "velocity": 0.7716535433070866
        },
        {
          "duration": 0.1875,
          "durationTicks": 128,
          "midi": 53,
          "name": "F3",
          "ticks": 41600,
          "time": 60.9375,
          "velocity": 0.7716535433070866
        },
        {
          "duration": 0.1875,
          "durationTicks": 128,
          "midi": 53,
          "name": "F3",
          "ticks": 41728,
          "time": 61.125,
          "velocity": 0.7559055118110236
        },
        {
          "duration": 0.1875,
          "durationTicks": 128,
          "midi": 53,
          "name": "F3",
          "ticks": 41856,
          "time": 61.3125,
          "velocity": 0.7874015748031497
        },
        {
          "duration": 0.375,
          "durationTicks": 256,
          "midi": 53,
          "name": "F3",
          "ticks": 41984,
          "time": 61.5,
          "velocity": 0.7874015748031497
        },
        {
          "duration": 0.375,
          "durationTicks": 256,
          "midi": 41,
          "name": "F2",
          "ticks": 42496,
          "time": 62.25,
          "velocity": 0.6692913385826772
        },
        {
          "duration": 1.14697265625,
          "durationTicks": 783,
          "midi": 63,
          "name": "D#4",
          "ticks": 45056,
          "time": 66,
          "velocity": 0.41732283464566927
        },
        {
          "duration": 0.09521484375,
          "durationTicks": 65,
          "midi": 65,
          "name": "F4",
          "ticks": 45824,
          "time": 67.125,
          "velocity": 0.4094488188976378
        },
        {
          "duration": 0.09521484375,
          "durationTicks": 65,
          "midi": 63,
          "name": "D#4",
          "ticks": 45888,
          "time": 67.21875,
          "velocity": 0.44881889763779526
        },
        {
          "duration": 0.09521484375,
          "durationTicks": 65,
          "midi": 62,
          "name": "D4",
          "ticks": 45952,
          "time": 67.3125,
          "velocity": 0.4330708661417323
        },
        {
          "duration": 0.09521484375,
          "durationTicks": 65,
          "midi": 60,
          "name": "C4",
          "ticks": 46016,
          "time": 67.40625,
          "velocity": 0.4409448818897638
        },
        {
          "duration": 0.35595703125,
          "durationTicks": 243,
          "midi": 58,
          "name": "A#3",
          "ticks": 46080,
          "time": 67.5,
          "velocity": 0.4251968503937008
        },
        {
          "duration": 0.1904296875,
          "durationTicks": 130,
          "midi": 58,
          "name": "A#3",
          "ticks": 51200,
          "time": 75,
          "velocity": 0.44881889763779526
        },
        {
          "duration": 0.1904296875,
          "durationTicks": 130,
          "midi": 57,
          "name": "A3",
          "ticks": 51328,
          "time": 75.1875,
          "velocity": 0.4409448818897638
        },
        {
          "duration": 0.1904296875,
          "durationTicks": 130,
          "midi": 60,
          "name": "C4",
          "ticks": 51456,
          "time": 75.375,
          "velocity": 0.5196850393700787
        },
        {
          "duration": 0.1904296875,
          "durationTicks": 130,
          "midi": 58,
          "name": "A#3",
          "ticks": 51584,
          "time": 75.5625,
          "velocity": 0.5039370078740157
        },
        {
          "duration": 0.1904296875,
          "durationTicks": 130,
          "midi": 62,
          "name": "D4",
          "ticks": 51712,
          "time": 75.75,
          "velocity": 0.5039370078740157
        },
        {
          "duration": 0.1904296875,
          "durationTicks": 130,
          "midi": 60,
          "name": "C4",
          "ticks": 51840,
          "time": 75.9375,
          "velocity": 0.5196850393700787
        },
        {
          "duration": 0.1904296875,
          "durationTicks": 130,
          "midi": 63,
          "name": "D#4",
          "ticks": 51968,
          "time": 76.125,
          "velocity": 0.5039370078740157
        },
        {
          "duration": 0.17724609375,
          "durationTicks": 121,
          "midi": 62,
          "name": "D4",
          "ticks": 52096,
          "time": 76.3125,
          "velocity": 0.4645669291338583
        },
        {
          "duration": 1.14697265625,
          "durationTicks": 783,
          "midi": 62,
          "name": "D4",
          "ticks": 52224,
          "time": 76.5,
          "velocity": 0.5354330708661418
        },
        {
          "duration": 1.14697265625,
          "durationTicks": 783,
          "midi": 65,
          "name": "F4",
          "ticks": 52224,
          "time": 76.5,
          "velocity": 0.5354330708661418
        },
        {
          "duration": 0.38232421875,
          "durationTicks": 261,
          "midi": 60,
          "name": "C4",
          "ticks": 52992,
          "time": 77.625,
          "velocity": 0.5039370078740157
        },
        {
          "duration": 0.38232421875,
          "durationTicks": 261,
          "midi": 64,
          "name": "E4",
          "ticks": 52992,
          "time": 77.625,
          "velocity": 0.5039370078740157
        },
        {
          "duration": 0.35595703125,
          "durationTicks": 243,
          "midi": 53,
          "name": "F3",
          "ticks": 53248,
          "time": 78,
          "velocity": 0.4251968503937008
        },
        {
          "duration": 0.35595703125,
          "durationTicks": 243,
          "midi": 63,
          "name": "D#4",
          "ticks": 53248,
          "time": 78,
          "velocity": 0.4251968503937008
        },
        {
          "duration": 0.1875,
          "durationTicks": 128,
          "midi": 55,
          "name": "G3",
          "ticks": 54528,
          "time": 79.875,
          "velocity": 0.47244094488188976
        },
        {
          "duration": 0.1875,
          "durationTicks": 128,
          "midi": 62,
          "name": "D4",
          "ticks": 54528,
          "time": 79.875,
          "velocity": 0.47244094488188976
        },
        {
          "duration": 0.38232421875,
          "durationTicks": 261,
          "midi": 55,
          "name": "G3",
          "ticks": 54784,
          "time": 80.25,
          "velocity": 0.4566929133858268
        },
        {
          "duration": 0.38232421875,
          "durationTicks": 261,
          "midi": 62,
          "name": "D4",
          "ticks": 54784,
          "time": 80.25,
          "velocity": 0.4566929133858268
        },
        {
          "duration": 0.35595703125,
          "durationTicks": 243,
          "midi": 52,
          "name": "E3",
          "ticks": 55040,
          "time": 80.625,
          "velocity": 0.5196850393700787
        },
        {
          "duration": 0.35595703125,
          "durationTicks": 243,
          "midi": 67,
          "name": "G4",
          "ticks": 55040,
          "time": 80.625,
          "velocity": 0.5196850393700787
        },
        {
          "duration": 0.75,
          "durationTicks": 512,
          "midi": 53,
          "name": "F3",
          "ticks": 55296,
          "time": 81,
          "velocity": 0.4566929133858268
        },
        {
          "duration": 0.75,
          "durationTicks": 512,
          "midi": 65,
          "name": "F4",
          "ticks": 55296,
          "time": 81,
          "velocity": 0.4566929133858268
        },
        {
          "duration": 0.7646484375,
          "durationTicks": 522,
          "midi": 58,
          "name": "A#3",
          "ticks": 58624,
          "time": 85.875,
          "velocity": 0.4251968503937008
        },
        {
          "duration": 0.7646484375,
          "durationTicks": 522,
          "midi": 61,
          "name": "C#4",
          "ticks": 58624,
          "time": 85.875,
          "velocity": 0.4251968503937008
        },
        {
          "duration": 0.35595703125,
          "durationTicks": 243,
          "midi": 56,
          "name": "G#3",
          "ticks": 59136,
          "time": 86.625,
          "velocity": 0.36220472440944884
        },
        {
          "duration": 0.35595703125,
          "durationTicks": 243,
          "midi": 60,
          "name": "C4",
          "ticks": 59136,
          "time": 86.625,
          "velocity": 0.36220472440944884
        },
        {
          "duration": 0.7646484375,
          "durationTicks": 522,
          "midi": 58,
          "name": "A#3",
          "ticks": 59648,
          "time": 87.375,
          "velocity": 0.4330708661417323
        },
        {
          "duration": 0.7646484375,
          "durationTicks": 522,
          "midi": 61,
          "name": "C#4",
          "ticks": 59648,
          "time": 87.375,
          "velocity": 0.4330708661417323
        },
        {
          "duration": 0.35595703125,
          "durationTicks": 243,
          "midi": 56,
          "name": "G#3",
          "ticks": 60160,
          "time": 88.125,
          "velocity": 0.4094488188976378
        },
        {
          "duration": 0.35595703125,
          "durationTicks": 243,
          "midi": 60,
          "name": "C4",
          "ticks": 60160,
          "time": 88.125,
          "velocity": 0.4094488188976378
        },
        {
          "duration": 0.7646484375,
          "durationTicks": 522,
          "midi": 58,
          "name": "A#3",
          "ticks": 60672,
          "time": 88.875,
          "velocity": 0.4566929133858268
        },
        {
          "duration": 0.7646484375,
          "durationTicks": 522,
          "midi": 61,
          "name": "C#4",
          "ticks": 60672,
          "time": 88.875,
          "velocity": 0.4566929133858268
        },
        {
          "duration": 0.35595703125,
          "durationTicks": 243,
          "midi": 56,
          "name": "G#3",
          "ticks": 61184,
          "time": 89.625,
          "velocity": 0.44881889763779526
        },
        {
          "duration": 0.35595703125,
          "durationTicks": 243,
          "midi": 60,
          "name": "C4",
          "ticks": 61184,
          "time": 89.625,
          "velocity": 0.44881889763779526
        },
        {
          "duration": 0.7646484375,
          "durationTicks": 522,
          "midi": 58,
          "name": "A#3",
          "ticks": 61696,
          "time": 90.375,
          "velocity": 0.44881889763779526
        },
        {
          "duration": 0.7646484375,
          "durationTicks": 522,
          "midi": 61,
          "name": "C#4",
          "ticks": 61696,
          "time": 90.375,
          "velocity": 0.44881889763779526
        },
        {
          "duration": 0.35595703125,
          "durationTicks": 243,
          "midi": 56,
          "name": "G#3",
          "ticks": 62208,
          "time": 91.125,
          "velocity": 0.4094488188976378
        },
        {
          "duration": 0.35595703125,
          "durationTicks": 243,
          "midi": 60,
          "name": "C4",
          "ticks": 62208,
          "time": 91.125,
          "velocity": 0.4094488188976378
        },
        {
          "duration": 0.1875,
          "durationTicks": 128,
          "midi": 51,
          "name": "D#3",
          "ticks": 62464,
          "time": 91.5,
          "velocity": 0.4330708661417323
        },
        {
          "duration": 0.1875,
          "durationTicks": 128,
          "midi": 51,
          "name": "D#3",
          "ticks": 62592,
          "time": 91.6875,
          "velocity": 0.5039370078740157
        },
        {
          "duration": 0.1875,
          "durationTicks": 128,
          "midi": 51,
          "name": "D#3",
          "ticks": 62720,
          "time": 91.875,
          "velocity": 0.4881889763779528
        },
        {
          "duration": 0.1875,
          "durationTicks": 128,
          "midi": 51,
          "name": "D#3",
          "ticks": 62848,
          "time": 92.0625,
          "velocity": 0.5118110236220472
        },
        {
          "duration": 0.1875,
          "durationTicks": 128,
          "midi": 51,
          "name": "D#3",
          "ticks": 62976,
          "time": 92.25,
          "velocity": 0.5433070866141733
        },
        {
          "duration": 0.1875,
          "durationTicks": 128,
          "midi": 51,
          "name": "D#3",
          "ticks": 63104,
          "time": 92.4375,
          "velocity": 0.5669291338582677
        },
        {
          "duration": 0.1875,
          "durationTicks": 128,
          "midi": 51,
          "name": "D#3",
          "ticks": 63232,
          "time": 92.625,
          "velocity": 0.5748031496062992
        },
        {
          "duration": 0.1875,
          "durationTicks": 128,
          "midi": 51,
          "name": "D#3",
          "ticks": 63360,
          "time": 92.8125,
          "velocity": 0.5669291338582677
        },
        {
          "duration": 0.1875,
          "durationTicks": 128,
          "midi": 52,
          "name": "E3",
          "ticks": 63488,
          "time": 93,
          "velocity": 0.6299212598425197
        },
        {
          "duration": 0.1875,
          "durationTicks": 128,
          "midi": 52,
          "name": "E3",
          "ticks": 63616,
          "time": 93.1875,
          "velocity": 0.6062992125984252
        },
        {
          "duration": 0.1875,
          "durationTicks": 128,
          "midi": 52,
          "name": "E3",
          "ticks": 63744,
          "time": 93.375,
          "velocity": 0.6535433070866141
        },
        {
          "duration": 0.1875,
          "durationTicks": 128,
          "midi": 52,
          "name": "E3",
          "ticks": 63872,
          "time": 93.5625,
          "velocity": 0.6929133858267716
        },
        {
          "duration": 0.1875,
          "durationTicks": 128,
          "midi": 52,
          "name": "E3",
          "ticks": 64000,
          "time": 93.75,
          "velocity": 0.7165354330708661
        },
        {
          "duration": 0.1875,
          "durationTicks": 128,
          "midi": 52,
          "name": "E3",
          "ticks": 64128,
          "time": 93.9375,
          "velocity": 0.6692913385826772
        },
        {
          "duration": 0.1875,
          "durationTicks": 128,
          "midi": 52,
          "name": "E3",
          "ticks": 64256,
          "time": 94.125,
          "velocity": 0.7637795275590551
        },
        {
          "duration": 0.1875,
          "durationTicks": 128,
          "midi": 52,
          "name": "E3",
          "ticks": 64384,
          "time": 94.3125,
          "velocity": 0.7559055118110236
        },
        {
          "duration": 0.1875,
          "durationTicks": 128,
          "midi": 53,
          "name": "F3",
          "ticks": 64512,
          "time": 94.5,
          "velocity": 0.8267716535433071
        },
        {
          "duration": 0.1875,
          "durationTicks": 128,
          "midi": 53,
          "name": "F3",
          "ticks": 64640,
          "time": 94.6875,
          "velocity": 0.7322834645669292
        },
        {
          "duration": 0.1875,
          "durationTicks": 128,
          "midi": 53,
          "name": "F3",
          "ticks": 64768,
          "time": 94.875,
          "velocity": 0.7795275590551181
        },
        {
          "duration": 0.1875,
          "durationTicks": 128,
          "midi": 53,
          "name": "F3",
          "ticks": 64896,
          "time": 95.0625,
          "velocity": 0.7795275590551181
        },
        {
          "duration": 0.1875,
          "durationTicks": 128,
          "midi": 53,
          "name": "F3",
          "ticks": 65024,
          "time": 95.25,
          "velocity": 0.7401574803149606
        },
        {
          "duration": 0.1875,
          "durationTicks": 128,
          "midi": 53,
          "name": "F3",
          "ticks": 65152,
          "time": 95.4375,
          "velocity": 0.7559055118110236
        },
        {
          "duration": 0.1875,
          "durationTicks": 128,
          "midi": 53,
          "name": "F3",
          "ticks": 65280,
          "time": 95.625,
          "velocity": 0.7952755905511811
        },
        {
          "duration": 0.1875,
          "durationTicks": 128,
          "midi": 53,
          "name": "F3",
          "ticks": 65408,
          "time": 95.8125,
          "velocity": 0.7795275590551181
        },
        {
          "duration": 0.1875,
          "durationTicks": 128,
          "midi": 41,
          "name": "F2",
          "ticks": 65536,
          "time": 96,
          "velocity": 0.7165354330708661
        },
        {
          "duration": 0.1875,
          "durationTicks": 128,
          "midi": 41,
          "name": "F2",
          "ticks": 65664,
          "time": 96.1875,
          "velocity": 0.7559055118110236
        },
        {
          "duration": 0.1875,
          "durationTicks": 128,
          "midi": 41,
          "name": "F2",
          "ticks": 65792,
          "time": 96.375,
          "velocity": 0.7716535433070866
        },
        {
          "duration": 0.1875,
          "durationTicks": 128,
          "midi": 41,
          "name": "F2",
          "ticks": 65920,
          "time": 96.5625,
          "velocity": 0.7480314960629921
        },
        {
          "duration": 0.1875,
          "durationTicks": 128,
          "midi": 41,
          "name": "F2",
          "ticks": 66048,
          "time": 96.75,
          "velocity": 0.7795275590551181
        },
        {
          "duration": 0.1875,
          "durationTicks": 128,
          "midi": 41,
          "name": "F2",
          "ticks": 66176,
          "time": 96.9375,
          "velocity": 0.7952755905511811
        },
        {
          "duration": 0.1875,
          "durationTicks": 128,
          "midi": 41,
          "name": "F2",
          "ticks": 66304,
          "time": 97.125,
          "velocity": 0.7874015748031497
        },
        {
          "duration": 0.1875,
          "durationTicks": 128,
          "midi": 41,
          "name": "F2",
          "ticks": 66432,
          "time": 97.3125,
          "velocity": 0.8031496062992126
        },
        {
          "duration": 0.375,
          "durationTicks": 256,
          "midi": 46,
          "name": "A#2",
          "ticks": 66560,
          "time": 97.5,
          "velocity": 0.84251968503937
        },
        {
          "duration": 0.75,
          "durationTicks": 512,
          "midi": 50,
          "name": "D3",
          "ticks": 66816,
          "time": 97.875,
          "velocity": 0.8346456692913385
        },
        {
          "duration": 0.1875,
          "durationTicks": 128,
          "midi": 51,
          "name": "D#3",
          "ticks": 67328,
          "time": 98.625,
          "velocity": 0.8188976377952756
        },
        {
          "duration": 0.1875,
          "durationTicks": 128,
          "midi": 52,
          "name": "E3",
          "ticks": 67584,
          "time": 99,
          "velocity": 0.7952755905511811
        },
        {
          "duration": 0.1875,
          "durationTicks": 128,
          "midi": 53,
          "name": "F3",
          "ticks": 67840,
          "time": 99.375,
          "velocity": 0.7716535433070866
        },
        {
          "duration": 0.1875,
          "durationTicks": 128,
          "midi": 54,
          "name": "F#3",
          "ticks": 68096,
          "time": 99.75,
          "velocity": 0.7874015748031497
        },
        {
          "duration": 0.1875,
          "durationTicks": 128,
          "midi": 55,
          "name": "G3",
          "ticks": 68352,
          "time": 100.125,
          "velocity": 0.7559055118110236
        },
        {
          "duration": 0.1875,
          "durationTicks": 128,
          "midi": 56,
          "name": "G#3",
          "ticks": 68608,
          "time": 100.5,
          "velocity": 0.7952755905511811
        },
        {
          "duration": 0.1875,
          "durationTicks": 128,
          "midi": 55,
          "name": "G3",
          "ticks": 69120,
          "time": 101.25,
          "velocity": 0.6850393700787402
        },
        {
          "duration": 0.1875,
          "durationTicks": 128,
          "midi": 57,
          "name": "A3",
          "ticks": 69632,
          "time": 102,
          "velocity": 0.6456692913385826
        },
        {
          "duration": 0.1875,
          "durationTicks": 128,
          "midi": 60,
          "name": "C4",
          "ticks": 69632,
          "time": 102,
          "velocity": 0.6456692913385826
        },
        {
          "duration": 0.1875,
          "durationTicks": 128,
          "midi": 58,
          "name": "A#3",
          "ticks": 70144,
          "time": 102.75,
          "velocity": 0.7165354330708661
        },
        {
          "duration": 0.1875,
          "durationTicks": 128,
          "midi": 62,
          "name": "D4",
          "ticks": 70144,
          "time": 102.75,
          "velocity": 0.7165354330708661
        },
        {
          "duration": 0.9375,
          "durationTicks": 640,
          "midi": 67,
          "name": "G4",
          "ticks": 70656,
          "time": 103.5,
          "velocity": 0.6929133858267716
        },
        {
          "duration": 0.09375,
          "durationTicks": 64,
          "midi": 65,
          "name": "F4",
          "ticks": 71296,
          "time": 104.4375,
          "velocity": 0.4409448818897638
        },
        {
          "duration": 0.09375,
          "durationTicks": 64,
          "midi": 63,
          "name": "D#4",
          "ticks": 71424,
          "time": 104.625,
          "velocity": 0.4330708661417323
        },
        {
          "duration": 0.09375,
          "durationTicks": 64,
          "midi": 62,
          "name": "D4",
          "ticks": 71552,
          "time": 104.8125,
          "velocity": 0.41732283464566927
        },
        {
          "duration": 0.09375,
          "durationTicks": 64,
          "midi": 60,
          "name": "C4",
          "ticks": 71680,
          "time": 105,
          "velocity": 0.4566929133858268
        },
        {
          "duration": 0.09375,
          "durationTicks": 64,
          "midi": 58,
          "name": "A#3",
          "ticks": 71808,
          "time": 105.1875,
          "velocity": 0.4094488188976378
        },
        {
          "duration": 0.09375,
          "durationTicks": 64,
          "midi": 57,
          "name": "A3",
          "ticks": 71936,
          "time": 105.375,
          "velocity": 0.47244094488188976
        },
        {
          "duration": 0.09375,
          "durationTicks": 64,
          "midi": 55,
          "name": "G3",
          "ticks": 72064,
          "time": 105.5625,
          "velocity": 0.4409448818897638
        },
        {
          "duration": 0.09375,
          "durationTicks": 64,
          "midi": 53,
          "name": "F3",
          "ticks": 72192,
          "time": 105.75,
          "velocity": 0.4566929133858268
        },
        {
          "duration": 0.09375,
          "durationTicks": 64,
          "midi": 51,
          "name": "D#3",
          "ticks": 72320,
          "time": 105.9375,
          "velocity": 0.47244094488188976
        },
        {
          "duration": 0.09375,
          "durationTicks": 64,
          "midi": 50,
          "name": "D3",
          "ticks": 72448,
          "time": 106.125,
          "velocity": 0.5039370078740157
        },
        {
          "duration": 0.09375,
          "durationTicks": 64,
          "midi": 48,
          "name": "C3",
          "ticks": 72576,
          "time": 106.3125,
          "velocity": 0.49606299212598426
        },
        {
          "duration": 0.1904296875,
          "durationTicks": 130,
          "midi": 67,
          "name": "G4",
          "ticks": 74496,
          "time": 109.125,
          "velocity": 0.4094488188976378
        },
        {
          "duration": 0.17724609375,
          "durationTicks": 121,
          "midi": 65,
          "name": "F4",
          "ticks": 74624,
          "time": 109.3125,
          "velocity": 0.36220472440944884
        },
        {
          "duration": 0.1875,
          "durationTicks": 128,
          "midi": 65,
          "name": "F4",
          "ticks": 74752,
          "time": 109.5,
          "velocity": 0.48031496062992124
        },
        {
          "duration": 0.1904296875,
          "durationTicks": 130,
          "midi": 67,
          "name": "G4",
          "ticks": 75008,
          "time": 109.875,
          "velocity": 0.5118110236220472
        },
        {
          "duration": 0.17724609375,
          "durationTicks": 121,
          "midi": 65,
          "name": "F4",
          "ticks": 75136,
          "time": 110.0625,
          "velocity": 0.4881889763779528
        },
        {
          "duration": 0.1875,
          "durationTicks": 128,
          "midi": 65,
          "name": "F4",
          "ticks": 75264,
          "time": 110.25,
          "velocity": 0.4881889763779528
        },
        {
          "duration": 0.1904296875,
          "durationTicks": 130,
          "midi": 67,
          "name": "G4",
          "ticks": 76544,
          "time": 112.125,
          "velocity": 0.4409448818897638
        },
        {
          "duration": 0.17724609375,
          "durationTicks": 121,
          "midi": 65,
          "name": "F4",
          "ticks": 76672,
          "time": 112.3125,
          "velocity": 0.3779527559055118
        },
        {
          "duration": 0.1875,
          "durationTicks": 128,
          "midi": 65,
          "name": "F4",
          "ticks": 76800,
          "time": 112.5,
          "velocity": 0.4881889763779528
        },
        {
          "duration": 0.1904296875,
          "durationTicks": 130,
          "midi": 67,
          "name": "G4",
          "ticks": 77056,
          "time": 112.875,
          "velocity": 0.5196850393700787
        },
        {
          "duration": 0.17724609375,
          "durationTicks": 121,
          "midi": 65,
          "name": "F4",
          "ticks": 77184,
          "time": 113.0625,
          "velocity": 0.5039370078740157
        },
        {
          "duration": 0.1875,
          "durationTicks": 128,
          "midi": 65,
          "name": "F4",
          "ticks": 77312,
          "time": 113.25,
          "velocity": 0.4566929133858268
        },
        {
          "duration": 0.1875,
          "durationTicks": 128,
          "midi": 50,
          "name": "D3",
          "ticks": 77824,
          "time": 114,
          "velocity": 0.7086614173228346
        },
        {
          "duration": 0.1875,
          "durationTicks": 128,
          "midi": 50,
          "name": "D3",
          "ticks": 77952,
          "time": 114.1875,
          "velocity": 0.7559055118110236
        },
        {
          "duration": 0.1875,
          "durationTicks": 128,
          "midi": 50,
          "name": "D3",
          "ticks": 78080,
          "time": 114.375,
          "velocity": 0.7716535433070866
        },
        {
          "duration": 0.1875,
          "durationTicks": 128,
          "midi": 50,
          "name": "D3",
          "ticks": 78208,
          "time": 114.5625,
          "velocity": 0.7874015748031497
        },
        {
          "duration": 0.1875,
          "durationTicks": 128,
          "midi": 50,
          "name": "D3",
          "ticks": 78336,
          "time": 114.75,
          "velocity": 0.7637795275590551
        },
        {
          "duration": 0.1875,
          "durationTicks": 128,
          "midi": 50,
          "name": "D3",
          "ticks": 78464,
          "time": 114.9375,
          "velocity": 0.7637795275590551
        },
        {
          "duration": 0.1875,
          "durationTicks": 128,
          "midi": 50,
          "name": "D3",
          "ticks": 78592,
          "time": 115.125,
          "velocity": 0.7559055118110236
        },
        {
          "duration": 0.1875,
          "durationTicks": 128,
          "midi": 50,
          "name": "D3",
          "ticks": 78720,
          "time": 115.3125,
          "velocity": 0.7874015748031497
        },
        {
          "duration": 0.1875,
          "durationTicks": 128,
          "midi": 55,
          "name": "G3",
          "ticks": 78848,
          "time": 115.5,
          "velocity": 0.8346456692913385
        },
        {
          "duration": 0.1875,
          "durationTicks": 128,
          "midi": 55,
          "name": "G3",
          "ticks": 78976,
          "time": 115.6875,
          "velocity": 0.7795275590551181
        },
        {
          "duration": 0.1875,
          "durationTicks": 128,
          "midi": 55,
          "name": "G3",
          "ticks": 79104,
          "time": 115.875,
          "velocity": 0.7795275590551181
        },
        {
          "duration": 0.1875,
          "durationTicks": 128,
          "midi": 55,
          "name": "G3",
          "ticks": 79232,
          "time": 116.0625,
          "velocity": 0.7952755905511811
        },
        {
          "duration": 0.1875,
          "durationTicks": 128,
          "midi": 51,
          "name": "D#3",
          "ticks": 79360,
          "time": 116.25,
          "velocity": 0.7244094488188977
        },
        {
          "duration": 0.1875,
          "durationTicks": 128,
          "midi": 51,
          "name": "D#3",
          "ticks": 79488,
          "time": 116.4375,
          "velocity": 0.7795275590551181
        },
        {
          "duration": 0.1875,
          "durationTicks": 128,
          "midi": 51,
          "name": "D#3",
          "ticks": 79616,
          "time": 116.625,
          "velocity": 0.7637795275590551
        },
        {
          "duration": 0.1875,
          "durationTicks": 128,
          "midi": 51,
          "name": "D#3",
          "ticks": 79744,
          "time": 116.8125,
          "velocity": 0.7401574803149606
        },
        {
          "duration": 0.1875,
          "durationTicks": 128,
          "midi": 53,
          "name": "F3",
          "ticks": 79872,
          "time": 117,
          "velocity": 0.7874015748031497
        },
        {
          "duration": 0.1875,
          "durationTicks": 128,
          "midi": 53,
          "name": "F3",
          "ticks": 80000,
          "time": 117.1875,
          "velocity": 0.7559055118110236
        },
        {
          "duration": 0.1875,
          "durationTicks": 128,
          "midi": 53,
          "name": "F3",
          "ticks": 80128,
          "time": 117.375,
          "velocity": 0.7795275590551181
        },
        {
          "duration": 0.1875,
          "durationTicks": 128,
          "midi": 53,
          "name": "F3",
          "ticks": 80256,
          "time": 117.5625,
          "velocity": 0.7637795275590551
        },
        {
          "duration": 0.1875,
          "durationTicks": 128,
          "midi": 41,
          "name": "F2",
          "ticks": 80384,
          "time": 117.75,
          "velocity": 0.6929133858267716
        },
        {
          "duration": 0.1875,
          "durationTicks": 128,
          "midi": 41,
          "name": "F2",
          "ticks": 80512,
          "time": 117.9375,
          "velocity": 0.7165354330708661
        },
        {
          "duration": 0.1875,
          "durationTicks": 128,
          "midi": 41,
          "name": "F2",
          "ticks": 80640,
          "time": 118.125,
          "velocity": 0.7637795275590551
        },
        {
          "duration": 0.1875,
          "durationTicks": 128,
          "midi": 41,
          "name": "F2",
          "ticks": 80768,
          "time": 118.3125,
          "velocity": 0.7480314960629921
        },
        {
          "duration": 0.375,
          "durationTicks": 256,
          "midi": 46,
          "name": "A#2",
          "ticks": 80896,
          "time": 118.5,
          "velocity": 0.8110236220472441
        },
        {
          "duration": 0.1904296875,
          "durationTicks": 130,
          "midi": 67,
          "name": "G4",
          "ticks": 81664,
          "time": 119.625,
          "velocity": 0.48031496062992124
        },
        {
          "duration": 0.17724609375,
          "durationTicks": 121,
          "midi": 65,
          "name": "F4",
          "ticks": 81792,
          "time": 119.8125,
          "velocity": 0.4566929133858268
        },
        {
          "duration": 0.1875,
          "durationTicks": 128,
          "midi": 65,
          "name": "F4",
          "ticks": 81920,
          "time": 120,
          "velocity": 0.48031496062992124
        },
        {
          "duration": 0.1904296875,
          "durationTicks": 130,
          "midi": 67,
          "name": "G4",
          "ticks": 82176,
          "time": 120.375,
          "velocity": 0.5590551181102362
        },
        {
          "duration": 0.17724609375,
          "durationTicks": 121,
          "midi": 65,
          "name": "F4",
          "ticks": 82304,
          "time": 120.5625,
          "velocity": 0.5669291338582677
        },
        {
          "duration": 0.1875,
          "durationTicks": 128,
          "midi": 65,
          "name": "F4",
          "ticks": 82432,
          "time": 120.75,
          "velocity": 0.4566929133858268
        },
        {
          "duration": 0.1904296875,
          "durationTicks": 130,
          "midi": 67,
          "name": "G4",
          "ticks": 83712,
          "time": 122.625,
          "velocity": 0.4330708661417323
        },
        {
          "duration": 0.17724609375,
          "durationTicks": 121,
          "midi": 65,
          "name": "F4",
          "ticks": 83840,
          "time": 122.8125,
          "velocity": 0.3937007874015748
        },
        {
          "duration": 0.1875,
          "durationTicks": 128,
          "midi": 65,
          "name": "F4",
          "ticks": 83968,
          "time": 123,
          "velocity": 0.48031496062992124
        },
        {
          "duration": 0.1904296875,
          "durationTicks": 130,
          "midi": 67,
          "name": "G4",
          "ticks": 84224,
          "time": 123.375,
          "velocity": 0.5354330708661418
        },
        {
          "duration": 0.17724609375,
          "durationTicks": 121,
          "midi": 65,
          "name": "F4",
          "ticks": 84352,
          "time": 123.5625,
          "velocity": 0.5039370078740157
        },
        {
          "duration": 0.1875,
          "durationTicks": 128,
          "midi": 65,
          "name": "F4",
          "ticks": 84480,
          "time": 123.75,
          "velocity": 0.5039370078740157
        },
        {
          "duration": 0.1875,
          "durationTicks": 128,
          "midi": 50,
          "name": "D3",
          "ticks": 86016,
          "time": 126,
          "velocity": 0.7007874015748031
        },
        {
          "duration": 0.1875,
          "durationTicks": 128,
          "midi": 50,
          "name": "D3",
          "ticks": 86144,
          "time": 126.1875,
          "velocity": 0.7716535433070866
        },
        {
          "duration": 0.1875,
          "durationTicks": 128,
          "midi": 50,
          "name": "D3",
          "ticks": 86272,
          "time": 126.375,
          "velocity": 0.7480314960629921
        },
        {
          "duration": 0.1875,
          "durationTicks": 128,
          "midi": 50,
          "name": "D3",
          "ticks": 86400,
          "time": 126.5625,
          "velocity": 0.7480314960629921
        },
        {
          "duration": 0.1875,
          "durationTicks": 128,
          "midi": 50,
          "name": "D3",
          "ticks": 86528,
          "time": 126.75,
          "velocity": 0.7716535433070866
        },
        {
          "duration": 0.1875,
          "durationTicks": 128,
          "midi": 50,
          "name": "D3",
          "ticks": 86656,
          "time": 126.9375,
          "velocity": 0.8031496062992126
        },
        {
          "duration": 0.1875,
          "durationTicks": 128,
          "midi": 50,
          "name": "D3",
          "ticks": 86784,
          "time": 127.125,
          "velocity": 0.7244094488188977
        },
        {
          "duration": 0.1875,
          "durationTicks": 128,
          "midi": 50,
          "name": "D3",
          "ticks": 86912,
          "time": 127.3125,
          "velocity": 0.7874015748031497
        },
        {
          "duration": 0.1875,
          "durationTicks": 128,
          "midi": 55,
          "name": "G3",
          "ticks": 87040,
          "time": 127.5,
          "velocity": 0.8188976377952756
        },
        {
          "duration": 0.1875,
          "durationTicks": 128,
          "midi": 55,
          "name": "G3",
          "ticks": 87168,
          "time": 127.6875,
          "velocity": 0.7559055118110236
        },
        {
          "duration": 0.1875,
          "durationTicks": 128,
          "midi": 55,
          "name": "G3",
          "ticks": 87296,
          "time": 127.875,
          "velocity": 0.7716535433070866
        },
        {
          "duration": 0.1875,
          "durationTicks": 128,
          "midi": 55,
          "name": "G3",
          "ticks": 87424,
          "time": 128.0625,
          "velocity": 0.7795275590551181
        },
        {
          "duration": 0.1875,
          "durationTicks": 128,
          "midi": 51,
          "name": "D#3",
          "ticks": 87552,
          "time": 128.25,
          "velocity": 0.7480314960629921
        },
        {
          "duration": 0.1875,
          "durationTicks": 128,
          "midi": 51,
          "name": "D#3",
          "ticks": 87680,
          "time": 128.4375,
          "velocity": 0.7716535433070866
        },
        {
          "duration": 0.1875,
          "durationTicks": 128,
          "midi": 51,
          "name": "D#3",
          "ticks": 87808,
          "time": 128.625,
          "velocity": 0.7716535433070866
        },
        {
          "duration": 0.1875,
          "durationTicks": 128,
          "midi": 51,
          "name": "D#3",
          "ticks": 87936,
          "time": 128.8125,
          "velocity": 0.7874015748031497
        },
        {
          "duration": 0.1875,
          "durationTicks": 128,
          "midi": 53,
          "name": "F3",
          "ticks": 88064,
          "time": 129,
          "velocity": 0.8110236220472441
        },
        {
          "duration": 0.1875,
          "durationTicks": 128,
          "midi": 53,
          "name": "F3",
          "ticks": 88192,
          "time": 129.1875,
          "velocity": 0.7637795275590551
        },
        {
          "duration": 0.1875,
          "durationTicks": 128,
          "midi": 53,
          "name": "F3",
          "ticks": 88320,
          "time": 129.375,
          "velocity": 0.7874015748031497
        },
        {
          "duration": 0.1875,
          "durationTicks": 128,
          "midi": 53,
          "name": "F3",
          "ticks": 88448,
          "time": 129.5625,
          "velocity": 0.7559055118110236
        },
        {
          "duration": 0.1875,
          "durationTicks": 128,
          "midi": 41,
          "name": "F2",
          "ticks": 88576,
          "time": 129.75,
          "velocity": 0.6850393700787402
        },
        {
          "duration": 0.1875,
          "durationTicks": 128,
          "midi": 41,
          "name": "F2",
          "ticks": 88704,
          "time": 129.9375,
          "velocity": 0.7637795275590551
        },
        {
          "duration": 0.1875,
          "durationTicks": 128,
          "midi": 41,
          "name": "F2",
          "ticks": 88832,
          "time": 130.125,
          "velocity": 0.7952755905511811
        },
        {
          "duration": 0.1875,
          "durationTicks": 128,
          "midi": 41,
          "name": "F2",
          "ticks": 88960,
          "time": 130.3125,
          "velocity": 0.7952755905511811
        },
        {
          "duration": 0.75,
          "durationTicks": 512,
          "midi": 46,
          "name": "A#2",
          "ticks": 89088,
          "time": 130.5,
          "velocity": 0.8346456692913385
        },
        {
          "duration": 0.1875,
          "durationTicks": 128,
          "midi": 65,
          "name": "F4",
          "ticks": 89984,
          "time": 131.8125,
          "velocity": 0.7086614173228346
        },
        {
          "duration": 0.1875,
          "durationTicks": 128,
          "midi": 63,
          "name": "D#4",
          "ticks": 90112,
          "time": 132,
          "velocity": 0.7165354330708661
        },
        {
          "duration": 0.1875,
          "durationTicks": 128,
          "midi": 62,
          "name": "D4",
          "ticks": 90240,
          "time": 132.1875,
          "velocity": 0.7322834645669292
        },
        {
          "duration": 0.1875,
          "durationTicks": 128,
          "midi": 60,
          "name": "C4",
          "ticks": 90368,
          "time": 132.375,
          "velocity": 0.7086614173228346
        },
        {
          "duration": 0.1875,
          "durationTicks": 128,
          "midi": 58,
          "name": "A#3",
          "ticks": 90496,
          "time": 132.5625,
          "velocity": 0.7401574803149606
        },
        {
          "duration": 0.1875,
          "durationTicks": 128,
          "midi": 57,
          "name": "A3",
          "ticks": 90624,
          "time": 132.75,
          "velocity": 0.7401574803149606
        },
        {
          "duration": 0.1875,
          "durationTicks": 128,
          "midi": 55,
          "name": "G3",
          "ticks": 90752,
          "time": 132.9375,
          "velocity": 0.7244094488188977
        },
        {
          "duration": 0.1875,
          "durationTicks": 128,
          "midi": 53,
          "name": "F3",
          "ticks": 90880,
          "time": 133.125,
          "velocity": 0.7716535433070866
        },
        {
          "duration": 0.1875,
          "durationTicks": 128,
          "midi": 51,
          "name": "D#3",
          "ticks": 91008,
          "time": 133.3125,
          "velocity": 0.7559055118110236
        },
        {
          "duration": 0.375,
          "durationTicks": 256,
          "midi": 50,
          "name": "D3",
          "ticks": 91136,
          "time": 133.5,
          "velocity": 0.7716535433070866
        },
        {
          "duration": 0.375,
          "durationTicks": 256,
          "midi": 50,
          "name": "D3",
          "ticks": 91392,
          "time": 133.875,
          "velocity": 0.7401574803149606
        },
        {
          "duration": 0.375,
          "durationTicks": 256,
          "midi": 51,
          "name": "D#3",
          "ticks": 91648,
          "time": 134.25,
          "velocity": 0.7952755905511811
        },
        {
          "duration": 0.375,
          "durationTicks": 256,
          "midi": 53,
          "name": "F3",
          "ticks": 91904,
          "time": 134.625,
          "velocity": 0.7716535433070866
        },
        {
          "duration": 0.1875,
          "durationTicks": 128,
          "midi": 58,
          "name": "A#3",
          "ticks": 92160,
          "time": 135,
          "velocity": 0.8031496062992126
        },
        {
          "duration": 0.1875,
          "durationTicks": 128,
          "midi": 53,
          "name": "F3",
          "ticks": 92288,
          "time": 135.1875,
          "velocity": 0.7007874015748031
        },
        {
          "duration": 0.1875,
          "durationTicks": 128,
          "midi": 62,
          "name": "D4",
          "ticks": 92416,
          "time": 135.375,
          "velocity": 0.8976377952755905
        },
        {
          "duration": 0.1875,
          "durationTicks": 128,
          "midi": 60,
          "name": "C4",
          "ticks": 92544,
          "time": 135.5625,
          "velocity": 0.7480314960629921
        },
        {
          "duration": 0.1875,
          "durationTicks": 128,
          "midi": 58,
          "name": "A#3",
          "ticks": 92672,
          "time": 135.75,
          "velocity": 0.7322834645669292
        },
        {
          "duration": 0.1875,
          "durationTicks": 128,
          "midi": 57,
          "name": "A3",
          "ticks": 92800,
          "time": 135.9375,
          "velocity": 0.7952755905511811
        },
        {
          "duration": 0.1875,
          "durationTicks": 128,
          "midi": 55,
          "name": "G3",
          "ticks": 92928,
          "time": 136.125,
          "velocity": 0.7480314960629921
        },
        {
          "duration": 0.1875,
          "durationTicks": 128,
          "midi": 53,
          "name": "F3",
          "ticks": 93056,
          "time": 136.3125,
          "velocity": 0.7480314960629921
        },
        {
          "duration": 0.1875,
          "durationTicks": 128,
          "midi": 51,
          "name": "D#3",
          "ticks": 93184,
          "time": 136.5,
          "velocity": 0.7480314960629921
        },
        {
          "duration": 0.1875,
          "durationTicks": 128,
          "midi": 50,
          "name": "D3",
          "ticks": 93312,
          "time": 136.6875,
          "velocity": 0.7716535433070866
        },
        {
          "duration": 0.1875,
          "durationTicks": 128,
          "midi": 48,
          "name": "C3",
          "ticks": 93440,
          "time": 136.875,
          "velocity": 0.7401574803149606
        },
        {
          "duration": 0.1875,
          "durationTicks": 128,
          "midi": 46,
          "name": "A#2",
          "ticks": 93568,
          "time": 137.0625,
          "velocity": 0.7637795275590551
        },
        {
          "duration": 0.1875,
          "durationTicks": 128,
          "midi": 45,
          "name": "A2",
          "ticks": 93696,
          "time": 137.25,
          "velocity": 0.7244094488188977
        },
        {
          "duration": 0.1875,
          "durationTicks": 128,
          "midi": 48,
          "name": "C3",
          "ticks": 93824,
          "time": 137.4375,
          "velocity": 0.7637795275590551
        },
        {
          "duration": 0.1875,
          "durationTicks": 128,
          "midi": 53,
          "name": "F3",
          "ticks": 93952,
          "time": 137.625,
          "velocity": 0.8503937007874016
        },
        {
          "duration": 0.1875,
          "durationTicks": 128,
          "midi": 51,
          "name": "D#3",
          "ticks": 94080,
          "time": 137.8125,
          "velocity": 0.7559055118110236
        },
        {
          "duration": 0.375,
          "durationTicks": 256,
          "midi": 50,
          "name": "D3",
          "ticks": 94208,
          "time": 138,
          "velocity": 0.7952755905511811
        },
        {
          "duration": 0.375,
          "durationTicks": 256,
          "midi": 50,
          "name": "D3",
          "ticks": 94464,
          "time": 138.375,
          "velocity": 0.7559055118110236
        },
        {
          "duration": 0.375,
          "durationTicks": 256,
          "midi": 51,
          "name": "D#3",
          "ticks": 94720,
          "time": 138.75,
          "velocity": 0.7795275590551181
        },
        {
          "duration": 0.375,
          "durationTicks": 256,
          "midi": 53,
          "name": "F3",
          "ticks": 94976,
          "time": 139.125,
          "velocity": 0.8110236220472441
        },
        {
          "duration": 0.375,
          "durationTicks": 256,
          "midi": 55,
          "name": "G3",
          "ticks": 95232,
          "time": 139.5,
          "velocity": 0.7874015748031497
        },
        {
          "duration": 0.375,
          "durationTicks": 256,
          "midi": 51,
          "name": "D#3",
          "ticks": 95488,
          "time": 139.875,
          "velocity": 0.7086614173228346
        },
        {
          "duration": 0.375,
          "durationTicks": 256,
          "midi": 53,
          "name": "F3",
          "ticks": 95744,
          "time": 140.25,
          "velocity": 0.8031496062992126
        },
        {
          "duration": 0.375,
          "durationTicks": 256,
          "midi": 41,
          "name": "F2",
          "ticks": 96000,
          "time": 140.625,
          "velocity": 0.7007874015748031
        },
        {
          "duration": 0.375,
          "durationTicks": 256,
          "midi": 46,
          "name": "A#2",
          "ticks": 96256,
          "time": 141,
          "velocity": 0.7874015748031497
        },
        {
          "duration": 0.1875,
          "durationTicks": 128,
          "midi": 58,
          "name": "A#3",
          "ticks": 96512,
          "time": 141.375,
          "velocity": 0.9921259842519685
        },
        {
          "duration": 0.1875,
          "durationTicks": 128,
          "midi": 62,
          "name": "D4",
          "ticks": 96512,
          "time": 141.375,
          "velocity": 0.9921259842519685
        },
        {
          "duration": 0.1875,
          "durationTicks": 128,
          "midi": 58,
          "name": "A#3",
          "ticks": 96640,
          "time": 141.5625,
          "velocity": 0.8503937007874016
        },
        {
          "duration": 0.1875,
          "durationTicks": 128,
          "midi": 62,
          "name": "D4",
          "ticks": 96640,
          "time": 141.5625,
          "velocity": 0.8503937007874016
        },
        {
          "duration": 0.375,
          "durationTicks": 256,
          "midi": 60,
          "name": "C4",
          "ticks": 96768,
          "time": 141.75,
          "velocity": 0.7952755905511811
        },
        {
          "duration": 0.375,
          "durationTicks": 256,
          "midi": 63,
          "name": "D#4",
          "ticks": 96768,
          "time": 141.75,
          "velocity": 0.7952755905511811
        },
        {
          "duration": 0.1875,
          "durationTicks": 128,
          "midi": 60,
          "name": "C4",
          "ticks": 97024,
          "time": 142.125,
          "velocity": 0.7874015748031497
        },
        {
          "duration": 0.1875,
          "durationTicks": 128,
          "midi": 63,
          "name": "D#4",
          "ticks": 97024,
          "time": 142.125,
          "velocity": 0.7874015748031497
        },
        {
          "duration": 0.1875,
          "durationTicks": 128,
          "midi": 60,
          "name": "C4",
          "ticks": 97152,
          "time": 142.3125,
          "velocity": 0.7795275590551181
        },
        {
          "duration": 0.1875,
          "durationTicks": 128,
          "midi": 63,
          "name": "D#4",
          "ticks": 97152,
          "time": 142.3125,
          "velocity": 0.7795275590551181
        },
        {
          "duration": 0.375,
          "durationTicks": 256,
          "midi": 58,
          "name": "A#3",
          "ticks": 97280,
          "time": 142.5,
          "velocity": 0.7086614173228346
        },
        {
          "duration": 0.375,
          "durationTicks": 256,
          "midi": 62,
          "name": "D4",
          "ticks": 97280,
          "time": 142.5,
          "velocity": 0.7086614173228346
        },
        {
          "duration": 0.1875,
          "durationTicks": 128,
          "midi": 58,
          "name": "A#3",
          "ticks": 97536,
          "time": 142.875,
          "velocity": 0.7559055118110236
        },
        {
          "duration": 0.1875,
          "durationTicks": 128,
          "midi": 62,
          "name": "D4",
          "ticks": 97536,
          "time": 142.875,
          "velocity": 0.7559055118110236
        },
        {
          "duration": 0.1875,
          "durationTicks": 128,
          "midi": 58,
          "name": "A#3",
          "ticks": 97664,
          "time": 143.0625,
          "velocity": 0.7637795275590551
        },
        {
          "duration": 0.1875,
          "durationTicks": 128,
          "midi": 62,
          "name": "D4",
          "ticks": 97664,
          "time": 143.0625,
          "velocity": 0.7637795275590551
        },
        {
          "duration": 0.375,
          "durationTicks": 256,
          "midi": 60,
          "name": "C4",
          "ticks": 97792,
          "time": 143.25,
          "velocity": 0.8110236220472441
        },
        {
          "duration": 0.375,
          "durationTicks": 256,
          "midi": 63,
          "name": "D#4",
          "ticks": 97792,
          "time": 143.25,
          "velocity": 0.8110236220472441
        },
        {
          "duration": 0.1875,
          "durationTicks": 128,
          "midi": 60,
          "name": "C4",
          "ticks": 98048,
          "time": 143.625,
          "velocity": 0.7716535433070866
        },
        {
          "duration": 0.1875,
          "durationTicks": 128,
          "midi": 63,
          "name": "D#4",
          "ticks": 98048,
          "time": 143.625,
          "velocity": 0.7716535433070866
        },
        {
          "duration": 0.1875,
          "durationTicks": 128,
          "midi": 60,
          "name": "C4",
          "ticks": 98176,
          "time": 143.8125,
          "velocity": 0.7952755905511811
        },
        {
          "duration": 0.1875,
          "durationTicks": 128,
          "midi": 63,
          "name": "D#4",
          "ticks": 98176,
          "time": 143.8125,
          "velocity": 0.7952755905511811
        },
        {
          "duration": 0.375,
          "durationTicks": 256,
          "midi": 58,
          "name": "A#3",
          "ticks": 98304,
          "time": 144,
          "velocity": 0.7480314960629921
        },
        {
          "duration": 0.375,
          "durationTicks": 256,
          "midi": 62,
          "name": "D4",
          "ticks": 98304,
          "time": 144,
          "velocity": 0.7480314960629921
        },
        {
          "duration": 0.1875,
          "durationTicks": 128,
          "midi": 58,
          "name": "A#3",
          "ticks": 98560,
          "time": 144.375,
          "velocity": 0.8031496062992126
        },
        {
          "duration": 0.1875,
          "durationTicks": 128,
          "midi": 62,
          "name": "D4",
          "ticks": 98560,
          "time": 144.375,
          "velocity": 0.8031496062992126
        },
        {
          "duration": 0.1875,
          "durationTicks": 128,
          "midi": 58,
          "name": "A#3",
          "ticks": 98688,
          "time": 144.5625,
          "velocity": 0.7795275590551181
        },
        {
          "duration": 0.1875,
          "durationTicks": 128,
          "midi": 62,
          "name": "D4",
          "ticks": 98688,
          "time": 144.5625,
          "velocity": 0.7795275590551181
        },
        {
          "duration": 0.375,
          "durationTicks": 256,
          "midi": 60,
          "name": "C4",
          "ticks": 98816,
          "time": 144.75,
          "velocity": 0.7716535433070866
        },
        {
          "duration": 0.375,
          "durationTicks": 256,
          "midi": 63,
          "name": "D#4",
          "ticks": 98816,
          "time": 144.75,
          "velocity": 0.7716535433070866
        },
        {
          "duration": 0.1875,
          "durationTicks": 128,
          "midi": 60,
          "name": "C4",
          "ticks": 99072,
          "time": 145.125,
          "velocity": 0.7795275590551181
        },
        {
          "duration": 0.1875,
          "durationTicks": 128,
          "midi": 63,
          "name": "D#4",
          "ticks": 99072,
          "time": 145.125,
          "velocity": 0.7795275590551181
        },
        {
          "duration": 0.1875,
          "durationTicks": 128,
          "midi": 60,
          "name": "C4",
          "ticks": 99200,
          "time": 145.3125,
          "velocity": 0.7637795275590551
        },
        {
          "duration": 0.1875,
          "durationTicks": 128,
          "midi": 63,
          "name": "D#4",
          "ticks": 99200,
          "time": 145.3125,
          "velocity": 0.7637795275590551
        },
        {
          "duration": 0.375,
          "durationTicks": 256,
          "midi": 58,
          "name": "A#3",
          "ticks": 99328,
          "time": 145.5,
          "velocity": 0.7559055118110236
        },
        {
          "duration": 0.375,
          "durationTicks": 256,
          "midi": 62,
          "name": "D4",
          "ticks": 99328,
          "time": 145.5,
          "velocity": 0.7559055118110236
        },
        {
          "duration": 0.375,
          "durationTicks": 256,
          "midi": 60,
          "name": "C4",
          "ticks": 99584,
          "time": 145.875,
          "velocity": 0.7716535433070866
        },
        {
          "duration": 0.375,
          "durationTicks": 256,
          "midi": 63,
          "name": "D#4",
          "ticks": 99584,
          "time": 145.875,
          "velocity": 0.7716535433070866
        },
        {
          "duration": 0.375,
          "durationTicks": 256,
          "midi": 58,
          "name": "A#3",
          "ticks": 99840,
          "time": 146.25,
          "velocity": 0.7559055118110236
        },
        {
          "duration": 0.375,
          "durationTicks": 256,
          "midi": 62,
          "name": "D4",
          "ticks": 99840,
          "time": 146.25,
          "velocity": 0.7559055118110236
        },
        {
          "duration": 0.375,
          "durationTicks": 256,
          "midi": 60,
          "name": "C4",
          "ticks": 100096,
          "time": 146.625,
          "velocity": 0.7637795275590551
        },
        {
          "duration": 0.375,
          "durationTicks": 256,
          "midi": 63,
          "name": "D#4",
          "ticks": 100096,
          "time": 146.625,
          "velocity": 0.7637795275590551
        },
        {
          "duration": 0.375,
          "durationTicks": 256,
          "midi": 58,
          "name": "A#3",
          "ticks": 100352,
          "time": 147,
          "velocity": 0.7322834645669292
        },
        {
          "duration": 0.375,
          "durationTicks": 256,
          "midi": 62,
          "name": "D4",
          "ticks": 100352,
          "time": 147,
          "velocity": 0.7322834645669292
        },
        {
          "duration": 0.375,
          "durationTicks": 256,
          "midi": 57,
          "name": "A3",
          "ticks": 101376,
          "time": 148.5,
          "velocity": 0.6771653543307087
        },
        {
          "duration": 0.38232421875,
          "durationTicks": 261,
          "midi": 54,
          "name": "F#3",
          "ticks": 115968,
          "time": 169.875,
          "velocity": 0.4409448818897638
        },
        {
          "duration": 0.38232421875,
          "durationTicks": 261,
          "midi": 55,
          "name": "G3",
          "ticks": 116224,
          "time": 170.25,
          "velocity": 0.4566929133858268
        },
        {
          "duration": 0.38232421875,
          "durationTicks": 261,
          "midi": 57,
          "name": "A3",
          "ticks": 116480,
          "time": 170.625,
          "velocity": 0.47244094488188976
        },
        {
          "duration": 0.38232421875,
          "durationTicks": 261,
          "midi": 58,
          "name": "A#3",
          "ticks": 116736,
          "time": 171,
          "velocity": 0.48031496062992124
        },
        {
          "duration": 0.1904296875,
          "durationTicks": 130,
          "midi": 60,
          "name": "C4",
          "ticks": 116992,
          "time": 171.375,
          "velocity": 0.5196850393700787
        },
        {
          "duration": 0.1904296875,
          "durationTicks": 130,
          "midi": 58,
          "name": "A#3",
          "ticks": 117120,
          "time": 171.5625,
          "velocity": 0.5118110236220472
        },
        {
          "duration": 0.38232421875,
          "durationTicks": 261,
          "midi": 57,
          "name": "A3",
          "ticks": 117248,
          "time": 171.75,
          "velocity": 0.5118110236220472
        },
        {
          "duration": 0.38232421875,
          "durationTicks": 261,
          "midi": 55,
          "name": "G3",
          "ticks": 117504,
          "time": 172.125,
          "velocity": 0.49606299212598426
        },
        {
          "duration": 0.35595703125,
          "durationTicks": 243,
          "midi": 54,
          "name": "F#3",
          "ticks": 117760,
          "time": 172.5,
          "velocity": 0.44881889763779526
        },
        {
          "duration": 0.75,
          "durationTicks": 512,
          "midi": 58,
          "name": "A#3",
          "ticks": 118272,
          "time": 173.25,
          "velocity": 0.4330708661417323
        },
        {
          "duration": 0.75,
          "durationTicks": 512,
          "midi": 64,
          "name": "E4",
          "ticks": 118272,
          "time": 173.25,
          "velocity": 0.4330708661417323
        },
        {
          "duration": 0.375,
          "durationTicks": 256,
          "midi": 57,
          "name": "A3",
          "ticks": 118784,
          "time": 174,
          "velocity": 0.5118110236220472
        },
        {
          "duration": 0.375,
          "durationTicks": 256,
          "midi": 66,
          "name": "F#4",
          "ticks": 118784,
          "time": 174,
          "velocity": 0.5118110236220472
        },
        {
          "duration": 0.75,
          "durationTicks": 512,
          "midi": 58,
          "name": "A#3",
          "ticks": 119296,
          "time": 174.75,
          "velocity": 0.4566929133858268
        },
        {
          "duration": 0.75,
          "durationTicks": 512,
          "midi": 64,
          "name": "E4",
          "ticks": 119296,
          "time": 174.75,
          "velocity": 0.4566929133858268
        },
        {
          "duration": 0.375,
          "durationTicks": 256,
          "midi": 57,
          "name": "A3",
          "ticks": 119808,
          "time": 175.5,
          "velocity": 0.5669291338582677
        },
        {
          "duration": 0.375,
          "durationTicks": 256,
          "midi": 66,
          "name": "F#4",
          "ticks": 119808,
          "time": 175.5,
          "velocity": 0.5669291338582677
        },
        {
          "duration": 0.75,
          "durationTicks": 512,
          "midi": 58,
          "name": "A#3",
          "ticks": 120320,
          "time": 176.25,
          "velocity": 0.4015748031496063
        },
        {
          "duration": 0.75,
          "durationTicks": 512,
          "midi": 64,
          "name": "E4",
          "ticks": 120320,
          "time": 176.25,
          "velocity": 0.4015748031496063
        },
        {
          "duration": 0.375,
          "durationTicks": 256,
          "midi": 57,
          "name": "A3",
          "ticks": 120832,
          "time": 177,
          "velocity": 0.5118110236220472
        },
        {
          "duration": 0.375,
          "durationTicks": 256,
          "midi": 66,
          "name": "F#4",
          "ticks": 120832,
          "time": 177,
          "velocity": 0.5118110236220472
        },
        {
          "duration": 0.1875,
          "durationTicks": 128,
          "midi": 58,
          "name": "A#3",
          "ticks": 121088,
          "time": 177.375,
          "velocity": 0.4881889763779528
        },
        {
          "duration": 0.1875,
          "durationTicks": 128,
          "midi": 64,
          "name": "E4",
          "ticks": 121088,
          "time": 177.375,
          "velocity": 0.4881889763779528
        },
        {
          "duration": 0.1875,
          "durationTicks": 128,
          "midi": 57,
          "name": "A3",
          "ticks": 121344,
          "time": 177.75,
          "velocity": 0.5196850393700787
        },
        {
          "duration": 0.1875,
          "durationTicks": 128,
          "midi": 66,
          "name": "F#4",
          "ticks": 121344,
          "time": 177.75,
          "velocity": 0.5196850393700787
        },
        {
          "duration": 0.1875,
          "durationTicks": 128,
          "midi": 58,
          "name": "A#3",
          "ticks": 121600,
          "time": 178.125,
          "velocity": 0.4645669291338583
        },
        {
          "duration": 0.1875,
          "durationTicks": 128,
          "midi": 64,
          "name": "E4",
          "ticks": 121600,
          "time": 178.125,
          "velocity": 0.4645669291338583
        },
        {
          "duration": 0.75,
          "durationTicks": 512,
          "midi": 66,
          "name": "F#4",
          "ticks": 121856,
          "time": 178.5,
          "velocity": 0.5118110236220472
        },
        {
          "duration": 1.5,
          "durationTicks": 1024,
          "midi": 57,
          "name": "A3",
          "ticks": 121856,
          "time": 178.5,
          "velocity": 0.4409448818897638
        },
        {
          "duration": 0.75,
          "durationTicks": 512,
          "midi": 60,
          "name": "C4",
          "ticks": 122368,
          "time": 179.25,
          "velocity": 0.4251968503937008
        },
        {
          "duration": 0.7646484375,
          "durationTicks": 522,
          "midi": 58,
          "name": "A#3",
          "ticks": 122880,
          "time": 180,
          "velocity": 0.4566929133858268
        },
        {
          "duration": 0.7646484375,
          "durationTicks": 522,
          "midi": 55,
          "name": "G3",
          "ticks": 122880,
          "time": 180,
          "velocity": 0.4330708661417323
        },
        {
          "duration": 0.7119140625,
          "durationTicks": 486,
          "midi": 57,
          "name": "A3",
          "ticks": 123392,
          "time": 180.75,
          "velocity": 0.41732283464566927
        },
        {
          "duration": 0.7119140625,
          "durationTicks": 486,
          "midi": 54,
          "name": "F#3",
          "ticks": 123392,
          "time": 180.75,
          "velocity": 0.41732283464566927
        },
        {
          "duration": 0.375,
          "durationTicks": 256,
          "midi": 58,
          "name": "A#3",
          "ticks": 123904,
          "time": 181.5,
          "velocity": 0.5354330708661418
        },
        {
          "duration": 0.375,
          "durationTicks": 256,
          "midi": 55,
          "name": "G3",
          "ticks": 123904,
          "time": 181.5,
          "velocity": 0.5196850393700787
        },
        {
          "duration": 3,
          "durationTicks": 2048,
          "midi": 67,
          "name": "G4",
          "ticks": 125952,
          "time": 184.5,
          "velocity": 0.4251968503937008
        },
        {
          "duration": 6,
          "durationTicks": 4096,
          "midi": 63,
          "name": "D#4",
          "ticks": 125952,
          "time": 184.5,
          "velocity": 0.4330708661417323
        },
        {
          "duration": 1.5,
          "durationTicks": 1024,
          "midi": 65,
          "name": "F4",
          "ticks": 128000,
          "time": 187.5,
          "velocity": 0.4566929133858268
        },
        {
          "duration": 1.875,
          "durationTicks": 1280,
          "midi": 65,
          "name": "F4",
          "ticks": 129024,
          "time": 189,
          "velocity": 0.4409448818897638
        },
        {
          "duration": 0.375,
          "durationTicks": 256,
          "midi": 62,
          "name": "D4",
          "ticks": 130048,
          "time": 190.5,
          "velocity": 0.4566929133858268
        },
        {
          "duration": 0.1875,
          "durationTicks": 128,
          "midi": 58,
          "name": "A#3",
          "ticks": 130304,
          "time": 190.875,
          "velocity": 0.7165354330708661
        },
        {
          "duration": 0.1875,
          "durationTicks": 128,
          "midi": 62,
          "name": "D4",
          "ticks": 130432,
          "time": 191.0625,
          "velocity": 0.8818897637795275
        },
        {
          "duration": 0.1875,
          "durationTicks": 128,
          "midi": 58,
          "name": "A#3",
          "ticks": 130560,
          "time": 191.25,
          "velocity": 0.7480314960629921
        },
        {
          "duration": 0.1875,
          "durationTicks": 128,
          "midi": 62,
          "name": "D4",
          "ticks": 130688,
          "time": 191.4375,
          "velocity": 0.84251968503937
        },
        {
          "duration": 0.1875,
          "durationTicks": 128,
          "midi": 58,
          "name": "A#3",
          "ticks": 130816,
          "time": 191.625,
          "velocity": 0.7480314960629921
        },
        {
          "duration": 0.1875,
          "durationTicks": 128,
          "midi": 62,
          "name": "D4",
          "ticks": 130944,
          "time": 191.8125,
          "velocity": 0.8661417322834646
        },
        {
          "duration": 0.1875,
          "durationTicks": 128,
          "midi": 57,
          "name": "A3",
          "ticks": 131072,
          "time": 192,
          "velocity": 0.7007874015748031
        },
        {
          "duration": 0.1875,
          "durationTicks": 128,
          "midi": 60,
          "name": "C4",
          "ticks": 131200,
          "time": 192.1875,
          "velocity": 0.8582677165354331
        },
        {
          "duration": 0.1875,
          "durationTicks": 128,
          "midi": 57,
          "name": "A3",
          "ticks": 131328,
          "time": 192.375,
          "velocity": 0.7165354330708661
        },
        {
          "duration": 0.1875,
          "durationTicks": 128,
          "midi": 60,
          "name": "C4",
          "ticks": 131456,
          "time": 192.5625,
          "velocity": 0.8661417322834646
        },
        {
          "duration": 0.1875,
          "durationTicks": 128,
          "midi": 57,
          "name": "A3",
          "ticks": 131584,
          "time": 192.75,
          "velocity": 0.7165354330708661
        },
        {
          "duration": 0.1875,
          "durationTicks": 128,
          "midi": 60,
          "name": "C4",
          "ticks": 131712,
          "time": 192.9375,
          "velocity": 0.8188976377952756
        },
        {
          "duration": 0.1875,
          "durationTicks": 128,
          "midi": 57,
          "name": "A3",
          "ticks": 131840,
          "time": 193.125,
          "velocity": 0.7716535433070866
        },
        {
          "duration": 0.1875,
          "durationTicks": 128,
          "midi": 60,
          "name": "C4",
          "ticks": 131968,
          "time": 193.3125,
          "velocity": 0.8267716535433071
        },
        {
          "duration": 0.1875,
          "durationTicks": 128,
          "midi": 55,
          "name": "G3",
          "ticks": 132096,
          "time": 193.5,
          "velocity": 0.7637795275590551
        },
        {
          "duration": 0.1875,
          "durationTicks": 128,
          "midi": 58,
          "name": "A#3",
          "ticks": 132224,
          "time": 193.6875,
          "velocity": 0.7716535433070866
        },
        {
          "duration": 0.1875,
          "durationTicks": 128,
          "midi": 55,
          "name": "G3",
          "ticks": 132352,
          "time": 193.875,
          "velocity": 0.7244094488188977
        },
        {
          "duration": 0.1875,
          "durationTicks": 128,
          "midi": 58,
          "name": "A#3",
          "ticks": 132480,
          "time": 194.0625,
          "velocity": 0.7795275590551181
        },
        {
          "duration": 0.1875,
          "durationTicks": 128,
          "midi": 55,
          "name": "G3",
          "ticks": 132608,
          "time": 194.25,
          "velocity": 0.7480314960629921
        },
        {
          "duration": 0.1875,
          "durationTicks": 128,
          "midi": 58,
          "name": "A#3",
          "ticks": 132736,
          "time": 194.4375,
          "velocity": 0.7952755905511811
        },
        {
          "duration": 0.1875,
          "durationTicks": 128,
          "midi": 55,
          "name": "G3",
          "ticks": 132864,
          "time": 194.625,
          "velocity": 0.7322834645669292
        },
        {
          "duration": 0.1875,
          "durationTicks": 128,
          "midi": 58,
          "name": "A#3",
          "ticks": 132992,
          "time": 194.8125,
          "velocity": 0.8110236220472441
        },
        {
          "duration": 0.1875,
          "durationTicks": 128,
          "midi": 53,
          "name": "F3",
          "ticks": 133120,
          "time": 195,
          "velocity": 0.7480314960629921
        },
        {
          "duration": 0.1875,
          "durationTicks": 128,
          "midi": 58,
          "name": "A#3",
          "ticks": 133248,
          "time": 195.1875,
          "velocity": 0.8188976377952756
        },
        {
          "duration": 0.1875,
          "durationTicks": 128,
          "midi": 53,
          "name": "F3",
          "ticks": 133376,
          "time": 195.375,
          "velocity": 0.7086614173228346
        },
        {
          "duration": 0.1875,
          "durationTicks": 128,
          "midi": 58,
          "name": "A#3",
          "ticks": 133504,
          "time": 195.5625,
          "velocity": 0.8188976377952756
        },
        {
          "duration": 0.1875,
          "durationTicks": 128,
          "midi": 53,
          "name": "F3",
          "ticks": 133632,
          "time": 195.75,
          "velocity": 0.7165354330708661
        },
        {
          "duration": 0.1875,
          "durationTicks": 128,
          "midi": 58,
          "name": "A#3",
          "ticks": 133760,
          "time": 195.9375,
          "velocity": 0.8110236220472441
        },
        {
          "duration": 0.1875,
          "durationTicks": 128,
          "midi": 53,
          "name": "F3",
          "ticks": 133888,
          "time": 196.125,
          "velocity": 0.7322834645669292
        },
        {
          "duration": 0.1875,
          "durationTicks": 128,
          "midi": 58,
          "name": "A#3",
          "ticks": 134016,
          "time": 196.3125,
          "velocity": 0.7952755905511811
        },
        {
          "duration": 0.1875,
          "durationTicks": 128,
          "midi": 51,
          "name": "D#3",
          "ticks": 134144,
          "time": 196.5,
          "velocity": 0.7244094488188977
        },
        {
          "duration": 0.1875,
          "durationTicks": 128,
          "midi": 55,
          "name": "G3",
          "ticks": 134272,
          "time": 196.6875,
          "velocity": 0.8267716535433071
        },
        {
          "duration": 0.1875,
          "durationTicks": 128,
          "midi": 51,
          "name": "D#3",
          "ticks": 134400,
          "time": 196.875,
          "velocity": 0.7244094488188977
        },
        {
          "duration": 0.1875,
          "durationTicks": 128,
          "midi": 55,
          "name": "G3",
          "ticks": 134528,
          "time": 197.0625,
          "velocity": 0.8346456692913385
        },
        {
          "duration": 0.1875,
          "durationTicks": 128,
          "midi": 51,
          "name": "D#3",
          "ticks": 134656,
          "time": 197.25,
          "velocity": 0.7244094488188977
        },
        {
          "duration": 0.1875,
          "durationTicks": 128,
          "midi": 55,
          "name": "G3",
          "ticks": 134784,
          "time": 197.4375,
          "velocity": 0.7874015748031497
        },
        {
          "duration": 0.1875,
          "durationTicks": 128,
          "midi": 51,
          "name": "D#3",
          "ticks": 134912,
          "time": 197.625,
          "velocity": 0.7244094488188977
        },
        {
          "duration": 0.1875,
          "durationTicks": 128,
          "midi": 55,
          "name": "G3",
          "ticks": 135040,
          "time": 197.8125,
          "velocity": 0.7795275590551181
        },
        {
          "duration": 0.1875,
          "durationTicks": 128,
          "midi": 50,
          "name": "D3",
          "ticks": 135168,
          "time": 198,
          "velocity": 0.7480314960629921
        },
        {
          "duration": 0.1875,
          "durationTicks": 128,
          "midi": 53,
          "name": "F3",
          "ticks": 135296,
          "time": 198.1875,
          "velocity": 0.8110236220472441
        },
        {
          "duration": 0.1875,
          "durationTicks": 128,
          "midi": 50,
          "name": "D3",
          "ticks": 135424,
          "time": 198.375,
          "velocity": 0.7401574803149606
        },
        {
          "duration": 0.1875,
          "durationTicks": 128,
          "midi": 53,
          "name": "F3",
          "ticks": 135552,
          "time": 198.5625,
          "velocity": 0.8267716535433071
        },
        {
          "duration": 0.1875,
          "durationTicks": 128,
          "midi": 50,
          "name": "D3",
          "ticks": 135680,
          "time": 198.75,
          "velocity": 0.7165354330708661
        },
        {
          "duration": 0.1875,
          "durationTicks": 128,
          "midi": 53,
          "name": "F3",
          "ticks": 135808,
          "time": 198.9375,
          "velocity": 0.7874015748031497
        },
        {
          "duration": 0.1875,
          "durationTicks": 128,
          "midi": 50,
          "name": "D3",
          "ticks": 135936,
          "time": 199.125,
          "velocity": 0.7007874015748031
        },
        {
          "duration": 0.1875,
          "durationTicks": 128,
          "midi": 53,
          "name": "F3",
          "ticks": 136064,
          "time": 199.3125,
          "velocity": 0.7952755905511811
        },
        {
          "duration": 1.3125,
          "durationTicks": 896,
          "midi": 64,
          "name": "E4",
          "ticks": 136192,
          "time": 199.5,
          "velocity": 0.9606299212598425
        },
        {
          "duration": 1.5,
          "durationTicks": 1024,
          "midi": 55,
          "name": "G3",
          "ticks": 136192,
          "time": 199.5,
          "velocity": 0.7086614173228346
        },
        {
          "duration": 0.17724609375,
          "durationTicks": 121,
          "midi": 65,
          "name": "F4",
          "ticks": 137088,
          "time": 200.8125,
          "velocity": 0.8267716535433071
        },
        {
          "duration": 1.3125,
          "durationTicks": 896,
          "midi": 64,
          "name": "E4",
          "ticks": 137216,
          "time": 201,
          "velocity": 0.7165354330708661
        },
        {
          "duration": 1.5,
          "durationTicks": 1024,
          "midi": 55,
          "name": "G3",
          "ticks": 137216,
          "time": 201,
          "velocity": 0.7874015748031497
        },
        {
          "duration": 0.17724609375,
          "durationTicks": 121,
          "midi": 65,
          "name": "F4",
          "ticks": 138112,
          "time": 202.3125,
          "velocity": 0.8188976377952756
        },
        {
          "duration": 1.3125,
          "durationTicks": 896,
          "midi": 64,
          "name": "E4",
          "ticks": 138240,
          "time": 202.5,
          "velocity": 0.7244094488188977
        },
        {
          "duration": 1.5,
          "durationTicks": 1024,
          "midi": 55,
          "name": "G3",
          "ticks": 138240,
          "time": 202.5,
          "velocity": 0.7480314960629921
        },
        {
          "duration": 0.17724609375,
          "durationTicks": 121,
          "midi": 65,
          "name": "F4",
          "ticks": 139136,
          "time": 203.8125,
          "velocity": 0.7874015748031497
        },
        {
          "duration": 1.5,
          "durationTicks": 1024,
          "midi": 64,
          "name": "E4",
          "ticks": 139264,
          "time": 204,
          "velocity": 0.7322834645669292
        },
        {
          "duration": 1.5,
          "durationTicks": 1024,
          "midi": 55,
          "name": "G3",
          "ticks": 139264,
          "time": 204,
          "velocity": 0.7795275590551181
        },
        {
          "duration": 0.1875,
          "durationTicks": 128,
          "midi": 53,
          "name": "F3",
          "ticks": 140288,
          "time": 205.5,
          "velocity": 0.8188976377952756
        },
        {
          "duration": 0.1875,
          "durationTicks": 128,
          "midi": 65,
          "name": "F4",
          "ticks": 140288,
          "time": 205.5,
          "velocity": 0.8188976377952756
        },
        {
          "duration": 0.1875,
          "durationTicks": 128,
          "midi": 53,
          "name": "F3",
          "ticks": 140416,
          "time": 205.6875,
          "velocity": 0.6692913385826772
        },
        {
          "duration": 0.1875,
          "durationTicks": 128,
          "midi": 53,
          "name": "F3",
          "ticks": 140544,
          "time": 205.875,
          "velocity": 0.7637795275590551
        },
        {
          "duration": 0.1875,
          "durationTicks": 128,
          "midi": 53,
          "name": "F3",
          "ticks": 140672,
          "time": 206.0625,
          "velocity": 0.7952755905511811
        },
        {
          "duration": 0.1875,
          "durationTicks": 128,
          "midi": 53,
          "name": "F3",
          "ticks": 140800,
          "time": 206.25,
          "velocity": 0.7716535433070866
        },
        {
          "duration": 0.1875,
          "durationTicks": 128,
          "midi": 53,
          "name": "F3",
          "ticks": 140928,
          "time": 206.4375,
          "velocity": 0.7480314960629921
        },
        {
          "duration": 0.1875,
          "durationTicks": 128,
          "midi": 53,
          "name": "F3",
          "ticks": 141056,
          "time": 206.625,
          "velocity": 0.7874015748031497
        },
        {
          "duration": 0.1875,
          "durationTicks": 128,
          "midi": 53,
          "name": "F3",
          "ticks": 141184,
          "time": 206.8125,
          "velocity": 0.8031496062992126
        },
        {
          "duration": 0.1875,
          "durationTicks": 128,
          "midi": 53,
          "name": "F3",
          "ticks": 141312,
          "time": 207,
          "velocity": 0.7795275590551181
        },
        {
          "duration": 0.1875,
          "durationTicks": 128,
          "midi": 53,
          "name": "F3",
          "ticks": 141440,
          "time": 207.1875,
          "velocity": 0.7559055118110236
        },
        {
          "duration": 0.1875,
          "durationTicks": 128,
          "midi": 53,
          "name": "F3",
          "ticks": 141568,
          "time": 207.375,
          "velocity": 0.7716535433070866
        },
        {
          "duration": 0.1875,
          "durationTicks": 128,
          "midi": 53,
          "name": "F3",
          "ticks": 141696,
          "time": 207.5625,
          "velocity": 0.7716535433070866
        },
        {
          "duration": 0.1875,
          "durationTicks": 128,
          "midi": 53,
          "name": "F3",
          "ticks": 141824,
          "time": 207.75,
          "velocity": 0.7559055118110236
        },
        {
          "duration": 0.1875,
          "durationTicks": 128,
          "midi": 53,
          "name": "F3",
          "ticks": 141952,
          "time": 207.9375,
          "velocity": 0.7244094488188977
        },
        {
          "duration": 0.1875,
          "durationTicks": 128,
          "midi": 53,
          "name": "F3",
          "ticks": 142080,
          "time": 208.125,
          "velocity": 0.7244094488188977
        },
        {
          "duration": 0.1875,
          "durationTicks": 128,
          "midi": 53,
          "name": "F3",
          "ticks": 142208,
          "time": 208.3125,
          "velocity": 0.7559055118110236
        },
        {
          "duration": 0.1875,
          "durationTicks": 128,
          "midi": 53,
          "name": "F3",
          "ticks": 142336,
          "time": 208.5,
          "velocity": 0.7716535433070866
        },
        {
          "duration": 0.1875,
          "durationTicks": 128,
          "midi": 53,
          "name": "F3",
          "ticks": 142464,
          "time": 208.6875,
          "velocity": 0.7559055118110236
        },
        {
          "duration": 0.1875,
          "durationTicks": 128,
          "midi": 53,
          "name": "F3",
          "ticks": 142592,
          "time": 208.875,
          "velocity": 0.7401574803149606
        },
        {
          "duration": 0.1875,
          "durationTicks": 128,
          "midi": 53,
          "name": "F3",
          "ticks": 142720,
          "time": 209.0625,
          "velocity": 0.7322834645669292
        },
        {
          "duration": 0.1875,
          "durationTicks": 128,
          "midi": 53,
          "name": "F3",
          "ticks": 142848,
          "time": 209.25,
          "velocity": 0.7480314960629921
        },
        {
          "duration": 0.1875,
          "durationTicks": 128,
          "midi": 53,
          "name": "F3",
          "ticks": 142976,
          "time": 209.4375,
          "velocity": 0.7480314960629921
        },
        {
          "duration": 0.1875,
          "durationTicks": 128,
          "midi": 53,
          "name": "F3",
          "ticks": 143104,
          "time": 209.625,
          "velocity": 0.7559055118110236
        },
        {
          "duration": 0.1875,
          "durationTicks": 128,
          "midi": 53,
          "name": "F3",
          "ticks": 143232,
          "time": 209.8125,
          "velocity": 0.8031496062992126
        },
        {
          "duration": 0.1875,
          "durationTicks": 128,
          "midi": 53,
          "name": "F3",
          "ticks": 143360,
          "time": 210,
          "velocity": 0.7401574803149606
        },
        {
          "duration": 0.1875,
          "durationTicks": 128,
          "midi": 53,
          "name": "F3",
          "ticks": 143488,
          "time": 210.1875,
          "velocity": 0.7874015748031497
        },
        {
          "duration": 0.1875,
          "durationTicks": 128,
          "midi": 53,
          "name": "F3",
          "ticks": 143616,
          "time": 210.375,
          "velocity": 0.7322834645669292
        },
        {
          "duration": 0.1875,
          "durationTicks": 128,
          "midi": 53,
          "name": "F3",
          "ticks": 143744,
          "time": 210.5625,
          "velocity": 0.7874015748031497
        },
        {
          "duration": 0.1875,
          "durationTicks": 128,
          "midi": 53,
          "name": "F3",
          "ticks": 143872,
          "time": 210.75,
          "velocity": 0.7874015748031497
        },
        {
          "duration": 0.1875,
          "durationTicks": 128,
          "midi": 53,
          "name": "F3",
          "ticks": 144000,
          "time": 210.9375,
          "velocity": 0.7795275590551181
        },
        {
          "duration": 0.1875,
          "durationTicks": 128,
          "midi": 53,
          "name": "F3",
          "ticks": 144128,
          "time": 211.125,
          "velocity": 0.7874015748031497
        },
        {
          "duration": 0.1875,
          "durationTicks": 128,
          "midi": 53,
          "name": "F3",
          "ticks": 144256,
          "time": 211.3125,
          "velocity": 0.7559055118110236
        },
        {
          "duration": 0.375,
          "durationTicks": 256,
          "midi": 53,
          "name": "F3",
          "ticks": 144384,
          "time": 211.5,
          "velocity": 0.7795275590551181
        },
        {
          "duration": 0.375,
          "durationTicks": 256,
          "midi": 41,
          "name": "F2",
          "ticks": 144896,
          "time": 212.25,
          "velocity": 0.7007874015748031
        },
        {
          "duration": 1.14697265625,
          "durationTicks": 783,
          "midi": 63,
          "name": "D#4",
          "ticks": 147456,
          "time": 216,
          "velocity": 0.4251968503937008
        },
        {
          "duration": 0.09521484375,
          "durationTicks": 65,
          "midi": 65,
          "name": "F4",
          "ticks": 148224,
          "time": 217.125,
          "velocity": 0.41732283464566927
        },
        {
          "duration": 0.09521484375,
          "durationTicks": 65,
          "midi": 63,
          "name": "D#4",
          "ticks": 148288,
          "time": 217.21875,
          "velocity": 0.4409448818897638
        },
        {
          "duration": 0.09521484375,
          "durationTicks": 65,
          "midi": 62,
          "name": "D4",
          "ticks": 148352,
          "time": 217.3125,
          "velocity": 0.3543307086614173
        },
        {
          "duration": 0.09521484375,
          "durationTicks": 65,
          "midi": 60,
          "name": "C4",
          "ticks": 148416,
          "time": 217.40625,
          "velocity": 0.4409448818897638
        },
        {
          "duration": 0.35595703125,
          "durationTicks": 243,
          "midi": 58,
          "name": "A#3",
          "ticks": 148480,
          "time": 217.5,
          "velocity": 0.41732283464566927
        },
        {
          "duration": 0.1904296875,
          "durationTicks": 130,
          "midi": 58,
          "name": "A#3",
          "ticks": 153600,
          "time": 225,
          "velocity": 0.44881889763779526
        },
        {
          "duration": 0.1904296875,
          "durationTicks": 130,
          "midi": 57,
          "name": "A3",
          "ticks": 153728,
          "time": 225.1875,
          "velocity": 0.4409448818897638
        },
        {
          "duration": 0.1904296875,
          "durationTicks": 130,
          "midi": 60,
          "name": "C4",
          "ticks": 153856,
          "time": 225.375,
          "velocity": 0.5039370078740157
        },
        {
          "duration": 0.1904296875,
          "durationTicks": 130,
          "midi": 58,
          "name": "A#3",
          "ticks": 153984,
          "time": 225.5625,
          "velocity": 0.5118110236220472
        },
        {
          "duration": 0.1904296875,
          "durationTicks": 130,
          "midi": 62,
          "name": "D4",
          "ticks": 154112,
          "time": 225.75,
          "velocity": 0.5354330708661418
        },
        {
          "duration": 0.1904296875,
          "durationTicks": 130,
          "midi": 60,
          "name": "C4",
          "ticks": 154240,
          "time": 225.9375,
          "velocity": 0.49606299212598426
        },
        {
          "duration": 0.1904296875,
          "durationTicks": 130,
          "midi": 63,
          "name": "D#4",
          "ticks": 154368,
          "time": 226.125,
          "velocity": 0.5196850393700787
        },
        {
          "duration": 0.17724609375,
          "durationTicks": 121,
          "midi": 62,
          "name": "D4",
          "ticks": 154496,
          "time": 226.3125,
          "velocity": 0.5039370078740157
        },
        {
          "duration": 1.14697265625,
          "durationTicks": 783,
          "midi": 62,
          "name": "D4",
          "ticks": 154624,
          "time": 226.5,
          "velocity": 0.5275590551181102
        },
        {
          "duration": 1.14697265625,
          "durationTicks": 783,
          "midi": 65,
          "name": "F4",
          "ticks": 154624,
          "time": 226.5,
          "velocity": 0.5275590551181102
        },
        {
          "duration": 0.38232421875,
          "durationTicks": 261,
          "midi": 60,
          "name": "C4",
          "ticks": 155392,
          "time": 227.625,
          "velocity": 0.5118110236220472
        },
        {
          "duration": 0.38232421875,
          "durationTicks": 261,
          "midi": 64,
          "name": "E4",
          "ticks": 155392,
          "time": 227.625,
          "velocity": 0.5118110236220472
        },
        {
          "duration": 0.35595703125,
          "durationTicks": 243,
          "midi": 53,
          "name": "F3",
          "ticks": 155648,
          "time": 228,
          "velocity": 0.4881889763779528
        },
        {
          "duration": 0.35595703125,
          "durationTicks": 243,
          "midi": 63,
          "name": "D#4",
          "ticks": 155648,
          "time": 228,
          "velocity": 0.4881889763779528
        },
        {
          "duration": 0.1875,
          "durationTicks": 128,
          "midi": 55,
          "name": "G3",
          "ticks": 156928,
          "time": 229.875,
          "velocity": 0.4409448818897638
        },
        {
          "duration": 0.1875,
          "durationTicks": 128,
          "midi": 62,
          "name": "D4",
          "ticks": 156928,
          "time": 229.875,
          "velocity": 0.4409448818897638
        },
        {
          "duration": 0.38232421875,
          "durationTicks": 261,
          "midi": 55,
          "name": "G3",
          "ticks": 157184,
          "time": 230.25,
          "velocity": 0.44881889763779526
        },
        {
          "duration": 0.38232421875,
          "durationTicks": 261,
          "midi": 62,
          "name": "D4",
          "ticks": 157184,
          "time": 230.25,
          "velocity": 0.44881889763779526
        },
        {
          "duration": 0.35595703125,
          "durationTicks": 243,
          "midi": 52,
          "name": "E3",
          "ticks": 157440,
          "time": 230.625,
          "velocity": 0.5118110236220472
        },
        {
          "duration": 0.35595703125,
          "durationTicks": 243,
          "midi": 67,
          "name": "G4",
          "ticks": 157440,
          "time": 230.625,
          "velocity": 0.5118110236220472
        },
        {
          "duration": 0.75,
          "durationTicks": 512,
          "midi": 53,
          "name": "F3",
          "ticks": 157696,
          "time": 231,
          "velocity": 0.4645669291338583
        },
        {
          "duration": 0.75,
          "durationTicks": 512,
          "midi": 65,
          "name": "F4",
          "ticks": 157696,
          "time": 231,
          "velocity": 0.4645669291338583
        },
        {
          "duration": 0.7646484375,
          "durationTicks": 522,
          "midi": 58,
          "name": "A#3",
          "ticks": 161024,
          "time": 235.875,
          "velocity": 0.4094488188976378
        },
        {
          "duration": 0.7646484375,
          "durationTicks": 522,
          "midi": 61,
          "name": "C#4",
          "ticks": 161024,
          "time": 235.875,
          "velocity": 0.4094488188976378
        },
        {
          "duration": 0.35595703125,
          "durationTicks": 243,
          "midi": 56,
          "name": "G#3",
          "ticks": 161536,
          "time": 236.625,
          "velocity": 0.3700787401574803
        },
        {
          "duration": 0.35595703125,
          "durationTicks": 243,
          "midi": 60,
          "name": "C4",
          "ticks": 161536,
          "time": 236.625,
          "velocity": 0.3700787401574803
        },
        {
          "duration": 0.7646484375,
          "durationTicks": 522,
          "midi": 58,
          "name": "A#3",
          "ticks": 162048,
          "time": 237.375,
          "velocity": 0.4409448818897638
        },
        {
          "duration": 0.7646484375,
          "durationTicks": 522,
          "midi": 61,
          "name": "C#4",
          "ticks": 162048,
          "time": 237.375,
          "velocity": 0.4409448818897638
        },
        {
          "duration": 0.35595703125,
          "durationTicks": 243,
          "midi": 56,
          "name": "G#3",
          "ticks": 162560,
          "time": 238.125,
          "velocity": 0.41732283464566927
        },
        {
          "duration": 0.35595703125,
          "durationTicks": 243,
          "midi": 60,
          "name": "C4",
          "ticks": 162560,
          "time": 238.125,
          "velocity": 0.41732283464566927
        },
        {
          "duration": 0.7646484375,
          "durationTicks": 522,
          "midi": 58,
          "name": "A#3",
          "ticks": 163072,
          "time": 238.875,
          "velocity": 0.44881889763779526
        },
        {
          "duration": 0.7646484375,
          "durationTicks": 522,
          "midi": 61,
          "name": "C#4",
          "ticks": 163072,
          "time": 238.875,
          "velocity": 0.44881889763779526
        },
        {
          "duration": 0.35595703125,
          "durationTicks": 243,
          "midi": 56,
          "name": "G#3",
          "ticks": 163584,
          "time": 239.625,
          "velocity": 0.4330708661417323
        },
        {
          "duration": 0.35595703125,
          "durationTicks": 243,
          "midi": 60,
          "name": "C4",
          "ticks": 163584,
          "time": 239.625,
          "velocity": 0.4330708661417323
        },
        {
          "duration": 0.7646484375,
          "durationTicks": 522,
          "midi": 58,
          "name": "A#3",
          "ticks": 164096,
          "time": 240.375,
          "velocity": 0.4094488188976378
        },
        {
          "duration": 0.7646484375,
          "durationTicks": 522,
          "midi": 61,
          "name": "C#4",
          "ticks": 164096,
          "time": 240.375,
          "velocity": 0.4094488188976378
        },
        {
          "duration": 0.35595703125,
          "durationTicks": 243,
          "midi": 56,
          "name": "G#3",
          "ticks": 164608,
          "time": 241.125,
          "velocity": 0.3228346456692913
        },
        {
          "duration": 0.35595703125,
          "durationTicks": 243,
          "midi": 60,
          "name": "C4",
          "ticks": 164608,
          "time": 241.125,
          "velocity": 0.3228346456692913
        },
        {
          "duration": 0.1875,
          "durationTicks": 128,
          "midi": 51,
          "name": "D#3",
          "ticks": 164864,
          "time": 241.5,
          "velocity": 0.44881889763779526
        },
        {
          "duration": 0.1875,
          "durationTicks": 128,
          "midi": 51,
          "name": "D#3",
          "ticks": 164992,
          "time": 241.6875,
          "velocity": 0.4881889763779528
        },
        {
          "duration": 0.1875,
          "durationTicks": 128,
          "midi": 51,
          "name": "D#3",
          "ticks": 165120,
          "time": 241.875,
          "velocity": 0.5039370078740157
        },
        {
          "duration": 0.1875,
          "durationTicks": 128,
          "midi": 51,
          "name": "D#3",
          "ticks": 165248,
          "time": 242.0625,
          "velocity": 0.5196850393700787
        },
        {
          "duration": 0.1875,
          "durationTicks": 128,
          "midi": 51,
          "name": "D#3",
          "ticks": 165376,
          "time": 242.25,
          "velocity": 0.5433070866141733
        },
        {
          "duration": 0.1875,
          "durationTicks": 128,
          "midi": 51,
          "name": "D#3",
          "ticks": 165504,
          "time": 242.4375,
          "velocity": 0.5511811023622047
        },
        {
          "duration": 0.1875,
          "durationTicks": 128,
          "midi": 51,
          "name": "D#3",
          "ticks": 165632,
          "time": 242.625,
          "velocity": 0.5905511811023622
        },
        {
          "duration": 0.1875,
          "durationTicks": 128,
          "midi": 51,
          "name": "D#3",
          "ticks": 165760,
          "time": 242.8125,
          "velocity": 0.6299212598425197
        },
        {
          "duration": 0.1875,
          "durationTicks": 128,
          "midi": 52,
          "name": "E3",
          "ticks": 165888,
          "time": 243,
          "velocity": 0.6062992125984252
        },
        {
          "duration": 0.1875,
          "durationTicks": 128,
          "midi": 52,
          "name": "E3",
          "ticks": 166016,
          "time": 243.1875,
          "velocity": 0.6456692913385826
        },
        {
          "duration": 0.1875,
          "durationTicks": 128,
          "midi": 52,
          "name": "E3",
          "ticks": 166144,
          "time": 243.375,
          "velocity": 0.6299212598425197
        },
        {
          "duration": 0.1875,
          "durationTicks": 128,
          "midi": 52,
          "name": "E3",
          "ticks": 166272,
          "time": 243.5625,
          "velocity": 0.6535433070866141
        },
        {
          "duration": 0.1875,
          "durationTicks": 128,
          "midi": 52,
          "name": "E3",
          "ticks": 166400,
          "time": 243.75,
          "velocity": 0.6929133858267716
        },
        {
          "duration": 0.1875,
          "durationTicks": 128,
          "midi": 52,
          "name": "E3",
          "ticks": 166528,
          "time": 243.9375,
          "velocity": 0.6850393700787402
        },
        {
          "duration": 0.1875,
          "durationTicks": 128,
          "midi": 52,
          "name": "E3",
          "ticks": 166656,
          "time": 244.125,
          "velocity": 0.7322834645669292
        },
        {
          "duration": 0.1875,
          "durationTicks": 128,
          "midi": 52,
          "name": "E3",
          "ticks": 166784,
          "time": 244.3125,
          "velocity": 0.7322834645669292
        },
        {
          "duration": 0.1875,
          "durationTicks": 128,
          "midi": 53,
          "name": "F3",
          "ticks": 166912,
          "time": 244.5,
          "velocity": 0.8188976377952756
        },
        {
          "duration": 0.1875,
          "durationTicks": 128,
          "midi": 53,
          "name": "F3",
          "ticks": 167040,
          "time": 244.6875,
          "velocity": 0.7637795275590551
        },
        {
          "duration": 0.1875,
          "durationTicks": 128,
          "midi": 53,
          "name": "F3",
          "ticks": 167168,
          "time": 244.875,
          "velocity": 0.7244094488188977
        },
        {
          "duration": 0.1875,
          "durationTicks": 128,
          "midi": 53,
          "name": "F3",
          "ticks": 167296,
          "time": 245.0625,
          "velocity": 0.7637795275590551
        },
        {
          "duration": 0.1875,
          "durationTicks": 128,
          "midi": 53,
          "name": "F3",
          "ticks": 167424,
          "time": 245.25,
          "velocity": 0.7559055118110236
        },
        {
          "duration": 0.1875,
          "durationTicks": 128,
          "midi": 53,
          "name": "F3",
          "ticks": 167552,
          "time": 245.4375,
          "velocity": 0.7716535433070866
        },
        {
          "duration": 0.1875,
          "durationTicks": 128,
          "midi": 53,
          "name": "F3",
          "ticks": 167680,
          "time": 245.625,
          "velocity": 0.7795275590551181
        },
        {
          "duration": 0.1875,
          "durationTicks": 128,
          "midi": 53,
          "name": "F3",
          "ticks": 167808,
          "time": 245.8125,
          "velocity": 0.7401574803149606
        },
        {
          "duration": 0.1875,
          "durationTicks": 128,
          "midi": 41,
          "name": "F2",
          "ticks": 167936,
          "time": 246,
          "velocity": 0.6535433070866141
        },
        {
          "duration": 0.1875,
          "durationTicks": 128,
          "midi": 41,
          "name": "F2",
          "ticks": 168064,
          "time": 246.1875,
          "velocity": 0.7559055118110236
        },
        {
          "duration": 0.1875,
          "durationTicks": 128,
          "midi": 41,
          "name": "F2",
          "ticks": 168192,
          "time": 246.375,
          "velocity": 0.8110236220472441
        },
        {
          "duration": 0.1875,
          "durationTicks": 128,
          "midi": 41,
          "name": "F2",
          "ticks": 168320,
          "time": 246.5625,
          "velocity": 0.7480314960629921
        },
        {
          "duration": 0.1875,
          "durationTicks": 128,
          "midi": 41,
          "name": "F2",
          "ticks": 168448,
          "time": 246.75,
          "velocity": 0.8110236220472441
        },
        {
          "duration": 0.1875,
          "durationTicks": 128,
          "midi": 41,
          "name": "F2",
          "ticks": 168576,
          "time": 246.9375,
          "velocity": 0.7559055118110236
        },
        {
          "duration": 0.1875,
          "durationTicks": 128,
          "midi": 41,
          "name": "F2",
          "ticks": 168704,
          "time": 247.125,
          "velocity": 0.7637795275590551
        },
        {
          "duration": 0.1875,
          "durationTicks": 128,
          "midi": 41,
          "name": "F2",
          "ticks": 168832,
          "time": 247.3125,
          "velocity": 0.7559055118110236
        },
        {
          "duration": 0.375,
          "durationTicks": 256,
          "midi": 46,
          "name": "A#2",
          "ticks": 168960,
          "time": 247.5,
          "velocity": 0.7952755905511811
        },
        {
          "duration": 0.75,
          "durationTicks": 512,
          "midi": 50,
          "name": "D3",
          "ticks": 169216,
          "time": 247.875,
          "velocity": 0.8267716535433071
        },
        {
          "duration": 0.1875,
          "durationTicks": 128,
          "midi": 51,
          "name": "D#3",
          "ticks": 169728,
          "time": 248.625,
          "velocity": 0.8031496062992126
        },
        {
          "duration": 0.1875,
          "durationTicks": 128,
          "midi": 52,
          "name": "E3",
          "ticks": 169984,
          "time": 249,
          "velocity": 0.7952755905511811
        },
        {
          "duration": 0.1875,
          "durationTicks": 128,
          "midi": 53,
          "name": "F3",
          "ticks": 170240,
          "time": 249.375,
          "velocity": 0.7952755905511811
        },
        {
          "duration": 0.1875,
          "durationTicks": 128,
          "midi": 54,
          "name": "F#3",
          "ticks": 170496,
          "time": 249.75,
          "velocity": 0.7559055118110236
        },
        {
          "duration": 0.1875,
          "durationTicks": 128,
          "midi": 55,
          "name": "G3",
          "ticks": 170752,
          "time": 250.125,
          "velocity": 0.8267716535433071
        },
        {
          "duration": 0.1875,
          "durationTicks": 128,
          "midi": 56,
          "name": "G#3",
          "ticks": 171008,
          "time": 250.5,
          "velocity": 0.7795275590551181
        },
        {
          "duration": 0.1875,
          "durationTicks": 128,
          "midi": 55,
          "name": "G3",
          "ticks": 171520,
          "time": 251.25,
          "velocity": 0.7007874015748031
        },
        {
          "duration": 0.1875,
          "durationTicks": 128,
          "midi": 57,
          "name": "A3",
          "ticks": 172032,
          "time": 252,
          "velocity": 0.7086614173228346
        },
        {
          "duration": 0.1875,
          "durationTicks": 128,
          "midi": 60,
          "name": "C4",
          "ticks": 172032,
          "time": 252,
          "velocity": 0.7086614173228346
        },
        {
          "duration": 0.1875,
          "durationTicks": 128,
          "midi": 58,
          "name": "A#3",
          "ticks": 172544,
          "time": 252.75,
          "velocity": 0.7244094488188977
        },
        {
          "duration": 0.1875,
          "durationTicks": 128,
          "midi": 62,
          "name": "D4",
          "ticks": 172544,
          "time": 252.75,
          "velocity": 0.7244094488188977
        },
        {
          "duration": 0.9375,
          "durationTicks": 640,
          "midi": 67,
          "name": "G4",
          "ticks": 173056,
          "time": 253.5,
          "velocity": 0.7086614173228346
        },
        {
          "duration": 0.09375,
          "durationTicks": 64,
          "midi": 65,
          "name": "F4",
          "ticks": 173696,
          "time": 254.4375,
          "velocity": 0.4566929133858268
        },
        {
          "duration": 0.09375,
          "durationTicks": 64,
          "midi": 63,
          "name": "D#4",
          "ticks": 173824,
          "time": 254.625,
          "velocity": 0.4645669291338583
        },
        {
          "duration": 0.09375,
          "durationTicks": 64,
          "midi": 62,
          "name": "D4",
          "ticks": 173952,
          "time": 254.8125,
          "velocity": 0.44881889763779526
        },
        {
          "duration": 0.09375,
          "durationTicks": 64,
          "midi": 60,
          "name": "C4",
          "ticks": 174080,
          "time": 255,
          "velocity": 0.41732283464566927
        },
        {
          "duration": 0.09375,
          "durationTicks": 64,
          "midi": 58,
          "name": "A#3",
          "ticks": 174208,
          "time": 255.1875,
          "velocity": 0.47244094488188976
        },
        {
          "duration": 0.09375,
          "durationTicks": 64,
          "midi": 57,
          "name": "A3",
          "ticks": 174336,
          "time": 255.375,
          "velocity": 0.48031496062992124
        },
        {
          "duration": 0.09375,
          "durationTicks": 64,
          "midi": 55,
          "name": "G3",
          "ticks": 174464,
          "time": 255.5625,
          "velocity": 0.4330708661417323
        },
        {
          "duration": 0.09375,
          "durationTicks": 64,
          "midi": 53,
          "name": "F3",
          "ticks": 174592,
          "time": 255.75,
          "velocity": 0.4645669291338583
        },
        {
          "duration": 0.09375,
          "durationTicks": 64,
          "midi": 51,
          "name": "D#3",
          "ticks": 174720,
          "time": 255.9375,
          "velocity": 0.44881889763779526
        },
        {
          "duration": 0.09375,
          "durationTicks": 64,
          "midi": 50,
          "name": "D3",
          "ticks": 174848,
          "time": 256.125,
          "velocity": 0.49606299212598426
        },
        {
          "duration": 0.09375,
          "durationTicks": 64,
          "midi": 48,
          "name": "C3",
          "ticks": 174976,
          "time": 256.3125,
          "velocity": 0.4409448818897638
        },
        {
          "duration": 0.1904296875,
          "durationTicks": 130,
          "midi": 67,
          "name": "G4",
          "ticks": 176896,
          "time": 259.125,
          "velocity": 0.4015748031496063
        },
        {
          "duration": 0.17724609375,
          "durationTicks": 121,
          "midi": 65,
          "name": "F4",
          "ticks": 177024,
          "time": 259.3125,
          "velocity": 0.3937007874015748
        },
        {
          "duration": 0.1875,
          "durationTicks": 128,
          "midi": 65,
          "name": "F4",
          "ticks": 177152,
          "time": 259.5,
          "velocity": 0.4645669291338583
        },
        {
          "duration": 0.1904296875,
          "durationTicks": 130,
          "midi": 67,
          "name": "G4",
          "ticks": 177408,
          "time": 259.875,
          "velocity": 0.4881889763779528
        },
        {
          "duration": 0.17724609375,
          "durationTicks": 121,
          "midi": 65,
          "name": "F4",
          "ticks": 177536,
          "time": 260.0625,
          "velocity": 0.4881889763779528
        },
        {
          "duration": 0.1875,
          "durationTicks": 128,
          "midi": 65,
          "name": "F4",
          "ticks": 177664,
          "time": 260.25,
          "velocity": 0.47244094488188976
        },
        {
          "duration": 0.1904296875,
          "durationTicks": 130,
          "midi": 67,
          "name": "G4",
          "ticks": 178944,
          "time": 262.125,
          "velocity": 0.4409448818897638
        },
        {
          "duration": 0.17724609375,
          "durationTicks": 121,
          "midi": 65,
          "name": "F4",
          "ticks": 179072,
          "time": 262.3125,
          "velocity": 0.4015748031496063
        },
        {
          "duration": 0.1875,
          "durationTicks": 128,
          "midi": 65,
          "name": "F4",
          "ticks": 179200,
          "time": 262.5,
          "velocity": 0.47244094488188976
        },
        {
          "duration": 0.1904296875,
          "durationTicks": 130,
          "midi": 67,
          "name": "G4",
          "ticks": 179456,
          "time": 262.875,
          "velocity": 0.5039370078740157
        },
        {
          "duration": 0.17724609375,
          "durationTicks": 121,
          "midi": 65,
          "name": "F4",
          "ticks": 179584,
          "time": 263.0625,
          "velocity": 0.4330708661417323
        },
        {
          "duration": 0.1875,
          "durationTicks": 128,
          "midi": 65,
          "name": "F4",
          "ticks": 179712,
          "time": 263.25,
          "velocity": 0.4566929133858268
        },
        {
          "duration": 0.1875,
          "durationTicks": 128,
          "midi": 50,
          "name": "D3",
          "ticks": 180224,
          "time": 264,
          "velocity": 0.6456692913385826
        },
        {
          "duration": 0.1875,
          "durationTicks": 128,
          "midi": 50,
          "name": "D3",
          "ticks": 180352,
          "time": 264.1875,
          "velocity": 0.7559055118110236
        },
        {
          "duration": 0.1875,
          "durationTicks": 128,
          "midi": 50,
          "name": "D3",
          "ticks": 180480,
          "time": 264.375,
          "velocity": 0.7874015748031497
        },
        {
          "duration": 0.1875,
          "durationTicks": 128,
          "midi": 50,
          "name": "D3",
          "ticks": 180608,
          "time": 264.5625,
          "velocity": 0.7559055118110236
        },
        {
          "duration": 0.1875,
          "durationTicks": 128,
          "midi": 50,
          "name": "D3",
          "ticks": 180736,
          "time": 264.75,
          "velocity": 0.7874015748031497
        },
        {
          "duration": 0.1875,
          "durationTicks": 128,
          "midi": 50,
          "name": "D3",
          "ticks": 180864,
          "time": 264.9375,
          "velocity": 0.7874015748031497
        },
        {
          "duration": 0.1875,
          "durationTicks": 128,
          "midi": 50,
          "name": "D3",
          "ticks": 180992,
          "time": 265.125,
          "velocity": 0.7401574803149606
        },
        {
          "duration": 0.1875,
          "durationTicks": 128,
          "midi": 50,
          "name": "D3",
          "ticks": 181120,
          "time": 265.3125,
          "velocity": 0.7559055118110236
        },
        {
          "duration": 0.1875,
          "durationTicks": 128,
          "midi": 55,
          "name": "G3",
          "ticks": 181248,
          "time": 265.5,
          "velocity": 0.8110236220472441
        },
        {
          "duration": 0.1875,
          "durationTicks": 128,
          "midi": 55,
          "name": "G3",
          "ticks": 181376,
          "time": 265.6875,
          "velocity": 0.7716535433070866
        },
        {
          "duration": 0.1875,
          "durationTicks": 128,
          "midi": 55,
          "name": "G3",
          "ticks": 181504,
          "time": 265.875,
          "velocity": 0.7716535433070866
        },
        {
          "duration": 0.1875,
          "durationTicks": 128,
          "midi": 55,
          "name": "G3",
          "ticks": 181632,
          "time": 266.0625,
          "velocity": 0.7874015748031497
        },
        {
          "duration": 0.1875,
          "durationTicks": 128,
          "midi": 51,
          "name": "D#3",
          "ticks": 181760,
          "time": 266.25,
          "velocity": 0.7559055118110236
        },
        {
          "duration": 0.1875,
          "durationTicks": 128,
          "midi": 51,
          "name": "D#3",
          "ticks": 181888,
          "time": 266.4375,
          "velocity": 0.7322834645669292
        },
        {
          "duration": 0.1875,
          "durationTicks": 128,
          "midi": 51,
          "name": "D#3",
          "ticks": 182016,
          "time": 266.625,
          "velocity": 0.7637795275590551
        },
        {
          "duration": 0.1875,
          "durationTicks": 128,
          "midi": 51,
          "name": "D#3",
          "ticks": 182144,
          "time": 266.8125,
          "velocity": 0.7637795275590551
        },
        {
          "duration": 0.1875,
          "durationTicks": 128,
          "midi": 53,
          "name": "F3",
          "ticks": 182272,
          "time": 267,
          "velocity": 0.7952755905511811
        },
        {
          "duration": 0.1875,
          "durationTicks": 128,
          "midi": 53,
          "name": "F3",
          "ticks": 182400,
          "time": 267.1875,
          "velocity": 0.7480314960629921
        },
        {
          "duration": 0.1875,
          "durationTicks": 128,
          "midi": 53,
          "name": "F3",
          "ticks": 182528,
          "time": 267.375,
          "velocity": 0.7716535433070866
        },
        {
          "duration": 0.1875,
          "durationTicks": 128,
          "midi": 53,
          "name": "F3",
          "ticks": 182656,
          "time": 267.5625,
          "velocity": 0.7716535433070866
        },
        {
          "duration": 0.1875,
          "durationTicks": 128,
          "midi": 41,
          "name": "F2",
          "ticks": 182784,
          "time": 267.75,
          "velocity": 0.7007874015748031
        },
        {
          "duration": 0.1875,
          "durationTicks": 128,
          "midi": 41,
          "name": "F2",
          "ticks": 182912,
          "time": 267.9375,
          "velocity": 0.7716535433070866
        },
        {
          "duration": 0.1875,
          "durationTicks": 128,
          "midi": 41,
          "name": "F2",
          "ticks": 183040,
          "time": 268.125,
          "velocity": 0.7637795275590551
        },
        {
          "duration": 0.1875,
          "durationTicks": 128,
          "midi": 41,
          "name": "F2",
          "ticks": 183168,
          "time": 268.3125,
          "velocity": 0.7637795275590551
        },
        {
          "duration": 0.375,
          "durationTicks": 256,
          "midi": 46,
          "name": "A#2",
          "ticks": 183296,
          "time": 268.5,
          "velocity": 0.84251968503937
        },
        {
          "duration": 0.1904296875,
          "durationTicks": 130,
          "midi": 67,
          "name": "G4",
          "ticks": 184064,
          "time": 269.625,
          "velocity": 0.4015748031496063
        },
        {
          "duration": 0.17724609375,
          "durationTicks": 121,
          "midi": 65,
          "name": "F4",
          "ticks": 184192,
          "time": 269.8125,
          "velocity": 0.36220472440944884
        },
        {
          "duration": 0.1875,
          "durationTicks": 128,
          "midi": 65,
          "name": "F4",
          "ticks": 184320,
          "time": 270,
          "velocity": 0.4409448818897638
        },
        {
          "duration": 0.1904296875,
          "durationTicks": 130,
          "midi": 67,
          "name": "G4",
          "ticks": 184576,
          "time": 270.375,
          "velocity": 0.49606299212598426
        },
        {
          "duration": 0.17724609375,
          "durationTicks": 121,
          "midi": 65,
          "name": "F4",
          "ticks": 184704,
          "time": 270.5625,
          "velocity": 0.4645669291338583
        },
        {
          "duration": 0.1875,
          "durationTicks": 128,
          "midi": 65,
          "name": "F4",
          "ticks": 184832,
          "time": 270.75,
          "velocity": 0.47244094488188976
        },
        {
          "duration": 0.1904296875,
          "durationTicks": 130,
          "midi": 67,
          "name": "G4",
          "ticks": 186112,
          "time": 272.625,
          "velocity": 0.41732283464566927
        },
        {
          "duration": 0.17724609375,
          "durationTicks": 121,
          "midi": 65,
          "name": "F4",
          "ticks": 186240,
          "time": 272.8125,
          "velocity": 0.3858267716535433
        },
        {
          "duration": 0.1875,
          "durationTicks": 128,
          "midi": 65,
          "name": "F4",
          "ticks": 186368,
          "time": 273,
          "velocity": 0.4645669291338583
        },
        {
          "duration": 0.1904296875,
          "durationTicks": 130,
          "midi": 67,
          "name": "G4",
          "ticks": 186624,
          "time": 273.375,
          "velocity": 0.5196850393700787
        },
        {
          "duration": 0.17724609375,
          "durationTicks": 121,
          "midi": 65,
          "name": "F4",
          "ticks": 186752,
          "time": 273.5625,
          "velocity": 0.4881889763779528
        },
        {
          "duration": 0.1875,
          "durationTicks": 128,
          "midi": 65,
          "name": "F4",
          "ticks": 186880,
          "time": 273.75,
          "velocity": 0.44881889763779526
        },
        {
          "duration": 0.1875,
          "durationTicks": 128,
          "midi": 50,
          "name": "D3",
          "ticks": 188416,
          "time": 276,
          "velocity": 0.7244094488188977
        },
        {
          "duration": 0.1875,
          "durationTicks": 128,
          "midi": 50,
          "name": "D3",
          "ticks": 188544,
          "time": 276.1875,
          "velocity": 0.7165354330708661
        },
        {
          "duration": 0.1875,
          "durationTicks": 128,
          "midi": 50,
          "name": "D3",
          "ticks": 188672,
          "time": 276.375,
          "velocity": 0.7244094488188977
        },
        {
          "duration": 0.1875,
          "durationTicks": 128,
          "midi": 50,
          "name": "D3",
          "ticks": 188800,
          "time": 276.5625,
          "velocity": 0.7559055118110236
        },
        {
          "duration": 0.1875,
          "durationTicks": 128,
          "midi": 50,
          "name": "D3",
          "ticks": 188928,
          "time": 276.75,
          "velocity": 0.7716535433070866
        },
        {
          "duration": 0.1875,
          "durationTicks": 128,
          "midi": 50,
          "name": "D3",
          "ticks": 189056,
          "time": 276.9375,
          "velocity": 0.7795275590551181
        },
        {
          "duration": 0.1875,
          "durationTicks": 128,
          "midi": 50,
          "name": "D3",
          "ticks": 189184,
          "time": 277.125,
          "velocity": 0.7952755905511811
        },
        {
          "duration": 0.1875,
          "durationTicks": 128,
          "midi": 50,
          "name": "D3",
          "ticks": 189312,
          "time": 277.3125,
          "velocity": 0.8188976377952756
        },
        {
          "duration": 0.1875,
          "durationTicks": 128,
          "midi": 55,
          "name": "G3",
          "ticks": 189440,
          "time": 277.5,
          "velocity": 0.7874015748031497
        },
        {
          "duration": 0.1875,
          "durationTicks": 128,
          "midi": 55,
          "name": "G3",
          "ticks": 189568,
          "time": 277.6875,
          "velocity": 0.7716535433070866
        },
        {
          "duration": 0.1875,
          "durationTicks": 128,
          "midi": 55,
          "name": "G3",
          "ticks": 189696,
          "time": 277.875,
          "velocity": 0.7637795275590551
        },
        {
          "duration": 0.1875,
          "durationTicks": 128,
          "midi": 55,
          "name": "G3",
          "ticks": 189824,
          "time": 278.0625,
          "velocity": 0.7716535433070866
        },
        {
          "duration": 0.1875,
          "durationTicks": 128,
          "midi": 51,
          "name": "D#3",
          "ticks": 189952,
          "time": 278.25,
          "velocity": 0.7007874015748031
        },
        {
          "duration": 0.1875,
          "durationTicks": 128,
          "midi": 51,
          "name": "D#3",
          "ticks": 190080,
          "time": 278.4375,
          "velocity": 0.7480314960629921
        },
        {
          "duration": 0.1875,
          "durationTicks": 128,
          "midi": 51,
          "name": "D#3",
          "ticks": 190208,
          "time": 278.625,
          "velocity": 0.7795275590551181
        },
        {
          "duration": 0.1875,
          "durationTicks": 128,
          "midi": 51,
          "name": "D#3",
          "ticks": 190336,
          "time": 278.8125,
          "velocity": 0.7637795275590551
        },
        {
          "duration": 0.1875,
          "durationTicks": 128,
          "midi": 53,
          "name": "F3",
          "ticks": 190464,
          "time": 279,
          "velocity": 0.7874015748031497
        },
        {
          "duration": 0.1875,
          "durationTicks": 128,
          "midi": 53,
          "name": "F3",
          "ticks": 190592,
          "time": 279.1875,
          "velocity": 0.8031496062992126
        },
        {
          "duration": 0.1875,
          "durationTicks": 128,
          "midi": 53,
          "name": "F3",
          "ticks": 190720,
          "time": 279.375,
          "velocity": 0.7637795275590551
        },
        {
          "duration": 0.1875,
          "durationTicks": 128,
          "midi": 53,
          "name": "F3",
          "ticks": 190848,
          "time": 279.5625,
          "velocity": 0.7401574803149606
        },
        {
          "duration": 0.1875,
          "durationTicks": 128,
          "midi": 41,
          "name": "F2",
          "ticks": 190976,
          "time": 279.75,
          "velocity": 0.7165354330708661
        },
        {
          "duration": 0.1875,
          "durationTicks": 128,
          "midi": 41,
          "name": "F2",
          "ticks": 191104,
          "time": 279.9375,
          "velocity": 0.7244094488188977
        },
        {
          "duration": 0.1875,
          "durationTicks": 128,
          "midi": 41,
          "name": "F2",
          "ticks": 191232,
          "time": 280.125,
          "velocity": 0.7874015748031497
        },
        {
          "duration": 0.1875,
          "durationTicks": 128,
          "midi": 41,
          "name": "F2",
          "ticks": 191360,
          "time": 280.3125,
          "velocity": 0.7795275590551181
        },
        {
          "duration": 0.75,
          "durationTicks": 512,
          "midi": 46,
          "name": "A#2",
          "ticks": 191488,
          "time": 280.5,
          "velocity": 0.8267716535433071
        },
        {
          "duration": 0.1875,
          "durationTicks": 128,
          "midi": 65,
          "name": "F4",
          "ticks": 192384,
          "time": 281.8125,
          "velocity": 0.7322834645669292
        },
        {
          "duration": 0.1875,
          "durationTicks": 128,
          "midi": 63,
          "name": "D#4",
          "ticks": 192512,
          "time": 282,
          "velocity": 0.7244094488188977
        },
        {
          "duration": 0.1875,
          "durationTicks": 128,
          "midi": 62,
          "name": "D4",
          "ticks": 192640,
          "time": 282.1875,
          "velocity": 0.7007874015748031
        },
        {
          "duration": 0.1875,
          "durationTicks": 128,
          "midi": 60,
          "name": "C4",
          "ticks": 192768,
          "time": 282.375,
          "velocity": 0.7244094488188977
        },
        {
          "duration": 0.1875,
          "durationTicks": 128,
          "midi": 58,
          "name": "A#3",
          "ticks": 192896,
          "time": 282.5625,
          "velocity": 0.7716535433070866
        },
        {
          "duration": 0.1875,
          "durationTicks": 128,
          "midi": 57,
          "name": "A3",
          "ticks": 193024,
          "time": 282.75,
          "velocity": 0.7165354330708661
        },
        {
          "duration": 0.1875,
          "durationTicks": 128,
          "midi": 55,
          "name": "G3",
          "ticks": 193152,
          "time": 282.9375,
          "velocity": 0.7086614173228346
        },
        {
          "duration": 0.1875,
          "durationTicks": 128,
          "midi": 53,
          "name": "F3",
          "ticks": 193280,
          "time": 283.125,
          "velocity": 0.7559055118110236
        },
        {
          "duration": 0.1875,
          "durationTicks": 128,
          "midi": 51,
          "name": "D#3",
          "ticks": 193408,
          "time": 283.3125,
          "velocity": 0.7795275590551181
        },
        {
          "duration": 0.375,
          "durationTicks": 256,
          "midi": 50,
          "name": "D3",
          "ticks": 193536,
          "time": 283.5,
          "velocity": 0.7401574803149606
        },
        {
          "duration": 0.375,
          "durationTicks": 256,
          "midi": 50,
          "name": "D3",
          "ticks": 193792,
          "time": 283.875,
          "velocity": 0.7480314960629921
        },
        {
          "duration": 0.375,
          "durationTicks": 256,
          "midi": 51,
          "name": "D#3",
          "ticks": 194048,
          "time": 284.25,
          "velocity": 0.8031496062992126
        },
        {
          "duration": 0.375,
          "durationTicks": 256,
          "midi": 53,
          "name": "F3",
          "ticks": 194304,
          "time": 284.625,
          "velocity": 0.7795275590551181
        },
        {
          "duration": 0.1875,
          "durationTicks": 128,
          "midi": 58,
          "name": "A#3",
          "ticks": 194560,
          "time": 285,
          "velocity": 0.8110236220472441
        },
        {
          "duration": 0.1875,
          "durationTicks": 128,
          "midi": 53,
          "name": "F3",
          "ticks": 194688,
          "time": 285.1875,
          "velocity": 0.7480314960629921
        },
        {
          "duration": 0.1875,
          "durationTicks": 128,
          "midi": 62,
          "name": "D4",
          "ticks": 194816,
          "time": 285.375,
          "velocity": 0.9212598425196851
        },
        {
          "duration": 0.1875,
          "durationTicks": 128,
          "midi": 60,
          "name": "C4",
          "ticks": 194944,
          "time": 285.5625,
          "velocity": 0.7322834645669292
        },
        {
          "duration": 0.1875,
          "durationTicks": 128,
          "midi": 58,
          "name": "A#3",
          "ticks": 195072,
          "time": 285.75,
          "velocity": 0.7086614173228346
        },
        {
          "duration": 0.1875,
          "durationTicks": 128,
          "midi": 57,
          "name": "A3",
          "ticks": 195200,
          "time": 285.9375,
          "velocity": 0.7637795275590551
        },
        {
          "duration": 0.1875,
          "durationTicks": 128,
          "midi": 55,
          "name": "G3",
          "ticks": 195328,
          "time": 286.125,
          "velocity": 0.7322834645669292
        },
        {
          "duration": 0.1875,
          "durationTicks": 128,
          "midi": 53,
          "name": "F3",
          "ticks": 195456,
          "time": 286.3125,
          "velocity": 0.7716535433070866
        },
        {
          "duration": 0.1875,
          "durationTicks": 128,
          "midi": 51,
          "name": "D#3",
          "ticks": 195584,
          "time": 286.5,
          "velocity": 0.7244094488188977
        },
        {
          "duration": 0.1875,
          "durationTicks": 128,
          "midi": 50,
          "name": "D3",
          "ticks": 195712,
          "time": 286.6875,
          "velocity": 0.7322834645669292
        },
        {
          "duration": 0.1875,
          "durationTicks": 128,
          "midi": 48,
          "name": "C3",
          "ticks": 195840,
          "time": 286.875,
          "velocity": 0.7637795275590551
        },
        {
          "duration": 0.1875,
          "durationTicks": 128,
          "midi": 46,
          "name": "A#2",
          "ticks": 195968,
          "time": 287.0625,
          "velocity": 0.7401574803149606
        },
        {
          "duration": 0.1875,
          "durationTicks": 128,
          "midi": 45,
          "name": "A2",
          "ticks": 196096,
          "time": 287.25,
          "velocity": 0.7952755905511811
        },
        {
          "duration": 0.1875,
          "durationTicks": 128,
          "midi": 48,
          "name": "C3",
          "ticks": 196224,
          "time": 287.4375,
          "velocity": 0.7952755905511811
        },
        {
          "duration": 0.1875,
          "durationTicks": 128,
          "midi": 53,
          "name": "F3",
          "ticks": 196352,
          "time": 287.625,
          "velocity": 0.8188976377952756
        },
        {
          "duration": 0.1875,
          "durationTicks": 128,
          "midi": 51,
          "name": "D#3",
          "ticks": 196480,
          "time": 287.8125,
          "velocity": 0.7480314960629921
        },
        {
          "duration": 0.375,
          "durationTicks": 256,
          "midi": 50,
          "name": "D3",
          "ticks": 196608,
          "time": 288,
          "velocity": 0.7086614173228346
        },
        {
          "duration": 0.375,
          "durationTicks": 256,
          "midi": 50,
          "name": "D3",
          "ticks": 196864,
          "time": 288.375,
          "velocity": 0.7874015748031497
        },
        {
          "duration": 0.375,
          "durationTicks": 256,
          "midi": 51,
          "name": "D#3",
          "ticks": 197120,
          "time": 288.75,
          "velocity": 0.7952755905511811
        },
        {
          "duration": 0.375,
          "durationTicks": 256,
          "midi": 53,
          "name": "F3",
          "ticks": 197376,
          "time": 289.125,
          "velocity": 0.8267716535433071
        },
        {
          "duration": 0.375,
          "durationTicks": 256,
          "midi": 55,
          "name": "G3",
          "ticks": 197632,
          "time": 289.5,
          "velocity": 0.7637795275590551
        },
        {
          "duration": 0.375,
          "durationTicks": 256,
          "midi": 51,
          "name": "D#3",
          "ticks": 197888,
          "time": 289.875,
          "velocity": 0.7401574803149606
        },
        {
          "duration": 0.375,
          "durationTicks": 256,
          "midi": 53,
          "name": "F3",
          "ticks": 198144,
          "time": 290.25,
          "velocity": 0.7795275590551181
        },
        {
          "duration": 0.375,
          "durationTicks": 256,
          "midi": 41,
          "name": "F2",
          "ticks": 198400,
          "time": 290.625,
          "velocity": 0.6771653543307087
        },
        {
          "duration": 0.375,
          "durationTicks": 256,
          "midi": 46,
          "name": "A#2",
          "ticks": 198656,
          "time": 291,
          "velocity": 0.7874015748031497
        },
        {
          "duration": 0.1875,
          "durationTicks": 128,
          "midi": 58,
          "name": "A#3",
          "ticks": 198912,
          "time": 291.375,
          "velocity": 0.9606299212598425
        },
        {
          "duration": 0.1875,
          "durationTicks": 128,
          "midi": 62,
          "name": "D4",
          "ticks": 198912,
          "time": 291.375,
          "velocity": 0.9606299212598425
        },
        {
          "duration": 0.1875,
          "durationTicks": 128,
          "midi": 58,
          "name": "A#3",
          "ticks": 199040,
          "time": 291.5625,
          "velocity": 0.7716535433070866
        },
        {
          "duration": 0.1875,
          "durationTicks": 128,
          "midi": 62,
          "name": "D4",
          "ticks": 199040,
          "time": 291.5625,
          "velocity": 0.7716535433070866
        },
        {
          "duration": 0.375,
          "durationTicks": 256,
          "midi": 60,
          "name": "C4",
          "ticks": 199168,
          "time": 291.75,
          "velocity": 0.8346456692913385
        },
        {
          "duration": 0.375,
          "durationTicks": 256,
          "midi": 63,
          "name": "D#4",
          "ticks": 199168,
          "time": 291.75,
          "velocity": 0.8346456692913385
        },
        {
          "duration": 0.1875,
          "durationTicks": 128,
          "midi": 60,
          "name": "C4",
          "ticks": 199424,
          "time": 292.125,
          "velocity": 0.7795275590551181
        },
        {
          "duration": 0.1875,
          "durationTicks": 128,
          "midi": 63,
          "name": "D#4",
          "ticks": 199424,
          "time": 292.125,
          "velocity": 0.7795275590551181
        },
        {
          "duration": 0.1875,
          "durationTicks": 128,
          "midi": 60,
          "name": "C4",
          "ticks": 199552,
          "time": 292.3125,
          "velocity": 0.7716535433070866
        },
        {
          "duration": 0.1875,
          "durationTicks": 128,
          "midi": 63,
          "name": "D#4",
          "ticks": 199552,
          "time": 292.3125,
          "velocity": 0.7716535433070866
        },
        {
          "duration": 0.375,
          "durationTicks": 256,
          "midi": 58,
          "name": "A#3",
          "ticks": 199680,
          "time": 292.5,
          "velocity": 0.7401574803149606
        },
        {
          "duration": 0.375,
          "durationTicks": 256,
          "midi": 62,
          "name": "D4",
          "ticks": 199680,
          "time": 292.5,
          "velocity": 0.7401574803149606
        },
        {
          "duration": 0.1875,
          "durationTicks": 128,
          "midi": 58,
          "name": "A#3",
          "ticks": 199936,
          "time": 292.875,
          "velocity": 0.7795275590551181
        },
        {
          "duration": 0.1875,
          "durationTicks": 128,
          "midi": 62,
          "name": "D4",
          "ticks": 199936,
          "time": 292.875,
          "velocity": 0.7795275590551181
        },
        {
          "duration": 0.1875,
          "durationTicks": 128,
          "midi": 58,
          "name": "A#3",
          "ticks": 200064,
          "time": 293.0625,
          "velocity": 0.7480314960629921
        },
        {
          "duration": 0.1875,
          "durationTicks": 128,
          "midi": 62,
          "name": "D4",
          "ticks": 200064,
          "time": 293.0625,
          "velocity": 0.7480314960629921
        },
        {
          "duration": 0.375,
          "durationTicks": 256,
          "midi": 60,
          "name": "C4",
          "ticks": 200192,
          "time": 293.25,
          "velocity": 0.8110236220472441
        },
        {
          "duration": 0.375,
          "durationTicks": 256,
          "midi": 63,
          "name": "D#4",
          "ticks": 200192,
          "time": 293.25,
          "velocity": 0.8110236220472441
        },
        {
          "duration": 0.1875,
          "durationTicks": 128,
          "midi": 60,
          "name": "C4",
          "ticks": 200448,
          "time": 293.625,
          "velocity": 0.7716535433070866
        },
        {
          "duration": 0.1875,
          "durationTicks": 128,
          "midi": 63,
          "name": "D#4",
          "ticks": 200448,
          "time": 293.625,
          "velocity": 0.7716535433070866
        },
        {
          "duration": 0.1875,
          "durationTicks": 128,
          "midi": 60,
          "name": "C4",
          "ticks": 200576,
          "time": 293.8125,
          "velocity": 0.7716535433070866
        },
        {
          "duration": 0.1875,
          "durationTicks": 128,
          "midi": 63,
          "name": "D#4",
          "ticks": 200576,
          "time": 293.8125,
          "velocity": 0.7716535433070866
        },
        {
          "duration": 0.375,
          "durationTicks": 256,
          "midi": 58,
          "name": "A#3",
          "ticks": 200704,
          "time": 294,
          "velocity": 0.7007874015748031
        },
        {
          "duration": 0.375,
          "durationTicks": 256,
          "midi": 62,
          "name": "D4",
          "ticks": 200704,
          "time": 294,
          "velocity": 0.7007874015748031
        },
        {
          "duration": 0.1875,
          "durationTicks": 128,
          "midi": 58,
          "name": "A#3",
          "ticks": 200960,
          "time": 294.375,
          "velocity": 0.7401574803149606
        },
        {
          "duration": 0.1875,
          "durationTicks": 128,
          "midi": 62,
          "name": "D4",
          "ticks": 200960,
          "time": 294.375,
          "velocity": 0.7401574803149606
        },
        {
          "duration": 0.1875,
          "durationTicks": 128,
          "midi": 58,
          "name": "A#3",
          "ticks": 201088,
          "time": 294.5625,
          "velocity": 0.7637795275590551
        },
        {
          "duration": 0.1875,
          "durationTicks": 128,
          "midi": 62,
          "name": "D4",
          "ticks": 201088,
          "time": 294.5625,
          "velocity": 0.7637795275590551
        },
        {
          "duration": 0.375,
          "durationTicks": 256,
          "midi": 60,
          "name": "C4",
          "ticks": 201216,
          "time": 294.75,
          "velocity": 0.8188976377952756
        },
        {
          "duration": 0.375,
          "durationTicks": 256,
          "midi": 63,
          "name": "D#4",
          "ticks": 201216,
          "time": 294.75,
          "velocity": 0.8188976377952756
        },
        {
          "duration": 0.1875,
          "durationTicks": 128,
          "midi": 60,
          "name": "C4",
          "ticks": 201472,
          "time": 295.125,
          "velocity": 0.8031496062992126
        },
        {
          "duration": 0.1875,
          "durationTicks": 128,
          "midi": 63,
          "name": "D#4",
          "ticks": 201472,
          "time": 295.125,
          "velocity": 0.8031496062992126
        },
        {
          "duration": 0.1875,
          "durationTicks": 128,
          "midi": 60,
          "name": "C4",
          "ticks": 201600,
          "time": 295.3125,
          "velocity": 0.7637795275590551
        },
        {
          "duration": 0.1875,
          "durationTicks": 128,
          "midi": 63,
          "name": "D#4",
          "ticks": 201600,
          "time": 295.3125,
          "velocity": 0.7637795275590551
        },
        {
          "duration": 0.375,
          "durationTicks": 256,
          "midi": 58,
          "name": "A#3",
          "ticks": 201728,
          "time": 295.5,
          "velocity": 0.7244094488188977
        },
        {
          "duration": 0.375,
          "durationTicks": 256,
          "midi": 62,
          "name": "D4",
          "ticks": 201728,
          "time": 295.5,
          "velocity": 0.7244094488188977
        },
        {
          "duration": 0.375,
          "durationTicks": 256,
          "midi": 60,
          "name": "C4",
          "ticks": 201984,
          "time": 295.875,
          "velocity": 0.7952755905511811
        },
        {
          "duration": 0.375,
          "durationTicks": 256,
          "midi": 63,
          "name": "D#4",
          "ticks": 201984,
          "time": 295.875,
          "velocity": 0.7952755905511811
        },
        {
          "duration": 0.375,
          "durationTicks": 256,
          "midi": 58,
          "name": "A#3",
          "ticks": 202240,
          "time": 296.25,
          "velocity": 0.7244094488188977
        },
        {
          "duration": 0.375,
          "durationTicks": 256,
          "midi": 62,
          "name": "D4",
          "ticks": 202240,
          "time": 296.25,
          "velocity": 0.7244094488188977
        },
        {
          "duration": 0.375,
          "durationTicks": 256,
          "midi": 60,
          "name": "C4",
          "ticks": 202496,
          "time": 296.625,
          "velocity": 0.7874015748031497
        },
        {
          "duration": 0.375,
          "durationTicks": 256,
          "midi": 63,
          "name": "D#4",
          "ticks": 202496,
          "time": 296.625,
          "velocity": 0.7874015748031497
        },
        {
          "duration": 0.375,
          "durationTicks": 256,
          "midi": 58,
          "name": "A#3",
          "ticks": 202752,
          "time": 297,
          "velocity": 0.7559055118110236
        },
        {
          "duration": 0.375,
          "durationTicks": 256,
          "midi": 62,
          "name": "D4",
          "ticks": 202752,
          "time": 297,
          "velocity": 0.7559055118110236
        },
        {
          "duration": 0.375,
          "durationTicks": 256,
          "midi": 57,
          "name": "A3",
          "ticks": 203776,
          "time": 298.5,
          "velocity": 0.6850393700787402
        },
        {
          "duration": 0.375,
          "durationTicks": 256,
          "midi": 55,
          "name": "G3",
          "ticks": 204800,
          "time": 300,
          "velocity": 0.6692913385826772
        },
        {
          "duration": 0.375,
          "durationTicks": 256,
          "midi": 53,
          "name": "F3",
          "ticks": 205312,
          "time": 300.75,
          "velocity": 0.6535433070866141
        },
        {
          "duration": 1.529296875,
          "durationTicks": 1044,
          "midi": 59,
          "name": "B3",
          "ticks": 205824,
          "time": 301.5,
          "velocity": 0.4330708661417323
        },
        {
          "duration": 1.529296875,
          "durationTicks": 1044,
          "midi": 62,
          "name": "D4",
          "ticks": 205824,
          "time": 301.5,
          "velocity": 0.4330708661417323
        },
        {
          "duration": 0.7646484375,
          "durationTicks": 522,
          "midi": 57,
          "name": "A3",
          "ticks": 206848,
          "time": 303,
          "velocity": 0.3858267716535433
        },
        {
          "duration": 0.7646484375,
          "durationTicks": 522,
          "midi": 61,
          "name": "C#4",
          "ticks": 206848,
          "time": 303,
          "velocity": 0.3858267716535433
        },
        {
          "duration": 0.7646484375,
          "durationTicks": 522,
          "midi": 56,
          "name": "G#3",
          "ticks": 207360,
          "time": 303.75,
          "velocity": 0.4881889763779528
        },
        {
          "duration": 0.7646484375,
          "durationTicks": 522,
          "midi": 59,
          "name": "B3",
          "ticks": 207360,
          "time": 303.75,
          "velocity": 0.4881889763779528
        },
        {
          "duration": 0.7646484375,
          "durationTicks": 522,
          "midi": 54,
          "name": "F#3",
          "ticks": 207872,
          "time": 304.5,
          "velocity": 0.44881889763779526
        },
        {
          "duration": 0.7646484375,
          "durationTicks": 522,
          "midi": 57,
          "name": "A3",
          "ticks": 207872,
          "time": 304.5,
          "velocity": 0.44881889763779526
        },
        {
          "duration": 0.7119140625,
          "durationTicks": 486,
          "midi": 53,
          "name": "F3",
          "ticks": 208384,
          "time": 305.25,
          "velocity": 0.48031496062992124
        },
        {
          "duration": 0.7119140625,
          "durationTicks": 486,
          "midi": 56,
          "name": "G#3",
          "ticks": 208384,
          "time": 305.25,
          "velocity": 0.48031496062992124
        },
        {
          "duration": 0.375,
          "durationTicks": 256,
          "midi": 54,
          "name": "F#3",
          "ticks": 208896,
          "time": 306,
          "velocity": 0.49606299212598426
        },
        {
          "duration": 3,
          "durationTicks": 2048,
          "midi": 54,
          "name": "F#3",
          "ticks": 210944,
          "time": 309,
          "velocity": 0.4094488188976378
        },
        {
          "duration": 1.5,
          "durationTicks": 1024,
          "midi": 63,
          "name": "D#4",
          "ticks": 210944,
          "time": 309,
          "velocity": 0.4094488188976378
        },
        {
          "duration": 1.5,
          "durationTicks": 1024,
          "midi": 62,
          "name": "D4",
          "ticks": 211968,
          "time": 310.5,
          "velocity": 0.3858267716535433
        },
        {
          "duration": 3,
          "durationTicks": 2048,
          "midi": 53,
          "name": "F3",
          "ticks": 212992,
          "time": 312,
          "velocity": 0.4409448818897638
        },
        {
          "duration": 4.5,
          "durationTicks": 3072,
          "midi": 61,
          "name": "C#4",
          "ticks": 212992,
          "time": 312,
          "velocity": 0.4409448818897638
        },
        {
          "duration": 3,
          "durationTicks": 2048,
          "midi": 52,
          "name": "E3",
          "ticks": 215040,
          "time": 315,
          "velocity": 0.4409448818897638
        },
        {
          "duration": 1.5,
          "durationTicks": 1024,
          "midi": 60,
          "name": "C4",
          "ticks": 216064,
          "time": 316.5,
          "velocity": 0.4566929133858268
        },
        {
          "duration": 2.625,
          "durationTicks": 1792,
          "midi": 51,
          "name": "D#3",
          "ticks": 217088,
          "time": 318,
          "velocity": 0.49606299212598426
        },
        {
          "duration": 1.5,
          "durationTicks": 1024,
          "midi": 59,
          "name": "B3",
          "ticks": 217088,
          "time": 318,
          "velocity": 0.49606299212598426
        },
        {
          "duration": 1.125,
          "durationTicks": 768,
          "midi": 59,
          "name": "B3",
          "ticks": 218112,
          "time": 319.5,
          "velocity": 0.5118110236220472
        },
        {
          "duration": 0.1904296875,
          "durationTicks": 130,
          "midi": 60,
          "name": "C4",
          "ticks": 218880,
          "time": 320.625,
          "velocity": 0.7952755905511811
        },
        {
          "duration": 0.17724609375,
          "durationTicks": 121,
          "midi": 59,
          "name": "B3",
          "ticks": 219008,
          "time": 320.8125,
          "velocity": 0.7716535433070866
        },
        {
          "duration": 0.375,
          "durationTicks": 256,
          "midi": 59,
          "name": "B3",
          "ticks": 219136,
          "time": 321,
          "velocity": 0.7637795275590551
        },
        {
          "duration": 0.1904296875,
          "durationTicks": 130,
          "midi": 60,
          "name": "C4",
          "ticks": 219392,
          "time": 321.375,
          "velocity": 0.7952755905511811
        },
        {
          "duration": 0.17724609375,
          "durationTicks": 121,
          "midi": 59,
          "name": "B3",
          "ticks": 219520,
          "time": 321.5625,
          "velocity": 0.7874015748031497
        },
        {
          "duration": 0.375,
          "durationTicks": 256,
          "midi": 59,
          "name": "B3",
          "ticks": 219648,
          "time": 321.75,
          "velocity": 0.7716535433070866
        },
        {
          "duration": 0.1904296875,
          "durationTicks": 130,
          "midi": 60,
          "name": "C4",
          "ticks": 219904,
          "time": 322.125,
          "velocity": 0.8110236220472441
        },
        {
          "duration": 0.17724609375,
          "durationTicks": 121,
          "midi": 59,
          "name": "B3",
          "ticks": 220032,
          "time": 322.3125,
          "velocity": 0.7874015748031497
        },
        {
          "duration": 0.38232421875,
          "durationTicks": 261,
          "midi": 59,
          "name": "B3",
          "ticks": 220160,
          "time": 322.5,
          "velocity": 0.7637795275590551
        },
        {
          "duration": 0.35595703125,
          "durationTicks": 243,
          "midi": 67,
          "name": "G4",
          "ticks": 220416,
          "time": 322.875,
          "velocity": 0.889763779527559
        },
        {
          "duration": 0.1904296875,
          "durationTicks": 130,
          "midi": 67,
          "name": "G4",
          "ticks": 220928,
          "time": 323.625,
          "velocity": 0.6929133858267716
        },
        {
          "duration": 0.17724609375,
          "durationTicks": 121,
          "midi": 66,
          "name": "F#4",
          "ticks": 221056,
          "time": 323.8125,
          "velocity": 0.6456692913385826
        },
        {
          "duration": 0.375,
          "durationTicks": 256,
          "midi": 64,
          "name": "E4",
          "ticks": 221184,
          "time": 324,
          "velocity": 0.7165354330708661
        },
        {
          "duration": 0.1904296875,
          "durationTicks": 130,
          "midi": 64,
          "name": "E4",
          "ticks": 221440,
          "time": 324.375,
          "velocity": 0.7874015748031497
        },
        {
          "duration": 0.17724609375,
          "durationTicks": 121,
          "midi": 62,
          "name": "D4",
          "ticks": 221568,
          "time": 324.5625,
          "velocity": 0.7322834645669292
        },
        {
          "duration": 0.375,
          "durationTicks": 256,
          "midi": 60,
          "name": "C4",
          "ticks": 221696,
          "time": 324.75,
          "velocity": 0.6850393700787402
        },
        {
          "duration": 0.1904296875,
          "durationTicks": 130,
          "midi": 60,
          "name": "C4",
          "ticks": 221952,
          "time": 325.125,
          "velocity": 0.7637795275590551
        },
        {
          "duration": 0.17724609375,
          "durationTicks": 121,
          "midi": 59,
          "name": "B3",
          "ticks": 222080,
          "time": 325.3125,
          "velocity": 0.7322834645669292
        },
        {
          "duration": 0.09375,
          "durationTicks": 64,
          "midi": 57,
          "name": "A3",
          "ticks": 222208,
          "time": 325.5,
          "velocity": 0.7480314960629921
        },
        {
          "duration": 0.09375,
          "durationTicks": 64,
          "midi": 59,
          "name": "B3",
          "ticks": 222336,
          "time": 325.6875,
          "velocity": 0.7874015748031497
        },
        {
          "duration": 0.09375,
          "durationTicks": 64,
          "midi": 60,
          "name": "C4",
          "ticks": 222464,
          "time": 325.875,
          "velocity": 0.8267716535433071
        },
        {
          "duration": 0.09375,
          "durationTicks": 64,
          "midi": 59,
          "name": "B3",
          "ticks": 222592,
          "time": 326.0625,
          "velocity": 0.7795275590551181
        },
        {
          "duration": 0.09375,
          "durationTicks": 64,
          "midi": 57,
          "name": "A3",
          "ticks": 222720,
          "time": 326.25,
          "velocity": 0.7559055118110236
        },
        {
          "duration": 0.09375,
          "durationTicks": 64,
          "midi": 58,
          "name": "A#3",
          "ticks": 222848,
          "time": 326.4375,
          "velocity": 0.7480314960629921
        },
        {
          "duration": 0.09375,
          "durationTicks": 64,
          "midi": 55,
          "name": "G3",
          "ticks": 222976,
          "time": 326.625,
          "velocity": 0.7716535433070866
        },
        {
          "duration": 0.09375,
          "durationTicks": 64,
          "midi": 57,
          "name": "A3",
          "ticks": 223104,
          "time": 326.8125,
          "velocity": 0.7952755905511811
        },
        {
          "duration": 0.09375,
          "durationTicks": 64,
          "midi": 53,
          "name": "F3",
          "ticks": 223232,
          "time": 327,
          "velocity": 0.7086614173228346
        },
        {
          "duration": 0.09375,
          "durationTicks": 64,
          "midi": 57,
          "name": "A3",
          "ticks": 223360,
          "time": 327.1875,
          "velocity": 0.8031496062992126
        },
        {
          "duration": 0.09375,
          "durationTicks": 64,
          "midi": 62,
          "name": "D4",
          "ticks": 223488,
          "time": 327.375,
          "velocity": 0.8976377952755905
        },
        {
          "duration": 0.09375,
          "durationTicks": 64,
          "midi": 53,
          "name": "F3",
          "ticks": 223616,
          "time": 327.5625,
          "velocity": 0.7322834645669292
        },
        {
          "duration": 0.09375,
          "durationTicks": 64,
          "midi": 52,
          "name": "E3",
          "ticks": 223744,
          "time": 327.75,
          "velocity": 0.7165354330708661
        },
        {
          "duration": 0.09375,
          "durationTicks": 64,
          "midi": 55,
          "name": "G3",
          "ticks": 223872,
          "time": 327.9375,
          "velocity": 0.8110236220472441
        },
        {
          "duration": 0.09375,
          "durationTicks": 64,
          "midi": 61,
          "name": "C#4",
          "ticks": 224000,
          "time": 328.125,
          "velocity": 0.8818897637795275
        },
        {
          "duration": 0.09375,
          "durationTicks": 64,
          "midi": 52,
          "name": "E3",
          "ticks": 224128,
          "time": 328.3125,
          "velocity": 0.7322834645669292
        },
        {
          "duration": 0.1875,
          "durationTicks": 128,
          "midi": 50,
          "name": "D3",
          "ticks": 224256,
          "time": 328.5,
          "velocity": 0.7716535433070866
        },
        {
          "duration": 0.1875,
          "durationTicks": 128,
          "midi": 45,
          "name": "A2",
          "ticks": 224384,
          "time": 328.6875,
          "velocity": 0.6929133858267716
        },
        {
          "duration": 0.1875,
          "durationTicks": 128,
          "midi": 47,
          "name": "B2",
          "ticks": 224512,
          "time": 328.875,
          "velocity": 0.8346456692913385
        },
        {
          "duration": 0.1875,
          "durationTicks": 128,
          "midi": 49,
          "name": "C#3",
          "ticks": 224640,
          "time": 329.0625,
          "velocity": 0.7952755905511811
        },
        {
          "duration": 0.1875,
          "durationTicks": 128,
          "midi": 50,
          "name": "D3",
          "ticks": 224768,
          "time": 329.25,
          "velocity": 0.7795275590551181
        },
        {
          "duration": 0.1875,
          "durationTicks": 128,
          "midi": 45,
          "name": "A2",
          "ticks": 224896,
          "time": 329.4375,
          "velocity": 0.7244094488188977
        },
        {
          "duration": 0.1875,
          "durationTicks": 128,
          "midi": 50,
          "name": "D3",
          "ticks": 225024,
          "time": 329.625,
          "velocity": 0.8110236220472441
        },
        {
          "duration": 0.1875,
          "durationTicks": 128,
          "midi": 52,
          "name": "E3",
          "ticks": 225152,
          "time": 329.8125,
          "velocity": 0.8110236220472441
        },
        {
          "duration": 0.1875,
          "durationTicks": 128,
          "midi": 53,
          "name": "F3",
          "ticks": 225280,
          "time": 330,
          "velocity": 0.8110236220472441
        },
        {
          "duration": 0.1875,
          "durationTicks": 128,
          "midi": 50,
          "name": "D3",
          "ticks": 225408,
          "time": 330.1875,
          "velocity": 0.7244094488188977
        },
        {
          "duration": 0.1875,
          "durationTicks": 128,
          "midi": 52,
          "name": "E3",
          "ticks": 225536,
          "time": 330.375,
          "velocity": 0.7637795275590551
        },
        {
          "duration": 0.1875,
          "durationTicks": 128,
          "midi": 54,
          "name": "F#3",
          "ticks": 225664,
          "time": 330.5625,
          "velocity": 0.7637795275590551
        },
        {
          "duration": 0.1875,
          "durationTicks": 128,
          "midi": 55,
          "name": "G3",
          "ticks": 225792,
          "time": 330.75,
          "velocity": 0.7795275590551181
        },
        {
          "duration": 0.1875,
          "durationTicks": 128,
          "midi": 50,
          "name": "D3",
          "ticks": 225920,
          "time": 330.9375,
          "velocity": 0.7322834645669292
        },
        {
          "duration": 0.1875,
          "durationTicks": 128,
          "midi": 55,
          "name": "G3",
          "ticks": 226048,
          "time": 331.125,
          "velocity": 0.8031496062992126
        },
        {
          "duration": 0.1875,
          "durationTicks": 128,
          "midi": 57,
          "name": "A3",
          "ticks": 226176,
          "time": 331.3125,
          "velocity": 0.8346456692913385
        },
        {
          "duration": 0.375,
          "durationTicks": 256,
          "midi": 58,
          "name": "A#3",
          "ticks": 226304,
          "time": 331.5,
          "velocity": 0.7795275590551181
        },
        {
          "duration": 0.375,
          "durationTicks": 256,
          "midi": 43,
          "name": "G2",
          "ticks": 226560,
          "time": 331.875,
          "velocity": 0.6614173228346457
        },
        {
          "duration": 0.1904296875,
          "durationTicks": 130,
          "midi": 57,
          "name": "A3",
          "ticks": 227072,
          "time": 332.625,
          "velocity": 0.7086614173228346
        },
        {
          "duration": 0.17724609375,
          "durationTicks": 121,
          "midi": 55,
          "name": "G3",
          "ticks": 227200,
          "time": 332.8125,
          "velocity": 0.6614173228346457
        },
        {
          "duration": 0.375,
          "durationTicks": 256,
          "midi": 55,
          "name": "G3",
          "ticks": 227328,
          "time": 333,
          "velocity": 0.7559055118110236
        },
        {
          "duration": 0.1904296875,
          "durationTicks": 130,
          "midi": 57,
          "name": "A3",
          "ticks": 227584,
          "time": 333.375,
          "velocity": 0.8031496062992126
        },
        {
          "duration": 0.17724609375,
          "durationTicks": 121,
          "midi": 55,
          "name": "G3",
          "ticks": 227712,
          "time": 333.5625,
          "velocity": 0.7716535433070866
        },
        {
          "duration": 0.375,
          "durationTicks": 256,
          "midi": 55,
          "name": "G3",
          "ticks": 227840,
          "time": 333.75,
          "velocity": 0.7952755905511811
        },
        {
          "duration": 0.1904296875,
          "durationTicks": 130,
          "midi": 57,
          "name": "A3",
          "ticks": 228096,
          "time": 334.125,
          "velocity": 0.7716535433070866
        },
        {
          "duration": 0.17724609375,
          "durationTicks": 121,
          "midi": 55,
          "name": "G3",
          "ticks": 228224,
          "time": 334.3125,
          "velocity": 0.7795275590551181
        },
        {
          "duration": 0.38232421875,
          "durationTicks": 261,
          "midi": 55,
          "name": "G3",
          "ticks": 228352,
          "time": 334.5,
          "velocity": 0.7795275590551181
        },
        {
          "duration": 0.35595703125,
          "durationTicks": 243,
          "midi": 64,
          "name": "E4",
          "ticks": 228608,
          "time": 334.875,
          "velocity": 0.8976377952755905
        },
        {
          "duration": 0.1904296875,
          "durationTicks": 130,
          "midi": 64,
          "name": "E4",
          "ticks": 229120,
          "time": 335.625,
          "velocity": 0.6771653543307087
        },
        {
          "duration": 0.17724609375,
          "durationTicks": 121,
          "midi": 62,
          "name": "D4",
          "ticks": 229248,
          "time": 335.8125,
          "velocity": 0.6377952755905512
        },
        {
          "duration": 0.375,
          "durationTicks": 256,
          "midi": 60,
          "name": "C4",
          "ticks": 229376,
          "time": 336,
          "velocity": 0.7086614173228346
        },
        {
          "duration": 0.1904296875,
          "durationTicks": 130,
          "midi": 60,
          "name": "C4",
          "ticks": 229632,
          "time": 336.375,
          "velocity": 0.7716535433070866
        },
        {
          "duration": 0.17724609375,
          "durationTicks": 121,
          "midi": 58,
          "name": "A#3",
          "ticks": 229760,
          "time": 336.5625,
          "velocity": 0.7480314960629921
        },
        {
          "duration": 0.375,
          "durationTicks": 256,
          "midi": 57,
          "name": "A3",
          "ticks": 229888,
          "time": 336.75,
          "velocity": 0.7874015748031497
        },
        {
          "duration": 0.1904296875,
          "durationTicks": 130,
          "midi": 57,
          "name": "A3",
          "ticks": 230144,
          "time": 337.125,
          "velocity": 0.7637795275590551
        },
        {
          "duration": 0.17724609375,
          "durationTicks": 121,
          "midi": 55,
          "name": "G3",
          "ticks": 230272,
          "time": 337.3125,
          "velocity": 0.7480314960629921
        },
        {
          "duration": 0.09375,
          "durationTicks": 64,
          "midi": 53,
          "name": "F3",
          "ticks": 230400,
          "time": 337.5,
          "velocity": 0.7637795275590551
        },
        {
          "duration": 0.09375,
          "durationTicks": 64,
          "midi": 55,
          "name": "G3",
          "ticks": 230528,
          "time": 337.6875,
          "velocity": 0.7952755905511811
        },
        {
          "duration": 0.09375,
          "durationTicks": 64,
          "midi": 57,
          "name": "A3",
          "ticks": 230656,
          "time": 337.875,
          "velocity": 0.7795275590551181
        },
        {
          "duration": 0.09375,
          "durationTicks": 64,
          "midi": 55,
          "name": "G3",
          "ticks": 230784,
          "time": 338.0625,
          "velocity": 0.7244094488188977
        },
        {
          "duration": 0.09375,
          "durationTicks": 64,
          "midi": 53,
          "name": "F3",
          "ticks": 230912,
          "time": 338.25,
          "velocity": 0.7637795275590551
        },
        {
          "duration": 0.09375,
          "durationTicks": 64,
          "midi": 55,
          "name": "G3",
          "ticks": 231040,
          "time": 338.4375,
          "velocity": 0.7952755905511811
        },
        {
          "duration": 0.09375,
          "durationTicks": 64,
          "midi": 51,
          "name": "D#3",
          "ticks": 231168,
          "time": 338.625,
          "velocity": 0.6929133858267716
        },
        {
          "duration": 0.09375,
          "durationTicks": 64,
          "midi": 53,
          "name": "F3",
          "ticks": 231296,
          "time": 338.8125,
          "velocity": 0.7637795275590551
        },
        {
          "duration": 0.09375,
          "durationTicks": 64,
          "midi": 50,
          "name": "D3",
          "ticks": 231424,
          "time": 339,
          "velocity": 0.7244094488188977
        },
        {
          "duration": 0.09375,
          "durationTicks": 64,
          "midi": 53,
          "name": "F3",
          "ticks": 231552,
          "time": 339.1875,
          "velocity": 0.84251968503937
        },
        {
          "duration": 0.09375,
          "durationTicks": 64,
          "midi": 58,
          "name": "A#3",
          "ticks": 231680,
          "time": 339.375,
          "velocity": 0.8267716535433071
        },
        {
          "duration": 0.09375,
          "durationTicks": 64,
          "midi": 50,
          "name": "D3",
          "ticks": 231808,
          "time": 339.5625,
          "velocity": 0.7086614173228346
        },
        {
          "duration": 0.09375,
          "durationTicks": 64,
          "midi": 48,
          "name": "C3",
          "ticks": 231936,
          "time": 339.75,
          "velocity": 0.7086614173228346
        },
        {
          "duration": 0.09375,
          "durationTicks": 64,
          "midi": 51,
          "name": "D#3",
          "ticks": 232064,
          "time": 339.9375,
          "velocity": 0.7952755905511811
        },
        {
          "duration": 0.09375,
          "durationTicks": 64,
          "midi": 57,
          "name": "A3",
          "ticks": 232192,
          "time": 340.125,
          "velocity": 0.8267716535433071
        },
        {
          "duration": 0.09375,
          "durationTicks": 64,
          "midi": 48,
          "name": "C3",
          "ticks": 232320,
          "time": 340.3125,
          "velocity": 0.7086614173228346
        },
        {
          "duration": 0.09375,
          "durationTicks": 64,
          "midi": 46,
          "name": "A#2",
          "ticks": 232448,
          "time": 340.5,
          "velocity": 0.7086614173228346
        },
        {
          "duration": 0.09375,
          "durationTicks": 64,
          "midi": 41,
          "name": "F2",
          "ticks": 232576,
          "time": 340.6875,
          "velocity": 0.6850393700787402
        },
        {
          "duration": 0.09375,
          "durationTicks": 64,
          "midi": 43,
          "name": "G2",
          "ticks": 232704,
          "time": 340.875,
          "velocity": 0.8110236220472441
        },
        {
          "duration": 0.09375,
          "durationTicks": 64,
          "midi": 45,
          "name": "A2",
          "ticks": 232832,
          "time": 341.0625,
          "velocity": 0.8267716535433071
        },
        {
          "duration": 0.09375,
          "durationTicks": 64,
          "midi": 46,
          "name": "A#2",
          "ticks": 232960,
          "time": 341.25,
          "velocity": 0.7952755905511811
        },
        {
          "duration": 0.09375,
          "durationTicks": 64,
          "midi": 45,
          "name": "A2",
          "ticks": 233088,
          "time": 341.4375,
          "velocity": 0.7637795275590551
        },
        {
          "duration": 0.09375,
          "durationTicks": 64,
          "midi": 46,
          "name": "A#2",
          "ticks": 233216,
          "time": 341.625,
          "velocity": 0.8110236220472441
        },
        {
          "duration": 0.09375,
          "durationTicks": 64,
          "midi": 48,
          "name": "C3",
          "ticks": 233344,
          "time": 341.8125,
          "velocity": 0.7716535433070866
        },
        {
          "duration": 0.09375,
          "durationTicks": 64,
          "midi": 50,
          "name": "D3",
          "ticks": 233472,
          "time": 342,
          "velocity": 0.7952755905511811
        },
        {
          "duration": 0.09375,
          "durationTicks": 64,
          "midi": 46,
          "name": "A#2",
          "ticks": 233600,
          "time": 342.1875,
          "velocity": 0.7086614173228346
        },
        {
          "duration": 0.09375,
          "durationTicks": 64,
          "midi": 48,
          "name": "C3",
          "ticks": 233728,
          "time": 342.375,
          "velocity": 0.7637795275590551
        },
        {
          "duration": 0.09375,
          "durationTicks": 64,
          "midi": 50,
          "name": "D3",
          "ticks": 233856,
          "time": 342.5625,
          "velocity": 0.8188976377952756
        },
        {
          "duration": 0.09375,
          "durationTicks": 64,
          "midi": 51,
          "name": "D#3",
          "ticks": 233984,
          "time": 342.75,
          "velocity": 0.84251968503937
        },
        {
          "duration": 0.09375,
          "durationTicks": 64,
          "midi": 50,
          "name": "D3",
          "ticks": 234112,
          "time": 342.9375,
          "velocity": 0.7322834645669292
        },
        {
          "duration": 0.09375,
          "durationTicks": 64,
          "midi": 51,
          "name": "D#3",
          "ticks": 234240,
          "time": 343.125,
          "velocity": 0.7952755905511811
        },
        {
          "duration": 0.09375,
          "durationTicks": 64,
          "midi": 53,
          "name": "F3",
          "ticks": 234368,
          "time": 343.3125,
          "velocity": 0.7716535433070866
        },
        {
          "duration": 0.1875,
          "durationTicks": 128,
          "midi": 55,
          "name": "G3",
          "ticks": 234496,
          "time": 343.5,
          "velocity": 0.8188976377952756
        },
        {
          "duration": 0.1875,
          "durationTicks": 128,
          "midi": 51,
          "name": "D#3",
          "ticks": 234624,
          "time": 343.6875,
          "velocity": 0.7480314960629921
        },
        {
          "duration": 0.1875,
          "durationTicks": 128,
          "midi": 53,
          "name": "F3",
          "ticks": 234752,
          "time": 343.875,
          "velocity": 0.7795275590551181
        },
        {
          "duration": 0.1875,
          "durationTicks": 128,
          "midi": 55,
          "name": "G3",
          "ticks": 234880,
          "time": 344.0625,
          "velocity": 0.7795275590551181
        },
        {
          "duration": 0.1875,
          "durationTicks": 128,
          "midi": 57,
          "name": "A3",
          "ticks": 235008,
          "time": 344.25,
          "velocity": 0.8110236220472441
        },
        {
          "duration": 0.1875,
          "durationTicks": 128,
          "midi": 55,
          "name": "G3",
          "ticks": 235136,
          "time": 344.4375,
          "velocity": 0.7559055118110236
        },
        {
          "duration": 0.1875,
          "durationTicks": 128,
          "midi": 57,
          "name": "A3",
          "ticks": 235264,
          "time": 344.625,
          "velocity": 0.8031496062992126
        },
        {
          "duration": 0.1875,
          "durationTicks": 128,
          "midi": 58,
          "name": "A#3",
          "ticks": 235392,
          "time": 344.8125,
          "velocity": 0.8031496062992126
        },
        {
          "duration": 0.1875,
          "durationTicks": 128,
          "midi": 60,
          "name": "C4",
          "ticks": 235520,
          "time": 345,
          "velocity": 0.84251968503937
        },
        {
          "duration": 0.1875,
          "durationTicks": 128,
          "midi": 57,
          "name": "A3",
          "ticks": 235648,
          "time": 345.1875,
          "velocity": 0.7795275590551181
        },
        {
          "duration": 0.1875,
          "durationTicks": 128,
          "midi": 58,
          "name": "A#3",
          "ticks": 235776,
          "time": 345.375,
          "velocity": 0.8346456692913385
        },
        {
          "duration": 0.1875,
          "durationTicks": 128,
          "midi": 60,
          "name": "C4",
          "ticks": 235904,
          "time": 345.5625,
          "velocity": 0.8267716535433071
        },
        {
          "duration": 0.1875,
          "durationTicks": 128,
          "midi": 62,
          "name": "D4",
          "ticks": 236032,
          "time": 345.75,
          "velocity": 0.8346456692913385
        },
        {
          "duration": 0.1875,
          "durationTicks": 128,
          "midi": 61,
          "name": "C#4",
          "ticks": 236160,
          "time": 345.9375,
          "velocity": 0.7165354330708661
        },
        {
          "duration": 0.1875,
          "durationTicks": 128,
          "midi": 62,
          "name": "D4",
          "ticks": 236288,
          "time": 346.125,
          "velocity": 0.8031496062992126
        },
        {
          "duration": 0.1875,
          "durationTicks": 128,
          "midi": 64,
          "name": "E4",
          "ticks": 236416,
          "time": 346.3125,
          "velocity": 0.8346456692913385
        },
        {
          "duration": 0.1875,
          "durationTicks": 128,
          "midi": 66,
          "name": "F#4",
          "ticks": 236544,
          "time": 346.5,
          "velocity": 0.8503937007874016
        },
        {
          "duration": 0.1875,
          "durationTicks": 128,
          "midi": 62,
          "name": "D4",
          "ticks": 236672,
          "time": 346.6875,
          "velocity": 0.7086614173228346
        },
        {
          "duration": 0.1875,
          "durationTicks": 128,
          "midi": 64,
          "name": "E4",
          "ticks": 236800,
          "time": 346.875,
          "velocity": 0.7795275590551181
        },
        {
          "duration": 0.1875,
          "durationTicks": 128,
          "midi": 66,
          "name": "F#4",
          "ticks": 236928,
          "time": 347.0625,
          "velocity": 0.7952755905511811
        },
        {
          "duration": 0.1875,
          "durationTicks": 128,
          "midi": 67,
          "name": "G4",
          "ticks": 237056,
          "time": 347.25,
          "velocity": 0.8267716535433071
        },
        {
          "duration": 0.1875,
          "durationTicks": 128,
          "midi": 63,
          "name": "D#4",
          "ticks": 237184,
          "time": 347.4375,
          "velocity": 0.7007874015748031
        },
        {
          "duration": 0.1875,
          "durationTicks": 128,
          "midi": 62,
          "name": "D4",
          "ticks": 237312,
          "time": 347.625,
          "velocity": 0.7322834645669292
        },
        {
          "duration": 0.1875,
          "durationTicks": 128,
          "midi": 60,
          "name": "C4",
          "ticks": 237440,
          "time": 347.8125,
          "velocity": 0.6929133858267716
        },
        {
          "duration": 0.1875,
          "durationTicks": 128,
          "midi": 58,
          "name": "A#3",
          "ticks": 237568,
          "time": 348,
          "velocity": 0.7322834645669292
        },
        {
          "duration": 0.1875,
          "durationTicks": 128,
          "midi": 60,
          "name": "C4",
          "ticks": 237696,
          "time": 348.1875,
          "velocity": 0.8110236220472441
        },
        {
          "duration": 0.1875,
          "durationTicks": 128,
          "midi": 58,
          "name": "A#3",
          "ticks": 237824,
          "time": 348.375,
          "velocity": 0.7716535433070866
        },
        {
          "duration": 0.1875,
          "durationTicks": 128,
          "midi": 57,
          "name": "A3",
          "ticks": 237952,
          "time": 348.5625,
          "velocity": 0.7874015748031497
        },
        {
          "duration": 0.1875,
          "durationTicks": 128,
          "midi": 55,
          "name": "G3",
          "ticks": 238080,
          "time": 348.75,
          "velocity": 0.7637795275590551
        },
        {
          "duration": 0.1875,
          "durationTicks": 128,
          "midi": 53,
          "name": "F3",
          "ticks": 238208,
          "time": 348.9375,
          "velocity": 0.7244094488188977
        },
        {
          "duration": 0.1875,
          "durationTicks": 128,
          "midi": 55,
          "name": "G3",
          "ticks": 238336,
          "time": 349.125,
          "velocity": 0.8031496062992126
        },
        {
          "duration": 0.1875,
          "durationTicks": 128,
          "midi": 56,
          "name": "G#3",
          "ticks": 238464,
          "time": 349.3125,
          "velocity": 0.7401574803149606
        },
        {
          "duration": 0.1875,
          "durationTicks": 128,
          "midi": 57,
          "name": "A3",
          "ticks": 238592,
          "time": 349.5,
          "velocity": 0.7874015748031497
        },
        {
          "duration": 0.1875,
          "durationTicks": 128,
          "midi": 57,
          "name": "A3",
          "ticks": 238720,
          "time": 349.6875,
          "velocity": 0.7637795275590551
        },
        {
          "duration": 0.1875,
          "durationTicks": 128,
          "midi": 57,
          "name": "A3",
          "ticks": 238848,
          "time": 349.875,
          "velocity": 0.7716535433070866
        },
        {
          "duration": 0.1875,
          "durationTicks": 128,
          "midi": 57,
          "name": "A3",
          "ticks": 238976,
          "time": 350.0625,
          "velocity": 0.7637795275590551
        },
        {
          "duration": 0.1875,
          "durationTicks": 128,
          "midi": 57,
          "name": "A3",
          "ticks": 239104,
          "time": 350.25,
          "velocity": 0.7795275590551181
        },
        {
          "duration": 0.1875,
          "durationTicks": 128,
          "midi": 57,
          "name": "A3",
          "ticks": 239232,
          "time": 350.4375,
          "velocity": 0.7716535433070866
        },
        {
          "duration": 0.1875,
          "durationTicks": 128,
          "midi": 57,
          "name": "A3",
          "ticks": 239360,
          "time": 350.625,
          "velocity": 0.7874015748031497
        },
        {
          "duration": 0.1875,
          "durationTicks": 128,
          "midi": 57,
          "name": "A3",
          "ticks": 239488,
          "time": 350.8125,
          "velocity": 0.7795275590551181
        },
        {
          "duration": 0.1875,
          "durationTicks": 128,
          "midi": 57,
          "name": "A3",
          "ticks": 239616,
          "time": 351,
          "velocity": 0.7952755905511811
        },
        {
          "duration": 0.1875,
          "durationTicks": 128,
          "midi": 57,
          "name": "A3",
          "ticks": 239744,
          "time": 351.1875,
          "velocity": 0.7637795275590551
        },
        {
          "duration": 0.1875,
          "durationTicks": 128,
          "midi": 57,
          "name": "A3",
          "ticks": 239872,
          "time": 351.375,
          "velocity": 0.7874015748031497
        },
        {
          "duration": 0.1875,
          "durationTicks": 128,
          "midi": 57,
          "name": "A3",
          "ticks": 240000,
          "time": 351.5625,
          "velocity": 0.7795275590551181
        },
        {
          "duration": 0.1875,
          "durationTicks": 128,
          "midi": 57,
          "name": "A3",
          "ticks": 240128,
          "time": 351.75,
          "velocity": 0.7874015748031497
        },
        {
          "duration": 0.1875,
          "durationTicks": 128,
          "midi": 57,
          "name": "A3",
          "ticks": 240256,
          "time": 351.9375,
          "velocity": 0.7637795275590551
        },
        {
          "duration": 0.1875,
          "durationTicks": 128,
          "midi": 57,
          "name": "A3",
          "ticks": 240384,
          "time": 352.125,
          "velocity": 0.7401574803149606
        },
        {
          "duration": 0.1875,
          "durationTicks": 128,
          "midi": 57,
          "name": "A3",
          "ticks": 240512,
          "time": 352.3125,
          "velocity": 0.7401574803149606
        },
        {
          "duration": 0.1875,
          "durationTicks": 128,
          "midi": 57,
          "name": "A3",
          "ticks": 240640,
          "time": 352.5,
          "velocity": 0.7716535433070866
        },
        {
          "duration": 0.1875,
          "durationTicks": 128,
          "midi": 57,
          "name": "A3",
          "ticks": 240768,
          "time": 352.6875,
          "velocity": 0.7716535433070866
        },
        {
          "duration": 0.1875,
          "durationTicks": 128,
          "midi": 57,
          "name": "A3",
          "ticks": 240896,
          "time": 352.875,
          "velocity": 0.7480314960629921
        },
        {
          "duration": 0.1875,
          "durationTicks": 128,
          "midi": 57,
          "name": "A3",
          "ticks": 241024,
          "time": 353.0625,
          "velocity": 0.7559055118110236
        },
        {
          "duration": 0.1875,
          "durationTicks": 128,
          "midi": 57,
          "name": "A3",
          "ticks": 241152,
          "time": 353.25,
          "velocity": 0.7716535433070866
        },
        {
          "duration": 0.1875,
          "durationTicks": 128,
          "midi": 57,
          "name": "A3",
          "ticks": 241280,
          "time": 353.4375,
          "velocity": 0.7874015748031497
        },
        {
          "duration": 0.1875,
          "durationTicks": 128,
          "midi": 57,
          "name": "A3",
          "ticks": 241408,
          "time": 353.625,
          "velocity": 0.7244094488188977
        },
        {
          "duration": 0.1875,
          "durationTicks": 128,
          "midi": 57,
          "name": "A3",
          "ticks": 241536,
          "time": 353.8125,
          "velocity": 0.7716535433070866
        },
        {
          "duration": 0.1875,
          "durationTicks": 128,
          "midi": 57,
          "name": "A3",
          "ticks": 241664,
          "time": 354,
          "velocity": 0.7559055118110236
        },
        {
          "duration": 0.1875,
          "durationTicks": 128,
          "midi": 57,
          "name": "A3",
          "ticks": 241792,
          "time": 354.1875,
          "velocity": 0.7874015748031497
        },
        {
          "duration": 0.1875,
          "durationTicks": 128,
          "midi": 57,
          "name": "A3",
          "ticks": 241920,
          "time": 354.375,
          "velocity": 0.7480314960629921
        },
        {
          "duration": 0.1875,
          "durationTicks": 128,
          "midi": 57,
          "name": "A3",
          "ticks": 242048,
          "time": 354.5625,
          "velocity": 0.7401574803149606
        },
        {
          "duration": 0.1875,
          "durationTicks": 128,
          "midi": 57,
          "name": "A3",
          "ticks": 242176,
          "time": 354.75,
          "velocity": 0.7795275590551181
        },
        {
          "duration": 0.1875,
          "durationTicks": 128,
          "midi": 57,
          "name": "A3",
          "ticks": 242304,
          "time": 354.9375,
          "velocity": 0.7952755905511811
        },
        {
          "duration": 0.1875,
          "durationTicks": 128,
          "midi": 57,
          "name": "A3",
          "ticks": 242432,
          "time": 355.125,
          "velocity": 0.7874015748031497
        },
        {
          "duration": 0.1875,
          "durationTicks": 128,
          "midi": 57,
          "name": "A3",
          "ticks": 242560,
          "time": 355.3125,
          "velocity": 0.7795275590551181
        },
        {
          "duration": 0.75,
          "durationTicks": 512,
          "midi": 57,
          "name": "A3",
          "ticks": 242688,
          "time": 355.5,
          "velocity": 0.7559055118110236
        },
        {
          "duration": 4.5,
          "durationTicks": 3072,
          "midi": 65,
          "name": "F4",
          "ticks": 244736,
          "time": 358.5,
          "velocity": 0.47244094488188976
        },
        {
          "duration": 5.625,
          "durationTicks": 3840,
          "midi": 67,
          "name": "G4",
          "ticks": 247808,
          "time": 363,
          "velocity": 0.5039370078740157
        },
        {
          "duration": 0.1904296875,
          "durationTicks": 130,
          "midi": 65,
          "name": "F4",
          "ticks": 253184,
          "time": 370.875,
          "velocity": 0.4094488188976378
        },
        {
          "duration": 0.17724609375,
          "durationTicks": 121,
          "midi": 66,
          "name": "F#4",
          "ticks": 253312,
          "time": 371.0625,
          "velocity": 0.4251968503937008
        },
        {
          "duration": 0.1875,
          "durationTicks": 128,
          "midi": 66,
          "name": "F#4",
          "ticks": 253440,
          "time": 371.25,
          "velocity": 0.4409448818897638
        },
        {
          "duration": 0.1904296875,
          "durationTicks": 130,
          "midi": 67,
          "name": "G4",
          "ticks": 255232,
          "time": 373.875,
          "velocity": 0.4330708661417323
        },
        {
          "duration": 0.17724609375,
          "durationTicks": 121,
          "midi": 66,
          "name": "F#4",
          "ticks": 255360,
          "time": 374.0625,
          "velocity": 0.3937007874015748
        },
        {
          "duration": 0.1875,
          "durationTicks": 128,
          "midi": 66,
          "name": "F#4",
          "ticks": 255488,
          "time": 374.25,
          "velocity": 0.4881889763779528
        },
        {
          "duration": 0.1904296875,
          "durationTicks": 130,
          "midi": 63,
          "name": "D#4",
          "ticks": 257280,
          "time": 376.875,
          "velocity": 0.4330708661417323
        },
        {
          "duration": 0.17724609375,
          "durationTicks": 121,
          "midi": 62,
          "name": "D4",
          "ticks": 257408,
          "time": 377.0625,
          "velocity": 0.41732283464566927
        },
        {
          "duration": 0.1875,
          "durationTicks": 128,
          "midi": 62,
          "name": "D4",
          "ticks": 257536,
          "time": 377.25,
          "velocity": 0.4566929133858268
        },
        {
          "duration": 0.375,
          "durationTicks": 256,
          "midi": 60,
          "name": "C4",
          "ticks": 258048,
          "time": 378,
          "velocity": 0.7086614173228346
        },
        {
          "duration": 0.375,
          "durationTicks": 256,
          "midi": 63,
          "name": "D#4",
          "ticks": 258048,
          "time": 378,
          "velocity": 0.7086614173228346
        },
        {
          "duration": 0.375,
          "durationTicks": 256,
          "midi": 57,
          "name": "A3",
          "ticks": 258304,
          "time": 378.375,
          "velocity": 0.6771653543307087
        },
        {
          "duration": 0.375,
          "durationTicks": 256,
          "midi": 60,
          "name": "C4",
          "ticks": 258304,
          "time": 378.375,
          "velocity": 0.6771653543307087
        },
        {
          "duration": 0.375,
          "durationTicks": 256,
          "midi": 54,
          "name": "F#3",
          "ticks": 258560,
          "time": 378.75,
          "velocity": 0.6850393700787402
        },
        {
          "duration": 0.375,
          "durationTicks": 256,
          "midi": 57,
          "name": "A3",
          "ticks": 258560,
          "time": 378.75,
          "velocity": 0.6850393700787402
        },
        {
          "duration": 0.375,
          "durationTicks": 256,
          "midi": 58,
          "name": "A#3",
          "ticks": 259072,
          "time": 379.5,
          "velocity": 0.6771653543307087
        },
        {
          "duration": 0.375,
          "durationTicks": 256,
          "midi": 62,
          "name": "D4",
          "ticks": 259072,
          "time": 379.5,
          "velocity": 0.6771653543307087
        },
        {
          "duration": 0.375,
          "durationTicks": 256,
          "midi": 55,
          "name": "G3",
          "ticks": 259328,
          "time": 379.875,
          "velocity": 0.6929133858267716
        },
        {
          "duration": 0.375,
          "durationTicks": 256,
          "midi": 58,
          "name": "A#3",
          "ticks": 259328,
          "time": 379.875,
          "velocity": 0.6929133858267716
        },
        {
          "duration": 0.375,
          "durationTicks": 256,
          "midi": 50,
          "name": "D3",
          "ticks": 259584,
          "time": 380.25,
          "velocity": 0.7086614173228346
        },
        {
          "duration": 0.375,
          "durationTicks": 256,
          "midi": 55,
          "name": "G3",
          "ticks": 259584,
          "time": 380.25,
          "velocity": 0.7086614173228346
        },
        {
          "duration": 0.375,
          "durationTicks": 256,
          "midi": 52,
          "name": "E3",
          "ticks": 260096,
          "time": 381,
          "velocity": 0.7165354330708661
        },
        {
          "duration": 0.375,
          "durationTicks": 256,
          "midi": 55,
          "name": "G3",
          "ticks": 260096,
          "time": 381,
          "velocity": 0.7165354330708661
        },
        {
          "duration": 0.375,
          "durationTicks": 256,
          "midi": 55,
          "name": "G3",
          "ticks": 260352,
          "time": 381.375,
          "velocity": 0.7795275590551181
        },
        {
          "duration": 0.375,
          "durationTicks": 256,
          "midi": 58,
          "name": "A#3",
          "ticks": 260352,
          "time": 381.375,
          "velocity": 0.7795275590551181
        },
        {
          "duration": 0.375,
          "durationTicks": 256,
          "midi": 58,
          "name": "A#3",
          "ticks": 260608,
          "time": 381.75,
          "velocity": 0.8976377952755905
        },
        {
          "duration": 0.375,
          "durationTicks": 256,
          "midi": 64,
          "name": "E4",
          "ticks": 260608,
          "time": 381.75,
          "velocity": 0.8976377952755905
        },
        {
          "duration": 0.375,
          "durationTicks": 256,
          "midi": 54,
          "name": "F#3",
          "ticks": 261120,
          "time": 382.5,
          "velocity": 0.7244094488188977
        },
        {
          "duration": 0.375,
          "durationTicks": 256,
          "midi": 57,
          "name": "A3",
          "ticks": 261120,
          "time": 382.5,
          "velocity": 0.7244094488188977
        },
        {
          "duration": 0.375,
          "durationTicks": 256,
          "midi": 57,
          "name": "A3",
          "ticks": 261376,
          "time": 382.875,
          "velocity": 0.8976377952755905
        },
        {
          "duration": 0.375,
          "durationTicks": 256,
          "midi": 62,
          "name": "D4",
          "ticks": 261376,
          "time": 382.875,
          "velocity": 0.8976377952755905
        },
        {
          "duration": 0.375,
          "durationTicks": 256,
          "midi": 62,
          "name": "D4",
          "ticks": 261632,
          "time": 383.25,
          "velocity": 0.8582677165354331
        },
        {
          "duration": 0.375,
          "durationTicks": 256,
          "midi": 66,
          "name": "F#4",
          "ticks": 261632,
          "time": 383.25,
          "velocity": 0.8582677165354331
        },
        {
          "duration": 0.375,
          "durationTicks": 256,
          "midi": 57,
          "name": "A3",
          "ticks": 262144,
          "time": 384,
          "velocity": 0.6456692913385826
        },
        {
          "duration": 0.375,
          "durationTicks": 256,
          "midi": 60,
          "name": "C4",
          "ticks": 262144,
          "time": 384,
          "velocity": 0.6456692913385826
        },
        {
          "duration": 0.375,
          "durationTicks": 256,
          "midi": 54,
          "name": "F#3",
          "ticks": 262400,
          "time": 384.375,
          "velocity": 0.7401574803149606
        },
        {
          "duration": 0.375,
          "durationTicks": 256,
          "midi": 57,
          "name": "A3",
          "ticks": 262400,
          "time": 384.375,
          "velocity": 0.7401574803149606
        },
        {
          "duration": 0.375,
          "durationTicks": 256,
          "midi": 50,
          "name": "D3",
          "ticks": 262656,
          "time": 384.75,
          "velocity": 0.7559055118110236
        },
        {
          "duration": 0.375,
          "durationTicks": 256,
          "midi": 54,
          "name": "F#3",
          "ticks": 262656,
          "time": 384.75,
          "velocity": 0.7559055118110236
        },
        {
          "duration": 0.375,
          "durationTicks": 256,
          "midi": 58,
          "name": "A#3",
          "ticks": 263168,
          "time": 385.5,
          "velocity": 0.6850393700787402
        },
        {
          "duration": 0.375,
          "durationTicks": 256,
          "midi": 62,
          "name": "D4",
          "ticks": 263168,
          "time": 385.5,
          "velocity": 0.6850393700787402
        },
        {
          "duration": 0.375,
          "durationTicks": 256,
          "midi": 55,
          "name": "G3",
          "ticks": 263424,
          "time": 385.875,
          "velocity": 0.6535433070866141
        },
        {
          "duration": 0.375,
          "durationTicks": 256,
          "midi": 58,
          "name": "A#3",
          "ticks": 263424,
          "time": 385.875,
          "velocity": 0.6535433070866141
        },
        {
          "duration": 0.375,
          "durationTicks": 256,
          "midi": 50,
          "name": "D3",
          "ticks": 263680,
          "time": 386.25,
          "velocity": 0.7165354330708661
        },
        {
          "duration": 0.375,
          "durationTicks": 256,
          "midi": 55,
          "name": "G3",
          "ticks": 263680,
          "time": 386.25,
          "velocity": 0.7165354330708661
        },
        {
          "duration": 1.5,
          "durationTicks": 1024,
          "midi": 50,
          "name": "D3",
          "ticks": 265216,
          "time": 388.5,
          "velocity": 0.44881889763779526
        },
        {
          "duration": 1.5,
          "durationTicks": 1024,
          "midi": 62,
          "name": "D4",
          "ticks": 265216,
          "time": 388.5,
          "velocity": 0.44881889763779526
        },
        {
          "duration": 1.5,
          "durationTicks": 1024,
          "midi": 50,
          "name": "D3",
          "ticks": 266240,
          "time": 390,
          "velocity": 0.5039370078740157
        },
        {
          "duration": 1.5,
          "durationTicks": 1024,
          "midi": 62,
          "name": "D4",
          "ticks": 266240,
          "time": 390,
          "velocity": 0.5039370078740157
        },
        {
          "duration": 1.5,
          "durationTicks": 1024,
          "midi": 50,
          "name": "D3",
          "ticks": 267264,
          "time": 391.5,
          "velocity": 0.47244094488188976
        },
        {
          "duration": 1.5,
          "durationTicks": 1024,
          "midi": 62,
          "name": "D4",
          "ticks": 267264,
          "time": 391.5,
          "velocity": 0.47244094488188976
        },
        {
          "duration": 2.25,
          "durationTicks": 1536,
          "midi": 50,
          "name": "D3",
          "ticks": 268288,
          "time": 393,
          "velocity": 0.4645669291338583
        },
        {
          "duration": 2.25,
          "durationTicks": 1536,
          "midi": 62,
          "name": "D4",
          "ticks": 268288,
          "time": 393,
          "velocity": 0.4645669291338583
        },
        {
          "duration": 1.5,
          "durationTicks": 1024,
          "midi": 67,
          "name": "G4",
          "ticks": 269824,
          "time": 395.25,
          "velocity": 0.5433070866141733
        },
        {
          "duration": 0.75,
          "durationTicks": 512,
          "midi": 58,
          "name": "A#3",
          "ticks": 269824,
          "time": 395.25,
          "velocity": 0.4094488188976378
        },
        {
          "duration": 1.5,
          "durationTicks": 1024,
          "midi": 57,
          "name": "A3",
          "ticks": 270336,
          "time": 396,
          "velocity": 0.4566929133858268
        },
        {
          "duration": 0.75,
          "durationTicks": 512,
          "midi": 66,
          "name": "F#4",
          "ticks": 270848,
          "time": 396.75,
          "velocity": 0.47244094488188976
        },
        {
          "duration": 0.375,
          "durationTicks": 256,
          "midi": 55,
          "name": "G3",
          "ticks": 271360,
          "time": 397.5,
          "velocity": 0.5275590551181102
        },
        {
          "duration": 0.375,
          "durationTicks": 256,
          "midi": 67,
          "name": "G4",
          "ticks": 271360,
          "time": 397.5,
          "velocity": 0.5275590551181102
        },
        {
          "duration": 3,
          "durationTicks": 2048,
          "midi": 63,
          "name": "D#4",
          "ticks": 273408,
          "time": 400.5,
          "velocity": 0.41732283464566927
        },
        {
          "duration": 0.7646484375,
          "durationTicks": 522,
          "midi": 62,
          "name": "D4",
          "ticks": 275456,
          "time": 403.5,
          "velocity": 0.48031496062992124
        },
        {
          "duration": 0.7646484375,
          "durationTicks": 522,
          "midi": 60,
          "name": "C4",
          "ticks": 275968,
          "time": 404.25,
          "velocity": 0.4330708661417323
        },
        {
          "duration": 0.7646484375,
          "durationTicks": 522,
          "midi": 57,
          "name": "A3",
          "ticks": 276480,
          "time": 405,
          "velocity": 0.4409448818897638
        },
        {
          "duration": 0.7119140625,
          "durationTicks": 486,
          "midi": 54,
          "name": "F#3",
          "ticks": 276992,
          "time": 405.75,
          "velocity": 0.4409448818897638
        },
        {
          "duration": 0.375,
          "durationTicks": 256,
          "midi": 55,
          "name": "G3",
          "ticks": 277504,
          "time": 406.5,
          "velocity": 0.4881889763779528
        },
        {
          "duration": 0.38232421875,
          "durationTicks": 261,
          "midi": 54,
          "name": "F#3",
          "ticks": 282880,
          "time": 414.375,
          "velocity": 0.4330708661417323
        },
        {
          "duration": 0.38232421875,
          "durationTicks": 261,
          "midi": 55,
          "name": "G3",
          "ticks": 283136,
          "time": 414.75,
          "velocity": 0.41732283464566927
        },
        {
          "duration": 0.38232421875,
          "durationTicks": 261,
          "midi": 57,
          "name": "A3",
          "ticks": 283392,
          "time": 415.125,
          "velocity": 0.48031496062992124
        },
        {
          "duration": 0.38232421875,
          "durationTicks": 261,
          "midi": 58,
          "name": "A#3",
          "ticks": 283648,
          "time": 415.5,
          "velocity": 0.5196850393700787
        },
        {
          "duration": 0.1904296875,
          "durationTicks": 130,
          "midi": 60,
          "name": "C4",
          "ticks": 283904,
          "time": 415.875,
          "velocity": 0.5354330708661418
        },
        {
          "duration": 0.1904296875,
          "durationTicks": 130,
          "midi": 58,
          "name": "A#3",
          "ticks": 284032,
          "time": 416.0625,
          "velocity": 0.5511811023622047
        },
        {
          "duration": 0.38232421875,
          "durationTicks": 261,
          "midi": 57,
          "name": "A3",
          "ticks": 284160,
          "time": 416.25,
          "velocity": 0.4645669291338583
        },
        {
          "duration": 0.38232421875,
          "durationTicks": 261,
          "midi": 55,
          "name": "G3",
          "ticks": 284416,
          "time": 416.625,
          "velocity": 0.44881889763779526
        },
        {
          "duration": 0.35595703125,
          "durationTicks": 243,
          "midi": 54,
          "name": "F#3",
          "ticks": 284672,
          "time": 417,
          "velocity": 0.4566929133858268
        },
        {
          "duration": 0.7646484375,
          "durationTicks": 522,
          "midi": 58,
          "name": "A#3",
          "ticks": 285184,
          "time": 417.75,
          "velocity": 0.7086614173228346
        },
        {
          "duration": 0.7646484375,
          "durationTicks": 522,
          "midi": 64,
          "name": "E4",
          "ticks": 285184,
          "time": 417.75,
          "velocity": 0.7086614173228346
        },
        {
          "duration": 0.35595703125,
          "durationTicks": 243,
          "midi": 57,
          "name": "A3",
          "ticks": 285696,
          "time": 418.5,
          "velocity": 0.7322834645669292
        },
        {
          "duration": 0.35595703125,
          "durationTicks": 243,
          "midi": 66,
          "name": "F#4",
          "ticks": 285696,
          "time": 418.5,
          "velocity": 0.7322834645669292
        },
        {
          "duration": 0.7646484375,
          "durationTicks": 522,
          "midi": 58,
          "name": "A#3",
          "ticks": 286208,
          "time": 419.25,
          "velocity": 0.6850393700787402
        },
        {
          "duration": 0.7646484375,
          "durationTicks": 522,
          "midi": 64,
          "name": "E4",
          "ticks": 286208,
          "time": 419.25,
          "velocity": 0.6850393700787402
        },
        {
          "duration": 0.35595703125,
          "durationTicks": 243,
          "midi": 57,
          "name": "A3",
          "ticks": 286720,
          "time": 420,
          "velocity": 0.7165354330708661
        },
        {
          "duration": 0.35595703125,
          "durationTicks": 243,
          "midi": 66,
          "name": "F#4",
          "ticks": 286720,
          "time": 420,
          "velocity": 0.7165354330708661
        },
        {
          "duration": 0.7646484375,
          "durationTicks": 522,
          "midi": 58,
          "name": "A#3",
          "ticks": 287232,
          "time": 420.75,
          "velocity": 0.6692913385826772
        },
        {
          "duration": 0.7646484375,
          "durationTicks": 522,
          "midi": 64,
          "name": "E4",
          "ticks": 287232,
          "time": 420.75,
          "velocity": 0.6692913385826772
        },
        {
          "duration": 0.35595703125,
          "durationTicks": 243,
          "midi": 57,
          "name": "A3",
          "ticks": 287744,
          "time": 421.5,
          "velocity": 0.7086614173228346
        },
        {
          "duration": 0.35595703125,
          "durationTicks": 243,
          "midi": 66,
          "name": "F#4",
          "ticks": 287744,
          "time": 421.5,
          "velocity": 0.7086614173228346
        },
        {
          "duration": 0.1875,
          "durationTicks": 128,
          "midi": 58,
          "name": "A#3",
          "ticks": 288000,
          "time": 421.875,
          "velocity": 0.7244094488188977
        },
        {
          "duration": 0.1875,
          "durationTicks": 128,
          "midi": 64,
          "name": "E4",
          "ticks": 288000,
          "time": 421.875,
          "velocity": 0.7244094488188977
        },
        {
          "duration": 0.1875,
          "durationTicks": 128,
          "midi": 57,
          "name": "A3",
          "ticks": 288256,
          "time": 422.25,
          "velocity": 0.7952755905511811
        },
        {
          "duration": 0.1875,
          "durationTicks": 128,
          "midi": 66,
          "name": "F#4",
          "ticks": 288256,
          "time": 422.25,
          "velocity": 0.7952755905511811
        },
        {
          "duration": 0.1875,
          "durationTicks": 128,
          "midi": 58,
          "name": "A#3",
          "ticks": 288512,
          "time": 422.625,
          "velocity": 0.7322834645669292
        },
        {
          "duration": 0.1875,
          "durationTicks": 128,
          "midi": 64,
          "name": "E4",
          "ticks": 288512,
          "time": 422.625,
          "velocity": 0.7322834645669292
        },
        {
          "duration": 0.7646484375,
          "durationTicks": 522,
          "midi": 66,
          "name": "F#4",
          "ticks": 288768,
          "time": 423,
          "velocity": 0.7952755905511811
        },
        {
          "duration": 1.423828125,
          "durationTicks": 972,
          "midi": 57,
          "name": "A3",
          "ticks": 288768,
          "time": 423,
          "velocity": 0.7637795275590551
        },
        {
          "duration": 0.7119140625,
          "durationTicks": 486,
          "midi": 60,
          "name": "C4",
          "ticks": 289280,
          "time": 423.75,
          "velocity": 0.4330708661417323
        },
        {
          "duration": 0.7646484375,
          "durationTicks": 522,
          "midi": 58,
          "name": "A#3",
          "ticks": 289792,
          "time": 424.5,
          "velocity": 0.4645669291338583
        },
        {
          "duration": 0.7646484375,
          "durationTicks": 522,
          "midi": 55,
          "name": "G3",
          "ticks": 289792,
          "time": 424.5,
          "velocity": 0.4409448818897638
        },
        {
          "duration": 0.7119140625,
          "durationTicks": 486,
          "midi": 57,
          "name": "A3",
          "ticks": 290304,
          "time": 425.25,
          "velocity": 0.4566929133858268
        },
        {
          "duration": 0.7119140625,
          "durationTicks": 486,
          "midi": 54,
          "name": "F#3",
          "ticks": 290304,
          "time": 425.25,
          "velocity": 0.44881889763779526
        },
        {
          "duration": 0.375,
          "durationTicks": 256,
          "midi": 58,
          "name": "A#3",
          "ticks": 290816,
          "time": 426,
          "velocity": 0.48031496062992124
        },
        {
          "duration": 0.375,
          "durationTicks": 256,
          "midi": 55,
          "name": "G3",
          "ticks": 290816,
          "time": 426,
          "velocity": 0.4566929133858268
        },
        {
          "duration": 1.5,
          "durationTicks": 1024,
          "midi": 62,
          "name": "D4",
          "ticks": 292864,
          "time": 429,
          "velocity": 0.4094488188976378
        },
        {
          "duration": 1.5,
          "durationTicks": 1024,
          "midi": 63,
          "name": "D#4",
          "ticks": 293888,
          "time": 430.5,
          "velocity": 0.48031496062992124
        },
        {
          "duration": 0.75,
          "durationTicks": 512,
          "midi": 65,
          "name": "F4",
          "ticks": 294912,
          "time": 432,
          "velocity": 0.5118110236220472
        },
        {
          "duration": 0.75,
          "durationTicks": 512,
          "midi": 62,
          "name": "D4",
          "ticks": 295424,
          "time": 432.75,
          "velocity": 0.4645669291338583
        },
        {
          "duration": 0.75,
          "durationTicks": 512,
          "midi": 58,
          "name": "A#3",
          "ticks": 295936,
          "time": 433.5,
          "velocity": 0.4566929133858268
        },
        {
          "duration": 0.75,
          "durationTicks": 512,
          "midi": 62,
          "name": "D4",
          "ticks": 296448,
          "time": 434.25,
          "velocity": 0.5511811023622047
        },
        {
          "duration": 0.09375,
          "durationTicks": 64,
          "midi": 51,
          "name": "D#3",
          "ticks": 296960,
          "time": 435,
          "velocity": 0.6141732283464567
        },
        {
          "duration": 0.375,
          "durationTicks": 256,
          "midi": 63,
          "name": "D#4",
          "ticks": 296960,
          "time": 435,
          "velocity": 0.5748031496062992
        },
        {
          "duration": 0.09375,
          "durationTicks": 64,
          "midi": 55,
          "name": "G3",
          "ticks": 297088,
          "time": 435.1875,
          "velocity": 0.7637795275590551
        },
        {
          "duration": 0.09375,
          "durationTicks": 64,
          "midi": 58,
          "name": "A#3",
          "ticks": 297216,
          "time": 435.375,
          "velocity": 0.6929133858267716
        },
        {
          "duration": 0.09375,
          "durationTicks": 64,
          "midi": 63,
          "name": "D#4",
          "ticks": 297344,
          "time": 435.5625,
          "velocity": 0.7165354330708661
        },
        {
          "duration": 0.09375,
          "durationTicks": 64,
          "midi": 67,
          "name": "G4",
          "ticks": 297472,
          "time": 435.75,
          "velocity": 0.7480314960629921
        },
        {
          "duration": 0.09375,
          "durationTicks": 64,
          "midi": 65,
          "name": "F4",
          "ticks": 297600,
          "time": 435.9375,
          "velocity": 0.6692913385826772
        },
        {
          "duration": 0.09375,
          "durationTicks": 64,
          "midi": 67,
          "name": "G4",
          "ticks": 297728,
          "time": 436.125,
          "velocity": 0.6929133858267716
        },
        {
          "duration": 0.09375,
          "durationTicks": 64,
          "midi": 63,
          "name": "D#4",
          "ticks": 297856,
          "time": 436.3125,
          "velocity": 0.5826771653543307
        },
        {
          "duration": 0.09375,
          "durationTicks": 64,
          "midi": 62,
          "name": "D4",
          "ticks": 297984,
          "time": 436.5,
          "velocity": 0.6220472440944882
        },
        {
          "duration": 0.09375,
          "durationTicks": 64,
          "midi": 63,
          "name": "D#4",
          "ticks": 298112,
          "time": 436.6875,
          "velocity": 0.7007874015748031
        },
        {
          "duration": 0.09375,
          "durationTicks": 64,
          "midi": 65,
          "name": "F4",
          "ticks": 298240,
          "time": 436.875,
          "velocity": 0.7165354330708661
        },
        {
          "duration": 0.09375,
          "durationTicks": 64,
          "midi": 63,
          "name": "D#4",
          "ticks": 298368,
          "time": 437.0625,
          "velocity": 0.6141732283464567
        },
        {
          "duration": 0.09375,
          "durationTicks": 64,
          "midi": 62,
          "name": "D4",
          "ticks": 298496,
          "time": 437.25,
          "velocity": 0.6535433070866141
        },
        {
          "duration": 0.09375,
          "durationTicks": 64,
          "midi": 60,
          "name": "C4",
          "ticks": 298624,
          "time": 437.4375,
          "velocity": 0.6456692913385826
        },
        {
          "duration": 0.09375,
          "durationTicks": 64,
          "midi": 62,
          "name": "D4",
          "ticks": 298752,
          "time": 437.625,
          "velocity": 0.7322834645669292
        },
        {
          "duration": 0.09375,
          "durationTicks": 64,
          "midi": 58,
          "name": "A#3",
          "ticks": 298880,
          "time": 437.8125,
          "velocity": 0.5984251968503937
        },
        {
          "duration": 0.1875,
          "durationTicks": 128,
          "midi": 60,
          "name": "C4",
          "ticks": 299008,
          "time": 438,
          "velocity": 0.6929133858267716
        },
        {
          "duration": 0.1875,
          "durationTicks": 128,
          "midi": 63,
          "name": "D#4",
          "ticks": 299136,
          "time": 438.1875,
          "velocity": 0.7559055118110236
        },
        {
          "duration": 0.1875,
          "durationTicks": 128,
          "midi": 60,
          "name": "C4",
          "ticks": 299264,
          "time": 438.375,
          "velocity": 0.6220472440944882
        },
        {
          "duration": 0.1875,
          "durationTicks": 128,
          "midi": 63,
          "name": "D#4",
          "ticks": 299392,
          "time": 438.5625,
          "velocity": 0.7007874015748031
        },
        {
          "duration": 0.1875,
          "durationTicks": 128,
          "midi": 60,
          "name": "C4",
          "ticks": 299520,
          "time": 438.75,
          "velocity": 0.6062992125984252
        },
        {
          "duration": 0.1875,
          "durationTicks": 128,
          "midi": 63,
          "name": "D#4",
          "ticks": 299648,
          "time": 438.9375,
          "velocity": 0.6850393700787402
        },
        {
          "duration": 0.1875,
          "durationTicks": 128,
          "midi": 60,
          "name": "C4",
          "ticks": 299776,
          "time": 439.125,
          "velocity": 0.6062992125984252
        },
        {
          "duration": 0.1875,
          "durationTicks": 128,
          "midi": 63,
          "name": "D#4",
          "ticks": 299904,
          "time": 439.3125,
          "velocity": 0.7322834645669292
        },
        {
          "duration": 0.1875,
          "durationTicks": 128,
          "midi": 58,
          "name": "A#3",
          "ticks": 300032,
          "time": 439.5,
          "velocity": 0.6535433070866141
        },
        {
          "duration": 0.1875,
          "durationTicks": 128,
          "midi": 63,
          "name": "D#4",
          "ticks": 300160,
          "time": 439.6875,
          "velocity": 0.7401574803149606
        },
        {
          "duration": 0.1875,
          "durationTicks": 128,
          "midi": 58,
          "name": "A#3",
          "ticks": 300288,
          "time": 439.875,
          "velocity": 0.6299212598425197
        },
        {
          "duration": 0.1875,
          "durationTicks": 128,
          "midi": 63,
          "name": "D#4",
          "ticks": 300416,
          "time": 440.0625,
          "velocity": 0.7244094488188977
        },
        {
          "duration": 0.1875,
          "durationTicks": 128,
          "midi": 58,
          "name": "A#3",
          "ticks": 300544,
          "time": 440.25,
          "velocity": 0.6220472440944882
        },
        {
          "duration": 0.1875,
          "durationTicks": 128,
          "midi": 63,
          "name": "D#4",
          "ticks": 300672,
          "time": 440.4375,
          "velocity": 0.7716535433070866
        },
        {
          "duration": 0.1875,
          "durationTicks": 128,
          "midi": 58,
          "name": "A#3",
          "ticks": 300800,
          "time": 440.625,
          "velocity": 0.6299212598425197
        },
        {
          "duration": 0.1875,
          "durationTicks": 128,
          "midi": 63,
          "name": "D#4",
          "ticks": 300928,
          "time": 440.8125,
          "velocity": 0.7637795275590551
        },
        {
          "duration": 0.1875,
          "durationTicks": 128,
          "midi": 56,
          "name": "G#3",
          "ticks": 301056,
          "time": 441,
          "velocity": 0.5905511811023622
        },
        {
          "duration": 0.1875,
          "durationTicks": 128,
          "midi": 60,
          "name": "C4",
          "ticks": 301184,
          "time": 441.1875,
          "velocity": 0.7165354330708661
        },
        {
          "duration": 0.1875,
          "durationTicks": 128,
          "midi": 56,
          "name": "G#3",
          "ticks": 301312,
          "time": 441.375,
          "velocity": 0.6299212598425197
        },
        {
          "duration": 0.1875,
          "durationTicks": 128,
          "midi": 60,
          "name": "C4",
          "ticks": 301440,
          "time": 441.5625,
          "velocity": 0.7244094488188977
        },
        {
          "duration": 0.1875,
          "durationTicks": 128,
          "midi": 56,
          "name": "G#3",
          "ticks": 301568,
          "time": 441.75,
          "velocity": 0.6141732283464567
        },
        {
          "duration": 0.1875,
          "durationTicks": 128,
          "midi": 60,
          "name": "C4",
          "ticks": 301696,
          "time": 441.9375,
          "velocity": 0.7480314960629921
        },
        {
          "duration": 0.1875,
          "durationTicks": 128,
          "midi": 56,
          "name": "G#3",
          "ticks": 301824,
          "time": 442.125,
          "velocity": 0.6535433070866141
        },
        {
          "duration": 0.1875,
          "durationTicks": 128,
          "midi": 60,
          "name": "C4",
          "ticks": 301952,
          "time": 442.3125,
          "velocity": 0.7244094488188977
        },
        {
          "duration": 0.1875,
          "durationTicks": 128,
          "midi": 55,
          "name": "G3",
          "ticks": 302080,
          "time": 442.5,
          "velocity": 0.6141732283464567
        },
        {
          "duration": 0.1875,
          "durationTicks": 128,
          "midi": 58,
          "name": "A#3",
          "ticks": 302208,
          "time": 442.6875,
          "velocity": 0.6850393700787402
        },
        {
          "duration": 0.1875,
          "durationTicks": 128,
          "midi": 55,
          "name": "G3",
          "ticks": 302336,
          "time": 442.875,
          "velocity": 0.5905511811023622
        },
        {
          "duration": 0.1875,
          "durationTicks": 128,
          "midi": 58,
          "name": "A#3",
          "ticks": 302464,
          "time": 443.0625,
          "velocity": 0.6535433070866141
        },
        {
          "duration": 0.1875,
          "durationTicks": 128,
          "midi": 53,
          "name": "F3",
          "ticks": 302592,
          "time": 443.25,
          "velocity": 0.6062992125984252
        },
        {
          "duration": 0.1875,
          "durationTicks": 128,
          "midi": 56,
          "name": "G#3",
          "ticks": 302720,
          "time": 443.4375,
          "velocity": 0.6692913385826772
        },
        {
          "duration": 0.1875,
          "durationTicks": 128,
          "midi": 53,
          "name": "F3",
          "ticks": 302848,
          "time": 443.625,
          "velocity": 0.6141732283464567
        },
        {
          "duration": 0.1875,
          "durationTicks": 128,
          "midi": 56,
          "name": "G#3",
          "ticks": 302976,
          "time": 443.8125,
          "velocity": 0.7007874015748031
        },
        {
          "duration": 0.1875,
          "durationTicks": 128,
          "midi": 52,
          "name": "E3",
          "ticks": 303104,
          "time": 444,
          "velocity": 0.6220472440944882
        },
        {
          "duration": 0.1875,
          "durationTicks": 128,
          "midi": 55,
          "name": "G3",
          "ticks": 303232,
          "time": 444.1875,
          "velocity": 0.6377952755905512
        },
        {
          "duration": 0.1875,
          "durationTicks": 128,
          "midi": 52,
          "name": "E3",
          "ticks": 303360,
          "time": 444.375,
          "velocity": 0.6141732283464567
        },
        {
          "duration": 0.1875,
          "durationTicks": 128,
          "midi": 55,
          "name": "G3",
          "ticks": 303488,
          "time": 444.5625,
          "velocity": 0.6692913385826772
        },
        {
          "duration": 0.1875,
          "durationTicks": 128,
          "midi": 48,
          "name": "C3",
          "ticks": 303616,
          "time": 444.75,
          "velocity": 0.6220472440944882
        },
        {
          "duration": 0.1875,
          "durationTicks": 128,
          "midi": 52,
          "name": "E3",
          "ticks": 303744,
          "time": 444.9375,
          "velocity": 0.6929133858267716
        },
        {
          "duration": 0.1875,
          "durationTicks": 128,
          "midi": 48,
          "name": "C3",
          "ticks": 303872,
          "time": 445.125,
          "velocity": 0.5984251968503937
        },
        {
          "duration": 0.1875,
          "durationTicks": 128,
          "midi": 52,
          "name": "E3",
          "ticks": 304000,
          "time": 445.3125,
          "velocity": 0.6771653543307087
        },
        {
          "duration": 1.5,
          "durationTicks": 1024,
          "midi": 53,
          "name": "F3",
          "ticks": 304128,
          "time": 445.5,
          "velocity": 0.8031496062992126
        },
        {
          "duration": 1.125,
          "durationTicks": 768,
          "midi": 60,
          "name": "C4",
          "ticks": 305152,
          "time": 447,
          "velocity": 0.937007874015748
        },
        {
          "duration": 0.1875,
          "durationTicks": 128,
          "midi": 60,
          "name": "C4",
          "ticks": 306048,
          "time": 448.3125,
          "velocity": 0.6692913385826772
        },
        {
          "duration": 0.1875,
          "durationTicks": 128,
          "midi": 58,
          "name": "A#3",
          "ticks": 306176,
          "time": 448.5,
          "velocity": 0.7322834645669292
        },
        {
          "duration": 0.1875,
          "durationTicks": 128,
          "midi": 61,
          "name": "C#4",
          "ticks": 306432,
          "time": 448.875,
          "velocity": 0.8346456692913385
        },
        {
          "duration": 0.1875,
          "durationTicks": 128,
          "midi": 67,
          "name": "G4",
          "ticks": 306688,
          "time": 449.25,
          "velocity": 0.889763779527559
        },
        {
          "duration": 0.1875,
          "durationTicks": 128,
          "midi": 56,
          "name": "G#3",
          "ticks": 307200,
          "time": 450,
          "velocity": 0.6929133858267716
        },
        {
          "duration": 0.1875,
          "durationTicks": 128,
          "midi": 60,
          "name": "C4",
          "ticks": 307456,
          "time": 450.375,
          "velocity": 0.8503937007874016
        },
        {
          "duration": 0.1875,
          "durationTicks": 128,
          "midi": 65,
          "name": "F4",
          "ticks": 307712,
          "time": 450.75,
          "velocity": 0.8740157480314961
        },
        {
          "duration": 0.1875,
          "durationTicks": 128,
          "midi": 56,
          "name": "G#3",
          "ticks": 308096,
          "time": 451.3125,
          "velocity": 0.6850393700787402
        },
        {
          "duration": 0.1875,
          "durationTicks": 128,
          "midi": 55,
          "name": "G3",
          "ticks": 308224,
          "time": 451.5,
          "velocity": 0.7637795275590551
        },
        {
          "duration": 0.1875,
          "durationTicks": 128,
          "midi": 58,
          "name": "A#3",
          "ticks": 308480,
          "time": 451.875,
          "velocity": 0.8267716535433071
        },
        {
          "duration": 0.1875,
          "durationTicks": 128,
          "midi": 64,
          "name": "E4",
          "ticks": 308736,
          "time": 452.25,
          "velocity": 0.8976377952755905
        },
        {
          "duration": 0.1875,
          "durationTicks": 128,
          "midi": 55,
          "name": "G3",
          "ticks": 309120,
          "time": 452.8125,
          "velocity": 0.6850393700787402
        },
        {
          "duration": 0.1875,
          "durationTicks": 128,
          "midi": 53,
          "name": "F3",
          "ticks": 309248,
          "time": 453,
          "velocity": 0.7244094488188977
        },
        {
          "duration": 0.1875,
          "durationTicks": 128,
          "midi": 56,
          "name": "G#3",
          "ticks": 309504,
          "time": 453.375,
          "velocity": 0.8110236220472441
        },
        {
          "duration": 0.1875,
          "durationTicks": 128,
          "midi": 60,
          "name": "C4",
          "ticks": 309760,
          "time": 453.75,
          "velocity": 0.8503937007874016
        },
        {
          "duration": 0.1875,
          "durationTicks": 128,
          "midi": 41,
          "name": "F2",
          "ticks": 310144,
          "time": 454.3125,
          "velocity": 0.6771653543307087
        },
        {
          "duration": 0.1875,
          "durationTicks": 128,
          "midi": 46,
          "name": "A#2",
          "ticks": 310272,
          "time": 454.5,
          "velocity": 0.8031496062992126
        },
        {
          "duration": 0.1875,
          "durationTicks": 128,
          "midi": 50,
          "name": "D3",
          "ticks": 310528,
          "time": 454.875,
          "velocity": 0.7952755905511811
        },
        {
          "duration": 0.1875,
          "durationTicks": 128,
          "midi": 53,
          "name": "F3",
          "ticks": 310784,
          "time": 455.25,
          "velocity": 0.7874015748031497
        },
        {
          "duration": 0.1875,
          "durationTicks": 128,
          "midi": 46,
          "name": "A#2",
          "ticks": 311168,
          "time": 455.8125,
          "velocity": 0.6771653543307087
        },
        {
          "duration": 0.1875,
          "durationTicks": 128,
          "midi": 51,
          "name": "D#3",
          "ticks": 311296,
          "time": 456,
          "velocity": 0.8267716535433071
        },
        {
          "duration": 0.1875,
          "durationTicks": 128,
          "midi": 55,
          "name": "G3",
          "ticks": 311552,
          "time": 456.375,
          "velocity": 0.8267716535433071
        },
        {
          "duration": 0.1875,
          "durationTicks": 128,
          "midi": 58,
          "name": "A#3",
          "ticks": 311808,
          "time": 456.75,
          "velocity": 0.8031496062992126
        },
        {
          "duration": 0.1875,
          "durationTicks": 128,
          "midi": 39,
          "name": "D#2",
          "ticks": 312192,
          "time": 457.3125,
          "velocity": 0.7007874015748031
        },
        {
          "duration": 0.375,
          "durationTicks": 256,
          "midi": 44,
          "name": "G#2",
          "ticks": 312320,
          "time": 457.5,
          "velocity": 0.7952755905511811
        },
        {
          "duration": 0.375,
          "durationTicks": 256,
          "midi": 48,
          "name": "C3",
          "ticks": 312576,
          "time": 457.875,
          "velocity": 0.8661417322834646
        },
        {
          "duration": 0.375,
          "durationTicks": 256,
          "midi": 51,
          "name": "D#3",
          "ticks": 312832,
          "time": 458.25,
          "velocity": 0.7952755905511811
        },
        {
          "duration": 0.1875,
          "durationTicks": 128,
          "midi": 44,
          "name": "G#2",
          "ticks": 313216,
          "time": 458.8125,
          "velocity": 0.6929133858267716
        },
        {
          "duration": 0.375,
          "durationTicks": 256,
          "midi": 50,
          "name": "D3",
          "ticks": 313344,
          "time": 459,
          "velocity": 0.8267716535433071
        },
        {
          "duration": 0.375,
          "durationTicks": 256,
          "midi": 53,
          "name": "F3",
          "ticks": 313600,
          "time": 459.375,
          "velocity": 0.8110236220472441
        },
        {
          "duration": 0.375,
          "durationTicks": 256,
          "midi": 57,
          "name": "A3",
          "ticks": 313856,
          "time": 459.75,
          "velocity": 0.8661417322834646
        },
        {
          "duration": 0.1875,
          "durationTicks": 128,
          "midi": 50,
          "name": "D3",
          "ticks": 314240,
          "time": 460.3125,
          "velocity": 0.6771653543307087
        },
        {
          "duration": 0.375,
          "durationTicks": 256,
          "midi": 55,
          "name": "G3",
          "ticks": 314368,
          "time": 460.5,
          "velocity": 0.8031496062992126
        },
        {
          "duration": 0.375,
          "durationTicks": 256,
          "midi": 59,
          "name": "B3",
          "ticks": 314624,
          "time": 460.875,
          "velocity": 0.7874015748031497
        },
        {
          "duration": 0.375,
          "durationTicks": 256,
          "midi": 62,
          "name": "D4",
          "ticks": 314880,
          "time": 461.25,
          "velocity": 0.8582677165354331
        },
        {
          "duration": 0.1875,
          "durationTicks": 128,
          "midi": 43,
          "name": "G2",
          "ticks": 315264,
          "time": 461.8125,
          "velocity": 0.7007874015748031
        },
        {
          "duration": 0.375,
          "durationTicks": 256,
          "midi": 48,
          "name": "C3",
          "ticks": 315392,
          "time": 462,
          "velocity": 0.7952755905511811
        },
        {
          "duration": 0.375,
          "durationTicks": 256,
          "midi": 51,
          "name": "D#3",
          "ticks": 315648,
          "time": 462.375,
          "velocity": 0.8267716535433071
        },
        {
          "duration": 0.375,
          "durationTicks": 256,
          "midi": 55,
          "name": "G3",
          "ticks": 315904,
          "time": 462.75,
          "velocity": 0.8110236220472441
        },
        {
          "duration": 0.1875,
          "durationTicks": 128,
          "midi": 48,
          "name": "C3",
          "ticks": 316288,
          "time": 463.3125,
          "velocity": 0.6850393700787402
        },
        {
          "duration": 0.375,
          "durationTicks": 256,
          "midi": 50,
          "name": "D3",
          "ticks": 316416,
          "time": 463.5,
          "velocity": 0.7795275590551181
        },
        {
          "duration": 0.375,
          "durationTicks": 256,
          "midi": 54,
          "name": "F#3",
          "ticks": 316672,
          "time": 463.875,
          "velocity": 0.84251968503937
        },
        {
          "duration": 0.375,
          "durationTicks": 256,
          "midi": 57,
          "name": "A3",
          "ticks": 316928,
          "time": 464.25,
          "velocity": 0.8188976377952756
        },
        {
          "duration": 0.1875,
          "durationTicks": 128,
          "midi": 55,
          "name": "G3",
          "ticks": 317440,
          "time": 465,
          "velocity": 0.6771653543307087
        },
        {
          "duration": 0.1875,
          "durationTicks": 128,
          "midi": 58,
          "name": "A#3",
          "ticks": 317568,
          "time": 465.1875,
          "velocity": 0.7952755905511811
        },
        {
          "duration": 0.1875,
          "durationTicks": 128,
          "midi": 55,
          "name": "G3",
          "ticks": 317696,
          "time": 465.375,
          "velocity": 0.7244094488188977
        },
        {
          "duration": 0.1875,
          "durationTicks": 128,
          "midi": 58,
          "name": "A#3",
          "ticks": 317824,
          "time": 465.5625,
          "velocity": 0.7952755905511811
        },
        {
          "duration": 0.1875,
          "durationTicks": 128,
          "midi": 55,
          "name": "G3",
          "ticks": 317952,
          "time": 465.75,
          "velocity": 0.7322834645669292
        },
        {
          "duration": 0.1875,
          "durationTicks": 128,
          "midi": 58,
          "name": "A#3",
          "ticks": 318080,
          "time": 465.9375,
          "velocity": 0.7401574803149606
        },
        {
          "duration": 0.1875,
          "durationTicks": 128,
          "midi": 55,
          "name": "G3",
          "ticks": 318208,
          "time": 466.125,
          "velocity": 0.7401574803149606
        },
        {
          "duration": 0.1875,
          "durationTicks": 128,
          "midi": 58,
          "name": "A#3",
          "ticks": 318336,
          "time": 466.3125,
          "velocity": 0.7795275590551181
        },
        {
          "duration": 0.1875,
          "durationTicks": 128,
          "midi": 53,
          "name": "F3",
          "ticks": 318464,
          "time": 466.5,
          "velocity": 0.7322834645669292
        },
        {
          "duration": 0.1875,
          "durationTicks": 128,
          "midi": 57,
          "name": "A3",
          "ticks": 318592,
          "time": 466.6875,
          "velocity": 0.8188976377952756
        },
        {
          "duration": 0.1875,
          "durationTicks": 128,
          "midi": 53,
          "name": "F3",
          "ticks": 318720,
          "time": 466.875,
          "velocity": 0.7322834645669292
        },
        {
          "duration": 0.1875,
          "durationTicks": 128,
          "midi": 57,
          "name": "A3",
          "ticks": 318848,
          "time": 467.0625,
          "velocity": 0.8031496062992126
        },
        {
          "duration": 0.1875,
          "durationTicks": 128,
          "midi": 53,
          "name": "F3",
          "ticks": 318976,
          "time": 467.25,
          "velocity": 0.7401574803149606
        },
        {
          "duration": 0.1875,
          "durationTicks": 128,
          "midi": 57,
          "name": "A3",
          "ticks": 319104,
          "time": 467.4375,
          "velocity": 0.8267716535433071
        },
        {
          "duration": 0.1875,
          "durationTicks": 128,
          "midi": 53,
          "name": "F3",
          "ticks": 319232,
          "time": 467.625,
          "velocity": 0.7322834645669292
        },
        {
          "duration": 0.1875,
          "durationTicks": 128,
          "midi": 57,
          "name": "A3",
          "ticks": 319360,
          "time": 467.8125,
          "velocity": 0.8267716535433071
        },
        {
          "duration": 0.1875,
          "durationTicks": 128,
          "midi": 51,
          "name": "D#3",
          "ticks": 319488,
          "time": 468,
          "velocity": 0.7165354330708661
        },
        {
          "duration": 0.1875,
          "durationTicks": 128,
          "midi": 55,
          "name": "G3",
          "ticks": 319616,
          "time": 468.1875,
          "velocity": 0.8031496062992126
        },
        {
          "duration": 0.1875,
          "durationTicks": 128,
          "midi": 51,
          "name": "D#3",
          "ticks": 319744,
          "time": 468.375,
          "velocity": 0.7874015748031497
        },
        {
          "duration": 0.1875,
          "durationTicks": 128,
          "midi": 55,
          "name": "G3",
          "ticks": 319872,
          "time": 468.5625,
          "velocity": 0.8110236220472441
        },
        {
          "duration": 0.1875,
          "durationTicks": 128,
          "midi": 51,
          "name": "D#3",
          "ticks": 320000,
          "time": 468.75,
          "velocity": 0.7165354330708661
        },
        {
          "duration": 0.1875,
          "durationTicks": 128,
          "midi": 55,
          "name": "G3",
          "ticks": 320128,
          "time": 468.9375,
          "velocity": 0.8110236220472441
        },
        {
          "duration": 0.1875,
          "durationTicks": 128,
          "midi": 51,
          "name": "D#3",
          "ticks": 320256,
          "time": 469.125,
          "velocity": 0.7559055118110236
        },
        {
          "duration": 0.1875,
          "durationTicks": 128,
          "midi": 55,
          "name": "G3",
          "ticks": 320384,
          "time": 469.3125,
          "velocity": 0.8031496062992126
        },
        {
          "duration": 0.1875,
          "durationTicks": 128,
          "midi": 50,
          "name": "D3",
          "ticks": 320512,
          "time": 469.5,
          "velocity": 0.6850393700787402
        },
        {
          "duration": 0.1875,
          "durationTicks": 128,
          "midi": 55,
          "name": "G3",
          "ticks": 320640,
          "time": 469.6875,
          "velocity": 0.8346456692913385
        },
        {
          "duration": 0.1875,
          "durationTicks": 128,
          "midi": 50,
          "name": "D3",
          "ticks": 320768,
          "time": 469.875,
          "velocity": 0.7244094488188977
        },
        {
          "duration": 0.1875,
          "durationTicks": 128,
          "midi": 55,
          "name": "G3",
          "ticks": 320896,
          "time": 470.0625,
          "velocity": 0.8031496062992126
        },
        {
          "duration": 0.1875,
          "durationTicks": 128,
          "midi": 50,
          "name": "D3",
          "ticks": 321024,
          "time": 470.25,
          "velocity": 0.7322834645669292
        },
        {
          "duration": 0.1875,
          "durationTicks": 128,
          "midi": 55,
          "name": "G3",
          "ticks": 321152,
          "time": 470.4375,
          "velocity": 0.7952755905511811
        },
        {
          "duration": 0.1875,
          "durationTicks": 128,
          "midi": 50,
          "name": "D3",
          "ticks": 321280,
          "time": 470.625,
          "velocity": 0.7322834645669292
        },
        {
          "duration": 0.1875,
          "durationTicks": 128,
          "midi": 55,
          "name": "G3",
          "ticks": 321408,
          "time": 470.8125,
          "velocity": 0.8188976377952756
        },
        {
          "duration": 0.1875,
          "durationTicks": 128,
          "midi": 48,
          "name": "C3",
          "ticks": 321536,
          "time": 471,
          "velocity": 0.6929133858267716
        },
        {
          "duration": 0.1875,
          "durationTicks": 128,
          "midi": 51,
          "name": "D#3",
          "ticks": 321664,
          "time": 471.1875,
          "velocity": 0.7874015748031497
        },
        {
          "duration": 0.1875,
          "durationTicks": 128,
          "midi": 48,
          "name": "C3",
          "ticks": 321792,
          "time": 471.375,
          "velocity": 0.7559055118110236
        },
        {
          "duration": 0.1875,
          "durationTicks": 128,
          "midi": 51,
          "name": "D#3",
          "ticks": 321920,
          "time": 471.5625,
          "velocity": 0.8346456692913385
        },
        {
          "duration": 0.1875,
          "durationTicks": 128,
          "midi": 48,
          "name": "C3",
          "ticks": 322048,
          "time": 471.75,
          "velocity": 0.7086614173228346
        },
        {
          "duration": 0.1875,
          "durationTicks": 128,
          "midi": 51,
          "name": "D#3",
          "ticks": 322176,
          "time": 471.9375,
          "velocity": 0.7952755905511811
        },
        {
          "duration": 0.1875,
          "durationTicks": 128,
          "midi": 48,
          "name": "C3",
          "ticks": 322304,
          "time": 472.125,
          "velocity": 0.7244094488188977
        },
        {
          "duration": 0.1875,
          "durationTicks": 128,
          "midi": 51,
          "name": "D#3",
          "ticks": 322432,
          "time": 472.3125,
          "velocity": 0.8031496062992126
        },
        {
          "duration": 0.1875,
          "durationTicks": 128,
          "midi": 46,
          "name": "A#2",
          "ticks": 322560,
          "time": 472.5,
          "velocity": 0.7165354330708661
        },
        {
          "duration": 0.1875,
          "durationTicks": 128,
          "midi": 50,
          "name": "D3",
          "ticks": 322688,
          "time": 472.6875,
          "velocity": 0.8110236220472441
        },
        {
          "duration": 0.1875,
          "durationTicks": 128,
          "midi": 46,
          "name": "A#2",
          "ticks": 322816,
          "time": 472.875,
          "velocity": 0.7322834645669292
        },
        {
          "duration": 0.1875,
          "durationTicks": 128,
          "midi": 50,
          "name": "D3",
          "ticks": 322944,
          "time": 473.0625,
          "velocity": 0.8110236220472441
        },
        {
          "duration": 0.1875,
          "durationTicks": 128,
          "midi": 46,
          "name": "A#2",
          "ticks": 323072,
          "time": 473.25,
          "velocity": 0.7480314960629921
        },
        {
          "duration": 0.1875,
          "durationTicks": 128,
          "midi": 50,
          "name": "D3",
          "ticks": 323200,
          "time": 473.4375,
          "velocity": 0.8031496062992126
        },
        {
          "duration": 0.1875,
          "durationTicks": 128,
          "midi": 46,
          "name": "A#2",
          "ticks": 323328,
          "time": 473.625,
          "velocity": 0.7244094488188977
        },
        {
          "duration": 0.1875,
          "durationTicks": 128,
          "midi": 50,
          "name": "D3",
          "ticks": 323456,
          "time": 473.8125,
          "velocity": 0.8267716535433071
        },
        {
          "duration": 1.3125,
          "durationTicks": 896,
          "midi": 61,
          "name": "C#4",
          "ticks": 323584,
          "time": 474,
          "velocity": 0.9606299212598425
        },
        {
          "duration": 1.5,
          "durationTicks": 1024,
          "midi": 52,
          "name": "E3",
          "ticks": 323584,
          "time": 474,
          "velocity": 0.6771653543307087
        },
        {
          "duration": 0.17724609375,
          "durationTicks": 121,
          "midi": 62,
          "name": "D4",
          "ticks": 324480,
          "time": 475.3125,
          "velocity": 0.8031496062992126
        },
        {
          "duration": 1.3125,
          "durationTicks": 896,
          "midi": 61,
          "name": "C#4",
          "ticks": 324608,
          "time": 475.5,
          "velocity": 0.7401574803149606
        },
        {
          "duration": 1.5,
          "durationTicks": 1024,
          "midi": 52,
          "name": "E3",
          "ticks": 324608,
          "time": 475.5,
          "velocity": 0.7795275590551181
        },
        {
          "duration": 0.17724609375,
          "durationTicks": 121,
          "midi": 62,
          "name": "D4",
          "ticks": 325504,
          "time": 476.8125,
          "velocity": 0.7874015748031497
        },
        {
          "duration": 1.3125,
          "durationTicks": 896,
          "midi": 61,
          "name": "C#4",
          "ticks": 325632,
          "time": 477,
          "velocity": 0.7480314960629921
        },
        {
          "duration": 1.5,
          "durationTicks": 1024,
          "midi": 52,
          "name": "E3",
          "ticks": 325632,
          "time": 477,
          "velocity": 0.8188976377952756
        },
        {
          "duration": 0.17724609375,
          "durationTicks": 121,
          "midi": 62,
          "name": "D4",
          "ticks": 326528,
          "time": 478.3125,
          "velocity": 0.8188976377952756
        },
        {
          "duration": 1.5,
          "durationTicks": 1024,
          "midi": 61,
          "name": "C#4",
          "ticks": 326656,
          "time": 478.5,
          "velocity": 0.7401574803149606
        },
        {
          "duration": 1.5,
          "durationTicks": 1024,
          "midi": 52,
          "name": "E3",
          "ticks": 326656,
          "time": 478.5,
          "velocity": 0.7952755905511811
        },
        {
          "duration": 0.1875,
          "durationTicks": 128,
          "midi": 50,
          "name": "D3",
          "ticks": 327680,
          "time": 480,
          "velocity": 0.8346456692913385
        },
        {
          "duration": 0.1875,
          "durationTicks": 128,
          "midi": 62,
          "name": "D4",
          "ticks": 327680,
          "time": 480,
          "velocity": 0.8346456692913385
        },
        {
          "duration": 0.1875,
          "durationTicks": 128,
          "midi": 50,
          "name": "D3",
          "ticks": 327808,
          "time": 480.1875,
          "velocity": 0.6929133858267716
        },
        {
          "duration": 0.1875,
          "durationTicks": 128,
          "midi": 50,
          "name": "D3",
          "ticks": 327936,
          "time": 480.375,
          "velocity": 0.7874015748031497
        },
        {
          "duration": 0.1875,
          "durationTicks": 128,
          "midi": 50,
          "name": "D3",
          "ticks": 328064,
          "time": 480.5625,
          "velocity": 0.7795275590551181
        },
        {
          "duration": 0.1875,
          "durationTicks": 128,
          "midi": 50,
          "name": "D3",
          "ticks": 328192,
          "time": 480.75,
          "velocity": 0.7637795275590551
        },
        {
          "duration": 0.1875,
          "durationTicks": 128,
          "midi": 50,
          "name": "D3",
          "ticks": 328320,
          "time": 480.9375,
          "velocity": 0.7795275590551181
        },
        {
          "duration": 0.1875,
          "durationTicks": 128,
          "midi": 50,
          "name": "D3",
          "ticks": 328448,
          "time": 481.125,
          "velocity": 0.8031496062992126
        },
        {
          "duration": 0.1875,
          "durationTicks": 128,
          "midi": 50,
          "name": "D3",
          "ticks": 328576,
          "time": 481.3125,
          "velocity": 0.7637795275590551
        },
        {
          "duration": 0.1875,
          "durationTicks": 128,
          "midi": 50,
          "name": "D3",
          "ticks": 328704,
          "time": 481.5,
          "velocity": 0.7795275590551181
        },
        {
          "duration": 0.1875,
          "durationTicks": 128,
          "midi": 50,
          "name": "D3",
          "ticks": 328832,
          "time": 481.6875,
          "velocity": 0.7795275590551181
        },
        {
          "duration": 0.1875,
          "durationTicks": 128,
          "midi": 50,
          "name": "D3",
          "ticks": 328960,
          "time": 481.875,
          "velocity": 0.7952755905511811
        },
        {
          "duration": 0.1875,
          "durationTicks": 128,
          "midi": 50,
          "name": "D3",
          "ticks": 329088,
          "time": 482.0625,
          "velocity": 0.7952755905511811
        },
        {
          "duration": 0.1875,
          "durationTicks": 128,
          "midi": 50,
          "name": "D3",
          "ticks": 329216,
          "time": 482.25,
          "velocity": 0.7480314960629921
        },
        {
          "duration": 0.1875,
          "durationTicks": 128,
          "midi": 50,
          "name": "D3",
          "ticks": 329344,
          "time": 482.4375,
          "velocity": 0.7637795275590551
        },
        {
          "duration": 0.1875,
          "durationTicks": 128,
          "midi": 50,
          "name": "D3",
          "ticks": 329472,
          "time": 482.625,
          "velocity": 0.8110236220472441
        },
        {
          "duration": 0.1875,
          "durationTicks": 128,
          "midi": 50,
          "name": "D3",
          "ticks": 329600,
          "time": 482.8125,
          "velocity": 0.7874015748031497
        },
        {
          "duration": 0.1875,
          "durationTicks": 128,
          "midi": 50,
          "name": "D3",
          "ticks": 329728,
          "time": 483,
          "velocity": 0.7322834645669292
        },
        {
          "duration": 0.1875,
          "durationTicks": 128,
          "midi": 50,
          "name": "D3",
          "ticks": 329856,
          "time": 483.1875,
          "velocity": 0.7559055118110236
        },
        {
          "duration": 0.1875,
          "durationTicks": 128,
          "midi": 50,
          "name": "D3",
          "ticks": 329984,
          "time": 483.375,
          "velocity": 0.7480314960629921
        },
        {
          "duration": 0.1875,
          "durationTicks": 128,
          "midi": 50,
          "name": "D3",
          "ticks": 330112,
          "time": 483.5625,
          "velocity": 0.7795275590551181
        },
        {
          "duration": 0.1875,
          "durationTicks": 128,
          "midi": 50,
          "name": "D3",
          "ticks": 330240,
          "time": 483.75,
          "velocity": 0.7874015748031497
        },
        {
          "duration": 0.1875,
          "durationTicks": 128,
          "midi": 50,
          "name": "D3",
          "ticks": 330368,
          "time": 483.9375,
          "velocity": 0.8031496062992126
        },
        {
          "duration": 0.1875,
          "durationTicks": 128,
          "midi": 50,
          "name": "D3",
          "ticks": 330496,
          "time": 484.125,
          "velocity": 0.7559055118110236
        },
        {
          "duration": 0.1875,
          "durationTicks": 128,
          "midi": 50,
          "name": "D3",
          "ticks": 330624,
          "time": 484.3125,
          "velocity": 0.7559055118110236
        },
        {
          "duration": 0.1875,
          "durationTicks": 128,
          "midi": 50,
          "name": "D3",
          "ticks": 330752,
          "time": 484.5,
          "velocity": 0.7716535433070866
        },
        {
          "duration": 0.1875,
          "durationTicks": 128,
          "midi": 50,
          "name": "D3",
          "ticks": 330880,
          "time": 484.6875,
          "velocity": 0.7480314960629921
        },
        {
          "duration": 0.1875,
          "durationTicks": 128,
          "midi": 50,
          "name": "D3",
          "ticks": 331008,
          "time": 484.875,
          "velocity": 0.7637795275590551
        },
        {
          "duration": 0.1875,
          "durationTicks": 128,
          "midi": 50,
          "name": "D3",
          "ticks": 331136,
          "time": 485.0625,
          "velocity": 0.7480314960629921
        },
        {
          "duration": 0.1875,
          "durationTicks": 128,
          "midi": 50,
          "name": "D3",
          "ticks": 331264,
          "time": 485.25,
          "velocity": 0.7480314960629921
        },
        {
          "duration": 0.1875,
          "durationTicks": 128,
          "midi": 50,
          "name": "D3",
          "ticks": 331392,
          "time": 485.4375,
          "velocity": 0.7874015748031497
        },
        {
          "duration": 0.1875,
          "durationTicks": 128,
          "midi": 50,
          "name": "D3",
          "ticks": 331520,
          "time": 485.625,
          "velocity": 0.7637795275590551
        },
        {
          "duration": 0.1875,
          "durationTicks": 128,
          "midi": 50,
          "name": "D3",
          "ticks": 331648,
          "time": 485.8125,
          "velocity": 0.7559055118110236
        },
        {
          "duration": 0.375,
          "durationTicks": 256,
          "midi": 50,
          "name": "D3",
          "ticks": 331776,
          "time": 486,
          "velocity": 0.7716535433070866
        },
        {
          "duration": 0.375,
          "durationTicks": 256,
          "midi": 50,
          "name": "D3",
          "ticks": 332288,
          "time": 486.75,
          "velocity": 0.7165354330708661
        },
        {
          "duration": 1.14697265625,
          "durationTicks": 783,
          "midi": 60,
          "name": "C4",
          "ticks": 334848,
          "time": 490.5,
          "velocity": 0.47244094488188976
        },
        {
          "duration": 0.09521484375,
          "durationTicks": 65,
          "midi": 62,
          "name": "D4",
          "ticks": 335616,
          "time": 491.625,
          "velocity": 0.48031496062992124
        },
        {
          "duration": 0.09521484375,
          "durationTicks": 65,
          "midi": 60,
          "name": "C4",
          "ticks": 335680,
          "time": 491.71875,
          "velocity": 0.4645669291338583
        },
        {
          "duration": 0.09521484375,
          "durationTicks": 65,
          "midi": 58,
          "name": "A#3",
          "ticks": 335744,
          "time": 491.8125,
          "velocity": 0.4015748031496063
        },
        {
          "duration": 0.09521484375,
          "durationTicks": 65,
          "midi": 57,
          "name": "A3",
          "ticks": 335808,
          "time": 491.90625,
          "velocity": 0.4881889763779528
        },
        {
          "duration": 0.35595703125,
          "durationTicks": 243,
          "midi": 55,
          "name": "G3",
          "ticks": 335872,
          "time": 492,
          "velocity": 0.44881889763779526
        },
        {
          "duration": 0.1904296875,
          "durationTicks": 130,
          "midi": 55,
          "name": "G3",
          "ticks": 340992,
          "time": 499.5,
          "velocity": 0.3937007874015748
        },
        {
          "duration": 0.1904296875,
          "durationTicks": 130,
          "midi": 54,
          "name": "F#3",
          "ticks": 341120,
          "time": 499.6875,
          "velocity": 0.3937007874015748
        },
        {
          "duration": 0.1904296875,
          "durationTicks": 130,
          "midi": 57,
          "name": "A3",
          "ticks": 341248,
          "time": 499.875,
          "velocity": 0.5275590551181102
        },
        {
          "duration": 0.1904296875,
          "durationTicks": 130,
          "midi": 55,
          "name": "G3",
          "ticks": 341376,
          "time": 500.0625,
          "velocity": 0.5118110236220472
        },
        {
          "duration": 0.1904296875,
          "durationTicks": 130,
          "midi": 58,
          "name": "A#3",
          "ticks": 341504,
          "time": 500.25,
          "velocity": 0.49606299212598426
        },
        {
          "duration": 0.1904296875,
          "durationTicks": 130,
          "midi": 57,
          "name": "A3",
          "ticks": 341632,
          "time": 500.4375,
          "velocity": 0.48031496062992124
        },
        {
          "duration": 0.1904296875,
          "durationTicks": 130,
          "midi": 60,
          "name": "C4",
          "ticks": 341760,
          "time": 500.625,
          "velocity": 0.5354330708661418
        },
        {
          "duration": 0.17724609375,
          "durationTicks": 121,
          "midi": 58,
          "name": "A#3",
          "ticks": 341888,
          "time": 500.8125,
          "velocity": 0.5118110236220472
        },
        {
          "duration": 1.14697265625,
          "durationTicks": 783,
          "midi": 58,
          "name": "A#3",
          "ticks": 342016,
          "time": 501,
          "velocity": 0.4881889763779528
        },
        {
          "duration": 1.14697265625,
          "durationTicks": 783,
          "midi": 62,
          "name": "D4",
          "ticks": 342016,
          "time": 501,
          "velocity": 0.4881889763779528
        },
        {
          "duration": 0.38232421875,
          "durationTicks": 261,
          "midi": 57,
          "name": "A3",
          "ticks": 342784,
          "time": 502.125,
          "velocity": 0.5511811023622047
        },
        {
          "duration": 0.38232421875,
          "durationTicks": 261,
          "midi": 64,
          "name": "E4",
          "ticks": 342784,
          "time": 502.125,
          "velocity": 0.5511811023622047
        },
        {
          "duration": 0.35595703125,
          "durationTicks": 243,
          "midi": 62,
          "name": "D4",
          "ticks": 343040,
          "time": 502.5,
          "velocity": 0.49606299212598426
        },
        {
          "duration": 0.35595703125,
          "durationTicks": 243,
          "midi": 66,
          "name": "F#4",
          "ticks": 343040,
          "time": 502.5,
          "velocity": 0.49606299212598426
        },
        {
          "duration": 0.38232421875,
          "durationTicks": 261,
          "midi": 53,
          "name": "F3",
          "ticks": 344320,
          "time": 504.375,
          "velocity": 0.44881889763779526
        },
        {
          "duration": 0.38232421875,
          "durationTicks": 261,
          "midi": 65,
          "name": "F4",
          "ticks": 344320,
          "time": 504.375,
          "velocity": 0.44881889763779526
        },
        {
          "duration": 0.38232421875,
          "durationTicks": 261,
          "midi": 52,
          "name": "E3",
          "ticks": 344576,
          "time": 504.75,
          "velocity": 0.4094488188976378
        },
        {
          "duration": 0.38232421875,
          "durationTicks": 261,
          "midi": 64,
          "name": "E4",
          "ticks": 344576,
          "time": 504.75,
          "velocity": 0.4094488188976378
        },
        {
          "duration": 0.35595703125,
          "durationTicks": 243,
          "midi": 51,
          "name": "D#3",
          "ticks": 344832,
          "time": 505.125,
          "velocity": 0.48031496062992124
        },
        {
          "duration": 0.35595703125,
          "durationTicks": 243,
          "midi": 63,
          "name": "D#4",
          "ticks": 344832,
          "time": 505.125,
          "velocity": 0.48031496062992124
        },
        {
          "duration": 0.75,
          "durationTicks": 512,
          "midi": 50,
          "name": "D3",
          "ticks": 345088,
          "time": 505.5,
          "velocity": 0.4566929133858268
        },
        {
          "duration": 0.75,
          "durationTicks": 512,
          "midi": 62,
          "name": "D4",
          "ticks": 345088,
          "time": 505.5,
          "velocity": 0.4566929133858268
        },
        {
          "duration": 1.14697265625,
          "durationTicks": 783,
          "midi": 63,
          "name": "D#4",
          "ticks": 346112,
          "time": 507,
          "velocity": 0.4409448818897638
        },
        {
          "duration": 0.38232421875,
          "durationTicks": 261,
          "midi": 62,
          "name": "D4",
          "ticks": 346880,
          "time": 508.125,
          "velocity": 0.3937007874015748
        },
        {
          "duration": 0.38232421875,
          "durationTicks": 261,
          "midi": 61,
          "name": "C#4",
          "ticks": 347136,
          "time": 508.5,
          "velocity": 0.4409448818897638
        },
        {
          "duration": 0.38232421875,
          "durationTicks": 261,
          "midi": 60,
          "name": "C4",
          "ticks": 347392,
          "time": 508.875,
          "velocity": 0.4015748031496063
        },
        {
          "duration": 0.38232421875,
          "durationTicks": 261,
          "midi": 59,
          "name": "B3",
          "ticks": 347648,
          "time": 509.25,
          "velocity": 0.48031496062992124
        },
        {
          "duration": 0.35595703125,
          "durationTicks": 243,
          "midi": 58,
          "name": "A#3",
          "ticks": 347904,
          "time": 509.625,
          "velocity": 0.47244094488188976
        },
        {
          "duration": 0.7646484375,
          "durationTicks": 522,
          "midi": 53,
          "name": "F3",
          "ticks": 348416,
          "time": 510.375,
          "velocity": 0.4094488188976378
        },
        {
          "duration": 0.7646484375,
          "durationTicks": 522,
          "midi": 56,
          "name": "G#3",
          "ticks": 348416,
          "time": 510.375,
          "velocity": 0.4094488188976378
        },
        {
          "duration": 0.35595703125,
          "durationTicks": 243,
          "midi": 51,
          "name": "D#3",
          "ticks": 348928,
          "time": 511.125,
          "velocity": 0.3858267716535433
        },
        {
          "duration": 0.35595703125,
          "durationTicks": 243,
          "midi": 55,
          "name": "G3",
          "ticks": 348928,
          "time": 511.125,
          "velocity": 0.3858267716535433
        },
        {
          "duration": 0.7646484375,
          "durationTicks": 522,
          "midi": 53,
          "name": "F3",
          "ticks": 349440,
          "time": 511.875,
          "velocity": 0.4330708661417323
        },
        {
          "duration": 0.7646484375,
          "durationTicks": 522,
          "midi": 56,
          "name": "G#3",
          "ticks": 349440,
          "time": 511.875,
          "velocity": 0.4330708661417323
        },
        {
          "duration": 0.35595703125,
          "durationTicks": 243,
          "midi": 51,
          "name": "D#3",
          "ticks": 349952,
          "time": 512.625,
          "velocity": 0.4251968503937008
        },
        {
          "duration": 0.35595703125,
          "durationTicks": 243,
          "midi": 55,
          "name": "G3",
          "ticks": 349952,
          "time": 512.625,
          "velocity": 0.4251968503937008
        },
        {
          "duration": 0.7646484375,
          "durationTicks": 522,
          "midi": 53,
          "name": "F3",
          "ticks": 350464,
          "time": 513.375,
          "velocity": 0.4645669291338583
        },
        {
          "duration": 0.7646484375,
          "durationTicks": 522,
          "midi": 56,
          "name": "G#3",
          "ticks": 350464,
          "time": 513.375,
          "velocity": 0.4645669291338583
        },
        {
          "duration": 0.35595703125,
          "durationTicks": 243,
          "midi": 51,
          "name": "D#3",
          "ticks": 350976,
          "time": 514.125,
          "velocity": 0.41732283464566927
        },
        {
          "duration": 0.35595703125,
          "durationTicks": 243,
          "midi": 55,
          "name": "G3",
          "ticks": 350976,
          "time": 514.125,
          "velocity": 0.41732283464566927
        },
        {
          "duration": 0.7646484375,
          "durationTicks": 522,
          "midi": 53,
          "name": "F3",
          "ticks": 351488,
          "time": 514.875,
          "velocity": 0.44881889763779526
        },
        {
          "duration": 0.7646484375,
          "durationTicks": 522,
          "midi": 56,
          "name": "G#3",
          "ticks": 351488,
          "time": 514.875,
          "velocity": 0.44881889763779526
        },
        {
          "duration": 0.35595703125,
          "durationTicks": 243,
          "midi": 51,
          "name": "D#3",
          "ticks": 352000,
          "time": 515.625,
          "velocity": 0.4409448818897638
        },
        {
          "duration": 0.35595703125,
          "durationTicks": 243,
          "midi": 55,
          "name": "G3",
          "ticks": 352000,
          "time": 515.625,
          "velocity": 0.4409448818897638
        },
        {
          "duration": 1.5,
          "durationTicks": 1024,
          "midi": 53,
          "name": "F3",
          "ticks": 352256,
          "time": 516,
          "velocity": 0.48031496062992124
        },
        {
          "duration": 1.5,
          "durationTicks": 1024,
          "midi": 56,
          "name": "G#3",
          "ticks": 352256,
          "time": 516,
          "velocity": 0.48031496062992124
        },
        {
          "duration": 1.5,
          "durationTicks": 1024,
          "midi": 56,
          "name": "G#3",
          "ticks": 353280,
          "time": 517.5,
          "velocity": 0.7165354330708661
        },
        {
          "duration": 1.5,
          "durationTicks": 1024,
          "midi": 62,
          "name": "D4",
          "ticks": 353280,
          "time": 517.5,
          "velocity": 0.7165354330708661
        },
        {
          "duration": 0.7646484375,
          "durationTicks": 522,
          "midi": 63,
          "name": "D#4",
          "ticks": 354304,
          "time": 519,
          "velocity": 0.8346456692913385
        },
        {
          "duration": 0.7646484375,
          "durationTicks": 522,
          "midi": 57,
          "name": "A3",
          "ticks": 354304,
          "time": 519,
          "velocity": 0.8031496062992126
        },
        {
          "duration": 0.17724609375,
          "durationTicks": 121,
          "midi": 60,
          "name": "C4",
          "ticks": 354816,
          "time": 519.75,
          "velocity": 0.8031496062992126
        },
        {
          "duration": 0.7119140625,
          "durationTicks": 486,
          "midi": 51,
          "name": "D#3",
          "ticks": 354816,
          "time": 519.75,
          "velocity": 0.7401574803149606
        },
        {
          "duration": 0.1875,
          "durationTicks": 128,
          "midi": 57,
          "name": "A3",
          "ticks": 355072,
          "time": 520.125,
          "velocity": 0.7716535433070866
        },
        {
          "duration": 0.38232421875,
          "durationTicks": 261,
          "midi": 58,
          "name": "A#3",
          "ticks": 355328,
          "time": 520.5,
          "velocity": 0.7559055118110236
        },
        {
          "duration": 0.7119140625,
          "durationTicks": 486,
          "midi": 49,
          "name": "C#3",
          "ticks": 355328,
          "time": 520.5,
          "velocity": 0.7322834645669292
        },
        {
          "duration": 0.35595703125,
          "durationTicks": 243,
          "midi": 61,
          "name": "C#4",
          "ticks": 355584,
          "time": 520.875,
          "velocity": 0.8031496062992126
        },
        {
          "duration": 1.5,
          "durationTicks": 1024,
          "midi": 65,
          "name": "F4",
          "ticks": 355840,
          "time": 521.25,
          "velocity": 0.889763779527559
        },
        {
          "duration": 0.75,
          "durationTicks": 512,
          "midi": 58,
          "name": "A#3",
          "ticks": 355840,
          "time": 521.25,
          "velocity": 0.8031496062992126
        },
        {
          "duration": 0.7646484375,
          "durationTicks": 522,
          "midi": 59,
          "name": "B3",
          "ticks": 356352,
          "time": 522,
          "velocity": 0.7952755905511811
        },
        {
          "duration": 0.17724609375,
          "durationTicks": 121,
          "midi": 62,
          "name": "D4",
          "ticks": 356864,
          "time": 522.75,
          "velocity": 0.7086614173228346
        },
        {
          "duration": 0.7119140625,
          "durationTicks": 486,
          "midi": 53,
          "name": "F3",
          "ticks": 356864,
          "time": 522.75,
          "velocity": 0.7244094488188977
        },
        {
          "duration": 0.1875,
          "durationTicks": 128,
          "midi": 59,
          "name": "B3",
          "ticks": 357120,
          "time": 523.125,
          "velocity": 0.7244094488188977
        },
        {
          "duration": 0.38232421875,
          "durationTicks": 261,
          "midi": 60,
          "name": "C4",
          "ticks": 357376,
          "time": 523.5,
          "velocity": 0.7874015748031497
        },
        {
          "duration": 0.7119140625,
          "durationTicks": 486,
          "midi": 51,
          "name": "D#3",
          "ticks": 357376,
          "time": 523.5,
          "velocity": 0.7480314960629921
        },
        {
          "duration": 0.35595703125,
          "durationTicks": 243,
          "midi": 63,
          "name": "D#4",
          "ticks": 357632,
          "time": 523.875,
          "velocity": 0.8740157480314961
        },
        {
          "duration": 1.5,
          "durationTicks": 1024,
          "midi": 67,
          "name": "G4",
          "ticks": 357888,
          "time": 524.25,
          "velocity": 0.8582677165354331
        },
        {
          "duration": 0.75,
          "durationTicks": 512,
          "midi": 60,
          "name": "C4",
          "ticks": 357888,
          "time": 524.25,
          "velocity": 0.9212598425196851
        },
        {
          "duration": 0.7646484375,
          "durationTicks": 522,
          "midi": 61,
          "name": "C#4",
          "ticks": 358400,
          "time": 525,
          "velocity": 0.8503937007874016
        },
        {
          "duration": 0.17724609375,
          "durationTicks": 121,
          "midi": 64,
          "name": "E4",
          "ticks": 358912,
          "time": 525.75,
          "velocity": 0.7322834645669292
        },
        {
          "duration": 0.7119140625,
          "durationTicks": 486,
          "midi": 55,
          "name": "G3",
          "ticks": 358912,
          "time": 525.75,
          "velocity": 0.7716535433070866
        },
        {
          "duration": 0.1875,
          "durationTicks": 128,
          "midi": 61,
          "name": "C#4",
          "ticks": 359168,
          "time": 526.125,
          "velocity": 0.6929133858267716
        },
        {
          "duration": 0.1875,
          "durationTicks": 128,
          "midi": 62,
          "name": "D4",
          "ticks": 359424,
          "time": 526.5,
          "velocity": 0.7874015748031497
        },
        {
          "duration": 0.1875,
          "durationTicks": 128,
          "midi": 62,
          "name": "D4",
          "ticks": 359552,
          "time": 526.6875,
          "velocity": 0.7795275590551181
        },
        {
          "duration": 0.1875,
          "durationTicks": 128,
          "midi": 62,
          "name": "D4",
          "ticks": 359680,
          "time": 526.875,
          "velocity": 0.7401574803149606
        },
        {
          "duration": 0.1875,
          "durationTicks": 128,
          "midi": 62,
          "name": "D4",
          "ticks": 359808,
          "time": 527.0625,
          "velocity": 0.7244094488188977
        },
        {
          "duration": 0.1875,
          "durationTicks": 128,
          "midi": 62,
          "name": "D4",
          "ticks": 359936,
          "time": 527.25,
          "velocity": 0.7716535433070866
        },
        {
          "duration": 0.1875,
          "durationTicks": 128,
          "midi": 62,
          "name": "D4",
          "ticks": 360064,
          "time": 527.4375,
          "velocity": 0.7874015748031497
        },
        {
          "duration": 0.1875,
          "durationTicks": 128,
          "midi": 62,
          "name": "D4",
          "ticks": 360192,
          "time": 527.625,
          "velocity": 0.7874015748031497
        },
        {
          "duration": 0.1875,
          "durationTicks": 128,
          "midi": 62,
          "name": "D4",
          "ticks": 360320,
          "time": 527.8125,
          "velocity": 0.7559055118110236
        },
        {
          "duration": 0.1875,
          "durationTicks": 128,
          "midi": 50,
          "name": "D3",
          "ticks": 360448,
          "time": 528,
          "velocity": 0.6456692913385826
        },
        {
          "duration": 0.1875,
          "durationTicks": 128,
          "midi": 50,
          "name": "D3",
          "ticks": 360576,
          "time": 528.1875,
          "velocity": 0.7874015748031497
        },
        {
          "duration": 0.1875,
          "durationTicks": 128,
          "midi": 50,
          "name": "D3",
          "ticks": 360704,
          "time": 528.375,
          "velocity": 0.7559055118110236
        },
        {
          "duration": 0.1875,
          "durationTicks": 128,
          "midi": 50,
          "name": "D3",
          "ticks": 360832,
          "time": 528.5625,
          "velocity": 0.7637795275590551
        },
        {
          "duration": 0.1875,
          "durationTicks": 128,
          "midi": 50,
          "name": "D3",
          "ticks": 360960,
          "time": 528.75,
          "velocity": 0.7716535433070866
        },
        {
          "duration": 0.1875,
          "durationTicks": 128,
          "midi": 50,
          "name": "D3",
          "ticks": 361088,
          "time": 528.9375,
          "velocity": 0.7952755905511811
        },
        {
          "duration": 0.1875,
          "durationTicks": 128,
          "midi": 50,
          "name": "D3",
          "ticks": 361216,
          "time": 529.125,
          "velocity": 0.7716535433070866
        },
        {
          "duration": 0.1875,
          "durationTicks": 128,
          "midi": 50,
          "name": "D3",
          "ticks": 361344,
          "time": 529.3125,
          "velocity": 0.7716535433070866
        },
        {
          "duration": 0.375,
          "durationTicks": 256,
          "midi": 55,
          "name": "G3",
          "ticks": 361472,
          "time": 529.5,
          "velocity": 0.8661417322834646
        },
        {
          "duration": 0.75,
          "durationTicks": 512,
          "midi": 46,
          "name": "A#2",
          "ticks": 361728,
          "time": 529.875,
          "velocity": 0.6929133858267716
        },
        {
          "duration": 0.375,
          "durationTicks": 256,
          "midi": 48,
          "name": "C3",
          "ticks": 362240,
          "time": 530.625,
          "velocity": 0.7559055118110236
        },
        {
          "duration": 0.375,
          "durationTicks": 256,
          "midi": 49,
          "name": "C#3",
          "ticks": 362496,
          "time": 531,
          "velocity": 0.7795275590551181
        },
        {
          "duration": 0.375,
          "durationTicks": 256,
          "midi": 50,
          "name": "D3",
          "ticks": 362752,
          "time": 531.375,
          "velocity": 0.7716535433070866
        },
        {
          "duration": 0.375,
          "durationTicks": 256,
          "midi": 51,
          "name": "D#3",
          "ticks": 363008,
          "time": 531.75,
          "velocity": 0.8031496062992126
        },
        {
          "duration": 0.375,
          "durationTicks": 256,
          "midi": 52,
          "name": "E3",
          "ticks": 363264,
          "time": 532.125,
          "velocity": 0.8031496062992126
        },
        {
          "duration": 0.375,
          "durationTicks": 256,
          "midi": 53,
          "name": "F3",
          "ticks": 363520,
          "time": 532.5,
          "velocity": 0.7716535433070866
        },
        {
          "duration": 0.375,
          "durationTicks": 256,
          "midi": 51,
          "name": "D#3",
          "ticks": 364032,
          "time": 533.25,
          "velocity": 0.6771653543307087
        },
        {
          "duration": 0.375,
          "durationTicks": 256,
          "midi": 54,
          "name": "F#3",
          "ticks": 364544,
          "time": 534,
          "velocity": 0.7007874015748031
        },
        {
          "duration": 0.375,
          "durationTicks": 256,
          "midi": 57,
          "name": "A3",
          "ticks": 364544,
          "time": 534,
          "velocity": 0.7007874015748031
        },
        {
          "duration": 0.375,
          "durationTicks": 256,
          "midi": 55,
          "name": "G3",
          "ticks": 365056,
          "time": 534.75,
          "velocity": 0.7165354330708661
        },
        {
          "duration": 0.375,
          "durationTicks": 256,
          "midi": 58,
          "name": "A#3",
          "ticks": 365056,
          "time": 534.75,
          "velocity": 0.7165354330708661
        },
        {
          "duration": 0.9375,
          "durationTicks": 640,
          "midi": 63,
          "name": "D#4",
          "ticks": 365568,
          "time": 535.5,
          "velocity": 0.7007874015748031
        },
        {
          "duration": 0.09375,
          "durationTicks": 64,
          "midi": 62,
          "name": "D4",
          "ticks": 366208,
          "time": 536.4375,
          "velocity": 0.4881889763779528
        },
        {
          "duration": 0.09375,
          "durationTicks": 64,
          "midi": 60,
          "name": "C4",
          "ticks": 366336,
          "time": 536.625,
          "velocity": 0.4881889763779528
        },
        {
          "duration": 0.09375,
          "durationTicks": 64,
          "midi": 58,
          "name": "A#3",
          "ticks": 366464,
          "time": 536.8125,
          "velocity": 0.4566929133858268
        },
        {
          "duration": 0.09375,
          "durationTicks": 64,
          "midi": 57,
          "name": "A3",
          "ticks": 366592,
          "time": 537,
          "velocity": 0.48031496062992124
        },
        {
          "duration": 0.09375,
          "durationTicks": 64,
          "midi": 55,
          "name": "G3",
          "ticks": 366720,
          "time": 537.1875,
          "velocity": 0.44881889763779526
        },
        {
          "duration": 0.09375,
          "durationTicks": 64,
          "midi": 54,
          "name": "F#3",
          "ticks": 366848,
          "time": 537.375,
          "velocity": 0.47244094488188976
        },
        {
          "duration": 0.09375,
          "durationTicks": 64,
          "midi": 51,
          "name": "D#3",
          "ticks": 366976,
          "time": 537.5625,
          "velocity": 0.4645669291338583
        },
        {
          "duration": 0.09375,
          "durationTicks": 64,
          "midi": 50,
          "name": "D3",
          "ticks": 367104,
          "time": 537.75,
          "velocity": 0.4881889763779528
        },
        {
          "duration": 0.09375,
          "durationTicks": 64,
          "midi": 48,
          "name": "C3",
          "ticks": 367232,
          "time": 537.9375,
          "velocity": 0.41732283464566927
        },
        {
          "duration": 0.09375,
          "durationTicks": 64,
          "midi": 46,
          "name": "A#2",
          "ticks": 367360,
          "time": 538.125,
          "velocity": 0.4566929133858268
        },
        {
          "duration": 0.09375,
          "durationTicks": 64,
          "midi": 45,
          "name": "A2",
          "ticks": 367488,
          "time": 538.3125,
          "velocity": 0.4409448818897638
        },
        {
          "duration": 0.375,
          "durationTicks": 256,
          "midi": 43,
          "name": "G2",
          "ticks": 367616,
          "time": 538.5,
          "velocity": 0.5039370078740157
        },
        {
          "duration": 0.1904296875,
          "durationTicks": 130,
          "midi": 63,
          "name": "D#4",
          "ticks": 369408,
          "time": 541.125,
          "velocity": 0.4251968503937008
        },
        {
          "duration": 0.17724609375,
          "durationTicks": 121,
          "midi": 62,
          "name": "D4",
          "ticks": 369536,
          "time": 541.3125,
          "velocity": 0.3700787401574803
        },
        {
          "duration": 0.1875,
          "durationTicks": 128,
          "midi": 62,
          "name": "D4",
          "ticks": 369664,
          "time": 541.5,
          "velocity": 0.4645669291338583
        },
        {
          "duration": 0.1904296875,
          "durationTicks": 130,
          "midi": 63,
          "name": "D#4",
          "ticks": 369920,
          "time": 541.875,
          "velocity": 0.5275590551181102
        },
        {
          "duration": 0.17724609375,
          "durationTicks": 121,
          "midi": 62,
          "name": "D4",
          "ticks": 370048,
          "time": 542.0625,
          "velocity": 0.5196850393700787
        },
        {
          "duration": 0.1875,
          "durationTicks": 128,
          "midi": 62,
          "name": "D4",
          "ticks": 370176,
          "time": 542.25,
          "velocity": 0.4881889763779528
        },
        {
          "duration": 0.1904296875,
          "durationTicks": 130,
          "midi": 51,
          "name": "D#3",
          "ticks": 371456,
          "time": 544.125,
          "velocity": 0.41732283464566927
        },
        {
          "duration": 0.1904296875,
          "durationTicks": 130,
          "midi": 63,
          "name": "D#4",
          "ticks": 371456,
          "time": 544.125,
          "velocity": 0.41732283464566927
        },
        {
          "duration": 0.17724609375,
          "durationTicks": 121,
          "midi": 50,
          "name": "D3",
          "ticks": 371584,
          "time": 544.3125,
          "velocity": 0.4094488188976378
        },
        {
          "duration": 0.17724609375,
          "durationTicks": 121,
          "midi": 62,
          "name": "D4",
          "ticks": 371584,
          "time": 544.3125,
          "velocity": 0.4094488188976378
        },
        {
          "duration": 0.1875,
          "durationTicks": 128,
          "midi": 50,
          "name": "D3",
          "ticks": 371712,
          "time": 544.5,
          "velocity": 0.47244094488188976
        },
        {
          "duration": 0.1875,
          "durationTicks": 128,
          "midi": 62,
          "name": "D4",
          "ticks": 371712,
          "time": 544.5,
          "velocity": 0.47244094488188976
        },
        {
          "duration": 0.1904296875,
          "durationTicks": 130,
          "midi": 51,
          "name": "D#3",
          "ticks": 371968,
          "time": 544.875,
          "velocity": 0.4881889763779528
        },
        {
          "duration": 0.1904296875,
          "durationTicks": 130,
          "midi": 63,
          "name": "D#4",
          "ticks": 371968,
          "time": 544.875,
          "velocity": 0.4881889763779528
        },
        {
          "duration": 0.17724609375,
          "durationTicks": 121,
          "midi": 50,
          "name": "D3",
          "ticks": 372096,
          "time": 545.0625,
          "velocity": 0.47244094488188976
        },
        {
          "duration": 0.17724609375,
          "durationTicks": 121,
          "midi": 62,
          "name": "D4",
          "ticks": 372096,
          "time": 545.0625,
          "velocity": 0.47244094488188976
        },
        {
          "duration": 0.1875,
          "durationTicks": 128,
          "midi": 50,
          "name": "D3",
          "ticks": 372224,
          "time": 545.25,
          "velocity": 0.4645669291338583
        },
        {
          "duration": 0.1875,
          "durationTicks": 128,
          "midi": 62,
          "name": "D4",
          "ticks": 372224,
          "time": 545.25,
          "velocity": 0.4645669291338583
        },
        {
          "duration": 0.1875,
          "durationTicks": 128,
          "midi": 55,
          "name": "G3",
          "ticks": 372736,
          "time": 546,
          "velocity": 0.6771653543307087
        },
        {
          "duration": 0.1875,
          "durationTicks": 128,
          "midi": 55,
          "name": "G3",
          "ticks": 372864,
          "time": 546.1875,
          "velocity": 0.7716535433070866
        },
        {
          "duration": 0.1875,
          "durationTicks": 128,
          "midi": 55,
          "name": "G3",
          "ticks": 372992,
          "time": 546.375,
          "velocity": 0.7559055118110236
        },
        {
          "duration": 0.1875,
          "durationTicks": 128,
          "midi": 55,
          "name": "G3",
          "ticks": 373120,
          "time": 546.5625,
          "velocity": 0.7401574803149606
        },
        {
          "duration": 0.1875,
          "durationTicks": 128,
          "midi": 55,
          "name": "G3",
          "ticks": 373248,
          "time": 546.75,
          "velocity": 0.8031496062992126
        },
        {
          "duration": 0.1875,
          "durationTicks": 128,
          "midi": 55,
          "name": "G3",
          "ticks": 373376,
          "time": 546.9375,
          "velocity": 0.8110236220472441
        },
        {
          "duration": 0.1875,
          "durationTicks": 128,
          "midi": 55,
          "name": "G3",
          "ticks": 373504,
          "time": 547.125,
          "velocity": 0.7244094488188977
        },
        {
          "duration": 0.1875,
          "durationTicks": 128,
          "midi": 55,
          "name": "G3",
          "ticks": 373632,
          "time": 547.3125,
          "velocity": 0.7795275590551181
        },
        {
          "duration": 0.1875,
          "durationTicks": 128,
          "midi": 60,
          "name": "C4",
          "ticks": 373760,
          "time": 547.5,
          "velocity": 0.8740157480314961
        },
        {
          "duration": 0.1875,
          "durationTicks": 128,
          "midi": 60,
          "name": "C4",
          "ticks": 373888,
          "time": 547.6875,
          "velocity": 0.8346456692913385
        },
        {
          "duration": 0.1875,
          "durationTicks": 128,
          "midi": 60,
          "name": "C4",
          "ticks": 374016,
          "time": 547.875,
          "velocity": 0.7795275590551181
        },
        {
          "duration": 0.1875,
          "durationTicks": 128,
          "midi": 60,
          "name": "C4",
          "ticks": 374144,
          "time": 548.0625,
          "velocity": 0.7874015748031497
        },
        {
          "duration": 0.1875,
          "durationTicks": 128,
          "midi": 60,
          "name": "C4",
          "ticks": 374272,
          "time": 548.25,
          "velocity": 0.7480314960629921
        },
        {
          "duration": 0.1875,
          "durationTicks": 128,
          "midi": 60,
          "name": "C4",
          "ticks": 374400,
          "time": 548.4375,
          "velocity": 0.7874015748031497
        },
        {
          "duration": 0.1875,
          "durationTicks": 128,
          "midi": 60,
          "name": "C4",
          "ticks": 374528,
          "time": 548.625,
          "velocity": 0.7559055118110236
        },
        {
          "duration": 0.1875,
          "durationTicks": 128,
          "midi": 60,
          "name": "C4",
          "ticks": 374656,
          "time": 548.8125,
          "velocity": 0.7322834645669292
        },
        {
          "duration": 0.1875,
          "durationTicks": 128,
          "midi": 62,
          "name": "D4",
          "ticks": 374784,
          "time": 549,
          "velocity": 0.8582677165354331
        },
        {
          "duration": 0.1875,
          "durationTicks": 128,
          "midi": 62,
          "name": "D4",
          "ticks": 374912,
          "time": 549.1875,
          "velocity": 0.7716535433070866
        },
        {
          "duration": 0.1875,
          "durationTicks": 128,
          "midi": 62,
          "name": "D4",
          "ticks": 375040,
          "time": 549.375,
          "velocity": 0.7795275590551181
        },
        {
          "duration": 0.1875,
          "durationTicks": 128,
          "midi": 62,
          "name": "D4",
          "ticks": 375168,
          "time": 549.5625,
          "velocity": 0.7716535433070866
        },
        {
          "duration": 0.1875,
          "durationTicks": 128,
          "midi": 50,
          "name": "D3",
          "ticks": 375296,
          "time": 549.75,
          "velocity": 0.6771653543307087
        },
        {
          "duration": 0.1875,
          "durationTicks": 128,
          "midi": 50,
          "name": "D3",
          "ticks": 375424,
          "time": 549.9375,
          "velocity": 0.7401574803149606
        },
        {
          "duration": 0.1875,
          "durationTicks": 128,
          "midi": 50,
          "name": "D3",
          "ticks": 375552,
          "time": 550.125,
          "velocity": 0.7795275590551181
        },
        {
          "duration": 0.1875,
          "durationTicks": 128,
          "midi": 50,
          "name": "D3",
          "ticks": 375680,
          "time": 550.3125,
          "velocity": 0.7559055118110236
        },
        {
          "duration": 0.375,
          "durationTicks": 256,
          "midi": 55,
          "name": "G3",
          "ticks": 375808,
          "time": 550.5,
          "velocity": 0.8188976377952756
        },
        {
          "duration": 0.1904296875,
          "durationTicks": 130,
          "midi": 63,
          "name": "D#4",
          "ticks": 376576,
          "time": 551.625,
          "velocity": 0.4330708661417323
        },
        {
          "duration": 0.17724609375,
          "durationTicks": 121,
          "midi": 62,
          "name": "D4",
          "ticks": 376704,
          "time": 551.8125,
          "velocity": 0.4330708661417323
        },
        {
          "duration": 0.1875,
          "durationTicks": 128,
          "midi": 62,
          "name": "D4",
          "ticks": 376832,
          "time": 552,
          "velocity": 0.4881889763779528
        },
        {
          "duration": 0.1904296875,
          "durationTicks": 130,
          "midi": 63,
          "name": "D#4",
          "ticks": 377088,
          "time": 552.375,
          "velocity": 0.5275590551181102
        },
        {
          "duration": 0.17724609375,
          "durationTicks": 121,
          "midi": 62,
          "name": "D4",
          "ticks": 377216,
          "time": 552.5625,
          "velocity": 0.5196850393700787
        },
        {
          "duration": 0.1875,
          "durationTicks": 128,
          "midi": 62,
          "name": "D4",
          "ticks": 377344,
          "time": 552.75,
          "velocity": 0.48031496062992124
        },
        {
          "duration": 0.1904296875,
          "durationTicks": 130,
          "midi": 51,
          "name": "D#3",
          "ticks": 378624,
          "time": 554.625,
          "velocity": 0.4015748031496063
        },
        {
          "duration": 0.1904296875,
          "durationTicks": 130,
          "midi": 63,
          "name": "D#4",
          "ticks": 378624,
          "time": 554.625,
          "velocity": 0.4015748031496063
        },
        {
          "duration": 0.17724609375,
          "durationTicks": 121,
          "midi": 50,
          "name": "D3",
          "ticks": 378752,
          "time": 554.8125,
          "velocity": 0.3700787401574803
        },
        {
          "duration": 0.17724609375,
          "durationTicks": 121,
          "midi": 62,
          "name": "D4",
          "ticks": 378752,
          "time": 554.8125,
          "velocity": 0.3700787401574803
        },
        {
          "duration": 0.1875,
          "durationTicks": 128,
          "midi": 50,
          "name": "D3",
          "ticks": 378880,
          "time": 555,
          "velocity": 0.4881889763779528
        },
        {
          "duration": 0.1875,
          "durationTicks": 128,
          "midi": 62,
          "name": "D4",
          "ticks": 378880,
          "time": 555,
          "velocity": 0.4881889763779528
        },
        {
          "duration": 0.1904296875,
          "durationTicks": 130,
          "midi": 51,
          "name": "D#3",
          "ticks": 379136,
          "time": 555.375,
          "velocity": 0.5118110236220472
        },
        {
          "duration": 0.1904296875,
          "durationTicks": 130,
          "midi": 63,
          "name": "D#4",
          "ticks": 379136,
          "time": 555.375,
          "velocity": 0.5118110236220472
        },
        {
          "duration": 0.17724609375,
          "durationTicks": 121,
          "midi": 50,
          "name": "D3",
          "ticks": 379264,
          "time": 555.5625,
          "velocity": 0.47244094488188976
        },
        {
          "duration": 0.17724609375,
          "durationTicks": 121,
          "midi": 62,
          "name": "D4",
          "ticks": 379264,
          "time": 555.5625,
          "velocity": 0.47244094488188976
        },
        {
          "duration": 0.1875,
          "durationTicks": 128,
          "midi": 50,
          "name": "D3",
          "ticks": 379392,
          "time": 555.75,
          "velocity": 0.4645669291338583
        },
        {
          "duration": 0.1875,
          "durationTicks": 128,
          "midi": 62,
          "name": "D4",
          "ticks": 379392,
          "time": 555.75,
          "velocity": 0.4645669291338583
        },
        {
          "duration": 0.1875,
          "durationTicks": 128,
          "midi": 55,
          "name": "G3",
          "ticks": 380928,
          "time": 558,
          "velocity": 0.6771653543307087
        },
        {
          "duration": 0.1875,
          "durationTicks": 128,
          "midi": 55,
          "name": "G3",
          "ticks": 381056,
          "time": 558.1875,
          "velocity": 0.8031496062992126
        },
        {
          "duration": 0.1875,
          "durationTicks": 128,
          "midi": 55,
          "name": "G3",
          "ticks": 381184,
          "time": 558.375,
          "velocity": 0.7952755905511811
        },
        {
          "duration": 0.1875,
          "durationTicks": 128,
          "midi": 55,
          "name": "G3",
          "ticks": 381312,
          "time": 558.5625,
          "velocity": 0.7637795275590551
        },
        {
          "duration": 0.1875,
          "durationTicks": 128,
          "midi": 55,
          "name": "G3",
          "ticks": 381440,
          "time": 558.75,
          "velocity": 0.7874015748031497
        },
        {
          "duration": 0.1875,
          "durationTicks": 128,
          "midi": 55,
          "name": "G3",
          "ticks": 381568,
          "time": 558.9375,
          "velocity": 0.7559055118110236
        },
        {
          "duration": 0.1875,
          "durationTicks": 128,
          "midi": 55,
          "name": "G3",
          "ticks": 381696,
          "time": 559.125,
          "velocity": 0.7480314960629921
        },
        {
          "duration": 0.1875,
          "durationTicks": 128,
          "midi": 55,
          "name": "G3",
          "ticks": 381824,
          "time": 559.3125,
          "velocity": 0.8110236220472441
        },
        {
          "duration": 0.1875,
          "durationTicks": 128,
          "midi": 60,
          "name": "C4",
          "ticks": 381952,
          "time": 559.5,
          "velocity": 0.8503937007874016
        },
        {
          "duration": 0.1875,
          "durationTicks": 128,
          "midi": 60,
          "name": "C4",
          "ticks": 382080,
          "time": 559.6875,
          "velocity": 0.7795275590551181
        },
        {
          "duration": 0.1875,
          "durationTicks": 128,
          "midi": 60,
          "name": "C4",
          "ticks": 382208,
          "time": 559.875,
          "velocity": 0.7716535433070866
        },
        {
          "duration": 0.1875,
          "durationTicks": 128,
          "midi": 60,
          "name": "C4",
          "ticks": 382336,
          "time": 560.0625,
          "velocity": 0.8031496062992126
        },
        {
          "duration": 0.1875,
          "durationTicks": 128,
          "midi": 60,
          "name": "C4",
          "ticks": 382464,
          "time": 560.25,
          "velocity": 0.7716535433070866
        },
        {
          "duration": 0.1875,
          "durationTicks": 128,
          "midi": 60,
          "name": "C4",
          "ticks": 382592,
          "time": 560.4375,
          "velocity": 0.7322834645669292
        },
        {
          "duration": 0.1875,
          "durationTicks": 128,
          "midi": 60,
          "name": "C4",
          "ticks": 382720,
          "time": 560.625,
          "velocity": 0.7874015748031497
        },
        {
          "duration": 0.1875,
          "durationTicks": 128,
          "midi": 60,
          "name": "C4",
          "ticks": 382848,
          "time": 560.8125,
          "velocity": 0.7559055118110236
        },
        {
          "duration": 0.1875,
          "durationTicks": 128,
          "midi": 62,
          "name": "D4",
          "ticks": 382976,
          "time": 561,
          "velocity": 0.8110236220472441
        },
        {
          "duration": 0.1875,
          "durationTicks": 128,
          "midi": 62,
          "name": "D4",
          "ticks": 383104,
          "time": 561.1875,
          "velocity": 0.7637795275590551
        },
        {
          "duration": 0.1875,
          "durationTicks": 128,
          "midi": 62,
          "name": "D4",
          "ticks": 383232,
          "time": 561.375,
          "velocity": 0.7559055118110236
        },
        {
          "duration": 0.1875,
          "durationTicks": 128,
          "midi": 62,
          "name": "D4",
          "ticks": 383360,
          "time": 561.5625,
          "velocity": 0.7322834645669292
        },
        {
          "duration": 0.1875,
          "durationTicks": 128,
          "midi": 50,
          "name": "D3",
          "ticks": 383488,
          "time": 561.75,
          "velocity": 0.6771653543307087
        },
        {
          "duration": 0.1875,
          "durationTicks": 128,
          "midi": 50,
          "name": "D3",
          "ticks": 383616,
          "time": 561.9375,
          "velocity": 0.7716535433070866
        },
        {
          "duration": 0.1875,
          "durationTicks": 128,
          "midi": 50,
          "name": "D3",
          "ticks": 383744,
          "time": 562.125,
          "velocity": 0.7874015748031497
        },
        {
          "duration": 0.1875,
          "durationTicks": 128,
          "midi": 50,
          "name": "D3",
          "ticks": 383872,
          "time": 562.3125,
          "velocity": 0.7637795275590551
        },
        {
          "duration": 0.75,
          "durationTicks": 512,
          "midi": 55,
          "name": "G3",
          "ticks": 384000,
          "time": 562.5,
          "velocity": 0.8031496062992126
        },
        {
          "duration": 0.1875,
          "durationTicks": 128,
          "midi": 62,
          "name": "D4",
          "ticks": 384896,
          "time": 563.8125,
          "velocity": 0.7322834645669292
        },
        {
          "duration": 0.1875,
          "durationTicks": 128,
          "midi": 60,
          "name": "C4",
          "ticks": 385024,
          "time": 564,
          "velocity": 0.7322834645669292
        },
        {
          "duration": 0.1875,
          "durationTicks": 128,
          "midi": 58,
          "name": "A#3",
          "ticks": 385152,
          "time": 564.1875,
          "velocity": 0.7165354330708661
        },
        {
          "duration": 0.1875,
          "durationTicks": 128,
          "midi": 57,
          "name": "A3",
          "ticks": 385280,
          "time": 564.375,
          "velocity": 0.7795275590551181
        },
        {
          "duration": 0.1875,
          "durationTicks": 128,
          "midi": 55,
          "name": "G3",
          "ticks": 385408,
          "time": 564.5625,
          "velocity": 0.7716535433070866
        },
        {
          "duration": 0.1875,
          "durationTicks": 128,
          "midi": 54,
          "name": "F#3",
          "ticks": 385536,
          "time": 564.75,
          "velocity": 0.7795275590551181
        },
        {
          "duration": 0.1875,
          "durationTicks": 128,
          "midi": 51,
          "name": "D#3",
          "ticks": 385664,
          "time": 564.9375,
          "velocity": 0.7559055118110236
        },
        {
          "duration": 0.1875,
          "durationTicks": 128,
          "midi": 50,
          "name": "D3",
          "ticks": 385792,
          "time": 565.125,
          "velocity": 0.7480314960629921
        },
        {
          "duration": 0.1875,
          "durationTicks": 128,
          "midi": 48,
          "name": "C3",
          "ticks": 385920,
          "time": 565.3125,
          "velocity": 0.7480314960629921
        },
        {
          "duration": 0.375,
          "durationTicks": 256,
          "midi": 46,
          "name": "A#2",
          "ticks": 386048,
          "time": 565.5,
          "velocity": 0.7874015748031497
        },
        {
          "duration": 0.375,
          "durationTicks": 256,
          "midi": 46,
          "name": "A#2",
          "ticks": 386304,
          "time": 565.875,
          "velocity": 0.7716535433070866
        },
        {
          "duration": 0.375,
          "durationTicks": 256,
          "midi": 48,
          "name": "C3",
          "ticks": 386560,
          "time": 566.25,
          "velocity": 0.7874015748031497
        },
        {
          "duration": 0.375,
          "durationTicks": 256,
          "midi": 50,
          "name": "D3",
          "ticks": 386816,
          "time": 566.625,
          "velocity": 0.8188976377952756
        },
        {
          "duration": 0.1875,
          "durationTicks": 128,
          "midi": 55,
          "name": "G3",
          "ticks": 387072,
          "time": 567,
          "velocity": 0.8346456692913385
        },
        {
          "duration": 0.1875,
          "durationTicks": 128,
          "midi": 50,
          "name": "D3",
          "ticks": 387200,
          "time": 567.1875,
          "velocity": 0.7559055118110236
        },
        {
          "duration": 0.1875,
          "durationTicks": 128,
          "midi": 58,
          "name": "A#3",
          "ticks": 387328,
          "time": 567.375,
          "velocity": 0.8346456692913385
        },
        {
          "duration": 0.1875,
          "durationTicks": 128,
          "midi": 57,
          "name": "A3",
          "ticks": 387456,
          "time": 567.5625,
          "velocity": 0.7559055118110236
        },
        {
          "duration": 0.1875,
          "durationTicks": 128,
          "midi": 55,
          "name": "G3",
          "ticks": 387584,
          "time": 567.75,
          "velocity": 0.7401574803149606
        },
        {
          "duration": 0.1875,
          "durationTicks": 128,
          "midi": 53,
          "name": "F3",
          "ticks": 387712,
          "time": 567.9375,
          "velocity": 0.7401574803149606
        },
        {
          "duration": 0.1875,
          "durationTicks": 128,
          "midi": 51,
          "name": "D#3",
          "ticks": 387840,
          "time": 568.125,
          "velocity": 0.7165354330708661
        },
        {
          "duration": 0.1875,
          "durationTicks": 128,
          "midi": 50,
          "name": "D3",
          "ticks": 387968,
          "time": 568.3125,
          "velocity": 0.7637795275590551
        },
        {
          "duration": 0.1875,
          "durationTicks": 128,
          "midi": 49,
          "name": "C#3",
          "ticks": 388096,
          "time": 568.5,
          "velocity": 0.7322834645669292
        },
        {
          "duration": 0.1875,
          "durationTicks": 128,
          "midi": 52,
          "name": "E3",
          "ticks": 388224,
          "time": 568.6875,
          "velocity": 0.7795275590551181
        },
        {
          "duration": 0.1875,
          "durationTicks": 128,
          "midi": 57,
          "name": "A3",
          "ticks": 388352,
          "time": 568.875,
          "velocity": 0.8346456692913385
        },
        {
          "duration": 0.1875,
          "durationTicks": 128,
          "midi": 55,
          "name": "G3",
          "ticks": 388480,
          "time": 569.0625,
          "velocity": 0.7716535433070866
        },
        {
          "duration": 0.1875,
          "durationTicks": 128,
          "midi": 54,
          "name": "F#3",
          "ticks": 388608,
          "time": 569.25,
          "velocity": 0.7716535433070866
        },
        {
          "duration": 0.1875,
          "durationTicks": 128,
          "midi": 51,
          "name": "D#3",
          "ticks": 388736,
          "time": 569.4375,
          "velocity": 0.7165354330708661
        },
        {
          "duration": 0.1875,
          "durationTicks": 128,
          "midi": 50,
          "name": "D3",
          "ticks": 388864,
          "time": 569.625,
          "velocity": 0.7716535433070866
        },
        {
          "duration": 0.1875,
          "durationTicks": 128,
          "midi": 48,
          "name": "C3",
          "ticks": 388992,
          "time": 569.8125,
          "velocity": 0.7322834645669292
        },
        {
          "duration": 0.375,
          "durationTicks": 256,
          "midi": 46,
          "name": "A#2",
          "ticks": 389120,
          "time": 570,
          "velocity": 0.7401574803149606
        },
        {
          "duration": 0.7646484375,
          "durationTicks": 522,
          "midi": 55,
          "name": "G3",
          "ticks": 389376,
          "time": 570.375,
          "velocity": 0.8661417322834646
        },
        {
          "duration": 0.7646484375,
          "durationTicks": 522,
          "midi": 56,
          "name": "G#3",
          "ticks": 389888,
          "time": 571.125,
          "velocity": 0.889763779527559
        },
        {
          "duration": 0.7646484375,
          "durationTicks": 522,
          "midi": 57,
          "name": "A3",
          "ticks": 390400,
          "time": 571.875,
          "velocity": 0.7874015748031497
        },
        {
          "duration": 0.7646484375,
          "durationTicks": 522,
          "midi": 58,
          "name": "A#3",
          "ticks": 390912,
          "time": 572.625,
          "velocity": 0.8110236220472441
        },
        {
          "duration": 0.7646484375,
          "durationTicks": 522,
          "midi": 59,
          "name": "B3",
          "ticks": 391424,
          "time": 573.375,
          "velocity": 0.7952755905511811
        },
        {
          "duration": 0.7646484375,
          "durationTicks": 522,
          "midi": 60,
          "name": "C4",
          "ticks": 391936,
          "time": 574.125,
          "velocity": 0.8582677165354331
        },
        {
          "duration": 0.7119140625,
          "durationTicks": 486,
          "midi": 61,
          "name": "C#4",
          "ticks": 392448,
          "time": 574.875,
          "velocity": 0.7874015748031497
        },
        {
          "duration": 0.09375,
          "durationTicks": 64,
          "midi": 50,
          "name": "D3",
          "ticks": 393152,
          "time": 575.90625,
          "velocity": 0.4566929133858268
        },
        {
          "duration": 0.09375,
          "durationTicks": 64,
          "midi": 62,
          "name": "D4",
          "ticks": 393152,
          "time": 575.90625,
          "velocity": 0.4566929133858268
        },
        {
          "duration": 3,
          "durationTicks": 2048,
          "midi": 50,
          "name": "D3",
          "ticks": 393216,
          "time": 576,
          "velocity": 0.49606299212598426
        },
        {
          "duration": 3.375,
          "durationTicks": 2304,
          "midi": 62,
          "name": "D4",
          "ticks": 393216,
          "time": 576,
          "velocity": 0.49606299212598426
        },
        {
          "duration": 0.375,
          "durationTicks": 256,
          "midi": 55,
          "name": "G3",
          "ticks": 395264,
          "time": 579,
          "velocity": 0.5118110236220472
        },
        {
          "duration": 0.1875,
          "durationTicks": 128,
          "midi": 63,
          "name": "D#4",
          "ticks": 400128,
          "time": 586.125,
          "velocity": 0.47244094488188976
        },
        {
          "duration": 0.1875,
          "durationTicks": 128,
          "midi": 62,
          "name": "D4",
          "ticks": 400256,
          "time": 586.3125,
          "velocity": 0.4566929133858268
        },
        {
          "duration": 0.375,
          "durationTicks": 256,
          "midi": 62,
          "name": "D4",
          "ticks": 400384,
          "time": 586.5,
          "velocity": 0.48031496062992124
        },
        {
          "duration": 0.1875,
          "durationTicks": 128,
          "midi": 63,
          "name": "D#4",
          "ticks": 400640,
          "time": 586.875,
          "velocity": 0.4566929133858268
        },
        {
          "duration": 0.1875,
          "durationTicks": 128,
          "midi": 62,
          "name": "D4",
          "ticks": 400768,
          "time": 587.0625,
          "velocity": 0.44881889763779526
        },
        {
          "duration": 0.375,
          "durationTicks": 256,
          "midi": 62,
          "name": "D4",
          "ticks": 400896,
          "time": 587.25,
          "velocity": 0.4881889763779528
        },
        {
          "duration": 0.1875,
          "durationTicks": 128,
          "midi": 63,
          "name": "D#4",
          "ticks": 401152,
          "time": 587.625,
          "velocity": 0.4645669291338583
        },
        {
          "duration": 0.1875,
          "durationTicks": 128,
          "midi": 62,
          "name": "D4",
          "ticks": 401280,
          "time": 587.8125,
          "velocity": 0.47244094488188976
        },
        {
          "duration": 0.375,
          "durationTicks": 256,
          "midi": 50,
          "name": "D3",
          "ticks": 401408,
          "time": 588,
          "velocity": 0.7559055118110236
        },
        {
          "duration": 0.375,
          "durationTicks": 256,
          "midi": 62,
          "name": "D4",
          "ticks": 401408,
          "time": 588,
          "velocity": 0.7559055118110236
        },
        {
          "duration": 0.1875,
          "durationTicks": 128,
          "midi": 55,
          "name": "G3",
          "ticks": 401664,
          "time": 588.375,
          "velocity": 0.7322834645669292
        },
        {
          "duration": 0.1875,
          "durationTicks": 128,
          "midi": 58,
          "name": "A#3",
          "ticks": 401664,
          "time": 588.375,
          "velocity": 0.7322834645669292
        },
        {
          "duration": 0.1875,
          "durationTicks": 128,
          "midi": 55,
          "name": "G3",
          "ticks": 401792,
          "time": 588.5625,
          "velocity": 0.7795275590551181
        },
        {
          "duration": 0.1875,
          "durationTicks": 128,
          "midi": 58,
          "name": "A#3",
          "ticks": 401792,
          "time": 588.5625,
          "velocity": 0.7795275590551181
        },
        {
          "duration": 0.375,
          "durationTicks": 256,
          "midi": 57,
          "name": "A3",
          "ticks": 401920,
          "time": 588.75,
          "velocity": 0.8110236220472441
        },
        {
          "duration": 0.375,
          "durationTicks": 256,
          "midi": 60,
          "name": "C4",
          "ticks": 401920,
          "time": 588.75,
          "velocity": 0.8110236220472441
        },
        {
          "duration": 0.1875,
          "durationTicks": 128,
          "midi": 57,
          "name": "A3",
          "ticks": 402176,
          "time": 589.125,
          "velocity": 0.7559055118110236
        },
        {
          "duration": 0.1875,
          "durationTicks": 128,
          "midi": 60,
          "name": "C4",
          "ticks": 402176,
          "time": 589.125,
          "velocity": 0.7559055118110236
        },
        {
          "duration": 0.1875,
          "durationTicks": 128,
          "midi": 57,
          "name": "A3",
          "ticks": 402304,
          "time": 589.3125,
          "velocity": 0.7795275590551181
        },
        {
          "duration": 0.1875,
          "durationTicks": 128,
          "midi": 60,
          "name": "C4",
          "ticks": 402304,
          "time": 589.3125,
          "velocity": 0.7795275590551181
        },
        {
          "duration": 0.375,
          "durationTicks": 256,
          "midi": 55,
          "name": "G3",
          "ticks": 402432,
          "time": 589.5,
          "velocity": 0.7480314960629921
        },
        {
          "duration": 0.375,
          "durationTicks": 256,
          "midi": 58,
          "name": "A#3",
          "ticks": 402432,
          "time": 589.5,
          "velocity": 0.7480314960629921
        },
        {
          "duration": 0.1875,
          "durationTicks": 128,
          "midi": 55,
          "name": "G3",
          "ticks": 402688,
          "time": 589.875,
          "velocity": 0.7716535433070866
        },
        {
          "duration": 0.1875,
          "durationTicks": 128,
          "midi": 58,
          "name": "A#3",
          "ticks": 402688,
          "time": 589.875,
          "velocity": 0.7716535433070866
        },
        {
          "duration": 0.1875,
          "durationTicks": 128,
          "midi": 55,
          "name": "G3",
          "ticks": 402816,
          "time": 590.0625,
          "velocity": 0.7637795275590551
        },
        {
          "duration": 0.1875,
          "durationTicks": 128,
          "midi": 58,
          "name": "A#3",
          "ticks": 402816,
          "time": 590.0625,
          "velocity": 0.7637795275590551
        },
        {
          "duration": 0.375,
          "durationTicks": 256,
          "midi": 57,
          "name": "A3",
          "ticks": 402944,
          "time": 590.25,
          "velocity": 0.8110236220472441
        },
        {
          "duration": 0.375,
          "durationTicks": 256,
          "midi": 60,
          "name": "C4",
          "ticks": 402944,
          "time": 590.25,
          "velocity": 0.8110236220472441
        },
        {
          "duration": 0.1875,
          "durationTicks": 128,
          "midi": 57,
          "name": "A3",
          "ticks": 403200,
          "time": 590.625,
          "velocity": 0.7322834645669292
        },
        {
          "duration": 0.1875,
          "durationTicks": 128,
          "midi": 60,
          "name": "C4",
          "ticks": 403200,
          "time": 590.625,
          "velocity": 0.7322834645669292
        },
        {
          "duration": 0.1875,
          "durationTicks": 128,
          "midi": 57,
          "name": "A3",
          "ticks": 403328,
          "time": 590.8125,
          "velocity": 0.7637795275590551
        },
        {
          "duration": 0.1875,
          "durationTicks": 128,
          "midi": 60,
          "name": "C4",
          "ticks": 403328,
          "time": 590.8125,
          "velocity": 0.7637795275590551
        },
        {
          "duration": 0.375,
          "durationTicks": 256,
          "midi": 55,
          "name": "G3",
          "ticks": 403456,
          "time": 591,
          "velocity": 0.7244094488188977
        },
        {
          "duration": 0.375,
          "durationTicks": 256,
          "midi": 58,
          "name": "A#3",
          "ticks": 403456,
          "time": 591,
          "velocity": 0.7244094488188977
        },
        {
          "duration": 0.1875,
          "durationTicks": 128,
          "midi": 55,
          "name": "G3",
          "ticks": 403712,
          "time": 591.375,
          "velocity": 0.7795275590551181
        },
        {
          "duration": 0.1875,
          "durationTicks": 128,
          "midi": 58,
          "name": "A#3",
          "ticks": 403712,
          "time": 591.375,
          "velocity": 0.7795275590551181
        },
        {
          "duration": 0.1875,
          "durationTicks": 128,
          "midi": 55,
          "name": "G3",
          "ticks": 403840,
          "time": 591.5625,
          "velocity": 0.7716535433070866
        },
        {
          "duration": 0.1875,
          "durationTicks": 128,
          "midi": 58,
          "name": "A#3",
          "ticks": 403840,
          "time": 591.5625,
          "velocity": 0.7716535433070866
        },
        {
          "duration": 0.375,
          "durationTicks": 256,
          "midi": 57,
          "name": "A3",
          "ticks": 403968,
          "time": 591.75,
          "velocity": 0.8267716535433071
        },
        {
          "duration": 0.375,
          "durationTicks": 256,
          "midi": 60,
          "name": "C4",
          "ticks": 403968,
          "time": 591.75,
          "velocity": 0.8267716535433071
        },
        {
          "duration": 0.1875,
          "durationTicks": 128,
          "midi": 57,
          "name": "A3",
          "ticks": 404224,
          "time": 592.125,
          "velocity": 0.8110236220472441
        },
        {
          "duration": 0.1875,
          "durationTicks": 128,
          "midi": 60,
          "name": "C4",
          "ticks": 404224,
          "time": 592.125,
          "velocity": 0.8110236220472441
        },
        {
          "duration": 0.1875,
          "durationTicks": 128,
          "midi": 57,
          "name": "A3",
          "ticks": 404352,
          "time": 592.3125,
          "velocity": 0.7480314960629921
        },
        {
          "duration": 0.1875,
          "durationTicks": 128,
          "midi": 60,
          "name": "C4",
          "ticks": 404352,
          "time": 592.3125,
          "velocity": 0.7480314960629921
        },
        {
          "duration": 0.375,
          "durationTicks": 256,
          "midi": 55,
          "name": "G3",
          "ticks": 404480,
          "time": 592.5,
          "velocity": 0.7559055118110236
        },
        {
          "duration": 0.375,
          "durationTicks": 256,
          "midi": 58,
          "name": "A#3",
          "ticks": 404480,
          "time": 592.5,
          "velocity": 0.7559055118110236
        },
        {
          "duration": 0.375,
          "durationTicks": 256,
          "midi": 57,
          "name": "A3",
          "ticks": 404736,
          "time": 592.875,
          "velocity": 0.9291338582677166
        },
        {
          "duration": 0.375,
          "durationTicks": 256,
          "midi": 66,
          "name": "F#4",
          "ticks": 404736,
          "time": 592.875,
          "velocity": 0.9291338582677166
        },
        {
          "duration": 0.375,
          "durationTicks": 256,
          "midi": 58,
          "name": "A#3",
          "ticks": 404992,
          "time": 593.25,
          "velocity": 0.8031496062992126
        },
        {
          "duration": 0.375,
          "durationTicks": 256,
          "midi": 67,
          "name": "G4",
          "ticks": 404992,
          "time": 593.25,
          "velocity": 0.8031496062992126
        },
        {
          "duration": 0.375,
          "durationTicks": 256,
          "midi": 57,
          "name": "A3",
          "ticks": 405248,
          "time": 593.625,
          "velocity": 0.7480314960629921
        },
        {
          "duration": 0.375,
          "durationTicks": 256,
          "midi": 66,
          "name": "F#4",
          "ticks": 405248,
          "time": 593.625,
          "velocity": 0.7480314960629921
        },
        {
          "duration": 0.375,
          "durationTicks": 256,
          "midi": 58,
          "name": "A#3",
          "ticks": 405504,
          "time": 594,
          "velocity": 0.8110236220472441
        },
        {
          "duration": 0.375,
          "durationTicks": 256,
          "midi": 67,
          "name": "G4",
          "ticks": 405504,
          "time": 594,
          "velocity": 0.8110236220472441
        },
        {
          "duration": 0.375,
          "durationTicks": 256,
          "midi": 55,
          "name": "G3",
          "ticks": 406528,
          "time": 595.5,
          "velocity": 0.6456692913385826
        },
        {
          "duration": 0.375,
          "durationTicks": 256,
          "midi": 62,
          "name": "D4",
          "ticks": 406528,
          "time": 595.5,
          "velocity": 0.6456692913385826
        },
        {
          "duration": 0.375,
          "durationTicks": 256,
          "midi": 55,
          "name": "G3",
          "ticks": 407040,
          "time": 596.25,
          "velocity": 0.7401574803149606
        },
        {
          "duration": 0.375,
          "durationTicks": 256,
          "midi": 62,
          "name": "D4",
          "ticks": 407040,
          "time": 596.25,
          "velocity": 0.7401574803149606
        },
        {
          "duration": 0.75,
          "durationTicks": 512,
          "midi": 43,
          "name": "G2",
          "ticks": 407552,
          "time": 597,
          "velocity": 0.6614173228346457
        },
        {
          "duration": 0.75,
          "durationTicks": 512,
          "midi": 62,
          "name": "D4",
          "ticks": 407552,
          "time": 597,
          "velocity": 0.6614173228346457
        }
      ],
      "endOfTrackTicks": 408065
    },
    {
      "channel": 4,
      "controlChanges": {
        "7": [
          {
            "number": 7,
            "ticks": 0,
            "time": 0,
            "value": 0.6141732283464567
          }
        ],
        "10": [
          {
            "number": 10,
            "ticks": 0,
            "time": 0,
            "value": 0.36220472440944884
          }
        ],
        "64": [
          {
            "number": 64,
            "ticks": 0,
            "time": 0,
            "value": 0
          }
        ],
        "91": [
          {
            "number": 91,
            "ticks": 0,
            "time": 0,
            "value": 0.4881889763779528
          }
        ],
        "121": [
          {
            "number": 121,
            "ticks": 0,
            "time": 0,
            "value": 0
          }
        ]
      },
      "pitchBends": [],
      "instrument": {
        "family": "brass",
        "number": 60,
        "name": "french horn"
      },
      "name": "Horn in F",
      "notes": [
        {
          "duration": 0.75,
          "durationTicks": 512,
          "midi": 58,
          "name": "A#3",
          "ticks": 15872,
          "time": 23.25,
          "velocity": 0.6771653543307087
        },
        {
          "duration": 0.375,
          "durationTicks": 256,
          "midi": 62,
          "name": "D4",
          "ticks": 16384,
          "time": 24,
          "velocity": 0.8110236220472441
        },
        {
          "duration": 0.7646484375,
          "durationTicks": 522,
          "midi": 58,
          "name": "A#3",
          "ticks": 16896,
          "time": 24.75,
          "velocity": 0.7086614173228346
        },
        {
          "duration": 0.35595703125,
          "durationTicks": 243,
          "midi": 62,
          "name": "D4",
          "ticks": 17408,
          "time": 25.5,
          "velocity": 0.7716535433070866
        },
        {
          "duration": 0.7646484375,
          "durationTicks": 522,
          "midi": 58,
          "name": "A#3",
          "ticks": 17920,
          "time": 26.25,
          "velocity": 0.7244094488188977
        },
        {
          "duration": 0.35595703125,
          "durationTicks": 243,
          "midi": 62,
          "name": "D4",
          "ticks": 18432,
          "time": 27,
          "velocity": 0.7874015748031497
        },
        {
          "duration": 0.1875,
          "durationTicks": 128,
          "midi": 58,
          "name": "A#3",
          "ticks": 18688,
          "time": 27.375,
          "velocity": 0.7559055118110236
        },
        {
          "duration": 0.1875,
          "durationTicks": 128,
          "midi": 62,
          "name": "D4",
          "ticks": 18944,
          "time": 27.75,
          "velocity": 0.8346456692913385
        },
        {
          "duration": 0.1875,
          "durationTicks": 128,
          "midi": 58,
          "name": "A#3",
          "ticks": 19200,
          "time": 28.125,
          "velocity": 0.7244094488188977
        },
        {
          "duration": 0.75,
          "durationTicks": 512,
          "midi": 62,
          "name": "D4",
          "ticks": 19456,
          "time": 28.5,
          "velocity": 0.8503937007874016
        },
        {
          "duration": 1.5,
          "durationTicks": 1024,
          "midi": 58,
          "name": "A#3",
          "ticks": 27648,
          "time": 40.5,
          "velocity": 0.6771653543307087
        },
        {
          "duration": 1.5,
          "durationTicks": 1024,
          "midi": 53,
          "name": "F3",
          "ticks": 28672,
          "time": 42,
          "velocity": 0.6850393700787402
        },
        {
          "duration": 0.75,
          "durationTicks": 512,
          "midi": 58,
          "name": "A#3",
          "ticks": 29696,
          "time": 43.5,
          "velocity": 0.7795275590551181
        },
        {
          "duration": 0.5625,
          "durationTicks": 384,
          "midi": 58,
          "name": "A#3",
          "ticks": 30208,
          "time": 44.25,
          "velocity": 0.7795275590551181
        },
        {
          "duration": 0.1875,
          "durationTicks": 128,
          "midi": 58,
          "name": "A#3",
          "ticks": 30592,
          "time": 44.8125,
          "velocity": 0.7637795275590551
        },
        {
          "duration": 1.5,
          "durationTicks": 1024,
          "midi": 58,
          "name": "A#3",
          "ticks": 30720,
          "time": 45,
          "velocity": 0.7716535433070866
        },
        {
          "duration": 1.5,
          "durationTicks": 1024,
          "midi": 58,
          "name": "A#3",
          "ticks": 33792,
          "time": 49.5,
          "velocity": 0.7874015748031497
        },
        {
          "duration": 0.75,
          "durationTicks": 512,
          "midi": 58,
          "name": "A#3",
          "ticks": 34816,
          "time": 51,
          "velocity": 0.7559055118110236
        },
        {
          "duration": 0.75,
          "durationTicks": 512,
          "midi": 58,
          "name": "A#3",
          "ticks": 35328,
          "time": 51.75,
          "velocity": 0.7795275590551181
        },
        {
          "duration": 0.75,
          "durationTicks": 512,
          "midi": 58,
          "name": "A#3",
          "ticks": 35840,
          "time": 52.5,
          "velocity": 0.7480314960629921
        },
        {
          "duration": 0.75,
          "durationTicks": 512,
          "midi": 58,
          "name": "A#3",
          "ticks": 36352,
          "time": 53.25,
          "velocity": 0.8188976377952756
        },
        {
          "duration": 1.5,
          "durationTicks": 1024,
          "midi": 58,
          "name": "A#3",
          "ticks": 36864,
          "time": 54,
          "velocity": 0.7952755905511811
        },
        {
          "duration": 1.5,
          "durationTicks": 1024,
          "midi": 53,
          "name": "F3",
          "ticks": 37888,
          "time": 55.5,
          "velocity": 0.7322834645669292
        },
        {
          "duration": 0.75,
          "durationTicks": 512,
          "midi": 53,
          "name": "F3",
          "ticks": 38912,
          "time": 57,
          "velocity": 0.7795275590551181
        },
        {
          "duration": 0.75,
          "durationTicks": 512,
          "midi": 53,
          "name": "F3",
          "ticks": 39424,
          "time": 57.75,
          "velocity": 0.7322834645669292
        },
        {
          "duration": 0.75,
          "durationTicks": 512,
          "midi": 53,
          "name": "F3",
          "ticks": 39936,
          "time": 58.5,
          "velocity": 0.7559055118110236
        },
        {
          "duration": 0.375,
          "durationTicks": 256,
          "midi": 53,
          "name": "F3",
          "ticks": 40448,
          "time": 59.25,
          "velocity": 0.7716535433070866
        },
        {
          "duration": 0.375,
          "durationTicks": 256,
          "midi": 53,
          "name": "F3",
          "ticks": 40704,
          "time": 59.625,
          "velocity": 0.7401574803149606
        },
        {
          "duration": 0.375,
          "durationTicks": 256,
          "midi": 53,
          "name": "F3",
          "ticks": 40960,
          "time": 60,
          "velocity": 0.7322834645669292
        },
        {
          "duration": 0.375,
          "durationTicks": 256,
          "midi": 53,
          "name": "F3",
          "ticks": 41216,
          "time": 60.375,
          "velocity": 0.7716535433070866
        },
        {
          "duration": 0.375,
          "durationTicks": 256,
          "midi": 53,
          "name": "F3",
          "ticks": 41472,
          "time": 60.75,
          "velocity": 0.7952755905511811
        },
        {
          "duration": 0.375,
          "durationTicks": 256,
          "midi": 53,
          "name": "F3",
          "ticks": 41728,
          "time": 61.125,
          "velocity": 0.7874015748031497
        },
        {
          "duration": 0.375,
          "durationTicks": 256,
          "midi": 53,
          "name": "F3",
          "ticks": 41984,
          "time": 61.5,
          "velocity": 0.7874015748031497
        },
        {
          "duration": 0.375,
          "durationTicks": 256,
          "midi": 53,
          "name": "F3",
          "ticks": 42496,
          "time": 62.25,
          "velocity": 0.7165354330708661
        },
        {
          "duration": 1.5,
          "durationTicks": 1024,
          "midi": 58,
          "name": "A#3",
          "ticks": 62464,
          "time": 91.5,
          "velocity": 0.3779527559055118
        },
        {
          "duration": 1.5,
          "durationTicks": 1024,
          "midi": 58,
          "name": "A#3",
          "ticks": 63488,
          "time": 93,
          "velocity": 0.6220472440944882
        },
        {
          "duration": 0.75,
          "durationTicks": 512,
          "midi": 53,
          "name": "F3",
          "ticks": 64512,
          "time": 94.5,
          "velocity": 0.7401574803149606
        },
        {
          "duration": 0.5625,
          "durationTicks": 384,
          "midi": 53,
          "name": "F3",
          "ticks": 65024,
          "time": 95.25,
          "velocity": 0.7480314960629921
        },
        {
          "duration": 0.1875,
          "durationTicks": 128,
          "midi": 53,
          "name": "F3",
          "ticks": 65408,
          "time": 95.8125,
          "velocity": 0.7559055118110236
        },
        {
          "duration": 0.75,
          "durationTicks": 512,
          "midi": 53,
          "name": "F3",
          "ticks": 65536,
          "time": 96,
          "velocity": 0.7637795275590551
        },
        {
          "duration": 0.75,
          "durationTicks": 512,
          "midi": 53,
          "name": "F3",
          "ticks": 66048,
          "time": 96.75,
          "velocity": 0.7480314960629921
        },
        {
          "duration": 0.375,
          "durationTicks": 256,
          "midi": 46,
          "name": "A#2",
          "ticks": 66560,
          "time": 97.5,
          "velocity": 0.6929133858267716
        },
        {
          "duration": 0.375,
          "durationTicks": 256,
          "midi": 58,
          "name": "A#3",
          "ticks": 68608,
          "time": 100.5,
          "velocity": 0.6929133858267716
        },
        {
          "duration": 0.375,
          "durationTicks": 256,
          "midi": 58,
          "name": "A#3",
          "ticks": 69120,
          "time": 101.25,
          "velocity": 0.6771653543307087
        },
        {
          "duration": 0.375,
          "durationTicks": 256,
          "midi": 53,
          "name": "F3",
          "ticks": 69632,
          "time": 102,
          "velocity": 0.6850393700787402
        },
        {
          "duration": 0.375,
          "durationTicks": 256,
          "midi": 53,
          "name": "F3",
          "ticks": 70144,
          "time": 102.75,
          "velocity": 0.6929133858267716
        },
        {
          "duration": 1.5,
          "durationTicks": 1024,
          "midi": 50,
          "name": "D3",
          "ticks": 77824,
          "time": 114,
          "velocity": 0.6614173228346457
        },
        {
          "duration": 0.75,
          "durationTicks": 512,
          "midi": 46,
          "name": "A#2",
          "ticks": 78848,
          "time": 115.5,
          "velocity": 0.7165354330708661
        },
        {
          "duration": 0.375,
          "durationTicks": 256,
          "midi": 53,
          "name": "F3",
          "ticks": 80384,
          "time": 117.75,
          "velocity": 0.7086614173228346
        },
        {
          "duration": 0.375,
          "durationTicks": 256,
          "midi": 53,
          "name": "F3",
          "ticks": 80896,
          "time": 118.5,
          "velocity": 0.7086614173228346
        },
        {
          "duration": 1.5,
          "durationTicks": 1024,
          "midi": 50,
          "name": "D3",
          "ticks": 86016,
          "time": 126,
          "velocity": 0.6929133858267716
        },
        {
          "duration": 0.75,
          "durationTicks": 512,
          "midi": 46,
          "name": "A#2",
          "ticks": 87040,
          "time": 127.5,
          "velocity": 0.7165354330708661
        },
        {
          "duration": 0.375,
          "durationTicks": 256,
          "midi": 53,
          "name": "F3",
          "ticks": 88576,
          "time": 129.75,
          "velocity": 0.7165354330708661
        },
        {
          "duration": 0.375,
          "durationTicks": 256,
          "midi": 53,
          "name": "F3",
          "ticks": 89088,
          "time": 130.5,
          "velocity": 0.7007874015748031
        },
        {
          "duration": 0.375,
          "durationTicks": 256,
          "midi": 58,
          "name": "A#3",
          "ticks": 91392,
          "time": 133.875,
          "velocity": 0.7007874015748031
        },
        {
          "duration": 0.375,
          "durationTicks": 256,
          "midi": 58,
          "name": "A#3",
          "ticks": 91648,
          "time": 134.25,
          "velocity": 0.7165354330708661
        },
        {
          "duration": 0.375,
          "durationTicks": 256,
          "midi": 53,
          "name": "F3",
          "ticks": 91904,
          "time": 134.625,
          "velocity": 0.7086614173228346
        },
        {
          "duration": 0.375,
          "durationTicks": 256,
          "midi": 53,
          "name": "F3",
          "ticks": 92160,
          "time": 135,
          "velocity": 0.7401574803149606
        },
        {
          "duration": 0.375,
          "durationTicks": 256,
          "midi": 46,
          "name": "A#2",
          "ticks": 94464,
          "time": 138.375,
          "velocity": 0.7322834645669292
        },
        {
          "duration": 0.375,
          "durationTicks": 256,
          "midi": 46,
          "name": "A#2",
          "ticks": 94720,
          "time": 138.75,
          "velocity": 0.7716535433070866
        },
        {
          "duration": 0.375,
          "durationTicks": 256,
          "midi": 53,
          "name": "F3",
          "ticks": 94976,
          "time": 139.125,
          "velocity": 0.84251968503937
        },
        {
          "duration": 0.375,
          "durationTicks": 256,
          "midi": 58,
          "name": "A#3",
          "ticks": 95232,
          "time": 139.5,
          "velocity": 0.8188976377952756
        },
        {
          "duration": 0.375,
          "durationTicks": 256,
          "midi": 58,
          "name": "A#3",
          "ticks": 95488,
          "time": 139.875,
          "velocity": 0.7637795275590551
        },
        {
          "duration": 0.375,
          "durationTicks": 256,
          "midi": 58,
          "name": "A#3",
          "ticks": 95744,
          "time": 140.25,
          "velocity": 0.7716535433070866
        },
        {
          "duration": 0.375,
          "durationTicks": 256,
          "midi": 53,
          "name": "F3",
          "ticks": 96000,
          "time": 140.625,
          "velocity": 0.7244094488188977
        },
        {
          "duration": 0.375,
          "durationTicks": 256,
          "midi": 53,
          "name": "F3",
          "ticks": 96256,
          "time": 141,
          "velocity": 0.7637795275590551
        },
        {
          "duration": 0.1875,
          "durationTicks": 128,
          "midi": 53,
          "name": "F3",
          "ticks": 96512,
          "time": 141.375,
          "velocity": 0.7795275590551181
        },
        {
          "duration": 0.1875,
          "durationTicks": 128,
          "midi": 53,
          "name": "F3",
          "ticks": 96640,
          "time": 141.5625,
          "velocity": 0.7559055118110236
        },
        {
          "duration": 0.375,
          "durationTicks": 256,
          "midi": 53,
          "name": "F3",
          "ticks": 96768,
          "time": 141.75,
          "velocity": 0.7952755905511811
        },
        {
          "duration": 0.1875,
          "durationTicks": 128,
          "midi": 53,
          "name": "F3",
          "ticks": 97024,
          "time": 142.125,
          "velocity": 0.7874015748031497
        },
        {
          "duration": 0.1875,
          "durationTicks": 128,
          "midi": 53,
          "name": "F3",
          "ticks": 97152,
          "time": 142.3125,
          "velocity": 0.7874015748031497
        },
        {
          "duration": 0.375,
          "durationTicks": 256,
          "midi": 53,
          "name": "F3",
          "ticks": 97280,
          "time": 142.5,
          "velocity": 0.7480314960629921
        },
        {
          "duration": 0.1875,
          "durationTicks": 128,
          "midi": 53,
          "name": "F3",
          "ticks": 97536,
          "time": 142.875,
          "velocity": 0.7795275590551181
        },
        {
          "duration": 0.1875,
          "durationTicks": 128,
          "midi": 53,
          "name": "F3",
          "ticks": 97664,
          "time": 143.0625,
          "velocity": 0.7637795275590551
        },
        {
          "duration": 0.375,
          "durationTicks": 256,
          "midi": 53,
          "name": "F3",
          "ticks": 97792,
          "time": 143.25,
          "velocity": 0.7874015748031497
        },
        {
          "duration": 0.1875,
          "durationTicks": 128,
          "midi": 53,
          "name": "F3",
          "ticks": 98048,
          "time": 143.625,
          "velocity": 0.7322834645669292
        },
        {
          "duration": 0.1875,
          "durationTicks": 128,
          "midi": 53,
          "name": "F3",
          "ticks": 98176,
          "time": 143.8125,
          "velocity": 0.7952755905511811
        },
        {
          "duration": 0.375,
          "durationTicks": 256,
          "midi": 53,
          "name": "F3",
          "ticks": 98304,
          "time": 144,
          "velocity": 0.7795275590551181
        },
        {
          "duration": 0.1875,
          "durationTicks": 128,
          "midi": 53,
          "name": "F3",
          "ticks": 98560,
          "time": 144.375,
          "velocity": 0.7401574803149606
        },
        {
          "duration": 0.1875,
          "durationTicks": 128,
          "midi": 53,
          "name": "F3",
          "ticks": 98688,
          "time": 144.5625,
          "velocity": 0.7716535433070866
        },
        {
          "duration": 0.375,
          "durationTicks": 256,
          "midi": 53,
          "name": "F3",
          "ticks": 98816,
          "time": 144.75,
          "velocity": 0.7559055118110236
        },
        {
          "duration": 0.1875,
          "durationTicks": 128,
          "midi": 53,
          "name": "F3",
          "ticks": 99072,
          "time": 145.125,
          "velocity": 0.7559055118110236
        },
        {
          "duration": 0.1875,
          "durationTicks": 128,
          "midi": 53,
          "name": "F3",
          "ticks": 99200,
          "time": 145.3125,
          "velocity": 0.7716535433070866
        },
        {
          "duration": 0.375,
          "durationTicks": 256,
          "midi": 53,
          "name": "F3",
          "ticks": 99328,
          "time": 145.5,
          "velocity": 0.7795275590551181
        },
        {
          "duration": 0.375,
          "durationTicks": 256,
          "midi": 53,
          "name": "F3",
          "ticks": 99584,
          "time": 145.875,
          "velocity": 0.7559055118110236
        },
        {
          "duration": 0.375,
          "durationTicks": 256,
          "midi": 53,
          "name": "F3",
          "ticks": 99840,
          "time": 146.25,
          "velocity": 0.7322834645669292
        },
        {
          "duration": 0.375,
          "durationTicks": 256,
          "midi": 53,
          "name": "F3",
          "ticks": 100096,
          "time": 146.625,
          "velocity": 0.7716535433070866
        },
        {
          "duration": 0.375,
          "durationTicks": 256,
          "midi": 53,
          "name": "F3",
          "ticks": 100352,
          "time": 147,
          "velocity": 0.7716535433070866
        },
        {
          "duration": 0.375,
          "durationTicks": 256,
          "midi": 50,
          "name": "D3",
          "ticks": 101376,
          "time": 148.5,
          "velocity": 0.6771653543307087
        },
        {
          "duration": 0.75,
          "durationTicks": 512,
          "midi": 58,
          "name": "A#3",
          "ticks": 118272,
          "time": 173.25,
          "velocity": 0.7244094488188977
        },
        {
          "duration": 0.375,
          "durationTicks": 256,
          "midi": 62,
          "name": "D4",
          "ticks": 118784,
          "time": 174,
          "velocity": 0.905511811023622
        },
        {
          "duration": 0.7646484375,
          "durationTicks": 522,
          "midi": 58,
          "name": "A#3",
          "ticks": 119296,
          "time": 174.75,
          "velocity": 0.7165354330708661
        },
        {
          "duration": 0.35595703125,
          "durationTicks": 243,
          "midi": 62,
          "name": "D4",
          "ticks": 119808,
          "time": 175.5,
          "velocity": 0.7716535433070866
        },
        {
          "duration": 0.7646484375,
          "durationTicks": 522,
          "midi": 58,
          "name": "A#3",
          "ticks": 120320,
          "time": 176.25,
          "velocity": 0.6614173228346457
        },
        {
          "duration": 0.35595703125,
          "durationTicks": 243,
          "midi": 62,
          "name": "D4",
          "ticks": 120832,
          "time": 177,
          "velocity": 0.7637795275590551
        },
        {
          "duration": 0.1875,
          "durationTicks": 128,
          "midi": 58,
          "name": "A#3",
          "ticks": 121088,
          "time": 177.375,
          "velocity": 0.7480314960629921
        },
        {
          "duration": 0.1875,
          "durationTicks": 128,
          "midi": 62,
          "name": "D4",
          "ticks": 121344,
          "time": 177.75,
          "velocity": 0.8346456692913385
        },
        {
          "duration": 0.1875,
          "durationTicks": 128,
          "midi": 58,
          "name": "A#3",
          "ticks": 121600,
          "time": 178.125,
          "velocity": 0.7637795275590551
        },
        {
          "duration": 0.75,
          "durationTicks": 512,
          "midi": 62,
          "name": "D4",
          "ticks": 121856,
          "time": 178.5,
          "velocity": 0.8582677165354331
        },
        {
          "duration": 1.5,
          "durationTicks": 1024,
          "midi": 58,
          "name": "A#3",
          "ticks": 130048,
          "time": 190.5,
          "velocity": 0.6535433070866141
        },
        {
          "duration": 1.5,
          "durationTicks": 1024,
          "midi": 53,
          "name": "F3",
          "ticks": 131072,
          "time": 192,
          "velocity": 0.6929133858267716
        },
        {
          "duration": 0.75,
          "durationTicks": 512,
          "midi": 58,
          "name": "A#3",
          "ticks": 132096,
          "time": 193.5,
          "velocity": 0.8031496062992126
        },
        {
          "duration": 0.5625,
          "durationTicks": 384,
          "midi": 58,
          "name": "A#3",
          "ticks": 132608,
          "time": 194.25,
          "velocity": 0.7401574803149606
        },
        {
          "duration": 0.1875,
          "durationTicks": 128,
          "midi": 58,
          "name": "A#3",
          "ticks": 132992,
          "time": 194.8125,
          "velocity": 0.7637795275590551
        },
        {
          "duration": 1.5,
          "durationTicks": 1024,
          "midi": 58,
          "name": "A#3",
          "ticks": 133120,
          "time": 195,
          "velocity": 0.7637795275590551
        },
        {
          "duration": 1.5,
          "durationTicks": 1024,
          "midi": 58,
          "name": "A#3",
          "ticks": 136192,
          "time": 199.5,
          "velocity": 0.8031496062992126
        },
        {
          "duration": 0.75,
          "durationTicks": 512,
          "midi": 58,
          "name": "A#3",
          "ticks": 137216,
          "time": 201,
          "velocity": 0.7322834645669292
        },
        {
          "duration": 0.75,
          "durationTicks": 512,
          "midi": 58,
          "name": "A#3",
          "ticks": 137728,
          "time": 201.75,
          "velocity": 0.7795275590551181
        },
        {
          "duration": 0.75,
          "durationTicks": 512,
          "midi": 58,
          "name": "A#3",
          "ticks": 138240,
          "time": 202.5,
          "velocity": 0.8188976377952756
        },
        {
          "duration": 0.75,
          "durationTicks": 512,
          "midi": 58,
          "name": "A#3",
          "ticks": 138752,
          "time": 203.25,
          "velocity": 0.7795275590551181
        },
        {
          "duration": 1.5,
          "durationTicks": 1024,
          "midi": 58,
          "name": "A#3",
          "ticks": 139264,
          "time": 204,
          "velocity": 0.7480314960629921
        },
        {
          "duration": 1.5,
          "durationTicks": 1024,
          "midi": 53,
          "name": "F3",
          "ticks": 140288,
          "time": 205.5,
          "velocity": 0.7401574803149606
        },
        {
          "duration": 0.75,
          "durationTicks": 512,
          "midi": 53,
          "name": "F3",
          "ticks": 141312,
          "time": 207,
          "velocity": 0.7716535433070866
        },
        {
          "duration": 0.75,
          "durationTicks": 512,
          "midi": 53,
          "name": "F3",
          "ticks": 141824,
          "time": 207.75,
          "velocity": 0.7874015748031497
        },
        {
          "duration": 0.75,
          "durationTicks": 512,
          "midi": 53,
          "name": "F3",
          "ticks": 142336,
          "time": 208.5,
          "velocity": 0.7874015748031497
        },
        {
          "duration": 0.375,
          "durationTicks": 256,
          "midi": 53,
          "name": "F3",
          "ticks": 142848,
          "time": 209.25,
          "velocity": 0.7559055118110236
        },
        {
          "duration": 0.375,
          "durationTicks": 256,
          "midi": 53,
          "name": "F3",
          "ticks": 143104,
          "time": 209.625,
          "velocity": 0.8188976377952756
        },
        {
          "duration": 0.375,
          "durationTicks": 256,
          "midi": 53,
          "name": "F3",
          "ticks": 143360,
          "time": 210,
          "velocity": 0.7874015748031497
        },
        {
          "duration": 0.375,
          "durationTicks": 256,
          "midi": 53,
          "name": "F3",
          "ticks": 143616,
          "time": 210.375,
          "velocity": 0.7716535433070866
        },
        {
          "duration": 0.375,
          "durationTicks": 256,
          "midi": 53,
          "name": "F3",
          "ticks": 143872,
          "time": 210.75,
          "velocity": 0.7559055118110236
        },
        {
          "duration": 0.375,
          "durationTicks": 256,
          "midi": 53,
          "name": "F3",
          "ticks": 144128,
          "time": 211.125,
          "velocity": 0.7480314960629921
        },
        {
          "duration": 0.375,
          "durationTicks": 256,
          "midi": 53,
          "name": "F3",
          "ticks": 144384,
          "time": 211.5,
          "velocity": 0.7637795275590551
        },
        {
          "duration": 0.375,
          "durationTicks": 256,
          "midi": 53,
          "name": "F3",
          "ticks": 144896,
          "time": 212.25,
          "velocity": 0.6929133858267716
        },
        {
          "duration": 1.5,
          "durationTicks": 1024,
          "midi": 58,
          "name": "A#3",
          "ticks": 164864,
          "time": 241.5,
          "velocity": 0.4566929133858268
        },
        {
          "duration": 1.5,
          "durationTicks": 1024,
          "midi": 58,
          "name": "A#3",
          "ticks": 165888,
          "time": 243,
          "velocity": 0.6141732283464567
        },
        {
          "duration": 0.75,
          "durationTicks": 512,
          "midi": 53,
          "name": "F3",
          "ticks": 166912,
          "time": 244.5,
          "velocity": 0.7165354330708661
        },
        {
          "duration": 0.5625,
          "durationTicks": 384,
          "midi": 53,
          "name": "F3",
          "ticks": 167424,
          "time": 245.25,
          "velocity": 0.7637795275590551
        },
        {
          "duration": 0.1875,
          "durationTicks": 128,
          "midi": 53,
          "name": "F3",
          "ticks": 167808,
          "time": 245.8125,
          "velocity": 0.7480314960629921
        },
        {
          "duration": 0.75,
          "durationTicks": 512,
          "midi": 53,
          "name": "F3",
          "ticks": 167936,
          "time": 246,
          "velocity": 0.7559055118110236
        },
        {
          "duration": 0.75,
          "durationTicks": 512,
          "midi": 53,
          "name": "F3",
          "ticks": 168448,
          "time": 246.75,
          "velocity": 0.7637795275590551
        },
        {
          "duration": 0.375,
          "durationTicks": 256,
          "midi": 46,
          "name": "A#2",
          "ticks": 168960,
          "time": 247.5,
          "velocity": 0.6850393700787402
        },
        {
          "duration": 0.375,
          "durationTicks": 256,
          "midi": 58,
          "name": "A#3",
          "ticks": 171008,
          "time": 250.5,
          "velocity": 0.6771653543307087
        },
        {
          "duration": 0.375,
          "durationTicks": 256,
          "midi": 58,
          "name": "A#3",
          "ticks": 171520,
          "time": 251.25,
          "velocity": 0.6614173228346457
        },
        {
          "duration": 0.375,
          "durationTicks": 256,
          "midi": 53,
          "name": "F3",
          "ticks": 172032,
          "time": 252,
          "velocity": 0.6850393700787402
        },
        {
          "duration": 0.375,
          "durationTicks": 256,
          "midi": 53,
          "name": "F3",
          "ticks": 172544,
          "time": 252.75,
          "velocity": 0.7086614173228346
        },
        {
          "duration": 1.5,
          "durationTicks": 1024,
          "midi": 50,
          "name": "D3",
          "ticks": 180224,
          "time": 264,
          "velocity": 0.7086614173228346
        },
        {
          "duration": 0.75,
          "durationTicks": 512,
          "midi": 46,
          "name": "A#2",
          "ticks": 181248,
          "time": 265.5,
          "velocity": 0.7559055118110236
        },
        {
          "duration": 0.375,
          "durationTicks": 256,
          "midi": 53,
          "name": "F3",
          "ticks": 182784,
          "time": 267.75,
          "velocity": 0.7322834645669292
        },
        {
          "duration": 0.375,
          "durationTicks": 256,
          "midi": 53,
          "name": "F3",
          "ticks": 183296,
          "time": 268.5,
          "velocity": 0.7086614173228346
        },
        {
          "duration": 1.5,
          "durationTicks": 1024,
          "midi": 50,
          "name": "D3",
          "ticks": 188416,
          "time": 276,
          "velocity": 0.7086614173228346
        },
        {
          "duration": 0.75,
          "durationTicks": 512,
          "midi": 46,
          "name": "A#2",
          "ticks": 189440,
          "time": 277.5,
          "velocity": 0.6850393700787402
        },
        {
          "duration": 0.375,
          "durationTicks": 256,
          "midi": 53,
          "name": "F3",
          "ticks": 190976,
          "time": 279.75,
          "velocity": 0.6771653543307087
        },
        {
          "duration": 0.375,
          "durationTicks": 256,
          "midi": 53,
          "name": "F3",
          "ticks": 191488,
          "time": 280.5,
          "velocity": 0.7165354330708661
        },
        {
          "duration": 0.375,
          "durationTicks": 256,
          "midi": 58,
          "name": "A#3",
          "ticks": 193792,
          "time": 283.875,
          "velocity": 0.7244094488188977
        },
        {
          "duration": 0.375,
          "durationTicks": 256,
          "midi": 58,
          "name": "A#3",
          "ticks": 194048,
          "time": 284.25,
          "velocity": 0.7401574803149606
        },
        {
          "duration": 0.375,
          "durationTicks": 256,
          "midi": 53,
          "name": "F3",
          "ticks": 194304,
          "time": 284.625,
          "velocity": 0.6850393700787402
        },
        {
          "duration": 0.375,
          "durationTicks": 256,
          "midi": 53,
          "name": "F3",
          "ticks": 194560,
          "time": 285,
          "velocity": 0.7952755905511811
        },
        {
          "duration": 0.375,
          "durationTicks": 256,
          "midi": 46,
          "name": "A#2",
          "ticks": 196864,
          "time": 288.375,
          "velocity": 0.6771653543307087
        },
        {
          "duration": 0.375,
          "durationTicks": 256,
          "midi": 46,
          "name": "A#2",
          "ticks": 197120,
          "time": 288.75,
          "velocity": 0.7480314960629921
        },
        {
          "duration": 0.375,
          "durationTicks": 256,
          "midi": 53,
          "name": "F3",
          "ticks": 197376,
          "time": 289.125,
          "velocity": 0.8188976377952756
        },
        {
          "duration": 0.375,
          "durationTicks": 256,
          "midi": 58,
          "name": "A#3",
          "ticks": 197632,
          "time": 289.5,
          "velocity": 0.8346456692913385
        },
        {
          "duration": 0.375,
          "durationTicks": 256,
          "midi": 58,
          "name": "A#3",
          "ticks": 197888,
          "time": 289.875,
          "velocity": 0.7480314960629921
        },
        {
          "duration": 0.375,
          "durationTicks": 256,
          "midi": 58,
          "name": "A#3",
          "ticks": 198144,
          "time": 290.25,
          "velocity": 0.7637795275590551
        },
        {
          "duration": 0.375,
          "durationTicks": 256,
          "midi": 53,
          "name": "F3",
          "ticks": 198400,
          "time": 290.625,
          "velocity": 0.7165354330708661
        },
        {
          "duration": 0.375,
          "durationTicks": 256,
          "midi": 53,
          "name": "F3",
          "ticks": 198656,
          "time": 291,
          "velocity": 0.7716535433070866
        },
        {
          "duration": 0.1875,
          "durationTicks": 128,
          "midi": 53,
          "name": "F3",
          "ticks": 198912,
          "time": 291.375,
          "velocity": 0.7637795275590551
        },
        {
          "duration": 0.1875,
          "durationTicks": 128,
          "midi": 53,
          "name": "F3",
          "ticks": 199040,
          "time": 291.5625,
          "velocity": 0.7716535433070866
        },
        {
          "duration": 0.375,
          "durationTicks": 256,
          "midi": 53,
          "name": "F3",
          "ticks": 199168,
          "time": 291.75,
          "velocity": 0.7637795275590551
        },
        {
          "duration": 0.1875,
          "durationTicks": 128,
          "midi": 53,
          "name": "F3",
          "ticks": 199424,
          "time": 292.125,
          "velocity": 0.7795275590551181
        },
        {
          "duration": 0.1875,
          "durationTicks": 128,
          "midi": 53,
          "name": "F3",
          "ticks": 199552,
          "time": 292.3125,
          "velocity": 0.7716535433070866
        },
        {
          "duration": 0.375,
          "durationTicks": 256,
          "midi": 53,
          "name": "F3",
          "ticks": 199680,
          "time": 292.5,
          "velocity": 0.7795275590551181
        },
        {
          "duration": 0.1875,
          "durationTicks": 128,
          "midi": 53,
          "name": "F3",
          "ticks": 199936,
          "time": 292.875,
          "velocity": 0.7952755905511811
        },
        {
          "duration": 0.1875,
          "durationTicks": 128,
          "midi": 53,
          "name": "F3",
          "ticks": 200064,
          "time": 293.0625,
          "velocity": 0.7401574803149606
        },
        {
          "duration": 0.375,
          "durationTicks": 256,
          "midi": 53,
          "name": "F3",
          "ticks": 200192,
          "time": 293.25,
          "velocity": 0.7795275590551181
        },
        {
          "duration": 0.1875,
          "durationTicks": 128,
          "midi": 53,
          "name": "F3",
          "ticks": 200448,
          "time": 293.625,
          "velocity": 0.7874015748031497
        },
        {
          "duration": 0.1875,
          "durationTicks": 128,
          "midi": 53,
          "name": "F3",
          "ticks": 200576,
          "time": 293.8125,
          "velocity": 0.7637795275590551
        },
        {
          "duration": 0.375,
          "durationTicks": 256,
          "midi": 53,
          "name": "F3",
          "ticks": 200704,
          "time": 294,
          "velocity": 0.7795275590551181
        },
        {
          "duration": 0.1875,
          "durationTicks": 128,
          "midi": 53,
          "name": "F3",
          "ticks": 200960,
          "time": 294.375,
          "velocity": 0.7322834645669292
        },
        {
          "duration": 0.1875,
          "durationTicks": 128,
          "midi": 53,
          "name": "F3",
          "ticks": 201088,
          "time": 294.5625,
          "velocity": 0.7637795275590551
        },
        {
          "duration": 0.375,
          "durationTicks": 256,
          "midi": 53,
          "name": "F3",
          "ticks": 201216,
          "time": 294.75,
          "velocity": 0.7874015748031497
        },
        {
          "duration": 0.1875,
          "durationTicks": 128,
          "midi": 53,
          "name": "F3",
          "ticks": 201472,
          "time": 295.125,
          "velocity": 0.7795275590551181
        },
        {
          "duration": 0.1875,
          "durationTicks": 128,
          "midi": 53,
          "name": "F3",
          "ticks": 201600,
          "time": 295.3125,
          "velocity": 0.7244094488188977
        },
        {
          "duration": 0.375,
          "durationTicks": 256,
          "midi": 53,
          "name": "F3",
          "ticks": 201728,
          "time": 295.5,
          "velocity": 0.7637795275590551
        },
        {
          "duration": 0.375,
          "durationTicks": 256,
          "midi": 53,
          "name": "F3",
          "ticks": 201984,
          "time": 295.875,
          "velocity": 0.7716535433070866
        },
        {
          "duration": 0.375,
          "durationTicks": 256,
          "midi": 53,
          "name": "F3",
          "ticks": 202240,
          "time": 296.25,
          "velocity": 0.7480314960629921
        },
        {
          "duration": 0.375,
          "durationTicks": 256,
          "midi": 53,
          "name": "F3",
          "ticks": 202496,
          "time": 296.625,
          "velocity": 0.7795275590551181
        },
        {
          "duration": 0.375,
          "durationTicks": 256,
          "midi": 53,
          "name": "F3",
          "ticks": 202752,
          "time": 297,
          "velocity": 0.7559055118110236
        },
        {
          "duration": 0.375,
          "durationTicks": 256,
          "midi": 50,
          "name": "D3",
          "ticks": 203776,
          "time": 298.5,
          "velocity": 0.6850393700787402
        },
        {
          "duration": 0.375,
          "durationTicks": 256,
          "midi": 58,
          "name": "A#3",
          "ticks": 204800,
          "time": 300,
          "velocity": 0.7165354330708661
        },
        {
          "duration": 0.375,
          "durationTicks": 256,
          "midi": 62,
          "name": "D4",
          "ticks": 205312,
          "time": 300.75,
          "velocity": 0.6850393700787402
        },
        {
          "duration": 1.5,
          "durationTicks": 1024,
          "midi": 50,
          "name": "D3",
          "ticks": 224256,
          "time": 328.5,
          "velocity": 0.6929133858267716
        },
        {
          "duration": 0.75,
          "durationTicks": 512,
          "midi": 50,
          "name": "D3",
          "ticks": 225280,
          "time": 330,
          "velocity": 0.7244094488188977
        },
        {
          "duration": 0.75,
          "durationTicks": 512,
          "midi": 50,
          "name": "D3",
          "ticks": 225792,
          "time": 330.75,
          "velocity": 0.7795275590551181
        },
        {
          "duration": 0.375,
          "durationTicks": 256,
          "midi": 50,
          "name": "D3",
          "ticks": 226304,
          "time": 331.5,
          "velocity": 0.7637795275590551
        },
        {
          "duration": 0.375,
          "durationTicks": 256,
          "midi": 46,
          "name": "A#2",
          "ticks": 226560,
          "time": 331.875,
          "velocity": 0.7165354330708661
        },
        {
          "duration": 1.5,
          "durationTicks": 1024,
          "midi": 60,
          "name": "C4",
          "ticks": 228352,
          "time": 334.5,
          "velocity": 0.6929133858267716
        },
        {
          "duration": 0.75,
          "durationTicks": 512,
          "midi": 60,
          "name": "C4",
          "ticks": 229376,
          "time": 336,
          "velocity": 0.7637795275590551
        },
        {
          "duration": 0.75,
          "durationTicks": 512,
          "midi": 60,
          "name": "C4",
          "ticks": 229888,
          "time": 336.75,
          "velocity": 0.7795275590551181
        },
        {
          "duration": 1.5,
          "durationTicks": 1024,
          "midi": 53,
          "name": "F3",
          "ticks": 230400,
          "time": 337.5,
          "velocity": 0.7165354330708661
        },
        {
          "duration": 0.75,
          "durationTicks": 512,
          "midi": 53,
          "name": "F3",
          "ticks": 231424,
          "time": 339,
          "velocity": 0.7165354330708661
        },
        {
          "duration": 0.5625,
          "durationTicks": 384,
          "midi": 53,
          "name": "F3",
          "ticks": 231936,
          "time": 339.75,
          "velocity": 0.7637795275590551
        },
        {
          "duration": 0.1875,
          "durationTicks": 128,
          "midi": 53,
          "name": "F3",
          "ticks": 232320,
          "time": 340.3125,
          "velocity": 0.7637795275590551
        },
        {
          "duration": 1.5,
          "durationTicks": 1024,
          "midi": 53,
          "name": "F3",
          "ticks": 232448,
          "time": 340.5,
          "velocity": 0.8031496062992126
        },
        {
          "duration": 0.375,
          "durationTicks": 256,
          "midi": 58,
          "name": "A#3",
          "ticks": 233472,
          "time": 342,
          "velocity": 0.8346456692913385
        },
        {
          "duration": 0.375,
          "durationTicks": 256,
          "midi": 58,
          "name": "A#3",
          "ticks": 233984,
          "time": 342.75,
          "velocity": 0.7165354330708661
        },
        {
          "duration": 0.375,
          "durationTicks": 256,
          "midi": 50,
          "name": "D3",
          "ticks": 236032,
          "time": 345.75,
          "velocity": 0.7007874015748031
        },
        {
          "duration": 1.125,
          "durationTicks": 768,
          "midi": 62,
          "name": "D4",
          "ticks": 236544,
          "time": 346.5,
          "velocity": 0.6614173228346457
        },
        {
          "duration": 1.5,
          "durationTicks": 1024,
          "midi": 50,
          "name": "D3",
          "ticks": 258048,
          "time": 378,
          "velocity": 0.6850393700787402
        },
        {
          "duration": 1.5,
          "durationTicks": 1024,
          "midi": 50,
          "name": "D3",
          "ticks": 259072,
          "time": 379.5,
          "velocity": 0.7401574803149606
        },
        {
          "duration": 1.5,
          "durationTicks": 1024,
          "midi": 50,
          "name": "D3",
          "ticks": 260096,
          "time": 381,
          "velocity": 0.7637795275590551
        },
        {
          "duration": 1.5,
          "durationTicks": 1024,
          "midi": 50,
          "name": "D3",
          "ticks": 261120,
          "time": 382.5,
          "velocity": 0.7716535433070866
        },
        {
          "duration": 1.5,
          "durationTicks": 1024,
          "midi": 50,
          "name": "D3",
          "ticks": 262144,
          "time": 384,
          "velocity": 0.7952755905511811
        },
        {
          "duration": 1.125,
          "durationTicks": 768,
          "midi": 50,
          "name": "D3",
          "ticks": 263168,
          "time": 385.5,
          "velocity": 0.7401574803149606
        },
        {
          "duration": 0.375,
          "durationTicks": 256,
          "midi": 50,
          "name": "D3",
          "ticks": 263936,
          "time": 386.625,
          "velocity": 0.8267716535433071
        },
        {
          "duration": 0.375,
          "durationTicks": 256,
          "midi": 50,
          "name": "D3",
          "ticks": 264192,
          "time": 387,
          "velocity": 0.7637795275590551
        },
        {
          "duration": 0.375,
          "durationTicks": 256,
          "midi": 50,
          "name": "D3",
          "ticks": 264448,
          "time": 387.375,
          "velocity": 0.7874015748031497
        },
        {
          "duration": 0.375,
          "durationTicks": 256,
          "midi": 50,
          "name": "D3",
          "ticks": 264704,
          "time": 387.75,
          "velocity": 0.7244094488188977
        },
        {
          "duration": 0.375,
          "durationTicks": 256,
          "midi": 50,
          "name": "D3",
          "ticks": 264960,
          "time": 388.125,
          "velocity": 0.7480314960629921
        },
        {
          "duration": 0.375,
          "durationTicks": 256,
          "midi": 50,
          "name": "D3",
          "ticks": 265216,
          "time": 388.5,
          "velocity": 0.7637795275590551
        },
        {
          "duration": 4.5,
          "durationTicks": 3072,
          "midi": 50,
          "name": "D3",
          "ticks": 269312,
          "time": 394.5,
          "velocity": 0.4094488188976378
        },
        {
          "duration": 0.375,
          "durationTicks": 256,
          "midi": 50,
          "name": "D3",
          "ticks": 272384,
          "time": 399,
          "velocity": 0.49606299212598426
        },
        {
          "duration": 0.7646484375,
          "durationTicks": 522,
          "midi": 58,
          "name": "A#3",
          "ticks": 285184,
          "time": 417.75,
          "velocity": 0.7007874015748031
        },
        {
          "duration": 0.35595703125,
          "durationTicks": 243,
          "midi": 62,
          "name": "D4",
          "ticks": 285696,
          "time": 418.5,
          "velocity": 0.7480314960629921
        },
        {
          "duration": 0.7646484375,
          "durationTicks": 522,
          "midi": 58,
          "name": "A#3",
          "ticks": 286208,
          "time": 419.25,
          "velocity": 0.6692913385826772
        },
        {
          "duration": 0.35595703125,
          "durationTicks": 243,
          "midi": 62,
          "name": "D4",
          "ticks": 286720,
          "time": 420,
          "velocity": 0.7401574803149606
        },
        {
          "duration": 0.7646484375,
          "durationTicks": 522,
          "midi": 58,
          "name": "A#3",
          "ticks": 287232,
          "time": 420.75,
          "velocity": 0.6929133858267716
        },
        {
          "duration": 0.35595703125,
          "durationTicks": 243,
          "midi": 62,
          "name": "D4",
          "ticks": 287744,
          "time": 421.5,
          "velocity": 0.7795275590551181
        },
        {
          "duration": 0.1875,
          "durationTicks": 128,
          "midi": 58,
          "name": "A#3",
          "ticks": 288000,
          "time": 421.875,
          "velocity": 0.7165354330708661
        },
        {
          "duration": 0.1875,
          "durationTicks": 128,
          "midi": 62,
          "name": "D4",
          "ticks": 288256,
          "time": 422.25,
          "velocity": 0.8740157480314961
        },
        {
          "duration": 0.1875,
          "durationTicks": 128,
          "midi": 58,
          "name": "A#3",
          "ticks": 288512,
          "time": 422.625,
          "velocity": 0.7322834645669292
        },
        {
          "duration": 0.75,
          "durationTicks": 512,
          "midi": 62,
          "name": "D4",
          "ticks": 288768,
          "time": 423,
          "velocity": 0.8582677165354331
        },
        {
          "duration": 1.5,
          "durationTicks": 1024,
          "midi": 46,
          "name": "A#2",
          "ticks": 296960,
          "time": 435,
          "velocity": 0.7007874015748031
        },
        {
          "duration": 1.5,
          "durationTicks": 1024,
          "midi": 53,
          "name": "F3",
          "ticks": 297984,
          "time": 436.5,
          "velocity": 0.8503937007874016
        },
        {
          "duration": 0.375,
          "durationTicks": 256,
          "midi": 60,
          "name": "C4",
          "ticks": 303104,
          "time": 444,
          "velocity": 0.9291338582677166
        },
        {
          "duration": 0.375,
          "durationTicks": 256,
          "midi": 60,
          "name": "C4",
          "ticks": 303616,
          "time": 444.75,
          "velocity": 0.7322834645669292
        },
        {
          "duration": 1.5,
          "durationTicks": 1024,
          "midi": 53,
          "name": "F3",
          "ticks": 304128,
          "time": 445.5,
          "velocity": 0.7007874015748031
        },
        {
          "duration": 1.5,
          "durationTicks": 1024,
          "midi": 60,
          "name": "C4",
          "ticks": 305152,
          "time": 447,
          "velocity": 0.905511811023622
        },
        {
          "duration": 0.75,
          "durationTicks": 512,
          "midi": 53,
          "name": "F3",
          "ticks": 309248,
          "time": 453,
          "velocity": 0.7086614173228346
        },
        {
          "duration": 0.375,
          "durationTicks": 256,
          "midi": 53,
          "name": "F3",
          "ticks": 309760,
          "time": 453.75,
          "velocity": 0.7716535433070866
        },
        {
          "duration": 0.375,
          "durationTicks": 256,
          "midi": 53,
          "name": "F3",
          "ticks": 310016,
          "time": 454.125,
          "velocity": 0.7716535433070866
        },
        {
          "duration": 0.75,
          "durationTicks": 512,
          "midi": 46,
          "name": "A#2",
          "ticks": 310272,
          "time": 454.5,
          "velocity": 0.7165354330708661
        },
        {
          "duration": 0.375,
          "durationTicks": 256,
          "midi": 46,
          "name": "A#2",
          "ticks": 310784,
          "time": 455.25,
          "velocity": 0.7637795275590551
        },
        {
          "duration": 0.375,
          "durationTicks": 256,
          "midi": 46,
          "name": "A#2",
          "ticks": 311040,
          "time": 455.625,
          "velocity": 0.7559055118110236
        },
        {
          "duration": 0.75,
          "durationTicks": 512,
          "midi": 46,
          "name": "A#2",
          "ticks": 311296,
          "time": 456,
          "velocity": 0.7559055118110236
        },
        {
          "duration": 0.375,
          "durationTicks": 256,
          "midi": 58,
          "name": "A#3",
          "ticks": 311808,
          "time": 456.75,
          "velocity": 0.8661417322834646
        },
        {
          "duration": 0.375,
          "durationTicks": 256,
          "midi": 58,
          "name": "A#3",
          "ticks": 312064,
          "time": 457.125,
          "velocity": 0.7952755905511811
        },
        {
          "duration": 0.75,
          "durationTicks": 512,
          "midi": 60,
          "name": "C4",
          "ticks": 312320,
          "time": 457.5,
          "velocity": 0.8267716535433071
        },
        {
          "duration": 0.375,
          "durationTicks": 256,
          "midi": 60,
          "name": "C4",
          "ticks": 312832,
          "time": 458.25,
          "velocity": 0.7637795275590551
        },
        {
          "duration": 0.375,
          "durationTicks": 256,
          "midi": 60,
          "name": "C4",
          "ticks": 313088,
          "time": 458.625,
          "velocity": 0.7480314960629921
        },
        {
          "duration": 0.75,
          "durationTicks": 512,
          "midi": 60,
          "name": "C4",
          "ticks": 313344,
          "time": 459,
          "velocity": 0.7559055118110236
        },
        {
          "duration": 0.75,
          "durationTicks": 512,
          "midi": 60,
          "name": "C4",
          "ticks": 313856,
          "time": 459.75,
          "velocity": 0.7716535433070866
        },
        {
          "duration": 0.75,
          "durationTicks": 512,
          "midi": 62,
          "name": "D4",
          "ticks": 314368,
          "time": 460.5,
          "velocity": 0.8346456692913385
        },
        {
          "duration": 0.375,
          "durationTicks": 256,
          "midi": 62,
          "name": "D4",
          "ticks": 314880,
          "time": 461.25,
          "velocity": 0.7637795275590551
        },
        {
          "duration": 0.375,
          "durationTicks": 256,
          "midi": 62,
          "name": "D4",
          "ticks": 315136,
          "time": 461.625,
          "velocity": 0.7874015748031497
        },
        {
          "duration": 0.75,
          "durationTicks": 512,
          "midi": 62,
          "name": "D4",
          "ticks": 315392,
          "time": 462,
          "velocity": 0.7637795275590551
        },
        {
          "duration": 0.75,
          "durationTicks": 512,
          "midi": 60,
          "name": "C4",
          "ticks": 315904,
          "time": 462.75,
          "velocity": 0.7322834645669292
        },
        {
          "duration": 0.75,
          "durationTicks": 512,
          "midi": 60,
          "name": "C4",
          "ticks": 316416,
          "time": 463.5,
          "velocity": 0.7559055118110236
        },
        {
          "duration": 0.375,
          "durationTicks": 256,
          "midi": 60,
          "name": "C4",
          "ticks": 316928,
          "time": 464.25,
          "velocity": 0.7716535433070866
        },
        {
          "duration": 0.375,
          "durationTicks": 256,
          "midi": 60,
          "name": "C4",
          "ticks": 317184,
          "time": 464.625,
          "velocity": 0.7874015748031497
        },
        {
          "duration": 1.5,
          "durationTicks": 1024,
          "midi": 58,
          "name": "A#3",
          "ticks": 317440,
          "time": 465,
          "velocity": 0.7637795275590551
        },
        {
          "duration": 1.5,
          "durationTicks": 1024,
          "midi": 62,
          "name": "D4",
          "ticks": 318464,
          "time": 466.5,
          "velocity": 0.8582677165354331
        },
        {
          "duration": 1.5,
          "durationTicks": 1024,
          "midi": 50,
          "name": "D3",
          "ticks": 320512,
          "time": 469.5,
          "velocity": 0.6850393700787402
        },
        {
          "duration": 1.5,
          "durationTicks": 1024,
          "midi": 50,
          "name": "D3",
          "ticks": 322560,
          "time": 472.5,
          "velocity": 0.7874015748031497
        },
        {
          "duration": 1.5,
          "durationTicks": 1024,
          "midi": 62,
          "name": "D4",
          "ticks": 327680,
          "time": 480,
          "velocity": 0.968503937007874
        },
        {
          "duration": 0.75,
          "durationTicks": 512,
          "midi": 62,
          "name": "D4",
          "ticks": 328704,
          "time": 481.5,
          "velocity": 0.7952755905511811
        },
        {
          "duration": 0.75,
          "durationTicks": 512,
          "midi": 62,
          "name": "D4",
          "ticks": 329216,
          "time": 482.25,
          "velocity": 0.7716535433070866
        },
        {
          "duration": 0.75,
          "durationTicks": 512,
          "midi": 62,
          "name": "D4",
          "ticks": 329728,
          "time": 483,
          "velocity": 0.7795275590551181
        },
        {
          "duration": 0.375,
          "durationTicks": 256,
          "midi": 62,
          "name": "D4",
          "ticks": 330240,
          "time": 483.75,
          "velocity": 0.7480314960629921
        },
        {
          "duration": 0.375,
          "durationTicks": 256,
          "midi": 62,
          "name": "D4",
          "ticks": 330496,
          "time": 484.125,
          "velocity": 0.7716535433070866
        },
        {
          "duration": 0.375,
          "durationTicks": 256,
          "midi": 50,
          "name": "D3",
          "ticks": 330752,
          "time": 484.5,
          "velocity": 0.6771653543307087
        },
        {
          "duration": 0.375,
          "durationTicks": 256,
          "midi": 50,
          "name": "D3",
          "ticks": 331008,
          "time": 484.875,
          "velocity": 0.7401574803149606
        },
        {
          "duration": 0.375,
          "durationTicks": 256,
          "midi": 50,
          "name": "D3",
          "ticks": 331264,
          "time": 485.25,
          "velocity": 0.7637795275590551
        },
        {
          "duration": 0.375,
          "durationTicks": 256,
          "midi": 50,
          "name": "D3",
          "ticks": 331520,
          "time": 485.625,
          "velocity": 0.7716535433070866
        },
        {
          "duration": 0.375,
          "durationTicks": 256,
          "midi": 50,
          "name": "D3",
          "ticks": 331776,
          "time": 486,
          "velocity": 0.7637795275590551
        },
        {
          "duration": 0.375,
          "durationTicks": 256,
          "midi": 50,
          "name": "D3",
          "ticks": 332288,
          "time": 486.75,
          "velocity": 0.6929133858267716
        },
        {
          "duration": 6,
          "durationTicks": 4096,
          "midi": 58,
          "name": "A#3",
          "ticks": 348160,
          "time": 510,
          "velocity": 0.4251968503937008
        },
        {
          "duration": 3,
          "durationTicks": 2048,
          "midi": 53,
          "name": "F3",
          "ticks": 352256,
          "time": 516,
          "velocity": 0.48031496062992124
        },
        {
          "duration": 3,
          "durationTicks": 2048,
          "midi": 53,
          "name": "F3",
          "ticks": 355328,
          "time": 520.5,
          "velocity": 0.7716535433070866
        },
        {
          "duration": 1.5,
          "durationTicks": 1024,
          "midi": 60,
          "name": "C4",
          "ticks": 357376,
          "time": 523.5,
          "velocity": 0.9212598425196851
        },
        {
          "duration": 0.75,
          "durationTicks": 512,
          "midi": 58,
          "name": "A#3",
          "ticks": 358400,
          "time": 525,
          "velocity": 0.7401574803149606
        },
        {
          "duration": 0.375,
          "durationTicks": 256,
          "midi": 58,
          "name": "A#3",
          "ticks": 358912,
          "time": 525.75,
          "velocity": 0.7637795275590551
        },
        {
          "duration": 0.375,
          "durationTicks": 256,
          "midi": 58,
          "name": "A#3",
          "ticks": 359168,
          "time": 526.125,
          "velocity": 0.7716535433070866
        },
        {
          "duration": 0.75,
          "durationTicks": 512,
          "midi": 58,
          "name": "A#3",
          "ticks": 359424,
          "time": 526.5,
          "velocity": 0.7874015748031497
        },
        {
          "duration": 0.75,
          "durationTicks": 512,
          "midi": 58,
          "name": "A#3",
          "ticks": 359936,
          "time": 527.25,
          "velocity": 0.7874015748031497
        },
        {
          "duration": 1.5,
          "durationTicks": 1024,
          "midi": 50,
          "name": "D3",
          "ticks": 360448,
          "time": 528,
          "velocity": 0.7401574803149606
        },
        {
          "duration": 0.375,
          "durationTicks": 256,
          "midi": 58,
          "name": "A#3",
          "ticks": 361472,
          "time": 529.5,
          "velocity": 0.8346456692913385
        },
        {
          "duration": 0.375,
          "durationTicks": 256,
          "midi": 50,
          "name": "D3",
          "ticks": 364544,
          "time": 534,
          "velocity": 0.6850393700787402
        },
        {
          "duration": 0.375,
          "durationTicks": 256,
          "midi": 50,
          "name": "D3",
          "ticks": 365056,
          "time": 534.75,
          "velocity": 0.7086614173228346
        },
        {
          "duration": 1.5,
          "durationTicks": 1024,
          "midi": 62,
          "name": "D4",
          "ticks": 372736,
          "time": 546,
          "velocity": 0.6692913385826772
        },
        {
          "duration": 1.5,
          "durationTicks": 1024,
          "midi": 60,
          "name": "C4",
          "ticks": 373760,
          "time": 547.5,
          "velocity": 0.7165354330708661
        },
        {
          "duration": 0.75,
          "durationTicks": 512,
          "midi": 62,
          "name": "D4",
          "ticks": 374784,
          "time": 549,
          "velocity": 0.8031496062992126
        },
        {
          "duration": 0.75,
          "durationTicks": 512,
          "midi": 62,
          "name": "D4",
          "ticks": 375296,
          "time": 549.75,
          "velocity": 0.7795275590551181
        },
        {
          "duration": 0.375,
          "durationTicks": 256,
          "midi": 58,
          "name": "A#3",
          "ticks": 375808,
          "time": 550.5,
          "velocity": 0.7401574803149606
        },
        {
          "duration": 6,
          "durationTicks": 4096,
          "midi": 62,
          "name": "D4",
          "ticks": 376832,
          "time": 552,
          "velocity": 0.4645669291338583
        },
        {
          "duration": 0.75,
          "durationTicks": 512,
          "midi": 62,
          "name": "D4",
          "ticks": 380928,
          "time": 558,
          "velocity": 0.7480314960629921
        },
        {
          "duration": 0.75,
          "durationTicks": 512,
          "midi": 62,
          "name": "D4",
          "ticks": 381440,
          "time": 558.75,
          "velocity": 0.7795275590551181
        },
        {
          "duration": 1.5,
          "durationTicks": 1024,
          "midi": 60,
          "name": "C4",
          "ticks": 381952,
          "time": 559.5,
          "velocity": 0.7165354330708661
        },
        {
          "duration": 0.75,
          "durationTicks": 512,
          "midi": 62,
          "name": "D4",
          "ticks": 382976,
          "time": 561,
          "velocity": 0.8110236220472441
        },
        {
          "duration": 0.75,
          "durationTicks": 512,
          "midi": 62,
          "name": "D4",
          "ticks": 383488,
          "time": 561.75,
          "velocity": 0.8188976377952756
        },
        {
          "duration": 0.375,
          "durationTicks": 256,
          "midi": 58,
          "name": "A#3",
          "ticks": 384000,
          "time": 562.5,
          "velocity": 0.6929133858267716
        },
        {
          "duration": 0.375,
          "durationTicks": 256,
          "midi": 60,
          "name": "C4",
          "ticks": 386816,
          "time": 566.625,
          "velocity": 0.6929133858267716
        },
        {
          "duration": 0.375,
          "durationTicks": 256,
          "midi": 58,
          "name": "A#3",
          "ticks": 387072,
          "time": 567,
          "velocity": 0.7322834645669292
        },
        {
          "duration": 3.375,
          "durationTicks": 2304,
          "midi": 62,
          "name": "D4",
          "ticks": 393216,
          "time": 576,
          "velocity": 0.4251968503937008
        },
        {
          "duration": 0.375,
          "durationTicks": 256,
          "midi": 50,
          "name": "D3",
          "ticks": 401408,
          "time": 588,
          "velocity": 0.6692913385826772
        },
        {
          "duration": 0.1875,
          "durationTicks": 128,
          "midi": 50,
          "name": "D3",
          "ticks": 401664,
          "time": 588.375,
          "velocity": 0.7637795275590551
        },
        {
          "duration": 0.1875,
          "durationTicks": 128,
          "midi": 50,
          "name": "D3",
          "ticks": 401792,
          "time": 588.5625,
          "velocity": 0.7559055118110236
        },
        {
          "duration": 0.375,
          "durationTicks": 256,
          "midi": 50,
          "name": "D3",
          "ticks": 401920,
          "time": 588.75,
          "velocity": 0.7637795275590551
        },
        {
          "duration": 0.1875,
          "durationTicks": 128,
          "midi": 50,
          "name": "D3",
          "ticks": 402176,
          "time": 589.125,
          "velocity": 0.7637795275590551
        },
        {
          "duration": 0.1875,
          "durationTicks": 128,
          "midi": 50,
          "name": "D3",
          "ticks": 402304,
          "time": 589.3125,
          "velocity": 0.7795275590551181
        },
        {
          "duration": 0.375,
          "durationTicks": 256,
          "midi": 62,
          "name": "D4",
          "ticks": 402432,
          "time": 589.5,
          "velocity": 1
        },
        {
          "duration": 0.1875,
          "durationTicks": 128,
          "midi": 62,
          "name": "D4",
          "ticks": 402688,
          "time": 589.875,
          "velocity": 0.7874015748031497
        },
        {
          "duration": 0.1875,
          "durationTicks": 128,
          "midi": 62,
          "name": "D4",
          "ticks": 402816,
          "time": 590.0625,
          "velocity": 0.7559055118110236
        },
        {
          "duration": 0.375,
          "durationTicks": 256,
          "midi": 62,
          "name": "D4",
          "ticks": 402944,
          "time": 590.25,
          "velocity": 0.7480314960629921
        },
        {
          "duration": 0.1875,
          "durationTicks": 128,
          "midi": 62,
          "name": "D4",
          "ticks": 403200,
          "time": 590.625,
          "velocity": 0.7401574803149606
        },
        {
          "duration": 0.1875,
          "durationTicks": 128,
          "midi": 62,
          "name": "D4",
          "ticks": 403328,
          "time": 590.8125,
          "velocity": 0.7952755905511811
        },
        {
          "duration": 0.375,
          "durationTicks": 256,
          "midi": 62,
          "name": "D4",
          "ticks": 403456,
          "time": 591,
          "velocity": 0.7874015748031497
        },
        {
          "duration": 0.1875,
          "durationTicks": 128,
          "midi": 62,
          "name": "D4",
          "ticks": 403712,
          "time": 591.375,
          "velocity": 0.7480314960629921
        },
        {
          "duration": 0.1875,
          "durationTicks": 128,
          "midi": 62,
          "name": "D4",
          "ticks": 403840,
          "time": 591.5625,
          "velocity": 0.7795275590551181
        },
        {
          "duration": 0.375,
          "durationTicks": 256,
          "midi": 62,
          "name": "D4",
          "ticks": 403968,
          "time": 591.75,
          "velocity": 0.7795275590551181
        },
        {
          "duration": 0.1875,
          "durationTicks": 128,
          "midi": 62,
          "name": "D4",
          "ticks": 404224,
          "time": 592.125,
          "velocity": 0.7716535433070866
        },
        {
          "duration": 0.1875,
          "durationTicks": 128,
          "midi": 62,
          "name": "D4",
          "ticks": 404352,
          "time": 592.3125,
          "velocity": 0.7716535433070866
        },
        {
          "duration": 0.375,
          "durationTicks": 256,
          "midi": 62,
          "name": "D4",
          "ticks": 404480,
          "time": 592.5,
          "velocity": 0.7401574803149606
        },
        {
          "duration": 0.375,
          "durationTicks": 256,
          "midi": 62,
          "name": "D4",
          "ticks": 404736,
          "time": 592.875,
          "velocity": 0.7795275590551181
        },
        {
          "duration": 0.375,
          "durationTicks": 256,
          "midi": 62,
          "name": "D4",
          "ticks": 404992,
          "time": 593.25,
          "velocity": 0.7874015748031497
        },
        {
          "duration": 0.375,
          "durationTicks": 256,
          "midi": 62,
          "name": "D4",
          "ticks": 405248,
          "time": 593.625,
          "velocity": 0.7716535433070866
        },
        {
          "duration": 0.375,
          "durationTicks": 256,
          "midi": 62,
          "name": "D4",
          "ticks": 405504,
          "time": 594,
          "velocity": 0.7559055118110236
        },
        {
          "duration": 0.375,
          "durationTicks": 256,
          "midi": 58,
          "name": "A#3",
          "ticks": 406528,
          "time": 595.5,
          "velocity": 0.6850393700787402
        },
        {
          "duration": 0.375,
          "durationTicks": 256,
          "midi": 58,
          "name": "A#3",
          "ticks": 407040,
          "time": 596.25,
          "velocity": 0.7086614173228346
        },
        {
          "duration": 0.75,
          "durationTicks": 512,
          "midi": 58,
          "name": "A#3",
          "ticks": 407552,
          "time": 597,
          "velocity": 0.7086614173228346
        }
      ],
      "endOfTrackTicks": 408065
    },
    {
      "channel": 5,
      "controlChanges": {
        "7": [
          {
            "number": 7,
            "ticks": 0,
            "time": 0,
            "value": 0.6141732283464567
          }
        ],
        "10": [
          {
            "number": 10,
            "ticks": 0,
            "time": 0,
            "value": 0.36220472440944884
          }
        ],
        "64": [
          {
            "number": 64,
            "ticks": 0,
            "time": 0,
            "value": 0
          }
        ],
        "91": [
          {
            "number": 91,
            "ticks": 0,
            "time": 0,
            "value": 0.4881889763779528
          }
        ],
        "121": [
          {
            "number": 121,
            "ticks": 0,
            "time": 0,
            "value": 0
          }
        ]
      },
      "pitchBends": [],
      "instrument": {
        "family": "brass",
        "number": 60,
        "name": "french horn"
      },
      "name": "Horn in F",
      "notes": [
        {
          "duration": 0.75,
          "durationTicks": 512,
          "midi": 55,
          "name": "G3",
          "ticks": 15872,
          "time": 23.25,
          "velocity": 0.6692913385826772
        },
        {
          "duration": 0.375,
          "durationTicks": 256,
          "midi": 57,
          "name": "A3",
          "ticks": 16384,
          "time": 24,
          "velocity": 0.7401574803149606
        },
        {
          "duration": 0.7646484375,
          "durationTicks": 522,
          "midi": 55,
          "name": "G3",
          "ticks": 16896,
          "time": 24.75,
          "velocity": 0.6850393700787402
        },
        {
          "duration": 0.35595703125,
          "durationTicks": 243,
          "midi": 57,
          "name": "A3",
          "ticks": 17408,
          "time": 25.5,
          "velocity": 0.7086614173228346
        },
        {
          "duration": 0.7119140625,
          "durationTicks": 486,
          "midi": 55,
          "name": "G3",
          "ticks": 17920,
          "time": 26.25,
          "velocity": 0.6850393700787402
        },
        {
          "duration": 0.375,
          "durationTicks": 256,
          "midi": 57,
          "name": "A3",
          "ticks": 18432,
          "time": 27,
          "velocity": 0.7637795275590551
        },
        {
          "duration": 0.1875,
          "durationTicks": 128,
          "midi": 55,
          "name": "G3",
          "ticks": 18688,
          "time": 27.375,
          "velocity": 0.7480314960629921
        },
        {
          "duration": 0.1875,
          "durationTicks": 128,
          "midi": 57,
          "name": "A3",
          "ticks": 18944,
          "time": 27.75,
          "velocity": 0.8031496062992126
        },
        {
          "duration": 0.1875,
          "durationTicks": 128,
          "midi": 55,
          "name": "G3",
          "ticks": 19200,
          "time": 28.125,
          "velocity": 0.7716535433070866
        },
        {
          "duration": 0.75,
          "durationTicks": 512,
          "midi": 57,
          "name": "A3",
          "ticks": 19456,
          "time": 28.5,
          "velocity": 0.7637795275590551
        },
        {
          "duration": 1.5,
          "durationTicks": 1024,
          "midi": 55,
          "name": "G3",
          "ticks": 33792,
          "time": 49.5,
          "velocity": 0.6535433070866141
        },
        {
          "duration": 0.75,
          "durationTicks": 512,
          "midi": 55,
          "name": "G3",
          "ticks": 34816,
          "time": 51,
          "velocity": 0.7559055118110236
        },
        {
          "duration": 0.75,
          "durationTicks": 512,
          "midi": 55,
          "name": "G3",
          "ticks": 35328,
          "time": 51.75,
          "velocity": 0.7559055118110236
        },
        {
          "duration": 0.75,
          "durationTicks": 512,
          "midi": 55,
          "name": "G3",
          "ticks": 35840,
          "time": 52.5,
          "velocity": 0.7637795275590551
        },
        {
          "duration": 0.75,
          "durationTicks": 512,
          "midi": 55,
          "name": "G3",
          "ticks": 36352,
          "time": 53.25,
          "velocity": 0.8031496062992126
        },
        {
          "duration": 1.5,
          "durationTicks": 1024,
          "midi": 55,
          "name": "G3",
          "ticks": 36864,
          "time": 54,
          "velocity": 0.7480314960629921
        },
        {
          "duration": 1.5,
          "durationTicks": 1024,
          "midi": 55,
          "name": "G3",
          "ticks": 62464,
          "time": 91.5,
          "velocity": 0.48031496062992124
        },
        {
          "duration": 1.5,
          "durationTicks": 1024,
          "midi": 55,
          "name": "G3",
          "ticks": 63488,
          "time": 93,
          "velocity": 0.47244094488188976
        },
        {
          "duration": 1.5,
          "durationTicks": 1024,
          "midi": 57,
          "name": "A3",
          "ticks": 77824,
          "time": 114,
          "velocity": 0.8031496062992126
        },
        {
          "duration": 0.75,
          "durationTicks": 512,
          "midi": 55,
          "name": "G3",
          "ticks": 78848,
          "time": 115.5,
          "velocity": 0.7559055118110236
        },
        {
          "duration": 0.375,
          "durationTicks": 256,
          "midi": 50,
          "name": "D3",
          "ticks": 80896,
          "time": 118.5,
          "velocity": 0.7322834645669292
        },
        {
          "duration": 1.5,
          "durationTicks": 1024,
          "midi": 57,
          "name": "A3",
          "ticks": 86016,
          "time": 126,
          "velocity": 0.7086614173228346
        },
        {
          "duration": 0.75,
          "durationTicks": 512,
          "midi": 55,
          "name": "G3",
          "ticks": 87040,
          "time": 127.5,
          "velocity": 0.7401574803149606
        },
        {
          "duration": 0.375,
          "durationTicks": 256,
          "midi": 50,
          "name": "D3",
          "ticks": 90112,
          "time": 132,
          "velocity": 0.6692913385826772
        },
        {
          "duration": 0.375,
          "durationTicks": 256,
          "midi": 50,
          "name": "D3",
          "ticks": 92160,
          "time": 135,
          "velocity": 0.6771653543307087
        },
        {
          "duration": 0.375,
          "durationTicks": 256,
          "midi": 50,
          "name": "D3",
          "ticks": 96256,
          "time": 141,
          "velocity": 0.7086614173228346
        },
        {
          "duration": 0.375,
          "durationTicks": 256,
          "midi": 50,
          "name": "D3",
          "ticks": 97280,
          "time": 142.5,
          "velocity": 0.7007874015748031
        },
        {
          "duration": 0.375,
          "durationTicks": 256,
          "midi": 50,
          "name": "D3",
          "ticks": 98304,
          "time": 144,
          "velocity": 0.6771653543307087
        },
        {
          "duration": 0.375,
          "durationTicks": 256,
          "midi": 50,
          "name": "D3",
          "ticks": 100352,
          "time": 147,
          "velocity": 0.7086614173228346
        },
        {
          "duration": 0.375,
          "durationTicks": 256,
          "midi": 50,
          "name": "D3",
          "ticks": 101376,
          "time": 148.5,
          "velocity": 0.7165354330708661
        },
        {
          "duration": 0.75,
          "durationTicks": 512,
          "midi": 55,
          "name": "G3",
          "ticks": 118272,
          "time": 173.25,
          "velocity": 0.6850393700787402
        },
        {
          "duration": 0.375,
          "durationTicks": 256,
          "midi": 57,
          "name": "A3",
          "ticks": 118784,
          "time": 174,
          "velocity": 0.8031496062992126
        },
        {
          "duration": 0.7646484375,
          "durationTicks": 522,
          "midi": 55,
          "name": "G3",
          "ticks": 119296,
          "time": 174.75,
          "velocity": 0.7165354330708661
        },
        {
          "duration": 0.35595703125,
          "durationTicks": 243,
          "midi": 57,
          "name": "A3",
          "ticks": 119808,
          "time": 175.5,
          "velocity": 0.7086614173228346
        },
        {
          "duration": 0.7119140625,
          "durationTicks": 486,
          "midi": 55,
          "name": "G3",
          "ticks": 120320,
          "time": 176.25,
          "velocity": 0.6771653543307087
        },
        {
          "duration": 0.375,
          "durationTicks": 256,
          "midi": 57,
          "name": "A3",
          "ticks": 120832,
          "time": 177,
          "velocity": 0.7874015748031497
        },
        {
          "duration": 0.1875,
          "durationTicks": 128,
          "midi": 55,
          "name": "G3",
          "ticks": 121088,
          "time": 177.375,
          "velocity": 0.7559055118110236
        },
        {
          "duration": 0.1875,
          "durationTicks": 128,
          "midi": 57,
          "name": "A3",
          "ticks": 121344,
          "time": 177.75,
          "velocity": 0.7952755905511811
        },
        {
          "duration": 0.1875,
          "durationTicks": 128,
          "midi": 55,
          "name": "G3",
          "ticks": 121600,
          "time": 178.125,
          "velocity": 0.7322834645669292
        },
        {
          "duration": 0.75,
          "durationTicks": 512,
          "midi": 57,
          "name": "A3",
          "ticks": 121856,
          "time": 178.5,
          "velocity": 0.8031496062992126
        },
        {
          "duration": 1.5,
          "durationTicks": 1024,
          "midi": 55,
          "name": "G3",
          "ticks": 136192,
          "time": 199.5,
          "velocity": 0.7086614173228346
        },
        {
          "duration": 0.75,
          "durationTicks": 512,
          "midi": 55,
          "name": "G3",
          "ticks": 137216,
          "time": 201,
          "velocity": 0.7322834645669292
        },
        {
          "duration": 0.75,
          "durationTicks": 512,
          "midi": 55,
          "name": "G3",
          "ticks": 137728,
          "time": 201.75,
          "velocity": 0.7637795275590551
        },
        {
          "duration": 0.75,
          "durationTicks": 512,
          "midi": 55,
          "name": "G3",
          "ticks": 138240,
          "time": 202.5,
          "velocity": 0.7795275590551181
        },
        {
          "duration": 0.75,
          "durationTicks": 512,
          "midi": 55,
          "name": "G3",
          "ticks": 138752,
          "time": 203.25,
          "velocity": 0.8110236220472441
        },
        {
          "duration": 1.5,
          "durationTicks": 1024,
          "midi": 55,
          "name": "G3",
          "ticks": 139264,
          "time": 204,
          "velocity": 0.7952755905511811
        },
        {
          "duration": 1.5,
          "durationTicks": 1024,
          "midi": 55,
          "name": "G3",
          "ticks": 164864,
          "time": 241.5,
          "velocity": 0.48031496062992124
        },
        {
          "duration": 1.5,
          "durationTicks": 1024,
          "midi": 55,
          "name": "G3",
          "ticks": 165888,
          "time": 243,
          "velocity": 0.4566929133858268
        },
        {
          "duration": 1.5,
          "durationTicks": 1024,
          "midi": 57,
          "name": "A3",
          "ticks": 180224,
          "time": 264,
          "velocity": 0.7874015748031497
        },
        {
          "duration": 0.75,
          "durationTicks": 512,
          "midi": 55,
          "name": "G3",
          "ticks": 181248,
          "time": 265.5,
          "velocity": 0.7322834645669292
        },
        {
          "duration": 0.375,
          "durationTicks": 256,
          "midi": 50,
          "name": "D3",
          "ticks": 183296,
          "time": 268.5,
          "velocity": 0.7007874015748031
        },
        {
          "duration": 1.5,
          "durationTicks": 1024,
          "midi": 57,
          "name": "A3",
          "ticks": 188416,
          "time": 276,
          "velocity": 0.6929133858267716
        },
        {
          "duration": 0.75,
          "durationTicks": 512,
          "midi": 55,
          "name": "G3",
          "ticks": 189440,
          "time": 277.5,
          "velocity": 0.7244094488188977
        },
        {
          "duration": 0.375,
          "durationTicks": 256,
          "midi": 50,
          "name": "D3",
          "ticks": 192512,
          "time": 282,
          "velocity": 0.7322834645669292
        },
        {
          "duration": 0.375,
          "durationTicks": 256,
          "midi": 50,
          "name": "D3",
          "ticks": 194560,
          "time": 285,
          "velocity": 0.7007874015748031
        },
        {
          "duration": 0.375,
          "durationTicks": 256,
          "midi": 50,
          "name": "D3",
          "ticks": 198656,
          "time": 291,
          "velocity": 0.7165354330708661
        },
        {
          "duration": 0.375,
          "durationTicks": 256,
          "midi": 50,
          "name": "D3",
          "ticks": 199680,
          "time": 292.5,
          "velocity": 0.7007874015748031
        },
        {
          "duration": 0.375,
          "durationTicks": 256,
          "midi": 50,
          "name": "D3",
          "ticks": 200704,
          "time": 294,
          "velocity": 0.6771653543307087
        },
        {
          "duration": 0.375,
          "durationTicks": 256,
          "midi": 50,
          "name": "D3",
          "ticks": 202752,
          "time": 297,
          "velocity": 0.6771653543307087
        },
        {
          "duration": 0.375,
          "durationTicks": 256,
          "midi": 50,
          "name": "D3",
          "ticks": 203776,
          "time": 298.5,
          "velocity": 0.6929133858267716
        },
        {
          "duration": 0.375,
          "durationTicks": 256,
          "midi": 50,
          "name": "D3",
          "ticks": 204800,
          "time": 300,
          "velocity": 0.6614173228346457
        },
        {
          "duration": 0.375,
          "durationTicks": 256,
          "midi": 59,
          "name": "B3",
          "ticks": 205312,
          "time": 300.75,
          "velocity": 0.6850393700787402
        },
        {
          "duration": 0.75,
          "durationTicks": 512,
          "midi": 47,
          "name": "B2",
          "ticks": 219136,
          "time": 321,
          "velocity": 0.7007874015748031
        },
        {
          "duration": 0.5625,
          "durationTicks": 384,
          "midi": 47,
          "name": "B2",
          "ticks": 219648,
          "time": 321.75,
          "velocity": 0.7716535433070866
        },
        {
          "duration": 0.1875,
          "durationTicks": 128,
          "midi": 47,
          "name": "B2",
          "ticks": 220032,
          "time": 322.3125,
          "velocity": 0.7716535433070866
        },
        {
          "duration": 0.375,
          "durationTicks": 256,
          "midi": 47,
          "name": "B2",
          "ticks": 220160,
          "time": 322.5,
          "velocity": 0.7716535433070866
        },
        {
          "duration": 0.375,
          "durationTicks": 256,
          "midi": 55,
          "name": "G3",
          "ticks": 220416,
          "time": 322.875,
          "velocity": 0.8110236220472441
        },
        {
          "duration": 1.5,
          "durationTicks": 1024,
          "midi": 57,
          "name": "A3",
          "ticks": 222208,
          "time": 325.5,
          "velocity": 0.6692913385826772
        },
        {
          "duration": 0.75,
          "durationTicks": 512,
          "midi": 57,
          "name": "A3",
          "ticks": 223232,
          "time": 327,
          "velocity": 0.7637795275590551
        },
        {
          "duration": 0.75,
          "durationTicks": 512,
          "midi": 57,
          "name": "A3",
          "ticks": 223744,
          "time": 327.75,
          "velocity": 0.7559055118110236
        },
        {
          "duration": 1.5,
          "durationTicks": 1024,
          "midi": 57,
          "name": "A3",
          "ticks": 224256,
          "time": 328.5,
          "velocity": 0.7637795275590551
        },
        {
          "duration": 0.75,
          "durationTicks": 512,
          "midi": 50,
          "name": "D3",
          "ticks": 225280,
          "time": 330,
          "velocity": 0.6929133858267716
        },
        {
          "duration": 0.75,
          "durationTicks": 512,
          "midi": 50,
          "name": "D3",
          "ticks": 225792,
          "time": 330.75,
          "velocity": 0.7322834645669292
        },
        {
          "duration": 0.375,
          "durationTicks": 256,
          "midi": 55,
          "name": "G3",
          "ticks": 226304,
          "time": 331.5,
          "velocity": 0.8110236220472441
        },
        {
          "duration": 0.375,
          "durationTicks": 256,
          "midi": 55,
          "name": "G3",
          "ticks": 226560,
          "time": 331.875,
          "velocity": 0.7480314960629921
        },
        {
          "duration": 0.75,
          "durationTicks": 512,
          "midi": 55,
          "name": "G3",
          "ticks": 227328,
          "time": 333,
          "velocity": 0.7007874015748031
        },
        {
          "duration": 0.5625,
          "durationTicks": 384,
          "midi": 55,
          "name": "G3",
          "ticks": 227840,
          "time": 333.75,
          "velocity": 0.7716535433070866
        },
        {
          "duration": 0.1875,
          "durationTicks": 128,
          "midi": 55,
          "name": "G3",
          "ticks": 228224,
          "time": 334.3125,
          "velocity": 0.7559055118110236
        },
        {
          "duration": 0.75,
          "durationTicks": 512,
          "midi": 55,
          "name": "G3",
          "ticks": 228352,
          "time": 334.5,
          "velocity": 0.7795275590551181
        },
        {
          "duration": 1.5,
          "durationTicks": 1024,
          "midi": 50,
          "name": "D3",
          "ticks": 232448,
          "time": 340.5,
          "velocity": 0.6850393700787402
        },
        {
          "duration": 0.375,
          "durationTicks": 256,
          "midi": 57,
          "name": "A3",
          "ticks": 235520,
          "time": 345,
          "velocity": 0.8110236220472441
        },
        {
          "duration": 0.375,
          "durationTicks": 256,
          "midi": 57,
          "name": "A3",
          "ticks": 236032,
          "time": 345.75,
          "velocity": 0.6535433070866141
        },
        {
          "duration": 0.75,
          "durationTicks": 512,
          "midi": 50,
          "name": "D3",
          "ticks": 236544,
          "time": 346.5,
          "velocity": 0.7007874015748031
        },
        {
          "duration": 0.375,
          "durationTicks": 256,
          "midi": 55,
          "name": "G3",
          "ticks": 237056,
          "time": 347.25,
          "velocity": 0.8188976377952756
        },
        {
          "duration": 1.5,
          "durationTicks": 1024,
          "midi": 57,
          "name": "A3",
          "ticks": 238592,
          "time": 349.5,
          "velocity": 0.6929133858267716
        },
        {
          "duration": 0.75,
          "durationTicks": 512,
          "midi": 57,
          "name": "A3",
          "ticks": 239616,
          "time": 351,
          "velocity": 0.7952755905511811
        },
        {
          "duration": 0.75,
          "durationTicks": 512,
          "midi": 57,
          "name": "A3",
          "ticks": 240128,
          "time": 351.75,
          "velocity": 0.7716535433070866
        },
        {
          "duration": 1.5,
          "durationTicks": 1024,
          "midi": 57,
          "name": "A3",
          "ticks": 240640,
          "time": 352.5,
          "velocity": 0.7322834645669292
        },
        {
          "duration": 0.75,
          "durationTicks": 512,
          "midi": 57,
          "name": "A3",
          "ticks": 241664,
          "time": 354,
          "velocity": 0.7559055118110236
        },
        {
          "duration": 0.75,
          "durationTicks": 512,
          "midi": 57,
          "name": "A3",
          "ticks": 242176,
          "time": 354.75,
          "velocity": 0.7795275590551181
        },
        {
          "duration": 1.5,
          "durationTicks": 1024,
          "midi": 57,
          "name": "A3",
          "ticks": 242688,
          "time": 355.5,
          "velocity": 0.7637795275590551
        },
        {
          "duration": 1.5,
          "durationTicks": 1024,
          "midi": 50,
          "name": "D3",
          "ticks": 258048,
          "time": 378,
          "velocity": 0.7165354330708661
        },
        {
          "duration": 1.5,
          "durationTicks": 1024,
          "midi": 50,
          "name": "D3",
          "ticks": 259072,
          "time": 379.5,
          "velocity": 0.7716535433070866
        },
        {
          "duration": 1.5,
          "durationTicks": 1024,
          "midi": 50,
          "name": "D3",
          "ticks": 260096,
          "time": 381,
          "velocity": 0.7874015748031497
        },
        {
          "duration": 1.5,
          "durationTicks": 1024,
          "midi": 50,
          "name": "D3",
          "ticks": 261120,
          "time": 382.5,
          "velocity": 0.7401574803149606
        },
        {
          "duration": 1.5,
          "durationTicks": 1024,
          "midi": 50,
          "name": "D3",
          "ticks": 262144,
          "time": 384,
          "velocity": 0.7795275590551181
        },
        {
          "duration": 1.125,
          "durationTicks": 768,
          "midi": 50,
          "name": "D3",
          "ticks": 263168,
          "time": 385.5,
          "velocity": 0.7795275590551181
        },
        {
          "duration": 0.375,
          "durationTicks": 256,
          "midi": 50,
          "name": "D3",
          "ticks": 263936,
          "time": 386.625,
          "velocity": 0.7637795275590551
        },
        {
          "duration": 0.375,
          "durationTicks": 256,
          "midi": 50,
          "name": "D3",
          "ticks": 264192,
          "time": 387,
          "velocity": 0.7401574803149606
        },
        {
          "duration": 0.375,
          "durationTicks": 256,
          "midi": 50,
          "name": "D3",
          "ticks": 264448,
          "time": 387.375,
          "velocity": 0.7559055118110236
        },
        {
          "duration": 0.375,
          "durationTicks": 256,
          "midi": 50,
          "name": "D3",
          "ticks": 264704,
          "time": 387.75,
          "velocity": 0.84251968503937
        },
        {
          "duration": 0.375,
          "durationTicks": 256,
          "midi": 50,
          "name": "D3",
          "ticks": 264960,
          "time": 388.125,
          "velocity": 0.7795275590551181
        },
        {
          "duration": 0.375,
          "durationTicks": 256,
          "midi": 50,
          "name": "D3",
          "ticks": 265216,
          "time": 388.5,
          "velocity": 0.7637795275590551
        },
        {
          "duration": 4.5,
          "durationTicks": 3072,
          "midi": 50,
          "name": "D3",
          "ticks": 269312,
          "time": 394.5,
          "velocity": 0.4251968503937008
        },
        {
          "duration": 0.375,
          "durationTicks": 256,
          "midi": 55,
          "name": "G3",
          "ticks": 272384,
          "time": 399,
          "velocity": 0.5039370078740157
        },
        {
          "duration": 0.75,
          "durationTicks": 512,
          "midi": 55,
          "name": "G3",
          "ticks": 285184,
          "time": 417.75,
          "velocity": 0.6850393700787402
        },
        {
          "duration": 0.375,
          "durationTicks": 256,
          "midi": 57,
          "name": "A3",
          "ticks": 285696,
          "time": 418.5,
          "velocity": 0.8031496062992126
        },
        {
          "duration": 0.7646484375,
          "durationTicks": 522,
          "midi": 55,
          "name": "G3",
          "ticks": 286208,
          "time": 419.25,
          "velocity": 0.7086614173228346
        },
        {
          "duration": 0.35595703125,
          "durationTicks": 243,
          "midi": 57,
          "name": "A3",
          "ticks": 286720,
          "time": 420,
          "velocity": 0.7165354330708661
        },
        {
          "duration": 0.7646484375,
          "durationTicks": 522,
          "midi": 55,
          "name": "G3",
          "ticks": 287232,
          "time": 420.75,
          "velocity": 0.7086614173228346
        },
        {
          "duration": 0.35595703125,
          "durationTicks": 243,
          "midi": 57,
          "name": "A3",
          "ticks": 287744,
          "time": 421.5,
          "velocity": 0.6850393700787402
        },
        {
          "duration": 0.1875,
          "durationTicks": 128,
          "midi": 55,
          "name": "G3",
          "ticks": 288000,
          "time": 421.875,
          "velocity": 0.7165354330708661
        },
        {
          "duration": 0.1875,
          "durationTicks": 128,
          "midi": 57,
          "name": "A3",
          "ticks": 288256,
          "time": 422.25,
          "velocity": 0.7952755905511811
        },
        {
          "duration": 0.1875,
          "durationTicks": 128,
          "midi": 55,
          "name": "G3",
          "ticks": 288512,
          "time": 422.625,
          "velocity": 0.7086614173228346
        },
        {
          "duration": 0.75,
          "durationTicks": 512,
          "midi": 57,
          "name": "A3",
          "ticks": 288768,
          "time": 423,
          "velocity": 0.8031496062992126
        },
        {
          "duration": 1.5,
          "durationTicks": 1024,
          "midi": 55,
          "name": "G3",
          "ticks": 296960,
          "time": 435,
          "velocity": 0.6614173228346457
        },
        {
          "duration": 1.5,
          "durationTicks": 1024,
          "midi": 50,
          "name": "D3",
          "ticks": 297984,
          "time": 436.5,
          "velocity": 0.7086614173228346
        },
        {
          "duration": 0.375,
          "durationTicks": 256,
          "midi": 55,
          "name": "G3",
          "ticks": 303104,
          "time": 444,
          "velocity": 0.8346456692913385
        },
        {
          "duration": 0.375,
          "durationTicks": 256,
          "midi": 55,
          "name": "G3",
          "ticks": 303616,
          "time": 444.75,
          "velocity": 0.6614173228346457
        },
        {
          "duration": 0.75,
          "durationTicks": 512,
          "midi": 55,
          "name": "G3",
          "ticks": 311296,
          "time": 456,
          "velocity": 0.7007874015748031
        },
        {
          "duration": 0.375,
          "durationTicks": 256,
          "midi": 55,
          "name": "G3",
          "ticks": 311808,
          "time": 456.75,
          "velocity": 0.7480314960629921
        },
        {
          "duration": 0.375,
          "durationTicks": 256,
          "midi": 55,
          "name": "G3",
          "ticks": 312064,
          "time": 457.125,
          "velocity": 0.7952755905511811
        },
        {
          "duration": 0.75,
          "durationTicks": 512,
          "midi": 55,
          "name": "G3",
          "ticks": 312320,
          "time": 457.5,
          "velocity": 0.7952755905511811
        },
        {
          "duration": 0.75,
          "durationTicks": 512,
          "midi": 55,
          "name": "G3",
          "ticks": 312832,
          "time": 458.25,
          "velocity": 0.8110236220472441
        },
        {
          "duration": 0.375,
          "durationTicks": 256,
          "midi": 57,
          "name": "A3",
          "ticks": 313600,
          "time": 459.375,
          "velocity": 0.7086614173228346
        },
        {
          "duration": 0.375,
          "durationTicks": 256,
          "midi": 57,
          "name": "A3",
          "ticks": 313856,
          "time": 459.75,
          "velocity": 0.7716535433070866
        },
        {
          "duration": 0.375,
          "durationTicks": 256,
          "midi": 57,
          "name": "A3",
          "ticks": 314112,
          "time": 460.125,
          "velocity": 0.7559055118110236
        },
        {
          "duration": 0.75,
          "durationTicks": 512,
          "midi": 55,
          "name": "G3",
          "ticks": 314368,
          "time": 460.5,
          "velocity": 0.7637795275590551
        },
        {
          "duration": 0.375,
          "durationTicks": 256,
          "midi": 55,
          "name": "G3",
          "ticks": 314880,
          "time": 461.25,
          "velocity": 0.7637795275590551
        },
        {
          "duration": 0.375,
          "durationTicks": 256,
          "midi": 55,
          "name": "G3",
          "ticks": 315136,
          "time": 461.625,
          "velocity": 0.7322834645669292
        },
        {
          "duration": 0.75,
          "durationTicks": 512,
          "midi": 55,
          "name": "G3",
          "ticks": 315392,
          "time": 462,
          "velocity": 0.7401574803149606
        },
        {
          "duration": 0.375,
          "durationTicks": 256,
          "midi": 55,
          "name": "G3",
          "ticks": 315904,
          "time": 462.75,
          "velocity": 0.7480314960629921
        },
        {
          "duration": 0.375,
          "durationTicks": 256,
          "midi": 55,
          "name": "G3",
          "ticks": 316160,
          "time": 463.125,
          "velocity": 0.7480314960629921
        },
        {
          "duration": 0.75,
          "durationTicks": 512,
          "midi": 50,
          "name": "D3",
          "ticks": 316416,
          "time": 463.5,
          "velocity": 0.7007874015748031
        },
        {
          "duration": 0.375,
          "durationTicks": 256,
          "midi": 50,
          "name": "D3",
          "ticks": 316928,
          "time": 464.25,
          "velocity": 0.7322834645669292
        },
        {
          "duration": 0.375,
          "durationTicks": 256,
          "midi": 50,
          "name": "D3",
          "ticks": 317184,
          "time": 464.625,
          "velocity": 0.7637795275590551
        },
        {
          "duration": 1.5,
          "durationTicks": 1024,
          "midi": 50,
          "name": "D3",
          "ticks": 317440,
          "time": 465,
          "velocity": 0.7322834645669292
        },
        {
          "duration": 1.5,
          "durationTicks": 1024,
          "midi": 50,
          "name": "D3",
          "ticks": 318464,
          "time": 466.5,
          "velocity": 0.7795275590551181
        },
        {
          "duration": 1.5,
          "durationTicks": 1024,
          "midi": 55,
          "name": "G3",
          "ticks": 320512,
          "time": 469.5,
          "velocity": 0.7952755905511811
        },
        {
          "duration": 1.5,
          "durationTicks": 1024,
          "midi": 55,
          "name": "G3",
          "ticks": 322560,
          "time": 472.5,
          "velocity": 0.7559055118110236
        },
        {
          "duration": 1.5,
          "durationTicks": 1024,
          "midi": 55,
          "name": "G3",
          "ticks": 323584,
          "time": 474,
          "velocity": 0.7244094488188977
        },
        {
          "duration": 0.75,
          "durationTicks": 512,
          "midi": 55,
          "name": "G3",
          "ticks": 324608,
          "time": 475.5,
          "velocity": 0.7952755905511811
        },
        {
          "duration": 0.75,
          "durationTicks": 512,
          "midi": 55,
          "name": "G3",
          "ticks": 325120,
          "time": 476.25,
          "velocity": 0.7795275590551181
        },
        {
          "duration": 0.75,
          "durationTicks": 512,
          "midi": 55,
          "name": "G3",
          "ticks": 325632,
          "time": 477,
          "velocity": 0.7716535433070866
        },
        {
          "duration": 0.75,
          "durationTicks": 512,
          "midi": 55,
          "name": "G3",
          "ticks": 326144,
          "time": 477.75,
          "velocity": 0.7637795275590551
        },
        {
          "duration": 1.5,
          "durationTicks": 1024,
          "midi": 55,
          "name": "G3",
          "ticks": 326656,
          "time": 478.5,
          "velocity": 0.7952755905511811
        },
        {
          "duration": 1.5,
          "durationTicks": 1024,
          "midi": 50,
          "name": "D3",
          "ticks": 327680,
          "time": 480,
          "velocity": 0.7165354330708661
        },
        {
          "duration": 0.75,
          "durationTicks": 512,
          "midi": 50,
          "name": "D3",
          "ticks": 328704,
          "time": 481.5,
          "velocity": 0.7952755905511811
        },
        {
          "duration": 0.75,
          "durationTicks": 512,
          "midi": 50,
          "name": "D3",
          "ticks": 329216,
          "time": 482.25,
          "velocity": 0.7716535433070866
        },
        {
          "duration": 0.75,
          "durationTicks": 512,
          "midi": 50,
          "name": "D3",
          "ticks": 329728,
          "time": 483,
          "velocity": 0.7637795275590551
        },
        {
          "duration": 0.375,
          "durationTicks": 256,
          "midi": 50,
          "name": "D3",
          "ticks": 330240,
          "time": 483.75,
          "velocity": 0.7322834645669292
        },
        {
          "duration": 0.375,
          "durationTicks": 256,
          "midi": 50,
          "name": "D3",
          "ticks": 330496,
          "time": 484.125,
          "velocity": 0.7480314960629921
        },
        {
          "duration": 0.375,
          "durationTicks": 256,
          "midi": 50,
          "name": "D3",
          "ticks": 330752,
          "time": 484.5,
          "velocity": 0.7637795275590551
        },
        {
          "duration": 0.375,
          "durationTicks": 256,
          "midi": 50,
          "name": "D3",
          "ticks": 331008,
          "time": 484.875,
          "velocity": 0.7795275590551181
        },
        {
          "duration": 0.375,
          "durationTicks": 256,
          "midi": 50,
          "name": "D3",
          "ticks": 331264,
          "time": 485.25,
          "velocity": 0.7637795275590551
        },
        {
          "duration": 0.375,
          "durationTicks": 256,
          "midi": 50,
          "name": "D3",
          "ticks": 331520,
          "time": 485.625,
          "velocity": 0.7559055118110236
        },
        {
          "duration": 0.375,
          "durationTicks": 256,
          "midi": 50,
          "name": "D3",
          "ticks": 331776,
          "time": 486,
          "velocity": 0.7480314960629921
        },
        {
          "duration": 0.375,
          "durationTicks": 256,
          "midi": 50,
          "name": "D3",
          "ticks": 332288,
          "time": 486.75,
          "velocity": 0.6614173228346457
        },
        {
          "duration": 3,
          "durationTicks": 2048,
          "midi": 50,
          "name": "D3",
          "ticks": 352256,
          "time": 516,
          "velocity": 0.41732283464566927
        },
        {
          "duration": 1.5,
          "durationTicks": 1024,
          "midi": 50,
          "name": "D3",
          "ticks": 356352,
          "time": 522,
          "velocity": 0.7480314960629921
        },
        {
          "duration": 1.5,
          "durationTicks": 1024,
          "midi": 55,
          "name": "G3",
          "ticks": 357376,
          "time": 523.5,
          "velocity": 0.8031496062992126
        },
        {
          "duration": 0.75,
          "durationTicks": 512,
          "midi": 55,
          "name": "G3",
          "ticks": 358400,
          "time": 525,
          "velocity": 0.7401574803149606
        },
        {
          "duration": 0.375,
          "durationTicks": 256,
          "midi": 55,
          "name": "G3",
          "ticks": 358912,
          "time": 525.75,
          "velocity": 0.7637795275590551
        },
        {
          "duration": 0.375,
          "durationTicks": 256,
          "midi": 55,
          "name": "G3",
          "ticks": 359168,
          "time": 526.125,
          "velocity": 0.7795275590551181
        },
        {
          "duration": 0.75,
          "durationTicks": 512,
          "midi": 55,
          "name": "G3",
          "ticks": 359424,
          "time": 526.5,
          "velocity": 0.7795275590551181
        },
        {
          "duration": 0.75,
          "durationTicks": 512,
          "midi": 55,
          "name": "G3",
          "ticks": 359936,
          "time": 527.25,
          "velocity": 0.7480314960629921
        },
        {
          "duration": 1.5,
          "durationTicks": 1024,
          "midi": 57,
          "name": "A3",
          "ticks": 360448,
          "time": 528,
          "velocity": 0.7874015748031497
        },
        {
          "duration": 0.375,
          "durationTicks": 256,
          "midi": 55,
          "name": "G3",
          "ticks": 361472,
          "time": 529.5,
          "velocity": 0.7322834645669292
        },
        {
          "duration": 0.375,
          "durationTicks": 256,
          "midi": 55,
          "name": "G3",
          "ticks": 363520,
          "time": 532.5,
          "velocity": 0.6850393700787402
        },
        {
          "duration": 0.375,
          "durationTicks": 256,
          "midi": 67,
          "name": "G4",
          "ticks": 364032,
          "time": 533.25,
          "velocity": 0.7007874015748031
        },
        {
          "duration": 0.375,
          "durationTicks": 256,
          "midi": 50,
          "name": "D3",
          "ticks": 364544,
          "time": 534,
          "velocity": 0.7165354330708661
        },
        {
          "duration": 0.375,
          "durationTicks": 256,
          "midi": 50,
          "name": "D3",
          "ticks": 365056,
          "time": 534.75,
          "velocity": 0.6771653543307087
        },
        {
          "duration": 1.5,
          "durationTicks": 1024,
          "midi": 55,
          "name": "G3",
          "ticks": 372736,
          "time": 546,
          "velocity": 0.6850393700787402
        },
        {
          "duration": 1.5,
          "durationTicks": 1024,
          "midi": 55,
          "name": "G3",
          "ticks": 373760,
          "time": 547.5,
          "velocity": 0.7559055118110236
        },
        {
          "duration": 0.75,
          "durationTicks": 512,
          "midi": 50,
          "name": "D3",
          "ticks": 374784,
          "time": 549,
          "velocity": 0.7401574803149606
        },
        {
          "duration": 0.75,
          "durationTicks": 512,
          "midi": 50,
          "name": "D3",
          "ticks": 375296,
          "time": 549.75,
          "velocity": 0.7480314960629921
        },
        {
          "duration": 0.375,
          "durationTicks": 256,
          "midi": 50,
          "name": "D3",
          "ticks": 375808,
          "time": 550.5,
          "velocity": 0.7637795275590551
        },
        {
          "duration": 6,
          "durationTicks": 4096,
          "midi": 50,
          "name": "D3",
          "ticks": 376832,
          "time": 552,
          "velocity": 0.44881889763779526
        },
        {
          "duration": 0.75,
          "durationTicks": 512,
          "midi": 55,
          "name": "G3",
          "ticks": 380928,
          "time": 558,
          "velocity": 0.8346456692913385
        },
        {
          "duration": 0.75,
          "durationTicks": 512,
          "midi": 55,
          "name": "G3",
          "ticks": 381440,
          "time": 558.75,
          "velocity": 0.7795275590551181
        },
        {
          "duration": 1.5,
          "durationTicks": 1024,
          "midi": 55,
          "name": "G3",
          "ticks": 381952,
          "time": 559.5,
          "velocity": 0.7637795275590551
        },
        {
          "duration": 0.75,
          "durationTicks": 512,
          "midi": 50,
          "name": "D3",
          "ticks": 382976,
          "time": 561,
          "velocity": 0.7244094488188977
        },
        {
          "duration": 0.75,
          "durationTicks": 512,
          "midi": 50,
          "name": "D3",
          "ticks": 383488,
          "time": 561.75,
          "velocity": 0.7480314960629921
        },
        {
          "duration": 0.375,
          "durationTicks": 256,
          "midi": 50,
          "name": "D3",
          "ticks": 384000,
          "time": 562.5,
          "velocity": 0.8031496062992126
        },
        {
          "duration": 0.375,
          "durationTicks": 256,
          "midi": 55,
          "name": "G3",
          "ticks": 386304,
          "time": 565.875,
          "velocity": 0.6850393700787402
        },
        {
          "duration": 0.375,
          "durationTicks": 256,
          "midi": 55,
          "name": "G3",
          "ticks": 386560,
          "time": 566.25,
          "velocity": 0.7480314960629921
        },
        {
          "duration": 0.375,
          "durationTicks": 256,
          "midi": 50,
          "name": "D3",
          "ticks": 386816,
          "time": 566.625,
          "velocity": 0.7322834645669292
        },
        {
          "duration": 0.375,
          "durationTicks": 256,
          "midi": 50,
          "name": "D3",
          "ticks": 387072,
          "time": 567,
          "velocity": 0.7637795275590551
        },
        {
          "duration": 0.75,
          "durationTicks": 512,
          "midi": 55,
          "name": "G3",
          "ticks": 389120,
          "time": 570,
          "velocity": 0.7007874015748031
        },
        {
          "duration": 0.75,
          "durationTicks": 512,
          "midi": 55,
          "name": "G3",
          "ticks": 389632,
          "time": 570.75,
          "velocity": 0.7322834645669292
        },
        {
          "duration": 0.75,
          "durationTicks": 512,
          "midi": 55,
          "name": "G3",
          "ticks": 390144,
          "time": 571.5,
          "velocity": 0.7637795275590551
        },
        {
          "duration": 0.75,
          "durationTicks": 512,
          "midi": 55,
          "name": "G3",
          "ticks": 390656,
          "time": 572.25,
          "velocity": 0.7559055118110236
        },
        {
          "duration": 0.75,
          "durationTicks": 512,
          "midi": 55,
          "name": "G3",
          "ticks": 391168,
          "time": 573,
          "velocity": 0.7637795275590551
        },
        {
          "duration": 0.75,
          "durationTicks": 512,
          "midi": 55,
          "name": "G3",
          "ticks": 391680,
          "time": 573.75,
          "velocity": 0.7795275590551181
        },
        {
          "duration": 0.75,
          "durationTicks": 512,
          "midi": 55,
          "name": "G3",
          "ticks": 392192,
          "time": 574.5,
          "velocity": 0.7874015748031497
        },
        {
          "duration": 0.375,
          "durationTicks": 256,
          "midi": 55,
          "name": "G3",
          "ticks": 392704,
          "time": 575.25,
          "velocity": 0.7874015748031497
        },
        {
          "duration": 3,
          "durationTicks": 2048,
          "midi": 50,
          "name": "D3",
          "ticks": 393216,
          "time": 576,
          "velocity": 0.4251968503937008
        },
        {
          "duration": 0.375,
          "durationTicks": 256,
          "midi": 55,
          "name": "G3",
          "ticks": 395264,
          "time": 579,
          "velocity": 0.5275590551181102
        },
        {
          "duration": 3,
          "durationTicks": 2048,
          "midi": 55,
          "name": "G3",
          "ticks": 397312,
          "time": 582,
          "velocity": 0.4015748031496063
        },
        {
          "duration": 3,
          "durationTicks": 2048,
          "midi": 50,
          "name": "D3",
          "ticks": 399360,
          "time": 585,
          "velocity": 0.4251968503937008
        },
        {
          "duration": 0.375,
          "durationTicks": 256,
          "midi": 55,
          "name": "G3",
          "ticks": 401408,
          "time": 588,
          "velocity": 0.7952755905511811
        },
        {
          "duration": 0.375,
          "durationTicks": 256,
          "midi": 50,
          "name": "D3",
          "ticks": 401920,
          "time": 588.75,
          "velocity": 0.7007874015748031
        },
        {
          "duration": 0.375,
          "durationTicks": 256,
          "midi": 55,
          "name": "G3",
          "ticks": 402432,
          "time": 589.5,
          "velocity": 0.7086614173228346
        },
        {
          "duration": 0.375,
          "durationTicks": 256,
          "midi": 50,
          "name": "D3",
          "ticks": 402944,
          "time": 590.25,
          "velocity": 0.6929133858267716
        },
        {
          "duration": 0.375,
          "durationTicks": 256,
          "midi": 55,
          "name": "G3",
          "ticks": 403456,
          "time": 591,
          "velocity": 0.7007874015748031
        },
        {
          "duration": 0.375,
          "durationTicks": 256,
          "midi": 50,
          "name": "D3",
          "ticks": 403968,
          "time": 591.75,
          "velocity": 0.6850393700787402
        },
        {
          "duration": 0.375,
          "durationTicks": 256,
          "midi": 55,
          "name": "G3",
          "ticks": 404480,
          "time": 592.5,
          "velocity": 0.7086614173228346
        },
        {
          "duration": 0.375,
          "durationTicks": 256,
          "midi": 50,
          "name": "D3",
          "ticks": 404736,
          "time": 592.875,
          "velocity": 0.6929133858267716
        },
        {
          "duration": 0.375,
          "durationTicks": 256,
          "midi": 55,
          "name": "G3",
          "ticks": 404992,
          "time": 593.25,
          "velocity": 0.7952755905511811
        },
        {
          "duration": 0.375,
          "durationTicks": 256,
          "midi": 50,
          "name": "D3",
          "ticks": 405248,
          "time": 593.625,
          "velocity": 0.7559055118110236
        },
        {
          "duration": 0.375,
          "durationTicks": 256,
          "midi": 55,
          "name": "G3",
          "ticks": 405504,
          "time": 594,
          "velocity": 0.8346456692913385
        },
        {
          "duration": 0.375,
          "durationTicks": 256,
          "midi": 55,
          "name": "G3",
          "ticks": 406528,
          "time": 595.5,
          "velocity": 0.6692913385826772
        },
        {
          "duration": 0.375,
          "durationTicks": 256,
          "midi": 55,
          "name": "G3",
          "ticks": 407040,
          "time": 596.25,
          "velocity": 0.6614173228346457
        },
        {
          "duration": 0.75,
          "durationTicks": 512,
          "midi": 55,
          "name": "G3",
          "ticks": 407552,
          "time": 597,
          "velocity": 0.6614173228346457
        }
      ],
      "endOfTrackTicks": 408065
    },
    {
      "channel": 6,
      "controlChanges": {
        "7": [
          {
            "number": 7,
            "ticks": 0,
            "time": 0,
            "value": 0.8818897637795275
          }
        ],
        "10": [
          {
            "number": 10,
            "ticks": 0,
            "time": 0,
            "value": 0.12598425196850394
          }
        ],
        "64": [
          {
            "number": 64,
            "ticks": 0,
            "time": 0,
            "value": 0
          }
        ],
        "91": [
          {
            "number": 91,
            "ticks": 0,
            "time": 0,
            "value": 0.3779527559055118
          }
        ],
        "121": [
          {
            "number": 121,
            "ticks": 0,
            "time": 0,
            "value": 0
          }
        ]
      },
      "pitchBends": [],
      "instrument": {
        "family": "ensemble",
        "number": 48,
        "name": "string ensemble 1"
      },
      "name": "Violin 1",
      "notes": [
        {
          "duration": 0.1904296875,
          "durationTicks": 130,
          "midi": 75,
          "name": "D#5",
          "ticks": 768,
          "time": 1.125,
          "velocity": 0.3858267716535433
        },
        {
          "duration": 0.17724609375,
          "durationTicks": 121,
          "midi": 74,
          "name": "D5",
          "ticks": 896,
          "time": 1.3125,
          "velocity": 0.33858267716535434
        },
        {
          "duration": 0.375,
          "durationTicks": 256,
          "midi": 74,
          "name": "D5",
          "ticks": 1024,
          "time": 1.5,
          "velocity": 0.48031496062992124
        },
        {
          "duration": 0.1904296875,
          "durationTicks": 130,
          "midi": 75,
          "name": "D#5",
          "ticks": 1280,
          "time": 1.875,
          "velocity": 0.5196850393700787
        },
        {
          "duration": 0.17724609375,
          "durationTicks": 121,
          "midi": 74,
          "name": "D5",
          "ticks": 1408,
          "time": 2.0625,
          "velocity": 0.5275590551181102
        },
        {
          "duration": 0.375,
          "durationTicks": 256,
          "midi": 74,
          "name": "D5",
          "ticks": 1536,
          "time": 2.25,
          "velocity": 0.5039370078740157
        },
        {
          "duration": 0.1904296875,
          "durationTicks": 130,
          "midi": 75,
          "name": "D#5",
          "ticks": 1792,
          "time": 2.625,
          "velocity": 0.5275590551181102
        },
        {
          "duration": 0.17724609375,
          "durationTicks": 121,
          "midi": 74,
          "name": "D5",
          "ticks": 1920,
          "time": 2.8125,
          "velocity": 0.5275590551181102
        },
        {
          "duration": 0.38232421875,
          "durationTicks": 261,
          "midi": 74,
          "name": "D5",
          "ticks": 2048,
          "time": 3,
          "velocity": 0.5039370078740157
        },
        {
          "duration": 0.35595703125,
          "durationTicks": 243,
          "midi": 82,
          "name": "A#5",
          "ticks": 2304,
          "time": 3.375,
          "velocity": 0.5984251968503937
        },
        {
          "duration": 0.1904296875,
          "durationTicks": 130,
          "midi": 82,
          "name": "A#5",
          "ticks": 2816,
          "time": 4.125,
          "velocity": 0.4251968503937008
        },
        {
          "duration": 0.17724609375,
          "durationTicks": 121,
          "midi": 81,
          "name": "A5",
          "ticks": 2944,
          "time": 4.3125,
          "velocity": 0.41732283464566927
        },
        {
          "duration": 0.375,
          "durationTicks": 256,
          "midi": 79,
          "name": "G5",
          "ticks": 3072,
          "time": 4.5,
          "velocity": 0.4881889763779528
        },
        {
          "duration": 0.1904296875,
          "durationTicks": 130,
          "midi": 79,
          "name": "G5",
          "ticks": 3328,
          "time": 4.875,
          "velocity": 0.48031496062992124
        },
        {
          "duration": 0.17724609375,
          "durationTicks": 121,
          "midi": 77,
          "name": "F5",
          "ticks": 3456,
          "time": 5.0625,
          "velocity": 0.41732283464566927
        },
        {
          "duration": 0.375,
          "durationTicks": 256,
          "midi": 75,
          "name": "D#5",
          "ticks": 3584,
          "time": 5.25,
          "velocity": 0.48031496062992124
        },
        {
          "duration": 0.1904296875,
          "durationTicks": 130,
          "midi": 75,
          "name": "D#5",
          "ticks": 3840,
          "time": 5.625,
          "velocity": 0.5196850393700787
        },
        {
          "duration": 0.17724609375,
          "durationTicks": 121,
          "midi": 74,
          "name": "D5",
          "ticks": 3968,
          "time": 5.8125,
          "velocity": 0.4566929133858268
        },
        {
          "duration": 0.375,
          "durationTicks": 256,
          "midi": 72,
          "name": "C5",
          "ticks": 4096,
          "time": 6,
          "velocity": 0.44881889763779526
        },
        {
          "duration": 0.375,
          "durationTicks": 256,
          "midi": 72,
          "name": "C5",
          "ticks": 4352,
          "time": 6.375,
          "velocity": 0.47244094488188976
        },
        {
          "duration": 0.1904296875,
          "durationTicks": 130,
          "midi": 74,
          "name": "D5",
          "ticks": 4864,
          "time": 7.125,
          "velocity": 0.4566929133858268
        },
        {
          "duration": 0.17724609375,
          "durationTicks": 121,
          "midi": 72,
          "name": "C5",
          "ticks": 4992,
          "time": 7.3125,
          "velocity": 0.4094488188976378
        },
        {
          "duration": 0.375,
          "durationTicks": 256,
          "midi": 72,
          "name": "C5",
          "ticks": 5120,
          "time": 7.5,
          "velocity": 0.44881889763779526
        },
        {
          "duration": 0.1904296875,
          "durationTicks": 130,
          "midi": 74,
          "name": "D5",
          "ticks": 5376,
          "time": 7.875,
          "velocity": 0.5275590551181102
        },
        {
          "duration": 0.17724609375,
          "durationTicks": 121,
          "midi": 72,
          "name": "C5",
          "ticks": 5504,
          "time": 8.0625,
          "velocity": 0.5511811023622047
        },
        {
          "duration": 0.375,
          "durationTicks": 256,
          "midi": 72,
          "name": "C5",
          "ticks": 5632,
          "time": 8.25,
          "velocity": 0.41732283464566927
        },
        {
          "duration": 0.1904296875,
          "durationTicks": 130,
          "midi": 74,
          "name": "D5",
          "ticks": 5888,
          "time": 8.625,
          "velocity": 0.5275590551181102
        },
        {
          "duration": 0.17724609375,
          "durationTicks": 121,
          "midi": 72,
          "name": "C5",
          "ticks": 6016,
          "time": 8.8125,
          "velocity": 0.5354330708661418
        },
        {
          "duration": 0.38232421875,
          "durationTicks": 261,
          "midi": 72,
          "name": "C5",
          "ticks": 6144,
          "time": 9,
          "velocity": 0.47244094488188976
        },
        {
          "duration": 0.35595703125,
          "durationTicks": 243,
          "midi": 81,
          "name": "A5",
          "ticks": 6400,
          "time": 9.375,
          "velocity": 0.5826771653543307
        },
        {
          "duration": 0.1904296875,
          "durationTicks": 130,
          "midi": 81,
          "name": "A5",
          "ticks": 6912,
          "time": 10.125,
          "velocity": 0.4645669291338583
        },
        {
          "duration": 0.17724609375,
          "durationTicks": 121,
          "midi": 79,
          "name": "G5",
          "ticks": 7040,
          "time": 10.3125,
          "velocity": 0.4409448818897638
        },
        {
          "duration": 0.375,
          "durationTicks": 256,
          "midi": 78,
          "name": "F#5",
          "ticks": 7168,
          "time": 10.5,
          "velocity": 0.5039370078740157
        },
        {
          "duration": 0.1904296875,
          "durationTicks": 130,
          "midi": 78,
          "name": "F#5",
          "ticks": 7424,
          "time": 10.875,
          "velocity": 0.48031496062992124
        },
        {
          "duration": 0.17724609375,
          "durationTicks": 121,
          "midi": 75,
          "name": "D#5",
          "ticks": 7552,
          "time": 11.0625,
          "velocity": 0.4566929133858268
        },
        {
          "duration": 0.375,
          "durationTicks": 256,
          "midi": 74,
          "name": "D5",
          "ticks": 7680,
          "time": 11.25,
          "velocity": 0.4330708661417323
        },
        {
          "duration": 0.1904296875,
          "durationTicks": 130,
          "midi": 74,
          "name": "D5",
          "ticks": 7936,
          "time": 11.625,
          "velocity": 0.4645669291338583
        },
        {
          "duration": 0.17724609375,
          "durationTicks": 121,
          "midi": 72,
          "name": "C5",
          "ticks": 8064,
          "time": 11.8125,
          "velocity": 0.41732283464566927
        },
        {
          "duration": 0.375,
          "durationTicks": 256,
          "midi": 70,
          "name": "A#4",
          "ticks": 8192,
          "time": 12,
          "velocity": 0.4566929133858268
        },
        {
          "duration": 0.375,
          "durationTicks": 256,
          "midi": 70,
          "name": "A#4",
          "ticks": 8448,
          "time": 12.375,
          "velocity": 0.47244094488188976
        },
        {
          "duration": 0.1904296875,
          "durationTicks": 130,
          "midi": 82,
          "name": "A#5",
          "ticks": 8960,
          "time": 13.125,
          "velocity": 0.44881889763779526
        },
        {
          "duration": 0.17724609375,
          "durationTicks": 121,
          "midi": 81,
          "name": "A5",
          "ticks": 9088,
          "time": 13.3125,
          "velocity": 0.4330708661417323
        },
        {
          "duration": 0.38232421875,
          "durationTicks": 261,
          "midi": 81,
          "name": "A5",
          "ticks": 9216,
          "time": 13.5,
          "velocity": 0.48031496062992124
        },
        {
          "duration": 0.38232421875,
          "durationTicks": 261,
          "midi": 84,
          "name": "C6",
          "ticks": 9472,
          "time": 13.875,
          "velocity": 0.5275590551181102
        },
        {
          "duration": 0.38232421875,
          "durationTicks": 261,
          "midi": 78,
          "name": "F#5",
          "ticks": 9728,
          "time": 14.25,
          "velocity": 0.4251968503937008
        },
        {
          "duration": 0.35595703125,
          "durationTicks": 243,
          "midi": 81,
          "name": "A5",
          "ticks": 9984,
          "time": 14.625,
          "velocity": 0.4251968503937008
        },
        {
          "duration": 0.38232421875,
          "durationTicks": 261,
          "midi": 79,
          "name": "G5",
          "ticks": 10240,
          "time": 15,
          "velocity": 0.4566929133858268
        },
        {
          "duration": 0.35595703125,
          "durationTicks": 243,
          "midi": 74,
          "name": "D5",
          "ticks": 10496,
          "time": 15.375,
          "velocity": 0.3858267716535433
        },
        {
          "duration": 0.1904296875,
          "durationTicks": 130,
          "midi": 82,
          "name": "A#5",
          "ticks": 11008,
          "time": 16.125,
          "velocity": 0.3858267716535433
        },
        {
          "duration": 0.17724609375,
          "durationTicks": 121,
          "midi": 81,
          "name": "A5",
          "ticks": 11136,
          "time": 16.3125,
          "velocity": 0.3937007874015748
        },
        {
          "duration": 0.38232421875,
          "durationTicks": 261,
          "midi": 81,
          "name": "A5",
          "ticks": 11264,
          "time": 16.5,
          "velocity": 0.48031496062992124
        },
        {
          "duration": 0.38232421875,
          "durationTicks": 261,
          "midi": 84,
          "name": "C6",
          "ticks": 11520,
          "time": 16.875,
          "velocity": 0.5354330708661418
        },
        {
          "duration": 0.38232421875,
          "durationTicks": 261,
          "midi": 78,
          "name": "F#5",
          "ticks": 11776,
          "time": 17.25,
          "velocity": 0.4094488188976378
        },
        {
          "duration": 0.35595703125,
          "durationTicks": 243,
          "midi": 81,
          "name": "A5",
          "ticks": 12032,
          "time": 17.625,
          "velocity": 0.44881889763779526
        },
        {
          "duration": 0.38232421875,
          "durationTicks": 261,
          "midi": 79,
          "name": "G5",
          "ticks": 12288,
          "time": 18,
          "velocity": 0.4566929133858268
        },
        {
          "duration": 0.38232421875,
          "durationTicks": 261,
          "midi": 82,
          "name": "A#5",
          "ticks": 12544,
          "time": 18.375,
          "velocity": 0.49606299212598426
        },
        {
          "duration": 0.1904296875,
          "durationTicks": 130,
          "midi": 81,
          "name": "A5",
          "ticks": 12800,
          "time": 18.75,
          "velocity": 0.4645669291338583
        },
        {
          "duration": 0.1904296875,
          "durationTicks": 130,
          "midi": 79,
          "name": "G5",
          "ticks": 12928,
          "time": 18.9375,
          "velocity": 0.44881889763779526
        },
        {
          "duration": 0.1904296875,
          "durationTicks": 130,
          "midi": 77,
          "name": "F5",
          "ticks": 13056,
          "time": 19.125,
          "velocity": 0.4566929133858268
        },
        {
          "duration": 0.17724609375,
          "durationTicks": 121,
          "midi": 75,
          "name": "D#5",
          "ticks": 13184,
          "time": 19.3125,
          "velocity": 0.41732283464566927
        },
        {
          "duration": 1.529296875,
          "durationTicks": 1044,
          "midi": 74,
          "name": "D5",
          "ticks": 13312,
          "time": 19.5,
          "velocity": 0.47244094488188976
        },
        {
          "duration": 1.529296875,
          "durationTicks": 1044,
          "midi": 73,
          "name": "C#5",
          "ticks": 14336,
          "time": 21,
          "velocity": 0.48031496062992124
        },
        {
          "duration": 0.7119140625,
          "durationTicks": 486,
          "midi": 74,
          "name": "D5",
          "ticks": 15360,
          "time": 22.5,
          "velocity": 0.5118110236220472
        },
        {
          "duration": 0.1875,
          "durationTicks": 128,
          "midi": 62,
          "name": "D4",
          "ticks": 16128,
          "time": 23.625,
          "velocity": 0.6692913385826772
        },
        {
          "duration": 0.1875,
          "durationTicks": 128,
          "midi": 62,
          "name": "D4",
          "ticks": 16256,
          "time": 23.8125,
          "velocity": 0.7795275590551181
        },
        {
          "duration": 0.75,
          "durationTicks": 512,
          "midi": 62,
          "name": "D4",
          "ticks": 16384,
          "time": 24,
          "velocity": 0.7401574803149606
        },
        {
          "duration": 0.1875,
          "durationTicks": 128,
          "midi": 62,
          "name": "D4",
          "ticks": 17152,
          "time": 25.125,
          "velocity": 0.6850393700787402
        },
        {
          "duration": 0.1875,
          "durationTicks": 128,
          "midi": 62,
          "name": "D4",
          "ticks": 17280,
          "time": 25.3125,
          "velocity": 0.7559055118110236
        },
        {
          "duration": 0.75,
          "durationTicks": 512,
          "midi": 62,
          "name": "D4",
          "ticks": 17408,
          "time": 25.5,
          "velocity": 0.7480314960629921
        },
        {
          "duration": 0.1875,
          "durationTicks": 128,
          "midi": 62,
          "name": "D4",
          "ticks": 18176,
          "time": 26.625,
          "velocity": 0.6771653543307087
        },
        {
          "duration": 0.1875,
          "durationTicks": 128,
          "midi": 62,
          "name": "D4",
          "ticks": 18304,
          "time": 26.8125,
          "velocity": 0.7716535433070866
        },
        {
          "duration": 0.375,
          "durationTicks": 256,
          "midi": 62,
          "name": "D4",
          "ticks": 18432,
          "time": 27,
          "velocity": 0.7322834645669292
        },
        {
          "duration": 0.1875,
          "durationTicks": 128,
          "midi": 62,
          "name": "D4",
          "ticks": 18688,
          "time": 27.375,
          "velocity": 0.8031496062992126
        },
        {
          "duration": 0.1875,
          "durationTicks": 128,
          "midi": 62,
          "name": "D4",
          "ticks": 18816,
          "time": 27.5625,
          "velocity": 0.7716535433070866
        },
        {
          "duration": 0.375,
          "durationTicks": 256,
          "midi": 62,
          "name": "D4",
          "ticks": 18944,
          "time": 27.75,
          "velocity": 0.7952755905511811
        },
        {
          "duration": 0.1875,
          "durationTicks": 128,
          "midi": 62,
          "name": "D4",
          "ticks": 19200,
          "time": 28.125,
          "velocity": 0.7874015748031497
        },
        {
          "duration": 0.1875,
          "durationTicks": 128,
          "midi": 62,
          "name": "D4",
          "ticks": 19328,
          "time": 28.3125,
          "velocity": 0.7480314960629921
        },
        {
          "duration": 0.75,
          "durationTicks": 512,
          "midi": 62,
          "name": "D4",
          "ticks": 19456,
          "time": 28.5,
          "velocity": 0.7716535433070866
        },
        {
          "duration": 0.1904296875,
          "durationTicks": 130,
          "midi": 75,
          "name": "D#5",
          "ticks": 20224,
          "time": 29.625,
          "velocity": 0.4330708661417323
        },
        {
          "duration": 0.17724609375,
          "durationTicks": 121,
          "midi": 74,
          "name": "D5",
          "ticks": 20352,
          "time": 29.8125,
          "velocity": 0.4015748031496063
        },
        {
          "duration": 0.375,
          "durationTicks": 256,
          "midi": 74,
          "name": "D5",
          "ticks": 20480,
          "time": 30,
          "velocity": 0.44881889763779526
        },
        {
          "duration": 0.1904296875,
          "durationTicks": 130,
          "midi": 75,
          "name": "D#5",
          "ticks": 20736,
          "time": 30.375,
          "velocity": 0.49606299212598426
        },
        {
          "duration": 0.17724609375,
          "durationTicks": 121,
          "midi": 74,
          "name": "D5",
          "ticks": 20864,
          "time": 30.5625,
          "velocity": 0.48031496062992124
        },
        {
          "duration": 0.375,
          "durationTicks": 256,
          "midi": 74,
          "name": "D5",
          "ticks": 20992,
          "time": 30.75,
          "velocity": 0.4881889763779528
        },
        {
          "duration": 0.1904296875,
          "durationTicks": 130,
          "midi": 75,
          "name": "D#5",
          "ticks": 21248,
          "time": 31.125,
          "velocity": 0.4881889763779528
        },
        {
          "duration": 0.17724609375,
          "durationTicks": 121,
          "midi": 74,
          "name": "D5",
          "ticks": 21376,
          "time": 31.3125,
          "velocity": 0.4881889763779528
        },
        {
          "duration": 0.38232421875,
          "durationTicks": 261,
          "midi": 74,
          "name": "D5",
          "ticks": 21504,
          "time": 31.5,
          "velocity": 0.5118110236220472
        },
        {
          "duration": 0.35595703125,
          "durationTicks": 243,
          "midi": 82,
          "name": "A#5",
          "ticks": 21760,
          "time": 31.875,
          "velocity": 0.6141732283464567
        },
        {
          "duration": 0.1904296875,
          "durationTicks": 130,
          "midi": 82,
          "name": "A#5",
          "ticks": 22272,
          "time": 32.625,
          "velocity": 0.4094488188976378
        },
        {
          "duration": 0.17724609375,
          "durationTicks": 121,
          "midi": 81,
          "name": "A5",
          "ticks": 22400,
          "time": 32.8125,
          "velocity": 0.3779527559055118
        },
        {
          "duration": 0.375,
          "durationTicks": 256,
          "midi": 79,
          "name": "G5",
          "ticks": 22528,
          "time": 33,
          "velocity": 0.44881889763779526
        },
        {
          "duration": 0.1904296875,
          "durationTicks": 130,
          "midi": 79,
          "name": "G5",
          "ticks": 22784,
          "time": 33.375,
          "velocity": 0.4566929133858268
        },
        {
          "duration": 0.17724609375,
          "durationTicks": 121,
          "midi": 77,
          "name": "F5",
          "ticks": 22912,
          "time": 33.5625,
          "velocity": 0.41732283464566927
        },
        {
          "duration": 0.375,
          "durationTicks": 256,
          "midi": 75,
          "name": "D#5",
          "ticks": 23040,
          "time": 33.75,
          "velocity": 0.4566929133858268
        },
        {
          "duration": 0.1904296875,
          "durationTicks": 130,
          "midi": 75,
          "name": "D#5",
          "ticks": 23296,
          "time": 34.125,
          "velocity": 0.49606299212598426
        },
        {
          "duration": 0.17724609375,
          "durationTicks": 121,
          "midi": 74,
          "name": "D5",
          "ticks": 23424,
          "time": 34.3125,
          "velocity": 0.49606299212598426
        },
        {
          "duration": 0.375,
          "durationTicks": 256,
          "midi": 72,
          "name": "C5",
          "ticks": 23552,
          "time": 34.5,
          "velocity": 0.4330708661417323
        },
        {
          "duration": 0.375,
          "durationTicks": 256,
          "midi": 72,
          "name": "C5",
          "ticks": 23808,
          "time": 34.875,
          "velocity": 0.49606299212598426
        },
        {
          "duration": 0.1904296875,
          "durationTicks": 130,
          "midi": 77,
          "name": "F5",
          "ticks": 24320,
          "time": 35.625,
          "velocity": 0.4409448818897638
        },
        {
          "duration": 0.17724609375,
          "durationTicks": 121,
          "midi": 75,
          "name": "D#5",
          "ticks": 24448,
          "time": 35.8125,
          "velocity": 0.4330708661417323
        },
        {
          "duration": 0.375,
          "durationTicks": 256,
          "midi": 75,
          "name": "D#5",
          "ticks": 24576,
          "time": 36,
          "velocity": 0.4645669291338583
        },
        {
          "duration": 0.1904296875,
          "durationTicks": 130,
          "midi": 77,
          "name": "F5",
          "ticks": 24832,
          "time": 36.375,
          "velocity": 0.4881889763779528
        },
        {
          "duration": 0.17724609375,
          "durationTicks": 121,
          "midi": 75,
          "name": "D#5",
          "ticks": 24960,
          "time": 36.5625,
          "velocity": 0.4645669291338583
        },
        {
          "duration": 0.375,
          "durationTicks": 256,
          "midi": 75,
          "name": "D#5",
          "ticks": 25088,
          "time": 36.75,
          "velocity": 0.48031496062992124
        },
        {
          "duration": 0.1904296875,
          "durationTicks": 130,
          "midi": 77,
          "name": "F5",
          "ticks": 25344,
          "time": 37.125,
          "velocity": 0.5354330708661418
        },
        {
          "duration": 0.17724609375,
          "durationTicks": 121,
          "midi": 75,
          "name": "D#5",
          "ticks": 25472,
          "time": 37.3125,
          "velocity": 0.4881889763779528
        },
        {
          "duration": 0.38232421875,
          "durationTicks": 261,
          "midi": 75,
          "name": "D#5",
          "ticks": 25600,
          "time": 37.5,
          "velocity": 0.4881889763779528
        },
        {
          "duration": 0.35595703125,
          "durationTicks": 243,
          "midi": 84,
          "name": "C6",
          "ticks": 25856,
          "time": 37.875,
          "velocity": 0.6062992125984252
        },
        {
          "duration": 0.1904296875,
          "durationTicks": 130,
          "midi": 84,
          "name": "C6",
          "ticks": 26368,
          "time": 38.625,
          "velocity": 0.4645669291338583
        },
        {
          "duration": 0.17724609375,
          "durationTicks": 121,
          "midi": 82,
          "name": "A#5",
          "ticks": 26496,
          "time": 38.8125,
          "velocity": 0.4330708661417323
        },
        {
          "duration": 0.375,
          "durationTicks": 256,
          "midi": 81,
          "name": "A5",
          "ticks": 26624,
          "time": 39,
          "velocity": 0.48031496062992124
        },
        {
          "duration": 0.1904296875,
          "durationTicks": 130,
          "midi": 81,
          "name": "A5",
          "ticks": 26880,
          "time": 39.375,
          "velocity": 0.48031496062992124
        },
        {
          "duration": 0.17724609375,
          "durationTicks": 121,
          "midi": 79,
          "name": "G5",
          "ticks": 27008,
          "time": 39.5625,
          "velocity": 0.48031496062992124
        },
        {
          "duration": 0.375,
          "durationTicks": 256,
          "midi": 77,
          "name": "F5",
          "ticks": 27136,
          "time": 39.75,
          "velocity": 0.4251968503937008
        },
        {
          "duration": 0.1904296875,
          "durationTicks": 130,
          "midi": 77,
          "name": "F5",
          "ticks": 27392,
          "time": 40.125,
          "velocity": 0.4645669291338583
        },
        {
          "duration": 0.17724609375,
          "durationTicks": 121,
          "midi": 75,
          "name": "D#5",
          "ticks": 27520,
          "time": 40.3125,
          "velocity": 0.4409448818897638
        },
        {
          "duration": 1.5,
          "durationTicks": 1024,
          "midi": 74,
          "name": "D5",
          "ticks": 27648,
          "time": 40.5,
          "velocity": 0.8661417322834646
        },
        {
          "duration": 1.5,
          "durationTicks": 1024,
          "midi": 82,
          "name": "A#5",
          "ticks": 27648,
          "time": 40.5,
          "velocity": 0.8661417322834646
        },
        {
          "duration": 1.125,
          "durationTicks": 768,
          "midi": 77,
          "name": "F5",
          "ticks": 28672,
          "time": 42,
          "velocity": 0.6850393700787402
        },
        {
          "duration": 0.1875,
          "durationTicks": 128,
          "midi": 77,
          "name": "F5",
          "ticks": 29568,
          "time": 43.3125,
          "velocity": 0.6614173228346457
        },
        {
          "duration": 0.1875,
          "durationTicks": 128,
          "midi": 75,
          "name": "D#5",
          "ticks": 29696,
          "time": 43.5,
          "velocity": 0.6771653543307087
        },
        {
          "duration": 0.1875,
          "durationTicks": 128,
          "midi": 79,
          "name": "G5",
          "ticks": 29952,
          "time": 43.875,
          "velocity": 0.8740157480314961
        },
        {
          "duration": 0.1875,
          "durationTicks": 128,
          "midi": 82,
          "name": "A#5",
          "ticks": 30208,
          "time": 44.25,
          "velocity": 0.8267716535433071
        },
        {
          "duration": 0.1875,
          "durationTicks": 128,
          "midi": 74,
          "name": "D5",
          "ticks": 30720,
          "time": 45,
          "velocity": 0.7086614173228346
        },
        {
          "duration": 0.1875,
          "durationTicks": 128,
          "midi": 77,
          "name": "F5",
          "ticks": 30976,
          "time": 45.375,
          "velocity": 0.8188976377952756
        },
        {
          "duration": 0.1875,
          "durationTicks": 128,
          "midi": 82,
          "name": "A#5",
          "ticks": 31232,
          "time": 45.75,
          "velocity": 0.8818897637795275
        },
        {
          "duration": 0.1875,
          "durationTicks": 128,
          "midi": 74,
          "name": "D5",
          "ticks": 31616,
          "time": 46.3125,
          "velocity": 0.6929133858267716
        },
        {
          "duration": 0.1875,
          "durationTicks": 128,
          "midi": 72,
          "name": "C5",
          "ticks": 31744,
          "time": 46.5,
          "velocity": 0.7007874015748031
        },
        {
          "duration": 0.1875,
          "durationTicks": 128,
          "midi": 75,
          "name": "D#5",
          "ticks": 32000,
          "time": 46.875,
          "velocity": 0.8110236220472441
        },
        {
          "duration": 0.1875,
          "durationTicks": 128,
          "midi": 79,
          "name": "G5",
          "ticks": 32256,
          "time": 47.25,
          "velocity": 0.8661417322834646
        },
        {
          "duration": 0.1875,
          "durationTicks": 128,
          "midi": 72,
          "name": "C5",
          "ticks": 32512,
          "time": 47.625,
          "velocity": 0.6062992125984252
        },
        {
          "duration": 0.1875,
          "durationTicks": 128,
          "midi": 70,
          "name": "A#4",
          "ticks": 32768,
          "time": 48,
          "velocity": 0.7007874015748031
        },
        {
          "duration": 0.1875,
          "durationTicks": 128,
          "midi": 74,
          "name": "D5",
          "ticks": 33024,
          "time": 48.375,
          "velocity": 0.8582677165354331
        },
        {
          "duration": 0.1875,
          "durationTicks": 128,
          "midi": 77,
          "name": "F5",
          "ticks": 33280,
          "time": 48.75,
          "velocity": 0.8582677165354331
        },
        {
          "duration": 0.1875,
          "durationTicks": 128,
          "midi": 77,
          "name": "F5",
          "ticks": 33664,
          "time": 49.3125,
          "velocity": 0.6692913385826772
        },
        {
          "duration": 0.1875,
          "durationTicks": 128,
          "midi": 76,
          "name": "E5",
          "ticks": 33792,
          "time": 49.5,
          "velocity": 0.6929133858267716
        },
        {
          "duration": 0.1875,
          "durationTicks": 128,
          "midi": 77,
          "name": "F5",
          "ticks": 33920,
          "time": 49.6875,
          "velocity": 0.7480314960629921
        },
        {
          "duration": 0.1875,
          "durationTicks": 128,
          "midi": 79,
          "name": "G5",
          "ticks": 34048,
          "time": 49.875,
          "velocity": 0.7874015748031497
        },
        {
          "duration": 0.1875,
          "durationTicks": 128,
          "midi": 81,
          "name": "A5",
          "ticks": 34176,
          "time": 50.0625,
          "velocity": 0.8582677165354331
        },
        {
          "duration": 0.1875,
          "durationTicks": 128,
          "midi": 82,
          "name": "A#5",
          "ticks": 34304,
          "time": 50.25,
          "velocity": 0.8188976377952756
        },
        {
          "duration": 0.1875,
          "durationTicks": 128,
          "midi": 84,
          "name": "C6",
          "ticks": 34432,
          "time": 50.4375,
          "velocity": 0.7874015748031497
        },
        {
          "duration": 0.1875,
          "durationTicks": 128,
          "midi": 85,
          "name": "C#6",
          "ticks": 34560,
          "time": 50.625,
          "velocity": 0.7952755905511811
        },
        {
          "duration": 0.1875,
          "durationTicks": 128,
          "midi": 77,
          "name": "F5",
          "ticks": 34688,
          "time": 50.8125,
          "velocity": 0.6377952755905512
        },
        {
          "duration": 0.1875,
          "durationTicks": 128,
          "midi": 76,
          "name": "E5",
          "ticks": 34816,
          "time": 51,
          "velocity": 0.7007874015748031
        },
        {
          "duration": 0.1875,
          "durationTicks": 128,
          "midi": 77,
          "name": "F5",
          "ticks": 34944,
          "time": 51.1875,
          "velocity": 0.7716535433070866
        },
        {
          "duration": 0.1875,
          "durationTicks": 128,
          "midi": 79,
          "name": "G5",
          "ticks": 35072,
          "time": 51.375,
          "velocity": 0.8188976377952756
        },
        {
          "duration": 0.1875,
          "durationTicks": 128,
          "midi": 81,
          "name": "A5",
          "ticks": 35200,
          "time": 51.5625,
          "velocity": 0.8346456692913385
        },
        {
          "duration": 0.1875,
          "durationTicks": 128,
          "midi": 82,
          "name": "A#5",
          "ticks": 35328,
          "time": 51.75,
          "velocity": 0.8031496062992126
        },
        {
          "duration": 0.1875,
          "durationTicks": 128,
          "midi": 84,
          "name": "C6",
          "ticks": 35456,
          "time": 51.9375,
          "velocity": 0.8031496062992126
        },
        {
          "duration": 0.1875,
          "durationTicks": 128,
          "midi": 85,
          "name": "C#6",
          "ticks": 35584,
          "time": 52.125,
          "velocity": 0.8110236220472441
        },
        {
          "duration": 0.1875,
          "durationTicks": 128,
          "midi": 77,
          "name": "F5",
          "ticks": 35712,
          "time": 52.3125,
          "velocity": 0.6614173228346457
        },
        {
          "duration": 0.1875,
          "durationTicks": 128,
          "midi": 76,
          "name": "E5",
          "ticks": 35840,
          "time": 52.5,
          "velocity": 0.6929133858267716
        },
        {
          "duration": 0.1875,
          "durationTicks": 128,
          "midi": 77,
          "name": "F5",
          "ticks": 35968,
          "time": 52.6875,
          "velocity": 0.8267716535433071
        },
        {
          "duration": 0.1875,
          "durationTicks": 128,
          "midi": 79,
          "name": "G5",
          "ticks": 36096,
          "time": 52.875,
          "velocity": 0.8031496062992126
        },
        {
          "duration": 0.1875,
          "durationTicks": 128,
          "midi": 81,
          "name": "A5",
          "ticks": 36224,
          "time": 53.0625,
          "velocity": 0.8267716535433071
        },
        {
          "duration": 0.1875,
          "durationTicks": 128,
          "midi": 82,
          "name": "A#5",
          "ticks": 36352,
          "time": 53.25,
          "velocity": 0.8188976377952756
        },
        {
          "duration": 0.1875,
          "durationTicks": 128,
          "midi": 84,
          "name": "C6",
          "ticks": 36480,
          "time": 53.4375,
          "velocity": 0.8661417322834646
        },
        {
          "duration": 0.1875,
          "durationTicks": 128,
          "midi": 85,
          "name": "C#6",
          "ticks": 36608,
          "time": 53.625,
          "velocity": 0.8346456692913385
        },
        {
          "duration": 0.1875,
          "durationTicks": 128,
          "midi": 77,
          "name": "F5",
          "ticks": 36736,
          "time": 53.8125,
          "velocity": 0.6377952755905512
        },
        {
          "duration": 0.1875,
          "durationTicks": 128,
          "midi": 76,
          "name": "E5",
          "ticks": 36864,
          "time": 54,
          "velocity": 0.7322834645669292
        },
        {
          "duration": 0.1875,
          "durationTicks": 128,
          "midi": 77,
          "name": "F5",
          "ticks": 36992,
          "time": 54.1875,
          "velocity": 0.7716535433070866
        },
        {
          "duration": 0.1875,
          "durationTicks": 128,
          "midi": 79,
          "name": "G5",
          "ticks": 37120,
          "time": 54.375,
          "velocity": 0.7952755905511811
        },
        {
          "duration": 0.1875,
          "durationTicks": 128,
          "midi": 81,
          "name": "A5",
          "ticks": 37248,
          "time": 54.5625,
          "velocity": 0.7952755905511811
        },
        {
          "duration": 0.1875,
          "durationTicks": 128,
          "midi": 82,
          "name": "A#5",
          "ticks": 37376,
          "time": 54.75,
          "velocity": 0.8188976377952756
        },
        {
          "duration": 0.1875,
          "durationTicks": 128,
          "midi": 84,
          "name": "C6",
          "ticks": 37504,
          "time": 54.9375,
          "velocity": 0.8188976377952756
        },
        {
          "duration": 0.1875,
          "durationTicks": 128,
          "midi": 85,
          "name": "C#6",
          "ticks": 37632,
          "time": 55.125,
          "velocity": 0.8267716535433071
        },
        {
          "duration": 0.1875,
          "durationTicks": 128,
          "midi": 76,
          "name": "E5",
          "ticks": 37760,
          "time": 55.3125,
          "velocity": 0.6141732283464567
        },
        {
          "duration": 0.75,
          "durationTicks": 512,
          "midi": 77,
          "name": "F5",
          "ticks": 37888,
          "time": 55.5,
          "velocity": 0.8267716535433071
        },
        {
          "duration": 0.375,
          "durationTicks": 256,
          "midi": 84,
          "name": "C6",
          "ticks": 38400,
          "time": 56.25,
          "velocity": 0.9212598425196851
        },
        {
          "duration": 0.375,
          "durationTicks": 256,
          "midi": 81,
          "name": "A5",
          "ticks": 38656,
          "time": 56.625,
          "velocity": 0.7480314960629921
        },
        {
          "duration": 0.75,
          "durationTicks": 512,
          "midi": 85,
          "name": "C#6",
          "ticks": 38912,
          "time": 57,
          "velocity": 0.8346456692913385
        },
        {
          "duration": 0.375,
          "durationTicks": 256,
          "midi": 76,
          "name": "E5",
          "ticks": 39424,
          "time": 57.75,
          "velocity": 0.6299212598425197
        },
        {
          "duration": 0.375,
          "durationTicks": 256,
          "midi": 79,
          "name": "G5",
          "ticks": 39680,
          "time": 58.125,
          "velocity": 0.8188976377952756
        },
        {
          "duration": 0.75,
          "durationTicks": 512,
          "midi": 77,
          "name": "F5",
          "ticks": 39936,
          "time": 58.5,
          "velocity": 0.7086614173228346
        },
        {
          "duration": 0.1875,
          "durationTicks": 128,
          "midi": 84,
          "name": "C6",
          "ticks": 40448,
          "time": 59.25,
          "velocity": 0.905511811023622
        },
        {
          "duration": 0.1875,
          "durationTicks": 128,
          "midi": 81,
          "name": "A5",
          "ticks": 40576,
          "time": 59.4375,
          "velocity": 0.7322834645669292
        },
        {
          "duration": 0.1875,
          "durationTicks": 128,
          "midi": 84,
          "name": "C6",
          "ticks": 40704,
          "time": 59.625,
          "velocity": 0.8267716535433071
        },
        {
          "duration": 0.1875,
          "durationTicks": 128,
          "midi": 81,
          "name": "A5",
          "ticks": 40832,
          "time": 59.8125,
          "velocity": 0.7401574803149606
        },
        {
          "duration": 0.1875,
          "durationTicks": 128,
          "midi": 85,
          "name": "C#6",
          "ticks": 40960,
          "time": 60,
          "velocity": 0.8188976377952756
        },
        {
          "duration": 0.1875,
          "durationTicks": 128,
          "midi": 82,
          "name": "A#5",
          "ticks": 41088,
          "time": 60.1875,
          "velocity": 0.7322834645669292
        },
        {
          "duration": 0.1875,
          "durationTicks": 128,
          "midi": 85,
          "name": "C#6",
          "ticks": 41216,
          "time": 60.375,
          "velocity": 0.8267716535433071
        },
        {
          "duration": 0.1875,
          "durationTicks": 128,
          "midi": 82,
          "name": "A#5",
          "ticks": 41344,
          "time": 60.5625,
          "velocity": 0.6850393700787402
        },
        {
          "duration": 0.1875,
          "durationTicks": 128,
          "midi": 76,
          "name": "E5",
          "ticks": 41472,
          "time": 60.75,
          "velocity": 0.6614173228346457
        },
        {
          "duration": 0.1875,
          "durationTicks": 128,
          "midi": 79,
          "name": "G5",
          "ticks": 41600,
          "time": 60.9375,
          "velocity": 0.8031496062992126
        },
        {
          "duration": 0.1875,
          "durationTicks": 128,
          "midi": 76,
          "name": "E5",
          "ticks": 41728,
          "time": 61.125,
          "velocity": 0.7322834645669292
        },
        {
          "duration": 0.1875,
          "durationTicks": 128,
          "midi": 79,
          "name": "G5",
          "ticks": 41856,
          "time": 61.3125,
          "velocity": 0.7952755905511811
        },
        {
          "duration": 0.375,
          "durationTicks": 256,
          "midi": 77,
          "name": "F5",
          "ticks": 41984,
          "time": 61.5,
          "velocity": 0.7480314960629921
        },
        {
          "duration": 0.375,
          "durationTicks": 256,
          "midi": 57,
          "name": "A3",
          "ticks": 42496,
          "time": 62.25,
          "velocity": 0.6692913385826772
        },
        {
          "duration": 0.375,
          "durationTicks": 256,
          "midi": 65,
          "name": "F4",
          "ticks": 42496,
          "time": 62.25,
          "velocity": 0.6692913385826772
        },
        {
          "duration": 1.14697265625,
          "durationTicks": 783,
          "midi": 77,
          "name": "F5",
          "ticks": 44032,
          "time": 64.5,
          "velocity": 0.41732283464566927
        },
        {
          "duration": 0.38232421875,
          "durationTicks": 261,
          "midi": 76,
          "name": "E5",
          "ticks": 44800,
          "time": 65.625,
          "velocity": 0.3937007874015748
        },
        {
          "duration": 0.35595703125,
          "durationTicks": 243,
          "midi": 75,
          "name": "D#5",
          "ticks": 45056,
          "time": 66,
          "velocity": 0.4566929133858268
        },
        {
          "duration": 0.1875,
          "durationTicks": 128,
          "midi": 70,
          "name": "A#4",
          "ticks": 46336,
          "time": 67.875,
          "velocity": 0.4251968503937008
        },
        {
          "duration": 0.38232421875,
          "durationTicks": 261,
          "midi": 70,
          "name": "A#4",
          "ticks": 46592,
          "time": 68.25,
          "velocity": 0.48031496062992124
        },
        {
          "duration": 0.35595703125,
          "durationTicks": 243,
          "midi": 72,
          "name": "C5",
          "ticks": 46848,
          "time": 68.625,
          "velocity": 0.5039370078740157
        },
        {
          "duration": 0.57275390625,
          "durationTicks": 391,
          "midi": 74,
          "name": "D5",
          "ticks": 47104,
          "time": 69,
          "velocity": 0.49606299212598426
        },
        {
          "duration": 0.17724609375,
          "durationTicks": 121,
          "midi": 75,
          "name": "D#5",
          "ticks": 47488,
          "time": 69.5625,
          "velocity": 0.5275590551181102
        },
        {
          "duration": 0.375,
          "durationTicks": 256,
          "midi": 72,
          "name": "C5",
          "ticks": 47616,
          "time": 69.75,
          "velocity": 0.4409448818897638
        },
        {
          "duration": 1.14697265625,
          "durationTicks": 783,
          "midi": 79,
          "name": "G5",
          "ticks": 48128,
          "time": 70.5,
          "velocity": 0.4015748031496063
        },
        {
          "duration": 0.38232421875,
          "durationTicks": 261,
          "midi": 78,
          "name": "F#5",
          "ticks": 48896,
          "time": 71.625,
          "velocity": 0.41732283464566927
        },
        {
          "duration": 0.38232421875,
          "durationTicks": 261,
          "midi": 77,
          "name": "F5",
          "ticks": 49152,
          "time": 72,
          "velocity": 0.47244094488188976
        },
        {
          "duration": 0.38232421875,
          "durationTicks": 261,
          "midi": 76,
          "name": "E5",
          "ticks": 49408,
          "time": 72.375,
          "velocity": 0.41732283464566927
        },
        {
          "duration": 0.38232421875,
          "durationTicks": 261,
          "midi": 75,
          "name": "D#5",
          "ticks": 49664,
          "time": 72.75,
          "velocity": 0.4330708661417323
        },
        {
          "duration": 0.35595703125,
          "durationTicks": 243,
          "midi": 74,
          "name": "D5",
          "ticks": 49920,
          "time": 73.125,
          "velocity": 0.41732283464566927
        },
        {
          "duration": 0.38232421875,
          "durationTicks": 261,
          "midi": 72,
          "name": "C5",
          "ticks": 50176,
          "time": 73.5,
          "velocity": 0.4330708661417323
        },
        {
          "duration": 0.7646484375,
          "durationTicks": 522,
          "midi": 75,
          "name": "D#5",
          "ticks": 50432,
          "time": 73.875,
          "velocity": 0.44881889763779526
        },
        {
          "duration": 0.35595703125,
          "durationTicks": 243,
          "midi": 69,
          "name": "A4",
          "ticks": 50944,
          "time": 74.625,
          "velocity": 0.4251968503937008
        },
        {
          "duration": 0.375,
          "durationTicks": 256,
          "midi": 70,
          "name": "A#4",
          "ticks": 51200,
          "time": 75,
          "velocity": 0.5118110236220472
        },
        {
          "duration": 1.14697265625,
          "durationTicks": 783,
          "midi": 75,
          "name": "D#5",
          "ticks": 53248,
          "time": 78,
          "velocity": 0.4251968503937008
        },
        {
          "duration": 0.09521484375,
          "durationTicks": 65,
          "midi": 77,
          "name": "F5",
          "ticks": 54016,
          "time": 79.125,
          "velocity": 0.4566929133858268
        },
        {
          "duration": 0.09521484375,
          "durationTicks": 65,
          "midi": 75,
          "name": "D#5",
          "ticks": 54080,
          "time": 79.21875,
          "velocity": 0.44881889763779526
        },
        {
          "duration": 0.09521484375,
          "durationTicks": 65,
          "midi": 74,
          "name": "D5",
          "ticks": 54144,
          "time": 79.3125,
          "velocity": 0.41732283464566927
        },
        {
          "duration": 0.09521484375,
          "durationTicks": 65,
          "midi": 72,
          "name": "C5",
          "ticks": 54208,
          "time": 79.40625,
          "velocity": 0.4330708661417323
        },
        {
          "duration": 0.35595703125,
          "durationTicks": 243,
          "midi": 70,
          "name": "A#4",
          "ticks": 54272,
          "time": 79.5,
          "velocity": 0.3937007874015748
        },
        {
          "duration": 1.14697265625,
          "durationTicks": 783,
          "midi": 67,
          "name": "G4",
          "ticks": 56320,
          "time": 82.5,
          "velocity": 0.3937007874015748
        },
        {
          "duration": 0.38232421875,
          "durationTicks": 261,
          "midi": 66,
          "name": "F#4",
          "ticks": 57088,
          "time": 83.625,
          "velocity": 0.36220472440944884
        },
        {
          "duration": 0.38232421875,
          "durationTicks": 261,
          "midi": 65,
          "name": "F4",
          "ticks": 57344,
          "time": 84,
          "velocity": 0.4251968503937008
        },
        {
          "duration": 0.38232421875,
          "durationTicks": 261,
          "midi": 64,
          "name": "E4",
          "ticks": 57600,
          "time": 84.375,
          "velocity": 0.4094488188976378
        },
        {
          "duration": 0.38232421875,
          "durationTicks": 261,
          "midi": 63,
          "name": "D#4",
          "ticks": 57856,
          "time": 84.75,
          "velocity": 0.41732283464566927
        },
        {
          "duration": 0.35595703125,
          "durationTicks": 243,
          "midi": 62,
          "name": "D4",
          "ticks": 58112,
          "time": 85.125,
          "velocity": 0.3464566929133858
        },
        {
          "duration": 1.14697265625,
          "durationTicks": 783,
          "midi": 61,
          "name": "C#4",
          "ticks": 58368,
          "time": 85.5,
          "velocity": 0.4566929133858268
        },
        {
          "duration": 0.35595703125,
          "durationTicks": 243,
          "midi": 60,
          "name": "C4",
          "ticks": 59136,
          "time": 86.625,
          "velocity": 0.4409448818897638
        },
        {
          "duration": 1.14697265625,
          "durationTicks": 783,
          "midi": 61,
          "name": "C#4",
          "ticks": 59392,
          "time": 87,
          "velocity": 0.5118110236220472
        },
        {
          "duration": 0.35595703125,
          "durationTicks": 243,
          "midi": 60,
          "name": "C4",
          "ticks": 60160,
          "time": 88.125,
          "velocity": 0.5039370078740157
        },
        {
          "duration": 1.14697265625,
          "durationTicks": 783,
          "midi": 61,
          "name": "C#4",
          "ticks": 60416,
          "time": 88.5,
          "velocity": 0.47244094488188976
        },
        {
          "duration": 0.35595703125,
          "durationTicks": 243,
          "midi": 60,
          "name": "C4",
          "ticks": 61184,
          "time": 89.625,
          "velocity": 0.4330708661417323
        },
        {
          "duration": 1.14697265625,
          "durationTicks": 783,
          "midi": 61,
          "name": "C#4",
          "ticks": 61440,
          "time": 90,
          "velocity": 0.4881889763779528
        },
        {
          "duration": 0.35595703125,
          "durationTicks": 243,
          "midi": 60,
          "name": "C4",
          "ticks": 62208,
          "time": 91.125,
          "velocity": 0.47244094488188976
        },
        {
          "duration": 0.1875,
          "durationTicks": 128,
          "midi": 61,
          "name": "C#4",
          "ticks": 62464,
          "time": 91.5,
          "velocity": 0.49606299212598426
        },
        {
          "duration": 0.1875,
          "durationTicks": 128,
          "midi": 73,
          "name": "C#5",
          "ticks": 62592,
          "time": 91.6875,
          "velocity": 0.6141732283464567
        },
        {
          "duration": 0.1875,
          "durationTicks": 128,
          "midi": 73,
          "name": "C#5",
          "ticks": 62720,
          "time": 91.875,
          "velocity": 0.5196850393700787
        },
        {
          "duration": 0.1875,
          "durationTicks": 128,
          "midi": 73,
          "name": "C#5",
          "ticks": 62848,
          "time": 92.0625,
          "velocity": 0.5354330708661418
        },
        {
          "duration": 0.1875,
          "durationTicks": 128,
          "midi": 73,
          "name": "C#5",
          "ticks": 62976,
          "time": 92.25,
          "velocity": 0.5275590551181102
        },
        {
          "duration": 0.1875,
          "durationTicks": 128,
          "midi": 73,
          "name": "C#5",
          "ticks": 63104,
          "time": 92.4375,
          "velocity": 0.5669291338582677
        },
        {
          "duration": 0.1875,
          "durationTicks": 128,
          "midi": 73,
          "name": "C#5",
          "ticks": 63232,
          "time": 92.625,
          "velocity": 0.5748031496062992
        },
        {
          "duration": 0.1875,
          "durationTicks": 128,
          "midi": 73,
          "name": "C#5",
          "ticks": 63360,
          "time": 92.8125,
          "velocity": 0.5826771653543307
        },
        {
          "duration": 0.1875,
          "durationTicks": 128,
          "midi": 73,
          "name": "C#5",
          "ticks": 63488,
          "time": 93,
          "velocity": 0.5984251968503937
        },
        {
          "duration": 0.1875,
          "durationTicks": 128,
          "midi": 85,
          "name": "C#6",
          "ticks": 63616,
          "time": 93.1875,
          "velocity": 0.8188976377952756
        },
        {
          "duration": 0.1875,
          "durationTicks": 128,
          "midi": 85,
          "name": "C#6",
          "ticks": 63744,
          "time": 93.375,
          "velocity": 0.6456692913385826
        },
        {
          "duration": 0.1875,
          "durationTicks": 128,
          "midi": 85,
          "name": "C#6",
          "ticks": 63872,
          "time": 93.5625,
          "velocity": 0.6929133858267716
        },
        {
          "duration": 0.1875,
          "durationTicks": 128,
          "midi": 85,
          "name": "C#6",
          "ticks": 64000,
          "time": 93.75,
          "velocity": 0.7322834645669292
        },
        {
          "duration": 0.1875,
          "durationTicks": 128,
          "midi": 85,
          "name": "C#6",
          "ticks": 64128,
          "time": 93.9375,
          "velocity": 0.7165354330708661
        },
        {
          "duration": 0.1875,
          "durationTicks": 128,
          "midi": 85,
          "name": "C#6",
          "ticks": 64256,
          "time": 94.125,
          "velocity": 0.7165354330708661
        },
        {
          "duration": 0.1875,
          "durationTicks": 128,
          "midi": 85,
          "name": "C#6",
          "ticks": 64384,
          "time": 94.3125,
          "velocity": 0.7480314960629921
        },
        {
          "duration": 1.5,
          "durationTicks": 1024,
          "midi": 86,
          "name": "D6",
          "ticks": 64512,
          "time": 94.5,
          "velocity": 0.7952755905511811
        },
        {
          "duration": 0.0703125,
          "durationTicks": 48,
          "midi": 81,
          "name": "A5",
          "ticks": 65536,
          "time": 96,
          "velocity": 0.6220472440944882
        },
        {
          "duration": 0.0703125,
          "durationTicks": 48,
          "midi": 82,
          "name": "A#5",
          "ticks": 65596,
          "time": 96.087890625,
          "velocity": 0.6220472440944882
        },
        {
          "duration": 0.06884765625,
          "durationTicks": 47,
          "midi": 81,
          "name": "A5",
          "ticks": 65655,
          "time": 96.17431640625,
          "velocity": 0.6220472440944882
        },
        {
          "duration": 0.06591796875,
          "durationTicks": 45,
          "midi": 82,
          "name": "A#5",
          "ticks": 65712,
          "time": 96.2578125,
          "velocity": 0.6220472440944882
        },
        {
          "duration": 0.064453125,
          "durationTicks": 44,
          "midi": 81,
          "name": "A5",
          "ticks": 65768,
          "time": 96.33984375,
          "velocity": 0.6220472440944882
        },
        {
          "duration": 0.06298828125,
          "durationTicks": 43,
          "midi": 82,
          "name": "A#5",
          "ticks": 65822,
          "time": 96.4189453125,
          "velocity": 0.6220472440944882
        },
        {
          "duration": 0.0615234375,
          "durationTicks": 42,
          "midi": 81,
          "name": "A5",
          "ticks": 65875,
          "time": 96.49658203125,
          "velocity": 0.6220472440944882
        },
        {
          "duration": 0.06005859375,
          "durationTicks": 41,
          "midi": 82,
          "name": "A#5",
          "ticks": 65927,
          "time": 96.57275390625,
          "velocity": 0.6220472440944882
        },
        {
          "duration": 0.05859375,
          "durationTicks": 40,
          "midi": 81,
          "name": "A5",
          "ticks": 65978,
          "time": 96.6474609375,
          "velocity": 0.6220472440944882
        },
        {
          "duration": 0.05859375,
          "durationTicks": 40,
          "midi": 82,
          "name": "A#5",
          "ticks": 66029,
          "time": 96.72216796875,
          "velocity": 0.6220472440944882
        },
        {
          "duration": 0.06005859375,
          "durationTicks": 41,
          "midi": 81,
          "name": "A5",
          "ticks": 66081,
          "time": 96.79833984375,
          "velocity": 0.6220472440944882
        },
        {
          "duration": 0.0615234375,
          "durationTicks": 42,
          "midi": 82,
          "name": "A#5",
          "ticks": 66134,
          "time": 96.8759765625,
          "velocity": 0.6220472440944882
        },
        {
          "duration": 0.06298828125,
          "durationTicks": 43,
          "midi": 81,
          "name": "A5",
          "ticks": 66188,
          "time": 96.955078125,
          "velocity": 0.6220472440944882
        },
        {
          "duration": 0.064453125,
          "durationTicks": 44,
          "midi": 82,
          "name": "A#5",
          "ticks": 66244,
          "time": 97.037109375,
          "velocity": 0.6220472440944882
        },
        {
          "duration": 0.06591796875,
          "durationTicks": 45,
          "midi": 81,
          "name": "A5",
          "ticks": 66301,
          "time": 97.12060546875,
          "velocity": 0.6220472440944882
        },
        {
          "duration": 0.06884765625,
          "durationTicks": 47,
          "midi": 82,
          "name": "A#5",
          "ticks": 66360,
          "time": 97.20703125,
          "velocity": 0.6220472440944882
        },
        {
          "duration": 0.01611328125,
          "durationTicks": 11,
          "midi": 81,
          "name": "A5",
          "ticks": 66420,
          "time": 97.294921875,
          "velocity": 0.6220472440944882
        },
        {
          "duration": 0.09375,
          "durationTicks": 64,
          "midi": 79,
          "name": "G5",
          "ticks": 66432,
          "time": 97.3125,
          "velocity": 0.6850393700787402
        },
        {
          "duration": 0.09375,
          "durationTicks": 64,
          "midi": 81,
          "name": "A5",
          "ticks": 66496,
          "time": 97.40625,
          "velocity": 0.8188976377952756
        },
        {
          "duration": 0.375,
          "durationTicks": 256,
          "midi": 82,
          "name": "A#5",
          "ticks": 66560,
          "time": 97.5,
          "velocity": 0.8110236220472441
        },
        {
          "duration": 0.1875,
          "durationTicks": 128,
          "midi": 62,
          "name": "D4",
          "ticks": 66816,
          "time": 97.875,
          "velocity": 0.5433070866141733
        },
        {
          "duration": 0.1875,
          "durationTicks": 128,
          "midi": 62,
          "name": "D4",
          "ticks": 66944,
          "time": 98.0625,
          "velocity": 0.7716535433070866
        },
        {
          "duration": 0.1875,
          "durationTicks": 128,
          "midi": 62,
          "name": "D4",
          "ticks": 67072,
          "time": 98.25,
          "velocity": 0.7716535433070866
        },
        {
          "duration": 0.1875,
          "durationTicks": 128,
          "midi": 62,
          "name": "D4",
          "ticks": 67200,
          "time": 98.4375,
          "velocity": 0.7952755905511811
        },
        {
          "duration": 0.1875,
          "durationTicks": 128,
          "midi": 63,
          "name": "D#4",
          "ticks": 67328,
          "time": 98.625,
          "velocity": 0.7716535433070866
        },
        {
          "duration": 0.1875,
          "durationTicks": 128,
          "midi": 63,
          "name": "D#4",
          "ticks": 67456,
          "time": 98.8125,
          "velocity": 0.7637795275590551
        },
        {
          "duration": 0.1875,
          "durationTicks": 128,
          "midi": 64,
          "name": "E4",
          "ticks": 67584,
          "time": 99,
          "velocity": 0.8503937007874016
        },
        {
          "duration": 0.1875,
          "durationTicks": 128,
          "midi": 64,
          "name": "E4",
          "ticks": 67712,
          "time": 99.1875,
          "velocity": 0.7637795275590551
        },
        {
          "duration": 0.1875,
          "durationTicks": 128,
          "midi": 65,
          "name": "F4",
          "ticks": 67840,
          "time": 99.375,
          "velocity": 0.8267716535433071
        },
        {
          "duration": 0.1875,
          "durationTicks": 128,
          "midi": 65,
          "name": "F4",
          "ticks": 67968,
          "time": 99.5625,
          "velocity": 0.7716535433070866
        },
        {
          "duration": 0.1875,
          "durationTicks": 128,
          "midi": 66,
          "name": "F#4",
          "ticks": 68096,
          "time": 99.75,
          "velocity": 0.8346456692913385
        },
        {
          "duration": 0.1875,
          "durationTicks": 128,
          "midi": 66,
          "name": "F#4",
          "ticks": 68224,
          "time": 99.9375,
          "velocity": 0.7952755905511811
        },
        {
          "duration": 0.1875,
          "durationTicks": 128,
          "midi": 67,
          "name": "G4",
          "ticks": 68352,
          "time": 100.125,
          "velocity": 0.8188976377952756
        },
        {
          "duration": 0.1875,
          "durationTicks": 128,
          "midi": 67,
          "name": "G4",
          "ticks": 68480,
          "time": 100.3125,
          "velocity": 0.7795275590551181
        },
        {
          "duration": 0.375,
          "durationTicks": 256,
          "midi": 68,
          "name": "G#4",
          "ticks": 68608,
          "time": 100.5,
          "velocity": 0.8188976377952756
        },
        {
          "duration": 0.09375,
          "durationTicks": 64,
          "midi": 68,
          "name": "G#4",
          "ticks": 69056,
          "time": 101.15625,
          "velocity": 0.6692913385826772
        },
        {
          "duration": 0.375,
          "durationTicks": 256,
          "midi": 67,
          "name": "G4",
          "ticks": 69120,
          "time": 101.25,
          "velocity": 0.7086614173228346
        },
        {
          "duration": 0.09375,
          "durationTicks": 64,
          "midi": 67,
          "name": "G4",
          "ticks": 69568,
          "time": 101.90625,
          "velocity": 0.6929133858267716
        },
        {
          "duration": 0.375,
          "durationTicks": 256,
          "midi": 75,
          "name": "D#5",
          "ticks": 69632,
          "time": 102,
          "velocity": 0.937007874015748
        },
        {
          "duration": 0.09375,
          "durationTicks": 64,
          "midi": 75,
          "name": "D#5",
          "ticks": 70080,
          "time": 102.65625,
          "velocity": 0.6929133858267716
        },
        {
          "duration": 0.375,
          "durationTicks": 256,
          "midi": 74,
          "name": "D5",
          "ticks": 70144,
          "time": 102.75,
          "velocity": 0.7165354330708661
        },
        {
          "duration": 0.09375,
          "durationTicks": 64,
          "midi": 74,
          "name": "D5",
          "ticks": 70592,
          "time": 103.40625,
          "velocity": 0.6929133858267716
        },
        {
          "duration": 0.9375,
          "durationTicks": 640,
          "midi": 79,
          "name": "G5",
          "ticks": 70656,
          "time": 103.5,
          "velocity": 0.8346456692913385
        },
        {
          "duration": 0.09375,
          "durationTicks": 64,
          "midi": 77,
          "name": "F5",
          "ticks": 71296,
          "time": 104.4375,
          "velocity": 0.44881889763779526
        },
        {
          "duration": 0.09375,
          "durationTicks": 64,
          "midi": 75,
          "name": "D#5",
          "ticks": 71424,
          "time": 104.625,
          "velocity": 0.4645669291338583
        },
        {
          "duration": 0.09375,
          "durationTicks": 64,
          "midi": 74,
          "name": "D5",
          "ticks": 71552,
          "time": 104.8125,
          "velocity": 0.44881889763779526
        },
        {
          "duration": 0.09375,
          "durationTicks": 64,
          "midi": 72,
          "name": "C5",
          "ticks": 71680,
          "time": 105,
          "velocity": 0.47244094488188976
        },
        {
          "duration": 0.09375,
          "durationTicks": 64,
          "midi": 70,
          "name": "A#4",
          "ticks": 71808,
          "time": 105.1875,
          "velocity": 0.48031496062992124
        },
        {
          "duration": 0.09375,
          "durationTicks": 64,
          "midi": 69,
          "name": "A4",
          "ticks": 71936,
          "time": 105.375,
          "velocity": 0.4251968503937008
        },
        {
          "duration": 0.09375,
          "durationTicks": 64,
          "midi": 67,
          "name": "G4",
          "ticks": 72064,
          "time": 105.5625,
          "velocity": 0.4566929133858268
        },
        {
          "duration": 0.09375,
          "durationTicks": 64,
          "midi": 65,
          "name": "F4",
          "ticks": 72192,
          "time": 105.75,
          "velocity": 0.4566929133858268
        },
        {
          "duration": 0.09375,
          "durationTicks": 64,
          "midi": 63,
          "name": "D#4",
          "ticks": 72320,
          "time": 105.9375,
          "velocity": 0.4409448818897638
        },
        {
          "duration": 0.09375,
          "durationTicks": 64,
          "midi": 62,
          "name": "D4",
          "ticks": 72448,
          "time": 106.125,
          "velocity": 0.4566929133858268
        },
        {
          "duration": 0.09375,
          "durationTicks": 64,
          "midi": 60,
          "name": "C4",
          "ticks": 72576,
          "time": 106.3125,
          "velocity": 0.4330708661417323
        },
        {
          "duration": 0.375,
          "durationTicks": 256,
          "midi": 58,
          "name": "A#3",
          "ticks": 72704,
          "time": 106.5,
          "velocity": 0.4409448818897638
        },
        {
          "duration": 1.5,
          "durationTicks": 1024,
          "midi": 82,
          "name": "A#5",
          "ticks": 73216,
          "time": 107.25,
          "velocity": 0.4409448818897638
        },
        {
          "duration": 0.7119140625,
          "durationTicks": 486,
          "midi": 81,
          "name": "A5",
          "ticks": 74240,
          "time": 108.75,
          "velocity": 0.47244094488188976
        },
        {
          "duration": 1.5,
          "durationTicks": 1024,
          "midi": 82,
          "name": "A#5",
          "ticks": 75264,
          "time": 110.25,
          "velocity": 0.4251968503937008
        },
        {
          "duration": 0.7119140625,
          "durationTicks": 486,
          "midi": 81,
          "name": "A5",
          "ticks": 76288,
          "time": 111.75,
          "velocity": 0.44881889763779526
        },
        {
          "duration": 0.1904296875,
          "durationTicks": 130,
          "midi": 87,
          "name": "D#6",
          "ticks": 77568,
          "time": 113.625,
          "velocity": 0.6929133858267716
        },
        {
          "duration": 0.17724609375,
          "durationTicks": 121,
          "midi": 86,
          "name": "D6",
          "ticks": 77696,
          "time": 113.8125,
          "velocity": 0.6535433070866141
        },
        {
          "duration": 0.375,
          "durationTicks": 256,
          "midi": 86,
          "name": "D6",
          "ticks": 77824,
          "time": 114,
          "velocity": 0.7795275590551181
        },
        {
          "duration": 0.1904296875,
          "durationTicks": 130,
          "midi": 87,
          "name": "D#6",
          "ticks": 78080,
          "time": 114.375,
          "velocity": 0.8031496062992126
        },
        {
          "duration": 0.17724609375,
          "durationTicks": 121,
          "midi": 86,
          "name": "D6",
          "ticks": 78208,
          "time": 114.5625,
          "velocity": 0.8110236220472441
        },
        {
          "duration": 0.375,
          "durationTicks": 256,
          "midi": 86,
          "name": "D6",
          "ticks": 78336,
          "time": 114.75,
          "velocity": 0.7322834645669292
        },
        {
          "duration": 0.1904296875,
          "durationTicks": 130,
          "midi": 87,
          "name": "D#6",
          "ticks": 78592,
          "time": 115.125,
          "velocity": 0.8031496062992126
        },
        {
          "duration": 0.17724609375,
          "durationTicks": 121,
          "midi": 86,
          "name": "D6",
          "ticks": 78720,
          "time": 115.3125,
          "velocity": 0.7952755905511811
        },
        {
          "duration": 0.75,
          "durationTicks": 512,
          "midi": 86,
          "name": "D6",
          "ticks": 78848,
          "time": 115.5,
          "velocity": 0.7637795275590551
        },
        {
          "duration": 0.57275390625,
          "durationTicks": 391,
          "midi": 87,
          "name": "D#6",
          "ticks": 79360,
          "time": 116.25,
          "velocity": 0.8031496062992126
        },
        {
          "duration": 0.17724609375,
          "durationTicks": 121,
          "midi": 84,
          "name": "C6",
          "ticks": 79744,
          "time": 116.8125,
          "velocity": 0.7322834645669292
        },
        {
          "duration": 0.57275390625,
          "durationTicks": 391,
          "midi": 82,
          "name": "A#5",
          "ticks": 79872,
          "time": 117,
          "velocity": 0.6692913385826772
        },
        {
          "duration": 0.17724609375,
          "durationTicks": 121,
          "midi": 86,
          "name": "D6",
          "ticks": 80256,
          "time": 117.5625,
          "velocity": 0.7244094488188977
        },
        {
          "duration": 0.57275390625,
          "durationTicks": 391,
          "midi": 84,
          "name": "C6",
          "ticks": 80384,
          "time": 117.75,
          "velocity": 0.7165354330708661
        },
        {
          "duration": 0.17724609375,
          "durationTicks": 121,
          "midi": 81,
          "name": "A5",
          "ticks": 80768,
          "time": 118.3125,
          "velocity": 0.6377952755905512
        },
        {
          "duration": 0.375,
          "durationTicks": 256,
          "midi": 82,
          "name": "A#5",
          "ticks": 80896,
          "time": 118.5,
          "velocity": 0.8031496062992126
        },
        {
          "duration": 1.5,
          "durationTicks": 1024,
          "midi": 87,
          "name": "D#6",
          "ticks": 82432,
          "time": 120.75,
          "velocity": 0.4409448818897638
        },
        {
          "duration": 0.35595703125,
          "durationTicks": 243,
          "midi": 86,
          "name": "D6",
          "ticks": 83456,
          "time": 122.25,
          "velocity": 0.4566929133858268
        },
        {
          "duration": 1.5,
          "durationTicks": 1024,
          "midi": 75,
          "name": "D#5",
          "ticks": 84480,
          "time": 123.75,
          "velocity": 0.41732283464566927
        },
        {
          "duration": 0.35595703125,
          "durationTicks": 243,
          "midi": 74,
          "name": "D5",
          "ticks": 85504,
          "time": 125.25,
          "velocity": 0.4881889763779528
        },
        {
          "duration": 0.1904296875,
          "durationTicks": 130,
          "midi": 87,
          "name": "D#6",
          "ticks": 85760,
          "time": 125.625,
          "velocity": 1
        },
        {
          "duration": 0.17724609375,
          "durationTicks": 121,
          "midi": 86,
          "name": "D6",
          "ticks": 85888,
          "time": 125.8125,
          "velocity": 1
        },
        {
          "duration": 0.375,
          "durationTicks": 256,
          "midi": 86,
          "name": "D6",
          "ticks": 86016,
          "time": 126,
          "velocity": 0.7716535433070866
        },
        {
          "duration": 0.1904296875,
          "durationTicks": 130,
          "midi": 87,
          "name": "D#6",
          "ticks": 86272,
          "time": 126.375,
          "velocity": 0.8267716535433071
        },
        {
          "duration": 0.17724609375,
          "durationTicks": 121,
          "midi": 86,
          "name": "D6",
          "ticks": 86400,
          "time": 126.5625,
          "velocity": 0.7559055118110236
        },
        {
          "duration": 0.375,
          "durationTicks": 256,
          "midi": 86,
          "name": "D6",
          "ticks": 86528,
          "time": 126.75,
          "velocity": 0.7559055118110236
        },
        {
          "duration": 0.1904296875,
          "durationTicks": 130,
          "midi": 87,
          "name": "D#6",
          "ticks": 86784,
          "time": 127.125,
          "velocity": 0.8031496062992126
        },
        {
          "duration": 0.17724609375,
          "durationTicks": 121,
          "midi": 86,
          "name": "D6",
          "ticks": 86912,
          "time": 127.3125,
          "velocity": 0.7874015748031497
        },
        {
          "duration": 0.75,
          "durationTicks": 512,
          "midi": 86,
          "name": "D6",
          "ticks": 87040,
          "time": 127.5,
          "velocity": 0.7716535433070866
        },
        {
          "duration": 0.57275390625,
          "durationTicks": 391,
          "midi": 87,
          "name": "D#6",
          "ticks": 87552,
          "time": 128.25,
          "velocity": 0.7795275590551181
        },
        {
          "duration": 0.17724609375,
          "durationTicks": 121,
          "midi": 84,
          "name": "C6",
          "ticks": 87936,
          "time": 128.8125,
          "velocity": 0.6850393700787402
        },
        {
          "duration": 0.57275390625,
          "durationTicks": 391,
          "midi": 82,
          "name": "A#5",
          "ticks": 88064,
          "time": 129,
          "velocity": 0.7322834645669292
        },
        {
          "duration": 0.17724609375,
          "durationTicks": 121,
          "midi": 86,
          "name": "D6",
          "ticks": 88448,
          "time": 129.5625,
          "velocity": 0.7952755905511811
        },
        {
          "duration": 0.57275390625,
          "durationTicks": 391,
          "midi": 84,
          "name": "C6",
          "ticks": 88576,
          "time": 129.75,
          "velocity": 0.7165354330708661
        },
        {
          "duration": 0.17724609375,
          "durationTicks": 121,
          "midi": 81,
          "name": "A5",
          "ticks": 88960,
          "time": 130.3125,
          "velocity": 0.6614173228346457
        },
        {
          "duration": 0.1875,
          "durationTicks": 128,
          "midi": 82,
          "name": "A#5",
          "ticks": 89088,
          "time": 130.5,
          "velocity": 0.7952755905511811
        },
        {
          "duration": 0.1875,
          "durationTicks": 128,
          "midi": 77,
          "name": "F5",
          "ticks": 89216,
          "time": 130.6875,
          "velocity": 0.6614173228346457
        },
        {
          "duration": 0.1875,
          "durationTicks": 128,
          "midi": 86,
          "name": "D6",
          "ticks": 89344,
          "time": 130.875,
          "velocity": 0.8740157480314961
        },
        {
          "duration": 0.1875,
          "durationTicks": 128,
          "midi": 84,
          "name": "C6",
          "ticks": 89472,
          "time": 131.0625,
          "velocity": 0.7086614173228346
        },
        {
          "duration": 0.1875,
          "durationTicks": 128,
          "midi": 82,
          "name": "A#5",
          "ticks": 89600,
          "time": 131.25,
          "velocity": 0.7086614173228346
        },
        {
          "duration": 0.1875,
          "durationTicks": 128,
          "midi": 81,
          "name": "A5",
          "ticks": 89728,
          "time": 131.4375,
          "velocity": 0.7007874015748031
        },
        {
          "duration": 0.1875,
          "durationTicks": 128,
          "midi": 79,
          "name": "G5",
          "ticks": 89856,
          "time": 131.625,
          "velocity": 0.7322834645669292
        },
        {
          "duration": 0.1875,
          "durationTicks": 128,
          "midi": 77,
          "name": "F5",
          "ticks": 89984,
          "time": 131.8125,
          "velocity": 0.6929133858267716
        },
        {
          "duration": 0.1875,
          "durationTicks": 128,
          "midi": 75,
          "name": "D#5",
          "ticks": 90112,
          "time": 132,
          "velocity": 0.7322834645669292
        },
        {
          "duration": 0.1875,
          "durationTicks": 128,
          "midi": 74,
          "name": "D5",
          "ticks": 90240,
          "time": 132.1875,
          "velocity": 0.7086614173228346
        },
        {
          "duration": 0.1875,
          "durationTicks": 128,
          "midi": 72,
          "name": "C5",
          "ticks": 90368,
          "time": 132.375,
          "velocity": 0.7322834645669292
        },
        {
          "duration": 0.1875,
          "durationTicks": 128,
          "midi": 70,
          "name": "A#4",
          "ticks": 90496,
          "time": 132.5625,
          "velocity": 0.7086614173228346
        },
        {
          "duration": 0.1875,
          "durationTicks": 128,
          "midi": 69,
          "name": "A4",
          "ticks": 90624,
          "time": 132.75,
          "velocity": 0.7086614173228346
        },
        {
          "duration": 0.1875,
          "durationTicks": 128,
          "midi": 67,
          "name": "G4",
          "ticks": 90752,
          "time": 132.9375,
          "velocity": 0.7401574803149606
        },
        {
          "duration": 0.1875,
          "durationTicks": 128,
          "midi": 65,
          "name": "F4",
          "ticks": 90880,
          "time": 133.125,
          "velocity": 0.7007874015748031
        },
        {
          "duration": 0.1875,
          "durationTicks": 128,
          "midi": 63,
          "name": "D#4",
          "ticks": 91008,
          "time": 133.3125,
          "velocity": 0.6929133858267716
        },
        {
          "duration": 0.375,
          "durationTicks": 256,
          "midi": 62,
          "name": "D4",
          "ticks": 91136,
          "time": 133.5,
          "velocity": 0.7401574803149606
        },
        {
          "duration": 0.375,
          "durationTicks": 256,
          "midi": 77,
          "name": "F5",
          "ticks": 91392,
          "time": 133.875,
          "velocity": 1
        },
        {
          "duration": 0.375,
          "durationTicks": 256,
          "midi": 79,
          "name": "G5",
          "ticks": 91648,
          "time": 134.25,
          "velocity": 0.8346456692913385
        },
        {
          "duration": 0.375,
          "durationTicks": 256,
          "midi": 69,
          "name": "A4",
          "ticks": 91904,
          "time": 134.625,
          "velocity": 0.5984251968503937
        },
        {
          "duration": 0.1875,
          "durationTicks": 128,
          "midi": 70,
          "name": "A#4",
          "ticks": 92160,
          "time": 135,
          "velocity": 0.7795275590551181
        },
        {
          "duration": 0.1875,
          "durationTicks": 128,
          "midi": 65,
          "name": "F4",
          "ticks": 92288,
          "time": 135.1875,
          "velocity": 0.6692913385826772
        },
        {
          "duration": 0.1875,
          "durationTicks": 128,
          "midi": 74,
          "name": "D5",
          "ticks": 92416,
          "time": 135.375,
          "velocity": 0.889763779527559
        },
        {
          "duration": 0.1875,
          "durationTicks": 128,
          "midi": 72,
          "name": "C5",
          "ticks": 92544,
          "time": 135.5625,
          "velocity": 0.7165354330708661
        },
        {
          "duration": 0.1875,
          "durationTicks": 128,
          "midi": 70,
          "name": "A#4",
          "ticks": 92672,
          "time": 135.75,
          "velocity": 0.7165354330708661
        },
        {
          "duration": 0.1875,
          "durationTicks": 128,
          "midi": 69,
          "name": "A4",
          "ticks": 92800,
          "time": 135.9375,
          "velocity": 0.7401574803149606
        },
        {
          "duration": 0.1875,
          "durationTicks": 128,
          "midi": 67,
          "name": "G4",
          "ticks": 92928,
          "time": 136.125,
          "velocity": 0.7244094488188977
        },
        {
          "duration": 0.1875,
          "durationTicks": 128,
          "midi": 65,
          "name": "F4",
          "ticks": 93056,
          "time": 136.3125,
          "velocity": 0.7165354330708661
        },
        {
          "duration": 0.1875,
          "durationTicks": 128,
          "midi": 63,
          "name": "D#4",
          "ticks": 93184,
          "time": 136.5,
          "velocity": 0.7007874015748031
        },
        {
          "duration": 0.1875,
          "durationTicks": 128,
          "midi": 62,
          "name": "D4",
          "ticks": 93312,
          "time": 136.6875,
          "velocity": 0.7401574803149606
        },
        {
          "duration": 0.1875,
          "durationTicks": 128,
          "midi": 60,
          "name": "C4",
          "ticks": 93440,
          "time": 136.875,
          "velocity": 0.7086614173228346
        },
        {
          "duration": 0.1875,
          "durationTicks": 128,
          "midi": 58,
          "name": "A#3",
          "ticks": 93568,
          "time": 137.0625,
          "velocity": 0.7480314960629921
        },
        {
          "duration": 0.1875,
          "durationTicks": 128,
          "midi": 57,
          "name": "A3",
          "ticks": 93696,
          "time": 137.25,
          "velocity": 0.7322834645669292
        },
        {
          "duration": 0.1875,
          "durationTicks": 128,
          "midi": 60,
          "name": "C4",
          "ticks": 93824,
          "time": 137.4375,
          "velocity": 0.8188976377952756
        },
        {
          "duration": 0.1875,
          "durationTicks": 128,
          "midi": 65,
          "name": "F4",
          "ticks": 93952,
          "time": 137.625,
          "velocity": 0.8740157480314961
        },
        {
          "duration": 0.1875,
          "durationTicks": 128,
          "midi": 63,
          "name": "D#4",
          "ticks": 94080,
          "time": 137.8125,
          "velocity": 0.7086614173228346
        },
        {
          "duration": 0.375,
          "durationTicks": 256,
          "midi": 62,
          "name": "D4",
          "ticks": 94208,
          "time": 138,
          "velocity": 0.7401574803149606
        },
        {
          "duration": 0.375,
          "durationTicks": 256,
          "midi": 77,
          "name": "F5",
          "ticks": 94464,
          "time": 138.375,
          "velocity": 0.9448818897637795
        },
        {
          "duration": 0.375,
          "durationTicks": 256,
          "midi": 79,
          "name": "G5",
          "ticks": 94720,
          "time": 138.75,
          "velocity": 0.8110236220472441
        },
        {
          "duration": 0.375,
          "durationTicks": 256,
          "midi": 81,
          "name": "A5",
          "ticks": 94976,
          "time": 139.125,
          "velocity": 0.8582677165354331
        },
        {
          "duration": 0.375,
          "durationTicks": 256,
          "midi": 82,
          "name": "A#5",
          "ticks": 95232,
          "time": 139.5,
          "velocity": 0.8188976377952756
        },
        {
          "duration": 0.375,
          "durationTicks": 256,
          "midi": 79,
          "name": "G5",
          "ticks": 95488,
          "time": 139.875,
          "velocity": 0.7401574803149606
        },
        {
          "duration": 0.375,
          "durationTicks": 256,
          "midi": 77,
          "name": "F5",
          "ticks": 95744,
          "time": 140.25,
          "velocity": 0.7322834645669292
        },
        {
          "duration": 0.375,
          "durationTicks": 256,
          "midi": 69,
          "name": "A4",
          "ticks": 96000,
          "time": 140.625,
          "velocity": 0.6062992125984252
        },
        {
          "duration": 0.1904296875,
          "durationTicks": 130,
          "midi": 70,
          "name": "A#4",
          "ticks": 96256,
          "time": 141,
          "velocity": 0.7795275590551181
        },
        {
          "duration": 0.17724609375,
          "durationTicks": 121,
          "midi": 74,
          "name": "D5",
          "ticks": 96384,
          "time": 141.1875,
          "velocity": 0.8976377952755905
        },
        {
          "duration": 0.09375,
          "durationTicks": 64,
          "midi": 77,
          "name": "F5",
          "ticks": 96512,
          "time": 141.375,
          "velocity": 0.84251968503937
        },
        {
          "duration": 0.09375,
          "durationTicks": 64,
          "midi": 82,
          "name": "A#5",
          "ticks": 96640,
          "time": 141.5625,
          "velocity": 0.889763779527559
        },
        {
          "duration": 0.1904296875,
          "durationTicks": 130,
          "midi": 81,
          "name": "A5",
          "ticks": 96768,
          "time": 141.75,
          "velocity": 0.7401574803149606
        },
        {
          "duration": 0.17724609375,
          "durationTicks": 121,
          "midi": 77,
          "name": "F5",
          "ticks": 96896,
          "time": 141.9375,
          "velocity": 0.6220472440944882
        },
        {
          "duration": 0.09375,
          "durationTicks": 64,
          "midi": 84,
          "name": "C6",
          "ticks": 97024,
          "time": 142.125,
          "velocity": 0.9291338582677166
        },
        {
          "duration": 0.09375,
          "durationTicks": 64,
          "midi": 81,
          "name": "A5",
          "ticks": 97152,
          "time": 142.3125,
          "velocity": 0.7322834645669292
        },
        {
          "duration": 0.1904296875,
          "durationTicks": 130,
          "midi": 82,
          "name": "A#5",
          "ticks": 97280,
          "time": 142.5,
          "velocity": 0.7874015748031497
        },
        {
          "duration": 0.17724609375,
          "durationTicks": 121,
          "midi": 77,
          "name": "F5",
          "ticks": 97408,
          "time": 142.6875,
          "velocity": 0.7086614173228346
        },
        {
          "duration": 0.09375,
          "durationTicks": 64,
          "midi": 86,
          "name": "D6",
          "ticks": 97536,
          "time": 142.875,
          "velocity": 0.889763779527559
        },
        {
          "duration": 0.09375,
          "durationTicks": 64,
          "midi": 82,
          "name": "A#5",
          "ticks": 97664,
          "time": 143.0625,
          "velocity": 0.7086614173228346
        },
        {
          "duration": 0.1904296875,
          "durationTicks": 130,
          "midi": 81,
          "name": "A5",
          "ticks": 97792,
          "time": 143.25,
          "velocity": 0.7480314960629921
        },
        {
          "duration": 0.17724609375,
          "durationTicks": 121,
          "midi": 77,
          "name": "F5",
          "ticks": 97920,
          "time": 143.4375,
          "velocity": 0.6535433070866141
        },
        {
          "duration": 0.09375,
          "durationTicks": 64,
          "midi": 84,
          "name": "C6",
          "ticks": 98048,
          "time": 143.625,
          "velocity": 0.8976377952755905
        },
        {
          "duration": 0.09375,
          "durationTicks": 64,
          "midi": 81,
          "name": "A5",
          "ticks": 98176,
          "time": 143.8125,
          "velocity": 0.7401574803149606
        },
        {
          "duration": 0.1904296875,
          "durationTicks": 130,
          "midi": 82,
          "name": "A#5",
          "ticks": 98304,
          "time": 144,
          "velocity": 0.8110236220472441
        },
        {
          "duration": 0.17724609375,
          "durationTicks": 121,
          "midi": 77,
          "name": "F5",
          "ticks": 98432,
          "time": 144.1875,
          "velocity": 0.7165354330708661
        },
        {
          "duration": 0.09375,
          "durationTicks": 64,
          "midi": 86,
          "name": "D6",
          "ticks": 98560,
          "time": 144.375,
          "velocity": 0.9133858267716536
        },
        {
          "duration": 0.09375,
          "durationTicks": 64,
          "midi": 82,
          "name": "A#5",
          "ticks": 98688,
          "time": 144.5625,
          "velocity": 0.7480314960629921
        },
        {
          "duration": 0.1904296875,
          "durationTicks": 130,
          "midi": 81,
          "name": "A5",
          "ticks": 98816,
          "time": 144.75,
          "velocity": 0.7401574803149606
        },
        {
          "duration": 0.17724609375,
          "durationTicks": 121,
          "midi": 77,
          "name": "F5",
          "ticks": 98944,
          "time": 144.9375,
          "velocity": 0.6771653543307087
        },
        {
          "duration": 0.09375,
          "durationTicks": 64,
          "midi": 84,
          "name": "C6",
          "ticks": 99072,
          "time": 145.125,
          "velocity": 0.905511811023622
        },
        {
          "duration": 0.09375,
          "durationTicks": 64,
          "midi": 81,
          "name": "A5",
          "ticks": 99200,
          "time": 145.3125,
          "velocity": 0.7165354330708661
        },
        {
          "duration": 0.1904296875,
          "durationTicks": 130,
          "midi": 82,
          "name": "A#5",
          "ticks": 99328,
          "time": 145.5,
          "velocity": 0.7716535433070866
        },
        {
          "duration": 0.17724609375,
          "durationTicks": 121,
          "midi": 86,
          "name": "D6",
          "ticks": 99456,
          "time": 145.6875,
          "velocity": 0.8110236220472441
        },
        {
          "duration": 0.09375,
          "durationTicks": 64,
          "midi": 84,
          "name": "C6",
          "ticks": 99584,
          "time": 145.875,
          "velocity": 0.7165354330708661
        },
        {
          "duration": 0.09375,
          "durationTicks": 64,
          "midi": 81,
          "name": "A5",
          "ticks": 99712,
          "time": 146.0625,
          "velocity": 0.6929133858267716
        },
        {
          "duration": 0.1904296875,
          "durationTicks": 130,
          "midi": 82,
          "name": "A#5",
          "ticks": 99840,
          "time": 146.25,
          "velocity": 0.7874015748031497
        },
        {
          "duration": 0.17724609375,
          "durationTicks": 121,
          "midi": 86,
          "name": "D6",
          "ticks": 99968,
          "time": 146.4375,
          "velocity": 0.8661417322834646
        },
        {
          "duration": 0.09375,
          "durationTicks": 64,
          "midi": 84,
          "name": "C6",
          "ticks": 100096,
          "time": 146.625,
          "velocity": 0.7165354330708661
        },
        {
          "duration": 0.09375,
          "durationTicks": 64,
          "midi": 81,
          "name": "A5",
          "ticks": 100224,
          "time": 146.8125,
          "velocity": 0.7007874015748031
        },
        {
          "duration": 0.375,
          "durationTicks": 256,
          "midi": 82,
          "name": "A#5",
          "ticks": 100352,
          "time": 147,
          "velocity": 0.7952755905511811
        },
        {
          "duration": 0.375,
          "durationTicks": 256,
          "midi": 62,
          "name": "D4",
          "ticks": 101376,
          "time": 148.5,
          "velocity": 0.6771653543307087
        },
        {
          "duration": 0.375,
          "durationTicks": 256,
          "midi": 72,
          "name": "C5",
          "ticks": 101376,
          "time": 148.5,
          "velocity": 0.6771653543307087
        },
        {
          "duration": 0.375,
          "durationTicks": 256,
          "midi": 78,
          "name": "F#5",
          "ticks": 101376,
          "time": 148.5,
          "velocity": 0.6771653543307087
        },
        {
          "duration": 0.1904296875,
          "durationTicks": 130,
          "midi": 75,
          "name": "D#5",
          "ticks": 103168,
          "time": 151.125,
          "velocity": 0.4409448818897638
        },
        {
          "duration": 0.17724609375,
          "durationTicks": 121,
          "midi": 74,
          "name": "D5",
          "ticks": 103296,
          "time": 151.3125,
          "velocity": 0.41732283464566927
        },
        {
          "duration": 0.375,
          "durationTicks": 256,
          "midi": 74,
          "name": "D5",
          "ticks": 103424,
          "time": 151.5,
          "velocity": 0.47244094488188976
        },
        {
          "duration": 0.1904296875,
          "durationTicks": 130,
          "midi": 75,
          "name": "D#5",
          "ticks": 103680,
          "time": 151.875,
          "velocity": 0.49606299212598426
        },
        {
          "duration": 0.17724609375,
          "durationTicks": 121,
          "midi": 74,
          "name": "D5",
          "ticks": 103808,
          "time": 152.0625,
          "velocity": 0.4645669291338583
        },
        {
          "duration": 0.375,
          "durationTicks": 256,
          "midi": 74,
          "name": "D5",
          "ticks": 103936,
          "time": 152.25,
          "velocity": 0.48031496062992124
        },
        {
          "duration": 0.1904296875,
          "durationTicks": 130,
          "midi": 75,
          "name": "D#5",
          "ticks": 104192,
          "time": 152.625,
          "velocity": 0.4645669291338583
        },
        {
          "duration": 0.17724609375,
          "durationTicks": 121,
          "midi": 74,
          "name": "D5",
          "ticks": 104320,
          "time": 152.8125,
          "velocity": 0.4251968503937008
        },
        {
          "duration": 0.38232421875,
          "durationTicks": 261,
          "midi": 74,
          "name": "D5",
          "ticks": 104448,
          "time": 153,
          "velocity": 0.4881889763779528
        },
        {
          "duration": 0.35595703125,
          "durationTicks": 243,
          "midi": 82,
          "name": "A#5",
          "ticks": 104704,
          "time": 153.375,
          "velocity": 0.5433070866141733
        },
        {
          "duration": 0.1904296875,
          "durationTicks": 130,
          "midi": 82,
          "name": "A#5",
          "ticks": 105216,
          "time": 154.125,
          "velocity": 0.41732283464566927
        },
        {
          "duration": 0.17724609375,
          "durationTicks": 121,
          "midi": 81,
          "name": "A5",
          "ticks": 105344,
          "time": 154.3125,
          "velocity": 0.4015748031496063
        },
        {
          "duration": 0.375,
          "durationTicks": 256,
          "midi": 79,
          "name": "G5",
          "ticks": 105472,
          "time": 154.5,
          "velocity": 0.4645669291338583
        },
        {
          "duration": 0.1904296875,
          "durationTicks": 130,
          "midi": 79,
          "name": "G5",
          "ticks": 105728,
          "time": 154.875,
          "velocity": 0.48031496062992124
        },
        {
          "duration": 0.17724609375,
          "durationTicks": 121,
          "midi": 77,
          "name": "F5",
          "ticks": 105856,
          "time": 155.0625,
          "velocity": 0.4409448818897638
        },
        {
          "duration": 0.375,
          "durationTicks": 256,
          "midi": 75,
          "name": "D#5",
          "ticks": 105984,
          "time": 155.25,
          "velocity": 0.4251968503937008
        },
        {
          "duration": 0.1904296875,
          "durationTicks": 130,
          "midi": 75,
          "name": "D#5",
          "ticks": 106240,
          "time": 155.625,
          "velocity": 0.4645669291338583
        },
        {
          "duration": 0.17724609375,
          "durationTicks": 121,
          "midi": 74,
          "name": "D5",
          "ticks": 106368,
          "time": 155.8125,
          "velocity": 0.4251968503937008
        },
        {
          "duration": 0.375,
          "durationTicks": 256,
          "midi": 72,
          "name": "C5",
          "ticks": 106496,
          "time": 156,
          "velocity": 0.4409448818897638
        },
        {
          "duration": 0.375,
          "durationTicks": 256,
          "midi": 72,
          "name": "C5",
          "ticks": 106752,
          "time": 156.375,
          "velocity": 0.48031496062992124
        },
        {
          "duration": 0.1904296875,
          "durationTicks": 130,
          "midi": 74,
          "name": "D5",
          "ticks": 107264,
          "time": 157.125,
          "velocity": 0.4330708661417323
        },
        {
          "duration": 0.17724609375,
          "durationTicks": 121,
          "midi": 72,
          "name": "C5",
          "ticks": 107392,
          "time": 157.3125,
          "velocity": 0.3858267716535433
        },
        {
          "duration": 0.375,
          "durationTicks": 256,
          "midi": 72,
          "name": "C5",
          "ticks": 107520,
          "time": 157.5,
          "velocity": 0.4881889763779528
        },
        {
          "duration": 0.1904296875,
          "durationTicks": 130,
          "midi": 74,
          "name": "D5",
          "ticks": 107776,
          "time": 157.875,
          "velocity": 0.5196850393700787
        },
        {
          "duration": 0.17724609375,
          "durationTicks": 121,
          "midi": 72,
          "name": "C5",
          "ticks": 107904,
          "time": 158.0625,
          "velocity": 0.5039370078740157
        },
        {
          "duration": 0.375,
          "durationTicks": 256,
          "midi": 72,
          "name": "C5",
          "ticks": 108032,
          "time": 158.25,
          "velocity": 0.48031496062992124
        },
        {
          "duration": 0.1904296875,
          "durationTicks": 130,
          "midi": 74,
          "name": "D5",
          "ticks": 108288,
          "time": 158.625,
          "velocity": 0.49606299212598426
        },
        {
          "duration": 0.17724609375,
          "durationTicks": 121,
          "midi": 72,
          "name": "C5",
          "ticks": 108416,
          "time": 158.8125,
          "velocity": 0.4645669291338583
        },
        {
          "duration": 0.38232421875,
          "durationTicks": 261,
          "midi": 72,
          "name": "C5",
          "ticks": 108544,
          "time": 159,
          "velocity": 0.48031496062992124
        },
        {
          "duration": 0.35595703125,
          "durationTicks": 243,
          "midi": 81,
          "name": "A5",
          "ticks": 108800,
          "time": 159.375,
          "velocity": 0.5511811023622047
        },
        {
          "duration": 0.1904296875,
          "durationTicks": 130,
          "midi": 81,
          "name": "A5",
          "ticks": 109312,
          "time": 160.125,
          "velocity": 0.4330708661417323
        },
        {
          "duration": 0.17724609375,
          "durationTicks": 121,
          "midi": 79,
          "name": "G5",
          "ticks": 109440,
          "time": 160.3125,
          "velocity": 0.3779527559055118
        },
        {
          "duration": 0.375,
          "durationTicks": 256,
          "midi": 78,
          "name": "F#5",
          "ticks": 109568,
          "time": 160.5,
          "velocity": 0.44881889763779526
        },
        {
          "duration": 0.1904296875,
          "durationTicks": 130,
          "midi": 78,
          "name": "F#5",
          "ticks": 109824,
          "time": 160.875,
          "velocity": 0.49606299212598426
        },
        {
          "duration": 0.17724609375,
          "durationTicks": 121,
          "midi": 75,
          "name": "D#5",
          "ticks": 109952,
          "time": 161.0625,
          "velocity": 0.4330708661417323
        },
        {
          "duration": 0.375,
          "durationTicks": 256,
          "midi": 74,
          "name": "D5",
          "ticks": 110080,
          "time": 161.25,
          "velocity": 0.4566929133858268
        },
        {
          "duration": 0.1904296875,
          "durationTicks": 130,
          "midi": 74,
          "name": "D5",
          "ticks": 110336,
          "time": 161.625,
          "velocity": 0.44881889763779526
        },
        {
          "duration": 0.17724609375,
          "durationTicks": 121,
          "midi": 72,
          "name": "C5",
          "ticks": 110464,
          "time": 161.8125,
          "velocity": 0.4566929133858268
        },
        {
          "duration": 0.375,
          "durationTicks": 256,
          "midi": 70,
          "name": "A#4",
          "ticks": 110592,
          "time": 162,
          "velocity": 0.4566929133858268
        },
        {
          "duration": 0.375,
          "durationTicks": 256,
          "midi": 70,
          "name": "A#4",
          "ticks": 110848,
          "time": 162.375,
          "velocity": 0.47244094488188976
        },
        {
          "duration": 0.1904296875,
          "durationTicks": 130,
          "midi": 82,
          "name": "A#5",
          "ticks": 111360,
          "time": 163.125,
          "velocity": 0.4645669291338583
        },
        {
          "duration": 0.17724609375,
          "durationTicks": 121,
          "midi": 81,
          "name": "A5",
          "ticks": 111488,
          "time": 163.3125,
          "velocity": 0.4330708661417323
        },
        {
          "duration": 0.38232421875,
          "durationTicks": 261,
          "midi": 81,
          "name": "A5",
          "ticks": 111616,
          "time": 163.5,
          "velocity": 0.47244094488188976
        },
        {
          "duration": 0.38232421875,
          "durationTicks": 261,
          "midi": 84,
          "name": "C6",
          "ticks": 111872,
          "time": 163.875,
          "velocity": 0.5118110236220472
        },
        {
          "duration": 0.38232421875,
          "durationTicks": 261,
          "midi": 78,
          "name": "F#5",
          "ticks": 112128,
          "time": 164.25,
          "velocity": 0.4330708661417323
        },
        {
          "duration": 0.35595703125,
          "durationTicks": 243,
          "midi": 81,
          "name": "A5",
          "ticks": 112384,
          "time": 164.625,
          "velocity": 0.4566929133858268
        },
        {
          "duration": 0.38232421875,
          "durationTicks": 261,
          "midi": 79,
          "name": "G5",
          "ticks": 112640,
          "time": 165,
          "velocity": 0.44881889763779526
        },
        {
          "duration": 0.35595703125,
          "durationTicks": 243,
          "midi": 74,
          "name": "D5",
          "ticks": 112896,
          "time": 165.375,
          "velocity": 0.41732283464566927
        },
        {
          "duration": 0.1904296875,
          "durationTicks": 130,
          "midi": 82,
          "name": "A#5",
          "ticks": 113408,
          "time": 166.125,
          "velocity": 0.4330708661417323
        },
        {
          "duration": 0.17724609375,
          "durationTicks": 121,
          "midi": 81,
          "name": "A5",
          "ticks": 113536,
          "time": 166.3125,
          "velocity": 0.3858267716535433
        },
        {
          "duration": 0.38232421875,
          "durationTicks": 261,
          "midi": 81,
          "name": "A5",
          "ticks": 113664,
          "time": 166.5,
          "velocity": 0.4409448818897638
        },
        {
          "duration": 0.38232421875,
          "durationTicks": 261,
          "midi": 84,
          "name": "C6",
          "ticks": 113920,
          "time": 166.875,
          "velocity": 0.5039370078740157
        },
        {
          "duration": 0.38232421875,
          "durationTicks": 261,
          "midi": 78,
          "name": "F#5",
          "ticks": 114176,
          "time": 167.25,
          "velocity": 0.36220472440944884
        },
        {
          "duration": 0.35595703125,
          "durationTicks": 243,
          "midi": 81,
          "name": "A5",
          "ticks": 114432,
          "time": 167.625,
          "velocity": 0.4094488188976378
        },
        {
          "duration": 0.38232421875,
          "durationTicks": 261,
          "midi": 79,
          "name": "G5",
          "ticks": 114688,
          "time": 168,
          "velocity": 0.4645669291338583
        },
        {
          "duration": 0.38232421875,
          "durationTicks": 261,
          "midi": 82,
          "name": "A#5",
          "ticks": 114944,
          "time": 168.375,
          "velocity": 0.5039370078740157
        },
        {
          "duration": 0.1904296875,
          "durationTicks": 130,
          "midi": 81,
          "name": "A5",
          "ticks": 115200,
          "time": 168.75,
          "velocity": 0.48031496062992124
        },
        {
          "duration": 0.1904296875,
          "durationTicks": 130,
          "midi": 79,
          "name": "G5",
          "ticks": 115328,
          "time": 168.9375,
          "velocity": 0.4645669291338583
        },
        {
          "duration": 0.1904296875,
          "durationTicks": 130,
          "midi": 77,
          "name": "F5",
          "ticks": 115456,
          "time": 169.125,
          "velocity": 0.4645669291338583
        },
        {
          "duration": 0.17724609375,
          "durationTicks": 121,
          "midi": 75,
          "name": "D#5",
          "ticks": 115584,
          "time": 169.3125,
          "velocity": 0.41732283464566927
        },
        {
          "duration": 1.529296875,
          "durationTicks": 1044,
          "midi": 74,
          "name": "D5",
          "ticks": 115712,
          "time": 169.5,
          "velocity": 0.4015748031496063
        },
        {
          "duration": 1.529296875,
          "durationTicks": 1044,
          "midi": 73,
          "name": "C#5",
          "ticks": 116736,
          "time": 171,
          "velocity": 0.3543307086614173
        },
        {
          "duration": 0.7119140625,
          "durationTicks": 486,
          "midi": 74,
          "name": "D5",
          "ticks": 117760,
          "time": 172.5,
          "velocity": 0.5039370078740157
        },
        {
          "duration": 0.1875,
          "durationTicks": 128,
          "midi": 62,
          "name": "D4",
          "ticks": 118528,
          "time": 173.625,
          "velocity": 0.7244094488188977
        },
        {
          "duration": 0.1875,
          "durationTicks": 128,
          "midi": 62,
          "name": "D4",
          "ticks": 118656,
          "time": 173.8125,
          "velocity": 0.7480314960629921
        },
        {
          "duration": 0.75,
          "durationTicks": 512,
          "midi": 62,
          "name": "D4",
          "ticks": 118784,
          "time": 174,
          "velocity": 0.7795275590551181
        },
        {
          "duration": 0.1875,
          "durationTicks": 128,
          "midi": 62,
          "name": "D4",
          "ticks": 119552,
          "time": 175.125,
          "velocity": 0.6771653543307087
        },
        {
          "duration": 0.1875,
          "durationTicks": 128,
          "midi": 62,
          "name": "D4",
          "ticks": 119680,
          "time": 175.3125,
          "velocity": 0.7480314960629921
        },
        {
          "duration": 0.75,
          "durationTicks": 512,
          "midi": 62,
          "name": "D4",
          "ticks": 119808,
          "time": 175.5,
          "velocity": 0.7559055118110236
        },
        {
          "duration": 0.1875,
          "durationTicks": 128,
          "midi": 62,
          "name": "D4",
          "ticks": 120576,
          "time": 176.625,
          "velocity": 0.7165354330708661
        },
        {
          "duration": 0.1875,
          "durationTicks": 128,
          "midi": 62,
          "name": "D4",
          "ticks": 120704,
          "time": 176.8125,
          "velocity": 0.7559055118110236
        },
        {
          "duration": 0.375,
          "durationTicks": 256,
          "midi": 62,
          "name": "D4",
          "ticks": 120832,
          "time": 177,
          "velocity": 0.7716535433070866
        },
        {
          "duration": 0.1875,
          "durationTicks": 128,
          "midi": 62,
          "name": "D4",
          "ticks": 121088,
          "time": 177.375,
          "velocity": 0.8110236220472441
        },
        {
          "duration": 0.1875,
          "durationTicks": 128,
          "midi": 62,
          "name": "D4",
          "ticks": 121216,
          "time": 177.5625,
          "velocity": 0.7637795275590551
        },
        {
          "duration": 0.375,
          "durationTicks": 256,
          "midi": 62,
          "name": "D4",
          "ticks": 121344,
          "time": 177.75,
          "velocity": 0.7874015748031497
        },
        {
          "duration": 0.1875,
          "durationTicks": 128,
          "midi": 62,
          "name": "D4",
          "ticks": 121600,
          "time": 178.125,
          "velocity": 0.7716535433070866
        },
        {
          "duration": 0.1875,
          "durationTicks": 128,
          "midi": 62,
          "name": "D4",
          "ticks": 121728,
          "time": 178.3125,
          "velocity": 0.7637795275590551
        },
        {
          "duration": 0.75,
          "durationTicks": 512,
          "midi": 62,
          "name": "D4",
          "ticks": 121856,
          "time": 178.5,
          "velocity": 0.7637795275590551
        },
        {
          "duration": 0.1904296875,
          "durationTicks": 130,
          "midi": 75,
          "name": "D#5",
          "ticks": 122624,
          "time": 179.625,
          "velocity": 0.4251968503937008
        },
        {
          "duration": 0.17724609375,
          "durationTicks": 121,
          "midi": 74,
          "name": "D5",
          "ticks": 122752,
          "time": 179.8125,
          "velocity": 0.31496062992125984
        },
        {
          "duration": 0.375,
          "durationTicks": 256,
          "midi": 74,
          "name": "D5",
          "ticks": 122880,
          "time": 180,
          "velocity": 0.4645669291338583
        },
        {
          "duration": 0.1904296875,
          "durationTicks": 130,
          "midi": 75,
          "name": "D#5",
          "ticks": 123136,
          "time": 180.375,
          "velocity": 0.5275590551181102
        },
        {
          "duration": 0.17724609375,
          "durationTicks": 121,
          "midi": 74,
          "name": "D5",
          "ticks": 123264,
          "time": 180.5625,
          "velocity": 0.5590551181102362
        },
        {
          "duration": 0.375,
          "durationTicks": 256,
          "midi": 74,
          "name": "D5",
          "ticks": 123392,
          "time": 180.75,
          "velocity": 0.47244094488188976
        },
        {
          "duration": 0.1904296875,
          "durationTicks": 130,
          "midi": 75,
          "name": "D#5",
          "ticks": 123648,
          "time": 181.125,
          "velocity": 0.5039370078740157
        },
        {
          "duration": 0.17724609375,
          "durationTicks": 121,
          "midi": 74,
          "name": "D5",
          "ticks": 123776,
          "time": 181.3125,
          "velocity": 0.48031496062992124
        },
        {
          "duration": 0.38232421875,
          "durationTicks": 261,
          "midi": 74,
          "name": "D5",
          "ticks": 123904,
          "time": 181.5,
          "velocity": 0.49606299212598426
        },
        {
          "duration": 0.35595703125,
          "durationTicks": 243,
          "midi": 82,
          "name": "A#5",
          "ticks": 124160,
          "time": 181.875,
          "velocity": 0.6062992125984252
        },
        {
          "duration": 0.1904296875,
          "durationTicks": 130,
          "midi": 82,
          "name": "A#5",
          "ticks": 124672,
          "time": 182.625,
          "velocity": 0.4645669291338583
        },
        {
          "duration": 0.17724609375,
          "durationTicks": 121,
          "midi": 81,
          "name": "A5",
          "ticks": 124800,
          "time": 182.8125,
          "velocity": 0.4015748031496063
        },
        {
          "duration": 0.375,
          "durationTicks": 256,
          "midi": 79,
          "name": "G5",
          "ticks": 124928,
          "time": 183,
          "velocity": 0.44881889763779526
        },
        {
          "duration": 0.1904296875,
          "durationTicks": 130,
          "midi": 79,
          "name": "G5",
          "ticks": 125184,
          "time": 183.375,
          "velocity": 0.4409448818897638
        },
        {
          "duration": 0.17724609375,
          "durationTicks": 121,
          "midi": 77,
          "name": "F5",
          "ticks": 125312,
          "time": 183.5625,
          "velocity": 0.41732283464566927
        },
        {
          "duration": 0.375,
          "durationTicks": 256,
          "midi": 75,
          "name": "D#5",
          "ticks": 125440,
          "time": 183.75,
          "velocity": 0.44881889763779526
        },
        {
          "duration": 0.1904296875,
          "durationTicks": 130,
          "midi": 75,
          "name": "D#5",
          "ticks": 125696,
          "time": 184.125,
          "velocity": 0.4881889763779528
        },
        {
          "duration": 0.17724609375,
          "durationTicks": 121,
          "midi": 74,
          "name": "D5",
          "ticks": 125824,
          "time": 184.3125,
          "velocity": 0.48031496062992124
        },
        {
          "duration": 0.375,
          "durationTicks": 256,
          "midi": 72,
          "name": "C5",
          "ticks": 125952,
          "time": 184.5,
          "velocity": 0.4330708661417323
        },
        {
          "duration": 0.375,
          "durationTicks": 256,
          "midi": 72,
          "name": "C5",
          "ticks": 126208,
          "time": 184.875,
          "velocity": 0.5118110236220472
        },
        {
          "duration": 0.1904296875,
          "durationTicks": 130,
          "midi": 77,
          "name": "F5",
          "ticks": 126720,
          "time": 185.625,
          "velocity": 0.4409448818897638
        },
        {
          "duration": 0.17724609375,
          "durationTicks": 121,
          "midi": 75,
          "name": "D#5",
          "ticks": 126848,
          "time": 185.8125,
          "velocity": 0.41732283464566927
        },
        {
          "duration": 0.375,
          "durationTicks": 256,
          "midi": 75,
          "name": "D#5",
          "ticks": 126976,
          "time": 186,
          "velocity": 0.5196850393700787
        },
        {
          "duration": 0.1904296875,
          "durationTicks": 130,
          "midi": 77,
          "name": "F5",
          "ticks": 127232,
          "time": 186.375,
          "velocity": 0.5275590551181102
        },
        {
          "duration": 0.17724609375,
          "durationTicks": 121,
          "midi": 75,
          "name": "D#5",
          "ticks": 127360,
          "time": 186.5625,
          "velocity": 0.5354330708661418
        },
        {
          "duration": 0.375,
          "durationTicks": 256,
          "midi": 75,
          "name": "D#5",
          "ticks": 127488,
          "time": 186.75,
          "velocity": 0.5039370078740157
        },
        {
          "duration": 0.1904296875,
          "durationTicks": 130,
          "midi": 77,
          "name": "F5",
          "ticks": 127744,
          "time": 187.125,
          "velocity": 0.5196850393700787
        },
        {
          "duration": 0.17724609375,
          "durationTicks": 121,
          "midi": 75,
          "name": "D#5",
          "ticks": 127872,
          "time": 187.3125,
          "velocity": 0.5039370078740157
        },
        {
          "duration": 0.38232421875,
          "durationTicks": 261,
          "midi": 75,
          "name": "D#5",
          "ticks": 128000,
          "time": 187.5,
          "velocity": 0.48031496062992124
        },
        {
          "duration": 0.35595703125,
          "durationTicks": 243,
          "midi": 84,
          "name": "C6",
          "ticks": 128256,
          "time": 187.875,
          "velocity": 0.6062992125984252
        },
        {
          "duration": 0.1904296875,
          "durationTicks": 130,
          "midi": 84,
          "name": "C6",
          "ticks": 128768,
          "time": 188.625,
          "velocity": 0.4566929133858268
        },
        {
          "duration": 0.17724609375,
          "durationTicks": 121,
          "midi": 82,
          "name": "A#5",
          "ticks": 128896,
          "time": 188.8125,
          "velocity": 0.4094488188976378
        },
        {
          "duration": 0.375,
          "durationTicks": 256,
          "midi": 81,
          "name": "A5",
          "ticks": 129024,
          "time": 189,
          "velocity": 0.4251968503937008
        },
        {
          "duration": 0.1904296875,
          "durationTicks": 130,
          "midi": 81,
          "name": "A5",
          "ticks": 129280,
          "time": 189.375,
          "velocity": 0.49606299212598426
        },
        {
          "duration": 0.17724609375,
          "durationTicks": 121,
          "midi": 79,
          "name": "G5",
          "ticks": 129408,
          "time": 189.5625,
          "velocity": 0.48031496062992124
        },
        {
          "duration": 0.375,
          "durationTicks": 256,
          "midi": 77,
          "name": "F5",
          "ticks": 129536,
          "time": 189.75,
          "velocity": 0.47244094488188976
        },
        {
          "duration": 0.1904296875,
          "durationTicks": 130,
          "midi": 77,
          "name": "F5",
          "ticks": 129792,
          "time": 190.125,
          "velocity": 0.47244094488188976
        },
        {
          "duration": 0.17724609375,
          "durationTicks": 121,
          "midi": 75,
          "name": "D#5",
          "ticks": 129920,
          "time": 190.3125,
          "velocity": 0.44881889763779526
        },
        {
          "duration": 1.5,
          "durationTicks": 1024,
          "midi": 74,
          "name": "D5",
          "ticks": 130048,
          "time": 190.5,
          "velocity": 0.889763779527559
        },
        {
          "duration": 1.5,
          "durationTicks": 1024,
          "midi": 82,
          "name": "A#5",
          "ticks": 130048,
          "time": 190.5,
          "velocity": 0.889763779527559
        },
        {
          "duration": 1.125,
          "durationTicks": 768,
          "midi": 77,
          "name": "F5",
          "ticks": 131072,
          "time": 192,
          "velocity": 0.6771653543307087
        },
        {
          "duration": 0.1875,
          "durationTicks": 128,
          "midi": 77,
          "name": "F5",
          "ticks": 131968,
          "time": 193.3125,
          "velocity": 0.7244094488188977
        },
        {
          "duration": 0.1875,
          "durationTicks": 128,
          "midi": 75,
          "name": "D#5",
          "ticks": 132096,
          "time": 193.5,
          "velocity": 0.7007874015748031
        },
        {
          "duration": 0.1875,
          "durationTicks": 128,
          "midi": 79,
          "name": "G5",
          "ticks": 132352,
          "time": 193.875,
          "velocity": 0.8503937007874016
        },
        {
          "duration": 0.1875,
          "durationTicks": 128,
          "midi": 82,
          "name": "A#5",
          "ticks": 132608,
          "time": 194.25,
          "velocity": 0.8267716535433071
        },
        {
          "duration": 0.1875,
          "durationTicks": 128,
          "midi": 74,
          "name": "D5",
          "ticks": 133120,
          "time": 195,
          "velocity": 0.7007874015748031
        },
        {
          "duration": 0.1875,
          "durationTicks": 128,
          "midi": 77,
          "name": "F5",
          "ticks": 133376,
          "time": 195.375,
          "velocity": 0.8188976377952756
        },
        {
          "duration": 0.1875,
          "durationTicks": 128,
          "midi": 82,
          "name": "A#5",
          "ticks": 133632,
          "time": 195.75,
          "velocity": 0.84251968503937
        },
        {
          "duration": 0.1875,
          "durationTicks": 128,
          "midi": 74,
          "name": "D5",
          "ticks": 134016,
          "time": 196.3125,
          "velocity": 0.6850393700787402
        },
        {
          "duration": 0.1875,
          "durationTicks": 128,
          "midi": 72,
          "name": "C5",
          "ticks": 134144,
          "time": 196.5,
          "velocity": 0.6771653543307087
        },
        {
          "duration": 0.1875,
          "durationTicks": 128,
          "midi": 75,
          "name": "D#5",
          "ticks": 134400,
          "time": 196.875,
          "velocity": 0.8346456692913385
        },
        {
          "duration": 0.1875,
          "durationTicks": 128,
          "midi": 79,
          "name": "G5",
          "ticks": 134656,
          "time": 197.25,
          "velocity": 0.889763779527559
        },
        {
          "duration": 0.1875,
          "durationTicks": 128,
          "midi": 72,
          "name": "C5",
          "ticks": 134912,
          "time": 197.625,
          "velocity": 0.6141732283464567
        },
        {
          "duration": 0.1875,
          "durationTicks": 128,
          "midi": 70,
          "name": "A#4",
          "ticks": 135168,
          "time": 198,
          "velocity": 0.6929133858267716
        },
        {
          "duration": 0.1875,
          "durationTicks": 128,
          "midi": 74,
          "name": "D5",
          "ticks": 135424,
          "time": 198.375,
          "velocity": 0.8503937007874016
        },
        {
          "duration": 0.1875,
          "durationTicks": 128,
          "midi": 77,
          "name": "F5",
          "ticks": 135680,
          "time": 198.75,
          "velocity": 0.84251968503937
        },
        {
          "duration": 0.1875,
          "durationTicks": 128,
          "midi": 77,
          "name": "F5",
          "ticks": 136064,
          "time": 199.3125,
          "velocity": 0.7007874015748031
        },
        {
          "duration": 0.1875,
          "durationTicks": 128,
          "midi": 76,
          "name": "E5",
          "ticks": 136192,
          "time": 199.5,
          "velocity": 0.7244094488188977
        },
        {
          "duration": 0.1875,
          "durationTicks": 128,
          "midi": 77,
          "name": "F5",
          "ticks": 136320,
          "time": 199.6875,
          "velocity": 0.7559055118110236
        },
        {
          "duration": 0.1875,
          "durationTicks": 128,
          "midi": 79,
          "name": "G5",
          "ticks": 136448,
          "time": 199.875,
          "velocity": 0.8188976377952756
        },
        {
          "duration": 0.1875,
          "durationTicks": 128,
          "midi": 81,
          "name": "A5",
          "ticks": 136576,
          "time": 200.0625,
          "velocity": 0.8267716535433071
        },
        {
          "duration": 0.1875,
          "durationTicks": 128,
          "midi": 82,
          "name": "A#5",
          "ticks": 136704,
          "time": 200.25,
          "velocity": 0.7952755905511811
        },
        {
          "duration": 0.1875,
          "durationTicks": 128,
          "midi": 84,
          "name": "C6",
          "ticks": 136832,
          "time": 200.4375,
          "velocity": 0.8188976377952756
        },
        {
          "duration": 0.1875,
          "durationTicks": 128,
          "midi": 85,
          "name": "C#6",
          "ticks": 136960,
          "time": 200.625,
          "velocity": 0.8503937007874016
        },
        {
          "duration": 0.1875,
          "durationTicks": 128,
          "midi": 77,
          "name": "F5",
          "ticks": 137088,
          "time": 200.8125,
          "velocity": 0.6377952755905512
        },
        {
          "duration": 0.1875,
          "durationTicks": 128,
          "midi": 76,
          "name": "E5",
          "ticks": 137216,
          "time": 201,
          "velocity": 0.7086614173228346
        },
        {
          "duration": 0.1875,
          "durationTicks": 128,
          "midi": 77,
          "name": "F5",
          "ticks": 137344,
          "time": 201.1875,
          "velocity": 0.8346456692913385
        },
        {
          "duration": 0.1875,
          "durationTicks": 128,
          "midi": 79,
          "name": "G5",
          "ticks": 137472,
          "time": 201.375,
          "velocity": 0.8031496062992126
        },
        {
          "duration": 0.1875,
          "durationTicks": 128,
          "midi": 81,
          "name": "A5",
          "ticks": 137600,
          "time": 201.5625,
          "velocity": 0.8031496062992126
        },
        {
          "duration": 0.1875,
          "durationTicks": 128,
          "midi": 82,
          "name": "A#5",
          "ticks": 137728,
          "time": 201.75,
          "velocity": 0.8188976377952756
        },
        {
          "duration": 0.1875,
          "durationTicks": 128,
          "midi": 84,
          "name": "C6",
          "ticks": 137856,
          "time": 201.9375,
          "velocity": 0.8661417322834646
        },
        {
          "duration": 0.1875,
          "durationTicks": 128,
          "midi": 85,
          "name": "C#6",
          "ticks": 137984,
          "time": 202.125,
          "velocity": 0.8267716535433071
        },
        {
          "duration": 0.1875,
          "durationTicks": 128,
          "midi": 77,
          "name": "F5",
          "ticks": 138112,
          "time": 202.3125,
          "velocity": 0.6062992125984252
        },
        {
          "duration": 0.1875,
          "durationTicks": 128,
          "midi": 76,
          "name": "E5",
          "ticks": 138240,
          "time": 202.5,
          "velocity": 0.7007874015748031
        },
        {
          "duration": 0.1875,
          "durationTicks": 128,
          "midi": 77,
          "name": "F5",
          "ticks": 138368,
          "time": 202.6875,
          "velocity": 0.8031496062992126
        },
        {
          "duration": 0.1875,
          "durationTicks": 128,
          "midi": 79,
          "name": "G5",
          "ticks": 138496,
          "time": 202.875,
          "velocity": 0.7874015748031497
        },
        {
          "duration": 0.1875,
          "durationTicks": 128,
          "midi": 81,
          "name": "A5",
          "ticks": 138624,
          "time": 203.0625,
          "velocity": 0.8267716535433071
        },
        {
          "duration": 0.1875,
          "durationTicks": 128,
          "midi": 82,
          "name": "A#5",
          "ticks": 138752,
          "time": 203.25,
          "velocity": 0.8267716535433071
        },
        {
          "duration": 0.1875,
          "durationTicks": 128,
          "midi": 84,
          "name": "C6",
          "ticks": 138880,
          "time": 203.4375,
          "velocity": 0.8346456692913385
        },
        {
          "duration": 0.1875,
          "durationTicks": 128,
          "midi": 85,
          "name": "C#6",
          "ticks": 139008,
          "time": 203.625,
          "velocity": 0.7795275590551181
        },
        {
          "duration": 0.1875,
          "durationTicks": 128,
          "midi": 77,
          "name": "F5",
          "ticks": 139136,
          "time": 203.8125,
          "velocity": 0.6141732283464567
        },
        {
          "duration": 0.1875,
          "durationTicks": 128,
          "midi": 76,
          "name": "E5",
          "ticks": 139264,
          "time": 204,
          "velocity": 0.7165354330708661
        },
        {
          "duration": 0.1875,
          "durationTicks": 128,
          "midi": 77,
          "name": "F5",
          "ticks": 139392,
          "time": 204.1875,
          "velocity": 0.8031496062992126
        },
        {
          "duration": 0.1875,
          "durationTicks": 128,
          "midi": 79,
          "name": "G5",
          "ticks": 139520,
          "time": 204.375,
          "velocity": 0.8188976377952756
        },
        {
          "duration": 0.1875,
          "durationTicks": 128,
          "midi": 81,
          "name": "A5",
          "ticks": 139648,
          "time": 204.5625,
          "velocity": 0.8188976377952756
        },
        {
          "duration": 0.1875,
          "durationTicks": 128,
          "midi": 82,
          "name": "A#5",
          "ticks": 139776,
          "time": 204.75,
          "velocity": 0.7795275590551181
        },
        {
          "duration": 0.1875,
          "durationTicks": 128,
          "midi": 84,
          "name": "C6",
          "ticks": 139904,
          "time": 204.9375,
          "velocity": 0.7874015748031497
        },
        {
          "duration": 0.1875,
          "durationTicks": 128,
          "midi": 85,
          "name": "C#6",
          "ticks": 140032,
          "time": 205.125,
          "velocity": 0.8267716535433071
        },
        {
          "duration": 0.1875,
          "durationTicks": 128,
          "midi": 76,
          "name": "E5",
          "ticks": 140160,
          "time": 205.3125,
          "velocity": 0.6456692913385826
        },
        {
          "duration": 0.75,
          "durationTicks": 512,
          "midi": 77,
          "name": "F5",
          "ticks": 140288,
          "time": 205.5,
          "velocity": 0.7716535433070866
        },
        {
          "duration": 0.375,
          "durationTicks": 256,
          "midi": 84,
          "name": "C6",
          "ticks": 140800,
          "time": 206.25,
          "velocity": 0.905511811023622
        },
        {
          "duration": 0.375,
          "durationTicks": 256,
          "midi": 81,
          "name": "A5",
          "ticks": 141056,
          "time": 206.625,
          "velocity": 0.7086614173228346
        },
        {
          "duration": 0.75,
          "durationTicks": 512,
          "midi": 85,
          "name": "C#6",
          "ticks": 141312,
          "time": 207,
          "velocity": 0.889763779527559
        },
        {
          "duration": 0.375,
          "durationTicks": 256,
          "midi": 76,
          "name": "E5",
          "ticks": 141824,
          "time": 207.75,
          "velocity": 0.6456692913385826
        },
        {
          "duration": 0.375,
          "durationTicks": 256,
          "midi": 79,
          "name": "G5",
          "ticks": 142080,
          "time": 208.125,
          "velocity": 0.8188976377952756
        },
        {
          "duration": 0.75,
          "durationTicks": 512,
          "midi": 77,
          "name": "F5",
          "ticks": 142336,
          "time": 208.5,
          "velocity": 0.7165354330708661
        },
        {
          "duration": 0.1875,
          "durationTicks": 128,
          "midi": 84,
          "name": "C6",
          "ticks": 142848,
          "time": 209.25,
          "velocity": 0.9448818897637795
        },
        {
          "duration": 0.1875,
          "durationTicks": 128,
          "midi": 81,
          "name": "A5",
          "ticks": 142976,
          "time": 209.4375,
          "velocity": 0.7322834645669292
        },
        {
          "duration": 0.1875,
          "durationTicks": 128,
          "midi": 84,
          "name": "C6",
          "ticks": 143104,
          "time": 209.625,
          "velocity": 0.8031496062992126
        },
        {
          "duration": 0.1875,
          "durationTicks": 128,
          "midi": 81,
          "name": "A5",
          "ticks": 143232,
          "time": 209.8125,
          "velocity": 0.7322834645669292
        },
        {
          "duration": 0.1875,
          "durationTicks": 128,
          "midi": 85,
          "name": "C#6",
          "ticks": 143360,
          "time": 210,
          "velocity": 0.84251968503937
        },
        {
          "duration": 0.1875,
          "durationTicks": 128,
          "midi": 82,
          "name": "A#5",
          "ticks": 143488,
          "time": 210.1875,
          "velocity": 0.6850393700787402
        },
        {
          "duration": 0.1875,
          "durationTicks": 128,
          "midi": 85,
          "name": "C#6",
          "ticks": 143616,
          "time": 210.375,
          "velocity": 0.8346456692913385
        },
        {
          "duration": 0.1875,
          "durationTicks": 128,
          "midi": 82,
          "name": "A#5",
          "ticks": 143744,
          "time": 210.5625,
          "velocity": 0.7322834645669292
        },
        {
          "duration": 0.1875,
          "durationTicks": 128,
          "midi": 76,
          "name": "E5",
          "ticks": 143872,
          "time": 210.75,
          "velocity": 0.6299212598425197
        },
        {
          "duration": 0.1875,
          "durationTicks": 128,
          "midi": 79,
          "name": "G5",
          "ticks": 144000,
          "time": 210.9375,
          "velocity": 0.7874015748031497
        },
        {
          "duration": 0.1875,
          "durationTicks": 128,
          "midi": 76,
          "name": "E5",
          "ticks": 144128,
          "time": 211.125,
          "velocity": 0.7165354330708661
        },
        {
          "duration": 0.1875,
          "durationTicks": 128,
          "midi": 79,
          "name": "G5",
          "ticks": 144256,
          "time": 211.3125,
          "velocity": 0.8110236220472441
        },
        {
          "duration": 0.375,
          "durationTicks": 256,
          "midi": 77,
          "name": "F5",
          "ticks": 144384,
          "time": 211.5,
          "velocity": 0.7086614173228346
        },
        {
          "duration": 0.375,
          "durationTicks": 256,
          "midi": 57,
          "name": "A3",
          "ticks": 144896,
          "time": 212.25,
          "velocity": 0.7165354330708661
        },
        {
          "duration": 0.375,
          "durationTicks": 256,
          "midi": 65,
          "name": "F4",
          "ticks": 144896,
          "time": 212.25,
          "velocity": 0.7165354330708661
        },
        {
          "duration": 1.14697265625,
          "durationTicks": 783,
          "midi": 77,
          "name": "F5",
          "ticks": 146432,
          "time": 214.5,
          "velocity": 0.4330708661417323
        },
        {
          "duration": 0.38232421875,
          "durationTicks": 261,
          "midi": 76,
          "name": "E5",
          "ticks": 147200,
          "time": 215.625,
          "velocity": 0.3937007874015748
        },
        {
          "duration": 0.35595703125,
          "durationTicks": 243,
          "midi": 75,
          "name": "D#5",
          "ticks": 147456,
          "time": 216,
          "velocity": 0.48031496062992124
        },
        {
          "duration": 0.1875,
          "durationTicks": 128,
          "midi": 70,
          "name": "A#4",
          "ticks": 148736,
          "time": 217.875,
          "velocity": 0.4015748031496063
        },
        {
          "duration": 0.38232421875,
          "durationTicks": 261,
          "midi": 70,
          "name": "A#4",
          "ticks": 148992,
          "time": 218.25,
          "velocity": 0.4566929133858268
        },
        {
          "duration": 0.35595703125,
          "durationTicks": 243,
          "midi": 72,
          "name": "C5",
          "ticks": 149248,
          "time": 218.625,
          "velocity": 0.49606299212598426
        },
        {
          "duration": 0.57275390625,
          "durationTicks": 391,
          "midi": 74,
          "name": "D5",
          "ticks": 149504,
          "time": 219,
          "velocity": 0.5039370078740157
        },
        {
          "duration": 0.17724609375,
          "durationTicks": 121,
          "midi": 75,
          "name": "D#5",
          "ticks": 149888,
          "time": 219.5625,
          "velocity": 0.49606299212598426
        },
        {
          "duration": 0.375,
          "durationTicks": 256,
          "midi": 72,
          "name": "C5",
          "ticks": 150016,
          "time": 219.75,
          "velocity": 0.4409448818897638
        },
        {
          "duration": 1.14697265625,
          "durationTicks": 783,
          "midi": 79,
          "name": "G5",
          "ticks": 150528,
          "time": 220.5,
          "velocity": 0.4566929133858268
        },
        {
          "duration": 0.38232421875,
          "durationTicks": 261,
          "midi": 78,
          "name": "F#5",
          "ticks": 151296,
          "time": 221.625,
          "velocity": 0.4330708661417323
        },
        {
          "duration": 0.38232421875,
          "durationTicks": 261,
          "midi": 77,
          "name": "F5",
          "ticks": 151552,
          "time": 222,
          "velocity": 0.44881889763779526
        },
        {
          "duration": 0.38232421875,
          "durationTicks": 261,
          "midi": 76,
          "name": "E5",
          "ticks": 151808,
          "time": 222.375,
          "velocity": 0.41732283464566927
        },
        {
          "duration": 0.38232421875,
          "durationTicks": 261,
          "midi": 75,
          "name": "D#5",
          "ticks": 152064,
          "time": 222.75,
          "velocity": 0.44881889763779526
        },
        {
          "duration": 0.35595703125,
          "durationTicks": 243,
          "midi": 74,
          "name": "D5",
          "ticks": 152320,
          "time": 223.125,
          "velocity": 0.4330708661417323
        },
        {
          "duration": 0.38232421875,
          "durationTicks": 261,
          "midi": 72,
          "name": "C5",
          "ticks": 152576,
          "time": 223.5,
          "velocity": 0.44881889763779526
        },
        {
          "duration": 0.7646484375,
          "durationTicks": 522,
          "midi": 75,
          "name": "D#5",
          "ticks": 152832,
          "time": 223.875,
          "velocity": 0.4881889763779528
        },
        {
          "duration": 0.35595703125,
          "durationTicks": 243,
          "midi": 69,
          "name": "A4",
          "ticks": 153344,
          "time": 224.625,
          "velocity": 0.4015748031496063
        },
        {
          "duration": 0.375,
          "durationTicks": 256,
          "midi": 70,
          "name": "A#4",
          "ticks": 153600,
          "time": 225,
          "velocity": 0.4645669291338583
        },
        {
          "duration": 1.14697265625,
          "durationTicks": 783,
          "midi": 75,
          "name": "D#5",
          "ticks": 155648,
          "time": 228,
          "velocity": 0.4330708661417323
        },
        {
          "duration": 0.09521484375,
          "durationTicks": 65,
          "midi": 77,
          "name": "F5",
          "ticks": 156416,
          "time": 229.125,
          "velocity": 0.4566929133858268
        },
        {
          "duration": 0.09521484375,
          "durationTicks": 65,
          "midi": 75,
          "name": "D#5",
          "ticks": 156480,
          "time": 229.21875,
          "velocity": 0.47244094488188976
        },
        {
          "duration": 0.09521484375,
          "durationTicks": 65,
          "midi": 74,
          "name": "D5",
          "ticks": 156544,
          "time": 229.3125,
          "velocity": 0.4330708661417323
        },
        {
          "duration": 0.09521484375,
          "durationTicks": 65,
          "midi": 72,
          "name": "C5",
          "ticks": 156608,
          "time": 229.40625,
          "velocity": 0.4409448818897638
        },
        {
          "duration": 0.35595703125,
          "durationTicks": 243,
          "midi": 70,
          "name": "A#4",
          "ticks": 156672,
          "time": 229.5,
          "velocity": 0.3937007874015748
        },
        {
          "duration": 1.14697265625,
          "durationTicks": 783,
          "midi": 67,
          "name": "G4",
          "ticks": 158720,
          "time": 232.5,
          "velocity": 0.4409448818897638
        },
        {
          "duration": 0.38232421875,
          "durationTicks": 261,
          "midi": 66,
          "name": "F#4",
          "ticks": 159488,
          "time": 233.625,
          "velocity": 0.4015748031496063
        },
        {
          "duration": 0.38232421875,
          "durationTicks": 261,
          "midi": 65,
          "name": "F4",
          "ticks": 159744,
          "time": 234,
          "velocity": 0.4566929133858268
        },
        {
          "duration": 0.38232421875,
          "durationTicks": 261,
          "midi": 64,
          "name": "E4",
          "ticks": 160000,
          "time": 234.375,
          "velocity": 0.4409448818897638
        },
        {
          "duration": 0.38232421875,
          "durationTicks": 261,
          "midi": 63,
          "name": "D#4",
          "ticks": 160256,
          "time": 234.75,
          "velocity": 0.48031496062992124
        },
        {
          "duration": 0.35595703125,
          "durationTicks": 243,
          "midi": 62,
          "name": "D4",
          "ticks": 160512,
          "time": 235.125,
          "velocity": 0.4566929133858268
        },
        {
          "duration": 1.14697265625,
          "durationTicks": 783,
          "midi": 61,
          "name": "C#4",
          "ticks": 160768,
          "time": 235.5,
          "velocity": 0.44881889763779526
        },
        {
          "duration": 0.35595703125,
          "durationTicks": 243,
          "midi": 60,
          "name": "C4",
          "ticks": 161536,
          "time": 236.625,
          "velocity": 0.44881889763779526
        },
        {
          "duration": 1.14697265625,
          "durationTicks": 783,
          "midi": 61,
          "name": "C#4",
          "ticks": 161792,
          "time": 237,
          "velocity": 0.4881889763779528
        },
        {
          "duration": 0.35595703125,
          "durationTicks": 243,
          "midi": 60,
          "name": "C4",
          "ticks": 162560,
          "time": 238.125,
          "velocity": 0.4881889763779528
        },
        {
          "duration": 1.14697265625,
          "durationTicks": 783,
          "midi": 61,
          "name": "C#4",
          "ticks": 162816,
          "time": 238.5,
          "velocity": 0.49606299212598426
        },
        {
          "duration": 0.35595703125,
          "durationTicks": 243,
          "midi": 60,
          "name": "C4",
          "ticks": 163584,
          "time": 239.625,
          "velocity": 0.4881889763779528
        },
        {
          "duration": 1.14697265625,
          "durationTicks": 783,
          "midi": 61,
          "name": "C#4",
          "ticks": 163840,
          "time": 240,
          "velocity": 0.4645669291338583
        },
        {
          "duration": 0.35595703125,
          "durationTicks": 243,
          "midi": 60,
          "name": "C4",
          "ticks": 164608,
          "time": 241.125,
          "velocity": 0.4645669291338583
        },
        {
          "duration": 0.1875,
          "durationTicks": 128,
          "midi": 61,
          "name": "C#4",
          "ticks": 164864,
          "time": 241.5,
          "velocity": 0.5118110236220472
        },
        {
          "duration": 0.1875,
          "durationTicks": 128,
          "midi": 73,
          "name": "C#5",
          "ticks": 164992,
          "time": 241.6875,
          "velocity": 0.6062992125984252
        },
        {
          "duration": 0.1875,
          "durationTicks": 128,
          "midi": 73,
          "name": "C#5",
          "ticks": 165120,
          "time": 241.875,
          "velocity": 0.5118110236220472
        },
        {
          "duration": 0.1875,
          "durationTicks": 128,
          "midi": 73,
          "name": "C#5",
          "ticks": 165248,
          "time": 242.0625,
          "velocity": 0.5196850393700787
        },
        {
          "duration": 0.1875,
          "durationTicks": 128,
          "midi": 73,
          "name": "C#5",
          "ticks": 165376,
          "time": 242.25,
          "velocity": 0.5669291338582677
        },
        {
          "duration": 0.1875,
          "durationTicks": 128,
          "midi": 73,
          "name": "C#5",
          "ticks": 165504,
          "time": 242.4375,
          "velocity": 0.5905511811023622
        },
        {
          "duration": 0.1875,
          "durationTicks": 128,
          "midi": 73,
          "name": "C#5",
          "ticks": 165632,
          "time": 242.625,
          "velocity": 0.6141732283464567
        },
        {
          "duration": 0.1875,
          "durationTicks": 128,
          "midi": 73,
          "name": "C#5",
          "ticks": 165760,
          "time": 242.8125,
          "velocity": 0.5748031496062992
        },
        {
          "duration": 0.1875,
          "durationTicks": 128,
          "midi": 73,
          "name": "C#5",
          "ticks": 165888,
          "time": 243,
          "velocity": 0.6220472440944882
        },
        {
          "duration": 0.1875,
          "durationTicks": 128,
          "midi": 85,
          "name": "C#6",
          "ticks": 166016,
          "time": 243.1875,
          "velocity": 0.7637795275590551
        },
        {
          "duration": 0.1875,
          "durationTicks": 128,
          "midi": 85,
          "name": "C#6",
          "ticks": 166144,
          "time": 243.375,
          "velocity": 0.6850393700787402
        },
        {
          "duration": 0.1875,
          "durationTicks": 128,
          "midi": 85,
          "name": "C#6",
          "ticks": 166272,
          "time": 243.5625,
          "velocity": 0.6456692913385826
        },
        {
          "duration": 0.1875,
          "durationTicks": 128,
          "midi": 85,
          "name": "C#6",
          "ticks": 166400,
          "time": 243.75,
          "velocity": 0.7244094488188977
        },
        {
          "duration": 0.1875,
          "durationTicks": 128,
          "midi": 85,
          "name": "C#6",
          "ticks": 166528,
          "time": 243.9375,
          "velocity": 0.7086614173228346
        },
        {
          "duration": 0.1875,
          "durationTicks": 128,
          "midi": 85,
          "name": "C#6",
          "ticks": 166656,
          "time": 244.125,
          "velocity": 0.7244094488188977
        },
        {
          "duration": 0.1875,
          "durationTicks": 128,
          "midi": 85,
          "name": "C#6",
          "ticks": 166784,
          "time": 244.3125,
          "velocity": 0.7559055118110236
        },
        {
          "duration": 1.5,
          "durationTicks": 1024,
          "midi": 86,
          "name": "D6",
          "ticks": 166912,
          "time": 244.5,
          "velocity": 0.8267716535433071
        },
        {
          "duration": 0.0703125,
          "durationTicks": 48,
          "midi": 81,
          "name": "A5",
          "ticks": 167936,
          "time": 246,
          "velocity": 0.6456692913385826
        },
        {
          "duration": 0.0703125,
          "durationTicks": 48,
          "midi": 82,
          "name": "A#5",
          "ticks": 167996,
          "time": 246.087890625,
          "velocity": 0.6456692913385826
        },
        {
          "duration": 0.06884765625,
          "durationTicks": 47,
          "midi": 81,
          "name": "A5",
          "ticks": 168055,
          "time": 246.17431640625,
          "velocity": 0.6456692913385826
        },
        {
          "duration": 0.06591796875,
          "durationTicks": 45,
          "midi": 82,
          "name": "A#5",
          "ticks": 168112,
          "time": 246.2578125,
          "velocity": 0.6456692913385826
        },
        {
          "duration": 0.064453125,
          "durationTicks": 44,
          "midi": 81,
          "name": "A5",
          "ticks": 168168,
          "time": 246.33984375,
          "velocity": 0.6456692913385826
        },
        {
          "duration": 0.06298828125,
          "durationTicks": 43,
          "midi": 82,
          "name": "A#5",
          "ticks": 168222,
          "time": 246.4189453125,
          "velocity": 0.6456692913385826
        },
        {
          "duration": 0.0615234375,
          "durationTicks": 42,
          "midi": 81,
          "name": "A5",
          "ticks": 168275,
          "time": 246.49658203125,
          "velocity": 0.6456692913385826
        },
        {
          "duration": 0.06005859375,
          "durationTicks": 41,
          "midi": 82,
          "name": "A#5",
          "ticks": 168327,
          "time": 246.57275390625,
          "velocity": 0.6456692913385826
        },
        {
          "duration": 0.05859375,
          "durationTicks": 40,
          "midi": 81,
          "name": "A5",
          "ticks": 168378,
          "time": 246.6474609375,
          "velocity": 0.6456692913385826
        },
        {
          "duration": 0.05859375,
          "durationTicks": 40,
          "midi": 82,
          "name": "A#5",
          "ticks": 168429,
          "time": 246.72216796875,
          "velocity": 0.6456692913385826
        },
        {
          "duration": 0.06005859375,
          "durationTicks": 41,
          "midi": 81,
          "name": "A5",
          "ticks": 168481,
          "time": 246.79833984375,
          "velocity": 0.6456692913385826
        },
        {
          "duration": 0.0615234375,
          "durationTicks": 42,
          "midi": 82,
          "name": "A#5",
          "ticks": 168534,
          "time": 246.8759765625,
          "velocity": 0.6456692913385826
        },
        {
          "duration": 0.06298828125,
          "durationTicks": 43,
          "midi": 81,
          "name": "A5",
          "ticks": 168588,
          "time": 246.955078125,
          "velocity": 0.6456692913385826
        },
        {
          "duration": 0.064453125,
          "durationTicks": 44,
          "midi": 82,
          "name": "A#5",
          "ticks": 168644,
          "time": 247.037109375,
          "velocity": 0.6456692913385826
        },
        {
          "duration": 0.06591796875,
          "durationTicks": 45,
          "midi": 81,
          "name": "A5",
          "ticks": 168701,
          "time": 247.12060546875,
          "velocity": 0.6456692913385826
        },
        {
          "duration": 0.06884765625,
          "durationTicks": 47,
          "midi": 82,
          "name": "A#5",
          "ticks": 168760,
          "time": 247.20703125,
          "velocity": 0.6456692913385826
        },
        {
          "duration": 0.01611328125,
          "durationTicks": 11,
          "midi": 81,
          "name": "A5",
          "ticks": 168820,
          "time": 247.294921875,
          "velocity": 0.6456692913385826
        },
        {
          "duration": 0.09375,
          "durationTicks": 64,
          "midi": 79,
          "name": "G5",
          "ticks": 168832,
          "time": 247.3125,
          "velocity": 0.7007874015748031
        },
        {
          "duration": 0.09375,
          "durationTicks": 64,
          "midi": 81,
          "name": "A5",
          "ticks": 168896,
          "time": 247.40625,
          "velocity": 0.8188976377952756
        },
        {
          "duration": 0.375,
          "durationTicks": 256,
          "midi": 82,
          "name": "A#5",
          "ticks": 168960,
          "time": 247.5,
          "velocity": 0.7874015748031497
        },
        {
          "duration": 0.1875,
          "durationTicks": 128,
          "midi": 62,
          "name": "D4",
          "ticks": 169216,
          "time": 247.875,
          "velocity": 0.5433070866141733
        },
        {
          "duration": 0.1875,
          "durationTicks": 128,
          "midi": 62,
          "name": "D4",
          "ticks": 169344,
          "time": 248.0625,
          "velocity": 0.7401574803149606
        },
        {
          "duration": 0.1875,
          "durationTicks": 128,
          "midi": 62,
          "name": "D4",
          "ticks": 169472,
          "time": 248.25,
          "velocity": 0.7480314960629921
        },
        {
          "duration": 0.1875,
          "durationTicks": 128,
          "midi": 62,
          "name": "D4",
          "ticks": 169600,
          "time": 248.4375,
          "velocity": 0.7795275590551181
        },
        {
          "duration": 0.1875,
          "durationTicks": 128,
          "midi": 63,
          "name": "D#4",
          "ticks": 169728,
          "time": 248.625,
          "velocity": 0.8188976377952756
        },
        {
          "duration": 0.1875,
          "durationTicks": 128,
          "midi": 63,
          "name": "D#4",
          "ticks": 169856,
          "time": 248.8125,
          "velocity": 0.7874015748031497
        },
        {
          "duration": 0.1875,
          "durationTicks": 128,
          "midi": 64,
          "name": "E4",
          "ticks": 169984,
          "time": 249,
          "velocity": 0.8110236220472441
        },
        {
          "duration": 0.1875,
          "durationTicks": 128,
          "midi": 64,
          "name": "E4",
          "ticks": 170112,
          "time": 249.1875,
          "velocity": 0.7716535433070866
        },
        {
          "duration": 0.1875,
          "durationTicks": 128,
          "midi": 65,
          "name": "F4",
          "ticks": 170240,
          "time": 249.375,
          "velocity": 0.8110236220472441
        },
        {
          "duration": 0.1875,
          "durationTicks": 128,
          "midi": 65,
          "name": "F4",
          "ticks": 170368,
          "time": 249.5625,
          "velocity": 0.8267716535433071
        },
        {
          "duration": 0.1875,
          "durationTicks": 128,
          "midi": 66,
          "name": "F#4",
          "ticks": 170496,
          "time": 249.75,
          "velocity": 0.7952755905511811
        },
        {
          "duration": 0.1875,
          "durationTicks": 128,
          "midi": 66,
          "name": "F#4",
          "ticks": 170624,
          "time": 249.9375,
          "velocity": 0.7874015748031497
        },
        {
          "duration": 0.1875,
          "durationTicks": 128,
          "midi": 67,
          "name": "G4",
          "ticks": 170752,
          "time": 250.125,
          "velocity": 0.7874015748031497
        },
        {
          "duration": 0.1875,
          "durationTicks": 128,
          "midi": 67,
          "name": "G4",
          "ticks": 170880,
          "time": 250.3125,
          "velocity": 0.7637795275590551
        },
        {
          "duration": 0.375,
          "durationTicks": 256,
          "midi": 68,
          "name": "G#4",
          "ticks": 171008,
          "time": 250.5,
          "velocity": 0.8031496062992126
        },
        {
          "duration": 0.09375,
          "durationTicks": 64,
          "midi": 68,
          "name": "G#4",
          "ticks": 171456,
          "time": 251.15625,
          "velocity": 0.6771653543307087
        },
        {
          "duration": 0.375,
          "durationTicks": 256,
          "midi": 67,
          "name": "G4",
          "ticks": 171520,
          "time": 251.25,
          "velocity": 0.7322834645669292
        },
        {
          "duration": 0.09375,
          "durationTicks": 64,
          "midi": 67,
          "name": "G4",
          "ticks": 171968,
          "time": 251.90625,
          "velocity": 0.6929133858267716
        },
        {
          "duration": 0.375,
          "durationTicks": 256,
          "midi": 75,
          "name": "D#5",
          "ticks": 172032,
          "time": 252,
          "velocity": 0.8976377952755905
        },
        {
          "duration": 0.09375,
          "durationTicks": 64,
          "midi": 75,
          "name": "D#5",
          "ticks": 172480,
          "time": 252.65625,
          "velocity": 0.6692913385826772
        },
        {
          "duration": 0.375,
          "durationTicks": 256,
          "midi": 74,
          "name": "D5",
          "ticks": 172544,
          "time": 252.75,
          "velocity": 0.7244094488188977
        },
        {
          "duration": 0.09375,
          "durationTicks": 64,
          "midi": 74,
          "name": "D5",
          "ticks": 172992,
          "time": 253.40625,
          "velocity": 0.7007874015748031
        },
        {
          "duration": 0.9375,
          "durationTicks": 640,
          "midi": 79,
          "name": "G5",
          "ticks": 173056,
          "time": 253.5,
          "velocity": 0.8267716535433071
        },
        {
          "duration": 0.09375,
          "durationTicks": 64,
          "midi": 77,
          "name": "F5",
          "ticks": 173696,
          "time": 254.4375,
          "velocity": 0.4094488188976378
        },
        {
          "duration": 0.09375,
          "durationTicks": 64,
          "midi": 75,
          "name": "D#5",
          "ticks": 173824,
          "time": 254.625,
          "velocity": 0.4330708661417323
        },
        {
          "duration": 0.09375,
          "durationTicks": 64,
          "midi": 74,
          "name": "D5",
          "ticks": 173952,
          "time": 254.8125,
          "velocity": 0.4330708661417323
        },
        {
          "duration": 0.09375,
          "durationTicks": 64,
          "midi": 72,
          "name": "C5",
          "ticks": 174080,
          "time": 255,
          "velocity": 0.44881889763779526
        },
        {
          "duration": 0.09375,
          "durationTicks": 64,
          "midi": 70,
          "name": "A#4",
          "ticks": 174208,
          "time": 255.1875,
          "velocity": 0.47244094488188976
        },
        {
          "duration": 0.09375,
          "durationTicks": 64,
          "midi": 69,
          "name": "A4",
          "ticks": 174336,
          "time": 255.375,
          "velocity": 0.44881889763779526
        },
        {
          "duration": 0.09375,
          "durationTicks": 64,
          "midi": 67,
          "name": "G4",
          "ticks": 174464,
          "time": 255.5625,
          "velocity": 0.4409448818897638
        },
        {
          "duration": 0.09375,
          "durationTicks": 64,
          "midi": 65,
          "name": "F4",
          "ticks": 174592,
          "time": 255.75,
          "velocity": 0.4409448818897638
        },
        {
          "duration": 0.09375,
          "durationTicks": 64,
          "midi": 63,
          "name": "D#4",
          "ticks": 174720,
          "time": 255.9375,
          "velocity": 0.4645669291338583
        },
        {
          "duration": 0.09375,
          "durationTicks": 64,
          "midi": 62,
          "name": "D4",
          "ticks": 174848,
          "time": 256.125,
          "velocity": 0.3937007874015748
        },
        {
          "duration": 0.09375,
          "durationTicks": 64,
          "midi": 60,
          "name": "C4",
          "ticks": 174976,
          "time": 256.3125,
          "velocity": 0.44881889763779526
        },
        {
          "duration": 0.375,
          "durationTicks": 256,
          "midi": 58,
          "name": "A#3",
          "ticks": 175104,
          "time": 256.5,
          "velocity": 0.44881889763779526
        },
        {
          "duration": 1.5,
          "durationTicks": 1024,
          "midi": 82,
          "name": "A#5",
          "ticks": 175616,
          "time": 257.25,
          "velocity": 0.44881889763779526
        },
        {
          "duration": 0.7119140625,
          "durationTicks": 486,
          "midi": 81,
          "name": "A5",
          "ticks": 176640,
          "time": 258.75,
          "velocity": 0.4330708661417323
        },
        {
          "duration": 1.5,
          "durationTicks": 1024,
          "midi": 82,
          "name": "A#5",
          "ticks": 177664,
          "time": 260.25,
          "velocity": 0.41732283464566927
        },
        {
          "duration": 0.7119140625,
          "durationTicks": 486,
          "midi": 81,
          "name": "A5",
          "ticks": 178688,
          "time": 261.75,
          "velocity": 0.47244094488188976
        },
        {
          "duration": 0.1904296875,
          "durationTicks": 130,
          "midi": 87,
          "name": "D#6",
          "ticks": 179968,
          "time": 263.625,
          "velocity": 0.7007874015748031
        },
        {
          "duration": 0.17724609375,
          "durationTicks": 121,
          "midi": 86,
          "name": "D6",
          "ticks": 180096,
          "time": 263.8125,
          "velocity": 0.6771653543307087
        },
        {
          "duration": 0.375,
          "durationTicks": 256,
          "midi": 86,
          "name": "D6",
          "ticks": 180224,
          "time": 264,
          "velocity": 0.7480314960629921
        },
        {
          "duration": 0.1904296875,
          "durationTicks": 130,
          "midi": 87,
          "name": "D#6",
          "ticks": 180480,
          "time": 264.375,
          "velocity": 0.8188976377952756
        },
        {
          "duration": 0.17724609375,
          "durationTicks": 121,
          "midi": 86,
          "name": "D6",
          "ticks": 180608,
          "time": 264.5625,
          "velocity": 0.7795275590551181
        },
        {
          "duration": 0.375,
          "durationTicks": 256,
          "midi": 86,
          "name": "D6",
          "ticks": 180736,
          "time": 264.75,
          "velocity": 0.7795275590551181
        },
        {
          "duration": 0.1904296875,
          "durationTicks": 130,
          "midi": 87,
          "name": "D#6",
          "ticks": 180992,
          "time": 265.125,
          "velocity": 0.8188976377952756
        },
        {
          "duration": 0.17724609375,
          "durationTicks": 121,
          "midi": 86,
          "name": "D6",
          "ticks": 181120,
          "time": 265.3125,
          "velocity": 0.7874015748031497
        },
        {
          "duration": 0.75,
          "durationTicks": 512,
          "midi": 86,
          "name": "D6",
          "ticks": 181248,
          "time": 265.5,
          "velocity": 0.7480314960629921
        },
        {
          "duration": 0.57275390625,
          "durationTicks": 391,
          "midi": 87,
          "name": "D#6",
          "ticks": 181760,
          "time": 266.25,
          "velocity": 0.8188976377952756
        },
        {
          "duration": 0.17724609375,
          "durationTicks": 121,
          "midi": 84,
          "name": "C6",
          "ticks": 182144,
          "time": 266.8125,
          "velocity": 0.7874015748031497
        },
        {
          "duration": 0.57275390625,
          "durationTicks": 391,
          "midi": 82,
          "name": "A#5",
          "ticks": 182272,
          "time": 267,
          "velocity": 0.6614173228346457
        },
        {
          "duration": 0.17724609375,
          "durationTicks": 121,
          "midi": 86,
          "name": "D6",
          "ticks": 182656,
          "time": 267.5625,
          "velocity": 0.6850393700787402
        },
        {
          "duration": 0.57275390625,
          "durationTicks": 391,
          "midi": 84,
          "name": "C6",
          "ticks": 182784,
          "time": 267.75,
          "velocity": 0.7165354330708661
        },
        {
          "duration": 0.17724609375,
          "durationTicks": 121,
          "midi": 81,
          "name": "A5",
          "ticks": 183168,
          "time": 268.3125,
          "velocity": 0.6220472440944882
        },
        {
          "duration": 0.375,
          "durationTicks": 256,
          "midi": 82,
          "name": "A#5",
          "ticks": 183296,
          "time": 268.5,
          "velocity": 0.7952755905511811
        },
        {
          "duration": 1.5,
          "durationTicks": 1024,
          "midi": 87,
          "name": "D#6",
          "ticks": 184832,
          "time": 270.75,
          "velocity": 0.4330708661417323
        },
        {
          "duration": 0.35595703125,
          "durationTicks": 243,
          "midi": 86,
          "name": "D6",
          "ticks": 185856,
          "time": 272.25,
          "velocity": 0.47244094488188976
        },
        {
          "duration": 1.5,
          "durationTicks": 1024,
          "midi": 75,
          "name": "D#5",
          "ticks": 186880,
          "time": 273.75,
          "velocity": 0.3937007874015748
        },
        {
          "duration": 0.35595703125,
          "durationTicks": 243,
          "midi": 74,
          "name": "D5",
          "ticks": 187904,
          "time": 275.25,
          "velocity": 0.4566929133858268
        },
        {
          "duration": 0.1904296875,
          "durationTicks": 130,
          "midi": 87,
          "name": "D#6",
          "ticks": 188160,
          "time": 275.625,
          "velocity": 0.9448818897637795
        },
        {
          "duration": 0.17724609375,
          "durationTicks": 121,
          "midi": 86,
          "name": "D6",
          "ticks": 188288,
          "time": 275.8125,
          "velocity": 0.9448818897637795
        },
        {
          "duration": 0.375,
          "durationTicks": 256,
          "midi": 86,
          "name": "D6",
          "ticks": 188416,
          "time": 276,
          "velocity": 0.7637795275590551
        },
        {
          "duration": 0.1904296875,
          "durationTicks": 130,
          "midi": 87,
          "name": "D#6",
          "ticks": 188672,
          "time": 276.375,
          "velocity": 0.8110236220472441
        },
        {
          "duration": 0.17724609375,
          "durationTicks": 121,
          "midi": 86,
          "name": "D6",
          "ticks": 188800,
          "time": 276.5625,
          "velocity": 0.7952755905511811
        },
        {
          "duration": 0.375,
          "durationTicks": 256,
          "midi": 86,
          "name": "D6",
          "ticks": 188928,
          "time": 276.75,
          "velocity": 0.7952755905511811
        },
        {
          "duration": 0.1904296875,
          "durationTicks": 130,
          "midi": 87,
          "name": "D#6",
          "ticks": 189184,
          "time": 277.125,
          "velocity": 0.8031496062992126
        },
        {
          "duration": 0.17724609375,
          "durationTicks": 121,
          "midi": 86,
          "name": "D6",
          "ticks": 189312,
          "time": 277.3125,
          "velocity": 0.7716535433070866
        },
        {
          "duration": 0.75,
          "durationTicks": 512,
          "midi": 86,
          "name": "D6",
          "ticks": 189440,
          "time": 277.5,
          "velocity": 0.7401574803149606
        },
        {
          "duration": 0.57275390625,
          "durationTicks": 391,
          "midi": 87,
          "name": "D#6",
          "ticks": 189952,
          "time": 278.25,
          "velocity": 0.8110236220472441
        },
        {
          "duration": 0.17724609375,
          "durationTicks": 121,
          "midi": 84,
          "name": "C6",
          "ticks": 190336,
          "time": 278.8125,
          "velocity": 0.7559055118110236
        },
        {
          "duration": 0.57275390625,
          "durationTicks": 391,
          "midi": 82,
          "name": "A#5",
          "ticks": 190464,
          "time": 279,
          "velocity": 0.6929133858267716
        },
        {
          "duration": 0.17724609375,
          "durationTicks": 121,
          "midi": 86,
          "name": "D6",
          "ticks": 190848,
          "time": 279.5625,
          "velocity": 0.7244094488188977
        },
        {
          "duration": 0.57275390625,
          "durationTicks": 391,
          "midi": 84,
          "name": "C6",
          "ticks": 190976,
          "time": 279.75,
          "velocity": 0.7401574803149606
        },
        {
          "duration": 0.17724609375,
          "durationTicks": 121,
          "midi": 81,
          "name": "A5",
          "ticks": 191360,
          "time": 280.3125,
          "velocity": 0.6771653543307087
        },
        {
          "duration": 0.1875,
          "durationTicks": 128,
          "midi": 82,
          "name": "A#5",
          "ticks": 191488,
          "time": 280.5,
          "velocity": 0.7874015748031497
        },
        {
          "duration": 0.1875,
          "durationTicks": 128,
          "midi": 77,
          "name": "F5",
          "ticks": 191616,
          "time": 280.6875,
          "velocity": 0.6535433070866141
        },
        {
          "duration": 0.1875,
          "durationTicks": 128,
          "midi": 86,
          "name": "D6",
          "ticks": 191744,
          "time": 280.875,
          "velocity": 0.9212598425196851
        },
        {
          "duration": 0.1875,
          "durationTicks": 128,
          "midi": 84,
          "name": "C6",
          "ticks": 191872,
          "time": 281.0625,
          "velocity": 0.7559055118110236
        },
        {
          "duration": 0.1875,
          "durationTicks": 128,
          "midi": 82,
          "name": "A#5",
          "ticks": 192000,
          "time": 281.25,
          "velocity": 0.7244094488188977
        },
        {
          "duration": 0.1875,
          "durationTicks": 128,
          "midi": 81,
          "name": "A5",
          "ticks": 192128,
          "time": 281.4375,
          "velocity": 0.7165354330708661
        },
        {
          "duration": 0.1875,
          "durationTicks": 128,
          "midi": 79,
          "name": "G5",
          "ticks": 192256,
          "time": 281.625,
          "velocity": 0.7165354330708661
        },
        {
          "duration": 0.1875,
          "durationTicks": 128,
          "midi": 77,
          "name": "F5",
          "ticks": 192384,
          "time": 281.8125,
          "velocity": 0.7086614173228346
        },
        {
          "duration": 0.1875,
          "durationTicks": 128,
          "midi": 75,
          "name": "D#5",
          "ticks": 192512,
          "time": 282,
          "velocity": 0.7322834645669292
        },
        {
          "duration": 0.1875,
          "durationTicks": 128,
          "midi": 74,
          "name": "D5",
          "ticks": 192640,
          "time": 282.1875,
          "velocity": 0.7559055118110236
        },
        {
          "duration": 0.1875,
          "durationTicks": 128,
          "midi": 72,
          "name": "C5",
          "ticks": 192768,
          "time": 282.375,
          "velocity": 0.7165354330708661
        },
        {
          "duration": 0.1875,
          "durationTicks": 128,
          "midi": 70,
          "name": "A#4",
          "ticks": 192896,
          "time": 282.5625,
          "velocity": 0.7480314960629921
        },
        {
          "duration": 0.1875,
          "durationTicks": 128,
          "midi": 69,
          "name": "A4",
          "ticks": 193024,
          "time": 282.75,
          "velocity": 0.7244094488188977
        },
        {
          "duration": 0.1875,
          "durationTicks": 128,
          "midi": 67,
          "name": "G4",
          "ticks": 193152,
          "time": 282.9375,
          "velocity": 0.6771653543307087
        },
        {
          "duration": 0.1875,
          "durationTicks": 128,
          "midi": 65,
          "name": "F4",
          "ticks": 193280,
          "time": 283.125,
          "velocity": 0.7401574803149606
        },
        {
          "duration": 0.1875,
          "durationTicks": 128,
          "midi": 63,
          "name": "D#4",
          "ticks": 193408,
          "time": 283.3125,
          "velocity": 0.6929133858267716
        },
        {
          "duration": 0.375,
          "durationTicks": 256,
          "midi": 62,
          "name": "D4",
          "ticks": 193536,
          "time": 283.5,
          "velocity": 0.7401574803149606
        },
        {
          "duration": 0.375,
          "durationTicks": 256,
          "midi": 77,
          "name": "F5",
          "ticks": 193792,
          "time": 283.875,
          "velocity": 0.952755905511811
        },
        {
          "duration": 0.375,
          "durationTicks": 256,
          "midi": 79,
          "name": "G5",
          "ticks": 194048,
          "time": 284.25,
          "velocity": 0.8740157480314961
        },
        {
          "duration": 0.375,
          "durationTicks": 256,
          "midi": 69,
          "name": "A4",
          "ticks": 194304,
          "time": 284.625,
          "velocity": 0.6299212598425197
        },
        {
          "duration": 0.1875,
          "durationTicks": 128,
          "midi": 70,
          "name": "A#4",
          "ticks": 194560,
          "time": 285,
          "velocity": 0.7795275590551181
        },
        {
          "duration": 0.1875,
          "durationTicks": 128,
          "midi": 65,
          "name": "F4",
          "ticks": 194688,
          "time": 285.1875,
          "velocity": 0.6535433070866141
        },
        {
          "duration": 0.1875,
          "durationTicks": 128,
          "midi": 74,
          "name": "D5",
          "ticks": 194816,
          "time": 285.375,
          "velocity": 0.905511811023622
        },
        {
          "duration": 0.1875,
          "durationTicks": 128,
          "midi": 72,
          "name": "C5",
          "ticks": 194944,
          "time": 285.5625,
          "velocity": 0.7244094488188977
        },
        {
          "duration": 0.1875,
          "durationTicks": 128,
          "midi": 70,
          "name": "A#4",
          "ticks": 195072,
          "time": 285.75,
          "velocity": 0.7244094488188977
        },
        {
          "duration": 0.1875,
          "durationTicks": 128,
          "midi": 69,
          "name": "A4",
          "ticks": 195200,
          "time": 285.9375,
          "velocity": 0.7637795275590551
        },
        {
          "duration": 0.1875,
          "durationTicks": 128,
          "midi": 67,
          "name": "G4",
          "ticks": 195328,
          "time": 286.125,
          "velocity": 0.7244094488188977
        },
        {
          "duration": 0.1875,
          "durationTicks": 128,
          "midi": 65,
          "name": "F4",
          "ticks": 195456,
          "time": 286.3125,
          "velocity": 0.7401574803149606
        },
        {
          "duration": 0.1875,
          "durationTicks": 128,
          "midi": 63,
          "name": "D#4",
          "ticks": 195584,
          "time": 286.5,
          "velocity": 0.7007874015748031
        },
        {
          "duration": 0.1875,
          "durationTicks": 128,
          "midi": 62,
          "name": "D4",
          "ticks": 195712,
          "time": 286.6875,
          "velocity": 0.7086614173228346
        },
        {
          "duration": 0.1875,
          "durationTicks": 128,
          "midi": 60,
          "name": "C4",
          "ticks": 195840,
          "time": 286.875,
          "velocity": 0.7244094488188977
        },
        {
          "duration": 0.1875,
          "durationTicks": 128,
          "midi": 58,
          "name": "A#3",
          "ticks": 195968,
          "time": 287.0625,
          "velocity": 0.7716535433070866
        },
        {
          "duration": 0.1875,
          "durationTicks": 128,
          "midi": 57,
          "name": "A3",
          "ticks": 196096,
          "time": 287.25,
          "velocity": 0.7795275590551181
        },
        {
          "duration": 0.1875,
          "durationTicks": 128,
          "midi": 60,
          "name": "C4",
          "ticks": 196224,
          "time": 287.4375,
          "velocity": 0.8346456692913385
        },
        {
          "duration": 0.1875,
          "durationTicks": 128,
          "midi": 65,
          "name": "F4",
          "ticks": 196352,
          "time": 287.625,
          "velocity": 0.8661417322834646
        },
        {
          "duration": 0.1875,
          "durationTicks": 128,
          "midi": 63,
          "name": "D#4",
          "ticks": 196480,
          "time": 287.8125,
          "velocity": 0.7165354330708661
        },
        {
          "duration": 0.375,
          "durationTicks": 256,
          "midi": 62,
          "name": "D4",
          "ticks": 196608,
          "time": 288,
          "velocity": 0.7322834645669292
        },
        {
          "duration": 0.375,
          "durationTicks": 256,
          "midi": 77,
          "name": "F5",
          "ticks": 196864,
          "time": 288.375,
          "velocity": 0.968503937007874
        },
        {
          "duration": 0.375,
          "durationTicks": 256,
          "midi": 79,
          "name": "G5",
          "ticks": 197120,
          "time": 288.75,
          "velocity": 0.8503937007874016
        },
        {
          "duration": 0.375,
          "durationTicks": 256,
          "midi": 81,
          "name": "A5",
          "ticks": 197376,
          "time": 289.125,
          "velocity": 0.8267716535433071
        },
        {
          "duration": 0.375,
          "durationTicks": 256,
          "midi": 82,
          "name": "A#5",
          "ticks": 197632,
          "time": 289.5,
          "velocity": 0.84251968503937
        },
        {
          "duration": 0.375,
          "durationTicks": 256,
          "midi": 79,
          "name": "G5",
          "ticks": 197888,
          "time": 289.875,
          "velocity": 0.7165354330708661
        },
        {
          "duration": 0.375,
          "durationTicks": 256,
          "midi": 77,
          "name": "F5",
          "ticks": 198144,
          "time": 290.25,
          "velocity": 0.7401574803149606
        },
        {
          "duration": 0.375,
          "durationTicks": 256,
          "midi": 69,
          "name": "A4",
          "ticks": 198400,
          "time": 290.625,
          "velocity": 0.6141732283464567
        },
        {
          "duration": 0.1904296875,
          "durationTicks": 130,
          "midi": 70,
          "name": "A#4",
          "ticks": 198656,
          "time": 291,
          "velocity": 0.7559055118110236
        },
        {
          "duration": 0.17724609375,
          "durationTicks": 121,
          "midi": 74,
          "name": "D5",
          "ticks": 198784,
          "time": 291.1875,
          "velocity": 0.8582677165354331
        },
        {
          "duration": 0.09375,
          "durationTicks": 64,
          "midi": 77,
          "name": "F5",
          "ticks": 198912,
          "time": 291.375,
          "velocity": 0.8503937007874016
        },
        {
          "duration": 0.09375,
          "durationTicks": 64,
          "midi": 82,
          "name": "A#5",
          "ticks": 199040,
          "time": 291.5625,
          "velocity": 0.905511811023622
        },
        {
          "duration": 0.1904296875,
          "durationTicks": 130,
          "midi": 81,
          "name": "A5",
          "ticks": 199168,
          "time": 291.75,
          "velocity": 0.7637795275590551
        },
        {
          "duration": 0.17724609375,
          "durationTicks": 121,
          "midi": 77,
          "name": "F5",
          "ticks": 199296,
          "time": 291.9375,
          "velocity": 0.6692913385826772
        },
        {
          "duration": 0.09375,
          "durationTicks": 64,
          "midi": 84,
          "name": "C6",
          "ticks": 199424,
          "time": 292.125,
          "velocity": 0.905511811023622
        },
        {
          "duration": 0.09375,
          "durationTicks": 64,
          "midi": 81,
          "name": "A5",
          "ticks": 199552,
          "time": 292.3125,
          "velocity": 0.7322834645669292
        },
        {
          "duration": 0.1904296875,
          "durationTicks": 130,
          "midi": 82,
          "name": "A#5",
          "ticks": 199680,
          "time": 292.5,
          "velocity": 0.8110236220472441
        },
        {
          "duration": 0.17724609375,
          "durationTicks": 121,
          "midi": 77,
          "name": "F5",
          "ticks": 199808,
          "time": 292.6875,
          "velocity": 0.7007874015748031
        },
        {
          "duration": 0.09375,
          "durationTicks": 64,
          "midi": 86,
          "name": "D6",
          "ticks": 199936,
          "time": 292.875,
          "velocity": 0.889763779527559
        },
        {
          "duration": 0.09375,
          "durationTicks": 64,
          "midi": 82,
          "name": "A#5",
          "ticks": 200064,
          "time": 293.0625,
          "velocity": 0.7086614173228346
        },
        {
          "duration": 0.1904296875,
          "durationTicks": 130,
          "midi": 81,
          "name": "A5",
          "ticks": 200192,
          "time": 293.25,
          "velocity": 0.7401574803149606
        },
        {
          "duration": 0.17724609375,
          "durationTicks": 121,
          "midi": 77,
          "name": "F5",
          "ticks": 200320,
          "time": 293.4375,
          "velocity": 0.6299212598425197
        },
        {
          "duration": 0.09375,
          "durationTicks": 64,
          "midi": 84,
          "name": "C6",
          "ticks": 200448,
          "time": 293.625,
          "velocity": 0.889763779527559
        },
        {
          "duration": 0.09375,
          "durationTicks": 64,
          "midi": 81,
          "name": "A5",
          "ticks": 200576,
          "time": 293.8125,
          "velocity": 0.7086614173228346
        },
        {
          "duration": 0.1904296875,
          "durationTicks": 130,
          "midi": 82,
          "name": "A#5",
          "ticks": 200704,
          "time": 294,
          "velocity": 0.8188976377952756
        },
        {
          "duration": 0.17724609375,
          "durationTicks": 121,
          "midi": 77,
          "name": "F5",
          "ticks": 200832,
          "time": 294.1875,
          "velocity": 0.7086614173228346
        },
        {
          "duration": 0.09375,
          "durationTicks": 64,
          "midi": 86,
          "name": "D6",
          "ticks": 200960,
          "time": 294.375,
          "velocity": 0.905511811023622
        },
        {
          "duration": 0.09375,
          "durationTicks": 64,
          "midi": 82,
          "name": "A#5",
          "ticks": 201088,
          "time": 294.5625,
          "velocity": 0.6692913385826772
        },
        {
          "duration": 0.1904296875,
          "durationTicks": 130,
          "midi": 81,
          "name": "A5",
          "ticks": 201216,
          "time": 294.75,
          "velocity": 0.7007874015748031
        },
        {
          "duration": 0.17724609375,
          "durationTicks": 121,
          "midi": 77,
          "name": "F5",
          "ticks": 201344,
          "time": 294.9375,
          "velocity": 0.6220472440944882
        },
        {
          "duration": 0.09375,
          "durationTicks": 64,
          "midi": 84,
          "name": "C6",
          "ticks": 201472,
          "time": 295.125,
          "velocity": 0.8818897637795275
        },
        {
          "duration": 0.09375,
          "durationTicks": 64,
          "midi": 81,
          "name": "A5",
          "ticks": 201600,
          "time": 295.3125,
          "velocity": 0.7165354330708661
        },
        {
          "duration": 0.1904296875,
          "durationTicks": 130,
          "midi": 82,
          "name": "A#5",
          "ticks": 201728,
          "time": 295.5,
          "velocity": 0.7874015748031497
        },
        {
          "duration": 0.17724609375,
          "durationTicks": 121,
          "midi": 86,
          "name": "D6",
          "ticks": 201856,
          "time": 295.6875,
          "velocity": 0.8582677165354331
        },
        {
          "duration": 0.09375,
          "durationTicks": 64,
          "midi": 84,
          "name": "C6",
          "ticks": 201984,
          "time": 295.875,
          "velocity": 0.7244094488188977
        },
        {
          "duration": 0.09375,
          "durationTicks": 64,
          "midi": 81,
          "name": "A5",
          "ticks": 202112,
          "time": 296.0625,
          "velocity": 0.7322834645669292
        },
        {
          "duration": 0.1904296875,
          "durationTicks": 130,
          "midi": 82,
          "name": "A#5",
          "ticks": 202240,
          "time": 296.25,
          "velocity": 0.7716535433070866
        },
        {
          "duration": 0.17724609375,
          "durationTicks": 121,
          "midi": 86,
          "name": "D6",
          "ticks": 202368,
          "time": 296.4375,
          "velocity": 0.8740157480314961
        },
        {
          "duration": 0.09375,
          "durationTicks": 64,
          "midi": 84,
          "name": "C6",
          "ticks": 202496,
          "time": 296.625,
          "velocity": 0.7401574803149606
        },
        {
          "duration": 0.09375,
          "durationTicks": 64,
          "midi": 81,
          "name": "A5",
          "ticks": 202624,
          "time": 296.8125,
          "velocity": 0.7007874015748031
        },
        {
          "duration": 0.375,
          "durationTicks": 256,
          "midi": 82,
          "name": "A#5",
          "ticks": 202752,
          "time": 297,
          "velocity": 0.7874015748031497
        },
        {
          "duration": 0.375,
          "durationTicks": 256,
          "midi": 62,
          "name": "D4",
          "ticks": 203776,
          "time": 298.5,
          "velocity": 0.6850393700787402
        },
        {
          "duration": 0.375,
          "durationTicks": 256,
          "midi": 72,
          "name": "C5",
          "ticks": 203776,
          "time": 298.5,
          "velocity": 0.6850393700787402
        },
        {
          "duration": 0.375,
          "durationTicks": 256,
          "midi": 78,
          "name": "F#5",
          "ticks": 203776,
          "time": 298.5,
          "velocity": 0.6850393700787402
        },
        {
          "duration": 0.375,
          "durationTicks": 256,
          "midi": 62,
          "name": "D4",
          "ticks": 204800,
          "time": 300,
          "velocity": 0.6929133858267716
        },
        {
          "duration": 0.375,
          "durationTicks": 256,
          "midi": 70,
          "name": "A#4",
          "ticks": 204800,
          "time": 300,
          "velocity": 0.6929133858267716
        },
        {
          "duration": 0.375,
          "durationTicks": 256,
          "midi": 79,
          "name": "G5",
          "ticks": 204800,
          "time": 300,
          "velocity": 0.6929133858267716
        },
        {
          "duration": 0.375,
          "durationTicks": 256,
          "midi": 62,
          "name": "D4",
          "ticks": 205312,
          "time": 300.75,
          "velocity": 0.7086614173228346
        },
        {
          "duration": 0.375,
          "durationTicks": 256,
          "midi": 71,
          "name": "B4",
          "ticks": 205312,
          "time": 300.75,
          "velocity": 0.7086614173228346
        },
        {
          "duration": 0.375,
          "durationTicks": 256,
          "midi": 80,
          "name": "G#5",
          "ticks": 205312,
          "time": 300.75,
          "velocity": 0.7086614173228346
        },
        {
          "duration": 0.1904296875,
          "durationTicks": 130,
          "midi": 74,
          "name": "D5",
          "ticks": 207616,
          "time": 304.125,
          "velocity": 0.4094488188976378
        },
        {
          "duration": 0.17724609375,
          "durationTicks": 121,
          "midi": 73,
          "name": "C#5",
          "ticks": 207744,
          "time": 304.3125,
          "velocity": 0.3779527559055118
        },
        {
          "duration": 0.375,
          "durationTicks": 256,
          "midi": 73,
          "name": "C#5",
          "ticks": 207872,
          "time": 304.5,
          "velocity": 0.5118110236220472
        },
        {
          "duration": 0.1904296875,
          "durationTicks": 130,
          "midi": 74,
          "name": "D5",
          "ticks": 208128,
          "time": 304.875,
          "velocity": 0.49606299212598426
        },
        {
          "duration": 0.17724609375,
          "durationTicks": 121,
          "midi": 73,
          "name": "C#5",
          "ticks": 208256,
          "time": 305.0625,
          "velocity": 0.47244094488188976
        },
        {
          "duration": 0.375,
          "durationTicks": 256,
          "midi": 73,
          "name": "C#5",
          "ticks": 208384,
          "time": 305.25,
          "velocity": 0.5039370078740157
        },
        {
          "duration": 0.1904296875,
          "durationTicks": 130,
          "midi": 74,
          "name": "D5",
          "ticks": 208640,
          "time": 305.625,
          "velocity": 0.5433070866141733
        },
        {
          "duration": 0.17724609375,
          "durationTicks": 121,
          "midi": 73,
          "name": "C#5",
          "ticks": 208768,
          "time": 305.8125,
          "velocity": 0.5118110236220472
        },
        {
          "duration": 0.38232421875,
          "durationTicks": 261,
          "midi": 73,
          "name": "C#5",
          "ticks": 208896,
          "time": 306,
          "velocity": 0.5118110236220472
        },
        {
          "duration": 0.35595703125,
          "durationTicks": 243,
          "midi": 81,
          "name": "A5",
          "ticks": 209152,
          "time": 306.375,
          "velocity": 0.6220472440944882
        },
        {
          "duration": 0.1904296875,
          "durationTicks": 130,
          "midi": 81,
          "name": "A5",
          "ticks": 209664,
          "time": 307.125,
          "velocity": 0.4409448818897638
        },
        {
          "duration": 0.17724609375,
          "durationTicks": 121,
          "midi": 80,
          "name": "G#5",
          "ticks": 209792,
          "time": 307.3125,
          "velocity": 0.3779527559055118
        },
        {
          "duration": 0.375,
          "durationTicks": 256,
          "midi": 78,
          "name": "F#5",
          "ticks": 209920,
          "time": 307.5,
          "velocity": 0.4566929133858268
        },
        {
          "duration": 0.1904296875,
          "durationTicks": 130,
          "midi": 78,
          "name": "F#5",
          "ticks": 210176,
          "time": 307.875,
          "velocity": 0.47244094488188976
        },
        {
          "duration": 0.17724609375,
          "durationTicks": 121,
          "midi": 76,
          "name": "E5",
          "ticks": 210304,
          "time": 308.0625,
          "velocity": 0.44881889763779526
        },
        {
          "duration": 0.375,
          "durationTicks": 256,
          "midi": 74,
          "name": "D5",
          "ticks": 210432,
          "time": 308.25,
          "velocity": 0.4409448818897638
        },
        {
          "duration": 0.1904296875,
          "durationTicks": 130,
          "midi": 74,
          "name": "D5",
          "ticks": 210688,
          "time": 308.625,
          "velocity": 0.49606299212598426
        },
        {
          "duration": 0.17724609375,
          "durationTicks": 121,
          "midi": 73,
          "name": "C#5",
          "ticks": 210816,
          "time": 308.8125,
          "velocity": 0.5275590551181102
        },
        {
          "duration": 0.375,
          "durationTicks": 256,
          "midi": 72,
          "name": "C5",
          "ticks": 210944,
          "time": 309,
          "velocity": 0.48031496062992124
        },
        {
          "duration": 0.375,
          "durationTicks": 256,
          "midi": 72,
          "name": "C5",
          "ticks": 211200,
          "time": 309.375,
          "velocity": 0.48031496062992124
        },
        {
          "duration": 0.1904296875,
          "durationTicks": 130,
          "midi": 73,
          "name": "C#5",
          "ticks": 211712,
          "time": 310.125,
          "velocity": 0.4566929133858268
        },
        {
          "duration": 0.17724609375,
          "durationTicks": 121,
          "midi": 71,
          "name": "B4",
          "ticks": 211840,
          "time": 310.3125,
          "velocity": 0.4094488188976378
        },
        {
          "duration": 0.375,
          "durationTicks": 256,
          "midi": 71,
          "name": "B4",
          "ticks": 211968,
          "time": 310.5,
          "velocity": 0.44881889763779526
        },
        {
          "duration": 0.1904296875,
          "durationTicks": 130,
          "midi": 73,
          "name": "C#5",
          "ticks": 212224,
          "time": 310.875,
          "velocity": 0.4881889763779528
        },
        {
          "duration": 0.17724609375,
          "durationTicks": 121,
          "midi": 71,
          "name": "B4",
          "ticks": 212352,
          "time": 311.0625,
          "velocity": 0.48031496062992124
        },
        {
          "duration": 0.375,
          "durationTicks": 256,
          "midi": 71,
          "name": "B4",
          "ticks": 212480,
          "time": 311.25,
          "velocity": 0.4645669291338583
        },
        {
          "duration": 0.1904296875,
          "durationTicks": 130,
          "midi": 73,
          "name": "C#5",
          "ticks": 212736,
          "time": 311.625,
          "velocity": 0.5196850393700787
        },
        {
          "duration": 0.17724609375,
          "durationTicks": 121,
          "midi": 71,
          "name": "B4",
          "ticks": 212864,
          "time": 311.8125,
          "velocity": 0.4645669291338583
        },
        {
          "duration": 0.375,
          "durationTicks": 256,
          "midi": 71,
          "name": "B4",
          "ticks": 212992,
          "time": 312,
          "velocity": 0.44881889763779526
        },
        {
          "duration": 0.375,
          "durationTicks": 256,
          "midi": 80,
          "name": "G#5",
          "ticks": 213248,
          "time": 312.375,
          "velocity": 0.6062992125984252
        },
        {
          "duration": 0.1904296875,
          "durationTicks": 130,
          "midi": 80,
          "name": "G#5",
          "ticks": 213760,
          "time": 313.125,
          "velocity": 0.4330708661417323
        },
        {
          "duration": 0.17724609375,
          "durationTicks": 121,
          "midi": 78,
          "name": "F#5",
          "ticks": 213888,
          "time": 313.3125,
          "velocity": 0.3858267716535433
        },
        {
          "duration": 0.375,
          "durationTicks": 256,
          "midi": 77,
          "name": "F5",
          "ticks": 214016,
          "time": 313.5,
          "velocity": 0.4645669291338583
        },
        {
          "duration": 0.1904296875,
          "durationTicks": 130,
          "midi": 77,
          "name": "F5",
          "ticks": 214272,
          "time": 313.875,
          "velocity": 0.47244094488188976
        },
        {
          "duration": 0.17724609375,
          "durationTicks": 121,
          "midi": 74,
          "name": "D5",
          "ticks": 214400,
          "time": 314.0625,
          "velocity": 0.4330708661417323
        },
        {
          "duration": 0.375,
          "durationTicks": 256,
          "midi": 73,
          "name": "C#5",
          "ticks": 214528,
          "time": 314.25,
          "velocity": 0.4330708661417323
        },
        {
          "duration": 0.1904296875,
          "durationTicks": 130,
          "midi": 73,
          "name": "C#5",
          "ticks": 214784,
          "time": 314.625,
          "velocity": 0.4881889763779528
        },
        {
          "duration": 0.17724609375,
          "durationTicks": 121,
          "midi": 71,
          "name": "B4",
          "ticks": 214912,
          "time": 314.8125,
          "velocity": 0.4409448818897638
        },
        {
          "duration": 0.375,
          "durationTicks": 256,
          "midi": 70,
          "name": "A#4",
          "ticks": 215040,
          "time": 315,
          "velocity": 0.47244094488188976
        },
        {
          "duration": 0.375,
          "durationTicks": 256,
          "midi": 70,
          "name": "A#4",
          "ticks": 215296,
          "time": 315.375,
          "velocity": 0.47244094488188976
        },
        {
          "duration": 0.1904296875,
          "durationTicks": 130,
          "midi": 71,
          "name": "B4",
          "ticks": 215808,
          "time": 316.125,
          "velocity": 0.4409448818897638
        },
        {
          "duration": 0.17724609375,
          "durationTicks": 121,
          "midi": 69,
          "name": "A4",
          "ticks": 215936,
          "time": 316.3125,
          "velocity": 0.36220472440944884
        },
        {
          "duration": 0.375,
          "durationTicks": 256,
          "midi": 69,
          "name": "A4",
          "ticks": 216064,
          "time": 316.5,
          "velocity": 0.48031496062992124
        },
        {
          "duration": 0.1904296875,
          "durationTicks": 130,
          "midi": 71,
          "name": "B4",
          "ticks": 216320,
          "time": 316.875,
          "velocity": 0.5196850393700787
        },
        {
          "duration": 0.17724609375,
          "durationTicks": 121,
          "midi": 69,
          "name": "A4",
          "ticks": 216448,
          "time": 317.0625,
          "velocity": 0.47244094488188976
        },
        {
          "duration": 0.375,
          "durationTicks": 256,
          "midi": 69,
          "name": "A4",
          "ticks": 216576,
          "time": 317.25,
          "velocity": 0.4881889763779528
        },
        {
          "duration": 0.1904296875,
          "durationTicks": 130,
          "midi": 71,
          "name": "B4",
          "ticks": 216832,
          "time": 317.625,
          "velocity": 0.49606299212598426
        },
        {
          "duration": 0.17724609375,
          "durationTicks": 121,
          "midi": 69,
          "name": "A4",
          "ticks": 216960,
          "time": 317.8125,
          "velocity": 0.44881889763779526
        },
        {
          "duration": 0.375,
          "durationTicks": 256,
          "midi": 69,
          "name": "A4",
          "ticks": 217088,
          "time": 318,
          "velocity": 0.4566929133858268
        },
        {
          "duration": 0.375,
          "durationTicks": 256,
          "midi": 78,
          "name": "F#5",
          "ticks": 217344,
          "time": 318.375,
          "velocity": 0.5590551181102362
        },
        {
          "duration": 0.1904296875,
          "durationTicks": 130,
          "midi": 78,
          "name": "F#5",
          "ticks": 217856,
          "time": 319.125,
          "velocity": 0.4330708661417323
        },
        {
          "duration": 0.17724609375,
          "durationTicks": 121,
          "midi": 76,
          "name": "E5",
          "ticks": 217984,
          "time": 319.3125,
          "velocity": 0.4330708661417323
        },
        {
          "duration": 0.375,
          "durationTicks": 256,
          "midi": 75,
          "name": "D#5",
          "ticks": 218112,
          "time": 319.5,
          "velocity": 0.4251968503937008
        },
        {
          "duration": 0.1904296875,
          "durationTicks": 130,
          "midi": 75,
          "name": "D#5",
          "ticks": 218368,
          "time": 319.875,
          "velocity": 0.49606299212598426
        },
        {
          "duration": 0.17724609375,
          "durationTicks": 121,
          "midi": 72,
          "name": "C5",
          "ticks": 218496,
          "time": 320.0625,
          "velocity": 0.4645669291338583
        },
        {
          "duration": 0.09375,
          "durationTicks": 64,
          "midi": 71,
          "name": "B4",
          "ticks": 218624,
          "time": 320.25,
          "velocity": 0.7086614173228346
        },
        {
          "duration": 0.09375,
          "durationTicks": 64,
          "midi": 75,
          "name": "D#5",
          "ticks": 218752,
          "time": 320.4375,
          "velocity": 0.8661417322834646
        },
        {
          "duration": 0.09375,
          "durationTicks": 64,
          "midi": 78,
          "name": "F#5",
          "ticks": 218880,
          "time": 320.625,
          "velocity": 0.8582677165354331
        },
        {
          "duration": 0.09375,
          "durationTicks": 64,
          "midi": 69,
          "name": "A4",
          "ticks": 219008,
          "time": 320.8125,
          "velocity": 0.5590551181102362
        },
        {
          "duration": 0.09375,
          "durationTicks": 64,
          "midi": 67,
          "name": "G4",
          "ticks": 219136,
          "time": 321,
          "velocity": 0.6850393700787402
        },
        {
          "duration": 0.09375,
          "durationTicks": 64,
          "midi": 71,
          "name": "B4",
          "ticks": 219264,
          "time": 321.1875,
          "velocity": 0.84251968503937
        },
        {
          "duration": 0.09375,
          "durationTicks": 64,
          "midi": 76,
          "name": "E5",
          "ticks": 219392,
          "time": 321.375,
          "velocity": 0.889763779527559
        },
        {
          "duration": 0.09375,
          "durationTicks": 64,
          "midi": 67,
          "name": "G4",
          "ticks": 219520,
          "time": 321.5625,
          "velocity": 0.6220472440944882
        },
        {
          "duration": 0.09375,
          "durationTicks": 64,
          "midi": 66,
          "name": "F#4",
          "ticks": 219648,
          "time": 321.75,
          "velocity": 0.6929133858267716
        },
        {
          "duration": 0.09375,
          "durationTicks": 64,
          "midi": 69,
          "name": "A4",
          "ticks": 219776,
          "time": 321.9375,
          "velocity": 0.8346456692913385
        },
        {
          "duration": 0.09375,
          "durationTicks": 64,
          "midi": 75,
          "name": "D#5",
          "ticks": 219904,
          "time": 322.125,
          "velocity": 0.8976377952755905
        },
        {
          "duration": 0.09375,
          "durationTicks": 64,
          "midi": 66,
          "name": "F#4",
          "ticks": 220032,
          "time": 322.3125,
          "velocity": 0.6220472440944882
        },
        {
          "duration": 0.09375,
          "durationTicks": 64,
          "midi": 67,
          "name": "G4",
          "ticks": 220160,
          "time": 322.5,
          "velocity": 0.7874015748031497
        },
        {
          "duration": 0.09375,
          "durationTicks": 64,
          "midi": 71,
          "name": "B4",
          "ticks": 220288,
          "time": 322.6875,
          "velocity": 0.8661417322834646
        },
        {
          "duration": 0.09375,
          "durationTicks": 64,
          "midi": 73,
          "name": "C#5",
          "ticks": 220416,
          "time": 322.875,
          "velocity": 0.8346456692913385
        },
        {
          "duration": 0.09375,
          "durationTicks": 64,
          "midi": 75,
          "name": "D#5",
          "ticks": 220544,
          "time": 323.0625,
          "velocity": 0.8661417322834646
        },
        {
          "duration": 0.09375,
          "durationTicks": 64,
          "midi": 76,
          "name": "E5",
          "ticks": 220672,
          "time": 323.25,
          "velocity": 0.7795275590551181
        },
        {
          "duration": 0.09375,
          "durationTicks": 64,
          "midi": 71,
          "name": "B4",
          "ticks": 220800,
          "time": 323.4375,
          "velocity": 0.6692913385826772
        },
        {
          "duration": 0.09375,
          "durationTicks": 64,
          "midi": 76,
          "name": "E5",
          "ticks": 220928,
          "time": 323.625,
          "velocity": 0.8346456692913385
        },
        {
          "duration": 0.09375,
          "durationTicks": 64,
          "midi": 78,
          "name": "F#5",
          "ticks": 221056,
          "time": 323.8125,
          "velocity": 0.8267716535433071
        },
        {
          "duration": 0.09375,
          "durationTicks": 64,
          "midi": 79,
          "name": "G5",
          "ticks": 221184,
          "time": 324,
          "velocity": 0.8110236220472441
        },
        {
          "duration": 0.09375,
          "durationTicks": 64,
          "midi": 76,
          "name": "E5",
          "ticks": 221312,
          "time": 324.1875,
          "velocity": 0.6850393700787402
        },
        {
          "duration": 0.09375,
          "durationTicks": 64,
          "midi": 78,
          "name": "F#5",
          "ticks": 221440,
          "time": 324.375,
          "velocity": 0.7874015748031497
        },
        {
          "duration": 0.09375,
          "durationTicks": 64,
          "midi": 80,
          "name": "G#5",
          "ticks": 221568,
          "time": 324.5625,
          "velocity": 0.8188976377952756
        },
        {
          "duration": 0.09375,
          "durationTicks": 64,
          "midi": 81,
          "name": "A5",
          "ticks": 221696,
          "time": 324.75,
          "velocity": 0.8188976377952756
        },
        {
          "duration": 0.09375,
          "durationTicks": 64,
          "midi": 76,
          "name": "E5",
          "ticks": 221824,
          "time": 324.9375,
          "velocity": 0.6692913385826772
        },
        {
          "duration": 0.09375,
          "durationTicks": 64,
          "midi": 81,
          "name": "A5",
          "ticks": 221952,
          "time": 325.125,
          "velocity": 0.84251968503937
        },
        {
          "duration": 0.09375,
          "durationTicks": 64,
          "midi": 83,
          "name": "B5",
          "ticks": 222080,
          "time": 325.3125,
          "velocity": 0.8346456692913385
        },
        {
          "duration": 0.375,
          "durationTicks": 256,
          "midi": 84,
          "name": "C6",
          "ticks": 222208,
          "time": 325.5,
          "velocity": 0.8346456692913385
        },
        {
          "duration": 0.375,
          "durationTicks": 256,
          "midi": 69,
          "name": "A4",
          "ticks": 222464,
          "time": 325.875,
          "velocity": 0.5433070866141733
        },
        {
          "duration": 0.1904296875,
          "durationTicks": 130,
          "midi": 82,
          "name": "A#5",
          "ticks": 222976,
          "time": 326.625,
          "velocity": 0.7007874015748031
        },
        {
          "duration": 0.17724609375,
          "durationTicks": 121,
          "midi": 81,
          "name": "A5",
          "ticks": 223104,
          "time": 326.8125,
          "velocity": 0.6456692913385826
        },
        {
          "duration": 0.375,
          "durationTicks": 256,
          "midi": 81,
          "name": "A5",
          "ticks": 223232,
          "time": 327,
          "velocity": 0.7637795275590551
        },
        {
          "duration": 0.1904296875,
          "durationTicks": 130,
          "midi": 82,
          "name": "A#5",
          "ticks": 223488,
          "time": 327.375,
          "velocity": 0.7874015748031497
        },
        {
          "duration": 0.17724609375,
          "durationTicks": 121,
          "midi": 81,
          "name": "A5",
          "ticks": 223616,
          "time": 327.5625,
          "velocity": 0.7559055118110236
        },
        {
          "duration": 0.375,
          "durationTicks": 256,
          "midi": 81,
          "name": "A5",
          "ticks": 223744,
          "time": 327.75,
          "velocity": 0.7559055118110236
        },
        {
          "duration": 0.1904296875,
          "durationTicks": 130,
          "midi": 82,
          "name": "A#5",
          "ticks": 224000,
          "time": 328.125,
          "velocity": 0.8031496062992126
        },
        {
          "duration": 0.17724609375,
          "durationTicks": 121,
          "midi": 81,
          "name": "A5",
          "ticks": 224128,
          "time": 328.3125,
          "velocity": 0.7716535433070866
        },
        {
          "duration": 0.38232421875,
          "durationTicks": 261,
          "midi": 81,
          "name": "A5",
          "ticks": 224256,
          "time": 328.5,
          "velocity": 0.7716535433070866
        },
        {
          "duration": 0.35595703125,
          "durationTicks": 243,
          "midi": 89,
          "name": "F6",
          "ticks": 224512,
          "time": 328.875,
          "velocity": 0.9448818897637795
        },
        {
          "duration": 0.1904296875,
          "durationTicks": 130,
          "midi": 89,
          "name": "F6",
          "ticks": 225024,
          "time": 329.625,
          "velocity": 0.7086614173228346
        },
        {
          "duration": 0.17724609375,
          "durationTicks": 121,
          "midi": 88,
          "name": "E6",
          "ticks": 225152,
          "time": 329.8125,
          "velocity": 0.6377952755905512
        },
        {
          "duration": 0.375,
          "durationTicks": 256,
          "midi": 86,
          "name": "D6",
          "ticks": 225280,
          "time": 330,
          "velocity": 0.6929133858267716
        },
        {
          "duration": 0.1904296875,
          "durationTicks": 130,
          "midi": 86,
          "name": "D6",
          "ticks": 225536,
          "time": 330.375,
          "velocity": 0.7637795275590551
        },
        {
          "duration": 0.17724609375,
          "durationTicks": 121,
          "midi": 84,
          "name": "C6",
          "ticks": 225664,
          "time": 330.5625,
          "velocity": 0.7007874015748031
        },
        {
          "duration": 0.375,
          "durationTicks": 256,
          "midi": 82,
          "name": "A#5",
          "ticks": 225792,
          "time": 330.75,
          "velocity": 0.7165354330708661
        },
        {
          "duration": 0.1904296875,
          "durationTicks": 130,
          "midi": 82,
          "name": "A#5",
          "ticks": 226048,
          "time": 331.125,
          "velocity": 0.7322834645669292
        },
        {
          "duration": 0.17724609375,
          "durationTicks": 121,
          "midi": 81,
          "name": "A5",
          "ticks": 226176,
          "time": 331.3125,
          "velocity": 0.7007874015748031
        },
        {
          "duration": 0.09375,
          "durationTicks": 64,
          "midi": 79,
          "name": "G5",
          "ticks": 226304,
          "time": 331.5,
          "velocity": 0.6850393700787402
        },
        {
          "duration": 0.09375,
          "durationTicks": 64,
          "midi": 74,
          "name": "D5",
          "ticks": 226432,
          "time": 331.6875,
          "velocity": 0.6692913385826772
        },
        {
          "duration": 0.09375,
          "durationTicks": 64,
          "midi": 70,
          "name": "A#4",
          "ticks": 226560,
          "time": 331.875,
          "velocity": 0.6614173228346457
        },
        {
          "duration": 0.09375,
          "durationTicks": 64,
          "midi": 72,
          "name": "C5",
          "ticks": 226688,
          "time": 332.0625,
          "velocity": 0.8267716535433071
        },
        {
          "duration": 0.09375,
          "durationTicks": 64,
          "midi": 74,
          "name": "D5",
          "ticks": 226816,
          "time": 332.25,
          "velocity": 0.8188976377952756
        },
        {
          "duration": 0.09375,
          "durationTicks": 64,
          "midi": 71,
          "name": "B4",
          "ticks": 226944,
          "time": 332.4375,
          "velocity": 0.6929133858267716
        },
        {
          "duration": 0.09375,
          "durationTicks": 64,
          "midi": 74,
          "name": "D5",
          "ticks": 227072,
          "time": 332.625,
          "velocity": 0.8188976377952756
        },
        {
          "duration": 0.09375,
          "durationTicks": 64,
          "midi": 65,
          "name": "F4",
          "ticks": 227200,
          "time": 332.8125,
          "velocity": 0.6220472440944882
        },
        {
          "duration": 0.1875,
          "durationTicks": 128,
          "midi": 64,
          "name": "E4",
          "ticks": 227328,
          "time": 333,
          "velocity": 0.6850393700787402
        },
        {
          "duration": 0.1875,
          "durationTicks": 128,
          "midi": 67,
          "name": "G4",
          "ticks": 227456,
          "time": 333.1875,
          "velocity": 0.8267716535433071
        },
        {
          "duration": 0.1875,
          "durationTicks": 128,
          "midi": 72,
          "name": "C5",
          "ticks": 227584,
          "time": 333.375,
          "velocity": 0.8976377952755905
        },
        {
          "duration": 0.1875,
          "durationTicks": 128,
          "midi": 64,
          "name": "E4",
          "ticks": 227712,
          "time": 333.5625,
          "velocity": 0.6456692913385826
        },
        {
          "duration": 0.1875,
          "durationTicks": 128,
          "midi": 62,
          "name": "D4",
          "ticks": 227840,
          "time": 333.75,
          "velocity": 0.7007874015748031
        },
        {
          "duration": 0.1875,
          "durationTicks": 128,
          "midi": 65,
          "name": "F4",
          "ticks": 227968,
          "time": 333.9375,
          "velocity": 0.7795275590551181
        },
        {
          "duration": 0.1875,
          "durationTicks": 128,
          "midi": 71,
          "name": "B4",
          "ticks": 228096,
          "time": 334.125,
          "velocity": 0.937007874015748
        },
        {
          "duration": 0.1875,
          "durationTicks": 128,
          "midi": 62,
          "name": "D4",
          "ticks": 228224,
          "time": 334.3125,
          "velocity": 0.6299212598425197
        },
        {
          "duration": 0.1875,
          "durationTicks": 128,
          "midi": 64,
          "name": "E4",
          "ticks": 228352,
          "time": 334.5,
          "velocity": 0.8110236220472441
        },
        {
          "duration": 0.1875,
          "durationTicks": 128,
          "midi": 67,
          "name": "G4",
          "ticks": 228480,
          "time": 334.6875,
          "velocity": 0.8503937007874016
        },
        {
          "duration": 0.1875,
          "durationTicks": 128,
          "midi": 69,
          "name": "A4",
          "ticks": 228608,
          "time": 334.875,
          "velocity": 0.8503937007874016
        },
        {
          "duration": 0.1875,
          "durationTicks": 128,
          "midi": 71,
          "name": "B4",
          "ticks": 228736,
          "time": 335.0625,
          "velocity": 0.8031496062992126
        },
        {
          "duration": 0.1875,
          "durationTicks": 128,
          "midi": 72,
          "name": "C5",
          "ticks": 228864,
          "time": 335.25,
          "velocity": 0.8346456692913385
        },
        {
          "duration": 0.1875,
          "durationTicks": 128,
          "midi": 67,
          "name": "G4",
          "ticks": 228992,
          "time": 335.4375,
          "velocity": 0.6535433070866141
        },
        {
          "duration": 0.1875,
          "durationTicks": 128,
          "midi": 72,
          "name": "C5",
          "ticks": 229120,
          "time": 335.625,
          "velocity": 0.8582677165354331
        },
        {
          "duration": 0.1875,
          "durationTicks": 128,
          "midi": 74,
          "name": "D5",
          "ticks": 229248,
          "time": 335.8125,
          "velocity": 0.8188976377952756
        },
        {
          "duration": 0.1875,
          "durationTicks": 128,
          "midi": 76,
          "name": "E5",
          "ticks": 229376,
          "time": 336,
          "velocity": 0.8503937007874016
        },
        {
          "duration": 0.1875,
          "durationTicks": 128,
          "midi": 72,
          "name": "C5",
          "ticks": 229504,
          "time": 336.1875,
          "velocity": 0.7007874015748031
        },
        {
          "duration": 0.1875,
          "durationTicks": 128,
          "midi": 74,
          "name": "D5",
          "ticks": 229632,
          "time": 336.375,
          "velocity": 0.8267716535433071
        },
        {
          "duration": 0.1875,
          "durationTicks": 128,
          "midi": 76,
          "name": "E5",
          "ticks": 229760,
          "time": 336.5625,
          "velocity": 0.8110236220472441
        },
        {
          "duration": 0.1875,
          "durationTicks": 128,
          "midi": 77,
          "name": "F5",
          "ticks": 229888,
          "time": 336.75,
          "velocity": 0.8267716535433071
        },
        {
          "duration": 0.1875,
          "durationTicks": 128,
          "midi": 72,
          "name": "C5",
          "ticks": 230016,
          "time": 336.9375,
          "velocity": 0.6220472440944882
        },
        {
          "duration": 0.1875,
          "durationTicks": 128,
          "midi": 77,
          "name": "F5",
          "ticks": 230144,
          "time": 337.125,
          "velocity": 0.8582677165354331
        },
        {
          "duration": 0.1875,
          "durationTicks": 128,
          "midi": 79,
          "name": "G5",
          "ticks": 230272,
          "time": 337.3125,
          "velocity": 0.8346456692913385
        },
        {
          "duration": 0.375,
          "durationTicks": 256,
          "midi": 81,
          "name": "A5",
          "ticks": 230400,
          "time": 337.5,
          "velocity": 0.7952755905511811
        },
        {
          "duration": 0.375,
          "durationTicks": 256,
          "midi": 65,
          "name": "F4",
          "ticks": 230656,
          "time": 337.875,
          "velocity": 0.5511811023622047
        },
        {
          "duration": 0.1904296875,
          "durationTicks": 130,
          "midi": 79,
          "name": "G5",
          "ticks": 231168,
          "time": 338.625,
          "velocity": 0.7007874015748031
        },
        {
          "duration": 0.17724609375,
          "durationTicks": 121,
          "midi": 77,
          "name": "F5",
          "ticks": 231296,
          "time": 338.8125,
          "velocity": 0.6535433070866141
        },
        {
          "duration": 0.375,
          "durationTicks": 256,
          "midi": 77,
          "name": "F5",
          "ticks": 231424,
          "time": 339,
          "velocity": 0.7874015748031497
        },
        {
          "duration": 0.1904296875,
          "durationTicks": 130,
          "midi": 79,
          "name": "G5",
          "ticks": 231680,
          "time": 339.375,
          "velocity": 0.8031496062992126
        },
        {
          "duration": 0.17724609375,
          "durationTicks": 121,
          "midi": 77,
          "name": "F5",
          "ticks": 231808,
          "time": 339.5625,
          "velocity": 0.7244094488188977
        },
        {
          "duration": 0.375,
          "durationTicks": 256,
          "midi": 77,
          "name": "F5",
          "ticks": 231936,
          "time": 339.75,
          "velocity": 0.7874015748031497
        },
        {
          "duration": 0.1904296875,
          "durationTicks": 130,
          "midi": 79,
          "name": "G5",
          "ticks": 232192,
          "time": 340.125,
          "velocity": 0.7795275590551181
        },
        {
          "duration": 0.17724609375,
          "durationTicks": 121,
          "midi": 77,
          "name": "F5",
          "ticks": 232320,
          "time": 340.3125,
          "velocity": 0.7165354330708661
        },
        {
          "duration": 0.38232421875,
          "durationTicks": 261,
          "midi": 77,
          "name": "F5",
          "ticks": 232448,
          "time": 340.5,
          "velocity": 0.7559055118110236
        },
        {
          "duration": 0.35595703125,
          "durationTicks": 243,
          "midi": 86,
          "name": "D6",
          "ticks": 232704,
          "time": 340.875,
          "velocity": 0.9212598425196851
        },
        {
          "duration": 0.1904296875,
          "durationTicks": 130,
          "midi": 86,
          "name": "D6",
          "ticks": 233216,
          "time": 341.625,
          "velocity": 0.6850393700787402
        },
        {
          "duration": 0.17724609375,
          "durationTicks": 121,
          "midi": 84,
          "name": "C6",
          "ticks": 233344,
          "time": 341.8125,
          "velocity": 0.6299212598425197
        },
        {
          "duration": 0.375,
          "durationTicks": 256,
          "midi": 82,
          "name": "A#5",
          "ticks": 233472,
          "time": 342,
          "velocity": 0.7086614173228346
        },
        {
          "duration": 0.1904296875,
          "durationTicks": 130,
          "midi": 82,
          "name": "A#5",
          "ticks": 233728,
          "time": 342.375,
          "velocity": 0.7952755905511811
        },
        {
          "duration": 0.17724609375,
          "durationTicks": 121,
          "midi": 81,
          "name": "A5",
          "ticks": 233856,
          "time": 342.5625,
          "velocity": 0.7559055118110236
        },
        {
          "duration": 0.375,
          "durationTicks": 256,
          "midi": 79,
          "name": "G5",
          "ticks": 233984,
          "time": 342.75,
          "velocity": 0.6929133858267716
        },
        {
          "duration": 0.1904296875,
          "durationTicks": 130,
          "midi": 79,
          "name": "G5",
          "ticks": 234240,
          "time": 343.125,
          "velocity": 0.7244094488188977
        },
        {
          "duration": 0.17724609375,
          "durationTicks": 121,
          "midi": 77,
          "name": "F5",
          "ticks": 234368,
          "time": 343.3125,
          "velocity": 0.7086614173228346
        },
        {
          "duration": 0.38232421875,
          "durationTicks": 261,
          "midi": 75,
          "name": "D#5",
          "ticks": 234496,
          "time": 343.5,
          "velocity": 0.7559055118110236
        },
        {
          "duration": 0.35595703125,
          "durationTicks": 243,
          "midi": 84,
          "name": "C6",
          "ticks": 234752,
          "time": 343.875,
          "velocity": 0.937007874015748
        },
        {
          "duration": 0.1904296875,
          "durationTicks": 130,
          "midi": 84,
          "name": "C6",
          "ticks": 235264,
          "time": 344.625,
          "velocity": 0.7086614173228346
        },
        {
          "duration": 0.17724609375,
          "durationTicks": 121,
          "midi": 82,
          "name": "A#5",
          "ticks": 235392,
          "time": 344.8125,
          "velocity": 0.6850393700787402
        },
        {
          "duration": 0.375,
          "durationTicks": 256,
          "midi": 81,
          "name": "A5",
          "ticks": 235520,
          "time": 345,
          "velocity": 0.7086614173228346
        },
        {
          "duration": 0.1904296875,
          "durationTicks": 130,
          "midi": 81,
          "name": "A5",
          "ticks": 235776,
          "time": 345.375,
          "velocity": 0.7795275590551181
        },
        {
          "duration": 0.17724609375,
          "durationTicks": 121,
          "midi": 79,
          "name": "G5",
          "ticks": 235904,
          "time": 345.5625,
          "velocity": 0.7007874015748031
        },
        {
          "duration": 0.375,
          "durationTicks": 256,
          "midi": 78,
          "name": "F#5",
          "ticks": 236032,
          "time": 345.75,
          "velocity": 0.7086614173228346
        },
        {
          "duration": 0.1904296875,
          "durationTicks": 130,
          "midi": 78,
          "name": "F#5",
          "ticks": 236288,
          "time": 346.125,
          "velocity": 0.8031496062992126
        },
        {
          "duration": 0.17724609375,
          "durationTicks": 121,
          "midi": 76,
          "name": "E5",
          "ticks": 236416,
          "time": 346.3125,
          "velocity": 0.7244094488188977
        },
        {
          "duration": 0.38232421875,
          "durationTicks": 261,
          "midi": 74,
          "name": "D5",
          "ticks": 236544,
          "time": 346.5,
          "velocity": 0.7165354330708661
        },
        {
          "duration": 0.35595703125,
          "durationTicks": 243,
          "midi": 82,
          "name": "A#5",
          "ticks": 236800,
          "time": 346.875,
          "velocity": 0.889763779527559
        },
        {
          "duration": 0.1904296875,
          "durationTicks": 130,
          "midi": 82,
          "name": "A#5",
          "ticks": 237312,
          "time": 347.625,
          "velocity": 0.6692913385826772
        },
        {
          "duration": 0.17724609375,
          "durationTicks": 121,
          "midi": 81,
          "name": "A5",
          "ticks": 237440,
          "time": 347.8125,
          "velocity": 0.6141732283464567
        },
        {
          "duration": 0.375,
          "durationTicks": 256,
          "midi": 79,
          "name": "G5",
          "ticks": 237568,
          "time": 348,
          "velocity": 0.7086614173228346
        },
        {
          "duration": 0.1904296875,
          "durationTicks": 130,
          "midi": 79,
          "name": "G5",
          "ticks": 237824,
          "time": 348.375,
          "velocity": 0.7401574803149606
        },
        {
          "duration": 0.17724609375,
          "durationTicks": 121,
          "midi": 77,
          "name": "F5",
          "ticks": 237952,
          "time": 348.5625,
          "velocity": 0.6850393700787402
        },
        {
          "duration": 0.375,
          "durationTicks": 256,
          "midi": 76,
          "name": "E5",
          "ticks": 238080,
          "time": 348.75,
          "velocity": 0.7401574803149606
        },
        {
          "duration": 0.1904296875,
          "durationTicks": 130,
          "midi": 76,
          "name": "E5",
          "ticks": 238336,
          "time": 349.125,
          "velocity": 0.7952755905511811
        },
        {
          "duration": 0.17724609375,
          "durationTicks": 121,
          "midi": 74,
          "name": "D5",
          "ticks": 238464,
          "time": 349.3125,
          "velocity": 0.7795275590551181
        },
        {
          "duration": 0.38232421875,
          "durationTicks": 261,
          "midi": 73,
          "name": "C#5",
          "ticks": 238592,
          "time": 349.5,
          "velocity": 0.7086614173228346
        },
        {
          "duration": 0.35595703125,
          "durationTicks": 243,
          "midi": 81,
          "name": "A5",
          "ticks": 238848,
          "time": 349.875,
          "velocity": 0.8188976377952756
        },
        {
          "duration": 0.1904296875,
          "durationTicks": 130,
          "midi": 82,
          "name": "A#5",
          "ticks": 239360,
          "time": 350.625,
          "velocity": 0.6692913385826772
        },
        {
          "duration": 0.17724609375,
          "durationTicks": 121,
          "midi": 81,
          "name": "A5",
          "ticks": 239488,
          "time": 350.8125,
          "velocity": 0.6220472440944882
        },
        {
          "duration": 0.375,
          "durationTicks": 256,
          "midi": 81,
          "name": "A5",
          "ticks": 239616,
          "time": 351,
          "velocity": 0.7322834645669292
        },
        {
          "duration": 0.1904296875,
          "durationTicks": 130,
          "midi": 82,
          "name": "A#5",
          "ticks": 239872,
          "time": 351.375,
          "velocity": 0.8110236220472441
        },
        {
          "duration": 0.17724609375,
          "durationTicks": 121,
          "midi": 81,
          "name": "A5",
          "ticks": 240000,
          "time": 351.5625,
          "velocity": 0.7716535433070866
        },
        {
          "duration": 0.375,
          "durationTicks": 256,
          "midi": 81,
          "name": "A5",
          "ticks": 240128,
          "time": 351.75,
          "velocity": 0.7795275590551181
        },
        {
          "duration": 0.1904296875,
          "durationTicks": 130,
          "midi": 82,
          "name": "A#5",
          "ticks": 240384,
          "time": 352.125,
          "velocity": 0.8110236220472441
        },
        {
          "duration": 0.17724609375,
          "durationTicks": 121,
          "midi": 81,
          "name": "A5",
          "ticks": 240512,
          "time": 352.3125,
          "velocity": 0.7637795275590551
        },
        {
          "duration": 0.1875,
          "durationTicks": 128,
          "midi": 81,
          "name": "A5",
          "ticks": 240640,
          "time": 352.5,
          "velocity": 0.7480314960629921
        },
        {
          "duration": 0.1875,
          "durationTicks": 128,
          "midi": 81,
          "name": "A5",
          "ticks": 240896,
          "time": 352.875,
          "velocity": 0.7795275590551181
        },
        {
          "duration": 0.1904296875,
          "durationTicks": 130,
          "midi": 82,
          "name": "A#5",
          "ticks": 241408,
          "time": 353.625,
          "velocity": 0.7086614173228346
        },
        {
          "duration": 0.17724609375,
          "durationTicks": 121,
          "midi": 81,
          "name": "A5",
          "ticks": 241536,
          "time": 353.8125,
          "velocity": 0.6614173228346457
        },
        {
          "duration": 0.375,
          "durationTicks": 256,
          "midi": 81,
          "name": "A5",
          "ticks": 241664,
          "time": 354,
          "velocity": 0.7165354330708661
        },
        {
          "duration": 0.1904296875,
          "durationTicks": 130,
          "midi": 82,
          "name": "A#5",
          "ticks": 241920,
          "time": 354.375,
          "velocity": 0.8110236220472441
        },
        {
          "duration": 0.17724609375,
          "durationTicks": 121,
          "midi": 81,
          "name": "A5",
          "ticks": 242048,
          "time": 354.5625,
          "velocity": 0.7480314960629921
        },
        {
          "duration": 0.375,
          "durationTicks": 256,
          "midi": 81,
          "name": "A5",
          "ticks": 242176,
          "time": 354.75,
          "velocity": 0.7716535433070866
        },
        {
          "duration": 0.1904296875,
          "durationTicks": 130,
          "midi": 82,
          "name": "A#5",
          "ticks": 242432,
          "time": 355.125,
          "velocity": 0.7795275590551181
        },
        {
          "duration": 0.17724609375,
          "durationTicks": 121,
          "midi": 81,
          "name": "A5",
          "ticks": 242560,
          "time": 355.3125,
          "velocity": 0.7086614173228346
        },
        {
          "duration": 0.1875,
          "durationTicks": 128,
          "midi": 81,
          "name": "A5",
          "ticks": 242688,
          "time": 355.5,
          "velocity": 0.8031496062992126
        },
        {
          "duration": 0.1875,
          "durationTicks": 128,
          "midi": 81,
          "name": "A5",
          "ticks": 242944,
          "time": 355.875,
          "velocity": 0.7637795275590551
        },
        {
          "duration": 0.1904296875,
          "durationTicks": 130,
          "midi": 82,
          "name": "A#5",
          "ticks": 243456,
          "time": 356.625,
          "velocity": 0.4330708661417323
        },
        {
          "duration": 0.17724609375,
          "durationTicks": 121,
          "midi": 81,
          "name": "A5",
          "ticks": 243584,
          "time": 356.8125,
          "velocity": 0.44881889763779526
        },
        {
          "duration": 0.1875,
          "durationTicks": 128,
          "midi": 81,
          "name": "A5",
          "ticks": 243712,
          "time": 357,
          "velocity": 0.48031496062992124
        },
        {
          "duration": 0.1904296875,
          "durationTicks": 130,
          "midi": 82,
          "name": "A#5",
          "ticks": 243968,
          "time": 357.375,
          "velocity": 0.5275590551181102
        },
        {
          "duration": 0.17724609375,
          "durationTicks": 121,
          "midi": 81,
          "name": "A5",
          "ticks": 244096,
          "time": 357.5625,
          "velocity": 0.49606299212598426
        },
        {
          "duration": 0.1875,
          "durationTicks": 128,
          "midi": 81,
          "name": "A5",
          "ticks": 244224,
          "time": 357.75,
          "velocity": 0.4566929133858268
        },
        {
          "duration": 0.1904296875,
          "durationTicks": 130,
          "midi": 82,
          "name": "A#5",
          "ticks": 244480,
          "time": 358.125,
          "velocity": 0.5039370078740157
        },
        {
          "duration": 0.17724609375,
          "durationTicks": 121,
          "midi": 81,
          "name": "A5",
          "ticks": 244608,
          "time": 358.3125,
          "velocity": 0.4881889763779528
        },
        {
          "duration": 0.1875,
          "durationTicks": 128,
          "midi": 81,
          "name": "A5",
          "ticks": 244736,
          "time": 358.5,
          "velocity": 0.4881889763779528
        },
        {
          "duration": 0.1875,
          "durationTicks": 128,
          "midi": 81,
          "name": "A5",
          "ticks": 244992,
          "time": 358.875,
          "velocity": 0.4645669291338583
        },
        {
          "duration": 0.1904296875,
          "durationTicks": 130,
          "midi": 84,
          "name": "C6",
          "ticks": 245504,
          "time": 359.625,
          "velocity": 0.47244094488188976
        },
        {
          "duration": 0.17724609375,
          "durationTicks": 121,
          "midi": 82,
          "name": "A#5",
          "ticks": 245632,
          "time": 359.8125,
          "velocity": 0.4409448818897638
        },
        {
          "duration": 0.1875,
          "durationTicks": 128,
          "midi": 82,
          "name": "A#5",
          "ticks": 245760,
          "time": 360,
          "velocity": 0.4409448818897638
        },
        {
          "duration": 0.1904296875,
          "durationTicks": 130,
          "midi": 84,
          "name": "C6",
          "ticks": 246016,
          "time": 360.375,
          "velocity": 0.5118110236220472
        },
        {
          "duration": 0.17724609375,
          "durationTicks": 121,
          "midi": 82,
          "name": "A#5",
          "ticks": 246144,
          "time": 360.5625,
          "velocity": 0.5118110236220472
        },
        {
          "duration": 0.1875,
          "durationTicks": 128,
          "midi": 82,
          "name": "A#5",
          "ticks": 246272,
          "time": 360.75,
          "velocity": 0.4881889763779528
        },
        {
          "duration": 0.1904296875,
          "durationTicks": 130,
          "midi": 84,
          "name": "C6",
          "ticks": 246528,
          "time": 361.125,
          "velocity": 0.5039370078740157
        },
        {
          "duration": 0.17724609375,
          "durationTicks": 121,
          "midi": 82,
          "name": "A#5",
          "ticks": 246656,
          "time": 361.3125,
          "velocity": 0.49606299212598426
        },
        {
          "duration": 0.1875,
          "durationTicks": 128,
          "midi": 82,
          "name": "A#5",
          "ticks": 246784,
          "time": 361.5,
          "velocity": 0.4566929133858268
        },
        {
          "duration": 0.1875,
          "durationTicks": 128,
          "midi": 82,
          "name": "A#5",
          "ticks": 247040,
          "time": 361.875,
          "velocity": 0.44881889763779526
        },
        {
          "duration": 0.1904296875,
          "durationTicks": 130,
          "midi": 84,
          "name": "C6",
          "ticks": 247552,
          "time": 362.625,
          "velocity": 0.4251968503937008
        },
        {
          "duration": 0.17724609375,
          "durationTicks": 121,
          "midi": 83,
          "name": "B5",
          "ticks": 247680,
          "time": 362.8125,
          "velocity": 0.3937007874015748
        },
        {
          "duration": 0.1875,
          "durationTicks": 128,
          "midi": 83,
          "name": "B5",
          "ticks": 247808,
          "time": 363,
          "velocity": 0.47244094488188976
        },
        {
          "duration": 0.1904296875,
          "durationTicks": 130,
          "midi": 84,
          "name": "C6",
          "ticks": 248064,
          "time": 363.375,
          "velocity": 0.4881889763779528
        },
        {
          "duration": 0.17724609375,
          "durationTicks": 121,
          "midi": 83,
          "name": "B5",
          "ticks": 248192,
          "time": 363.5625,
          "velocity": 0.4566929133858268
        },
        {
          "duration": 0.1875,
          "durationTicks": 128,
          "midi": 83,
          "name": "B5",
          "ticks": 248320,
          "time": 363.75,
          "velocity": 0.5039370078740157
        },
        {
          "duration": 0.1904296875,
          "durationTicks": 130,
          "midi": 84,
          "name": "C6",
          "ticks": 248576,
          "time": 364.125,
          "velocity": 0.5354330708661418
        },
        {
          "duration": 0.17724609375,
          "durationTicks": 121,
          "midi": 83,
          "name": "B5",
          "ticks": 248704,
          "time": 364.3125,
          "velocity": 0.48031496062992124
        },
        {
          "duration": 0.1875,
          "durationTicks": 128,
          "midi": 83,
          "name": "B5",
          "ticks": 248832,
          "time": 364.5,
          "velocity": 0.48031496062992124
        },
        {
          "duration": 0.1875,
          "durationTicks": 128,
          "midi": 83,
          "name": "B5",
          "ticks": 249088,
          "time": 364.875,
          "velocity": 0.48031496062992124
        },
        {
          "duration": 0.1904296875,
          "durationTicks": 130,
          "midi": 86,
          "name": "D6",
          "ticks": 249600,
          "time": 365.625,
          "velocity": 0.4566929133858268
        },
        {
          "duration": 0.17724609375,
          "durationTicks": 121,
          "midi": 84,
          "name": "C6",
          "ticks": 249728,
          "time": 365.8125,
          "velocity": 0.41732283464566927
        },
        {
          "duration": 0.1875,
          "durationTicks": 128,
          "midi": 84,
          "name": "C6",
          "ticks": 249856,
          "time": 366,
          "velocity": 0.47244094488188976
        },
        {
          "duration": 0.1904296875,
          "durationTicks": 130,
          "midi": 86,
          "name": "D6",
          "ticks": 250112,
          "time": 366.375,
          "velocity": 0.4881889763779528
        },
        {
          "duration": 0.17724609375,
          "durationTicks": 121,
          "midi": 84,
          "name": "C6",
          "ticks": 250240,
          "time": 366.5625,
          "velocity": 0.4881889763779528
        },
        {
          "duration": 0.1875,
          "durationTicks": 128,
          "midi": 84,
          "name": "C6",
          "ticks": 250368,
          "time": 366.75,
          "velocity": 0.48031496062992124
        },
        {
          "duration": 0.1904296875,
          "durationTicks": 130,
          "midi": 86,
          "name": "D6",
          "ticks": 250624,
          "time": 367.125,
          "velocity": 0.5196850393700787
        },
        {
          "duration": 0.17724609375,
          "durationTicks": 121,
          "midi": 84,
          "name": "C6",
          "ticks": 250752,
          "time": 367.3125,
          "velocity": 0.47244094488188976
        },
        {
          "duration": 0.1875,
          "durationTicks": 128,
          "midi": 84,
          "name": "C6",
          "ticks": 250880,
          "time": 367.5,
          "velocity": 0.4645669291338583
        },
        {
          "duration": 0.1875,
          "durationTicks": 128,
          "midi": 84,
          "name": "C6",
          "ticks": 251136,
          "time": 367.875,
          "velocity": 0.4881889763779528
        },
        {
          "duration": 0.1904296875,
          "durationTicks": 130,
          "midi": 82,
          "name": "A#5",
          "ticks": 251648,
          "time": 368.625,
          "velocity": 0.4094488188976378
        },
        {
          "duration": 0.17724609375,
          "durationTicks": 121,
          "midi": 81,
          "name": "A5",
          "ticks": 251776,
          "time": 368.8125,
          "velocity": 0.36220472440944884
        },
        {
          "duration": 0.375,
          "durationTicks": 256,
          "midi": 81,
          "name": "A5",
          "ticks": 251904,
          "time": 369,
          "velocity": 0.4881889763779528
        },
        {
          "duration": 0.1904296875,
          "durationTicks": 130,
          "midi": 82,
          "name": "A#5",
          "ticks": 252160,
          "time": 369.375,
          "velocity": 0.5039370078740157
        },
        {
          "duration": 0.17724609375,
          "durationTicks": 121,
          "midi": 81,
          "name": "A5",
          "ticks": 252288,
          "time": 369.5625,
          "velocity": 0.4881889763779528
        },
        {
          "duration": 0.375,
          "durationTicks": 256,
          "midi": 81,
          "name": "A5",
          "ticks": 252416,
          "time": 369.75,
          "velocity": 0.49606299212598426
        },
        {
          "duration": 0.1904296875,
          "durationTicks": 130,
          "midi": 82,
          "name": "A#5",
          "ticks": 252672,
          "time": 370.125,
          "velocity": 0.49606299212598426
        },
        {
          "duration": 0.17724609375,
          "durationTicks": 121,
          "midi": 81,
          "name": "A5",
          "ticks": 252800,
          "time": 370.3125,
          "velocity": 0.4881889763779528
        },
        {
          "duration": 0.375,
          "durationTicks": 256,
          "midi": 81,
          "name": "A5",
          "ticks": 252928,
          "time": 370.5,
          "velocity": 0.47244094488188976
        },
        {
          "duration": 0.1904296875,
          "durationTicks": 130,
          "midi": 79,
          "name": "G5",
          "ticks": 253696,
          "time": 371.625,
          "velocity": 0.4015748031496063
        },
        {
          "duration": 0.17724609375,
          "durationTicks": 121,
          "midi": 78,
          "name": "F#5",
          "ticks": 253824,
          "time": 371.8125,
          "velocity": 0.3700787401574803
        },
        {
          "duration": 0.375,
          "durationTicks": 256,
          "midi": 78,
          "name": "F#5",
          "ticks": 253952,
          "time": 372,
          "velocity": 0.47244094488188976
        },
        {
          "duration": 0.1904296875,
          "durationTicks": 130,
          "midi": 79,
          "name": "G5",
          "ticks": 254208,
          "time": 372.375,
          "velocity": 0.48031496062992124
        },
        {
          "duration": 0.17724609375,
          "durationTicks": 121,
          "midi": 78,
          "name": "F#5",
          "ticks": 254336,
          "time": 372.5625,
          "velocity": 0.4566929133858268
        },
        {
          "duration": 0.375,
          "durationTicks": 256,
          "midi": 78,
          "name": "F#5",
          "ticks": 254464,
          "time": 372.75,
          "velocity": 0.4645669291338583
        },
        {
          "duration": 0.1904296875,
          "durationTicks": 130,
          "midi": 79,
          "name": "G5",
          "ticks": 254720,
          "time": 373.125,
          "velocity": 0.48031496062992124
        },
        {
          "duration": 0.17724609375,
          "durationTicks": 121,
          "midi": 78,
          "name": "F#5",
          "ticks": 254848,
          "time": 373.3125,
          "velocity": 0.4409448818897638
        },
        {
          "duration": 0.375,
          "durationTicks": 256,
          "midi": 78,
          "name": "F#5",
          "ticks": 254976,
          "time": 373.5,
          "velocity": 0.5039370078740157
        },
        {
          "duration": 0.1904296875,
          "durationTicks": 130,
          "midi": 75,
          "name": "D#5",
          "ticks": 255744,
          "time": 374.625,
          "velocity": 0.4409448818897638
        },
        {
          "duration": 0.17724609375,
          "durationTicks": 121,
          "midi": 74,
          "name": "D5",
          "ticks": 255872,
          "time": 374.8125,
          "velocity": 0.4251968503937008
        },
        {
          "duration": 0.375,
          "durationTicks": 256,
          "midi": 74,
          "name": "D5",
          "ticks": 256000,
          "time": 375,
          "velocity": 0.44881889763779526
        },
        {
          "duration": 0.1904296875,
          "durationTicks": 130,
          "midi": 75,
          "name": "D#5",
          "ticks": 256256,
          "time": 375.375,
          "velocity": 0.5039370078740157
        },
        {
          "duration": 0.17724609375,
          "durationTicks": 121,
          "midi": 74,
          "name": "D5",
          "ticks": 256384,
          "time": 375.5625,
          "velocity": 0.47244094488188976
        },
        {
          "duration": 0.375,
          "durationTicks": 256,
          "midi": 74,
          "name": "D5",
          "ticks": 256512,
          "time": 375.75,
          "velocity": 0.4645669291338583
        },
        {
          "duration": 0.1904296875,
          "durationTicks": 130,
          "midi": 75,
          "name": "D#5",
          "ticks": 256768,
          "time": 376.125,
          "velocity": 0.5118110236220472
        },
        {
          "duration": 0.17724609375,
          "durationTicks": 121,
          "midi": 74,
          "name": "D5",
          "ticks": 256896,
          "time": 376.3125,
          "velocity": 0.47244094488188976
        },
        {
          "duration": 0.375,
          "durationTicks": 256,
          "midi": 74,
          "name": "D5",
          "ticks": 257024,
          "time": 376.5,
          "velocity": 0.48031496062992124
        },
        {
          "duration": 0.1904296875,
          "durationTicks": 130,
          "midi": 86,
          "name": "D6",
          "ticks": 257792,
          "time": 377.625,
          "velocity": 0.6850393700787402
        },
        {
          "duration": 0.17724609375,
          "durationTicks": 121,
          "midi": 87,
          "name": "D#6",
          "ticks": 257920,
          "time": 377.8125,
          "velocity": 0.7007874015748031
        },
        {
          "duration": 0.375,
          "durationTicks": 256,
          "midi": 87,
          "name": "D#6",
          "ticks": 258048,
          "time": 378,
          "velocity": 0.7874015748031497
        },
        {
          "duration": 0.1875,
          "durationTicks": 128,
          "midi": 87,
          "name": "D#6",
          "ticks": 258816,
          "time": 379.125,
          "velocity": 0.6771653543307087
        },
        {
          "duration": 0.1875,
          "durationTicks": 128,
          "midi": 86,
          "name": "D6",
          "ticks": 258944,
          "time": 379.3125,
          "velocity": 0.7559055118110236
        },
        {
          "duration": 0.375,
          "durationTicks": 256,
          "midi": 86,
          "name": "D6",
          "ticks": 259072,
          "time": 379.5,
          "velocity": 0.7401574803149606
        },
        {
          "duration": 0.1904296875,
          "durationTicks": 130,
          "midi": 86,
          "name": "D6",
          "ticks": 259840,
          "time": 380.625,
          "velocity": 0.6771653543307087
        },
        {
          "duration": 0.17724609375,
          "durationTicks": 121,
          "midi": 85,
          "name": "C#6",
          "ticks": 259968,
          "time": 380.8125,
          "velocity": 0.5905511811023622
        },
        {
          "duration": 0.375,
          "durationTicks": 256,
          "midi": 85,
          "name": "C#6",
          "ticks": 260096,
          "time": 381,
          "velocity": 0.7637795275590551
        },
        {
          "duration": 0.1904296875,
          "durationTicks": 130,
          "midi": 85,
          "name": "C#6",
          "ticks": 260864,
          "time": 382.125,
          "velocity": 0.6692913385826772
        },
        {
          "duration": 0.17724609375,
          "durationTicks": 121,
          "midi": 86,
          "name": "D6",
          "ticks": 260992,
          "time": 382.3125,
          "velocity": 0.6692913385826772
        },
        {
          "duration": 0.375,
          "durationTicks": 256,
          "midi": 86,
          "name": "D6",
          "ticks": 261120,
          "time": 382.5,
          "velocity": 0.7795275590551181
        },
        {
          "duration": 0.1904296875,
          "durationTicks": 130,
          "midi": 83,
          "name": "B5",
          "ticks": 261888,
          "time": 383.625,
          "velocity": 0.6771653543307087
        },
        {
          "duration": 0.17724609375,
          "durationTicks": 121,
          "midi": 84,
          "name": "C6",
          "ticks": 262016,
          "time": 383.8125,
          "velocity": 0.6692913385826772
        },
        {
          "duration": 0.375,
          "durationTicks": 256,
          "midi": 84,
          "name": "C6",
          "ticks": 262144,
          "time": 384,
          "velocity": 0.7637795275590551
        },
        {
          "duration": 0.1904296875,
          "durationTicks": 130,
          "midi": 81,
          "name": "A5",
          "ticks": 262912,
          "time": 385.125,
          "velocity": 0.6535433070866141
        },
        {
          "duration": 0.17724609375,
          "durationTicks": 121,
          "midi": 82,
          "name": "A#5",
          "ticks": 263040,
          "time": 385.3125,
          "velocity": 0.6850393700787402
        },
        {
          "duration": 0.375,
          "durationTicks": 256,
          "midi": 82,
          "name": "A#5",
          "ticks": 263168,
          "time": 385.5,
          "velocity": 0.7480314960629921
        },
        {
          "duration": 0.1904296875,
          "durationTicks": 130,
          "midi": 80,
          "name": "G#5",
          "ticks": 263936,
          "time": 386.625,
          "velocity": 0.6614173228346457
        },
        {
          "duration": 0.17724609375,
          "durationTicks": 121,
          "midi": 81,
          "name": "A5",
          "ticks": 264064,
          "time": 386.8125,
          "velocity": 0.6771653543307087
        },
        {
          "duration": 0.375,
          "durationTicks": 256,
          "midi": 81,
          "name": "A5",
          "ticks": 264192,
          "time": 387,
          "velocity": 0.7637795275590551
        },
        {
          "duration": 0.1904296875,
          "durationTicks": 130,
          "midi": 78,
          "name": "F#5",
          "ticks": 264448,
          "time": 387.375,
          "velocity": 0.7086614173228346
        },
        {
          "duration": 0.17724609375,
          "durationTicks": 121,
          "midi": 79,
          "name": "G5",
          "ticks": 264576,
          "time": 387.5625,
          "velocity": 0.7637795275590551
        },
        {
          "duration": 0.375,
          "durationTicks": 256,
          "midi": 79,
          "name": "G5",
          "ticks": 264704,
          "time": 387.75,
          "velocity": 0.7637795275590551
        },
        {
          "duration": 0.1904296875,
          "durationTicks": 130,
          "midi": 73,
          "name": "C#5",
          "ticks": 264960,
          "time": 388.125,
          "velocity": 0.6692913385826772
        },
        {
          "duration": 0.17724609375,
          "durationTicks": 121,
          "midi": 74,
          "name": "D5",
          "ticks": 265088,
          "time": 388.3125,
          "velocity": 0.6850393700787402
        },
        {
          "duration": 0.375,
          "durationTicks": 256,
          "midi": 74,
          "name": "D5",
          "ticks": 265216,
          "time": 388.5,
          "velocity": 0.7795275590551181
        },
        {
          "duration": 0.1904296875,
          "durationTicks": 130,
          "midi": 75,
          "name": "D#5",
          "ticks": 270080,
          "time": 395.625,
          "velocity": 0.4330708661417323
        },
        {
          "duration": 0.17724609375,
          "durationTicks": 121,
          "midi": 74,
          "name": "D5",
          "ticks": 270208,
          "time": 395.8125,
          "velocity": 0.4094488188976378
        },
        {
          "duration": 0.375,
          "durationTicks": 256,
          "midi": 74,
          "name": "D5",
          "ticks": 270336,
          "time": 396,
          "velocity": 0.5275590551181102
        },
        {
          "duration": 0.1904296875,
          "durationTicks": 130,
          "midi": 75,
          "name": "D#5",
          "ticks": 270592,
          "time": 396.375,
          "velocity": 0.49606299212598426
        },
        {
          "duration": 0.17724609375,
          "durationTicks": 121,
          "midi": 74,
          "name": "D5",
          "ticks": 270720,
          "time": 396.5625,
          "velocity": 0.49606299212598426
        },
        {
          "duration": 0.375,
          "durationTicks": 256,
          "midi": 74,
          "name": "D5",
          "ticks": 270848,
          "time": 396.75,
          "velocity": 0.49606299212598426
        },
        {
          "duration": 0.1904296875,
          "durationTicks": 130,
          "midi": 75,
          "name": "D#5",
          "ticks": 271104,
          "time": 397.125,
          "velocity": 0.49606299212598426
        },
        {
          "duration": 0.17724609375,
          "durationTicks": 121,
          "midi": 74,
          "name": "D5",
          "ticks": 271232,
          "time": 397.3125,
          "velocity": 0.4566929133858268
        },
        {
          "duration": 0.38232421875,
          "durationTicks": 261,
          "midi": 74,
          "name": "D5",
          "ticks": 271360,
          "time": 397.5,
          "velocity": 0.47244094488188976
        },
        {
          "duration": 0.35595703125,
          "durationTicks": 243,
          "midi": 82,
          "name": "A#5",
          "ticks": 271616,
          "time": 397.875,
          "velocity": 0.5826771653543307
        },
        {
          "duration": 0.1904296875,
          "durationTicks": 130,
          "midi": 82,
          "name": "A#5",
          "ticks": 272128,
          "time": 398.625,
          "velocity": 0.4566929133858268
        },
        {
          "duration": 0.17724609375,
          "durationTicks": 121,
          "midi": 81,
          "name": "A5",
          "ticks": 272256,
          "time": 398.8125,
          "velocity": 0.4094488188976378
        },
        {
          "duration": 0.375,
          "durationTicks": 256,
          "midi": 79,
          "name": "G5",
          "ticks": 272384,
          "time": 399,
          "velocity": 0.4409448818897638
        },
        {
          "duration": 0.1904296875,
          "durationTicks": 130,
          "midi": 79,
          "name": "G5",
          "ticks": 272640,
          "time": 399.375,
          "velocity": 0.48031496062992124
        },
        {
          "duration": 0.17724609375,
          "durationTicks": 121,
          "midi": 77,
          "name": "F5",
          "ticks": 272768,
          "time": 399.5625,
          "velocity": 0.4409448818897638
        },
        {
          "duration": 0.375,
          "durationTicks": 256,
          "midi": 75,
          "name": "D#5",
          "ticks": 272896,
          "time": 399.75,
          "velocity": 0.41732283464566927
        },
        {
          "duration": 0.1904296875,
          "durationTicks": 130,
          "midi": 75,
          "name": "D#5",
          "ticks": 273152,
          "time": 400.125,
          "velocity": 0.49606299212598426
        },
        {
          "duration": 0.17724609375,
          "durationTicks": 121,
          "midi": 74,
          "name": "D5",
          "ticks": 273280,
          "time": 400.3125,
          "velocity": 0.47244094488188976
        },
        {
          "duration": 0.375,
          "durationTicks": 256,
          "midi": 72,
          "name": "C5",
          "ticks": 273408,
          "time": 400.5,
          "velocity": 0.47244094488188976
        },
        {
          "duration": 0.375,
          "durationTicks": 256,
          "midi": 72,
          "name": "C5",
          "ticks": 273664,
          "time": 400.875,
          "velocity": 0.48031496062992124
        },
        {
          "duration": 0.1904296875,
          "durationTicks": 130,
          "midi": 74,
          "name": "D5",
          "ticks": 274176,
          "time": 401.625,
          "velocity": 0.4409448818897638
        },
        {
          "duration": 0.17724609375,
          "durationTicks": 121,
          "midi": 72,
          "name": "C5",
          "ticks": 274304,
          "time": 401.8125,
          "velocity": 0.41732283464566927
        },
        {
          "duration": 0.375,
          "durationTicks": 256,
          "midi": 72,
          "name": "C5",
          "ticks": 274432,
          "time": 402,
          "velocity": 0.5196850393700787
        },
        {
          "duration": 0.1904296875,
          "durationTicks": 130,
          "midi": 74,
          "name": "D5",
          "ticks": 274688,
          "time": 402.375,
          "velocity": 0.49606299212598426
        },
        {
          "duration": 0.17724609375,
          "durationTicks": 121,
          "midi": 72,
          "name": "C5",
          "ticks": 274816,
          "time": 402.5625,
          "velocity": 0.4645669291338583
        },
        {
          "duration": 0.375,
          "durationTicks": 256,
          "midi": 72,
          "name": "C5",
          "ticks": 274944,
          "time": 402.75,
          "velocity": 0.4881889763779528
        },
        {
          "duration": 0.1904296875,
          "durationTicks": 130,
          "midi": 74,
          "name": "D5",
          "ticks": 275200,
          "time": 403.125,
          "velocity": 0.5275590551181102
        },
        {
          "duration": 0.17724609375,
          "durationTicks": 121,
          "midi": 72,
          "name": "C5",
          "ticks": 275328,
          "time": 403.3125,
          "velocity": 0.5039370078740157
        },
        {
          "duration": 0.38232421875,
          "durationTicks": 261,
          "midi": 72,
          "name": "C5",
          "ticks": 275456,
          "time": 403.5,
          "velocity": 0.4566929133858268
        },
        {
          "duration": 0.35595703125,
          "durationTicks": 243,
          "midi": 81,
          "name": "A5",
          "ticks": 275712,
          "time": 403.875,
          "velocity": 0.5511811023622047
        },
        {
          "duration": 0.1904296875,
          "durationTicks": 130,
          "midi": 81,
          "name": "A5",
          "ticks": 276224,
          "time": 404.625,
          "velocity": 0.4251968503937008
        },
        {
          "duration": 0.17724609375,
          "durationTicks": 121,
          "midi": 79,
          "name": "G5",
          "ticks": 276352,
          "time": 404.8125,
          "velocity": 0.36220472440944884
        },
        {
          "duration": 0.375,
          "durationTicks": 256,
          "midi": 78,
          "name": "F#5",
          "ticks": 276480,
          "time": 405,
          "velocity": 0.44881889763779526
        },
        {
          "duration": 0.1904296875,
          "durationTicks": 130,
          "midi": 78,
          "name": "F#5",
          "ticks": 276736,
          "time": 405.375,
          "velocity": 0.4881889763779528
        },
        {
          "duration": 0.17724609375,
          "durationTicks": 121,
          "midi": 75,
          "name": "D#5",
          "ticks": 276864,
          "time": 405.5625,
          "velocity": 0.4409448818897638
        },
        {
          "duration": 0.375,
          "durationTicks": 256,
          "midi": 74,
          "name": "D5",
          "ticks": 276992,
          "time": 405.75,
          "velocity": 0.4645669291338583
        },
        {
          "duration": 0.1904296875,
          "durationTicks": 130,
          "midi": 74,
          "name": "D5",
          "ticks": 277248,
          "time": 406.125,
          "velocity": 0.4881889763779528
        },
        {
          "duration": 0.17724609375,
          "durationTicks": 121,
          "midi": 72,
          "name": "C5",
          "ticks": 277376,
          "time": 406.3125,
          "velocity": 0.4409448818897638
        },
        {
          "duration": 0.375,
          "durationTicks": 256,
          "midi": 70,
          "name": "A#4",
          "ticks": 277504,
          "time": 406.5,
          "velocity": 0.4330708661417323
        },
        {
          "duration": 0.375,
          "durationTicks": 256,
          "midi": 70,
          "name": "A#4",
          "ticks": 277760,
          "time": 406.875,
          "velocity": 0.5196850393700787
        },
        {
          "duration": 0.1904296875,
          "durationTicks": 130,
          "midi": 82,
          "name": "A#5",
          "ticks": 278272,
          "time": 407.625,
          "velocity": 0.4094488188976378
        },
        {
          "duration": 0.17724609375,
          "durationTicks": 121,
          "midi": 81,
          "name": "A5",
          "ticks": 278400,
          "time": 407.8125,
          "velocity": 0.3937007874015748
        },
        {
          "duration": 0.38232421875,
          "durationTicks": 261,
          "midi": 81,
          "name": "A5",
          "ticks": 278528,
          "time": 408,
          "velocity": 0.4881889763779528
        },
        {
          "duration": 0.38232421875,
          "durationTicks": 261,
          "midi": 84,
          "name": "C6",
          "ticks": 278784,
          "time": 408.375,
          "velocity": 0.5511811023622047
        },
        {
          "duration": 0.38232421875,
          "durationTicks": 261,
          "midi": 78,
          "name": "F#5",
          "ticks": 279040,
          "time": 408.75,
          "velocity": 0.4251968503937008
        },
        {
          "duration": 0.35595703125,
          "durationTicks": 243,
          "midi": 81,
          "name": "A5",
          "ticks": 279296,
          "time": 409.125,
          "velocity": 0.4330708661417323
        },
        {
          "duration": 0.38232421875,
          "durationTicks": 261,
          "midi": 79,
          "name": "G5",
          "ticks": 279552,
          "time": 409.5,
          "velocity": 0.4409448818897638
        },
        {
          "duration": 0.35595703125,
          "durationTicks": 243,
          "midi": 74,
          "name": "D5",
          "ticks": 279808,
          "time": 409.875,
          "velocity": 0.4094488188976378
        },
        {
          "duration": 0.1904296875,
          "durationTicks": 130,
          "midi": 82,
          "name": "A#5",
          "ticks": 280320,
          "time": 410.625,
          "velocity": 0.4645669291338583
        },
        {
          "duration": 0.17724609375,
          "durationTicks": 121,
          "midi": 81,
          "name": "A5",
          "ticks": 280448,
          "time": 410.8125,
          "velocity": 0.41732283464566927
        },
        {
          "duration": 0.38232421875,
          "durationTicks": 261,
          "midi": 81,
          "name": "A5",
          "ticks": 280576,
          "time": 411,
          "velocity": 0.4645669291338583
        },
        {
          "duration": 0.38232421875,
          "durationTicks": 261,
          "midi": 84,
          "name": "C6",
          "ticks": 280832,
          "time": 411.375,
          "velocity": 0.49606299212598426
        },
        {
          "duration": 0.38232421875,
          "durationTicks": 261,
          "midi": 78,
          "name": "F#5",
          "ticks": 281088,
          "time": 411.75,
          "velocity": 0.3700787401574803
        },
        {
          "duration": 0.35595703125,
          "durationTicks": 243,
          "midi": 81,
          "name": "A5",
          "ticks": 281344,
          "time": 412.125,
          "velocity": 0.3779527559055118
        },
        {
          "duration": 0.38232421875,
          "durationTicks": 261,
          "midi": 79,
          "name": "G5",
          "ticks": 281600,
          "time": 412.5,
          "velocity": 0.44881889763779526
        },
        {
          "duration": 0.38232421875,
          "durationTicks": 261,
          "midi": 82,
          "name": "A#5",
          "ticks": 281856,
          "time": 412.875,
          "velocity": 0.47244094488188976
        },
        {
          "duration": 0.1904296875,
          "durationTicks": 130,
          "midi": 81,
          "name": "A5",
          "ticks": 282112,
          "time": 413.25,
          "velocity": 0.49606299212598426
        },
        {
          "duration": 0.1904296875,
          "durationTicks": 130,
          "midi": 79,
          "name": "G5",
          "ticks": 282240,
          "time": 413.4375,
          "velocity": 0.48031496062992124
        },
        {
          "duration": 0.1904296875,
          "durationTicks": 130,
          "midi": 77,
          "name": "F5",
          "ticks": 282368,
          "time": 413.625,
          "velocity": 0.4409448818897638
        },
        {
          "duration": 0.17724609375,
          "durationTicks": 121,
          "midi": 75,
          "name": "D#5",
          "ticks": 282496,
          "time": 413.8125,
          "velocity": 0.4330708661417323
        },
        {
          "duration": 1.529296875,
          "durationTicks": 1044,
          "midi": 74,
          "name": "D5",
          "ticks": 282624,
          "time": 414,
          "velocity": 0.47244094488188976
        },
        {
          "duration": 1.529296875,
          "durationTicks": 1044,
          "midi": 73,
          "name": "C#5",
          "ticks": 283648,
          "time": 415.5,
          "velocity": 0.4881889763779528
        },
        {
          "duration": 0.7119140625,
          "durationTicks": 486,
          "midi": 74,
          "name": "D5",
          "ticks": 284672,
          "time": 417,
          "velocity": 0.5039370078740157
        },
        {
          "duration": 0.1875,
          "durationTicks": 128,
          "midi": 62,
          "name": "D4",
          "ticks": 285440,
          "time": 418.125,
          "velocity": 0.7086614173228346
        },
        {
          "duration": 0.1875,
          "durationTicks": 128,
          "midi": 62,
          "name": "D4",
          "ticks": 285568,
          "time": 418.3125,
          "velocity": 0.7637795275590551
        },
        {
          "duration": 0.75,
          "durationTicks": 512,
          "midi": 62,
          "name": "D4",
          "ticks": 285696,
          "time": 418.5,
          "velocity": 0.7874015748031497
        },
        {
          "duration": 0.1875,
          "durationTicks": 128,
          "midi": 62,
          "name": "D4",
          "ticks": 286464,
          "time": 419.625,
          "velocity": 0.7007874015748031
        },
        {
          "duration": 0.1875,
          "durationTicks": 128,
          "midi": 62,
          "name": "D4",
          "ticks": 286592,
          "time": 419.8125,
          "velocity": 0.7559055118110236
        },
        {
          "duration": 0.75,
          "durationTicks": 512,
          "midi": 62,
          "name": "D4",
          "ticks": 286720,
          "time": 420,
          "velocity": 0.7480314960629921
        },
        {
          "duration": 0.1875,
          "durationTicks": 128,
          "midi": 62,
          "name": "D4",
          "ticks": 287488,
          "time": 421.125,
          "velocity": 0.7007874015748031
        },
        {
          "duration": 0.1875,
          "durationTicks": 128,
          "midi": 62,
          "name": "D4",
          "ticks": 287616,
          "time": 421.3125,
          "velocity": 0.7716535433070866
        },
        {
          "duration": 0.375,
          "durationTicks": 256,
          "midi": 62,
          "name": "D4",
          "ticks": 287744,
          "time": 421.5,
          "velocity": 0.7716535433070866
        },
        {
          "duration": 0.1875,
          "durationTicks": 128,
          "midi": 62,
          "name": "D4",
          "ticks": 288000,
          "time": 421.875,
          "velocity": 0.7559055118110236
        },
        {
          "duration": 0.1875,
          "durationTicks": 128,
          "midi": 62,
          "name": "D4",
          "ticks": 288128,
          "time": 422.0625,
          "velocity": 0.7874015748031497
        },
        {
          "duration": 0.375,
          "durationTicks": 256,
          "midi": 62,
          "name": "D4",
          "ticks": 288256,
          "time": 422.25,
          "velocity": 0.7559055118110236
        },
        {
          "duration": 0.1875,
          "durationTicks": 128,
          "midi": 62,
          "name": "D4",
          "ticks": 288512,
          "time": 422.625,
          "velocity": 0.7244094488188977
        },
        {
          "duration": 0.1875,
          "durationTicks": 128,
          "midi": 62,
          "name": "D4",
          "ticks": 288640,
          "time": 422.8125,
          "velocity": 0.7716535433070866
        },
        {
          "duration": 0.75,
          "durationTicks": 512,
          "midi": 62,
          "name": "D4",
          "ticks": 288768,
          "time": 423,
          "velocity": 0.7401574803149606
        },
        {
          "duration": 0.1904296875,
          "durationTicks": 130,
          "midi": 75,
          "name": "D#5",
          "ticks": 289536,
          "time": 424.125,
          "velocity": 0.44881889763779526
        },
        {
          "duration": 0.17724609375,
          "durationTicks": 121,
          "midi": 74,
          "name": "D5",
          "ticks": 289664,
          "time": 424.3125,
          "velocity": 0.4251968503937008
        },
        {
          "duration": 0.375,
          "durationTicks": 256,
          "midi": 74,
          "name": "D5",
          "ticks": 289792,
          "time": 424.5,
          "velocity": 0.4251968503937008
        },
        {
          "duration": 0.1904296875,
          "durationTicks": 130,
          "midi": 75,
          "name": "D#5",
          "ticks": 290048,
          "time": 424.875,
          "velocity": 0.48031496062992124
        },
        {
          "duration": 0.17724609375,
          "durationTicks": 121,
          "midi": 74,
          "name": "D5",
          "ticks": 290176,
          "time": 425.0625,
          "velocity": 0.47244094488188976
        },
        {
          "duration": 0.375,
          "durationTicks": 256,
          "midi": 74,
          "name": "D5",
          "ticks": 290304,
          "time": 425.25,
          "velocity": 0.47244094488188976
        },
        {
          "duration": 0.1904296875,
          "durationTicks": 130,
          "midi": 75,
          "name": "D#5",
          "ticks": 290560,
          "time": 425.625,
          "velocity": 0.5118110236220472
        },
        {
          "duration": 0.17724609375,
          "durationTicks": 121,
          "midi": 74,
          "name": "D5",
          "ticks": 290688,
          "time": 425.8125,
          "velocity": 0.47244094488188976
        },
        {
          "duration": 0.38232421875,
          "durationTicks": 261,
          "midi": 74,
          "name": "D5",
          "ticks": 290816,
          "time": 426,
          "velocity": 0.5118110236220472
        },
        {
          "duration": 0.35595703125,
          "durationTicks": 243,
          "midi": 82,
          "name": "A#5",
          "ticks": 291072,
          "time": 426.375,
          "velocity": 0.5826771653543307
        },
        {
          "duration": 0.1904296875,
          "durationTicks": 130,
          "midi": 82,
          "name": "A#5",
          "ticks": 291584,
          "time": 427.125,
          "velocity": 0.36220472440944884
        },
        {
          "duration": 0.17724609375,
          "durationTicks": 121,
          "midi": 80,
          "name": "G#5",
          "ticks": 291712,
          "time": 427.3125,
          "velocity": 0.33070866141732286
        },
        {
          "duration": 0.375,
          "durationTicks": 256,
          "midi": 79,
          "name": "G5",
          "ticks": 291840,
          "time": 427.5,
          "velocity": 0.41732283464566927
        },
        {
          "duration": 0.1904296875,
          "durationTicks": 130,
          "midi": 79,
          "name": "G5",
          "ticks": 292096,
          "time": 427.875,
          "velocity": 0.49606299212598426
        },
        {
          "duration": 0.17724609375,
          "durationTicks": 121,
          "midi": 77,
          "name": "F5",
          "ticks": 292224,
          "time": 428.0625,
          "velocity": 0.44881889763779526
        },
        {
          "duration": 0.375,
          "durationTicks": 256,
          "midi": 75,
          "name": "D#5",
          "ticks": 292352,
          "time": 428.25,
          "velocity": 0.4330708661417323
        },
        {
          "duration": 0.1904296875,
          "durationTicks": 130,
          "midi": 77,
          "name": "F5",
          "ticks": 292608,
          "time": 428.625,
          "velocity": 0.5196850393700787
        },
        {
          "duration": 0.17724609375,
          "durationTicks": 121,
          "midi": 75,
          "name": "D#5",
          "ticks": 292736,
          "time": 428.8125,
          "velocity": 0.5039370078740157
        },
        {
          "duration": 0.375,
          "durationTicks": 256,
          "midi": 74,
          "name": "D5",
          "ticks": 292864,
          "time": 429,
          "velocity": 0.4251968503937008
        },
        {
          "duration": 0.375,
          "durationTicks": 256,
          "midi": 74,
          "name": "D5",
          "ticks": 293120,
          "time": 429.375,
          "velocity": 0.44881889763779526
        },
        {
          "duration": 0.1904296875,
          "durationTicks": 130,
          "midi": 82,
          "name": "A#5",
          "ticks": 293632,
          "time": 430.125,
          "velocity": 0.4015748031496063
        },
        {
          "duration": 0.17724609375,
          "durationTicks": 121,
          "midi": 80,
          "name": "G#5",
          "ticks": 293760,
          "time": 430.3125,
          "velocity": 0.3700787401574803
        },
        {
          "duration": 0.375,
          "durationTicks": 256,
          "midi": 80,
          "name": "G#5",
          "ticks": 293888,
          "time": 430.5,
          "velocity": 0.4566929133858268
        },
        {
          "duration": 0.1904296875,
          "durationTicks": 130,
          "midi": 82,
          "name": "A#5",
          "ticks": 294144,
          "time": 430.875,
          "velocity": 0.4881889763779528
        },
        {
          "duration": 0.17724609375,
          "durationTicks": 121,
          "midi": 80,
          "name": "G#5",
          "ticks": 294272,
          "time": 431.0625,
          "velocity": 0.4409448818897638
        },
        {
          "duration": 0.375,
          "durationTicks": 256,
          "midi": 80,
          "name": "G#5",
          "ticks": 294400,
          "time": 431.25,
          "velocity": 0.4566929133858268
        },
        {
          "duration": 0.1904296875,
          "durationTicks": 130,
          "midi": 82,
          "name": "A#5",
          "ticks": 294656,
          "time": 431.625,
          "velocity": 0.4645669291338583
        },
        {
          "duration": 0.17724609375,
          "durationTicks": 121,
          "midi": 80,
          "name": "G#5",
          "ticks": 294784,
          "time": 431.8125,
          "velocity": 0.4566929133858268
        },
        {
          "duration": 0.38232421875,
          "durationTicks": 261,
          "midi": 80,
          "name": "G#5",
          "ticks": 294912,
          "time": 432,
          "velocity": 0.48031496062992124
        },
        {
          "duration": 0.35595703125,
          "durationTicks": 243,
          "midi": 70,
          "name": "A#4",
          "ticks": 295168,
          "time": 432.375,
          "velocity": 0.4251968503937008
        },
        {
          "duration": 0.1904296875,
          "durationTicks": 130,
          "midi": 77,
          "name": "F5",
          "ticks": 295680,
          "time": 433.125,
          "velocity": 0.44881889763779526
        },
        {
          "duration": 0.17724609375,
          "durationTicks": 121,
          "midi": 75,
          "name": "D#5",
          "ticks": 295808,
          "time": 433.3125,
          "velocity": 0.4330708661417323
        },
        {
          "duration": 0.375,
          "durationTicks": 256,
          "midi": 74,
          "name": "D5",
          "ticks": 295936,
          "time": 433.5,
          "velocity": 0.44881889763779526
        },
        {
          "duration": 0.1904296875,
          "durationTicks": 130,
          "midi": 74,
          "name": "D5",
          "ticks": 296192,
          "time": 433.875,
          "velocity": 0.5039370078740157
        },
        {
          "duration": 0.17724609375,
          "durationTicks": 121,
          "midi": 72,
          "name": "C5",
          "ticks": 296320,
          "time": 434.0625,
          "velocity": 0.4645669291338583
        },
        {
          "duration": 0.375,
          "durationTicks": 256,
          "midi": 70,
          "name": "A#4",
          "ticks": 296448,
          "time": 434.25,
          "velocity": 0.4409448818897638
        },
        {
          "duration": 0.1904296875,
          "durationTicks": 130,
          "midi": 70,
          "name": "A#4",
          "ticks": 296704,
          "time": 434.625,
          "velocity": 0.4881889763779528
        },
        {
          "duration": 0.17724609375,
          "durationTicks": 121,
          "midi": 68,
          "name": "G#4",
          "ticks": 296832,
          "time": 434.8125,
          "velocity": 0.4251968503937008
        },
        {
          "duration": 1.5,
          "durationTicks": 1024,
          "midi": 67,
          "name": "G4",
          "ticks": 296960,
          "time": 435,
          "velocity": 0.889763779527559
        },
        {
          "duration": 1.5,
          "durationTicks": 1024,
          "midi": 75,
          "name": "D#5",
          "ticks": 296960,
          "time": 435,
          "velocity": 0.889763779527559
        },
        {
          "duration": 1.125,
          "durationTicks": 768,
          "midi": 62,
          "name": "D4",
          "ticks": 297984,
          "time": 436.5,
          "velocity": 0.905511811023622
        },
        {
          "duration": 1.125,
          "durationTicks": 768,
          "midi": 70,
          "name": "A#4",
          "ticks": 297984,
          "time": 436.5,
          "velocity": 0.905511811023622
        },
        {
          "duration": 1.125,
          "durationTicks": 768,
          "midi": 82,
          "name": "A#5",
          "ticks": 297984,
          "time": 436.5,
          "velocity": 0.905511811023622
        },
        {
          "duration": 0.1875,
          "durationTicks": 128,
          "midi": 82,
          "name": "A#5",
          "ticks": 298880,
          "time": 437.8125,
          "velocity": 0.7165354330708661
        },
        {
          "duration": 0.1875,
          "durationTicks": 128,
          "midi": 80,
          "name": "G#5",
          "ticks": 299008,
          "time": 438,
          "velocity": 0.7165354330708661
        },
        {
          "duration": 0.1875,
          "durationTicks": 128,
          "midi": 84,
          "name": "C6",
          "ticks": 299264,
          "time": 438.375,
          "velocity": 0.8661417322834646
        },
        {
          "duration": 0.1875,
          "durationTicks": 128,
          "midi": 87,
          "name": "D#6",
          "ticks": 299520,
          "time": 438.75,
          "velocity": 0.8740157480314961
        },
        {
          "duration": 0.1875,
          "durationTicks": 128,
          "midi": 79,
          "name": "G5",
          "ticks": 300032,
          "time": 439.5,
          "velocity": 0.7322834645669292
        },
        {
          "duration": 0.1875,
          "durationTicks": 128,
          "midi": 82,
          "name": "A#5",
          "ticks": 300288,
          "time": 439.875,
          "velocity": 0.8267716535433071
        },
        {
          "duration": 0.1875,
          "durationTicks": 128,
          "midi": 87,
          "name": "D#6",
          "ticks": 300544,
          "time": 440.25,
          "velocity": 0.8582677165354331
        },
        {
          "duration": 0.1875,
          "durationTicks": 128,
          "midi": 79,
          "name": "G5",
          "ticks": 300928,
          "time": 440.8125,
          "velocity": 0.7480314960629921
        },
        {
          "duration": 0.1875,
          "durationTicks": 128,
          "midi": 77,
          "name": "F5",
          "ticks": 301056,
          "time": 441,
          "velocity": 0.7401574803149606
        },
        {
          "duration": 0.1875,
          "durationTicks": 128,
          "midi": 80,
          "name": "G#5",
          "ticks": 301312,
          "time": 441.375,
          "velocity": 0.7795275590551181
        },
        {
          "duration": 0.1875,
          "durationTicks": 128,
          "midi": 84,
          "name": "C6",
          "ticks": 301568,
          "time": 441.75,
          "velocity": 0.8818897637795275
        },
        {
          "duration": 0.1875,
          "durationTicks": 128,
          "midi": 77,
          "name": "F5",
          "ticks": 301824,
          "time": 442.125,
          "velocity": 0.6692913385826772
        },
        {
          "duration": 0.1875,
          "durationTicks": 128,
          "midi": 76,
          "name": "E5",
          "ticks": 302080,
          "time": 442.5,
          "velocity": 0.6850393700787402
        },
        {
          "duration": 0.1875,
          "durationTicks": 128,
          "midi": 79,
          "name": "G5",
          "ticks": 302336,
          "time": 442.875,
          "velocity": 0.8346456692913385
        },
        {
          "duration": 0.1875,
          "durationTicks": 128,
          "midi": 82,
          "name": "A#5",
          "ticks": 302592,
          "time": 443.25,
          "velocity": 0.8188976377952756
        },
        {
          "duration": 0.1875,
          "durationTicks": 128,
          "midi": 73,
          "name": "C#5",
          "ticks": 302848,
          "time": 443.625,
          "velocity": 0.6062992125984252
        },
        {
          "duration": 0.1875,
          "durationTicks": 128,
          "midi": 72,
          "name": "C5",
          "ticks": 303104,
          "time": 444,
          "velocity": 0.7480314960629921
        },
        {
          "duration": 0.1875,
          "durationTicks": 128,
          "midi": 76,
          "name": "E5",
          "ticks": 303360,
          "time": 444.375,
          "velocity": 0.8582677165354331
        },
        {
          "duration": 0.1875,
          "durationTicks": 128,
          "midi": 79,
          "name": "G5",
          "ticks": 303616,
          "time": 444.75,
          "velocity": 0.8661417322834646
        },
        {
          "duration": 0.1875,
          "durationTicks": 128,
          "midi": 70,
          "name": "A#4",
          "ticks": 303872,
          "time": 445.125,
          "velocity": 0.6299212598425197
        },
        {
          "duration": 0.1875,
          "durationTicks": 128,
          "midi": 68,
          "name": "G#4",
          "ticks": 304128,
          "time": 445.5,
          "velocity": 0.7165354330708661
        },
        {
          "duration": 0.1875,
          "durationTicks": 128,
          "midi": 65,
          "name": "F4",
          "ticks": 304256,
          "time": 445.6875,
          "velocity": 0.6929133858267716
        },
        {
          "duration": 0.1875,
          "durationTicks": 128,
          "midi": 72,
          "name": "C5",
          "ticks": 304384,
          "time": 445.875,
          "velocity": 0.9291338582677166
        },
        {
          "duration": 0.1875,
          "durationTicks": 128,
          "midi": 68,
          "name": "G#4",
          "ticks": 304512,
          "time": 446.0625,
          "velocity": 0.7165354330708661
        },
        {
          "duration": 0.1875,
          "durationTicks": 128,
          "midi": 77,
          "name": "F5",
          "ticks": 304640,
          "time": 446.25,
          "velocity": 0.9212598425196851
        },
        {
          "duration": 0.1875,
          "durationTicks": 128,
          "midi": 72,
          "name": "C5",
          "ticks": 304768,
          "time": 446.4375,
          "velocity": 0.6692913385826772
        },
        {
          "duration": 0.1875,
          "durationTicks": 128,
          "midi": 80,
          "name": "G#5",
          "ticks": 304896,
          "time": 446.625,
          "velocity": 0.9291338582677166
        },
        {
          "duration": 0.1875,
          "durationTicks": 128,
          "midi": 77,
          "name": "F5",
          "ticks": 305024,
          "time": 446.8125,
          "velocity": 0.7480314960629921
        },
        {
          "duration": 0.1875,
          "durationTicks": 128,
          "midi": 76,
          "name": "E5",
          "ticks": 305152,
          "time": 447,
          "velocity": 0.7401574803149606
        },
        {
          "duration": 0.1875,
          "durationTicks": 128,
          "midi": 79,
          "name": "G5",
          "ticks": 305280,
          "time": 447.1875,
          "velocity": 0.84251968503937
        },
        {
          "duration": 0.1875,
          "durationTicks": 128,
          "midi": 84,
          "name": "C6",
          "ticks": 305408,
          "time": 447.375,
          "velocity": 0.905511811023622
        },
        {
          "duration": 0.1875,
          "durationTicks": 128,
          "midi": 82,
          "name": "A#5",
          "ticks": 305536,
          "time": 447.5625,
          "velocity": 0.7795275590551181
        },
        {
          "duration": 0.1875,
          "durationTicks": 128,
          "midi": 80,
          "name": "G#5",
          "ticks": 305664,
          "time": 447.75,
          "velocity": 0.7322834645669292
        },
        {
          "duration": 0.1875,
          "durationTicks": 128,
          "midi": 79,
          "name": "G5",
          "ticks": 305792,
          "time": 447.9375,
          "velocity": 0.7401574803149606
        },
        {
          "duration": 0.1875,
          "durationTicks": 128,
          "midi": 77,
          "name": "F5",
          "ticks": 305920,
          "time": 448.125,
          "velocity": 0.7244094488188977
        },
        {
          "duration": 0.1875,
          "durationTicks": 128,
          "midi": 75,
          "name": "D#5",
          "ticks": 306048,
          "time": 448.3125,
          "velocity": 0.6929133858267716
        },
        {
          "duration": 0.1875,
          "durationTicks": 128,
          "midi": 73,
          "name": "C#5",
          "ticks": 306176,
          "time": 448.5,
          "velocity": 0.7165354330708661
        },
        {
          "duration": 0.1875,
          "durationTicks": 128,
          "midi": 77,
          "name": "F5",
          "ticks": 306304,
          "time": 448.6875,
          "velocity": 0.84251968503937
        },
        {
          "duration": 0.1875,
          "durationTicks": 128,
          "midi": 82,
          "name": "A#5",
          "ticks": 306432,
          "time": 448.875,
          "velocity": 0.889763779527559
        },
        {
          "duration": 0.1875,
          "durationTicks": 128,
          "midi": 80,
          "name": "G#5",
          "ticks": 306560,
          "time": 449.0625,
          "velocity": 0.7322834645669292
        },
        {
          "duration": 0.1875,
          "durationTicks": 128,
          "midi": 79,
          "name": "G5",
          "ticks": 306688,
          "time": 449.25,
          "velocity": 0.7165354330708661
        },
        {
          "duration": 0.1875,
          "durationTicks": 128,
          "midi": 77,
          "name": "F5",
          "ticks": 306816,
          "time": 449.4375,
          "velocity": 0.7165354330708661
        },
        {
          "duration": 0.1875,
          "durationTicks": 128,
          "midi": 75,
          "name": "D#5",
          "ticks": 306944,
          "time": 449.625,
          "velocity": 0.7086614173228346
        },
        {
          "duration": 0.1875,
          "durationTicks": 128,
          "midi": 73,
          "name": "C#5",
          "ticks": 307072,
          "time": 449.8125,
          "velocity": 0.7401574803149606
        },
        {
          "duration": 0.1875,
          "durationTicks": 128,
          "midi": 72,
          "name": "C5",
          "ticks": 307200,
          "time": 450,
          "velocity": 0.7480314960629921
        },
        {
          "duration": 0.1875,
          "durationTicks": 128,
          "midi": 75,
          "name": "D#5",
          "ticks": 307328,
          "time": 450.1875,
          "velocity": 0.8503937007874016
        },
        {
          "duration": 0.1875,
          "durationTicks": 128,
          "midi": 80,
          "name": "G#5",
          "ticks": 307456,
          "time": 450.375,
          "velocity": 0.8818897637795275
        },
        {
          "duration": 0.1875,
          "durationTicks": 128,
          "midi": 79,
          "name": "G5",
          "ticks": 307584,
          "time": 450.5625,
          "velocity": 0.7244094488188977
        },
        {
          "duration": 0.1875,
          "durationTicks": 128,
          "midi": 77,
          "name": "F5",
          "ticks": 307712,
          "time": 450.75,
          "velocity": 0.7086614173228346
        },
        {
          "duration": 0.1875,
          "durationTicks": 128,
          "midi": 75,
          "name": "D#5",
          "ticks": 307840,
          "time": 450.9375,
          "velocity": 0.7244094488188977
        },
        {
          "duration": 0.1875,
          "durationTicks": 128,
          "midi": 73,
          "name": "C#5",
          "ticks": 307968,
          "time": 451.125,
          "velocity": 0.6929133858267716
        },
        {
          "duration": 0.1875,
          "durationTicks": 128,
          "midi": 72,
          "name": "C5",
          "ticks": 308096,
          "time": 451.3125,
          "velocity": 0.7322834645669292
        },
        {
          "duration": 0.1875,
          "durationTicks": 128,
          "midi": 70,
          "name": "A#4",
          "ticks": 308224,
          "time": 451.5,
          "velocity": 0.7165354330708661
        },
        {
          "duration": 0.1875,
          "durationTicks": 128,
          "midi": 73,
          "name": "C#5",
          "ticks": 308352,
          "time": 451.6875,
          "velocity": 0.8346456692913385
        },
        {
          "duration": 0.1875,
          "durationTicks": 128,
          "midi": 79,
          "name": "G5",
          "ticks": 308480,
          "time": 451.875,
          "velocity": 0.8661417322834646
        },
        {
          "duration": 0.1875,
          "durationTicks": 128,
          "midi": 77,
          "name": "F5",
          "ticks": 308608,
          "time": 452.0625,
          "velocity": 0.7480314960629921
        },
        {
          "duration": 0.1875,
          "durationTicks": 128,
          "midi": 76,
          "name": "E5",
          "ticks": 308736,
          "time": 452.25,
          "velocity": 0.7637795275590551
        },
        {
          "duration": 0.1875,
          "durationTicks": 128,
          "midi": 73,
          "name": "C#5",
          "ticks": 308864,
          "time": 452.4375,
          "velocity": 0.7165354330708661
        },
        {
          "duration": 0.1875,
          "durationTicks": 128,
          "midi": 72,
          "name": "C5",
          "ticks": 308992,
          "time": 452.625,
          "velocity": 0.7007874015748031
        },
        {
          "duration": 0.1875,
          "durationTicks": 128,
          "midi": 70,
          "name": "A#4",
          "ticks": 309120,
          "time": 452.8125,
          "velocity": 0.7086614173228346
        },
        {
          "duration": 0.375,
          "durationTicks": 256,
          "midi": 68,
          "name": "G#4",
          "ticks": 309248,
          "time": 453,
          "velocity": 0.7086614173228346
        },
        {
          "duration": 0.1875,
          "durationTicks": 128,
          "midi": 72,
          "name": "C5",
          "ticks": 309632,
          "time": 453.5625,
          "velocity": 0.6850393700787402
        },
        {
          "duration": 0.1875,
          "durationTicks": 128,
          "midi": 77,
          "name": "F5",
          "ticks": 309760,
          "time": 453.75,
          "velocity": 0.84251968503937
        },
        {
          "duration": 0.1875,
          "durationTicks": 128,
          "midi": 80,
          "name": "G#5",
          "ticks": 310016,
          "time": 454.125,
          "velocity": 0.8267716535433071
        },
        {
          "duration": 0.375,
          "durationTicks": 256,
          "midi": 58,
          "name": "A#3",
          "ticks": 310272,
          "time": 454.5,
          "velocity": 0.6929133858267716
        },
        {
          "duration": 0.1875,
          "durationTicks": 128,
          "midi": 77,
          "name": "F5",
          "ticks": 310656,
          "time": 455.0625,
          "velocity": 0.7086614173228346
        },
        {
          "duration": 0.1875,
          "durationTicks": 128,
          "midi": 82,
          "name": "A#5",
          "ticks": 310784,
          "time": 455.25,
          "velocity": 0.8346456692913385
        },
        {
          "duration": 0.1875,
          "durationTicks": 128,
          "midi": 86,
          "name": "D6",
          "ticks": 311040,
          "time": 455.625,
          "velocity": 0.8661417322834646
        },
        {
          "duration": 0.375,
          "durationTicks": 256,
          "midi": 63,
          "name": "D#4",
          "ticks": 311296,
          "time": 456,
          "velocity": 0.5826771653543307
        },
        {
          "duration": 0.1875,
          "durationTicks": 128,
          "midi": 70,
          "name": "A#4",
          "ticks": 311680,
          "time": 456.5625,
          "velocity": 0.6771653543307087
        },
        {
          "duration": 0.1875,
          "durationTicks": 128,
          "midi": 75,
          "name": "D#5",
          "ticks": 311808,
          "time": 456.75,
          "velocity": 0.8740157480314961
        },
        {
          "duration": 0.1875,
          "durationTicks": 128,
          "midi": 79,
          "name": "G5",
          "ticks": 312064,
          "time": 457.125,
          "velocity": 0.8976377952755905
        },
        {
          "duration": 0.375,
          "durationTicks": 256,
          "midi": 56,
          "name": "G#3",
          "ticks": 312320,
          "time": 457.5,
          "velocity": 0.6614173228346457
        },
        {
          "duration": 0.1875,
          "durationTicks": 128,
          "midi": 75,
          "name": "D#5",
          "ticks": 312704,
          "time": 458.0625,
          "velocity": 0.6535433070866141
        },
        {
          "duration": 0.375,
          "durationTicks": 256,
          "midi": 80,
          "name": "G#5",
          "ticks": 312832,
          "time": 458.25,
          "velocity": 0.905511811023622
        },
        {
          "duration": 0.375,
          "durationTicks": 256,
          "midi": 84,
          "name": "C6",
          "ticks": 313088,
          "time": 458.625,
          "velocity": 0.8818897637795275
        },
        {
          "duration": 0.375,
          "durationTicks": 256,
          "midi": 62,
          "name": "D4",
          "ticks": 313344,
          "time": 459,
          "velocity": 0.5590551181102362
        },
        {
          "duration": 0.1875,
          "durationTicks": 128,
          "midi": 81,
          "name": "A5",
          "ticks": 313728,
          "time": 459.5625,
          "velocity": 0.7086614173228346
        },
        {
          "duration": 0.375,
          "durationTicks": 256,
          "midi": 86,
          "name": "D6",
          "ticks": 313856,
          "time": 459.75,
          "velocity": 0.8740157480314961
        },
        {
          "duration": 0.375,
          "durationTicks": 256,
          "midi": 89,
          "name": "F6",
          "ticks": 314112,
          "time": 460.125,
          "velocity": 0.8188976377952756
        },
        {
          "duration": 0.375,
          "durationTicks": 256,
          "midi": 55,
          "name": "G3",
          "ticks": 314368,
          "time": 460.5,
          "velocity": 0.6850393700787402
        },
        {
          "duration": 0.1875,
          "durationTicks": 128,
          "midi": 74,
          "name": "D5",
          "ticks": 314752,
          "time": 461.0625,
          "velocity": 0.6850393700787402
        },
        {
          "duration": 0.375,
          "durationTicks": 256,
          "midi": 79,
          "name": "G5",
          "ticks": 314880,
          "time": 461.25,
          "velocity": 0.8582677165354331
        },
        {
          "duration": 0.375,
          "durationTicks": 256,
          "midi": 83,
          "name": "B5",
          "ticks": 315136,
          "time": 461.625,
          "velocity": 0.8267716535433071
        },
        {
          "duration": 0.375,
          "durationTicks": 256,
          "midi": 60,
          "name": "C4",
          "ticks": 315392,
          "time": 462,
          "velocity": 0.5748031496062992
        },
        {
          "duration": 0.1875,
          "durationTicks": 128,
          "midi": 67,
          "name": "G4",
          "ticks": 315776,
          "time": 462.5625,
          "velocity": 0.7086614173228346
        },
        {
          "duration": 0.375,
          "durationTicks": 256,
          "midi": 72,
          "name": "C5",
          "ticks": 315904,
          "time": 462.75,
          "velocity": 0.8740157480314961
        },
        {
          "duration": 0.375,
          "durationTicks": 256,
          "midi": 75,
          "name": "D#5",
          "ticks": 316160,
          "time": 463.125,
          "velocity": 0.8661417322834646
        },
        {
          "duration": 0.375,
          "durationTicks": 256,
          "midi": 62,
          "name": "D4",
          "ticks": 316416,
          "time": 463.5,
          "velocity": 0.5590551181102362
        },
        {
          "duration": 0.1875,
          "durationTicks": 128,
          "midi": 72,
          "name": "C5",
          "ticks": 316800,
          "time": 464.0625,
          "velocity": 0.6850393700787402
        },
        {
          "duration": 0.375,
          "durationTicks": 256,
          "midi": 78,
          "name": "F#5",
          "ticks": 316928,
          "time": 464.25,
          "velocity": 0.889763779527559
        },
        {
          "duration": 0.375,
          "durationTicks": 256,
          "midi": 81,
          "name": "A5",
          "ticks": 317184,
          "time": 464.625,
          "velocity": 0.8740157480314961
        },
        {
          "duration": 1.5,
          "durationTicks": 1024,
          "midi": 55,
          "name": "G3",
          "ticks": 317440,
          "time": 465,
          "velocity": 0.5826771653543307
        },
        {
          "duration": 1.5,
          "durationTicks": 1024,
          "midi": 67,
          "name": "G4",
          "ticks": 317440,
          "time": 465,
          "velocity": 0.5826771653543307
        },
        {
          "duration": 1.125,
          "durationTicks": 768,
          "midi": 62,
          "name": "D4",
          "ticks": 318464,
          "time": 466.5,
          "velocity": 0.8740157480314961
        },
        {
          "duration": 1.125,
          "durationTicks": 768,
          "midi": 74,
          "name": "D5",
          "ticks": 318464,
          "time": 466.5,
          "velocity": 0.8740157480314961
        },
        {
          "duration": 0.1875,
          "durationTicks": 128,
          "midi": 74,
          "name": "D5",
          "ticks": 319360,
          "time": 467.8125,
          "velocity": 0.7322834645669292
        },
        {
          "duration": 0.1875,
          "durationTicks": 128,
          "midi": 72,
          "name": "C5",
          "ticks": 319488,
          "time": 468,
          "velocity": 0.6692913385826772
        },
        {
          "duration": 0.1875,
          "durationTicks": 128,
          "midi": 75,
          "name": "D#5",
          "ticks": 319744,
          "time": 468.375,
          "velocity": 0.8346456692913385
        },
        {
          "duration": 0.1875,
          "durationTicks": 128,
          "midi": 79,
          "name": "G5",
          "ticks": 320000,
          "time": 468.75,
          "velocity": 0.8661417322834646
        },
        {
          "duration": 0.1875,
          "durationTicks": 128,
          "midi": 70,
          "name": "A#4",
          "ticks": 320512,
          "time": 469.5,
          "velocity": 0.7007874015748031
        },
        {
          "duration": 0.1875,
          "durationTicks": 128,
          "midi": 74,
          "name": "D5",
          "ticks": 320768,
          "time": 469.875,
          "velocity": 0.8503937007874016
        },
        {
          "duration": 0.1875,
          "durationTicks": 128,
          "midi": 79,
          "name": "G5",
          "ticks": 321024,
          "time": 470.25,
          "velocity": 0.8818897637795275
        },
        {
          "duration": 0.1875,
          "durationTicks": 128,
          "midi": 82,
          "name": "A#5",
          "ticks": 321408,
          "time": 470.8125,
          "velocity": 0.6850393700787402
        },
        {
          "duration": 0.1875,
          "durationTicks": 128,
          "midi": 81,
          "name": "A5",
          "ticks": 321536,
          "time": 471,
          "velocity": 0.7165354330708661
        },
        {
          "duration": 0.1875,
          "durationTicks": 128,
          "midi": 84,
          "name": "C6",
          "ticks": 321792,
          "time": 471.375,
          "velocity": 0.7874015748031497
        },
        {
          "duration": 0.1875,
          "durationTicks": 128,
          "midi": 87,
          "name": "D#6",
          "ticks": 322048,
          "time": 471.75,
          "velocity": 0.8582677165354331
        },
        {
          "duration": 0.1875,
          "durationTicks": 128,
          "midi": 78,
          "name": "F#5",
          "ticks": 322432,
          "time": 472.3125,
          "velocity": 0.6535433070866141
        },
        {
          "duration": 0.1875,
          "durationTicks": 128,
          "midi": 79,
          "name": "G5",
          "ticks": 322560,
          "time": 472.5,
          "velocity": 0.7795275590551181
        },
        {
          "duration": 0.1875,
          "durationTicks": 128,
          "midi": 82,
          "name": "A#5",
          "ticks": 322816,
          "time": 472.875,
          "velocity": 0.84251968503937
        },
        {
          "duration": 0.1875,
          "durationTicks": 128,
          "midi": 86,
          "name": "D6",
          "ticks": 323072,
          "time": 473.25,
          "velocity": 0.8582677165354331
        },
        {
          "duration": 0.1875,
          "durationTicks": 128,
          "midi": 74,
          "name": "D5",
          "ticks": 323456,
          "time": 473.8125,
          "velocity": 0.6535433070866141
        },
        {
          "duration": 0.1875,
          "durationTicks": 128,
          "midi": 73,
          "name": "C#5",
          "ticks": 323584,
          "time": 474,
          "velocity": 0.7244094488188977
        },
        {
          "duration": 0.1875,
          "durationTicks": 128,
          "midi": 74,
          "name": "D5",
          "ticks": 323712,
          "time": 474.1875,
          "velocity": 0.8188976377952756
        },
        {
          "duration": 0.1875,
          "durationTicks": 128,
          "midi": 76,
          "name": "E5",
          "ticks": 323840,
          "time": 474.375,
          "velocity": 0.8740157480314961
        },
        {
          "duration": 0.1875,
          "durationTicks": 128,
          "midi": 77,
          "name": "F5",
          "ticks": 323968,
          "time": 474.5625,
          "velocity": 0.8267716535433071
        },
        {
          "duration": 0.1875,
          "durationTicks": 128,
          "midi": 79,
          "name": "G5",
          "ticks": 324096,
          "time": 474.75,
          "velocity": 0.8188976377952756
        },
        {
          "duration": 0.1875,
          "durationTicks": 128,
          "midi": 81,
          "name": "A5",
          "ticks": 324224,
          "time": 474.9375,
          "velocity": 0.8267716535433071
        },
        {
          "duration": 0.1875,
          "durationTicks": 128,
          "midi": 82,
          "name": "A#5",
          "ticks": 324352,
          "time": 475.125,
          "velocity": 0.7952755905511811
        },
        {
          "duration": 0.1875,
          "durationTicks": 128,
          "midi": 74,
          "name": "D5",
          "ticks": 324480,
          "time": 475.3125,
          "velocity": 0.6535433070866141
        },
        {
          "duration": 0.1875,
          "durationTicks": 128,
          "midi": 73,
          "name": "C#5",
          "ticks": 324608,
          "time": 475.5,
          "velocity": 0.6929133858267716
        },
        {
          "duration": 0.1875,
          "durationTicks": 128,
          "midi": 74,
          "name": "D5",
          "ticks": 324736,
          "time": 475.6875,
          "velocity": 0.8110236220472441
        },
        {
          "duration": 0.1875,
          "durationTicks": 128,
          "midi": 76,
          "name": "E5",
          "ticks": 324864,
          "time": 475.875,
          "velocity": 0.7952755905511811
        },
        {
          "duration": 0.1875,
          "durationTicks": 128,
          "midi": 77,
          "name": "F5",
          "ticks": 324992,
          "time": 476.0625,
          "velocity": 0.8188976377952756
        },
        {
          "duration": 0.1875,
          "durationTicks": 128,
          "midi": 79,
          "name": "G5",
          "ticks": 325120,
          "time": 476.25,
          "velocity": 0.8503937007874016
        },
        {
          "duration": 0.1875,
          "durationTicks": 128,
          "midi": 81,
          "name": "A5",
          "ticks": 325248,
          "time": 476.4375,
          "velocity": 0.8661417322834646
        },
        {
          "duration": 0.1875,
          "durationTicks": 128,
          "midi": 82,
          "name": "A#5",
          "ticks": 325376,
          "time": 476.625,
          "velocity": 0.8110236220472441
        },
        {
          "duration": 0.1875,
          "durationTicks": 128,
          "midi": 74,
          "name": "D5",
          "ticks": 325504,
          "time": 476.8125,
          "velocity": 0.6456692913385826
        },
        {
          "duration": 0.1875,
          "durationTicks": 128,
          "midi": 73,
          "name": "C#5",
          "ticks": 325632,
          "time": 477,
          "velocity": 0.7244094488188977
        },
        {
          "duration": 0.1875,
          "durationTicks": 128,
          "midi": 74,
          "name": "D5",
          "ticks": 325760,
          "time": 477.1875,
          "velocity": 0.7874015748031497
        },
        {
          "duration": 0.1875,
          "durationTicks": 128,
          "midi": 76,
          "name": "E5",
          "ticks": 325888,
          "time": 477.375,
          "velocity": 0.8110236220472441
        },
        {
          "duration": 0.1875,
          "durationTicks": 128,
          "midi": 77,
          "name": "F5",
          "ticks": 326016,
          "time": 477.5625,
          "velocity": 0.8188976377952756
        },
        {
          "duration": 0.1875,
          "durationTicks": 128,
          "midi": 79,
          "name": "G5",
          "ticks": 326144,
          "time": 477.75,
          "velocity": 0.8110236220472441
        },
        {
          "duration": 0.1875,
          "durationTicks": 128,
          "midi": 81,
          "name": "A5",
          "ticks": 326272,
          "time": 477.9375,
          "velocity": 0.8503937007874016
        },
        {
          "duration": 0.1875,
          "durationTicks": 128,
          "midi": 82,
          "name": "A#5",
          "ticks": 326400,
          "time": 478.125,
          "velocity": 0.8267716535433071
        },
        {
          "duration": 0.1875,
          "durationTicks": 128,
          "midi": 74,
          "name": "D5",
          "ticks": 326528,
          "time": 478.3125,
          "velocity": 0.6614173228346457
        },
        {
          "duration": 0.1875,
          "durationTicks": 128,
          "midi": 73,
          "name": "C#5",
          "ticks": 326656,
          "time": 478.5,
          "velocity": 0.6850393700787402
        },
        {
          "duration": 0.1875,
          "durationTicks": 128,
          "midi": 74,
          "name": "D5",
          "ticks": 326784,
          "time": 478.6875,
          "velocity": 0.7874015748031497
        },
        {
          "duration": 0.1875,
          "durationTicks": 128,
          "midi": 76,
          "name": "E5",
          "ticks": 326912,
          "time": 478.875,
          "velocity": 0.8188976377952756
        },
        {
          "duration": 0.1875,
          "durationTicks": 128,
          "midi": 77,
          "name": "F5",
          "ticks": 327040,
          "time": 479.0625,
          "velocity": 0.8188976377952756
        },
        {
          "duration": 0.1875,
          "durationTicks": 128,
          "midi": 79,
          "name": "G5",
          "ticks": 327168,
          "time": 479.25,
          "velocity": 0.8031496062992126
        },
        {
          "duration": 0.1875,
          "durationTicks": 128,
          "midi": 81,
          "name": "A5",
          "ticks": 327296,
          "time": 479.4375,
          "velocity": 0.8346456692913385
        },
        {
          "duration": 0.1875,
          "durationTicks": 128,
          "midi": 82,
          "name": "A#5",
          "ticks": 327424,
          "time": 479.625,
          "velocity": 0.7952755905511811
        },
        {
          "duration": 0.1875,
          "durationTicks": 128,
          "midi": 73,
          "name": "C#5",
          "ticks": 327552,
          "time": 479.8125,
          "velocity": 0.6141732283464567
        },
        {
          "duration": 0.75,
          "durationTicks": 512,
          "midi": 74,
          "name": "D5",
          "ticks": 327680,
          "time": 480,
          "velocity": 0.8031496062992126
        },
        {
          "duration": 0.1875,
          "durationTicks": 128,
          "midi": 81,
          "name": "A5",
          "ticks": 328192,
          "time": 480.75,
          "velocity": 0.937007874015748
        },
        {
          "duration": 0.1875,
          "durationTicks": 128,
          "midi": 78,
          "name": "F#5",
          "ticks": 328448,
          "time": 481.125,
          "velocity": 0.7086614173228346
        },
        {
          "duration": 0.75,
          "durationTicks": 512,
          "midi": 82,
          "name": "A#5",
          "ticks": 328704,
          "time": 481.5,
          "velocity": 0.8188976377952756
        },
        {
          "duration": 0.1875,
          "durationTicks": 128,
          "midi": 73,
          "name": "C#5",
          "ticks": 329216,
          "time": 482.25,
          "velocity": 0.6299212598425197
        },
        {
          "duration": 0.1875,
          "durationTicks": 128,
          "midi": 76,
          "name": "E5",
          "ticks": 329472,
          "time": 482.625,
          "velocity": 0.8188976377952756
        },
        {
          "duration": 0.75,
          "durationTicks": 512,
          "midi": 74,
          "name": "D5",
          "ticks": 329728,
          "time": 483,
          "velocity": 0.7244094488188977
        },
        {
          "duration": 0.1875,
          "durationTicks": 128,
          "midi": 81,
          "name": "A5",
          "ticks": 330240,
          "time": 483.75,
          "velocity": 0.889763779527559
        },
        {
          "duration": 0.1875,
          "durationTicks": 128,
          "midi": 78,
          "name": "F#5",
          "ticks": 330368,
          "time": 483.9375,
          "velocity": 0.7480314960629921
        },
        {
          "duration": 0.1875,
          "durationTicks": 128,
          "midi": 81,
          "name": "A5",
          "ticks": 330496,
          "time": 484.125,
          "velocity": 0.8188976377952756
        },
        {
          "duration": 0.1875,
          "durationTicks": 128,
          "midi": 78,
          "name": "F#5",
          "ticks": 330624,
          "time": 484.3125,
          "velocity": 0.7244094488188977
        },
        {
          "duration": 0.1875,
          "durationTicks": 128,
          "midi": 82,
          "name": "A#5",
          "ticks": 330752,
          "time": 484.5,
          "velocity": 0.84251968503937
        },
        {
          "duration": 0.1875,
          "durationTicks": 128,
          "midi": 79,
          "name": "G5",
          "ticks": 330880,
          "time": 484.6875,
          "velocity": 0.7244094488188977
        },
        {
          "duration": 0.1875,
          "durationTicks": 128,
          "midi": 82,
          "name": "A#5",
          "ticks": 331008,
          "time": 484.875,
          "velocity": 0.8267716535433071
        },
        {
          "duration": 0.1875,
          "durationTicks": 128,
          "midi": 79,
          "name": "G5",
          "ticks": 331136,
          "time": 485.0625,
          "velocity": 0.6929133858267716
        },
        {
          "duration": 0.1875,
          "durationTicks": 128,
          "midi": 73,
          "name": "C#5",
          "ticks": 331264,
          "time": 485.25,
          "velocity": 0.6456692913385826
        },
        {
          "duration": 0.1875,
          "durationTicks": 128,
          "midi": 76,
          "name": "E5",
          "ticks": 331392,
          "time": 485.4375,
          "velocity": 0.8346456692913385
        },
        {
          "duration": 0.1875,
          "durationTicks": 128,
          "midi": 73,
          "name": "C#5",
          "ticks": 331520,
          "time": 485.625,
          "velocity": 0.7007874015748031
        },
        {
          "duration": 0.1875,
          "durationTicks": 128,
          "midi": 76,
          "name": "E5",
          "ticks": 331648,
          "time": 485.8125,
          "velocity": 0.8188976377952756
        },
        {
          "duration": 0.375,
          "durationTicks": 256,
          "midi": 78,
          "name": "F#5",
          "ticks": 331776,
          "time": 486,
          "velocity": 0.8661417322834646
        },
        {
          "duration": 0.375,
          "durationTicks": 256,
          "midi": 62,
          "name": "D4",
          "ticks": 332288,
          "time": 486.75,
          "velocity": 0.6850393700787402
        },
        {
          "duration": 0.375,
          "durationTicks": 256,
          "midi": 74,
          "name": "D5",
          "ticks": 332288,
          "time": 486.75,
          "velocity": 0.6850393700787402
        },
        {
          "duration": 0.375,
          "durationTicks": 256,
          "midi": 86,
          "name": "D6",
          "ticks": 332288,
          "time": 486.75,
          "velocity": 0.6850393700787402
        },
        {
          "duration": 1.14697265625,
          "durationTicks": 783,
          "midi": 74,
          "name": "D5",
          "ticks": 333824,
          "time": 489,
          "velocity": 0.47244094488188976
        },
        {
          "duration": 0.38232421875,
          "durationTicks": 261,
          "midi": 73,
          "name": "C#5",
          "ticks": 334592,
          "time": 490.125,
          "velocity": 0.4566929133858268
        },
        {
          "duration": 0.35595703125,
          "durationTicks": 243,
          "midi": 72,
          "name": "C5",
          "ticks": 334848,
          "time": 490.5,
          "velocity": 0.4330708661417323
        },
        {
          "duration": 0.1875,
          "durationTicks": 128,
          "midi": 67,
          "name": "G4",
          "ticks": 336128,
          "time": 492.375,
          "velocity": 0.41732283464566927
        },
        {
          "duration": 0.38232421875,
          "durationTicks": 261,
          "midi": 67,
          "name": "G4",
          "ticks": 336384,
          "time": 492.75,
          "velocity": 0.49606299212598426
        },
        {
          "duration": 0.35595703125,
          "durationTicks": 243,
          "midi": 69,
          "name": "A4",
          "ticks": 336640,
          "time": 493.125,
          "velocity": 0.5354330708661418
        },
        {
          "duration": 0.57275390625,
          "durationTicks": 391,
          "midi": 70,
          "name": "A#4",
          "ticks": 336896,
          "time": 493.5,
          "velocity": 0.5275590551181102
        },
        {
          "duration": 0.17724609375,
          "durationTicks": 121,
          "midi": 72,
          "name": "C5",
          "ticks": 337280,
          "time": 494.0625,
          "velocity": 0.5984251968503937
        },
        {
          "duration": 0.375,
          "durationTicks": 256,
          "midi": 69,
          "name": "A4",
          "ticks": 337408,
          "time": 494.25,
          "velocity": 0.47244094488188976
        },
        {
          "duration": 1.14697265625,
          "durationTicks": 783,
          "midi": 75,
          "name": "D#5",
          "ticks": 337920,
          "time": 495,
          "velocity": 0.4330708661417323
        },
        {
          "duration": 0.38232421875,
          "durationTicks": 261,
          "midi": 74,
          "name": "D5",
          "ticks": 338688,
          "time": 496.125,
          "velocity": 0.4015748031496063
        },
        {
          "duration": 0.38232421875,
          "durationTicks": 261,
          "midi": 73,
          "name": "C#5",
          "ticks": 338944,
          "time": 496.5,
          "velocity": 0.4330708661417323
        },
        {
          "duration": 0.38232421875,
          "durationTicks": 261,
          "midi": 72,
          "name": "C5",
          "ticks": 339200,
          "time": 496.875,
          "velocity": 0.4015748031496063
        },
        {
          "duration": 0.38232421875,
          "durationTicks": 261,
          "midi": 71,
          "name": "B4",
          "ticks": 339456,
          "time": 497.25,
          "velocity": 0.48031496062992124
        },
        {
          "duration": 0.35595703125,
          "durationTicks": 243,
          "midi": 70,
          "name": "A#4",
          "ticks": 339712,
          "time": 497.625,
          "velocity": 0.4330708661417323
        },
        {
          "duration": 0.38232421875,
          "durationTicks": 261,
          "midi": 69,
          "name": "A4",
          "ticks": 339968,
          "time": 498,
          "velocity": 0.4409448818897638
        },
        {
          "duration": 0.7646484375,
          "durationTicks": 522,
          "midi": 72,
          "name": "C5",
          "ticks": 340224,
          "time": 498.375,
          "velocity": 0.47244094488188976
        },
        {
          "duration": 0.35595703125,
          "durationTicks": 243,
          "midi": 66,
          "name": "F#4",
          "ticks": 340736,
          "time": 499.125,
          "velocity": 0.3700787401574803
        },
        {
          "duration": 0.375,
          "durationTicks": 256,
          "midi": 67,
          "name": "G4",
          "ticks": 340992,
          "time": 499.5,
          "velocity": 0.4881889763779528
        },
        {
          "duration": 1.14697265625,
          "durationTicks": 783,
          "midi": 72,
          "name": "C5",
          "ticks": 343040,
          "time": 502.5,
          "velocity": 0.41732283464566927
        },
        {
          "duration": 0.09521484375,
          "durationTicks": 65,
          "midi": 74,
          "name": "D5",
          "ticks": 343808,
          "time": 503.625,
          "velocity": 0.4094488188976378
        },
        {
          "duration": 0.09521484375,
          "durationTicks": 65,
          "midi": 72,
          "name": "C5",
          "ticks": 343872,
          "time": 503.71875,
          "velocity": 0.44881889763779526
        },
        {
          "duration": 0.09521484375,
          "durationTicks": 65,
          "midi": 70,
          "name": "A#4",
          "ticks": 343936,
          "time": 503.8125,
          "velocity": 0.4409448818897638
        },
        {
          "duration": 0.09521484375,
          "durationTicks": 65,
          "midi": 69,
          "name": "A4",
          "ticks": 344000,
          "time": 503.90625,
          "velocity": 0.44881889763779526
        },
        {
          "duration": 0.35595703125,
          "durationTicks": 243,
          "midi": 67,
          "name": "G4",
          "ticks": 344064,
          "time": 504,
          "velocity": 0.4409448818897638
        },
        {
          "duration": 1.14697265625,
          "durationTicks": 783,
          "midi": 75,
          "name": "D#5",
          "ticks": 346112,
          "time": 507,
          "velocity": 0.4409448818897638
        },
        {
          "duration": 0.38232421875,
          "durationTicks": 261,
          "midi": 74,
          "name": "D5",
          "ticks": 346880,
          "time": 508.125,
          "velocity": 0.4251968503937008
        },
        {
          "duration": 0.38232421875,
          "durationTicks": 261,
          "midi": 73,
          "name": "C#5",
          "ticks": 347136,
          "time": 508.5,
          "velocity": 0.4566929133858268
        },
        {
          "duration": 0.38232421875,
          "durationTicks": 261,
          "midi": 72,
          "name": "C5",
          "ticks": 347392,
          "time": 508.875,
          "velocity": 0.3937007874015748
        },
        {
          "duration": 0.38232421875,
          "durationTicks": 261,
          "midi": 71,
          "name": "B4",
          "ticks": 347648,
          "time": 509.25,
          "velocity": 0.4566929133858268
        },
        {
          "duration": 0.35595703125,
          "durationTicks": 243,
          "midi": 70,
          "name": "A#4",
          "ticks": 347904,
          "time": 509.625,
          "velocity": 0.4251968503937008
        },
        {
          "duration": 1.14697265625,
          "durationTicks": 783,
          "midi": 68,
          "name": "G#4",
          "ticks": 348160,
          "time": 510,
          "velocity": 0.4645669291338583
        },
        {
          "duration": 0.35595703125,
          "durationTicks": 243,
          "midi": 67,
          "name": "G4",
          "ticks": 348928,
          "time": 511.125,
          "velocity": 0.44881889763779526
        },
        {
          "duration": 1.14697265625,
          "durationTicks": 783,
          "midi": 68,
          "name": "G#4",
          "ticks": 349184,
          "time": 511.5,
          "velocity": 0.48031496062992124
        },
        {
          "duration": 0.35595703125,
          "durationTicks": 243,
          "midi": 67,
          "name": "G4",
          "ticks": 349952,
          "time": 512.625,
          "velocity": 0.49606299212598426
        },
        {
          "duration": 1.14697265625,
          "durationTicks": 783,
          "midi": 68,
          "name": "G#4",
          "ticks": 350208,
          "time": 513,
          "velocity": 0.5118110236220472
        },
        {
          "duration": 0.35595703125,
          "durationTicks": 243,
          "midi": 67,
          "name": "G4",
          "ticks": 350976,
          "time": 514.125,
          "velocity": 0.4409448818897638
        },
        {
          "duration": 1.14697265625,
          "durationTicks": 783,
          "midi": 68,
          "name": "G#4",
          "ticks": 351232,
          "time": 514.5,
          "velocity": 0.5039370078740157
        },
        {
          "duration": 0.35595703125,
          "durationTicks": 243,
          "midi": 67,
          "name": "G4",
          "ticks": 352000,
          "time": 515.625,
          "velocity": 0.41732283464566927
        },
        {
          "duration": 0.1875,
          "durationTicks": 128,
          "midi": 68,
          "name": "G#4",
          "ticks": 352256,
          "time": 516,
          "velocity": 0.5039370078740157
        },
        {
          "duration": 0.1875,
          "durationTicks": 128,
          "midi": 80,
          "name": "G#5",
          "ticks": 352384,
          "time": 516.1875,
          "velocity": 0.6220472440944882
        },
        {
          "duration": 0.1875,
          "durationTicks": 128,
          "midi": 80,
          "name": "G#5",
          "ticks": 352512,
          "time": 516.375,
          "velocity": 0.5433070866141733
        },
        {
          "duration": 0.1875,
          "durationTicks": 128,
          "midi": 80,
          "name": "G#5",
          "ticks": 352640,
          "time": 516.5625,
          "velocity": 0.5118110236220472
        },
        {
          "duration": 0.1875,
          "durationTicks": 128,
          "midi": 80,
          "name": "G#5",
          "ticks": 352768,
          "time": 516.75,
          "velocity": 0.5118110236220472
        },
        {
          "duration": 0.1875,
          "durationTicks": 128,
          "midi": 80,
          "name": "G#5",
          "ticks": 352896,
          "time": 516.9375,
          "velocity": 0.5275590551181102
        },
        {
          "duration": 0.1875,
          "durationTicks": 128,
          "midi": 80,
          "name": "G#5",
          "ticks": 353024,
          "time": 517.125,
          "velocity": 0.5590551181102362
        },
        {
          "duration": 0.1875,
          "durationTicks": 128,
          "midi": 80,
          "name": "G#5",
          "ticks": 353152,
          "time": 517.3125,
          "velocity": 0.5905511811023622
        },
        {
          "duration": 0.1875,
          "durationTicks": 128,
          "midi": 80,
          "name": "G#5",
          "ticks": 353280,
          "time": 517.5,
          "velocity": 0.5748031496062992
        },
        {
          "duration": 0.1875,
          "durationTicks": 128,
          "midi": 80,
          "name": "G#5",
          "ticks": 353408,
          "time": 517.6875,
          "velocity": 0.5433070866141733
        },
        {
          "duration": 0.1875,
          "durationTicks": 128,
          "midi": 80,
          "name": "G#5",
          "ticks": 353536,
          "time": 517.875,
          "velocity": 0.5275590551181102
        },
        {
          "duration": 0.1875,
          "durationTicks": 128,
          "midi": 80,
          "name": "G#5",
          "ticks": 353664,
          "time": 518.0625,
          "velocity": 0.5748031496062992
        },
        {
          "duration": 0.1875,
          "durationTicks": 128,
          "midi": 80,
          "name": "G#5",
          "ticks": 353792,
          "time": 518.25,
          "velocity": 0.5590551181102362
        },
        {
          "duration": 0.1875,
          "durationTicks": 128,
          "midi": 80,
          "name": "G#5",
          "ticks": 353920,
          "time": 518.4375,
          "velocity": 0.5511811023622047
        },
        {
          "duration": 0.1875,
          "durationTicks": 128,
          "midi": 80,
          "name": "G#5",
          "ticks": 354048,
          "time": 518.625,
          "velocity": 0.5118110236220472
        },
        {
          "duration": 0.1875,
          "durationTicks": 128,
          "midi": 80,
          "name": "G#5",
          "ticks": 354176,
          "time": 518.8125,
          "velocity": 0.5433070866141733
        },
        {
          "duration": 1.125,
          "durationTicks": 768,
          "midi": 81,
          "name": "A5",
          "ticks": 354304,
          "time": 519,
          "velocity": 0.7795275590551181
        },
        {
          "duration": 0.1904296875,
          "durationTicks": 130,
          "midi": 81,
          "name": "A5",
          "ticks": 355072,
          "time": 520.125,
          "velocity": 0.7637795275590551
        },
        {
          "duration": 0.09521484375,
          "durationTicks": 65,
          "midi": 79,
          "name": "G5",
          "ticks": 355200,
          "time": 520.3125,
          "velocity": 0.7086614173228346
        },
        {
          "duration": 0.087890625,
          "durationTicks": 60,
          "midi": 81,
          "name": "A5",
          "ticks": 355264,
          "time": 520.40625,
          "velocity": 0.8267716535433071
        },
        {
          "duration": 1.125,
          "durationTicks": 768,
          "midi": 82,
          "name": "A#5",
          "ticks": 355328,
          "time": 520.5,
          "velocity": 0.8110236220472441
        },
        {
          "duration": 0.1904296875,
          "durationTicks": 130,
          "midi": 82,
          "name": "A#5",
          "ticks": 356096,
          "time": 521.625,
          "velocity": 0.7795275590551181
        },
        {
          "duration": 0.09521484375,
          "durationTicks": 65,
          "midi": 81,
          "name": "A5",
          "ticks": 356224,
          "time": 521.8125,
          "velocity": 0.7244094488188977
        },
        {
          "duration": 0.087890625,
          "durationTicks": 60,
          "midi": 82,
          "name": "A#5",
          "ticks": 356288,
          "time": 521.90625,
          "velocity": 0.8031496062992126
        },
        {
          "duration": 1.125,
          "durationTicks": 768,
          "midi": 83,
          "name": "B5",
          "ticks": 356352,
          "time": 522,
          "velocity": 0.8110236220472441
        },
        {
          "duration": 0.1904296875,
          "durationTicks": 130,
          "midi": 83,
          "name": "B5",
          "ticks": 357120,
          "time": 523.125,
          "velocity": 0.7637795275590551
        },
        {
          "duration": 0.09521484375,
          "durationTicks": 65,
          "midi": 81,
          "name": "A5",
          "ticks": 357248,
          "time": 523.3125,
          "velocity": 0.7322834645669292
        },
        {
          "duration": 0.087890625,
          "durationTicks": 60,
          "midi": 83,
          "name": "B5",
          "ticks": 357312,
          "time": 523.40625,
          "velocity": 0.8031496062992126
        },
        {
          "duration": 1.125,
          "durationTicks": 768,
          "midi": 84,
          "name": "C6",
          "ticks": 357376,
          "time": 523.5,
          "velocity": 0.7874015748031497
        },
        {
          "duration": 0.1904296875,
          "durationTicks": 130,
          "midi": 84,
          "name": "C6",
          "ticks": 358144,
          "time": 524.625,
          "velocity": 0.8031496062992126
        },
        {
          "duration": 0.09521484375,
          "durationTicks": 65,
          "midi": 83,
          "name": "B5",
          "ticks": 358272,
          "time": 524.8125,
          "velocity": 0.8031496062992126
        },
        {
          "duration": 0.09521484375,
          "durationTicks": 65,
          "midi": 84,
          "name": "C6",
          "ticks": 358336,
          "time": 524.90625,
          "velocity": 0.8267716535433071
        },
        {
          "duration": 0.35595703125,
          "durationTicks": 243,
          "midi": 85,
          "name": "C#6",
          "ticks": 358400,
          "time": 525,
          "velocity": 0.8346456692913385
        },
        {
          "duration": 0.1875,
          "durationTicks": 128,
          "midi": 85,
          "name": "C#6",
          "ticks": 358656,
          "time": 525.375,
          "velocity": 0.7559055118110236
        },
        {
          "duration": 0.1875,
          "durationTicks": 128,
          "midi": 85,
          "name": "C#6",
          "ticks": 358912,
          "time": 525.75,
          "velocity": 0.8031496062992126
        },
        {
          "duration": 0.1875,
          "durationTicks": 128,
          "midi": 85,
          "name": "C#6",
          "ticks": 359168,
          "time": 526.125,
          "velocity": 0.7795275590551181
        },
        {
          "duration": 0.1083984375,
          "durationTicks": 74,
          "midi": 62,
          "name": "D4",
          "ticks": 359350,
          "time": 526.3916015625,
          "velocity": 1
        },
        {
          "duration": 0.064453125,
          "durationTicks": 44,
          "midi": 74,
          "name": "D5",
          "ticks": 359380,
          "time": 526.435546875,
          "velocity": 1
        },
        {
          "duration": 1.423828125,
          "durationTicks": 972,
          "midi": 86,
          "name": "D6",
          "ticks": 359424,
          "time": 526.5,
          "velocity": 1
        },
        {
          "duration": 1.3125,
          "durationTicks": 896,
          "midi": 78,
          "name": "F#5",
          "ticks": 360448,
          "time": 528,
          "velocity": 0.6692913385826772
        },
        {
          "duration": 0.09375,
          "durationTicks": 64,
          "midi": 76,
          "name": "E5",
          "ticks": 361344,
          "time": 529.3125,
          "velocity": 0.6850393700787402
        },
        {
          "duration": 0.09375,
          "durationTicks": 64,
          "midi": 78,
          "name": "F#5",
          "ticks": 361408,
          "time": 529.40625,
          "velocity": 0.8267716535433071
        },
        {
          "duration": 0.375,
          "durationTicks": 256,
          "midi": 79,
          "name": "G5",
          "ticks": 361472,
          "time": 529.5,
          "velocity": 0.8267716535433071
        },
        {
          "duration": 0.1875,
          "durationTicks": 128,
          "midi": 58,
          "name": "A#3",
          "ticks": 361728,
          "time": 529.875,
          "velocity": 0.6456692913385826
        },
        {
          "duration": 0.1875,
          "durationTicks": 128,
          "midi": 58,
          "name": "A#3",
          "ticks": 361856,
          "time": 530.0625,
          "velocity": 0.7480314960629921
        },
        {
          "duration": 0.1875,
          "durationTicks": 128,
          "midi": 58,
          "name": "A#3",
          "ticks": 361984,
          "time": 530.25,
          "velocity": 0.7716535433070866
        },
        {
          "duration": 0.1875,
          "durationTicks": 128,
          "midi": 58,
          "name": "A#3",
          "ticks": 362112,
          "time": 530.4375,
          "velocity": 0.7401574803149606
        },
        {
          "duration": 0.1875,
          "durationTicks": 128,
          "midi": 60,
          "name": "C4",
          "ticks": 362240,
          "time": 530.625,
          "velocity": 0.7952755905511811
        },
        {
          "duration": 0.1875,
          "durationTicks": 128,
          "midi": 60,
          "name": "C4",
          "ticks": 362368,
          "time": 530.8125,
          "velocity": 0.7874015748031497
        },
        {
          "duration": 0.1875,
          "durationTicks": 128,
          "midi": 61,
          "name": "C#4",
          "ticks": 362496,
          "time": 531,
          "velocity": 0.8110236220472441
        },
        {
          "duration": 0.1875,
          "durationTicks": 128,
          "midi": 61,
          "name": "C#4",
          "ticks": 362624,
          "time": 531.1875,
          "velocity": 0.7795275590551181
        },
        {
          "duration": 0.1875,
          "durationTicks": 128,
          "midi": 62,
          "name": "D4",
          "ticks": 362752,
          "time": 531.375,
          "velocity": 0.8346456692913385
        },
        {
          "duration": 0.1875,
          "durationTicks": 128,
          "midi": 62,
          "name": "D4",
          "ticks": 362880,
          "time": 531.5625,
          "velocity": 0.7874015748031497
        },
        {
          "duration": 0.1875,
          "durationTicks": 128,
          "midi": 63,
          "name": "D#4",
          "ticks": 363008,
          "time": 531.75,
          "velocity": 0.7716535433070866
        },
        {
          "duration": 0.1875,
          "durationTicks": 128,
          "midi": 63,
          "name": "D#4",
          "ticks": 363136,
          "time": 531.9375,
          "velocity": 0.7952755905511811
        },
        {
          "duration": 0.1875,
          "durationTicks": 128,
          "midi": 64,
          "name": "E4",
          "ticks": 363264,
          "time": 532.125,
          "velocity": 0.8031496062992126
        },
        {
          "duration": 0.1875,
          "durationTicks": 128,
          "midi": 64,
          "name": "E4",
          "ticks": 363392,
          "time": 532.3125,
          "velocity": 0.7795275590551181
        },
        {
          "duration": 0.375,
          "durationTicks": 256,
          "midi": 65,
          "name": "F4",
          "ticks": 363520,
          "time": 532.5,
          "velocity": 0.8346456692913385
        },
        {
          "duration": 0.09375,
          "durationTicks": 64,
          "midi": 65,
          "name": "F4",
          "ticks": 363968,
          "time": 533.15625,
          "velocity": 0.6929133858267716
        },
        {
          "duration": 0.375,
          "durationTicks": 256,
          "midi": 63,
          "name": "D#4",
          "ticks": 364032,
          "time": 533.25,
          "velocity": 0.6929133858267716
        },
        {
          "duration": 0.09375,
          "durationTicks": 64,
          "midi": 63,
          "name": "D#4",
          "ticks": 364480,
          "time": 533.90625,
          "velocity": 0.6850393700787402
        },
        {
          "duration": 0.375,
          "durationTicks": 256,
          "midi": 72,
          "name": "C5",
          "ticks": 364544,
          "time": 534,
          "velocity": 0.952755905511811
        },
        {
          "duration": 0.09375,
          "durationTicks": 64,
          "midi": 72,
          "name": "C5",
          "ticks": 364992,
          "time": 534.65625,
          "velocity": 0.7401574803149606
        },
        {
          "duration": 0.375,
          "durationTicks": 256,
          "midi": 70,
          "name": "A#4",
          "ticks": 365056,
          "time": 534.75,
          "velocity": 0.7322834645669292
        },
        {
          "duration": 0.09375,
          "durationTicks": 64,
          "midi": 70,
          "name": "A#4",
          "ticks": 365504,
          "time": 535.40625,
          "velocity": 0.6771653543307087
        },
        {
          "duration": 0.9375,
          "durationTicks": 640,
          "midi": 75,
          "name": "D#5",
          "ticks": 365568,
          "time": 535.5,
          "velocity": 0.8582677165354331
        },
        {
          "duration": 0.09375,
          "durationTicks": 64,
          "midi": 74,
          "name": "D5",
          "ticks": 366208,
          "time": 536.4375,
          "velocity": 0.4330708661417323
        },
        {
          "duration": 0.09375,
          "durationTicks": 64,
          "midi": 72,
          "name": "C5",
          "ticks": 366336,
          "time": 536.625,
          "velocity": 0.4645669291338583
        },
        {
          "duration": 0.09375,
          "durationTicks": 64,
          "midi": 70,
          "name": "A#4",
          "ticks": 366464,
          "time": 536.8125,
          "velocity": 0.4645669291338583
        },
        {
          "duration": 0.09375,
          "durationTicks": 64,
          "midi": 69,
          "name": "A4",
          "ticks": 366592,
          "time": 537,
          "velocity": 0.4251968503937008
        },
        {
          "duration": 0.09375,
          "durationTicks": 64,
          "midi": 67,
          "name": "G4",
          "ticks": 366720,
          "time": 537.1875,
          "velocity": 0.3937007874015748
        },
        {
          "duration": 0.09375,
          "durationTicks": 64,
          "midi": 66,
          "name": "F#4",
          "ticks": 366848,
          "time": 537.375,
          "velocity": 0.4566929133858268
        },
        {
          "duration": 0.09375,
          "durationTicks": 64,
          "midi": 63,
          "name": "D#4",
          "ticks": 366976,
          "time": 537.5625,
          "velocity": 0.4251968503937008
        },
        {
          "duration": 0.09375,
          "durationTicks": 64,
          "midi": 62,
          "name": "D4",
          "ticks": 367104,
          "time": 537.75,
          "velocity": 0.4409448818897638
        },
        {
          "duration": 0.09375,
          "durationTicks": 64,
          "midi": 60,
          "name": "C4",
          "ticks": 367232,
          "time": 537.9375,
          "velocity": 0.44881889763779526
        },
        {
          "duration": 0.09375,
          "durationTicks": 64,
          "midi": 58,
          "name": "A#3",
          "ticks": 367360,
          "time": 538.125,
          "velocity": 0.4409448818897638
        },
        {
          "duration": 0.09375,
          "durationTicks": 64,
          "midi": 57,
          "name": "A3",
          "ticks": 367488,
          "time": 538.3125,
          "velocity": 0.4409448818897638
        },
        {
          "duration": 0.375,
          "durationTicks": 256,
          "midi": 55,
          "name": "G3",
          "ticks": 367616,
          "time": 538.5,
          "velocity": 0.4566929133858268
        },
        {
          "duration": 1.5,
          "durationTicks": 1024,
          "midi": 79,
          "name": "G5",
          "ticks": 368128,
          "time": 539.25,
          "velocity": 0.4409448818897638
        },
        {
          "duration": 0.35595703125,
          "durationTicks": 243,
          "midi": 78,
          "name": "F#5",
          "ticks": 369152,
          "time": 540.75,
          "velocity": 0.4566929133858268
        },
        {
          "duration": 1.5,
          "durationTicks": 1024,
          "midi": 67,
          "name": "G4",
          "ticks": 370176,
          "time": 542.25,
          "velocity": 0.44881889763779526
        },
        {
          "duration": 0.35595703125,
          "durationTicks": 243,
          "midi": 66,
          "name": "F#4",
          "ticks": 371200,
          "time": 543.75,
          "velocity": 0.4251968503937008
        },
        {
          "duration": 0.1904296875,
          "durationTicks": 130,
          "midi": 80,
          "name": "G#5",
          "ticks": 372480,
          "time": 545.625,
          "velocity": 0.6692913385826772
        },
        {
          "duration": 0.17724609375,
          "durationTicks": 121,
          "midi": 79,
          "name": "G5",
          "ticks": 372608,
          "time": 545.8125,
          "velocity": 0.6220472440944882
        },
        {
          "duration": 0.375,
          "durationTicks": 256,
          "midi": 79,
          "name": "G5",
          "ticks": 372736,
          "time": 546,
          "velocity": 0.7480314960629921
        },
        {
          "duration": 0.1904296875,
          "durationTicks": 130,
          "midi": 80,
          "name": "G#5",
          "ticks": 372992,
          "time": 546.375,
          "velocity": 0.8188976377952756
        },
        {
          "duration": 0.17724609375,
          "durationTicks": 121,
          "midi": 79,
          "name": "G5",
          "ticks": 373120,
          "time": 546.5625,
          "velocity": 0.7716535433070866
        },
        {
          "duration": 0.375,
          "durationTicks": 256,
          "midi": 79,
          "name": "G5",
          "ticks": 373248,
          "time": 546.75,
          "velocity": 0.7795275590551181
        },
        {
          "duration": 0.1904296875,
          "durationTicks": 130,
          "midi": 80,
          "name": "G#5",
          "ticks": 373504,
          "time": 547.125,
          "velocity": 0.8267716535433071
        },
        {
          "duration": 0.17724609375,
          "durationTicks": 121,
          "midi": 79,
          "name": "G5",
          "ticks": 373632,
          "time": 547.3125,
          "velocity": 0.7874015748031497
        },
        {
          "duration": 0.75,
          "durationTicks": 512,
          "midi": 79,
          "name": "G5",
          "ticks": 373760,
          "time": 547.5,
          "velocity": 0.7952755905511811
        },
        {
          "duration": 0.57275390625,
          "durationTicks": 391,
          "midi": 87,
          "name": "D#6",
          "ticks": 374272,
          "time": 548.25,
          "velocity": 0.9212598425196851
        },
        {
          "duration": 0.17724609375,
          "durationTicks": 121,
          "midi": 84,
          "name": "C6",
          "ticks": 374656,
          "time": 548.8125,
          "velocity": 0.8740157480314961
        },
        {
          "duration": 0.57275390625,
          "durationTicks": 391,
          "midi": 82,
          "name": "A#5",
          "ticks": 374784,
          "time": 549,
          "velocity": 0.6771653543307087
        },
        {
          "duration": 0.17724609375,
          "durationTicks": 121,
          "midi": 86,
          "name": "D6",
          "ticks": 375168,
          "time": 549.5625,
          "velocity": 0.7480314960629921
        },
        {
          "duration": 0.57275390625,
          "durationTicks": 391,
          "midi": 78,
          "name": "F#5",
          "ticks": 375296,
          "time": 549.75,
          "velocity": 0.6220472440944882
        },
        {
          "duration": 0.17724609375,
          "durationTicks": 121,
          "midi": 81,
          "name": "A5",
          "ticks": 375680,
          "time": 550.3125,
          "velocity": 0.6614173228346457
        },
        {
          "duration": 0.1875,
          "durationTicks": 128,
          "midi": 79,
          "name": "G5",
          "ticks": 375808,
          "time": 550.5,
          "velocity": 0.7165354330708661
        },
        {
          "duration": 1.5,
          "durationTicks": 1024,
          "midi": 84,
          "name": "C6",
          "ticks": 377344,
          "time": 552.75,
          "velocity": 0.41732283464566927
        },
        {
          "duration": 0.375,
          "durationTicks": 256,
          "midi": 82,
          "name": "A#5",
          "ticks": 378368,
          "time": 554.25,
          "velocity": 0.48031496062992124
        },
        {
          "duration": 1.5,
          "durationTicks": 1024,
          "midi": 72,
          "name": "C5",
          "ticks": 379392,
          "time": 555.75,
          "velocity": 0.4251968503937008
        },
        {
          "duration": 0.375,
          "durationTicks": 256,
          "midi": 70,
          "name": "A#4",
          "ticks": 380416,
          "time": 557.25,
          "velocity": 0.41732283464566927
        },
        {
          "duration": 0.1904296875,
          "durationTicks": 130,
          "midi": 80,
          "name": "G#5",
          "ticks": 380672,
          "time": 557.625,
          "velocity": 0.968503937007874
        },
        {
          "duration": 0.17724609375,
          "durationTicks": 121,
          "midi": 79,
          "name": "G5",
          "ticks": 380800,
          "time": 557.8125,
          "velocity": 0.9448818897637795
        },
        {
          "duration": 0.375,
          "durationTicks": 256,
          "midi": 79,
          "name": "G5",
          "ticks": 380928,
          "time": 558,
          "velocity": 0.7637795275590551
        },
        {
          "duration": 0.1904296875,
          "durationTicks": 130,
          "midi": 80,
          "name": "G#5",
          "ticks": 381184,
          "time": 558.375,
          "velocity": 0.7874015748031497
        },
        {
          "duration": 0.17724609375,
          "durationTicks": 121,
          "midi": 79,
          "name": "G5",
          "ticks": 381312,
          "time": 558.5625,
          "velocity": 0.7559055118110236
        },
        {
          "duration": 0.375,
          "durationTicks": 256,
          "midi": 79,
          "name": "G5",
          "ticks": 381440,
          "time": 558.75,
          "velocity": 0.7559055118110236
        },
        {
          "duration": 0.1904296875,
          "durationTicks": 130,
          "midi": 80,
          "name": "G#5",
          "ticks": 381696,
          "time": 559.125,
          "velocity": 0.7795275590551181
        },
        {
          "duration": 0.17724609375,
          "durationTicks": 121,
          "midi": 79,
          "name": "G5",
          "ticks": 381824,
          "time": 559.3125,
          "velocity": 0.7795275590551181
        },
        {
          "duration": 0.75,
          "durationTicks": 512,
          "midi": 79,
          "name": "G5",
          "ticks": 381952,
          "time": 559.5,
          "velocity": 0.7716535433070866
        },
        {
          "duration": 0.57275390625,
          "durationTicks": 391,
          "midi": 87,
          "name": "D#6",
          "ticks": 382464,
          "time": 560.25,
          "velocity": 0.9133858267716536
        },
        {
          "duration": 0.17724609375,
          "durationTicks": 121,
          "midi": 84,
          "name": "C6",
          "ticks": 382848,
          "time": 560.8125,
          "velocity": 0.8582677165354331
        },
        {
          "duration": 0.57275390625,
          "durationTicks": 391,
          "midi": 82,
          "name": "A#5",
          "ticks": 382976,
          "time": 561,
          "velocity": 0.7007874015748031
        },
        {
          "duration": 0.17724609375,
          "durationTicks": 121,
          "midi": 79,
          "name": "G5",
          "ticks": 383360,
          "time": 561.5625,
          "velocity": 0.6299212598425197
        },
        {
          "duration": 0.57275390625,
          "durationTicks": 391,
          "midi": 86,
          "name": "D6",
          "ticks": 383488,
          "time": 561.75,
          "velocity": 0.889763779527559
        },
        {
          "duration": 0.17724609375,
          "durationTicks": 121,
          "midi": 78,
          "name": "F#5",
          "ticks": 383872,
          "time": 562.3125,
          "velocity": 0.7244094488188977
        },
        {
          "duration": 0.1875,
          "durationTicks": 128,
          "midi": 79,
          "name": "G5",
          "ticks": 384000,
          "time": 562.5,
          "velocity": 0.7637795275590551
        },
        {
          "duration": 0.1875,
          "durationTicks": 128,
          "midi": 74,
          "name": "D5",
          "ticks": 384128,
          "time": 562.6875,
          "velocity": 0.6850393700787402
        },
        {
          "duration": 0.1875,
          "durationTicks": 128,
          "midi": 82,
          "name": "A#5",
          "ticks": 384256,
          "time": 562.875,
          "velocity": 0.9133858267716536
        },
        {
          "duration": 0.1875,
          "durationTicks": 128,
          "midi": 81,
          "name": "A5",
          "ticks": 384384,
          "time": 563.0625,
          "velocity": 0.7244094488188977
        },
        {
          "duration": 0.1875,
          "durationTicks": 128,
          "midi": 79,
          "name": "G5",
          "ticks": 384512,
          "time": 563.25,
          "velocity": 0.7401574803149606
        },
        {
          "duration": 0.1875,
          "durationTicks": 128,
          "midi": 77,
          "name": "F5",
          "ticks": 384640,
          "time": 563.4375,
          "velocity": 0.7244094488188977
        },
        {
          "duration": 0.1875,
          "durationTicks": 128,
          "midi": 75,
          "name": "D#5",
          "ticks": 384768,
          "time": 563.625,
          "velocity": 0.7480314960629921
        },
        {
          "duration": 0.1875,
          "durationTicks": 128,
          "midi": 74,
          "name": "D5",
          "ticks": 384896,
          "time": 563.8125,
          "velocity": 0.7480314960629921
        },
        {
          "duration": 0.1875,
          "durationTicks": 128,
          "midi": 72,
          "name": "C5",
          "ticks": 385024,
          "time": 564,
          "velocity": 0.7086614173228346
        },
        {
          "duration": 0.1875,
          "durationTicks": 128,
          "midi": 70,
          "name": "A#4",
          "ticks": 385152,
          "time": 564.1875,
          "velocity": 0.6771653543307087
        },
        {
          "duration": 0.1875,
          "durationTicks": 128,
          "midi": 69,
          "name": "A4",
          "ticks": 385280,
          "time": 564.375,
          "velocity": 0.7165354330708661
        },
        {
          "duration": 0.1875,
          "durationTicks": 128,
          "midi": 67,
          "name": "G4",
          "ticks": 385408,
          "time": 564.5625,
          "velocity": 0.7244094488188977
        },
        {
          "duration": 0.1875,
          "durationTicks": 128,
          "midi": 66,
          "name": "F#4",
          "ticks": 385536,
          "time": 564.75,
          "velocity": 0.6850393700787402
        },
        {
          "duration": 0.1875,
          "durationTicks": 128,
          "midi": 63,
          "name": "D#4",
          "ticks": 385664,
          "time": 564.9375,
          "velocity": 0.6929133858267716
        },
        {
          "duration": 0.1875,
          "durationTicks": 128,
          "midi": 62,
          "name": "D4",
          "ticks": 385792,
          "time": 565.125,
          "velocity": 0.7007874015748031
        },
        {
          "duration": 0.1875,
          "durationTicks": 128,
          "midi": 60,
          "name": "C4",
          "ticks": 385920,
          "time": 565.3125,
          "velocity": 0.7007874015748031
        },
        {
          "duration": 0.375,
          "durationTicks": 256,
          "midi": 58,
          "name": "A#3",
          "ticks": 386048,
          "time": 565.5,
          "velocity": 0.7322834645669292
        },
        {
          "duration": 0.375,
          "durationTicks": 256,
          "midi": 74,
          "name": "D5",
          "ticks": 386304,
          "time": 565.875,
          "velocity": 0.9763779527559056
        },
        {
          "duration": 0.375,
          "durationTicks": 256,
          "midi": 75,
          "name": "D#5",
          "ticks": 386560,
          "time": 566.25,
          "velocity": 0.8740157480314961
        },
        {
          "duration": 0.375,
          "durationTicks": 256,
          "midi": 66,
          "name": "F#4",
          "ticks": 386816,
          "time": 566.625,
          "velocity": 0.6377952755905512
        },
        {
          "duration": 0.1875,
          "durationTicks": 128,
          "midi": 67,
          "name": "G4",
          "ticks": 387072,
          "time": 567,
          "velocity": 0.7637795275590551
        },
        {
          "duration": 0.1875,
          "durationTicks": 128,
          "midi": 62,
          "name": "D4",
          "ticks": 387200,
          "time": 567.1875,
          "velocity": 0.6692913385826772
        },
        {
          "duration": 0.1875,
          "durationTicks": 128,
          "midi": 70,
          "name": "A#4",
          "ticks": 387328,
          "time": 567.375,
          "velocity": 0.8818897637795275
        },
        {
          "duration": 0.1875,
          "durationTicks": 128,
          "midi": 69,
          "name": "A4",
          "ticks": 387456,
          "time": 567.5625,
          "velocity": 0.7401574803149606
        },
        {
          "duration": 0.1875,
          "durationTicks": 128,
          "midi": 67,
          "name": "G4",
          "ticks": 387584,
          "time": 567.75,
          "velocity": 0.6929133858267716
        },
        {
          "duration": 0.1875,
          "durationTicks": 128,
          "midi": 65,
          "name": "F4",
          "ticks": 387712,
          "time": 567.9375,
          "velocity": 0.6771653543307087
        },
        {
          "duration": 0.1875,
          "durationTicks": 128,
          "midi": 63,
          "name": "D#4",
          "ticks": 387840,
          "time": 568.125,
          "velocity": 0.7086614173228346
        },
        {
          "duration": 0.1875,
          "durationTicks": 128,
          "midi": 62,
          "name": "D4",
          "ticks": 387968,
          "time": 568.3125,
          "velocity": 0.7401574803149606
        },
        {
          "duration": 0.1875,
          "durationTicks": 128,
          "midi": 61,
          "name": "C#4",
          "ticks": 388096,
          "time": 568.5,
          "velocity": 0.7244094488188977
        },
        {
          "duration": 0.1875,
          "durationTicks": 128,
          "midi": 64,
          "name": "E4",
          "ticks": 388224,
          "time": 568.6875,
          "velocity": 0.8503937007874016
        },
        {
          "duration": 0.1875,
          "durationTicks": 128,
          "midi": 69,
          "name": "A4",
          "ticks": 388352,
          "time": 568.875,
          "velocity": 0.8661417322834646
        },
        {
          "duration": 0.1875,
          "durationTicks": 128,
          "midi": 67,
          "name": "G4",
          "ticks": 388480,
          "time": 569.0625,
          "velocity": 0.7007874015748031
        },
        {
          "duration": 0.1875,
          "durationTicks": 128,
          "midi": 66,
          "name": "F#4",
          "ticks": 388608,
          "time": 569.25,
          "velocity": 0.7559055118110236
        },
        {
          "duration": 0.1875,
          "durationTicks": 128,
          "midi": 63,
          "name": "D#4",
          "ticks": 388736,
          "time": 569.4375,
          "velocity": 0.7165354330708661
        },
        {
          "duration": 0.1875,
          "durationTicks": 128,
          "midi": 62,
          "name": "D4",
          "ticks": 388864,
          "time": 569.625,
          "velocity": 0.7322834645669292
        },
        {
          "duration": 0.1875,
          "durationTicks": 128,
          "midi": 60,
          "name": "C4",
          "ticks": 388992,
          "time": 569.8125,
          "velocity": 0.7322834645669292
        },
        {
          "duration": 0.375,
          "durationTicks": 256,
          "midi": 58,
          "name": "A#3",
          "ticks": 389120,
          "time": 570,
          "velocity": 0.7795275590551181
        },
        {
          "duration": 0.09375,
          "durationTicks": 64,
          "midi": 79,
          "name": "G5",
          "ticks": 389568,
          "time": 570.65625,
          "velocity": 0.7086614173228346
        },
        {
          "duration": 0.375,
          "durationTicks": 256,
          "midi": 79,
          "name": "G5",
          "ticks": 389632,
          "time": 570.75,
          "velocity": 0.7480314960629921
        },
        {
          "duration": 0.09375,
          "durationTicks": 64,
          "midi": 80,
          "name": "G#5",
          "ticks": 390080,
          "time": 571.40625,
          "velocity": 0.6929133858267716
        },
        {
          "duration": 0.375,
          "durationTicks": 256,
          "midi": 80,
          "name": "G#5",
          "ticks": 390144,
          "time": 571.5,
          "velocity": 0.7401574803149606
        },
        {
          "duration": 0.09375,
          "durationTicks": 64,
          "midi": 81,
          "name": "A5",
          "ticks": 390592,
          "time": 572.15625,
          "velocity": 0.6929133858267716
        },
        {
          "duration": 0.375,
          "durationTicks": 256,
          "midi": 81,
          "name": "A5",
          "ticks": 390656,
          "time": 572.25,
          "velocity": 0.8031496062992126
        },
        {
          "duration": 0.09375,
          "durationTicks": 64,
          "midi": 82,
          "name": "A#5",
          "ticks": 391104,
          "time": 572.90625,
          "velocity": 0.6771653543307087
        },
        {
          "duration": 0.375,
          "durationTicks": 256,
          "midi": 82,
          "name": "A#5",
          "ticks": 391168,
          "time": 573,
          "velocity": 0.7322834645669292
        },
        {
          "duration": 0.09375,
          "durationTicks": 64,
          "midi": 83,
          "name": "B5",
          "ticks": 391616,
          "time": 573.65625,
          "velocity": 0.6771653543307087
        },
        {
          "duration": 0.375,
          "durationTicks": 256,
          "midi": 83,
          "name": "B5",
          "ticks": 391680,
          "time": 573.75,
          "velocity": 0.7795275590551181
        },
        {
          "duration": 0.09375,
          "durationTicks": 64,
          "midi": 84,
          "name": "C6",
          "ticks": 392128,
          "time": 574.40625,
          "velocity": 0.6929133858267716
        },
        {
          "duration": 0.375,
          "durationTicks": 256,
          "midi": 84,
          "name": "C6",
          "ticks": 392192,
          "time": 574.5,
          "velocity": 0.7322834645669292
        },
        {
          "duration": 0.09375,
          "durationTicks": 64,
          "midi": 85,
          "name": "C#6",
          "ticks": 392640,
          "time": 575.15625,
          "velocity": 0.6850393700787402
        },
        {
          "duration": 0.375,
          "durationTicks": 256,
          "midi": 85,
          "name": "C#6",
          "ticks": 392704,
          "time": 575.25,
          "velocity": 0.7559055118110236
        },
        {
          "duration": 0.1904296875,
          "durationTicks": 130,
          "midi": 80,
          "name": "G#5",
          "ticks": 396032,
          "time": 580.125,
          "velocity": 0.4015748031496063
        },
        {
          "duration": 0.17724609375,
          "durationTicks": 121,
          "midi": 79,
          "name": "G5",
          "ticks": 396160,
          "time": 580.3125,
          "velocity": 0.3937007874015748
        },
        {
          "duration": 0.1875,
          "durationTicks": 128,
          "midi": 79,
          "name": "G5",
          "ticks": 396288,
          "time": 580.5,
          "velocity": 0.4881889763779528
        },
        {
          "duration": 0.1904296875,
          "durationTicks": 130,
          "midi": 80,
          "name": "G#5",
          "ticks": 396544,
          "time": 580.875,
          "velocity": 0.5118110236220472
        },
        {
          "duration": 0.17724609375,
          "durationTicks": 121,
          "midi": 79,
          "name": "G5",
          "ticks": 396672,
          "time": 581.0625,
          "velocity": 0.49606299212598426
        },
        {
          "duration": 0.1875,
          "durationTicks": 128,
          "midi": 79,
          "name": "G5",
          "ticks": 396800,
          "time": 581.25,
          "velocity": 0.44881889763779526
        },
        {
          "duration": 0.1904296875,
          "durationTicks": 130,
          "midi": 80,
          "name": "G#5",
          "ticks": 397056,
          "time": 581.625,
          "velocity": 0.5039370078740157
        },
        {
          "duration": 0.17724609375,
          "durationTicks": 121,
          "midi": 79,
          "name": "G5",
          "ticks": 397184,
          "time": 581.8125,
          "velocity": 0.5039370078740157
        },
        {
          "duration": 0.38232421875,
          "durationTicks": 261,
          "midi": 79,
          "name": "G5",
          "ticks": 397312,
          "time": 582,
          "velocity": 0.4409448818897638
        },
        {
          "duration": 0.7646484375,
          "durationTicks": 522,
          "midi": 84,
          "name": "C6",
          "ticks": 397568,
          "time": 582.375,
          "velocity": 0.5118110236220472
        },
        {
          "duration": 0.7119140625,
          "durationTicks": 486,
          "midi": 82,
          "name": "A#5",
          "ticks": 398080,
          "time": 583.125,
          "velocity": 0.47244094488188976
        },
        {
          "duration": 0.7646484375,
          "durationTicks": 522,
          "midi": 81,
          "name": "A5",
          "ticks": 398592,
          "time": 583.875,
          "velocity": 0.4409448818897638
        },
        {
          "duration": 0.35595703125,
          "durationTicks": 243,
          "midi": 79,
          "name": "G5",
          "ticks": 399104,
          "time": 584.625,
          "velocity": 0.4251968503937008
        },
        {
          "duration": 3,
          "durationTicks": 2048,
          "midi": 78,
          "name": "F#5",
          "ticks": 399360,
          "time": 585,
          "velocity": 0.4645669291338583
        },
        {
          "duration": 0.1904296875,
          "durationTicks": 130,
          "midi": 79,
          "name": "G5",
          "ticks": 401408,
          "time": 588,
          "velocity": 0.8346456692913385
        },
        {
          "duration": 0.17724609375,
          "durationTicks": 121,
          "midi": 74,
          "name": "D5",
          "ticks": 401536,
          "time": 588.1875,
          "velocity": 0.7322834645669292
        },
        {
          "duration": 0.1875,
          "durationTicks": 128,
          "midi": 82,
          "name": "A#5",
          "ticks": 401664,
          "time": 588.375,
          "velocity": 0.8661417322834646
        },
        {
          "duration": 0.1875,
          "durationTicks": 128,
          "midi": 79,
          "name": "G5",
          "ticks": 401792,
          "time": 588.5625,
          "velocity": 0.7637795275590551
        },
        {
          "duration": 0.1904296875,
          "durationTicks": 130,
          "midi": 78,
          "name": "F#5",
          "ticks": 401920,
          "time": 588.75,
          "velocity": 0.7244094488188977
        },
        {
          "duration": 0.17724609375,
          "durationTicks": 121,
          "midi": 74,
          "name": "D5",
          "ticks": 402048,
          "time": 588.9375,
          "velocity": 0.6535433070866141
        },
        {
          "duration": 0.1875,
          "durationTicks": 128,
          "midi": 81,
          "name": "A5",
          "ticks": 402176,
          "time": 589.125,
          "velocity": 0.8976377952755905
        },
        {
          "duration": 0.1875,
          "durationTicks": 128,
          "midi": 78,
          "name": "F#5",
          "ticks": 402304,
          "time": 589.3125,
          "velocity": 0.6771653543307087
        },
        {
          "duration": 0.1904296875,
          "durationTicks": 130,
          "midi": 79,
          "name": "G5",
          "ticks": 402432,
          "time": 589.5,
          "velocity": 0.7952755905511811
        },
        {
          "duration": 0.17724609375,
          "durationTicks": 121,
          "midi": 74,
          "name": "D5",
          "ticks": 402560,
          "time": 589.6875,
          "velocity": 0.6692913385826772
        },
        {
          "duration": 0.1875,
          "durationTicks": 128,
          "midi": 82,
          "name": "A#5",
          "ticks": 402688,
          "time": 589.875,
          "velocity": 0.8661417322834646
        },
        {
          "duration": 0.1875,
          "durationTicks": 128,
          "midi": 79,
          "name": "G5",
          "ticks": 402816,
          "time": 590.0625,
          "velocity": 0.7480314960629921
        },
        {
          "duration": 0.1904296875,
          "durationTicks": 130,
          "midi": 78,
          "name": "F#5",
          "ticks": 402944,
          "time": 590.25,
          "velocity": 0.7086614173228346
        },
        {
          "duration": 0.17724609375,
          "durationTicks": 121,
          "midi": 74,
          "name": "D5",
          "ticks": 403072,
          "time": 590.4375,
          "velocity": 0.6692913385826772
        },
        {
          "duration": 0.1875,
          "durationTicks": 128,
          "midi": 81,
          "name": "A5",
          "ticks": 403200,
          "time": 590.625,
          "velocity": 0.9133858267716536
        },
        {
          "duration": 0.1875,
          "durationTicks": 128,
          "midi": 78,
          "name": "F#5",
          "ticks": 403328,
          "time": 590.8125,
          "velocity": 0.7322834645669292
        },
        {
          "duration": 0.1904296875,
          "durationTicks": 130,
          "midi": 79,
          "name": "G5",
          "ticks": 403456,
          "time": 591,
          "velocity": 0.7874015748031497
        },
        {
          "duration": 0.17724609375,
          "durationTicks": 121,
          "midi": 74,
          "name": "D5",
          "ticks": 403584,
          "time": 591.1875,
          "velocity": 0.6692913385826772
        },
        {
          "duration": 0.1875,
          "durationTicks": 128,
          "midi": 82,
          "name": "A#5",
          "ticks": 403712,
          "time": 591.375,
          "velocity": 0.8818897637795275
        },
        {
          "duration": 0.1875,
          "durationTicks": 128,
          "midi": 79,
          "name": "G5",
          "ticks": 403840,
          "time": 591.5625,
          "velocity": 0.7716535433070866
        },
        {
          "duration": 0.1904296875,
          "durationTicks": 130,
          "midi": 78,
          "name": "F#5",
          "ticks": 403968,
          "time": 591.75,
          "velocity": 0.7165354330708661
        },
        {
          "duration": 0.17724609375,
          "durationTicks": 121,
          "midi": 74,
          "name": "D5",
          "ticks": 404096,
          "time": 591.9375,
          "velocity": 0.6377952755905512
        },
        {
          "duration": 0.1875,
          "durationTicks": 128,
          "midi": 81,
          "name": "A5",
          "ticks": 404224,
          "time": 592.125,
          "velocity": 0.905511811023622
        },
        {
          "duration": 0.1875,
          "durationTicks": 128,
          "midi": 78,
          "name": "F#5",
          "ticks": 404352,
          "time": 592.3125,
          "velocity": 0.7086614173228346
        },
        {
          "duration": 0.1904296875,
          "durationTicks": 130,
          "midi": 79,
          "name": "G5",
          "ticks": 404480,
          "time": 592.5,
          "velocity": 0.7795275590551181
        },
        {
          "duration": 0.17724609375,
          "durationTicks": 121,
          "midi": 82,
          "name": "A#5",
          "ticks": 404608,
          "time": 592.6875,
          "velocity": 0.8582677165354331
        },
        {
          "duration": 0.09375,
          "durationTicks": 64,
          "midi": 81,
          "name": "A5",
          "ticks": 404736,
          "time": 592.875,
          "velocity": 0.7480314960629921
        },
        {
          "duration": 0.09375,
          "durationTicks": 64,
          "midi": 78,
          "name": "F#5",
          "ticks": 404864,
          "time": 593.0625,
          "velocity": 0.6850393700787402
        },
        {
          "duration": 0.1904296875,
          "durationTicks": 130,
          "midi": 79,
          "name": "G5",
          "ticks": 404992,
          "time": 593.25,
          "velocity": 0.7716535433070866
        },
        {
          "duration": 0.17724609375,
          "durationTicks": 121,
          "midi": 82,
          "name": "A#5",
          "ticks": 405120,
          "time": 593.4375,
          "velocity": 0.8188976377952756
        },
        {
          "duration": 0.09375,
          "durationTicks": 64,
          "midi": 81,
          "name": "A5",
          "ticks": 405248,
          "time": 593.625,
          "velocity": 0.7559055118110236
        },
        {
          "duration": 0.09375,
          "durationTicks": 64,
          "midi": 78,
          "name": "F#5",
          "ticks": 405376,
          "time": 593.8125,
          "velocity": 0.6929133858267716
        },
        {
          "duration": 0.375,
          "durationTicks": 256,
          "midi": 79,
          "name": "G5",
          "ticks": 405504,
          "time": 594,
          "velocity": 0.8031496062992126
        },
        {
          "duration": 0.375,
          "durationTicks": 256,
          "midi": 62,
          "name": "D4",
          "ticks": 406528,
          "time": 595.5,
          "velocity": 0.6850393700787402
        },
        {
          "duration": 0.375,
          "durationTicks": 256,
          "midi": 70,
          "name": "A#4",
          "ticks": 406528,
          "time": 595.5,
          "velocity": 0.6850393700787402
        },
        {
          "duration": 0.375,
          "durationTicks": 256,
          "midi": 79,
          "name": "G5",
          "ticks": 406528,
          "time": 595.5,
          "velocity": 0.6850393700787402
        },
        {
          "duration": 0.375,
          "durationTicks": 256,
          "midi": 67,
          "name": "G4",
          "ticks": 407040,
          "time": 596.25,
          "velocity": 0.6692913385826772
        },
        {
          "duration": 0.375,
          "durationTicks": 256,
          "midi": 74,
          "name": "D5",
          "ticks": 407040,
          "time": 596.25,
          "velocity": 0.6692913385826772
        },
        {
          "duration": 0.375,
          "durationTicks": 256,
          "midi": 82,
          "name": "A#5",
          "ticks": 407040,
          "time": 596.25,
          "velocity": 0.6692913385826772
        },
        {
          "duration": 0.75,
          "durationTicks": 512,
          "midi": 55,
          "name": "G3",
          "ticks": 407552,
          "time": 597,
          "velocity": 0.6771653543307087
        }
      ],
      "endOfTrackTicks": 408065
    },
    {
      "channel": 12,
      "controlChanges": {
        "7": [
          {
            "number": 7,
            "ticks": 0,
            "time": 0,
            "value": 0.905511811023622
          }
        ],
        "10": [
          {
            "number": 10,
            "ticks": 0,
            "time": 0,
            "value": 0.8740157480314961
          }
        ],
        "64": [
          {
            "number": 64,
            "ticks": 0,
            "time": 0,
            "value": 0
          }
        ],
        "91": [
          {
            "number": 91,
            "ticks": 0,
            "time": 0,
            "value": 0.3779527559055118
          }
        ],
        "121": [
          {
            "number": 121,
            "ticks": 0,
            "time": 0,
            "value": 0
          }
        ]
      },
      "pitchBends": [],
      "instrument": {
        "family": "ensemble",
        "number": 48,
        "name": "string ensemble 1"
      },
      "name": "Violin 2",
      "notes": [
        {
          "duration": 0.1904296875,
          "durationTicks": 130,
          "midi": 63,
          "name": "D#4",
          "ticks": 768,
          "time": 1.125,
          "velocity": 0.4330708661417323
        },
        {
          "duration": 0.17724609375,
          "durationTicks": 121,
          "midi": 62,
          "name": "D4",
          "ticks": 896,
          "time": 1.3125,
          "velocity": 0.3937007874015748
        },
        {
          "duration": 0.375,
          "durationTicks": 256,
          "midi": 62,
          "name": "D4",
          "ticks": 1024,
          "time": 1.5,
          "velocity": 0.5118110236220472
        },
        {
          "duration": 0.1904296875,
          "durationTicks": 130,
          "midi": 63,
          "name": "D#4",
          "ticks": 1280,
          "time": 1.875,
          "velocity": 0.5196850393700787
        },
        {
          "duration": 0.17724609375,
          "durationTicks": 121,
          "midi": 62,
          "name": "D4",
          "ticks": 1408,
          "time": 2.0625,
          "velocity": 0.5354330708661418
        },
        {
          "duration": 0.375,
          "durationTicks": 256,
          "midi": 62,
          "name": "D4",
          "ticks": 1536,
          "time": 2.25,
          "velocity": 0.48031496062992124
        },
        {
          "duration": 0.1904296875,
          "durationTicks": 130,
          "midi": 63,
          "name": "D#4",
          "ticks": 1792,
          "time": 2.625,
          "velocity": 0.5511811023622047
        },
        {
          "duration": 0.17724609375,
          "durationTicks": 121,
          "midi": 62,
          "name": "D4",
          "ticks": 1920,
          "time": 2.8125,
          "velocity": 0.5590551181102362
        },
        {
          "duration": 0.38232421875,
          "durationTicks": 261,
          "midi": 62,
          "name": "D4",
          "ticks": 2048,
          "time": 3,
          "velocity": 0.48031496062992124
        },
        {
          "duration": 0.35595703125,
          "durationTicks": 243,
          "midi": 70,
          "name": "A#4",
          "ticks": 2304,
          "time": 3.375,
          "velocity": 0.5511811023622047
        },
        {
          "duration": 0.1904296875,
          "durationTicks": 130,
          "midi": 70,
          "name": "A#4",
          "ticks": 2816,
          "time": 4.125,
          "velocity": 0.4251968503937008
        },
        {
          "duration": 0.17724609375,
          "durationTicks": 121,
          "midi": 69,
          "name": "A4",
          "ticks": 2944,
          "time": 4.3125,
          "velocity": 0.36220472440944884
        },
        {
          "duration": 0.375,
          "durationTicks": 256,
          "midi": 67,
          "name": "G4",
          "ticks": 3072,
          "time": 4.5,
          "velocity": 0.4094488188976378
        },
        {
          "duration": 0.1904296875,
          "durationTicks": 130,
          "midi": 67,
          "name": "G4",
          "ticks": 3328,
          "time": 4.875,
          "velocity": 0.49606299212598426
        },
        {
          "duration": 0.17724609375,
          "durationTicks": 121,
          "midi": 65,
          "name": "F4",
          "ticks": 3456,
          "time": 5.0625,
          "velocity": 0.49606299212598426
        },
        {
          "duration": 0.375,
          "durationTicks": 256,
          "midi": 63,
          "name": "D#4",
          "ticks": 3584,
          "time": 5.25,
          "velocity": 0.44881889763779526
        },
        {
          "duration": 0.1904296875,
          "durationTicks": 130,
          "midi": 63,
          "name": "D#4",
          "ticks": 3840,
          "time": 5.625,
          "velocity": 0.4881889763779528
        },
        {
          "duration": 0.17724609375,
          "durationTicks": 121,
          "midi": 62,
          "name": "D4",
          "ticks": 3968,
          "time": 5.8125,
          "velocity": 0.4566929133858268
        },
        {
          "duration": 0.375,
          "durationTicks": 256,
          "midi": 60,
          "name": "C4",
          "ticks": 4096,
          "time": 6,
          "velocity": 0.4645669291338583
        },
        {
          "duration": 0.375,
          "durationTicks": 256,
          "midi": 60,
          "name": "C4",
          "ticks": 4352,
          "time": 6.375,
          "velocity": 0.4409448818897638
        },
        {
          "duration": 0.1904296875,
          "durationTicks": 130,
          "midi": 62,
          "name": "D4",
          "ticks": 4864,
          "time": 7.125,
          "velocity": 0.4094488188976378
        },
        {
          "duration": 0.17724609375,
          "durationTicks": 121,
          "midi": 60,
          "name": "C4",
          "ticks": 4992,
          "time": 7.3125,
          "velocity": 0.3779527559055118
        },
        {
          "duration": 0.375,
          "durationTicks": 256,
          "midi": 60,
          "name": "C4",
          "ticks": 5120,
          "time": 7.5,
          "velocity": 0.4881889763779528
        },
        {
          "duration": 0.1904296875,
          "durationTicks": 130,
          "midi": 62,
          "name": "D4",
          "ticks": 5376,
          "time": 7.875,
          "velocity": 0.5354330708661418
        },
        {
          "duration": 0.17724609375,
          "durationTicks": 121,
          "midi": 60,
          "name": "C4",
          "ticks": 5504,
          "time": 8.0625,
          "velocity": 0.5275590551181102
        },
        {
          "duration": 0.375,
          "durationTicks": 256,
          "midi": 60,
          "name": "C4",
          "ticks": 5632,
          "time": 8.25,
          "velocity": 0.4330708661417323
        },
        {
          "duration": 0.1904296875,
          "durationTicks": 130,
          "midi": 62,
          "name": "D4",
          "ticks": 5888,
          "time": 8.625,
          "velocity": 0.5039370078740157
        },
        {
          "duration": 0.17724609375,
          "durationTicks": 121,
          "midi": 60,
          "name": "C4",
          "ticks": 6016,
          "time": 8.8125,
          "velocity": 0.4566929133858268
        },
        {
          "duration": 0.38232421875,
          "durationTicks": 261,
          "midi": 60,
          "name": "C4",
          "ticks": 6144,
          "time": 9,
          "velocity": 0.47244094488188976
        },
        {
          "duration": 0.35595703125,
          "durationTicks": 243,
          "midi": 69,
          "name": "A4",
          "ticks": 6400,
          "time": 9.375,
          "velocity": 0.5433070866141733
        },
        {
          "duration": 0.1904296875,
          "durationTicks": 130,
          "midi": 69,
          "name": "A4",
          "ticks": 6912,
          "time": 10.125,
          "velocity": 0.4251968503937008
        },
        {
          "duration": 0.17724609375,
          "durationTicks": 121,
          "midi": 67,
          "name": "G4",
          "ticks": 7040,
          "time": 10.3125,
          "velocity": 0.4015748031496063
        },
        {
          "duration": 0.375,
          "durationTicks": 256,
          "midi": 66,
          "name": "F#4",
          "ticks": 7168,
          "time": 10.5,
          "velocity": 0.4881889763779528
        },
        {
          "duration": 0.1904296875,
          "durationTicks": 130,
          "midi": 66,
          "name": "F#4",
          "ticks": 7424,
          "time": 10.875,
          "velocity": 0.49606299212598426
        },
        {
          "duration": 0.17724609375,
          "durationTicks": 121,
          "midi": 63,
          "name": "D#4",
          "ticks": 7552,
          "time": 11.0625,
          "velocity": 0.48031496062992124
        },
        {
          "duration": 0.375,
          "durationTicks": 256,
          "midi": 62,
          "name": "D4",
          "ticks": 7680,
          "time": 11.25,
          "velocity": 0.44881889763779526
        },
        {
          "duration": 0.1904296875,
          "durationTicks": 130,
          "midi": 62,
          "name": "D4",
          "ticks": 7936,
          "time": 11.625,
          "velocity": 0.4881889763779528
        },
        {
          "duration": 0.17724609375,
          "durationTicks": 121,
          "midi": 60,
          "name": "C4",
          "ticks": 8064,
          "time": 11.8125,
          "velocity": 0.44881889763779526
        },
        {
          "duration": 0.375,
          "durationTicks": 256,
          "midi": 58,
          "name": "A#3",
          "ticks": 8192,
          "time": 12,
          "velocity": 0.4409448818897638
        },
        {
          "duration": 0.375,
          "durationTicks": 256,
          "midi": 58,
          "name": "A#3",
          "ticks": 8448,
          "time": 12.375,
          "velocity": 0.4645669291338583
        },
        {
          "duration": 0.1904296875,
          "durationTicks": 130,
          "midi": 70,
          "name": "A#4",
          "ticks": 8960,
          "time": 13.125,
          "velocity": 0.4409448818897638
        },
        {
          "duration": 0.17724609375,
          "durationTicks": 121,
          "midi": 69,
          "name": "A4",
          "ticks": 9088,
          "time": 13.3125,
          "velocity": 0.4015748031496063
        },
        {
          "duration": 0.38232421875,
          "durationTicks": 261,
          "midi": 69,
          "name": "A4",
          "ticks": 9216,
          "time": 13.5,
          "velocity": 0.4881889763779528
        },
        {
          "duration": 0.38232421875,
          "durationTicks": 261,
          "midi": 72,
          "name": "C5",
          "ticks": 9472,
          "time": 13.875,
          "velocity": 0.5354330708661418
        },
        {
          "duration": 0.38232421875,
          "durationTicks": 261,
          "midi": 66,
          "name": "F#4",
          "ticks": 9728,
          "time": 14.25,
          "velocity": 0.3937007874015748
        },
        {
          "duration": 0.35595703125,
          "durationTicks": 243,
          "midi": 69,
          "name": "A4",
          "ticks": 9984,
          "time": 14.625,
          "velocity": 0.4566929133858268
        },
        {
          "duration": 0.38232421875,
          "durationTicks": 261,
          "midi": 67,
          "name": "G4",
          "ticks": 10240,
          "time": 15,
          "velocity": 0.48031496062992124
        },
        {
          "duration": 0.35595703125,
          "durationTicks": 243,
          "midi": 62,
          "name": "D4",
          "ticks": 10496,
          "time": 15.375,
          "velocity": 0.4251968503937008
        },
        {
          "duration": 0.1904296875,
          "durationTicks": 130,
          "midi": 70,
          "name": "A#4",
          "ticks": 11008,
          "time": 16.125,
          "velocity": 0.4330708661417323
        },
        {
          "duration": 0.17724609375,
          "durationTicks": 121,
          "midi": 69,
          "name": "A4",
          "ticks": 11136,
          "time": 16.3125,
          "velocity": 0.4330708661417323
        },
        {
          "duration": 0.38232421875,
          "durationTicks": 261,
          "midi": 69,
          "name": "A4",
          "ticks": 11264,
          "time": 16.5,
          "velocity": 0.47244094488188976
        },
        {
          "duration": 0.38232421875,
          "durationTicks": 261,
          "midi": 72,
          "name": "C5",
          "ticks": 11520,
          "time": 16.875,
          "velocity": 0.5275590551181102
        },
        {
          "duration": 0.38232421875,
          "durationTicks": 261,
          "midi": 66,
          "name": "F#4",
          "ticks": 11776,
          "time": 17.25,
          "velocity": 0.4094488188976378
        },
        {
          "duration": 0.35595703125,
          "durationTicks": 243,
          "midi": 69,
          "name": "A4",
          "ticks": 12032,
          "time": 17.625,
          "velocity": 0.4330708661417323
        },
        {
          "duration": 0.38232421875,
          "durationTicks": 261,
          "midi": 67,
          "name": "G4",
          "ticks": 12288,
          "time": 18,
          "velocity": 0.48031496062992124
        },
        {
          "duration": 0.38232421875,
          "durationTicks": 261,
          "midi": 70,
          "name": "A#4",
          "ticks": 12544,
          "time": 18.375,
          "velocity": 0.5196850393700787
        },
        {
          "duration": 0.1904296875,
          "durationTicks": 130,
          "midi": 69,
          "name": "A4",
          "ticks": 12800,
          "time": 18.75,
          "velocity": 0.4645669291338583
        },
        {
          "duration": 0.1904296875,
          "durationTicks": 130,
          "midi": 67,
          "name": "G4",
          "ticks": 12928,
          "time": 18.9375,
          "velocity": 0.4251968503937008
        },
        {
          "duration": 0.1904296875,
          "durationTicks": 130,
          "midi": 65,
          "name": "F4",
          "ticks": 13056,
          "time": 19.125,
          "velocity": 0.44881889763779526
        },
        {
          "duration": 0.17724609375,
          "durationTicks": 121,
          "midi": 63,
          "name": "D#4",
          "ticks": 13184,
          "time": 19.3125,
          "velocity": 0.4409448818897638
        },
        {
          "duration": 1.529296875,
          "durationTicks": 1044,
          "midi": 62,
          "name": "D4",
          "ticks": 13312,
          "time": 19.5,
          "velocity": 0.4409448818897638
        },
        {
          "duration": 1.529296875,
          "durationTicks": 1044,
          "midi": 61,
          "name": "C#4",
          "ticks": 14336,
          "time": 21,
          "velocity": 0.3937007874015748
        },
        {
          "duration": 0.7119140625,
          "durationTicks": 486,
          "midi": 62,
          "name": "D4",
          "ticks": 15360,
          "time": 22.5,
          "velocity": 0.48031496062992124
        },
        {
          "duration": 0.1875,
          "durationTicks": 128,
          "midi": 62,
          "name": "D4",
          "ticks": 16128,
          "time": 23.625,
          "velocity": 0.7007874015748031
        },
        {
          "duration": 0.1875,
          "durationTicks": 128,
          "midi": 62,
          "name": "D4",
          "ticks": 16256,
          "time": 23.8125,
          "velocity": 0.7401574803149606
        },
        {
          "duration": 0.75,
          "durationTicks": 512,
          "midi": 62,
          "name": "D4",
          "ticks": 16384,
          "time": 24,
          "velocity": 0.7716535433070866
        },
        {
          "duration": 0.1875,
          "durationTicks": 128,
          "midi": 62,
          "name": "D4",
          "ticks": 17152,
          "time": 25.125,
          "velocity": 0.7007874015748031
        },
        {
          "duration": 0.1875,
          "durationTicks": 128,
          "midi": 62,
          "name": "D4",
          "ticks": 17280,
          "time": 25.3125,
          "velocity": 0.7559055118110236
        },
        {
          "duration": 0.75,
          "durationTicks": 512,
          "midi": 62,
          "name": "D4",
          "ticks": 17408,
          "time": 25.5,
          "velocity": 0.7874015748031497
        },
        {
          "duration": 0.1875,
          "durationTicks": 128,
          "midi": 62,
          "name": "D4",
          "ticks": 18176,
          "time": 26.625,
          "velocity": 0.7086614173228346
        },
        {
          "duration": 0.1875,
          "durationTicks": 128,
          "midi": 62,
          "name": "D4",
          "ticks": 18304,
          "time": 26.8125,
          "velocity": 0.7559055118110236
        },
        {
          "duration": 0.375,
          "durationTicks": 256,
          "midi": 62,
          "name": "D4",
          "ticks": 18432,
          "time": 27,
          "velocity": 0.7559055118110236
        },
        {
          "duration": 0.1875,
          "durationTicks": 128,
          "midi": 62,
          "name": "D4",
          "ticks": 18688,
          "time": 27.375,
          "velocity": 0.7480314960629921
        },
        {
          "duration": 0.1875,
          "durationTicks": 128,
          "midi": 62,
          "name": "D4",
          "ticks": 18816,
          "time": 27.5625,
          "velocity": 0.7401574803149606
        },
        {
          "duration": 0.375,
          "durationTicks": 256,
          "midi": 62,
          "name": "D4",
          "ticks": 18944,
          "time": 27.75,
          "velocity": 0.7637795275590551
        },
        {
          "duration": 0.1875,
          "durationTicks": 128,
          "midi": 62,
          "name": "D4",
          "ticks": 19200,
          "time": 28.125,
          "velocity": 0.7952755905511811
        },
        {
          "duration": 0.1875,
          "durationTicks": 128,
          "midi": 62,
          "name": "D4",
          "ticks": 19328,
          "time": 28.3125,
          "velocity": 0.7637795275590551
        },
        {
          "duration": 0.75,
          "durationTicks": 512,
          "midi": 62,
          "name": "D4",
          "ticks": 19456,
          "time": 28.5,
          "velocity": 0.7795275590551181
        },
        {
          "duration": 0.1904296875,
          "durationTicks": 130,
          "midi": 63,
          "name": "D#4",
          "ticks": 20224,
          "time": 29.625,
          "velocity": 0.4409448818897638
        },
        {
          "duration": 0.17724609375,
          "durationTicks": 121,
          "midi": 62,
          "name": "D4",
          "ticks": 20352,
          "time": 29.8125,
          "velocity": 0.4330708661417323
        },
        {
          "duration": 0.375,
          "durationTicks": 256,
          "midi": 62,
          "name": "D4",
          "ticks": 20480,
          "time": 30,
          "velocity": 0.49606299212598426
        },
        {
          "duration": 0.1904296875,
          "durationTicks": 130,
          "midi": 63,
          "name": "D#4",
          "ticks": 20736,
          "time": 30.375,
          "velocity": 0.49606299212598426
        },
        {
          "duration": 0.17724609375,
          "durationTicks": 121,
          "midi": 62,
          "name": "D4",
          "ticks": 20864,
          "time": 30.5625,
          "velocity": 0.4566929133858268
        },
        {
          "duration": 0.375,
          "durationTicks": 256,
          "midi": 62,
          "name": "D4",
          "ticks": 20992,
          "time": 30.75,
          "velocity": 0.44881889763779526
        },
        {
          "duration": 0.1904296875,
          "durationTicks": 130,
          "midi": 63,
          "name": "D#4",
          "ticks": 21248,
          "time": 31.125,
          "velocity": 0.5039370078740157
        },
        {
          "duration": 0.17724609375,
          "durationTicks": 121,
          "midi": 62,
          "name": "D4",
          "ticks": 21376,
          "time": 31.3125,
          "velocity": 0.49606299212598426
        },
        {
          "duration": 0.38232421875,
          "durationTicks": 261,
          "midi": 62,
          "name": "D4",
          "ticks": 21504,
          "time": 31.5,
          "velocity": 0.48031496062992124
        },
        {
          "duration": 0.35595703125,
          "durationTicks": 243,
          "midi": 70,
          "name": "A#4",
          "ticks": 21760,
          "time": 31.875,
          "velocity": 0.5748031496062992
        },
        {
          "duration": 0.1904296875,
          "durationTicks": 130,
          "midi": 70,
          "name": "A#4",
          "ticks": 22272,
          "time": 32.625,
          "velocity": 0.41732283464566927
        },
        {
          "duration": 0.17724609375,
          "durationTicks": 121,
          "midi": 69,
          "name": "A4",
          "ticks": 22400,
          "time": 32.8125,
          "velocity": 0.4094488188976378
        },
        {
          "duration": 0.375,
          "durationTicks": 256,
          "midi": 67,
          "name": "G4",
          "ticks": 22528,
          "time": 33,
          "velocity": 0.4409448818897638
        },
        {
          "duration": 0.1904296875,
          "durationTicks": 130,
          "midi": 67,
          "name": "G4",
          "ticks": 22784,
          "time": 33.375,
          "velocity": 0.49606299212598426
        },
        {
          "duration": 0.17724609375,
          "durationTicks": 121,
          "midi": 65,
          "name": "F4",
          "ticks": 22912,
          "time": 33.5625,
          "velocity": 0.47244094488188976
        },
        {
          "duration": 0.375,
          "durationTicks": 256,
          "midi": 63,
          "name": "D#4",
          "ticks": 23040,
          "time": 33.75,
          "velocity": 0.44881889763779526
        },
        {
          "duration": 0.1904296875,
          "durationTicks": 130,
          "midi": 63,
          "name": "D#4",
          "ticks": 23296,
          "time": 34.125,
          "velocity": 0.48031496062992124
        },
        {
          "duration": 0.17724609375,
          "durationTicks": 121,
          "midi": 62,
          "name": "D4",
          "ticks": 23424,
          "time": 34.3125,
          "velocity": 0.44881889763779526
        },
        {
          "duration": 0.375,
          "durationTicks": 256,
          "midi": 60,
          "name": "C4",
          "ticks": 23552,
          "time": 34.5,
          "velocity": 0.4251968503937008
        },
        {
          "duration": 0.375,
          "durationTicks": 256,
          "midi": 60,
          "name": "C4",
          "ticks": 23808,
          "time": 34.875,
          "velocity": 0.44881889763779526
        },
        {
          "duration": 0.1904296875,
          "durationTicks": 130,
          "midi": 65,
          "name": "F4",
          "ticks": 24320,
          "time": 35.625,
          "velocity": 0.4409448818897638
        },
        {
          "duration": 0.17724609375,
          "durationTicks": 121,
          "midi": 63,
          "name": "D#4",
          "ticks": 24448,
          "time": 35.8125,
          "velocity": 0.3937007874015748
        },
        {
          "duration": 0.375,
          "durationTicks": 256,
          "midi": 63,
          "name": "D#4",
          "ticks": 24576,
          "time": 36,
          "velocity": 0.4645669291338583
        },
        {
          "duration": 0.1904296875,
          "durationTicks": 130,
          "midi": 65,
          "name": "F4",
          "ticks": 24832,
          "time": 36.375,
          "velocity": 0.5196850393700787
        },
        {
          "duration": 0.17724609375,
          "durationTicks": 121,
          "midi": 63,
          "name": "D#4",
          "ticks": 24960,
          "time": 36.5625,
          "velocity": 0.5039370078740157
        },
        {
          "duration": 0.375,
          "durationTicks": 256,
          "midi": 63,
          "name": "D#4",
          "ticks": 25088,
          "time": 36.75,
          "velocity": 0.4645669291338583
        },
        {
          "duration": 0.1904296875,
          "durationTicks": 130,
          "midi": 65,
          "name": "F4",
          "ticks": 25344,
          "time": 37.125,
          "velocity": 0.5196850393700787
        },
        {
          "duration": 0.17724609375,
          "durationTicks": 121,
          "midi": 63,
          "name": "D#4",
          "ticks": 25472,
          "time": 37.3125,
          "velocity": 0.5039370078740157
        },
        {
          "duration": 0.38232421875,
          "durationTicks": 261,
          "midi": 63,
          "name": "D#4",
          "ticks": 25600,
          "time": 37.5,
          "velocity": 0.47244094488188976
        },
        {
          "duration": 0.35595703125,
          "durationTicks": 243,
          "midi": 72,
          "name": "C5",
          "ticks": 25856,
          "time": 37.875,
          "velocity": 0.5748031496062992
        },
        {
          "duration": 0.1904296875,
          "durationTicks": 130,
          "midi": 72,
          "name": "C5",
          "ticks": 26368,
          "time": 38.625,
          "velocity": 0.4330708661417323
        },
        {
          "duration": 0.17724609375,
          "durationTicks": 121,
          "midi": 70,
          "name": "A#4",
          "ticks": 26496,
          "time": 38.8125,
          "velocity": 0.3779527559055118
        },
        {
          "duration": 0.375,
          "durationTicks": 256,
          "midi": 69,
          "name": "A4",
          "ticks": 26624,
          "time": 39,
          "velocity": 0.44881889763779526
        },
        {
          "duration": 0.1904296875,
          "durationTicks": 130,
          "midi": 69,
          "name": "A4",
          "ticks": 26880,
          "time": 39.375,
          "velocity": 0.47244094488188976
        },
        {
          "duration": 0.17724609375,
          "durationTicks": 121,
          "midi": 67,
          "name": "G4",
          "ticks": 27008,
          "time": 39.5625,
          "velocity": 0.44881889763779526
        },
        {
          "duration": 0.375,
          "durationTicks": 256,
          "midi": 65,
          "name": "F4",
          "ticks": 27136,
          "time": 39.75,
          "velocity": 0.44881889763779526
        },
        {
          "duration": 0.1904296875,
          "durationTicks": 130,
          "midi": 65,
          "name": "F4",
          "ticks": 27392,
          "time": 40.125,
          "velocity": 0.47244094488188976
        },
        {
          "duration": 0.17724609375,
          "durationTicks": 121,
          "midi": 63,
          "name": "D#4",
          "ticks": 27520,
          "time": 40.3125,
          "velocity": 0.44881889763779526
        },
        {
          "duration": 1.5,
          "durationTicks": 1024,
          "midi": 62,
          "name": "D4",
          "ticks": 27648,
          "time": 40.5,
          "velocity": 0.8503937007874016
        },
        {
          "duration": 1.5,
          "durationTicks": 1024,
          "midi": 70,
          "name": "A#4",
          "ticks": 27648,
          "time": 40.5,
          "velocity": 0.8503937007874016
        },
        {
          "duration": 1.125,
          "durationTicks": 768,
          "midi": 69,
          "name": "A4",
          "ticks": 28672,
          "time": 42,
          "velocity": 0.9448818897637795
        },
        {
          "duration": 1.125,
          "durationTicks": 768,
          "midi": 77,
          "name": "F5",
          "ticks": 28672,
          "time": 42,
          "velocity": 0.9448818897637795
        },
        {
          "duration": 0.1875,
          "durationTicks": 128,
          "midi": 77,
          "name": "F5",
          "ticks": 29568,
          "time": 43.3125,
          "velocity": 0.6850393700787402
        },
        {
          "duration": 0.1875,
          "durationTicks": 128,
          "midi": 75,
          "name": "D#5",
          "ticks": 29696,
          "time": 43.5,
          "velocity": 0.7086614173228346
        },
        {
          "duration": 0.1875,
          "durationTicks": 128,
          "midi": 79,
          "name": "G5",
          "ticks": 29952,
          "time": 43.875,
          "velocity": 0.8267716535433071
        },
        {
          "duration": 0.1875,
          "durationTicks": 128,
          "midi": 82,
          "name": "A#5",
          "ticks": 30208,
          "time": 44.25,
          "velocity": 0.8740157480314961
        },
        {
          "duration": 0.1875,
          "durationTicks": 128,
          "midi": 74,
          "name": "D5",
          "ticks": 30720,
          "time": 45,
          "velocity": 0.6850393700787402
        },
        {
          "duration": 0.1875,
          "durationTicks": 128,
          "midi": 77,
          "name": "F5",
          "ticks": 30976,
          "time": 45.375,
          "velocity": 0.7874015748031497
        },
        {
          "duration": 0.1875,
          "durationTicks": 128,
          "midi": 82,
          "name": "A#5",
          "ticks": 31232,
          "time": 45.75,
          "velocity": 0.8740157480314961
        },
        {
          "duration": 0.1875,
          "durationTicks": 128,
          "midi": 74,
          "name": "D5",
          "ticks": 31616,
          "time": 46.3125,
          "velocity": 0.6929133858267716
        },
        {
          "duration": 0.1875,
          "durationTicks": 128,
          "midi": 72,
          "name": "C5",
          "ticks": 31744,
          "time": 46.5,
          "velocity": 0.7086614173228346
        },
        {
          "duration": 0.1875,
          "durationTicks": 128,
          "midi": 75,
          "name": "D#5",
          "ticks": 32000,
          "time": 46.875,
          "velocity": 0.8346456692913385
        },
        {
          "duration": 0.1875,
          "durationTicks": 128,
          "midi": 79,
          "name": "G5",
          "ticks": 32256,
          "time": 47.25,
          "velocity": 0.8661417322834646
        },
        {
          "duration": 0.1875,
          "durationTicks": 128,
          "midi": 72,
          "name": "C5",
          "ticks": 32512,
          "time": 47.625,
          "velocity": 0.6535433070866141
        },
        {
          "duration": 0.1875,
          "durationTicks": 128,
          "midi": 70,
          "name": "A#4",
          "ticks": 32768,
          "time": 48,
          "velocity": 0.7165354330708661
        },
        {
          "duration": 0.1875,
          "durationTicks": 128,
          "midi": 74,
          "name": "D5",
          "ticks": 33024,
          "time": 48.375,
          "velocity": 0.84251968503937
        },
        {
          "duration": 0.1875,
          "durationTicks": 128,
          "midi": 77,
          "name": "F5",
          "ticks": 33280,
          "time": 48.75,
          "velocity": 0.8976377952755905
        },
        {
          "duration": 0.1875,
          "durationTicks": 128,
          "midi": 65,
          "name": "F4",
          "ticks": 33664,
          "time": 49.3125,
          "velocity": 0.6771653543307087
        },
        {
          "duration": 0.1875,
          "durationTicks": 128,
          "midi": 64,
          "name": "E4",
          "ticks": 33792,
          "time": 49.5,
          "velocity": 0.7401574803149606
        },
        {
          "duration": 0.1875,
          "durationTicks": 128,
          "midi": 65,
          "name": "F4",
          "ticks": 33920,
          "time": 49.6875,
          "velocity": 0.7874015748031497
        },
        {
          "duration": 0.1875,
          "durationTicks": 128,
          "midi": 67,
          "name": "G4",
          "ticks": 34048,
          "time": 49.875,
          "velocity": 0.8110236220472441
        },
        {
          "duration": 0.1875,
          "durationTicks": 128,
          "midi": 69,
          "name": "A4",
          "ticks": 34176,
          "time": 50.0625,
          "velocity": 0.8267716535433071
        },
        {
          "duration": 0.1875,
          "durationTicks": 128,
          "midi": 70,
          "name": "A#4",
          "ticks": 34304,
          "time": 50.25,
          "velocity": 0.8031496062992126
        },
        {
          "duration": 0.1875,
          "durationTicks": 128,
          "midi": 72,
          "name": "C5",
          "ticks": 34432,
          "time": 50.4375,
          "velocity": 0.8346456692913385
        },
        {
          "duration": 0.1875,
          "durationTicks": 128,
          "midi": 73,
          "name": "C#5",
          "ticks": 34560,
          "time": 50.625,
          "velocity": 0.7952755905511811
        },
        {
          "duration": 0.1875,
          "durationTicks": 128,
          "midi": 65,
          "name": "F4",
          "ticks": 34688,
          "time": 50.8125,
          "velocity": 0.6299212598425197
        },
        {
          "duration": 0.1875,
          "durationTicks": 128,
          "midi": 64,
          "name": "E4",
          "ticks": 34816,
          "time": 51,
          "velocity": 0.7165354330708661
        },
        {
          "duration": 0.1875,
          "durationTicks": 128,
          "midi": 65,
          "name": "F4",
          "ticks": 34944,
          "time": 51.1875,
          "velocity": 0.8582677165354331
        },
        {
          "duration": 0.1875,
          "durationTicks": 128,
          "midi": 67,
          "name": "G4",
          "ticks": 35072,
          "time": 51.375,
          "velocity": 0.8110236220472441
        },
        {
          "duration": 0.1875,
          "durationTicks": 128,
          "midi": 69,
          "name": "A4",
          "ticks": 35200,
          "time": 51.5625,
          "velocity": 0.84251968503937
        },
        {
          "duration": 0.1875,
          "durationTicks": 128,
          "midi": 70,
          "name": "A#4",
          "ticks": 35328,
          "time": 51.75,
          "velocity": 0.8188976377952756
        },
        {
          "duration": 0.1875,
          "durationTicks": 128,
          "midi": 72,
          "name": "C5",
          "ticks": 35456,
          "time": 51.9375,
          "velocity": 0.8110236220472441
        },
        {
          "duration": 0.1875,
          "durationTicks": 128,
          "midi": 73,
          "name": "C#5",
          "ticks": 35584,
          "time": 52.125,
          "velocity": 0.8110236220472441
        },
        {
          "duration": 0.1875,
          "durationTicks": 128,
          "midi": 65,
          "name": "F4",
          "ticks": 35712,
          "time": 52.3125,
          "velocity": 0.6299212598425197
        },
        {
          "duration": 0.1875,
          "durationTicks": 128,
          "midi": 64,
          "name": "E4",
          "ticks": 35840,
          "time": 52.5,
          "velocity": 0.6929133858267716
        },
        {
          "duration": 0.1875,
          "durationTicks": 128,
          "midi": 65,
          "name": "F4",
          "ticks": 35968,
          "time": 52.6875,
          "velocity": 0.7637795275590551
        },
        {
          "duration": 0.1875,
          "durationTicks": 128,
          "midi": 67,
          "name": "G4",
          "ticks": 36096,
          "time": 52.875,
          "velocity": 0.8110236220472441
        },
        {
          "duration": 0.1875,
          "durationTicks": 128,
          "midi": 69,
          "name": "A4",
          "ticks": 36224,
          "time": 53.0625,
          "velocity": 0.7952755905511811
        },
        {
          "duration": 0.1875,
          "durationTicks": 128,
          "midi": 70,
          "name": "A#4",
          "ticks": 36352,
          "time": 53.25,
          "velocity": 0.8267716535433071
        },
        {
          "duration": 0.1875,
          "durationTicks": 128,
          "midi": 72,
          "name": "C5",
          "ticks": 36480,
          "time": 53.4375,
          "velocity": 0.7874015748031497
        },
        {
          "duration": 0.1875,
          "durationTicks": 128,
          "midi": 73,
          "name": "C#5",
          "ticks": 36608,
          "time": 53.625,
          "velocity": 0.8188976377952756
        },
        {
          "duration": 0.1875,
          "durationTicks": 128,
          "midi": 65,
          "name": "F4",
          "ticks": 36736,
          "time": 53.8125,
          "velocity": 0.5984251968503937
        },
        {
          "duration": 0.1875,
          "durationTicks": 128,
          "midi": 64,
          "name": "E4",
          "ticks": 36864,
          "time": 54,
          "velocity": 0.7165354330708661
        },
        {
          "duration": 0.1875,
          "durationTicks": 128,
          "midi": 65,
          "name": "F4",
          "ticks": 36992,
          "time": 54.1875,
          "velocity": 0.7716535433070866
        },
        {
          "duration": 0.1875,
          "durationTicks": 128,
          "midi": 67,
          "name": "G4",
          "ticks": 37120,
          "time": 54.375,
          "velocity": 0.8661417322834646
        },
        {
          "duration": 0.1875,
          "durationTicks": 128,
          "midi": 69,
          "name": "A4",
          "ticks": 37248,
          "time": 54.5625,
          "velocity": 0.8346456692913385
        },
        {
          "duration": 0.1875,
          "durationTicks": 128,
          "midi": 70,
          "name": "A#4",
          "ticks": 37376,
          "time": 54.75,
          "velocity": 0.8031496062992126
        },
        {
          "duration": 0.1875,
          "durationTicks": 128,
          "midi": 72,
          "name": "C5",
          "ticks": 37504,
          "time": 54.9375,
          "velocity": 0.8110236220472441
        },
        {
          "duration": 0.1875,
          "durationTicks": 128,
          "midi": 73,
          "name": "C#5",
          "ticks": 37632,
          "time": 55.125,
          "velocity": 0.8031496062992126
        },
        {
          "duration": 0.1875,
          "durationTicks": 128,
          "midi": 64,
          "name": "E4",
          "ticks": 37760,
          "time": 55.3125,
          "velocity": 0.5905511811023622
        },
        {
          "duration": 0.1875,
          "durationTicks": 128,
          "midi": 65,
          "name": "F4",
          "ticks": 37888,
          "time": 55.5,
          "velocity": 0.8031496062992126
        },
        {
          "duration": 0.1875,
          "durationTicks": 128,
          "midi": 77,
          "name": "F5",
          "ticks": 38016,
          "time": 55.6875,
          "velocity": 0.984251968503937
        },
        {
          "duration": 0.1875,
          "durationTicks": 128,
          "midi": 77,
          "name": "F5",
          "ticks": 38144,
          "time": 55.875,
          "velocity": 0.84251968503937
        },
        {
          "duration": 0.1875,
          "durationTicks": 128,
          "midi": 77,
          "name": "F5",
          "ticks": 38272,
          "time": 56.0625,
          "velocity": 0.7795275590551181
        },
        {
          "duration": 0.1875,
          "durationTicks": 128,
          "midi": 75,
          "name": "D#5",
          "ticks": 38400,
          "time": 56.25,
          "velocity": 0.7086614173228346
        },
        {
          "duration": 0.1875,
          "durationTicks": 128,
          "midi": 75,
          "name": "D#5",
          "ticks": 38528,
          "time": 56.4375,
          "velocity": 0.7322834645669292
        },
        {
          "duration": 0.1875,
          "durationTicks": 128,
          "midi": 75,
          "name": "D#5",
          "ticks": 38656,
          "time": 56.625,
          "velocity": 0.7637795275590551
        },
        {
          "duration": 0.1875,
          "durationTicks": 128,
          "midi": 75,
          "name": "D#5",
          "ticks": 38784,
          "time": 56.8125,
          "velocity": 0.7637795275590551
        },
        {
          "duration": 0.1875,
          "durationTicks": 128,
          "midi": 73,
          "name": "C#5",
          "ticks": 38912,
          "time": 57,
          "velocity": 0.7559055118110236
        },
        {
          "duration": 0.1875,
          "durationTicks": 128,
          "midi": 73,
          "name": "C#5",
          "ticks": 39040,
          "time": 57.1875,
          "velocity": 0.7322834645669292
        },
        {
          "duration": 0.1875,
          "durationTicks": 128,
          "midi": 73,
          "name": "C#5",
          "ticks": 39168,
          "time": 57.375,
          "velocity": 0.7637795275590551
        },
        {
          "duration": 0.1875,
          "durationTicks": 128,
          "midi": 73,
          "name": "C#5",
          "ticks": 39296,
          "time": 57.5625,
          "velocity": 0.7480314960629921
        },
        {
          "duration": 0.1875,
          "durationTicks": 128,
          "midi": 73,
          "name": "C#5",
          "ticks": 39424,
          "time": 57.75,
          "velocity": 0.7322834645669292
        },
        {
          "duration": 0.1875,
          "durationTicks": 128,
          "midi": 73,
          "name": "C#5",
          "ticks": 39552,
          "time": 57.9375,
          "velocity": 0.7401574803149606
        },
        {
          "duration": 0.1875,
          "durationTicks": 128,
          "midi": 73,
          "name": "C#5",
          "ticks": 39680,
          "time": 58.125,
          "velocity": 0.7401574803149606
        },
        {
          "duration": 0.1875,
          "durationTicks": 128,
          "midi": 73,
          "name": "C#5",
          "ticks": 39808,
          "time": 58.3125,
          "velocity": 0.7559055118110236
        },
        {
          "duration": 0.1875,
          "durationTicks": 128,
          "midi": 72,
          "name": "C5",
          "ticks": 39936,
          "time": 58.5,
          "velocity": 0.7401574803149606
        },
        {
          "duration": 0.1875,
          "durationTicks": 128,
          "midi": 72,
          "name": "C5",
          "ticks": 40064,
          "time": 58.6875,
          "velocity": 0.7559055118110236
        },
        {
          "duration": 0.1875,
          "durationTicks": 128,
          "midi": 72,
          "name": "C5",
          "ticks": 40192,
          "time": 58.875,
          "velocity": 0.7716535433070866
        },
        {
          "duration": 0.1875,
          "durationTicks": 128,
          "midi": 72,
          "name": "C5",
          "ticks": 40320,
          "time": 59.0625,
          "velocity": 0.8110236220472441
        },
        {
          "duration": 0.1875,
          "durationTicks": 128,
          "midi": 75,
          "name": "D#5",
          "ticks": 40448,
          "time": 59.25,
          "velocity": 0.8188976377952756
        },
        {
          "duration": 0.1875,
          "durationTicks": 128,
          "midi": 75,
          "name": "D#5",
          "ticks": 40576,
          "time": 59.4375,
          "velocity": 0.7637795275590551
        },
        {
          "duration": 0.1875,
          "durationTicks": 128,
          "midi": 75,
          "name": "D#5",
          "ticks": 40704,
          "time": 59.625,
          "velocity": 0.7716535433070866
        },
        {
          "duration": 0.1875,
          "durationTicks": 128,
          "midi": 75,
          "name": "D#5",
          "ticks": 40832,
          "time": 59.8125,
          "velocity": 0.7637795275590551
        },
        {
          "duration": 0.1875,
          "durationTicks": 128,
          "midi": 73,
          "name": "C#5",
          "ticks": 40960,
          "time": 60,
          "velocity": 0.7322834645669292
        },
        {
          "duration": 0.1875,
          "durationTicks": 128,
          "midi": 73,
          "name": "C#5",
          "ticks": 41088,
          "time": 60.1875,
          "velocity": 0.7559055118110236
        },
        {
          "duration": 0.1875,
          "durationTicks": 128,
          "midi": 73,
          "name": "C#5",
          "ticks": 41216,
          "time": 60.375,
          "velocity": 0.7716535433070866
        },
        {
          "duration": 0.1875,
          "durationTicks": 128,
          "midi": 73,
          "name": "C#5",
          "ticks": 41344,
          "time": 60.5625,
          "velocity": 0.7952755905511811
        },
        {
          "duration": 0.1875,
          "durationTicks": 128,
          "midi": 70,
          "name": "A#4",
          "ticks": 41472,
          "time": 60.75,
          "velocity": 0.7165354330708661
        },
        {
          "duration": 0.1875,
          "durationTicks": 128,
          "midi": 70,
          "name": "A#4",
          "ticks": 41600,
          "time": 60.9375,
          "velocity": 0.7480314960629921
        },
        {
          "duration": 0.1875,
          "durationTicks": 128,
          "midi": 70,
          "name": "A#4",
          "ticks": 41728,
          "time": 61.125,
          "velocity": 0.7716535433070866
        },
        {
          "duration": 0.1875,
          "durationTicks": 128,
          "midi": 70,
          "name": "A#4",
          "ticks": 41856,
          "time": 61.3125,
          "velocity": 0.7322834645669292
        },
        {
          "duration": 0.375,
          "durationTicks": 256,
          "midi": 69,
          "name": "A4",
          "ticks": 41984,
          "time": 61.5,
          "velocity": 0.7322834645669292
        },
        {
          "duration": 0.375,
          "durationTicks": 256,
          "midi": 57,
          "name": "A3",
          "ticks": 42496,
          "time": 62.25,
          "velocity": 0.7007874015748031
        },
        {
          "duration": 0.375,
          "durationTicks": 256,
          "midi": 65,
          "name": "F4",
          "ticks": 42496,
          "time": 62.25,
          "velocity": 0.7007874015748031
        },
        {
          "duration": 1.14697265625,
          "durationTicks": 783,
          "midi": 65,
          "name": "F4",
          "ticks": 44032,
          "time": 64.5,
          "velocity": 0.4330708661417323
        },
        {
          "duration": 0.38232421875,
          "durationTicks": 261,
          "midi": 64,
          "name": "E4",
          "ticks": 44800,
          "time": 65.625,
          "velocity": 0.4094488188976378
        },
        {
          "duration": 0.35595703125,
          "durationTicks": 243,
          "midi": 63,
          "name": "D#4",
          "ticks": 45056,
          "time": 66,
          "velocity": 0.4251968503937008
        },
        {
          "duration": 0.375,
          "durationTicks": 256,
          "midi": 58,
          "name": "A#3",
          "ticks": 46336,
          "time": 67.875,
          "velocity": 0.4251968503937008
        },
        {
          "duration": 0.375,
          "durationTicks": 256,
          "midi": 58,
          "name": "A#3",
          "ticks": 46592,
          "time": 68.25,
          "velocity": 0.4409448818897638
        },
        {
          "duration": 0.375,
          "durationTicks": 256,
          "midi": 58,
          "name": "A#3",
          "ticks": 46848,
          "time": 68.625,
          "velocity": 0.48031496062992124
        },
        {
          "duration": 0.57275390625,
          "durationTicks": 391,
          "midi": 58,
          "name": "A#3",
          "ticks": 47104,
          "time": 69,
          "velocity": 0.47244094488188976
        },
        {
          "duration": 0.17724609375,
          "durationTicks": 121,
          "midi": 60,
          "name": "C4",
          "ticks": 47488,
          "time": 69.5625,
          "velocity": 0.47244094488188976
        },
        {
          "duration": 0.375,
          "durationTicks": 256,
          "midi": 57,
          "name": "A3",
          "ticks": 47616,
          "time": 69.75,
          "velocity": 0.48031496062992124
        },
        {
          "duration": 1.14697265625,
          "durationTicks": 783,
          "midi": 67,
          "name": "G4",
          "ticks": 48128,
          "time": 70.5,
          "velocity": 0.4566929133858268
        },
        {
          "duration": 0.38232421875,
          "durationTicks": 261,
          "midi": 66,
          "name": "F#4",
          "ticks": 48896,
          "time": 71.625,
          "velocity": 0.4251968503937008
        },
        {
          "duration": 0.38232421875,
          "durationTicks": 261,
          "midi": 65,
          "name": "F4",
          "ticks": 49152,
          "time": 72,
          "velocity": 0.47244094488188976
        },
        {
          "duration": 0.38232421875,
          "durationTicks": 261,
          "midi": 64,
          "name": "E4",
          "ticks": 49408,
          "time": 72.375,
          "velocity": 0.4409448818897638
        },
        {
          "duration": 0.38232421875,
          "durationTicks": 261,
          "midi": 63,
          "name": "D#4",
          "ticks": 49664,
          "time": 72.75,
          "velocity": 0.48031496062992124
        },
        {
          "duration": 0.35595703125,
          "durationTicks": 243,
          "midi": 62,
          "name": "D4",
          "ticks": 49920,
          "time": 73.125,
          "velocity": 0.44881889763779526
        },
        {
          "duration": 0.38232421875,
          "durationTicks": 261,
          "midi": 60,
          "name": "C4",
          "ticks": 50176,
          "time": 73.5,
          "velocity": 0.4566929133858268
        },
        {
          "duration": 0.7646484375,
          "durationTicks": 522,
          "midi": 63,
          "name": "D#4",
          "ticks": 50432,
          "time": 73.875,
          "velocity": 0.5196850393700787
        },
        {
          "duration": 0.35595703125,
          "durationTicks": 243,
          "midi": 57,
          "name": "A3",
          "ticks": 50944,
          "time": 74.625,
          "velocity": 0.4566929133858268
        },
        {
          "duration": 0.375,
          "durationTicks": 256,
          "midi": 58,
          "name": "A#3",
          "ticks": 51200,
          "time": 75,
          "velocity": 0.5196850393700787
        },
        {
          "duration": 1.14697265625,
          "durationTicks": 783,
          "midi": 63,
          "name": "D#4",
          "ticks": 53248,
          "time": 78,
          "velocity": 0.4330708661417323
        },
        {
          "duration": 0.09521484375,
          "durationTicks": 65,
          "midi": 65,
          "name": "F4",
          "ticks": 54016,
          "time": 79.125,
          "velocity": 0.4645669291338583
        },
        {
          "duration": 0.09521484375,
          "durationTicks": 65,
          "midi": 63,
          "name": "D#4",
          "ticks": 54080,
          "time": 79.21875,
          "velocity": 0.4330708661417323
        },
        {
          "duration": 0.09521484375,
          "durationTicks": 65,
          "midi": 62,
          "name": "D4",
          "ticks": 54144,
          "time": 79.3125,
          "velocity": 0.4094488188976378
        },
        {
          "duration": 0.09521484375,
          "durationTicks": 65,
          "midi": 60,
          "name": "C4",
          "ticks": 54208,
          "time": 79.40625,
          "velocity": 0.4566929133858268
        },
        {
          "duration": 0.35595703125,
          "durationTicks": 243,
          "midi": 58,
          "name": "A#3",
          "ticks": 54272,
          "time": 79.5,
          "velocity": 0.4409448818897638
        },
        {
          "duration": 1.529296875,
          "durationTicks": 1044,
          "midi": 60,
          "name": "C4",
          "ticks": 56320,
          "time": 82.5,
          "velocity": 0.44881889763779526
        },
        {
          "duration": 0.38232421875,
          "durationTicks": 261,
          "midi": 59,
          "name": "B3",
          "ticks": 57344,
          "time": 84,
          "velocity": 0.4094488188976378
        },
        {
          "duration": 0.38232421875,
          "durationTicks": 261,
          "midi": 58,
          "name": "A#3",
          "ticks": 57600,
          "time": 84.375,
          "velocity": 0.47244094488188976
        },
        {
          "duration": 0.38232421875,
          "durationTicks": 261,
          "midi": 57,
          "name": "A3",
          "ticks": 57856,
          "time": 84.75,
          "velocity": 0.4330708661417323
        },
        {
          "duration": 0.35595703125,
          "durationTicks": 243,
          "midi": 56,
          "name": "G#3",
          "ticks": 58112,
          "time": 85.125,
          "velocity": 0.4409448818897638
        },
        {
          "duration": 0.1904296875,
          "durationTicks": 130,
          "midi": 58,
          "name": "A#3",
          "ticks": 58368,
          "time": 85.5,
          "velocity": 0.48031496062992124
        },
        {
          "duration": 0.1904296875,
          "durationTicks": 130,
          "midi": 55,
          "name": "G3",
          "ticks": 58496,
          "time": 85.6875,
          "velocity": 0.44881889763779526
        },
        {
          "duration": 0.1904296875,
          "durationTicks": 130,
          "midi": 58,
          "name": "A#3",
          "ticks": 58624,
          "time": 85.875,
          "velocity": 0.47244094488188976
        },
        {
          "duration": 0.1904296875,
          "durationTicks": 130,
          "midi": 55,
          "name": "G3",
          "ticks": 58752,
          "time": 86.0625,
          "velocity": 0.4566929133858268
        },
        {
          "duration": 0.1904296875,
          "durationTicks": 130,
          "midi": 58,
          "name": "A#3",
          "ticks": 58880,
          "time": 86.25,
          "velocity": 0.4566929133858268
        },
        {
          "duration": 0.1904296875,
          "durationTicks": 130,
          "midi": 55,
          "name": "G3",
          "ticks": 59008,
          "time": 86.4375,
          "velocity": 0.4409448818897638
        },
        {
          "duration": 0.1904296875,
          "durationTicks": 130,
          "midi": 56,
          "name": "G#3",
          "ticks": 59136,
          "time": 86.625,
          "velocity": 0.4881889763779528
        },
        {
          "duration": 0.17724609375,
          "durationTicks": 121,
          "midi": 60,
          "name": "C4",
          "ticks": 59264,
          "time": 86.8125,
          "velocity": 0.5433070866141733
        },
        {
          "duration": 0.1904296875,
          "durationTicks": 130,
          "midi": 58,
          "name": "A#3",
          "ticks": 59392,
          "time": 87,
          "velocity": 0.47244094488188976
        },
        {
          "duration": 0.1904296875,
          "durationTicks": 130,
          "midi": 55,
          "name": "G3",
          "ticks": 59520,
          "time": 87.1875,
          "velocity": 0.49606299212598426
        },
        {
          "duration": 0.1904296875,
          "durationTicks": 130,
          "midi": 58,
          "name": "A#3",
          "ticks": 59648,
          "time": 87.375,
          "velocity": 0.49606299212598426
        },
        {
          "duration": 0.1904296875,
          "durationTicks": 130,
          "midi": 55,
          "name": "G3",
          "ticks": 59776,
          "time": 87.5625,
          "velocity": 0.5039370078740157
        },
        {
          "duration": 0.1904296875,
          "durationTicks": 130,
          "midi": 58,
          "name": "A#3",
          "ticks": 59904,
          "time": 87.75,
          "velocity": 0.49606299212598426
        },
        {
          "duration": 0.1904296875,
          "durationTicks": 130,
          "midi": 55,
          "name": "G3",
          "ticks": 60032,
          "time": 87.9375,
          "velocity": 0.44881889763779526
        },
        {
          "duration": 0.1904296875,
          "durationTicks": 130,
          "midi": 56,
          "name": "G#3",
          "ticks": 60160,
          "time": 88.125,
          "velocity": 0.4645669291338583
        },
        {
          "duration": 0.17724609375,
          "durationTicks": 121,
          "midi": 60,
          "name": "C4",
          "ticks": 60288,
          "time": 88.3125,
          "velocity": 0.5275590551181102
        },
        {
          "duration": 0.1904296875,
          "durationTicks": 130,
          "midi": 58,
          "name": "A#3",
          "ticks": 60416,
          "time": 88.5,
          "velocity": 0.4645669291338583
        },
        {
          "duration": 0.1904296875,
          "durationTicks": 130,
          "midi": 55,
          "name": "G3",
          "ticks": 60544,
          "time": 88.6875,
          "velocity": 0.44881889763779526
        },
        {
          "duration": 0.1904296875,
          "durationTicks": 130,
          "midi": 58,
          "name": "A#3",
          "ticks": 60672,
          "time": 88.875,
          "velocity": 0.5118110236220472
        },
        {
          "duration": 0.1904296875,
          "durationTicks": 130,
          "midi": 55,
          "name": "G3",
          "ticks": 60800,
          "time": 89.0625,
          "velocity": 0.5039370078740157
        },
        {
          "duration": 0.1904296875,
          "durationTicks": 130,
          "midi": 58,
          "name": "A#3",
          "ticks": 60928,
          "time": 89.25,
          "velocity": 0.48031496062992124
        },
        {
          "duration": 0.1904296875,
          "durationTicks": 130,
          "midi": 55,
          "name": "G3",
          "ticks": 61056,
          "time": 89.4375,
          "velocity": 0.47244094488188976
        },
        {
          "duration": 0.1904296875,
          "durationTicks": 130,
          "midi": 56,
          "name": "G#3",
          "ticks": 61184,
          "time": 89.625,
          "velocity": 0.4881889763779528
        },
        {
          "duration": 0.17724609375,
          "durationTicks": 121,
          "midi": 60,
          "name": "C4",
          "ticks": 61312,
          "time": 89.8125,
          "velocity": 0.5590551181102362
        },
        {
          "duration": 0.1904296875,
          "durationTicks": 130,
          "midi": 58,
          "name": "A#3",
          "ticks": 61440,
          "time": 90,
          "velocity": 0.47244094488188976
        },
        {
          "duration": 0.1904296875,
          "durationTicks": 130,
          "midi": 55,
          "name": "G3",
          "ticks": 61568,
          "time": 90.1875,
          "velocity": 0.4094488188976378
        },
        {
          "duration": 0.1904296875,
          "durationTicks": 130,
          "midi": 58,
          "name": "A#3",
          "ticks": 61696,
          "time": 90.375,
          "velocity": 0.5118110236220472
        },
        {
          "duration": 0.1904296875,
          "durationTicks": 130,
          "midi": 55,
          "name": "G3",
          "ticks": 61824,
          "time": 90.5625,
          "velocity": 0.4881889763779528
        },
        {
          "duration": 0.1904296875,
          "durationTicks": 130,
          "midi": 58,
          "name": "A#3",
          "ticks": 61952,
          "time": 90.75,
          "velocity": 0.5275590551181102
        },
        {
          "duration": 0.1904296875,
          "durationTicks": 130,
          "midi": 55,
          "name": "G3",
          "ticks": 62080,
          "time": 90.9375,
          "velocity": 0.49606299212598426
        },
        {
          "duration": 0.1904296875,
          "durationTicks": 130,
          "midi": 56,
          "name": "G#3",
          "ticks": 62208,
          "time": 91.125,
          "velocity": 0.4881889763779528
        },
        {
          "duration": 0.17724609375,
          "durationTicks": 121,
          "midi": 60,
          "name": "C4",
          "ticks": 62336,
          "time": 91.3125,
          "velocity": 0.5433070866141733
        },
        {
          "duration": 0.1875,
          "durationTicks": 128,
          "midi": 58,
          "name": "A#3",
          "ticks": 62464,
          "time": 91.5,
          "velocity": 0.4645669291338583
        },
        {
          "duration": 0.1875,
          "durationTicks": 128,
          "midi": 70,
          "name": "A#4",
          "ticks": 62592,
          "time": 91.6875,
          "velocity": 0.6456692913385826
        },
        {
          "duration": 0.1875,
          "durationTicks": 128,
          "midi": 70,
          "name": "A#4",
          "ticks": 62720,
          "time": 91.875,
          "velocity": 0.5275590551181102
        },
        {
          "duration": 0.1875,
          "durationTicks": 128,
          "midi": 70,
          "name": "A#4",
          "ticks": 62848,
          "time": 92.0625,
          "velocity": 0.5433070866141733
        },
        {
          "duration": 0.1875,
          "durationTicks": 128,
          "midi": 70,
          "name": "A#4",
          "ticks": 62976,
          "time": 92.25,
          "velocity": 0.5196850393700787
        },
        {
          "duration": 0.1875,
          "durationTicks": 128,
          "midi": 70,
          "name": "A#4",
          "ticks": 63104,
          "time": 92.4375,
          "velocity": 0.5590551181102362
        },
        {
          "duration": 0.1875,
          "durationTicks": 128,
          "midi": 70,
          "name": "A#4",
          "ticks": 63232,
          "time": 92.625,
          "velocity": 0.5748031496062992
        },
        {
          "duration": 0.1875,
          "durationTicks": 128,
          "midi": 70,
          "name": "A#4",
          "ticks": 63360,
          "time": 92.8125,
          "velocity": 0.5984251968503937
        },
        {
          "duration": 0.1875,
          "durationTicks": 128,
          "midi": 70,
          "name": "A#4",
          "ticks": 63488,
          "time": 93,
          "velocity": 0.6377952755905512
        },
        {
          "duration": 0.1875,
          "durationTicks": 128,
          "midi": 82,
          "name": "A#5",
          "ticks": 63616,
          "time": 93.1875,
          "velocity": 0.7952755905511811
        },
        {
          "duration": 0.1875,
          "durationTicks": 128,
          "midi": 82,
          "name": "A#5",
          "ticks": 63744,
          "time": 93.375,
          "velocity": 0.6850393700787402
        },
        {
          "duration": 0.1875,
          "durationTicks": 128,
          "midi": 82,
          "name": "A#5",
          "ticks": 63872,
          "time": 93.5625,
          "velocity": 0.7086614173228346
        },
        {
          "duration": 0.1875,
          "durationTicks": 128,
          "midi": 82,
          "name": "A#5",
          "ticks": 64000,
          "time": 93.75,
          "velocity": 0.7165354330708661
        },
        {
          "duration": 0.1875,
          "durationTicks": 128,
          "midi": 82,
          "name": "A#5",
          "ticks": 64128,
          "time": 93.9375,
          "velocity": 0.7007874015748031
        },
        {
          "duration": 0.1875,
          "durationTicks": 128,
          "midi": 82,
          "name": "A#5",
          "ticks": 64256,
          "time": 94.125,
          "velocity": 0.7165354330708661
        },
        {
          "duration": 0.1875,
          "durationTicks": 128,
          "midi": 82,
          "name": "A#5",
          "ticks": 64384,
          "time": 94.3125,
          "velocity": 0.7480314960629921
        },
        {
          "duration": 0.375,
          "durationTicks": 256,
          "midi": 82,
          "name": "A#5",
          "ticks": 64512,
          "time": 94.5,
          "velocity": 0.7952755905511811
        },
        {
          "duration": 0.75,
          "durationTicks": 512,
          "midi": 74,
          "name": "D5",
          "ticks": 64768,
          "time": 94.875,
          "velocity": 0.6850393700787402
        },
        {
          "duration": 0.75,
          "durationTicks": 512,
          "midi": 77,
          "name": "F5",
          "ticks": 64768,
          "time": 94.875,
          "velocity": 0.6850393700787402
        },
        {
          "duration": 0.375,
          "durationTicks": 256,
          "midi": 74,
          "name": "D5",
          "ticks": 65280,
          "time": 95.625,
          "velocity": 0.7795275590551181
        },
        {
          "duration": 0.75,
          "durationTicks": 512,
          "midi": 77,
          "name": "F5",
          "ticks": 65280,
          "time": 95.625,
          "velocity": 0.7795275590551181
        },
        {
          "duration": 0.375,
          "durationTicks": 256,
          "midi": 75,
          "name": "D#5",
          "ticks": 65536,
          "time": 96,
          "velocity": 0.8031496062992126
        },
        {
          "duration": 0.75,
          "durationTicks": 512,
          "midi": 75,
          "name": "D#5",
          "ticks": 65792,
          "time": 96.375,
          "velocity": 0.7716535433070866
        },
        {
          "duration": 0.75,
          "durationTicks": 512,
          "midi": 77,
          "name": "F5",
          "ticks": 65792,
          "time": 96.375,
          "velocity": 0.7716535433070866
        },
        {
          "duration": 0.375,
          "durationTicks": 256,
          "midi": 75,
          "name": "D#5",
          "ticks": 66304,
          "time": 97.125,
          "velocity": 0.7559055118110236
        },
        {
          "duration": 0.375,
          "durationTicks": 256,
          "midi": 77,
          "name": "F5",
          "ticks": 66304,
          "time": 97.125,
          "velocity": 0.7559055118110236
        },
        {
          "duration": 0.375,
          "durationTicks": 256,
          "midi": 74,
          "name": "D5",
          "ticks": 66560,
          "time": 97.5,
          "velocity": 0.7795275590551181
        },
        {
          "duration": 0.375,
          "durationTicks": 256,
          "midi": 77,
          "name": "F5",
          "ticks": 66560,
          "time": 97.5,
          "velocity": 0.7795275590551181
        },
        {
          "duration": 0.1875,
          "durationTicks": 128,
          "midi": 62,
          "name": "D4",
          "ticks": 66816,
          "time": 97.875,
          "velocity": 0.5669291338582677
        },
        {
          "duration": 0.1875,
          "durationTicks": 128,
          "midi": 62,
          "name": "D4",
          "ticks": 66944,
          "time": 98.0625,
          "velocity": 0.6929133858267716
        },
        {
          "duration": 0.1875,
          "durationTicks": 128,
          "midi": 62,
          "name": "D4",
          "ticks": 67072,
          "time": 98.25,
          "velocity": 0.7795275590551181
        },
        {
          "duration": 0.1875,
          "durationTicks": 128,
          "midi": 62,
          "name": "D4",
          "ticks": 67200,
          "time": 98.4375,
          "velocity": 0.7637795275590551
        },
        {
          "duration": 0.1875,
          "durationTicks": 128,
          "midi": 63,
          "name": "D#4",
          "ticks": 67328,
          "time": 98.625,
          "velocity": 0.8031496062992126
        },
        {
          "duration": 0.1875,
          "durationTicks": 128,
          "midi": 63,
          "name": "D#4",
          "ticks": 67456,
          "time": 98.8125,
          "velocity": 0.7716535433070866
        },
        {
          "duration": 0.1875,
          "durationTicks": 128,
          "midi": 64,
          "name": "E4",
          "ticks": 67584,
          "time": 99,
          "velocity": 0.8188976377952756
        },
        {
          "duration": 0.1875,
          "durationTicks": 128,
          "midi": 64,
          "name": "E4",
          "ticks": 67712,
          "time": 99.1875,
          "velocity": 0.7952755905511811
        },
        {
          "duration": 0.1875,
          "durationTicks": 128,
          "midi": 65,
          "name": "F4",
          "ticks": 67840,
          "time": 99.375,
          "velocity": 0.8110236220472441
        },
        {
          "duration": 0.1875,
          "durationTicks": 128,
          "midi": 65,
          "name": "F4",
          "ticks": 67968,
          "time": 99.5625,
          "velocity": 0.7874015748031497
        },
        {
          "duration": 0.1875,
          "durationTicks": 128,
          "midi": 66,
          "name": "F#4",
          "ticks": 68096,
          "time": 99.75,
          "velocity": 0.7874015748031497
        },
        {
          "duration": 0.1875,
          "durationTicks": 128,
          "midi": 66,
          "name": "F#4",
          "ticks": 68224,
          "time": 99.9375,
          "velocity": 0.7952755905511811
        },
        {
          "duration": 0.1875,
          "durationTicks": 128,
          "midi": 67,
          "name": "G4",
          "ticks": 68352,
          "time": 100.125,
          "velocity": 0.7637795275590551
        },
        {
          "duration": 0.1875,
          "durationTicks": 128,
          "midi": 67,
          "name": "G4",
          "ticks": 68480,
          "time": 100.3125,
          "velocity": 0.7716535433070866
        },
        {
          "duration": 0.375,
          "durationTicks": 256,
          "midi": 68,
          "name": "G#4",
          "ticks": 68608,
          "time": 100.5,
          "velocity": 0.8031496062992126
        },
        {
          "duration": 0.09375,
          "durationTicks": 64,
          "midi": 68,
          "name": "G#4",
          "ticks": 69056,
          "time": 101.15625,
          "velocity": 0.6929133858267716
        },
        {
          "duration": 0.375,
          "durationTicks": 256,
          "midi": 67,
          "name": "G4",
          "ticks": 69120,
          "time": 101.25,
          "velocity": 0.7480314960629921
        },
        {
          "duration": 0.09375,
          "durationTicks": 64,
          "midi": 67,
          "name": "G4",
          "ticks": 69568,
          "time": 101.90625,
          "velocity": 0.7165354330708661
        },
        {
          "duration": 0.375,
          "durationTicks": 256,
          "midi": 75,
          "name": "D#5",
          "ticks": 69632,
          "time": 102,
          "velocity": 0.9212598425196851
        },
        {
          "duration": 0.09375,
          "durationTicks": 64,
          "midi": 75,
          "name": "D#5",
          "ticks": 70080,
          "time": 102.65625,
          "velocity": 0.7086614173228346
        },
        {
          "duration": 0.375,
          "durationTicks": 256,
          "midi": 74,
          "name": "D5",
          "ticks": 70144,
          "time": 102.75,
          "velocity": 0.7007874015748031
        },
        {
          "duration": 0.09375,
          "durationTicks": 64,
          "midi": 74,
          "name": "D5",
          "ticks": 70592,
          "time": 103.40625,
          "velocity": 0.6850393700787402
        },
        {
          "duration": 0.9375,
          "durationTicks": 640,
          "midi": 79,
          "name": "G5",
          "ticks": 70656,
          "time": 103.5,
          "velocity": 0.8582677165354331
        },
        {
          "duration": 0.09375,
          "durationTicks": 64,
          "midi": 77,
          "name": "F5",
          "ticks": 71296,
          "time": 104.4375,
          "velocity": 0.4566929133858268
        },
        {
          "duration": 0.09375,
          "durationTicks": 64,
          "midi": 75,
          "name": "D#5",
          "ticks": 71424,
          "time": 104.625,
          "velocity": 0.4566929133858268
        },
        {
          "duration": 0.09375,
          "durationTicks": 64,
          "midi": 74,
          "name": "D5",
          "ticks": 71552,
          "time": 104.8125,
          "velocity": 0.4330708661417323
        },
        {
          "duration": 0.09375,
          "durationTicks": 64,
          "midi": 72,
          "name": "C5",
          "ticks": 71680,
          "time": 105,
          "velocity": 0.4330708661417323
        },
        {
          "duration": 0.09375,
          "durationTicks": 64,
          "midi": 70,
          "name": "A#4",
          "ticks": 71808,
          "time": 105.1875,
          "velocity": 0.4409448818897638
        },
        {
          "duration": 0.09375,
          "durationTicks": 64,
          "midi": 69,
          "name": "A4",
          "ticks": 71936,
          "time": 105.375,
          "velocity": 0.4330708661417323
        },
        {
          "duration": 0.09375,
          "durationTicks": 64,
          "midi": 67,
          "name": "G4",
          "ticks": 72064,
          "time": 105.5625,
          "velocity": 0.4566929133858268
        },
        {
          "duration": 0.09375,
          "durationTicks": 64,
          "midi": 65,
          "name": "F4",
          "ticks": 72192,
          "time": 105.75,
          "velocity": 0.47244094488188976
        },
        {
          "duration": 0.09375,
          "durationTicks": 64,
          "midi": 63,
          "name": "D#4",
          "ticks": 72320,
          "time": 105.9375,
          "velocity": 0.4409448818897638
        },
        {
          "duration": 0.09375,
          "durationTicks": 64,
          "midi": 62,
          "name": "D4",
          "ticks": 72448,
          "time": 106.125,
          "velocity": 0.4251968503937008
        },
        {
          "duration": 0.09375,
          "durationTicks": 64,
          "midi": 60,
          "name": "C4",
          "ticks": 72576,
          "time": 106.3125,
          "velocity": 0.4251968503937008
        },
        {
          "duration": 0.1904296875,
          "durationTicks": 130,
          "midi": 62,
          "name": "D4",
          "ticks": 72704,
          "time": 106.5,
          "velocity": 0.5196850393700787
        },
        {
          "duration": 0.1904296875,
          "durationTicks": 130,
          "midi": 65,
          "name": "F4",
          "ticks": 72832,
          "time": 106.6875,
          "velocity": 0.5590551181102362
        },
        {
          "duration": 0.1904296875,
          "durationTicks": 130,
          "midi": 62,
          "name": "D4",
          "ticks": 72960,
          "time": 106.875,
          "velocity": 0.4645669291338583
        },
        {
          "duration": 0.1904296875,
          "durationTicks": 130,
          "midi": 65,
          "name": "F4",
          "ticks": 73088,
          "time": 107.0625,
          "velocity": 0.5196850393700787
        },
        {
          "duration": 0.1904296875,
          "durationTicks": 130,
          "midi": 62,
          "name": "D4",
          "ticks": 73216,
          "time": 107.25,
          "velocity": 0.4409448818897638
        },
        {
          "duration": 0.1904296875,
          "durationTicks": 130,
          "midi": 65,
          "name": "F4",
          "ticks": 73344,
          "time": 107.4375,
          "velocity": 0.49606299212598426
        },
        {
          "duration": 0.1904296875,
          "durationTicks": 130,
          "midi": 62,
          "name": "D4",
          "ticks": 73472,
          "time": 107.625,
          "velocity": 0.47244094488188976
        },
        {
          "duration": 0.17724609375,
          "durationTicks": 121,
          "midi": 65,
          "name": "F4",
          "ticks": 73600,
          "time": 107.8125,
          "velocity": 0.5275590551181102
        },
        {
          "duration": 0.1904296875,
          "durationTicks": 130,
          "midi": 63,
          "name": "D#4",
          "ticks": 73728,
          "time": 108,
          "velocity": 0.4330708661417323
        },
        {
          "duration": 0.1904296875,
          "durationTicks": 130,
          "midi": 65,
          "name": "F4",
          "ticks": 73856,
          "time": 108.1875,
          "velocity": 0.4566929133858268
        },
        {
          "duration": 0.1904296875,
          "durationTicks": 130,
          "midi": 63,
          "name": "D#4",
          "ticks": 73984,
          "time": 108.375,
          "velocity": 0.48031496062992124
        },
        {
          "duration": 0.1904296875,
          "durationTicks": 130,
          "midi": 65,
          "name": "F4",
          "ticks": 74112,
          "time": 108.5625,
          "velocity": 0.49606299212598426
        },
        {
          "duration": 0.1904296875,
          "durationTicks": 130,
          "midi": 60,
          "name": "C4",
          "ticks": 74240,
          "time": 108.75,
          "velocity": 0.4015748031496063
        },
        {
          "duration": 0.1904296875,
          "durationTicks": 130,
          "midi": 65,
          "name": "F4",
          "ticks": 74368,
          "time": 108.9375,
          "velocity": 0.48031496062992124
        },
        {
          "duration": 0.1904296875,
          "durationTicks": 130,
          "midi": 60,
          "name": "C4",
          "ticks": 74496,
          "time": 109.125,
          "velocity": 0.41732283464566927
        },
        {
          "duration": 0.17724609375,
          "durationTicks": 121,
          "midi": 65,
          "name": "F4",
          "ticks": 74624,
          "time": 109.3125,
          "velocity": 0.4881889763779528
        },
        {
          "duration": 0.1904296875,
          "durationTicks": 130,
          "midi": 58,
          "name": "A#3",
          "ticks": 74752,
          "time": 109.5,
          "velocity": 0.41732283464566927
        },
        {
          "duration": 0.1904296875,
          "durationTicks": 130,
          "midi": 65,
          "name": "F4",
          "ticks": 74880,
          "time": 109.6875,
          "velocity": 0.4645669291338583
        },
        {
          "duration": 0.1904296875,
          "durationTicks": 130,
          "midi": 58,
          "name": "A#3",
          "ticks": 75008,
          "time": 109.875,
          "velocity": 0.4330708661417323
        },
        {
          "duration": 0.1904296875,
          "durationTicks": 130,
          "midi": 65,
          "name": "F4",
          "ticks": 75136,
          "time": 110.0625,
          "velocity": 0.5275590551181102
        },
        {
          "duration": 0.1904296875,
          "durationTicks": 130,
          "midi": 58,
          "name": "A#3",
          "ticks": 75264,
          "time": 110.25,
          "velocity": 0.4566929133858268
        },
        {
          "duration": 0.1904296875,
          "durationTicks": 130,
          "midi": 65,
          "name": "F4",
          "ticks": 75392,
          "time": 110.4375,
          "velocity": 0.5275590551181102
        },
        {
          "duration": 0.1904296875,
          "durationTicks": 130,
          "midi": 62,
          "name": "D4",
          "ticks": 75520,
          "time": 110.625,
          "velocity": 0.4566929133858268
        },
        {
          "duration": 0.17724609375,
          "durationTicks": 121,
          "midi": 65,
          "name": "F4",
          "ticks": 75648,
          "time": 110.8125,
          "velocity": 0.4645669291338583
        },
        {
          "duration": 0.1904296875,
          "durationTicks": 130,
          "midi": 63,
          "name": "D#4",
          "ticks": 75776,
          "time": 111,
          "velocity": 0.4251968503937008
        },
        {
          "duration": 0.1904296875,
          "durationTicks": 130,
          "midi": 65,
          "name": "F4",
          "ticks": 75904,
          "time": 111.1875,
          "velocity": 0.4645669291338583
        },
        {
          "duration": 0.1904296875,
          "durationTicks": 130,
          "midi": 63,
          "name": "D#4",
          "ticks": 76032,
          "time": 111.375,
          "velocity": 0.4645669291338583
        },
        {
          "duration": 0.1904296875,
          "durationTicks": 130,
          "midi": 65,
          "name": "F4",
          "ticks": 76160,
          "time": 111.5625,
          "velocity": 0.4881889763779528
        },
        {
          "duration": 0.1904296875,
          "durationTicks": 130,
          "midi": 60,
          "name": "C4",
          "ticks": 76288,
          "time": 111.75,
          "velocity": 0.4409448818897638
        },
        {
          "duration": 0.1904296875,
          "durationTicks": 130,
          "midi": 65,
          "name": "F4",
          "ticks": 76416,
          "time": 111.9375,
          "velocity": 0.47244094488188976
        },
        {
          "duration": 0.1904296875,
          "durationTicks": 130,
          "midi": 60,
          "name": "C4",
          "ticks": 76544,
          "time": 112.125,
          "velocity": 0.4015748031496063
        },
        {
          "duration": 0.17724609375,
          "durationTicks": 121,
          "midi": 65,
          "name": "F4",
          "ticks": 76672,
          "time": 112.3125,
          "velocity": 0.4645669291338583
        },
        {
          "duration": 0.1904296875,
          "durationTicks": 130,
          "midi": 58,
          "name": "A#3",
          "ticks": 76800,
          "time": 112.5,
          "velocity": 0.4094488188976378
        },
        {
          "duration": 0.1904296875,
          "durationTicks": 130,
          "midi": 65,
          "name": "F4",
          "ticks": 76928,
          "time": 112.6875,
          "velocity": 0.4645669291338583
        },
        {
          "duration": 0.1904296875,
          "durationTicks": 130,
          "midi": 58,
          "name": "A#3",
          "ticks": 77056,
          "time": 112.875,
          "velocity": 0.47244094488188976
        },
        {
          "duration": 0.1904296875,
          "durationTicks": 130,
          "midi": 65,
          "name": "F4",
          "ticks": 77184,
          "time": 113.0625,
          "velocity": 0.5826771653543307
        },
        {
          "duration": 0.1904296875,
          "durationTicks": 130,
          "midi": 58,
          "name": "A#3",
          "ticks": 77312,
          "time": 113.25,
          "velocity": 0.4409448818897638
        },
        {
          "duration": 0.1904296875,
          "durationTicks": 130,
          "midi": 65,
          "name": "F4",
          "ticks": 77440,
          "time": 113.4375,
          "velocity": 0.5196850393700787
        },
        {
          "duration": 0.1904296875,
          "durationTicks": 130,
          "midi": 70,
          "name": "A#4",
          "ticks": 77568,
          "time": 113.625,
          "velocity": 0.5511811023622047
        },
        {
          "duration": 0.17724609375,
          "durationTicks": 121,
          "midi": 65,
          "name": "F4",
          "ticks": 77696,
          "time": 113.8125,
          "velocity": 0.4409448818897638
        },
        {
          "duration": 0.1875,
          "durationTicks": 128,
          "midi": 72,
          "name": "C5",
          "ticks": 77824,
          "time": 114,
          "velocity": 0.984251968503937
        },
        {
          "duration": 0.1875,
          "durationTicks": 128,
          "midi": 78,
          "name": "F#5",
          "ticks": 77824,
          "time": 114,
          "velocity": 0.984251968503937
        },
        {
          "duration": 0.1875,
          "durationTicks": 128,
          "midi": 72,
          "name": "C5",
          "ticks": 77952,
          "time": 114.1875,
          "velocity": 0.8110236220472441
        },
        {
          "duration": 0.1875,
          "durationTicks": 128,
          "midi": 78,
          "name": "F#5",
          "ticks": 77952,
          "time": 114.1875,
          "velocity": 0.8110236220472441
        },
        {
          "duration": 0.1875,
          "durationTicks": 128,
          "midi": 72,
          "name": "C5",
          "ticks": 78080,
          "time": 114.375,
          "velocity": 0.7480314960629921
        },
        {
          "duration": 0.1875,
          "durationTicks": 128,
          "midi": 78,
          "name": "F#5",
          "ticks": 78080,
          "time": 114.375,
          "velocity": 0.7480314960629921
        },
        {
          "duration": 0.1875,
          "durationTicks": 128,
          "midi": 72,
          "name": "C5",
          "ticks": 78208,
          "time": 114.5625,
          "velocity": 0.7716535433070866
        },
        {
          "duration": 0.1875,
          "durationTicks": 128,
          "midi": 78,
          "name": "F#5",
          "ticks": 78208,
          "time": 114.5625,
          "velocity": 0.7716535433070866
        },
        {
          "duration": 0.1875,
          "durationTicks": 128,
          "midi": 72,
          "name": "C5",
          "ticks": 78336,
          "time": 114.75,
          "velocity": 0.8031496062992126
        },
        {
          "duration": 0.1875,
          "durationTicks": 128,
          "midi": 78,
          "name": "F#5",
          "ticks": 78336,
          "time": 114.75,
          "velocity": 0.8031496062992126
        },
        {
          "duration": 0.1875,
          "durationTicks": 128,
          "midi": 72,
          "name": "C5",
          "ticks": 78464,
          "time": 114.9375,
          "velocity": 0.7874015748031497
        },
        {
          "duration": 0.1875,
          "durationTicks": 128,
          "midi": 78,
          "name": "F#5",
          "ticks": 78464,
          "time": 114.9375,
          "velocity": 0.7874015748031497
        },
        {
          "duration": 0.1875,
          "durationTicks": 128,
          "midi": 72,
          "name": "C5",
          "ticks": 78592,
          "time": 115.125,
          "velocity": 0.7637795275590551
        },
        {
          "duration": 0.1875,
          "durationTicks": 128,
          "midi": 78,
          "name": "F#5",
          "ticks": 78592,
          "time": 115.125,
          "velocity": 0.7637795275590551
        },
        {
          "duration": 0.1875,
          "durationTicks": 128,
          "midi": 72,
          "name": "C5",
          "ticks": 78720,
          "time": 115.3125,
          "velocity": 0.7480314960629921
        },
        {
          "duration": 0.1875,
          "durationTicks": 128,
          "midi": 78,
          "name": "F#5",
          "ticks": 78720,
          "time": 115.3125,
          "velocity": 0.7480314960629921
        },
        {
          "duration": 0.75,
          "durationTicks": 512,
          "midi": 70,
          "name": "A#4",
          "ticks": 78848,
          "time": 115.5,
          "velocity": 0.7952755905511811
        },
        {
          "duration": 0.75,
          "durationTicks": 512,
          "midi": 79,
          "name": "G5",
          "ticks": 78848,
          "time": 115.5,
          "velocity": 0.7952755905511811
        },
        {
          "duration": 0.57275390625,
          "durationTicks": 391,
          "midi": 79,
          "name": "G5",
          "ticks": 79360,
          "time": 116.25,
          "velocity": 0.7559055118110236
        },
        {
          "duration": 0.17724609375,
          "durationTicks": 121,
          "midi": 75,
          "name": "D#5",
          "ticks": 79744,
          "time": 116.8125,
          "velocity": 0.6535433070866141
        },
        {
          "duration": 0.57275390625,
          "durationTicks": 391,
          "midi": 74,
          "name": "D5",
          "ticks": 79872,
          "time": 117,
          "velocity": 0.7559055118110236
        },
        {
          "duration": 0.17724609375,
          "durationTicks": 121,
          "midi": 77,
          "name": "F5",
          "ticks": 80256,
          "time": 117.5625,
          "velocity": 0.84251968503937
        },
        {
          "duration": 0.57275390625,
          "durationTicks": 391,
          "midi": 75,
          "name": "D#5",
          "ticks": 80384,
          "time": 117.75,
          "velocity": 0.7401574803149606
        },
        {
          "duration": 0.17724609375,
          "durationTicks": 121,
          "midi": 72,
          "name": "C5",
          "ticks": 80768,
          "time": 118.3125,
          "velocity": 0.6614173228346457
        },
        {
          "duration": 0.1875,
          "durationTicks": 128,
          "midi": 74,
          "name": "D5",
          "ticks": 80896,
          "time": 118.5,
          "velocity": 0.7952755905511811
        },
        {
          "duration": 0.1875,
          "durationTicks": 128,
          "midi": 65,
          "name": "F4",
          "ticks": 81024,
          "time": 118.6875,
          "velocity": 0.3937007874015748
        },
        {
          "duration": 0.1875,
          "durationTicks": 128,
          "midi": 62,
          "name": "D4",
          "ticks": 81152,
          "time": 118.875,
          "velocity": 0.41732283464566927
        },
        {
          "duration": 0.1875,
          "durationTicks": 128,
          "midi": 65,
          "name": "F4",
          "ticks": 81280,
          "time": 119.0625,
          "velocity": 0.5118110236220472
        },
        {
          "duration": 0.1875,
          "durationTicks": 128,
          "midi": 62,
          "name": "D4",
          "ticks": 81408,
          "time": 119.25,
          "velocity": 0.4645669291338583
        },
        {
          "duration": 0.1875,
          "durationTicks": 128,
          "midi": 65,
          "name": "F4",
          "ticks": 81536,
          "time": 119.4375,
          "velocity": 0.5433070866141733
        },
        {
          "duration": 0.1875,
          "durationTicks": 128,
          "midi": 62,
          "name": "D4",
          "ticks": 81664,
          "time": 119.625,
          "velocity": 0.4251968503937008
        },
        {
          "duration": 0.1875,
          "durationTicks": 128,
          "midi": 65,
          "name": "F4",
          "ticks": 81792,
          "time": 119.8125,
          "velocity": 0.5590551181102362
        },
        {
          "duration": 0.1875,
          "durationTicks": 128,
          "midi": 60,
          "name": "C4",
          "ticks": 81920,
          "time": 120,
          "velocity": 0.41732283464566927
        },
        {
          "duration": 0.1875,
          "durationTicks": 128,
          "midi": 63,
          "name": "D#4",
          "ticks": 82048,
          "time": 120.1875,
          "velocity": 0.49606299212598426
        },
        {
          "duration": 0.1875,
          "durationTicks": 128,
          "midi": 60,
          "name": "C4",
          "ticks": 82176,
          "time": 120.375,
          "velocity": 0.4645669291338583
        },
        {
          "duration": 0.1875,
          "durationTicks": 128,
          "midi": 63,
          "name": "D#4",
          "ticks": 82304,
          "time": 120.5625,
          "velocity": 0.5039370078740157
        },
        {
          "duration": 0.1875,
          "durationTicks": 128,
          "midi": 60,
          "name": "C4",
          "ticks": 82432,
          "time": 120.75,
          "velocity": 0.4251968503937008
        },
        {
          "duration": 0.1875,
          "durationTicks": 128,
          "midi": 65,
          "name": "F4",
          "ticks": 82560,
          "time": 120.9375,
          "velocity": 0.5118110236220472
        },
        {
          "duration": 0.1875,
          "durationTicks": 128,
          "midi": 57,
          "name": "A3",
          "ticks": 82688,
          "time": 121.125,
          "velocity": 0.4566929133858268
        },
        {
          "duration": 0.1875,
          "durationTicks": 128,
          "midi": 65,
          "name": "F4",
          "ticks": 82816,
          "time": 121.3125,
          "velocity": 0.5433070866141733
        },
        {
          "duration": 0.1875,
          "durationTicks": 128,
          "midi": 58,
          "name": "A#3",
          "ticks": 82944,
          "time": 121.5,
          "velocity": 0.41732283464566927
        },
        {
          "duration": 0.1875,
          "durationTicks": 128,
          "midi": 65,
          "name": "F4",
          "ticks": 83072,
          "time": 121.6875,
          "velocity": 0.5748031496062992
        },
        {
          "duration": 0.1875,
          "durationTicks": 128,
          "midi": 58,
          "name": "A#3",
          "ticks": 83200,
          "time": 121.875,
          "velocity": 0.4645669291338583
        },
        {
          "duration": 0.1875,
          "durationTicks": 128,
          "midi": 65,
          "name": "F4",
          "ticks": 83328,
          "time": 122.0625,
          "velocity": 0.5669291338582677
        },
        {
          "duration": 0.1875,
          "durationTicks": 128,
          "midi": 58,
          "name": "A#3",
          "ticks": 83456,
          "time": 122.25,
          "velocity": 0.4330708661417323
        },
        {
          "duration": 0.1875,
          "durationTicks": 128,
          "midi": 65,
          "name": "F4",
          "ticks": 83584,
          "time": 122.4375,
          "velocity": 0.5354330708661418
        },
        {
          "duration": 0.1875,
          "durationTicks": 128,
          "midi": 62,
          "name": "D4",
          "ticks": 83712,
          "time": 122.625,
          "velocity": 0.4881889763779528
        },
        {
          "duration": 0.1875,
          "durationTicks": 128,
          "midi": 65,
          "name": "F4",
          "ticks": 83840,
          "time": 122.8125,
          "velocity": 0.5039370078740157
        },
        {
          "duration": 0.1875,
          "durationTicks": 128,
          "midi": 60,
          "name": "C4",
          "ticks": 83968,
          "time": 123,
          "velocity": 0.3858267716535433
        },
        {
          "duration": 0.1875,
          "durationTicks": 128,
          "midi": 63,
          "name": "D#4",
          "ticks": 84096,
          "time": 123.1875,
          "velocity": 0.5118110236220472
        },
        {
          "duration": 0.1875,
          "durationTicks": 128,
          "midi": 60,
          "name": "C4",
          "ticks": 84224,
          "time": 123.375,
          "velocity": 0.4409448818897638
        },
        {
          "duration": 0.1875,
          "durationTicks": 128,
          "midi": 63,
          "name": "D#4",
          "ticks": 84352,
          "time": 123.5625,
          "velocity": 0.49606299212598426
        },
        {
          "duration": 0.1875,
          "durationTicks": 128,
          "midi": 60,
          "name": "C4",
          "ticks": 84480,
          "time": 123.75,
          "velocity": 0.41732283464566927
        },
        {
          "duration": 0.1875,
          "durationTicks": 128,
          "midi": 65,
          "name": "F4",
          "ticks": 84608,
          "time": 123.9375,
          "velocity": 0.5590551181102362
        },
        {
          "duration": 0.1875,
          "durationTicks": 128,
          "midi": 57,
          "name": "A3",
          "ticks": 84736,
          "time": 124.125,
          "velocity": 0.41732283464566927
        },
        {
          "duration": 0.1875,
          "durationTicks": 128,
          "midi": 65,
          "name": "F4",
          "ticks": 84864,
          "time": 124.3125,
          "velocity": 0.5511811023622047
        },
        {
          "duration": 0.1875,
          "durationTicks": 128,
          "midi": 58,
          "name": "A#3",
          "ticks": 84992,
          "time": 124.5,
          "velocity": 0.48031496062992124
        },
        {
          "duration": 0.1875,
          "durationTicks": 128,
          "midi": 65,
          "name": "F4",
          "ticks": 85120,
          "time": 124.6875,
          "velocity": 0.5511811023622047
        },
        {
          "duration": 0.1875,
          "durationTicks": 128,
          "midi": 58,
          "name": "A#3",
          "ticks": 85248,
          "time": 124.875,
          "velocity": 0.47244094488188976
        },
        {
          "duration": 0.1875,
          "durationTicks": 128,
          "midi": 65,
          "name": "F4",
          "ticks": 85376,
          "time": 125.0625,
          "velocity": 0.5590551181102362
        },
        {
          "duration": 0.1875,
          "durationTicks": 128,
          "midi": 58,
          "name": "A#3",
          "ticks": 85504,
          "time": 125.25,
          "velocity": 0.4566929133858268
        },
        {
          "duration": 0.1875,
          "durationTicks": 128,
          "midi": 65,
          "name": "F4",
          "ticks": 85632,
          "time": 125.4375,
          "velocity": 0.5669291338582677
        },
        {
          "duration": 0.1875,
          "durationTicks": 128,
          "midi": 70,
          "name": "A#4",
          "ticks": 85760,
          "time": 125.625,
          "velocity": 0.5039370078740157
        },
        {
          "duration": 0.1875,
          "durationTicks": 128,
          "midi": 65,
          "name": "F4",
          "ticks": 85888,
          "time": 125.8125,
          "velocity": 0.41732283464566927
        },
        {
          "duration": 0.1875,
          "durationTicks": 128,
          "midi": 72,
          "name": "C5",
          "ticks": 86016,
          "time": 126,
          "velocity": 0.968503937007874
        },
        {
          "duration": 0.1875,
          "durationTicks": 128,
          "midi": 78,
          "name": "F#5",
          "ticks": 86016,
          "time": 126,
          "velocity": 0.968503937007874
        },
        {
          "duration": 0.1875,
          "durationTicks": 128,
          "midi": 72,
          "name": "C5",
          "ticks": 86144,
          "time": 126.1875,
          "velocity": 0.7874015748031497
        },
        {
          "duration": 0.1875,
          "durationTicks": 128,
          "midi": 78,
          "name": "F#5",
          "ticks": 86144,
          "time": 126.1875,
          "velocity": 0.7874015748031497
        },
        {
          "duration": 0.1875,
          "durationTicks": 128,
          "midi": 72,
          "name": "C5",
          "ticks": 86272,
          "time": 126.375,
          "velocity": 0.7874015748031497
        },
        {
          "duration": 0.1875,
          "durationTicks": 128,
          "midi": 78,
          "name": "F#5",
          "ticks": 86272,
          "time": 126.375,
          "velocity": 0.7874015748031497
        },
        {
          "duration": 0.1875,
          "durationTicks": 128,
          "midi": 72,
          "name": "C5",
          "ticks": 86400,
          "time": 126.5625,
          "velocity": 0.8188976377952756
        },
        {
          "duration": 0.1875,
          "durationTicks": 128,
          "midi": 78,
          "name": "F#5",
          "ticks": 86400,
          "time": 126.5625,
          "velocity": 0.8188976377952756
        },
        {
          "duration": 0.1875,
          "durationTicks": 128,
          "midi": 72,
          "name": "C5",
          "ticks": 86528,
          "time": 126.75,
          "velocity": 0.7559055118110236
        },
        {
          "duration": 0.1875,
          "durationTicks": 128,
          "midi": 78,
          "name": "F#5",
          "ticks": 86528,
          "time": 126.75,
          "velocity": 0.7559055118110236
        },
        {
          "duration": 0.1875,
          "durationTicks": 128,
          "midi": 72,
          "name": "C5",
          "ticks": 86656,
          "time": 126.9375,
          "velocity": 0.7401574803149606
        },
        {
          "duration": 0.1875,
          "durationTicks": 128,
          "midi": 78,
          "name": "F#5",
          "ticks": 86656,
          "time": 126.9375,
          "velocity": 0.7401574803149606
        },
        {
          "duration": 0.1875,
          "durationTicks": 128,
          "midi": 72,
          "name": "C5",
          "ticks": 86784,
          "time": 127.125,
          "velocity": 0.7874015748031497
        },
        {
          "duration": 0.1875,
          "durationTicks": 128,
          "midi": 78,
          "name": "F#5",
          "ticks": 86784,
          "time": 127.125,
          "velocity": 0.7874015748031497
        },
        {
          "duration": 0.1875,
          "durationTicks": 128,
          "midi": 72,
          "name": "C5",
          "ticks": 86912,
          "time": 127.3125,
          "velocity": 0.7795275590551181
        },
        {
          "duration": 0.1875,
          "durationTicks": 128,
          "midi": 78,
          "name": "F#5",
          "ticks": 86912,
          "time": 127.3125,
          "velocity": 0.7795275590551181
        },
        {
          "duration": 0.75,
          "durationTicks": 512,
          "midi": 70,
          "name": "A#4",
          "ticks": 87040,
          "time": 127.5,
          "velocity": 0.8110236220472441
        },
        {
          "duration": 0.75,
          "durationTicks": 512,
          "midi": 79,
          "name": "G5",
          "ticks": 87040,
          "time": 127.5,
          "velocity": 0.8110236220472441
        },
        {
          "duration": 0.5625,
          "durationTicks": 384,
          "midi": 79,
          "name": "G5",
          "ticks": 87552,
          "time": 128.25,
          "velocity": 0.8031496062992126
        },
        {
          "duration": 0.1875,
          "durationTicks": 128,
          "midi": 75,
          "name": "D#5",
          "ticks": 87936,
          "time": 128.8125,
          "velocity": 0.6771653543307087
        },
        {
          "duration": 0.5625,
          "durationTicks": 384,
          "midi": 74,
          "name": "D5",
          "ticks": 88064,
          "time": 129,
          "velocity": 0.6929133858267716
        },
        {
          "duration": 0.1875,
          "durationTicks": 128,
          "midi": 77,
          "name": "F5",
          "ticks": 88448,
          "time": 129.5625,
          "velocity": 0.8267716535433071
        },
        {
          "duration": 0.5625,
          "durationTicks": 384,
          "midi": 75,
          "name": "D#5",
          "ticks": 88576,
          "time": 129.75,
          "velocity": 0.6771653543307087
        },
        {
          "duration": 0.1875,
          "durationTicks": 128,
          "midi": 72,
          "name": "C5",
          "ticks": 88960,
          "time": 130.3125,
          "velocity": 0.7086614173228346
        },
        {
          "duration": 0.375,
          "durationTicks": 256,
          "midi": 74,
          "name": "D5",
          "ticks": 89088,
          "time": 130.5,
          "velocity": 0.8031496062992126
        },
        {
          "duration": 0.1875,
          "durationTicks": 128,
          "midi": 86,
          "name": "D6",
          "ticks": 89344,
          "time": 130.875,
          "velocity": 0.984251968503937
        },
        {
          "duration": 0.1875,
          "durationTicks": 128,
          "midi": 84,
          "name": "C6",
          "ticks": 89472,
          "time": 131.0625,
          "velocity": 0.7322834645669292
        },
        {
          "duration": 0.1875,
          "durationTicks": 128,
          "midi": 82,
          "name": "A#5",
          "ticks": 89600,
          "time": 131.25,
          "velocity": 0.7480314960629921
        },
        {
          "duration": 0.1875,
          "durationTicks": 128,
          "midi": 81,
          "name": "A5",
          "ticks": 89728,
          "time": 131.4375,
          "velocity": 0.7716535433070866
        },
        {
          "duration": 0.1875,
          "durationTicks": 128,
          "midi": 79,
          "name": "G5",
          "ticks": 89856,
          "time": 131.625,
          "velocity": 0.7480314960629921
        },
        {
          "duration": 0.1875,
          "durationTicks": 128,
          "midi": 77,
          "name": "F5",
          "ticks": 89984,
          "time": 131.8125,
          "velocity": 0.6850393700787402
        },
        {
          "duration": 0.1875,
          "durationTicks": 128,
          "midi": 75,
          "name": "D#5",
          "ticks": 90112,
          "time": 132,
          "velocity": 0.6535433070866141
        },
        {
          "duration": 0.1875,
          "durationTicks": 128,
          "midi": 74,
          "name": "D5",
          "ticks": 90240,
          "time": 132.1875,
          "velocity": 0.7559055118110236
        },
        {
          "duration": 0.1875,
          "durationTicks": 128,
          "midi": 72,
          "name": "C5",
          "ticks": 90368,
          "time": 132.375,
          "velocity": 0.7244094488188977
        },
        {
          "duration": 0.1875,
          "durationTicks": 128,
          "midi": 70,
          "name": "A#4",
          "ticks": 90496,
          "time": 132.5625,
          "velocity": 0.7086614173228346
        },
        {
          "duration": 0.1875,
          "durationTicks": 128,
          "midi": 69,
          "name": "A4",
          "ticks": 90624,
          "time": 132.75,
          "velocity": 0.7795275590551181
        },
        {
          "duration": 0.1875,
          "durationTicks": 128,
          "midi": 67,
          "name": "G4",
          "ticks": 90752,
          "time": 132.9375,
          "velocity": 0.7165354330708661
        },
        {
          "duration": 0.1875,
          "durationTicks": 128,
          "midi": 65,
          "name": "F4",
          "ticks": 90880,
          "time": 133.125,
          "velocity": 0.7322834645669292
        },
        {
          "duration": 0.1875,
          "durationTicks": 128,
          "midi": 63,
          "name": "D#4",
          "ticks": 91008,
          "time": 133.3125,
          "velocity": 0.7559055118110236
        },
        {
          "duration": 0.375,
          "durationTicks": 256,
          "midi": 62,
          "name": "D4",
          "ticks": 91136,
          "time": 133.5,
          "velocity": 0.7401574803149606
        },
        {
          "duration": 0.375,
          "durationTicks": 256,
          "midi": 70,
          "name": "A#4",
          "ticks": 91392,
          "time": 133.875,
          "velocity": 0.9133858267716536
        },
        {
          "duration": 0.375,
          "durationTicks": 256,
          "midi": 70,
          "name": "A#4",
          "ticks": 91648,
          "time": 134.25,
          "velocity": 0.84251968503937
        },
        {
          "duration": 0.375,
          "durationTicks": 256,
          "midi": 60,
          "name": "C4",
          "ticks": 91904,
          "time": 134.625,
          "velocity": 0.5984251968503937
        },
        {
          "duration": 0.375,
          "durationTicks": 256,
          "midi": 63,
          "name": "D#4",
          "ticks": 91904,
          "time": 134.625,
          "velocity": 0.5984251968503937
        },
        {
          "duration": 0.375,
          "durationTicks": 256,
          "midi": 58,
          "name": "A#3",
          "ticks": 92160,
          "time": 135,
          "velocity": 0.6692913385826772
        },
        {
          "duration": 0.375,
          "durationTicks": 256,
          "midi": 62,
          "name": "D4",
          "ticks": 92160,
          "time": 135,
          "velocity": 0.6692913385826772
        },
        {
          "duration": 0.1875,
          "durationTicks": 128,
          "midi": 74,
          "name": "D5",
          "ticks": 92416,
          "time": 135.375,
          "velocity": 0.9606299212598425
        },
        {
          "duration": 0.1875,
          "durationTicks": 128,
          "midi": 72,
          "name": "C5",
          "ticks": 92544,
          "time": 135.5625,
          "velocity": 0.7716535433070866
        },
        {
          "duration": 0.1875,
          "durationTicks": 128,
          "midi": 70,
          "name": "A#4",
          "ticks": 92672,
          "time": 135.75,
          "velocity": 0.7244094488188977
        },
        {
          "duration": 0.1875,
          "durationTicks": 128,
          "midi": 69,
          "name": "A4",
          "ticks": 92800,
          "time": 135.9375,
          "velocity": 0.7244094488188977
        },
        {
          "duration": 0.1875,
          "durationTicks": 128,
          "midi": 67,
          "name": "G4",
          "ticks": 92928,
          "time": 136.125,
          "velocity": 0.7007874015748031
        },
        {
          "duration": 0.1875,
          "durationTicks": 128,
          "midi": 65,
          "name": "F4",
          "ticks": 93056,
          "time": 136.3125,
          "velocity": 0.7007874015748031
        },
        {
          "duration": 0.1875,
          "durationTicks": 128,
          "midi": 63,
          "name": "D#4",
          "ticks": 93184,
          "time": 136.5,
          "velocity": 0.7165354330708661
        },
        {
          "duration": 0.1875,
          "durationTicks": 128,
          "midi": 62,
          "name": "D4",
          "ticks": 93312,
          "time": 136.6875,
          "velocity": 0.7401574803149606
        },
        {
          "duration": 0.1875,
          "durationTicks": 128,
          "midi": 60,
          "name": "C4",
          "ticks": 93440,
          "time": 136.875,
          "velocity": 0.7322834645669292
        },
        {
          "duration": 0.1875,
          "durationTicks": 128,
          "midi": 58,
          "name": "A#3",
          "ticks": 93568,
          "time": 137.0625,
          "velocity": 0.7165354330708661
        },
        {
          "duration": 0.1875,
          "durationTicks": 128,
          "midi": 57,
          "name": "A3",
          "ticks": 93696,
          "time": 137.25,
          "velocity": 0.7480314960629921
        },
        {
          "duration": 0.1875,
          "durationTicks": 128,
          "midi": 60,
          "name": "C4",
          "ticks": 93824,
          "time": 137.4375,
          "velocity": 0.8740157480314961
        },
        {
          "duration": 0.1875,
          "durationTicks": 128,
          "midi": 65,
          "name": "F4",
          "ticks": 93952,
          "time": 137.625,
          "velocity": 0.8503937007874016
        },
        {
          "duration": 0.1875,
          "durationTicks": 128,
          "midi": 63,
          "name": "D#4",
          "ticks": 94080,
          "time": 137.8125,
          "velocity": 0.7322834645669292
        },
        {
          "duration": 0.375,
          "durationTicks": 256,
          "midi": 62,
          "name": "D4",
          "ticks": 94208,
          "time": 138,
          "velocity": 0.7401574803149606
        },
        {
          "duration": 0.375,
          "durationTicks": 256,
          "midi": 70,
          "name": "A#4",
          "ticks": 94464,
          "time": 138.375,
          "velocity": 0.9212598425196851
        },
        {
          "duration": 0.375,
          "durationTicks": 256,
          "midi": 70,
          "name": "A#4",
          "ticks": 94720,
          "time": 138.75,
          "velocity": 0.7874015748031497
        },
        {
          "duration": 0.375,
          "durationTicks": 256,
          "midi": 75,
          "name": "D#5",
          "ticks": 94976,
          "time": 139.125,
          "velocity": 0.9133858267716536
        },
        {
          "duration": 0.375,
          "durationTicks": 256,
          "midi": 74,
          "name": "D5",
          "ticks": 95232,
          "time": 139.5,
          "velocity": 0.7401574803149606
        },
        {
          "duration": 0.375,
          "durationTicks": 256,
          "midi": 75,
          "name": "D#5",
          "ticks": 95488,
          "time": 139.875,
          "velocity": 0.7716535433070866
        },
        {
          "duration": 0.375,
          "durationTicks": 256,
          "midi": 74,
          "name": "D5",
          "ticks": 95744,
          "time": 140.25,
          "velocity": 0.7086614173228346
        },
        {
          "duration": 0.375,
          "durationTicks": 256,
          "midi": 60,
          "name": "C4",
          "ticks": 96000,
          "time": 140.625,
          "velocity": 0.5669291338582677
        },
        {
          "duration": 0.375,
          "durationTicks": 256,
          "midi": 63,
          "name": "D#4",
          "ticks": 96000,
          "time": 140.625,
          "velocity": 0.5669291338582677
        },
        {
          "duration": 0.375,
          "durationTicks": 256,
          "midi": 58,
          "name": "A#3",
          "ticks": 96256,
          "time": 141,
          "velocity": 0.7007874015748031
        },
        {
          "duration": 0.375,
          "durationTicks": 256,
          "midi": 62,
          "name": "D4",
          "ticks": 96256,
          "time": 141,
          "velocity": 0.7007874015748031
        },
        {
          "duration": 0.1875,
          "durationTicks": 128,
          "midi": 65,
          "name": "F4",
          "ticks": 96512,
          "time": 141.375,
          "velocity": 0.968503937007874
        },
        {
          "duration": 0.1875,
          "durationTicks": 128,
          "midi": 74,
          "name": "D5",
          "ticks": 96512,
          "time": 141.375,
          "velocity": 0.968503937007874
        },
        {
          "duration": 0.1875,
          "durationTicks": 128,
          "midi": 65,
          "name": "F4",
          "ticks": 96640,
          "time": 141.5625,
          "velocity": 0.84251968503937
        },
        {
          "duration": 0.1875,
          "durationTicks": 128,
          "midi": 74,
          "name": "D5",
          "ticks": 96640,
          "time": 141.5625,
          "velocity": 0.84251968503937
        },
        {
          "duration": 0.375,
          "durationTicks": 256,
          "midi": 65,
          "name": "F4",
          "ticks": 96768,
          "time": 141.75,
          "velocity": 0.8031496062992126
        },
        {
          "duration": 0.375,
          "durationTicks": 256,
          "midi": 75,
          "name": "D#5",
          "ticks": 96768,
          "time": 141.75,
          "velocity": 0.8031496062992126
        },
        {
          "duration": 0.1875,
          "durationTicks": 128,
          "midi": 65,
          "name": "F4",
          "ticks": 97024,
          "time": 142.125,
          "velocity": 0.7716535433070866
        },
        {
          "duration": 0.1875,
          "durationTicks": 128,
          "midi": 75,
          "name": "D#5",
          "ticks": 97024,
          "time": 142.125,
          "velocity": 0.7716535433070866
        },
        {
          "duration": 0.1875,
          "durationTicks": 128,
          "midi": 65,
          "name": "F4",
          "ticks": 97152,
          "time": 142.3125,
          "velocity": 0.7322834645669292
        },
        {
          "duration": 0.1875,
          "durationTicks": 128,
          "midi": 75,
          "name": "D#5",
          "ticks": 97152,
          "time": 142.3125,
          "velocity": 0.7322834645669292
        },
        {
          "duration": 0.375,
          "durationTicks": 256,
          "midi": 65,
          "name": "F4",
          "ticks": 97280,
          "time": 142.5,
          "velocity": 0.7086614173228346
        },
        {
          "duration": 0.375,
          "durationTicks": 256,
          "midi": 74,
          "name": "D5",
          "ticks": 97280,
          "time": 142.5,
          "velocity": 0.7086614173228346
        },
        {
          "duration": 0.1875,
          "durationTicks": 128,
          "midi": 65,
          "name": "F4",
          "ticks": 97536,
          "time": 142.875,
          "velocity": 0.7716535433070866
        },
        {
          "duration": 0.1875,
          "durationTicks": 128,
          "midi": 74,
          "name": "D5",
          "ticks": 97536,
          "time": 142.875,
          "velocity": 0.7716535433070866
        },
        {
          "duration": 0.1875,
          "durationTicks": 128,
          "midi": 65,
          "name": "F4",
          "ticks": 97664,
          "time": 143.0625,
          "velocity": 0.7637795275590551
        },
        {
          "duration": 0.1875,
          "durationTicks": 128,
          "midi": 74,
          "name": "D5",
          "ticks": 97664,
          "time": 143.0625,
          "velocity": 0.7637795275590551
        },
        {
          "duration": 0.375,
          "durationTicks": 256,
          "midi": 65,
          "name": "F4",
          "ticks": 97792,
          "time": 143.25,
          "velocity": 0.8110236220472441
        },
        {
          "duration": 0.375,
          "durationTicks": 256,
          "midi": 75,
          "name": "D#5",
          "ticks": 97792,
          "time": 143.25,
          "velocity": 0.8110236220472441
        },
        {
          "duration": 0.1875,
          "durationTicks": 128,
          "midi": 65,
          "name": "F4",
          "ticks": 98048,
          "time": 143.625,
          "velocity": 0.7795275590551181
        },
        {
          "duration": 0.1875,
          "durationTicks": 128,
          "midi": 75,
          "name": "D#5",
          "ticks": 98048,
          "time": 143.625,
          "velocity": 0.7795275590551181
        },
        {
          "duration": 0.1875,
          "durationTicks": 128,
          "midi": 65,
          "name": "F4",
          "ticks": 98176,
          "time": 143.8125,
          "velocity": 0.7716535433070866
        },
        {
          "duration": 0.1875,
          "durationTicks": 128,
          "midi": 75,
          "name": "D#5",
          "ticks": 98176,
          "time": 143.8125,
          "velocity": 0.7716535433070866
        },
        {
          "duration": 0.375,
          "durationTicks": 256,
          "midi": 65,
          "name": "F4",
          "ticks": 98304,
          "time": 144,
          "velocity": 0.6850393700787402
        },
        {
          "duration": 0.375,
          "durationTicks": 256,
          "midi": 74,
          "name": "D5",
          "ticks": 98304,
          "time": 144,
          "velocity": 0.6850393700787402
        },
        {
          "duration": 0.1875,
          "durationTicks": 128,
          "midi": 65,
          "name": "F4",
          "ticks": 98560,
          "time": 144.375,
          "velocity": 0.7637795275590551
        },
        {
          "duration": 0.1875,
          "durationTicks": 128,
          "midi": 74,
          "name": "D5",
          "ticks": 98560,
          "time": 144.375,
          "velocity": 0.7637795275590551
        },
        {
          "duration": 0.1875,
          "durationTicks": 128,
          "midi": 65,
          "name": "F4",
          "ticks": 98688,
          "time": 144.5625,
          "velocity": 0.7716535433070866
        },
        {
          "duration": 0.1875,
          "durationTicks": 128,
          "midi": 74,
          "name": "D5",
          "ticks": 98688,
          "time": 144.5625,
          "velocity": 0.7716535433070866
        },
        {
          "duration": 0.375,
          "durationTicks": 256,
          "midi": 65,
          "name": "F4",
          "ticks": 98816,
          "time": 144.75,
          "velocity": 0.8188976377952756
        },
        {
          "duration": 0.375,
          "durationTicks": 256,
          "midi": 75,
          "name": "D#5",
          "ticks": 98816,
          "time": 144.75,
          "velocity": 0.8188976377952756
        },
        {
          "duration": 0.1875,
          "durationTicks": 128,
          "midi": 65,
          "name": "F4",
          "ticks": 99072,
          "time": 145.125,
          "velocity": 0.7559055118110236
        },
        {
          "duration": 0.1875,
          "durationTicks": 128,
          "midi": 75,
          "name": "D#5",
          "ticks": 99072,
          "time": 145.125,
          "velocity": 0.7559055118110236
        },
        {
          "duration": 0.1875,
          "durationTicks": 128,
          "midi": 65,
          "name": "F4",
          "ticks": 99200,
          "time": 145.3125,
          "velocity": 0.7716535433070866
        },
        {
          "duration": 0.1875,
          "durationTicks": 128,
          "midi": 75,
          "name": "D#5",
          "ticks": 99200,
          "time": 145.3125,
          "velocity": 0.7716535433070866
        },
        {
          "duration": 0.375,
          "durationTicks": 256,
          "midi": 65,
          "name": "F4",
          "ticks": 99328,
          "time": 145.5,
          "velocity": 0.7401574803149606
        },
        {
          "duration": 0.375,
          "durationTicks": 256,
          "midi": 74,
          "name": "D5",
          "ticks": 99328,
          "time": 145.5,
          "velocity": 0.7401574803149606
        },
        {
          "duration": 0.375,
          "durationTicks": 256,
          "midi": 65,
          "name": "F4",
          "ticks": 99584,
          "time": 145.875,
          "velocity": 0.7952755905511811
        },
        {
          "duration": 0.375,
          "durationTicks": 256,
          "midi": 75,
          "name": "D#5",
          "ticks": 99584,
          "time": 145.875,
          "velocity": 0.7952755905511811
        },
        {
          "duration": 0.375,
          "durationTicks": 256,
          "midi": 65,
          "name": "F4",
          "ticks": 99840,
          "time": 146.25,
          "velocity": 0.7559055118110236
        },
        {
          "duration": 0.375,
          "durationTicks": 256,
          "midi": 74,
          "name": "D5",
          "ticks": 99840,
          "time": 146.25,
          "velocity": 0.7559055118110236
        },
        {
          "duration": 0.375,
          "durationTicks": 256,
          "midi": 65,
          "name": "F4",
          "ticks": 100096,
          "time": 146.625,
          "velocity": 0.7874015748031497
        },
        {
          "duration": 0.375,
          "durationTicks": 256,
          "midi": 75,
          "name": "D#5",
          "ticks": 100096,
          "time": 146.625,
          "velocity": 0.7874015748031497
        },
        {
          "duration": 0.375,
          "durationTicks": 256,
          "midi": 65,
          "name": "F4",
          "ticks": 100352,
          "time": 147,
          "velocity": 0.7007874015748031
        },
        {
          "duration": 0.375,
          "durationTicks": 256,
          "midi": 74,
          "name": "D5",
          "ticks": 100352,
          "time": 147,
          "velocity": 0.7007874015748031
        },
        {
          "duration": 0.375,
          "durationTicks": 256,
          "midi": 62,
          "name": "D4",
          "ticks": 101376,
          "time": 148.5,
          "velocity": 0.7007874015748031
        },
        {
          "duration": 0.375,
          "durationTicks": 256,
          "midi": 72,
          "name": "C5",
          "ticks": 101376,
          "time": 148.5,
          "velocity": 0.7007874015748031
        },
        {
          "duration": 0.375,
          "durationTicks": 256,
          "midi": 78,
          "name": "F#5",
          "ticks": 101376,
          "time": 148.5,
          "velocity": 0.7007874015748031
        },
        {
          "duration": 0.1904296875,
          "durationTicks": 130,
          "midi": 63,
          "name": "D#4",
          "ticks": 103168,
          "time": 151.125,
          "velocity": 0.4330708661417323
        },
        {
          "duration": 0.17724609375,
          "durationTicks": 121,
          "midi": 62,
          "name": "D4",
          "ticks": 103296,
          "time": 151.3125,
          "velocity": 0.4251968503937008
        },
        {
          "duration": 0.375,
          "durationTicks": 256,
          "midi": 62,
          "name": "D4",
          "ticks": 103424,
          "time": 151.5,
          "velocity": 0.47244094488188976
        },
        {
          "duration": 0.1904296875,
          "durationTicks": 130,
          "midi": 63,
          "name": "D#4",
          "ticks": 103680,
          "time": 151.875,
          "velocity": 0.5039370078740157
        },
        {
          "duration": 0.17724609375,
          "durationTicks": 121,
          "midi": 62,
          "name": "D4",
          "ticks": 103808,
          "time": 152.0625,
          "velocity": 0.47244094488188976
        },
        {
          "duration": 0.375,
          "durationTicks": 256,
          "midi": 62,
          "name": "D4",
          "ticks": 103936,
          "time": 152.25,
          "velocity": 0.47244094488188976
        },
        {
          "duration": 0.1904296875,
          "durationTicks": 130,
          "midi": 63,
          "name": "D#4",
          "ticks": 104192,
          "time": 152.625,
          "velocity": 0.47244094488188976
        },
        {
          "duration": 0.17724609375,
          "durationTicks": 121,
          "midi": 62,
          "name": "D4",
          "ticks": 104320,
          "time": 152.8125,
          "velocity": 0.44881889763779526
        },
        {
          "duration": 0.38232421875,
          "durationTicks": 261,
          "midi": 62,
          "name": "D4",
          "ticks": 104448,
          "time": 153,
          "velocity": 0.4566929133858268
        },
        {
          "duration": 0.35595703125,
          "durationTicks": 243,
          "midi": 70,
          "name": "A#4",
          "ticks": 104704,
          "time": 153.375,
          "velocity": 0.5354330708661418
        },
        {
          "duration": 0.1904296875,
          "durationTicks": 130,
          "midi": 70,
          "name": "A#4",
          "ticks": 105216,
          "time": 154.125,
          "velocity": 0.4251968503937008
        },
        {
          "duration": 0.17724609375,
          "durationTicks": 121,
          "midi": 69,
          "name": "A4",
          "ticks": 105344,
          "time": 154.3125,
          "velocity": 0.3543307086614173
        },
        {
          "duration": 0.375,
          "durationTicks": 256,
          "midi": 67,
          "name": "G4",
          "ticks": 105472,
          "time": 154.5,
          "velocity": 0.4409448818897638
        },
        {
          "duration": 0.1904296875,
          "durationTicks": 130,
          "midi": 67,
          "name": "G4",
          "ticks": 105728,
          "time": 154.875,
          "velocity": 0.4409448818897638
        },
        {
          "duration": 0.17724609375,
          "durationTicks": 121,
          "midi": 65,
          "name": "F4",
          "ticks": 105856,
          "time": 155.0625,
          "velocity": 0.41732283464566927
        },
        {
          "duration": 0.375,
          "durationTicks": 256,
          "midi": 63,
          "name": "D#4",
          "ticks": 105984,
          "time": 155.25,
          "velocity": 0.4251968503937008
        },
        {
          "duration": 0.1904296875,
          "durationTicks": 130,
          "midi": 63,
          "name": "D#4",
          "ticks": 106240,
          "time": 155.625,
          "velocity": 0.48031496062992124
        },
        {
          "duration": 0.17724609375,
          "durationTicks": 121,
          "midi": 62,
          "name": "D4",
          "ticks": 106368,
          "time": 155.8125,
          "velocity": 0.4409448818897638
        },
        {
          "duration": 0.375,
          "durationTicks": 256,
          "midi": 60,
          "name": "C4",
          "ticks": 106496,
          "time": 156,
          "velocity": 0.4330708661417323
        },
        {
          "duration": 0.375,
          "durationTicks": 256,
          "midi": 60,
          "name": "C4",
          "ticks": 106752,
          "time": 156.375,
          "velocity": 0.49606299212598426
        },
        {
          "duration": 0.1904296875,
          "durationTicks": 130,
          "midi": 62,
          "name": "D4",
          "ticks": 107264,
          "time": 157.125,
          "velocity": 0.3937007874015748
        },
        {
          "duration": 0.17724609375,
          "durationTicks": 121,
          "midi": 60,
          "name": "C4",
          "ticks": 107392,
          "time": 157.3125,
          "velocity": 0.3700787401574803
        },
        {
          "duration": 0.375,
          "durationTicks": 256,
          "midi": 60,
          "name": "C4",
          "ticks": 107520,
          "time": 157.5,
          "velocity": 0.47244094488188976
        },
        {
          "duration": 0.1904296875,
          "durationTicks": 130,
          "midi": 62,
          "name": "D4",
          "ticks": 107776,
          "time": 157.875,
          "velocity": 0.5118110236220472
        },
        {
          "duration": 0.17724609375,
          "durationTicks": 121,
          "midi": 60,
          "name": "C4",
          "ticks": 107904,
          "time": 158.0625,
          "velocity": 0.4645669291338583
        },
        {
          "duration": 0.375,
          "durationTicks": 256,
          "midi": 60,
          "name": "C4",
          "ticks": 108032,
          "time": 158.25,
          "velocity": 0.48031496062992124
        },
        {
          "duration": 0.1904296875,
          "durationTicks": 130,
          "midi": 62,
          "name": "D4",
          "ticks": 108288,
          "time": 158.625,
          "velocity": 0.5196850393700787
        },
        {
          "duration": 0.17724609375,
          "durationTicks": 121,
          "midi": 60,
          "name": "C4",
          "ticks": 108416,
          "time": 158.8125,
          "velocity": 0.48031496062992124
        },
        {
          "duration": 0.38232421875,
          "durationTicks": 261,
          "midi": 60,
          "name": "C4",
          "ticks": 108544,
          "time": 159,
          "velocity": 0.4645669291338583
        },
        {
          "duration": 0.35595703125,
          "durationTicks": 243,
          "midi": 69,
          "name": "A4",
          "ticks": 108800,
          "time": 159.375,
          "velocity": 0.5511811023622047
        },
        {
          "duration": 0.1904296875,
          "durationTicks": 130,
          "midi": 69,
          "name": "A4",
          "ticks": 109312,
          "time": 160.125,
          "velocity": 0.4251968503937008
        },
        {
          "duration": 0.17724609375,
          "durationTicks": 121,
          "midi": 67,
          "name": "G4",
          "ticks": 109440,
          "time": 160.3125,
          "velocity": 0.3937007874015748
        },
        {
          "duration": 0.375,
          "durationTicks": 256,
          "midi": 66,
          "name": "F#4",
          "ticks": 109568,
          "time": 160.5,
          "velocity": 0.4881889763779528
        },
        {
          "duration": 0.1904296875,
          "durationTicks": 130,
          "midi": 66,
          "name": "F#4",
          "ticks": 109824,
          "time": 160.875,
          "velocity": 0.4566929133858268
        },
        {
          "duration": 0.17724609375,
          "durationTicks": 121,
          "midi": 63,
          "name": "D#4",
          "ticks": 109952,
          "time": 161.0625,
          "velocity": 0.3858267716535433
        },
        {
          "duration": 0.375,
          "durationTicks": 256,
          "midi": 62,
          "name": "D4",
          "ticks": 110080,
          "time": 161.25,
          "velocity": 0.4330708661417323
        },
        {
          "duration": 0.1904296875,
          "durationTicks": 130,
          "midi": 62,
          "name": "D4",
          "ticks": 110336,
          "time": 161.625,
          "velocity": 0.47244094488188976
        },
        {
          "duration": 0.17724609375,
          "durationTicks": 121,
          "midi": 60,
          "name": "C4",
          "ticks": 110464,
          "time": 161.8125,
          "velocity": 0.4409448818897638
        },
        {
          "duration": 0.375,
          "durationTicks": 256,
          "midi": 58,
          "name": "A#3",
          "ticks": 110592,
          "time": 162,
          "velocity": 0.4645669291338583
        },
        {
          "duration": 0.375,
          "durationTicks": 256,
          "midi": 58,
          "name": "A#3",
          "ticks": 110848,
          "time": 162.375,
          "velocity": 0.4881889763779528
        },
        {
          "duration": 0.1904296875,
          "durationTicks": 130,
          "midi": 70,
          "name": "A#4",
          "ticks": 111360,
          "time": 163.125,
          "velocity": 0.3858267716535433
        },
        {
          "duration": 0.17724609375,
          "durationTicks": 121,
          "midi": 69,
          "name": "A4",
          "ticks": 111488,
          "time": 163.3125,
          "velocity": 0.3700787401574803
        },
        {
          "duration": 0.38232421875,
          "durationTicks": 261,
          "midi": 69,
          "name": "A4",
          "ticks": 111616,
          "time": 163.5,
          "velocity": 0.48031496062992124
        },
        {
          "duration": 0.38232421875,
          "durationTicks": 261,
          "midi": 72,
          "name": "C5",
          "ticks": 111872,
          "time": 163.875,
          "velocity": 0.5118110236220472
        },
        {
          "duration": 0.38232421875,
          "durationTicks": 261,
          "midi": 66,
          "name": "F#4",
          "ticks": 112128,
          "time": 164.25,
          "velocity": 0.4330708661417323
        },
        {
          "duration": 0.35595703125,
          "durationTicks": 243,
          "midi": 69,
          "name": "A4",
          "ticks": 112384,
          "time": 164.625,
          "velocity": 0.44881889763779526
        },
        {
          "duration": 0.38232421875,
          "durationTicks": 261,
          "midi": 67,
          "name": "G4",
          "ticks": 112640,
          "time": 165,
          "velocity": 0.47244094488188976
        },
        {
          "duration": 0.35595703125,
          "durationTicks": 243,
          "midi": 62,
          "name": "D4",
          "ticks": 112896,
          "time": 165.375,
          "velocity": 0.4015748031496063
        },
        {
          "duration": 0.1904296875,
          "durationTicks": 130,
          "midi": 70,
          "name": "A#4",
          "ticks": 113408,
          "time": 166.125,
          "velocity": 0.4409448818897638
        },
        {
          "duration": 0.17724609375,
          "durationTicks": 121,
          "midi": 69,
          "name": "A4",
          "ticks": 113536,
          "time": 166.3125,
          "velocity": 0.4330708661417323
        },
        {
          "duration": 0.38232421875,
          "durationTicks": 261,
          "midi": 69,
          "name": "A4",
          "ticks": 113664,
          "time": 166.5,
          "velocity": 0.5039370078740157
        },
        {
          "duration": 0.38232421875,
          "durationTicks": 261,
          "midi": 72,
          "name": "C5",
          "ticks": 113920,
          "time": 166.875,
          "velocity": 0.5354330708661418
        },
        {
          "duration": 0.38232421875,
          "durationTicks": 261,
          "midi": 66,
          "name": "F#4",
          "ticks": 114176,
          "time": 167.25,
          "velocity": 0.4015748031496063
        },
        {
          "duration": 0.35595703125,
          "durationTicks": 243,
          "midi": 69,
          "name": "A4",
          "ticks": 114432,
          "time": 167.625,
          "velocity": 0.41732283464566927
        },
        {
          "duration": 0.38232421875,
          "durationTicks": 261,
          "midi": 67,
          "name": "G4",
          "ticks": 114688,
          "time": 168,
          "velocity": 0.4409448818897638
        },
        {
          "duration": 0.38232421875,
          "durationTicks": 261,
          "midi": 70,
          "name": "A#4",
          "ticks": 114944,
          "time": 168.375,
          "velocity": 0.4645669291338583
        },
        {
          "duration": 0.1904296875,
          "durationTicks": 130,
          "midi": 69,
          "name": "A4",
          "ticks": 115200,
          "time": 168.75,
          "velocity": 0.4409448818897638
        },
        {
          "duration": 0.1904296875,
          "durationTicks": 130,
          "midi": 67,
          "name": "G4",
          "ticks": 115328,
          "time": 168.9375,
          "velocity": 0.4094488188976378
        },
        {
          "duration": 0.1904296875,
          "durationTicks": 130,
          "midi": 65,
          "name": "F4",
          "ticks": 115456,
          "time": 169.125,
          "velocity": 0.4094488188976378
        },
        {
          "duration": 0.17724609375,
          "durationTicks": 121,
          "midi": 63,
          "name": "D#4",
          "ticks": 115584,
          "time": 169.3125,
          "velocity": 0.33070866141732286
        },
        {
          "duration": 1.529296875,
          "durationTicks": 1044,
          "midi": 62,
          "name": "D4",
          "ticks": 115712,
          "time": 169.5,
          "velocity": 0.4409448818897638
        },
        {
          "duration": 1.529296875,
          "durationTicks": 1044,
          "midi": 61,
          "name": "C#4",
          "ticks": 116736,
          "time": 171,
          "velocity": 0.41732283464566927
        },
        {
          "duration": 0.7119140625,
          "durationTicks": 486,
          "midi": 62,
          "name": "D4",
          "ticks": 117760,
          "time": 172.5,
          "velocity": 0.49606299212598426
        },
        {
          "duration": 0.1875,
          "durationTicks": 128,
          "midi": 62,
          "name": "D4",
          "ticks": 118528,
          "time": 173.625,
          "velocity": 0.6692913385826772
        },
        {
          "duration": 0.1875,
          "durationTicks": 128,
          "midi": 62,
          "name": "D4",
          "ticks": 118656,
          "time": 173.8125,
          "velocity": 0.7559055118110236
        },
        {
          "duration": 0.75,
          "durationTicks": 512,
          "midi": 62,
          "name": "D4",
          "ticks": 118784,
          "time": 174,
          "velocity": 0.7559055118110236
        },
        {
          "duration": 0.1875,
          "durationTicks": 128,
          "midi": 62,
          "name": "D4",
          "ticks": 119552,
          "time": 175.125,
          "velocity": 0.6692913385826772
        },
        {
          "duration": 0.1875,
          "durationTicks": 128,
          "midi": 62,
          "name": "D4",
          "ticks": 119680,
          "time": 175.3125,
          "velocity": 0.7795275590551181
        },
        {
          "duration": 0.75,
          "durationTicks": 512,
          "midi": 62,
          "name": "D4",
          "ticks": 119808,
          "time": 175.5,
          "velocity": 0.7637795275590551
        },
        {
          "duration": 0.1875,
          "durationTicks": 128,
          "midi": 62,
          "name": "D4",
          "ticks": 120576,
          "time": 176.625,
          "velocity": 0.7007874015748031
        },
        {
          "duration": 0.1875,
          "durationTicks": 128,
          "midi": 62,
          "name": "D4",
          "ticks": 120704,
          "time": 176.8125,
          "velocity": 0.7874015748031497
        },
        {
          "duration": 0.375,
          "durationTicks": 256,
          "midi": 62,
          "name": "D4",
          "ticks": 120832,
          "time": 177,
          "velocity": 0.7559055118110236
        },
        {
          "duration": 0.1875,
          "durationTicks": 128,
          "midi": 62,
          "name": "D4",
          "ticks": 121088,
          "time": 177.375,
          "velocity": 0.7795275590551181
        },
        {
          "duration": 0.1875,
          "durationTicks": 128,
          "midi": 62,
          "name": "D4",
          "ticks": 121216,
          "time": 177.5625,
          "velocity": 0.7874015748031497
        },
        {
          "duration": 0.375,
          "durationTicks": 256,
          "midi": 62,
          "name": "D4",
          "ticks": 121344,
          "time": 177.75,
          "velocity": 0.7559055118110236
        },
        {
          "duration": 0.1875,
          "durationTicks": 128,
          "midi": 62,
          "name": "D4",
          "ticks": 121600,
          "time": 178.125,
          "velocity": 0.7480314960629921
        },
        {
          "duration": 0.1875,
          "durationTicks": 128,
          "midi": 62,
          "name": "D4",
          "ticks": 121728,
          "time": 178.3125,
          "velocity": 0.7244094488188977
        },
        {
          "duration": 0.75,
          "durationTicks": 512,
          "midi": 62,
          "name": "D4",
          "ticks": 121856,
          "time": 178.5,
          "velocity": 0.7874015748031497
        },
        {
          "duration": 0.1904296875,
          "durationTicks": 130,
          "midi": 63,
          "name": "D#4",
          "ticks": 122624,
          "time": 179.625,
          "velocity": 0.44881889763779526
        },
        {
          "duration": 0.17724609375,
          "durationTicks": 121,
          "midi": 62,
          "name": "D4",
          "ticks": 122752,
          "time": 179.8125,
          "velocity": 0.44881889763779526
        },
        {
          "duration": 0.375,
          "durationTicks": 256,
          "midi": 62,
          "name": "D4",
          "ticks": 122880,
          "time": 180,
          "velocity": 0.5039370078740157
        },
        {
          "duration": 0.1904296875,
          "durationTicks": 130,
          "midi": 63,
          "name": "D#4",
          "ticks": 123136,
          "time": 180.375,
          "velocity": 0.4881889763779528
        },
        {
          "duration": 0.17724609375,
          "durationTicks": 121,
          "midi": 62,
          "name": "D4",
          "ticks": 123264,
          "time": 180.5625,
          "velocity": 0.4409448818897638
        },
        {
          "duration": 0.375,
          "durationTicks": 256,
          "midi": 62,
          "name": "D4",
          "ticks": 123392,
          "time": 180.75,
          "velocity": 0.4566929133858268
        },
        {
          "duration": 0.1904296875,
          "durationTicks": 130,
          "midi": 63,
          "name": "D#4",
          "ticks": 123648,
          "time": 181.125,
          "velocity": 0.4881889763779528
        },
        {
          "duration": 0.17724609375,
          "durationTicks": 121,
          "midi": 62,
          "name": "D4",
          "ticks": 123776,
          "time": 181.3125,
          "velocity": 0.44881889763779526
        },
        {
          "duration": 0.38232421875,
          "durationTicks": 261,
          "midi": 62,
          "name": "D4",
          "ticks": 123904,
          "time": 181.5,
          "velocity": 0.48031496062992124
        },
        {
          "duration": 0.35595703125,
          "durationTicks": 243,
          "midi": 70,
          "name": "A#4",
          "ticks": 124160,
          "time": 181.875,
          "velocity": 0.5905511811023622
        },
        {
          "duration": 0.1904296875,
          "durationTicks": 130,
          "midi": 70,
          "name": "A#4",
          "ticks": 124672,
          "time": 182.625,
          "velocity": 0.4566929133858268
        },
        {
          "duration": 0.17724609375,
          "durationTicks": 121,
          "midi": 69,
          "name": "A4",
          "ticks": 124800,
          "time": 182.8125,
          "velocity": 0.4015748031496063
        },
        {
          "duration": 0.375,
          "durationTicks": 256,
          "midi": 67,
          "name": "G4",
          "ticks": 124928,
          "time": 183,
          "velocity": 0.4251968503937008
        },
        {
          "duration": 0.1904296875,
          "durationTicks": 130,
          "midi": 67,
          "name": "G4",
          "ticks": 125184,
          "time": 183.375,
          "velocity": 0.49606299212598426
        },
        {
          "duration": 0.17724609375,
          "durationTicks": 121,
          "midi": 65,
          "name": "F4",
          "ticks": 125312,
          "time": 183.5625,
          "velocity": 0.4566929133858268
        },
        {
          "duration": 0.375,
          "durationTicks": 256,
          "midi": 63,
          "name": "D#4",
          "ticks": 125440,
          "time": 183.75,
          "velocity": 0.4881889763779528
        },
        {
          "duration": 0.1904296875,
          "durationTicks": 130,
          "midi": 63,
          "name": "D#4",
          "ticks": 125696,
          "time": 184.125,
          "velocity": 0.47244094488188976
        },
        {
          "duration": 0.17724609375,
          "durationTicks": 121,
          "midi": 62,
          "name": "D4",
          "ticks": 125824,
          "time": 184.3125,
          "velocity": 0.4330708661417323
        },
        {
          "duration": 0.375,
          "durationTicks": 256,
          "midi": 60,
          "name": "C4",
          "ticks": 125952,
          "time": 184.5,
          "velocity": 0.4566929133858268
        },
        {
          "duration": 0.375,
          "durationTicks": 256,
          "midi": 60,
          "name": "C4",
          "ticks": 126208,
          "time": 184.875,
          "velocity": 0.5039370078740157
        },
        {
          "duration": 0.1904296875,
          "durationTicks": 130,
          "midi": 65,
          "name": "F4",
          "ticks": 126720,
          "time": 185.625,
          "velocity": 0.4251968503937008
        },
        {
          "duration": 0.17724609375,
          "durationTicks": 121,
          "midi": 63,
          "name": "D#4",
          "ticks": 126848,
          "time": 185.8125,
          "velocity": 0.3779527559055118
        },
        {
          "duration": 0.375,
          "durationTicks": 256,
          "midi": 63,
          "name": "D#4",
          "ticks": 126976,
          "time": 186,
          "velocity": 0.48031496062992124
        },
        {
          "duration": 0.1904296875,
          "durationTicks": 130,
          "midi": 65,
          "name": "F4",
          "ticks": 127232,
          "time": 186.375,
          "velocity": 0.48031496062992124
        },
        {
          "duration": 0.17724609375,
          "durationTicks": 121,
          "midi": 63,
          "name": "D#4",
          "ticks": 127360,
          "time": 186.5625,
          "velocity": 0.48031496062992124
        },
        {
          "duration": 0.375,
          "durationTicks": 256,
          "midi": 63,
          "name": "D#4",
          "ticks": 127488,
          "time": 186.75,
          "velocity": 0.49606299212598426
        },
        {
          "duration": 0.1904296875,
          "durationTicks": 130,
          "midi": 65,
          "name": "F4",
          "ticks": 127744,
          "time": 187.125,
          "velocity": 0.5275590551181102
        },
        {
          "duration": 0.17724609375,
          "durationTicks": 121,
          "midi": 63,
          "name": "D#4",
          "ticks": 127872,
          "time": 187.3125,
          "velocity": 0.5275590551181102
        },
        {
          "duration": 0.38232421875,
          "durationTicks": 261,
          "midi": 63,
          "name": "D#4",
          "ticks": 128000,
          "time": 187.5,
          "velocity": 0.4881889763779528
        },
        {
          "duration": 0.35595703125,
          "durationTicks": 243,
          "midi": 72,
          "name": "C5",
          "ticks": 128256,
          "time": 187.875,
          "velocity": 0.5669291338582677
        },
        {
          "duration": 0.1904296875,
          "durationTicks": 130,
          "midi": 72,
          "name": "C5",
          "ticks": 128768,
          "time": 188.625,
          "velocity": 0.4409448818897638
        },
        {
          "duration": 0.17724609375,
          "durationTicks": 121,
          "midi": 70,
          "name": "A#4",
          "ticks": 128896,
          "time": 188.8125,
          "velocity": 0.4015748031496063
        },
        {
          "duration": 0.375,
          "durationTicks": 256,
          "midi": 69,
          "name": "A4",
          "ticks": 129024,
          "time": 189,
          "velocity": 0.4409448818897638
        },
        {
          "duration": 0.1904296875,
          "durationTicks": 130,
          "midi": 69,
          "name": "A4",
          "ticks": 129280,
          "time": 189.375,
          "velocity": 0.48031496062992124
        },
        {
          "duration": 0.17724609375,
          "durationTicks": 121,
          "midi": 67,
          "name": "G4",
          "ticks": 129408,
          "time": 189.5625,
          "velocity": 0.4645669291338583
        },
        {
          "duration": 0.375,
          "durationTicks": 256,
          "midi": 65,
          "name": "F4",
          "ticks": 129536,
          "time": 189.75,
          "velocity": 0.4409448818897638
        },
        {
          "duration": 0.1904296875,
          "durationTicks": 130,
          "midi": 65,
          "name": "F4",
          "ticks": 129792,
          "time": 190.125,
          "velocity": 0.48031496062992124
        },
        {
          "duration": 0.17724609375,
          "durationTicks": 121,
          "midi": 63,
          "name": "D#4",
          "ticks": 129920,
          "time": 190.3125,
          "velocity": 0.4409448818897638
        },
        {
          "duration": 1.5,
          "durationTicks": 1024,
          "midi": 62,
          "name": "D4",
          "ticks": 130048,
          "time": 190.5,
          "velocity": 0.889763779527559
        },
        {
          "duration": 1.5,
          "durationTicks": 1024,
          "midi": 70,
          "name": "A#4",
          "ticks": 130048,
          "time": 190.5,
          "velocity": 0.889763779527559
        },
        {
          "duration": 1.125,
          "durationTicks": 768,
          "midi": 69,
          "name": "A4",
          "ticks": 131072,
          "time": 192,
          "velocity": 0.968503937007874
        },
        {
          "duration": 1.125,
          "durationTicks": 768,
          "midi": 77,
          "name": "F5",
          "ticks": 131072,
          "time": 192,
          "velocity": 0.968503937007874
        },
        {
          "duration": 0.1875,
          "durationTicks": 128,
          "midi": 77,
          "name": "F5",
          "ticks": 131968,
          "time": 193.3125,
          "velocity": 0.6771653543307087
        },
        {
          "duration": 0.1875,
          "durationTicks": 128,
          "midi": 75,
          "name": "D#5",
          "ticks": 132096,
          "time": 193.5,
          "velocity": 0.7086614173228346
        },
        {
          "duration": 0.1875,
          "durationTicks": 128,
          "midi": 79,
          "name": "G5",
          "ticks": 132352,
          "time": 193.875,
          "velocity": 0.8818897637795275
        },
        {
          "duration": 0.1875,
          "durationTicks": 128,
          "midi": 82,
          "name": "A#5",
          "ticks": 132608,
          "time": 194.25,
          "velocity": 0.84251968503937
        },
        {
          "duration": 0.1875,
          "durationTicks": 128,
          "midi": 74,
          "name": "D5",
          "ticks": 133120,
          "time": 195,
          "velocity": 0.6535433070866141
        },
        {
          "duration": 0.1875,
          "durationTicks": 128,
          "midi": 77,
          "name": "F5",
          "ticks": 133376,
          "time": 195.375,
          "velocity": 0.8110236220472441
        },
        {
          "duration": 0.1875,
          "durationTicks": 128,
          "midi": 82,
          "name": "A#5",
          "ticks": 133632,
          "time": 195.75,
          "velocity": 0.8740157480314961
        },
        {
          "duration": 0.1875,
          "durationTicks": 128,
          "midi": 74,
          "name": "D5",
          "ticks": 134016,
          "time": 196.3125,
          "velocity": 0.6850393700787402
        },
        {
          "duration": 0.1875,
          "durationTicks": 128,
          "midi": 72,
          "name": "C5",
          "ticks": 134144,
          "time": 196.5,
          "velocity": 0.7559055118110236
        },
        {
          "duration": 0.1875,
          "durationTicks": 128,
          "midi": 75,
          "name": "D#5",
          "ticks": 134400,
          "time": 196.875,
          "velocity": 0.8346456692913385
        },
        {
          "duration": 0.1875,
          "durationTicks": 128,
          "midi": 79,
          "name": "G5",
          "ticks": 134656,
          "time": 197.25,
          "velocity": 0.8740157480314961
        },
        {
          "duration": 0.1875,
          "durationTicks": 128,
          "midi": 72,
          "name": "C5",
          "ticks": 134912,
          "time": 197.625,
          "velocity": 0.6535433070866141
        },
        {
          "duration": 0.1875,
          "durationTicks": 128,
          "midi": 70,
          "name": "A#4",
          "ticks": 135168,
          "time": 198,
          "velocity": 0.6771653543307087
        },
        {
          "duration": 0.1875,
          "durationTicks": 128,
          "midi": 74,
          "name": "D5",
          "ticks": 135424,
          "time": 198.375,
          "velocity": 0.8582677165354331
        },
        {
          "duration": 0.1875,
          "durationTicks": 128,
          "midi": 77,
          "name": "F5",
          "ticks": 135680,
          "time": 198.75,
          "velocity": 0.8346456692913385
        },
        {
          "duration": 0.1875,
          "durationTicks": 128,
          "midi": 65,
          "name": "F4",
          "ticks": 136064,
          "time": 199.3125,
          "velocity": 0.7007874015748031
        },
        {
          "duration": 0.1875,
          "durationTicks": 128,
          "midi": 64,
          "name": "E4",
          "ticks": 136192,
          "time": 199.5,
          "velocity": 0.7480314960629921
        },
        {
          "duration": 0.1875,
          "durationTicks": 128,
          "midi": 65,
          "name": "F4",
          "ticks": 136320,
          "time": 199.6875,
          "velocity": 0.7716535433070866
        },
        {
          "duration": 0.1875,
          "durationTicks": 128,
          "midi": 67,
          "name": "G4",
          "ticks": 136448,
          "time": 199.875,
          "velocity": 0.8346456692913385
        },
        {
          "duration": 0.1875,
          "durationTicks": 128,
          "midi": 69,
          "name": "A4",
          "ticks": 136576,
          "time": 200.0625,
          "velocity": 0.8188976377952756
        },
        {
          "duration": 0.1875,
          "durationTicks": 128,
          "midi": 70,
          "name": "A#4",
          "ticks": 136704,
          "time": 200.25,
          "velocity": 0.8110236220472441
        },
        {
          "duration": 0.1875,
          "durationTicks": 128,
          "midi": 72,
          "name": "C5",
          "ticks": 136832,
          "time": 200.4375,
          "velocity": 0.8110236220472441
        },
        {
          "duration": 0.1875,
          "durationTicks": 128,
          "midi": 73,
          "name": "C#5",
          "ticks": 136960,
          "time": 200.625,
          "velocity": 0.8346456692913385
        },
        {
          "duration": 0.1875,
          "durationTicks": 128,
          "midi": 65,
          "name": "F4",
          "ticks": 137088,
          "time": 200.8125,
          "velocity": 0.5905511811023622
        },
        {
          "duration": 0.1875,
          "durationTicks": 128,
          "midi": 64,
          "name": "E4",
          "ticks": 137216,
          "time": 201,
          "velocity": 0.6929133858267716
        },
        {
          "duration": 0.1875,
          "durationTicks": 128,
          "midi": 65,
          "name": "F4",
          "ticks": 137344,
          "time": 201.1875,
          "velocity": 0.8188976377952756
        },
        {
          "duration": 0.1875,
          "durationTicks": 128,
          "midi": 67,
          "name": "G4",
          "ticks": 137472,
          "time": 201.375,
          "velocity": 0.8346456692913385
        },
        {
          "duration": 0.1875,
          "durationTicks": 128,
          "midi": 69,
          "name": "A4",
          "ticks": 137600,
          "time": 201.5625,
          "velocity": 0.7874015748031497
        },
        {
          "duration": 0.1875,
          "durationTicks": 128,
          "midi": 70,
          "name": "A#4",
          "ticks": 137728,
          "time": 201.75,
          "velocity": 0.8188976377952756
        },
        {
          "duration": 0.1875,
          "durationTicks": 128,
          "midi": 72,
          "name": "C5",
          "ticks": 137856,
          "time": 201.9375,
          "velocity": 0.8346456692913385
        },
        {
          "duration": 0.1875,
          "durationTicks": 128,
          "midi": 73,
          "name": "C#5",
          "ticks": 137984,
          "time": 202.125,
          "velocity": 0.8188976377952756
        },
        {
          "duration": 0.1875,
          "durationTicks": 128,
          "midi": 65,
          "name": "F4",
          "ticks": 138112,
          "time": 202.3125,
          "velocity": 0.6377952755905512
        },
        {
          "duration": 0.1875,
          "durationTicks": 128,
          "midi": 64,
          "name": "E4",
          "ticks": 138240,
          "time": 202.5,
          "velocity": 0.6771653543307087
        },
        {
          "duration": 0.1875,
          "durationTicks": 128,
          "midi": 65,
          "name": "F4",
          "ticks": 138368,
          "time": 202.6875,
          "velocity": 0.7874015748031497
        },
        {
          "duration": 0.1875,
          "durationTicks": 128,
          "midi": 67,
          "name": "G4",
          "ticks": 138496,
          "time": 202.875,
          "velocity": 0.8188976377952756
        },
        {
          "duration": 0.1875,
          "durationTicks": 128,
          "midi": 69,
          "name": "A4",
          "ticks": 138624,
          "time": 203.0625,
          "velocity": 0.7874015748031497
        },
        {
          "duration": 0.1875,
          "durationTicks": 128,
          "midi": 70,
          "name": "A#4",
          "ticks": 138752,
          "time": 203.25,
          "velocity": 0.8031496062992126
        },
        {
          "duration": 0.1875,
          "durationTicks": 128,
          "midi": 72,
          "name": "C5",
          "ticks": 138880,
          "time": 203.4375,
          "velocity": 0.8188976377952756
        },
        {
          "duration": 0.1875,
          "durationTicks": 128,
          "midi": 73,
          "name": "C#5",
          "ticks": 139008,
          "time": 203.625,
          "velocity": 0.8267716535433071
        },
        {
          "duration": 0.1875,
          "durationTicks": 128,
          "midi": 65,
          "name": "F4",
          "ticks": 139136,
          "time": 203.8125,
          "velocity": 0.6220472440944882
        },
        {
          "duration": 0.1875,
          "durationTicks": 128,
          "midi": 64,
          "name": "E4",
          "ticks": 139264,
          "time": 204,
          "velocity": 0.7007874015748031
        },
        {
          "duration": 0.1875,
          "durationTicks": 128,
          "midi": 65,
          "name": "F4",
          "ticks": 139392,
          "time": 204.1875,
          "velocity": 0.8110236220472441
        },
        {
          "duration": 0.1875,
          "durationTicks": 128,
          "midi": 67,
          "name": "G4",
          "ticks": 139520,
          "time": 204.375,
          "velocity": 0.8503937007874016
        },
        {
          "duration": 0.1875,
          "durationTicks": 128,
          "midi": 69,
          "name": "A4",
          "ticks": 139648,
          "time": 204.5625,
          "velocity": 0.8110236220472441
        },
        {
          "duration": 0.1875,
          "durationTicks": 128,
          "midi": 70,
          "name": "A#4",
          "ticks": 139776,
          "time": 204.75,
          "velocity": 0.8031496062992126
        },
        {
          "duration": 0.1875,
          "durationTicks": 128,
          "midi": 72,
          "name": "C5",
          "ticks": 139904,
          "time": 204.9375,
          "velocity": 0.8346456692913385
        },
        {
          "duration": 0.1875,
          "durationTicks": 128,
          "midi": 73,
          "name": "C#5",
          "ticks": 140032,
          "time": 205.125,
          "velocity": 0.8267716535433071
        },
        {
          "duration": 0.1875,
          "durationTicks": 128,
          "midi": 64,
          "name": "E4",
          "ticks": 140160,
          "time": 205.3125,
          "velocity": 0.5511811023622047
        },
        {
          "duration": 0.1875,
          "durationTicks": 128,
          "midi": 65,
          "name": "F4",
          "ticks": 140288,
          "time": 205.5,
          "velocity": 0.7480314960629921
        },
        {
          "duration": 0.1875,
          "durationTicks": 128,
          "midi": 77,
          "name": "F5",
          "ticks": 140416,
          "time": 205.6875,
          "velocity": 0.9921259842519685
        },
        {
          "duration": 0.1875,
          "durationTicks": 128,
          "midi": 77,
          "name": "F5",
          "ticks": 140544,
          "time": 205.875,
          "velocity": 0.8110236220472441
        },
        {
          "duration": 0.1875,
          "durationTicks": 128,
          "midi": 77,
          "name": "F5",
          "ticks": 140672,
          "time": 206.0625,
          "velocity": 0.7637795275590551
        },
        {
          "duration": 0.1875,
          "durationTicks": 128,
          "midi": 75,
          "name": "D#5",
          "ticks": 140800,
          "time": 206.25,
          "velocity": 0.7244094488188977
        },
        {
          "duration": 0.1875,
          "durationTicks": 128,
          "midi": 75,
          "name": "D#5",
          "ticks": 140928,
          "time": 206.4375,
          "velocity": 0.7322834645669292
        },
        {
          "duration": 0.1875,
          "durationTicks": 128,
          "midi": 75,
          "name": "D#5",
          "ticks": 141056,
          "time": 206.625,
          "velocity": 0.7874015748031497
        },
        {
          "duration": 0.1875,
          "durationTicks": 128,
          "midi": 75,
          "name": "D#5",
          "ticks": 141184,
          "time": 206.8125,
          "velocity": 0.7401574803149606
        },
        {
          "duration": 0.1875,
          "durationTicks": 128,
          "midi": 73,
          "name": "C#5",
          "ticks": 141312,
          "time": 207,
          "velocity": 0.7007874015748031
        },
        {
          "duration": 0.1875,
          "durationTicks": 128,
          "midi": 73,
          "name": "C#5",
          "ticks": 141440,
          "time": 207.1875,
          "velocity": 0.7637795275590551
        },
        {
          "duration": 0.1875,
          "durationTicks": 128,
          "midi": 73,
          "name": "C#5",
          "ticks": 141568,
          "time": 207.375,
          "velocity": 0.7637795275590551
        },
        {
          "duration": 0.1875,
          "durationTicks": 128,
          "midi": 73,
          "name": "C#5",
          "ticks": 141696,
          "time": 207.5625,
          "velocity": 0.7322834645669292
        },
        {
          "duration": 0.1875,
          "durationTicks": 128,
          "midi": 73,
          "name": "C#5",
          "ticks": 141824,
          "time": 207.75,
          "velocity": 0.7952755905511811
        },
        {
          "duration": 0.1875,
          "durationTicks": 128,
          "midi": 73,
          "name": "C#5",
          "ticks": 141952,
          "time": 207.9375,
          "velocity": 0.7559055118110236
        },
        {
          "duration": 0.1875,
          "durationTicks": 128,
          "midi": 73,
          "name": "C#5",
          "ticks": 142080,
          "time": 208.125,
          "velocity": 0.7716535433070866
        },
        {
          "duration": 0.1875,
          "durationTicks": 128,
          "midi": 73,
          "name": "C#5",
          "ticks": 142208,
          "time": 208.3125,
          "velocity": 0.8188976377952756
        },
        {
          "duration": 0.1875,
          "durationTicks": 128,
          "midi": 72,
          "name": "C5",
          "ticks": 142336,
          "time": 208.5,
          "velocity": 0.7086614173228346
        },
        {
          "duration": 0.1875,
          "durationTicks": 128,
          "midi": 72,
          "name": "C5",
          "ticks": 142464,
          "time": 208.6875,
          "velocity": 0.7952755905511811
        },
        {
          "duration": 0.1875,
          "durationTicks": 128,
          "midi": 72,
          "name": "C5",
          "ticks": 142592,
          "time": 208.875,
          "velocity": 0.7795275590551181
        },
        {
          "duration": 0.1875,
          "durationTicks": 128,
          "midi": 72,
          "name": "C5",
          "ticks": 142720,
          "time": 209.0625,
          "velocity": 0.8188976377952756
        },
        {
          "duration": 0.1875,
          "durationTicks": 128,
          "midi": 75,
          "name": "D#5",
          "ticks": 142848,
          "time": 209.25,
          "velocity": 0.8267716535433071
        },
        {
          "duration": 0.1875,
          "durationTicks": 128,
          "midi": 75,
          "name": "D#5",
          "ticks": 142976,
          "time": 209.4375,
          "velocity": 0.7716535433070866
        },
        {
          "duration": 0.1875,
          "durationTicks": 128,
          "midi": 75,
          "name": "D#5",
          "ticks": 143104,
          "time": 209.625,
          "velocity": 0.7795275590551181
        },
        {
          "duration": 0.1875,
          "durationTicks": 128,
          "midi": 75,
          "name": "D#5",
          "ticks": 143232,
          "time": 209.8125,
          "velocity": 0.7716535433070866
        },
        {
          "duration": 0.1875,
          "durationTicks": 128,
          "midi": 73,
          "name": "C#5",
          "ticks": 143360,
          "time": 210,
          "velocity": 0.7086614173228346
        },
        {
          "duration": 0.1875,
          "durationTicks": 128,
          "midi": 73,
          "name": "C#5",
          "ticks": 143488,
          "time": 210.1875,
          "velocity": 0.7401574803149606
        },
        {
          "duration": 0.1875,
          "durationTicks": 128,
          "midi": 73,
          "name": "C#5",
          "ticks": 143616,
          "time": 210.375,
          "velocity": 0.7559055118110236
        },
        {
          "duration": 0.1875,
          "durationTicks": 128,
          "midi": 73,
          "name": "C#5",
          "ticks": 143744,
          "time": 210.5625,
          "velocity": 0.7716535433070866
        },
        {
          "duration": 0.1875,
          "durationTicks": 128,
          "midi": 70,
          "name": "A#4",
          "ticks": 143872,
          "time": 210.75,
          "velocity": 0.7086614173228346
        },
        {
          "duration": 0.1875,
          "durationTicks": 128,
          "midi": 70,
          "name": "A#4",
          "ticks": 144000,
          "time": 210.9375,
          "velocity": 0.7322834645669292
        },
        {
          "duration": 0.1875,
          "durationTicks": 128,
          "midi": 70,
          "name": "A#4",
          "ticks": 144128,
          "time": 211.125,
          "velocity": 0.7874015748031497
        },
        {
          "duration": 0.1875,
          "durationTicks": 128,
          "midi": 70,
          "name": "A#4",
          "ticks": 144256,
          "time": 211.3125,
          "velocity": 0.7795275590551181
        },
        {
          "duration": 0.375,
          "durationTicks": 256,
          "midi": 69,
          "name": "A4",
          "ticks": 144384,
          "time": 211.5,
          "velocity": 0.7165354330708661
        },
        {
          "duration": 0.375,
          "durationTicks": 256,
          "midi": 57,
          "name": "A3",
          "ticks": 144896,
          "time": 212.25,
          "velocity": 0.6771653543307087
        },
        {
          "duration": 0.375,
          "durationTicks": 256,
          "midi": 65,
          "name": "F4",
          "ticks": 144896,
          "time": 212.25,
          "velocity": 0.6771653543307087
        },
        {
          "duration": 1.14697265625,
          "durationTicks": 783,
          "midi": 65,
          "name": "F4",
          "ticks": 146432,
          "time": 214.5,
          "velocity": 0.48031496062992124
        },
        {
          "duration": 0.38232421875,
          "durationTicks": 261,
          "midi": 64,
          "name": "E4",
          "ticks": 147200,
          "time": 215.625,
          "velocity": 0.44881889763779526
        },
        {
          "duration": 0.35595703125,
          "durationTicks": 243,
          "midi": 63,
          "name": "D#4",
          "ticks": 147456,
          "time": 216,
          "velocity": 0.48031496062992124
        },
        {
          "duration": 0.375,
          "durationTicks": 256,
          "midi": 58,
          "name": "A#3",
          "ticks": 148736,
          "time": 217.875,
          "velocity": 0.41732283464566927
        },
        {
          "duration": 0.375,
          "durationTicks": 256,
          "midi": 58,
          "name": "A#3",
          "ticks": 148992,
          "time": 218.25,
          "velocity": 0.4881889763779528
        },
        {
          "duration": 0.375,
          "durationTicks": 256,
          "midi": 58,
          "name": "A#3",
          "ticks": 149248,
          "time": 218.625,
          "velocity": 0.4881889763779528
        },
        {
          "duration": 0.57275390625,
          "durationTicks": 391,
          "midi": 58,
          "name": "A#3",
          "ticks": 149504,
          "time": 219,
          "velocity": 0.4881889763779528
        },
        {
          "duration": 0.17724609375,
          "durationTicks": 121,
          "midi": 60,
          "name": "C4",
          "ticks": 149888,
          "time": 219.5625,
          "velocity": 0.5590551181102362
        },
        {
          "duration": 0.375,
          "durationTicks": 256,
          "midi": 57,
          "name": "A3",
          "ticks": 150016,
          "time": 219.75,
          "velocity": 0.4409448818897638
        },
        {
          "duration": 1.14697265625,
          "durationTicks": 783,
          "midi": 67,
          "name": "G4",
          "ticks": 150528,
          "time": 220.5,
          "velocity": 0.41732283464566927
        },
        {
          "duration": 0.38232421875,
          "durationTicks": 261,
          "midi": 66,
          "name": "F#4",
          "ticks": 151296,
          "time": 221.625,
          "velocity": 0.3858267716535433
        },
        {
          "duration": 0.38232421875,
          "durationTicks": 261,
          "midi": 65,
          "name": "F4",
          "ticks": 151552,
          "time": 222,
          "velocity": 0.44881889763779526
        },
        {
          "duration": 0.38232421875,
          "durationTicks": 261,
          "midi": 64,
          "name": "E4",
          "ticks": 151808,
          "time": 222.375,
          "velocity": 0.4330708661417323
        },
        {
          "duration": 0.38232421875,
          "durationTicks": 261,
          "midi": 63,
          "name": "D#4",
          "ticks": 152064,
          "time": 222.75,
          "velocity": 0.4409448818897638
        },
        {
          "duration": 0.35595703125,
          "durationTicks": 243,
          "midi": 62,
          "name": "D4",
          "ticks": 152320,
          "time": 223.125,
          "velocity": 0.4094488188976378
        },
        {
          "duration": 0.38232421875,
          "durationTicks": 261,
          "midi": 60,
          "name": "C4",
          "ticks": 152576,
          "time": 223.5,
          "velocity": 0.44881889763779526
        },
        {
          "duration": 0.7646484375,
          "durationTicks": 522,
          "midi": 63,
          "name": "D#4",
          "ticks": 152832,
          "time": 223.875,
          "velocity": 0.5039370078740157
        },
        {
          "duration": 0.35595703125,
          "durationTicks": 243,
          "midi": 57,
          "name": "A3",
          "ticks": 153344,
          "time": 224.625,
          "velocity": 0.4330708661417323
        },
        {
          "duration": 0.375,
          "durationTicks": 256,
          "midi": 58,
          "name": "A#3",
          "ticks": 153600,
          "time": 225,
          "velocity": 0.4330708661417323
        },
        {
          "duration": 1.14697265625,
          "durationTicks": 783,
          "midi": 63,
          "name": "D#4",
          "ticks": 155648,
          "time": 228,
          "velocity": 0.41732283464566927
        },
        {
          "duration": 0.09521484375,
          "durationTicks": 65,
          "midi": 65,
          "name": "F4",
          "ticks": 156416,
          "time": 229.125,
          "velocity": 0.4251968503937008
        },
        {
          "duration": 0.09521484375,
          "durationTicks": 65,
          "midi": 63,
          "name": "D#4",
          "ticks": 156480,
          "time": 229.21875,
          "velocity": 0.48031496062992124
        },
        {
          "duration": 0.09521484375,
          "durationTicks": 65,
          "midi": 62,
          "name": "D4",
          "ticks": 156544,
          "time": 229.3125,
          "velocity": 0.4094488188976378
        },
        {
          "duration": 0.09521484375,
          "durationTicks": 65,
          "midi": 60,
          "name": "C4",
          "ticks": 156608,
          "time": 229.40625,
          "velocity": 0.4094488188976378
        },
        {
          "duration": 0.35595703125,
          "durationTicks": 243,
          "midi": 58,
          "name": "A#3",
          "ticks": 156672,
          "time": 229.5,
          "velocity": 0.3937007874015748
        },
        {
          "duration": 1.529296875,
          "durationTicks": 1044,
          "midi": 60,
          "name": "C4",
          "ticks": 158720,
          "time": 232.5,
          "velocity": 0.4094488188976378
        },
        {
          "duration": 0.38232421875,
          "durationTicks": 261,
          "midi": 59,
          "name": "B3",
          "ticks": 159744,
          "time": 234,
          "velocity": 0.4015748031496063
        },
        {
          "duration": 0.38232421875,
          "durationTicks": 261,
          "midi": 58,
          "name": "A#3",
          "ticks": 160000,
          "time": 234.375,
          "velocity": 0.4330708661417323
        },
        {
          "duration": 0.38232421875,
          "durationTicks": 261,
          "midi": 57,
          "name": "A3",
          "ticks": 160256,
          "time": 234.75,
          "velocity": 0.4094488188976378
        },
        {
          "duration": 0.35595703125,
          "durationTicks": 243,
          "midi": 56,
          "name": "G#3",
          "ticks": 160512,
          "time": 235.125,
          "velocity": 0.48031496062992124
        },
        {
          "duration": 0.1904296875,
          "durationTicks": 130,
          "midi": 58,
          "name": "A#3",
          "ticks": 160768,
          "time": 235.5,
          "velocity": 0.5118110236220472
        },
        {
          "duration": 0.1904296875,
          "durationTicks": 130,
          "midi": 55,
          "name": "G3",
          "ticks": 160896,
          "time": 235.6875,
          "velocity": 0.5039370078740157
        },
        {
          "duration": 0.1904296875,
          "durationTicks": 130,
          "midi": 58,
          "name": "A#3",
          "ticks": 161024,
          "time": 235.875,
          "velocity": 0.5039370078740157
        },
        {
          "duration": 0.1904296875,
          "durationTicks": 130,
          "midi": 55,
          "name": "G3",
          "ticks": 161152,
          "time": 236.0625,
          "velocity": 0.4645669291338583
        },
        {
          "duration": 0.1904296875,
          "durationTicks": 130,
          "midi": 58,
          "name": "A#3",
          "ticks": 161280,
          "time": 236.25,
          "velocity": 0.48031496062992124
        },
        {
          "duration": 0.1904296875,
          "durationTicks": 130,
          "midi": 55,
          "name": "G3",
          "ticks": 161408,
          "time": 236.4375,
          "velocity": 0.49606299212598426
        },
        {
          "duration": 0.1904296875,
          "durationTicks": 130,
          "midi": 56,
          "name": "G#3",
          "ticks": 161536,
          "time": 236.625,
          "velocity": 0.4881889763779528
        },
        {
          "duration": 0.17724609375,
          "durationTicks": 121,
          "midi": 60,
          "name": "C4",
          "ticks": 161664,
          "time": 236.8125,
          "velocity": 0.5669291338582677
        },
        {
          "duration": 0.1904296875,
          "durationTicks": 130,
          "midi": 58,
          "name": "A#3",
          "ticks": 161792,
          "time": 237,
          "velocity": 0.47244094488188976
        },
        {
          "duration": 0.1904296875,
          "durationTicks": 130,
          "midi": 55,
          "name": "G3",
          "ticks": 161920,
          "time": 237.1875,
          "velocity": 0.4566929133858268
        },
        {
          "duration": 0.1904296875,
          "durationTicks": 130,
          "midi": 58,
          "name": "A#3",
          "ticks": 162048,
          "time": 237.375,
          "velocity": 0.5039370078740157
        },
        {
          "duration": 0.1904296875,
          "durationTicks": 130,
          "midi": 55,
          "name": "G3",
          "ticks": 162176,
          "time": 237.5625,
          "velocity": 0.49606299212598426
        },
        {
          "duration": 0.1904296875,
          "durationTicks": 130,
          "midi": 58,
          "name": "A#3",
          "ticks": 162304,
          "time": 237.75,
          "velocity": 0.5118110236220472
        },
        {
          "duration": 0.1904296875,
          "durationTicks": 130,
          "midi": 55,
          "name": "G3",
          "ticks": 162432,
          "time": 237.9375,
          "velocity": 0.4881889763779528
        },
        {
          "duration": 0.1904296875,
          "durationTicks": 130,
          "midi": 56,
          "name": "G#3",
          "ticks": 162560,
          "time": 238.125,
          "velocity": 0.5118110236220472
        },
        {
          "duration": 0.17724609375,
          "durationTicks": 121,
          "midi": 60,
          "name": "C4",
          "ticks": 162688,
          "time": 238.3125,
          "velocity": 0.5590551181102362
        },
        {
          "duration": 0.1904296875,
          "durationTicks": 130,
          "midi": 58,
          "name": "A#3",
          "ticks": 162816,
          "time": 238.5,
          "velocity": 0.48031496062992124
        },
        {
          "duration": 0.1904296875,
          "durationTicks": 130,
          "midi": 55,
          "name": "G3",
          "ticks": 162944,
          "time": 238.6875,
          "velocity": 0.48031496062992124
        },
        {
          "duration": 0.1904296875,
          "durationTicks": 130,
          "midi": 58,
          "name": "A#3",
          "ticks": 163072,
          "time": 238.875,
          "velocity": 0.5275590551181102
        },
        {
          "duration": 0.1904296875,
          "durationTicks": 130,
          "midi": 55,
          "name": "G3",
          "ticks": 163200,
          "time": 239.0625,
          "velocity": 0.5275590551181102
        },
        {
          "duration": 0.1904296875,
          "durationTicks": 130,
          "midi": 58,
          "name": "A#3",
          "ticks": 163328,
          "time": 239.25,
          "velocity": 0.49606299212598426
        },
        {
          "duration": 0.1904296875,
          "durationTicks": 130,
          "midi": 55,
          "name": "G3",
          "ticks": 163456,
          "time": 239.4375,
          "velocity": 0.48031496062992124
        },
        {
          "duration": 0.1904296875,
          "durationTicks": 130,
          "midi": 56,
          "name": "G#3",
          "ticks": 163584,
          "time": 239.625,
          "velocity": 0.4881889763779528
        },
        {
          "duration": 0.17724609375,
          "durationTicks": 121,
          "midi": 60,
          "name": "C4",
          "ticks": 163712,
          "time": 239.8125,
          "velocity": 0.5511811023622047
        },
        {
          "duration": 0.1904296875,
          "durationTicks": 130,
          "midi": 58,
          "name": "A#3",
          "ticks": 163840,
          "time": 240,
          "velocity": 0.4645669291338583
        },
        {
          "duration": 0.1904296875,
          "durationTicks": 130,
          "midi": 55,
          "name": "G3",
          "ticks": 163968,
          "time": 240.1875,
          "velocity": 0.44881889763779526
        },
        {
          "duration": 0.1904296875,
          "durationTicks": 130,
          "midi": 58,
          "name": "A#3",
          "ticks": 164096,
          "time": 240.375,
          "velocity": 0.4881889763779528
        },
        {
          "duration": 0.1904296875,
          "durationTicks": 130,
          "midi": 55,
          "name": "G3",
          "ticks": 164224,
          "time": 240.5625,
          "velocity": 0.4881889763779528
        },
        {
          "duration": 0.1904296875,
          "durationTicks": 130,
          "midi": 58,
          "name": "A#3",
          "ticks": 164352,
          "time": 240.75,
          "velocity": 0.4881889763779528
        },
        {
          "duration": 0.1904296875,
          "durationTicks": 130,
          "midi": 55,
          "name": "G3",
          "ticks": 164480,
          "time": 240.9375,
          "velocity": 0.48031496062992124
        },
        {
          "duration": 0.1904296875,
          "durationTicks": 130,
          "midi": 56,
          "name": "G#3",
          "ticks": 164608,
          "time": 241.125,
          "velocity": 0.5196850393700787
        },
        {
          "duration": 0.17724609375,
          "durationTicks": 121,
          "midi": 60,
          "name": "C4",
          "ticks": 164736,
          "time": 241.3125,
          "velocity": 0.5433070866141733
        },
        {
          "duration": 0.1875,
          "durationTicks": 128,
          "midi": 58,
          "name": "A#3",
          "ticks": 164864,
          "time": 241.5,
          "velocity": 0.49606299212598426
        },
        {
          "duration": 0.1875,
          "durationTicks": 128,
          "midi": 70,
          "name": "A#4",
          "ticks": 164992,
          "time": 241.6875,
          "velocity": 0.6535433070866141
        },
        {
          "duration": 0.1875,
          "durationTicks": 128,
          "midi": 70,
          "name": "A#4",
          "ticks": 165120,
          "time": 241.875,
          "velocity": 0.5118110236220472
        },
        {
          "duration": 0.1875,
          "durationTicks": 128,
          "midi": 70,
          "name": "A#4",
          "ticks": 165248,
          "time": 242.0625,
          "velocity": 0.5511811023622047
        },
        {
          "duration": 0.1875,
          "durationTicks": 128,
          "midi": 70,
          "name": "A#4",
          "ticks": 165376,
          "time": 242.25,
          "velocity": 0.5590551181102362
        },
        {
          "duration": 0.1875,
          "durationTicks": 128,
          "midi": 70,
          "name": "A#4",
          "ticks": 165504,
          "time": 242.4375,
          "velocity": 0.5354330708661418
        },
        {
          "duration": 0.1875,
          "durationTicks": 128,
          "midi": 70,
          "name": "A#4",
          "ticks": 165632,
          "time": 242.625,
          "velocity": 0.5905511811023622
        },
        {
          "duration": 0.1875,
          "durationTicks": 128,
          "midi": 70,
          "name": "A#4",
          "ticks": 165760,
          "time": 242.8125,
          "velocity": 0.5826771653543307
        },
        {
          "duration": 0.1875,
          "durationTicks": 128,
          "midi": 70,
          "name": "A#4",
          "ticks": 165888,
          "time": 243,
          "velocity": 0.6614173228346457
        },
        {
          "duration": 0.1875,
          "durationTicks": 128,
          "midi": 82,
          "name": "A#5",
          "ticks": 166016,
          "time": 243.1875,
          "velocity": 0.8110236220472441
        },
        {
          "duration": 0.1875,
          "durationTicks": 128,
          "midi": 82,
          "name": "A#5",
          "ticks": 166144,
          "time": 243.375,
          "velocity": 0.6614173228346457
        },
        {
          "duration": 0.1875,
          "durationTicks": 128,
          "midi": 82,
          "name": "A#5",
          "ticks": 166272,
          "time": 243.5625,
          "velocity": 0.6850393700787402
        },
        {
          "duration": 0.1875,
          "durationTicks": 128,
          "midi": 82,
          "name": "A#5",
          "ticks": 166400,
          "time": 243.75,
          "velocity": 0.6377952755905512
        },
        {
          "duration": 0.1875,
          "durationTicks": 128,
          "midi": 82,
          "name": "A#5",
          "ticks": 166528,
          "time": 243.9375,
          "velocity": 0.7244094488188977
        },
        {
          "duration": 0.1875,
          "durationTicks": 128,
          "midi": 82,
          "name": "A#5",
          "ticks": 166656,
          "time": 244.125,
          "velocity": 0.7401574803149606
        },
        {
          "duration": 0.1875,
          "durationTicks": 128,
          "midi": 82,
          "name": "A#5",
          "ticks": 166784,
          "time": 244.3125,
          "velocity": 0.7637795275590551
        },
        {
          "duration": 0.375,
          "durationTicks": 256,
          "midi": 82,
          "name": "A#5",
          "ticks": 166912,
          "time": 244.5,
          "velocity": 0.7952755905511811
        },
        {
          "duration": 0.75,
          "durationTicks": 512,
          "midi": 74,
          "name": "D5",
          "ticks": 167168,
          "time": 244.875,
          "velocity": 0.6850393700787402
        },
        {
          "duration": 0.75,
          "durationTicks": 512,
          "midi": 77,
          "name": "F5",
          "ticks": 167168,
          "time": 244.875,
          "velocity": 0.6850393700787402
        },
        {
          "duration": 0.375,
          "durationTicks": 256,
          "midi": 74,
          "name": "D5",
          "ticks": 167680,
          "time": 245.625,
          "velocity": 0.7952755905511811
        },
        {
          "duration": 0.75,
          "durationTicks": 512,
          "midi": 77,
          "name": "F5",
          "ticks": 167680,
          "time": 245.625,
          "velocity": 0.7952755905511811
        },
        {
          "duration": 0.375,
          "durationTicks": 256,
          "midi": 75,
          "name": "D#5",
          "ticks": 167936,
          "time": 246,
          "velocity": 0.7637795275590551
        },
        {
          "duration": 0.75,
          "durationTicks": 512,
          "midi": 75,
          "name": "D#5",
          "ticks": 168192,
          "time": 246.375,
          "velocity": 0.7559055118110236
        },
        {
          "duration": 0.75,
          "durationTicks": 512,
          "midi": 77,
          "name": "F5",
          "ticks": 168192,
          "time": 246.375,
          "velocity": 0.7559055118110236
        },
        {
          "duration": 0.375,
          "durationTicks": 256,
          "midi": 75,
          "name": "D#5",
          "ticks": 168704,
          "time": 247.125,
          "velocity": 0.7637795275590551
        },
        {
          "duration": 0.375,
          "durationTicks": 256,
          "midi": 77,
          "name": "F5",
          "ticks": 168704,
          "time": 247.125,
          "velocity": 0.7637795275590551
        },
        {
          "duration": 0.375,
          "durationTicks": 256,
          "midi": 74,
          "name": "D5",
          "ticks": 168960,
          "time": 247.5,
          "velocity": 0.7559055118110236
        },
        {
          "duration": 0.375,
          "durationTicks": 256,
          "midi": 77,
          "name": "F5",
          "ticks": 168960,
          "time": 247.5,
          "velocity": 0.7559055118110236
        },
        {
          "duration": 0.1875,
          "durationTicks": 128,
          "midi": 62,
          "name": "D4",
          "ticks": 169216,
          "time": 247.875,
          "velocity": 0.5826771653543307
        },
        {
          "duration": 0.1875,
          "durationTicks": 128,
          "midi": 62,
          "name": "D4",
          "ticks": 169344,
          "time": 248.0625,
          "velocity": 0.7322834645669292
        },
        {
          "duration": 0.1875,
          "durationTicks": 128,
          "midi": 62,
          "name": "D4",
          "ticks": 169472,
          "time": 248.25,
          "velocity": 0.7716535433070866
        },
        {
          "duration": 0.1875,
          "durationTicks": 128,
          "midi": 62,
          "name": "D4",
          "ticks": 169600,
          "time": 248.4375,
          "velocity": 0.7874015748031497
        },
        {
          "duration": 0.1875,
          "durationTicks": 128,
          "midi": 63,
          "name": "D#4",
          "ticks": 169728,
          "time": 248.625,
          "velocity": 0.7952755905511811
        },
        {
          "duration": 0.1875,
          "durationTicks": 128,
          "midi": 63,
          "name": "D#4",
          "ticks": 169856,
          "time": 248.8125,
          "velocity": 0.7637795275590551
        },
        {
          "duration": 0.1875,
          "durationTicks": 128,
          "midi": 64,
          "name": "E4",
          "ticks": 169984,
          "time": 249,
          "velocity": 0.8031496062992126
        },
        {
          "duration": 0.1875,
          "durationTicks": 128,
          "midi": 64,
          "name": "E4",
          "ticks": 170112,
          "time": 249.1875,
          "velocity": 0.7480314960629921
        },
        {
          "duration": 0.1875,
          "durationTicks": 128,
          "midi": 65,
          "name": "F4",
          "ticks": 170240,
          "time": 249.375,
          "velocity": 0.8031496062992126
        },
        {
          "duration": 0.1875,
          "durationTicks": 128,
          "midi": 65,
          "name": "F4",
          "ticks": 170368,
          "time": 249.5625,
          "velocity": 0.7559055118110236
        },
        {
          "duration": 0.1875,
          "durationTicks": 128,
          "midi": 66,
          "name": "F#4",
          "ticks": 170496,
          "time": 249.75,
          "velocity": 0.8031496062992126
        },
        {
          "duration": 0.1875,
          "durationTicks": 128,
          "midi": 66,
          "name": "F#4",
          "ticks": 170624,
          "time": 249.9375,
          "velocity": 0.7874015748031497
        },
        {
          "duration": 0.1875,
          "durationTicks": 128,
          "midi": 67,
          "name": "G4",
          "ticks": 170752,
          "time": 250.125,
          "velocity": 0.8110236220472441
        },
        {
          "duration": 0.1875,
          "durationTicks": 128,
          "midi": 67,
          "name": "G4",
          "ticks": 170880,
          "time": 250.3125,
          "velocity": 0.7637795275590551
        },
        {
          "duration": 0.375,
          "durationTicks": 256,
          "midi": 68,
          "name": "G#4",
          "ticks": 171008,
          "time": 250.5,
          "velocity": 0.7952755905511811
        },
        {
          "duration": 0.09375,
          "durationTicks": 64,
          "midi": 68,
          "name": "G#4",
          "ticks": 171456,
          "time": 251.15625,
          "velocity": 0.7086614173228346
        },
        {
          "duration": 0.375,
          "durationTicks": 256,
          "midi": 67,
          "name": "G4",
          "ticks": 171520,
          "time": 251.25,
          "velocity": 0.6929133858267716
        },
        {
          "duration": 0.09375,
          "durationTicks": 64,
          "midi": 67,
          "name": "G4",
          "ticks": 171968,
          "time": 251.90625,
          "velocity": 0.6692913385826772
        },
        {
          "duration": 0.375,
          "durationTicks": 256,
          "midi": 75,
          "name": "D#5",
          "ticks": 172032,
          "time": 252,
          "velocity": 0.9212598425196851
        },
        {
          "duration": 0.09375,
          "durationTicks": 64,
          "midi": 75,
          "name": "D#5",
          "ticks": 172480,
          "time": 252.65625,
          "velocity": 0.6771653543307087
        },
        {
          "duration": 0.375,
          "durationTicks": 256,
          "midi": 74,
          "name": "D5",
          "ticks": 172544,
          "time": 252.75,
          "velocity": 0.7401574803149606
        },
        {
          "duration": 0.09375,
          "durationTicks": 64,
          "midi": 74,
          "name": "D5",
          "ticks": 172992,
          "time": 253.40625,
          "velocity": 0.7086614173228346
        },
        {
          "duration": 0.9375,
          "durationTicks": 640,
          "midi": 79,
          "name": "G5",
          "ticks": 173056,
          "time": 253.5,
          "velocity": 0.8503937007874016
        },
        {
          "duration": 0.09375,
          "durationTicks": 64,
          "midi": 77,
          "name": "F5",
          "ticks": 173696,
          "time": 254.4375,
          "velocity": 0.4251968503937008
        },
        {
          "duration": 0.09375,
          "durationTicks": 64,
          "midi": 75,
          "name": "D#5",
          "ticks": 173824,
          "time": 254.625,
          "velocity": 0.4015748031496063
        },
        {
          "duration": 0.09375,
          "durationTicks": 64,
          "midi": 74,
          "name": "D5",
          "ticks": 173952,
          "time": 254.8125,
          "velocity": 0.48031496062992124
        },
        {
          "duration": 0.09375,
          "durationTicks": 64,
          "midi": 72,
          "name": "C5",
          "ticks": 174080,
          "time": 255,
          "velocity": 0.4566929133858268
        },
        {
          "duration": 0.09375,
          "durationTicks": 64,
          "midi": 70,
          "name": "A#4",
          "ticks": 174208,
          "time": 255.1875,
          "velocity": 0.4409448818897638
        },
        {
          "duration": 0.09375,
          "durationTicks": 64,
          "midi": 69,
          "name": "A4",
          "ticks": 174336,
          "time": 255.375,
          "velocity": 0.47244094488188976
        },
        {
          "duration": 0.09375,
          "durationTicks": 64,
          "midi": 67,
          "name": "G4",
          "ticks": 174464,
          "time": 255.5625,
          "velocity": 0.4566929133858268
        },
        {
          "duration": 0.09375,
          "durationTicks": 64,
          "midi": 65,
          "name": "F4",
          "ticks": 174592,
          "time": 255.75,
          "velocity": 0.4409448818897638
        },
        {
          "duration": 0.09375,
          "durationTicks": 64,
          "midi": 63,
          "name": "D#4",
          "ticks": 174720,
          "time": 255.9375,
          "velocity": 0.47244094488188976
        },
        {
          "duration": 0.09375,
          "durationTicks": 64,
          "midi": 62,
          "name": "D4",
          "ticks": 174848,
          "time": 256.125,
          "velocity": 0.4645669291338583
        },
        {
          "duration": 0.09375,
          "durationTicks": 64,
          "midi": 60,
          "name": "C4",
          "ticks": 174976,
          "time": 256.3125,
          "velocity": 0.44881889763779526
        },
        {
          "duration": 0.1904296875,
          "durationTicks": 130,
          "midi": 62,
          "name": "D4",
          "ticks": 175104,
          "time": 256.5,
          "velocity": 0.5039370078740157
        },
        {
          "duration": 0.1904296875,
          "durationTicks": 130,
          "midi": 65,
          "name": "F4",
          "ticks": 175232,
          "time": 256.6875,
          "velocity": 0.5275590551181102
        },
        {
          "duration": 0.1904296875,
          "durationTicks": 130,
          "midi": 62,
          "name": "D4",
          "ticks": 175360,
          "time": 256.875,
          "velocity": 0.4330708661417323
        },
        {
          "duration": 0.1904296875,
          "durationTicks": 130,
          "midi": 65,
          "name": "F4",
          "ticks": 175488,
          "time": 257.0625,
          "velocity": 0.48031496062992124
        },
        {
          "duration": 0.1904296875,
          "durationTicks": 130,
          "midi": 62,
          "name": "D4",
          "ticks": 175616,
          "time": 257.25,
          "velocity": 0.4251968503937008
        },
        {
          "duration": 0.1904296875,
          "durationTicks": 130,
          "midi": 65,
          "name": "F4",
          "ticks": 175744,
          "time": 257.4375,
          "velocity": 0.44881889763779526
        },
        {
          "duration": 0.1904296875,
          "durationTicks": 130,
          "midi": 62,
          "name": "D4",
          "ticks": 175872,
          "time": 257.625,
          "velocity": 0.4409448818897638
        },
        {
          "duration": 0.17724609375,
          "durationTicks": 121,
          "midi": 65,
          "name": "F4",
          "ticks": 176000,
          "time": 257.8125,
          "velocity": 0.4645669291338583
        },
        {
          "duration": 0.1904296875,
          "durationTicks": 130,
          "midi": 63,
          "name": "D#4",
          "ticks": 176128,
          "time": 258,
          "velocity": 0.4409448818897638
        },
        {
          "duration": 0.1904296875,
          "durationTicks": 130,
          "midi": 65,
          "name": "F4",
          "ticks": 176256,
          "time": 258.1875,
          "velocity": 0.4409448818897638
        },
        {
          "duration": 0.1904296875,
          "durationTicks": 130,
          "midi": 63,
          "name": "D#4",
          "ticks": 176384,
          "time": 258.375,
          "velocity": 0.4645669291338583
        },
        {
          "duration": 0.1904296875,
          "durationTicks": 130,
          "midi": 65,
          "name": "F4",
          "ticks": 176512,
          "time": 258.5625,
          "velocity": 0.4645669291338583
        },
        {
          "duration": 0.1904296875,
          "durationTicks": 130,
          "midi": 60,
          "name": "C4",
          "ticks": 176640,
          "time": 258.75,
          "velocity": 0.4251968503937008
        },
        {
          "duration": 0.1904296875,
          "durationTicks": 130,
          "midi": 65,
          "name": "F4",
          "ticks": 176768,
          "time": 258.9375,
          "velocity": 0.4645669291338583
        },
        {
          "duration": 0.1904296875,
          "durationTicks": 130,
          "midi": 60,
          "name": "C4",
          "ticks": 176896,
          "time": 259.125,
          "velocity": 0.4409448818897638
        },
        {
          "duration": 0.17724609375,
          "durationTicks": 121,
          "midi": 65,
          "name": "F4",
          "ticks": 177024,
          "time": 259.3125,
          "velocity": 0.44881889763779526
        },
        {
          "duration": 0.1904296875,
          "durationTicks": 130,
          "midi": 58,
          "name": "A#3",
          "ticks": 177152,
          "time": 259.5,
          "velocity": 0.4566929133858268
        },
        {
          "duration": 0.1904296875,
          "durationTicks": 130,
          "midi": 65,
          "name": "F4",
          "ticks": 177280,
          "time": 259.6875,
          "velocity": 0.5275590551181102
        },
        {
          "duration": 0.1904296875,
          "durationTicks": 130,
          "midi": 58,
          "name": "A#3",
          "ticks": 177408,
          "time": 259.875,
          "velocity": 0.4645669291338583
        },
        {
          "duration": 0.1904296875,
          "durationTicks": 130,
          "midi": 65,
          "name": "F4",
          "ticks": 177536,
          "time": 260.0625,
          "velocity": 0.5433070866141733
        },
        {
          "duration": 0.1904296875,
          "durationTicks": 130,
          "midi": 58,
          "name": "A#3",
          "ticks": 177664,
          "time": 260.25,
          "velocity": 0.4251968503937008
        },
        {
          "duration": 0.1904296875,
          "durationTicks": 130,
          "midi": 65,
          "name": "F4",
          "ticks": 177792,
          "time": 260.4375,
          "velocity": 0.4645669291338583
        },
        {
          "duration": 0.1904296875,
          "durationTicks": 130,
          "midi": 62,
          "name": "D4",
          "ticks": 177920,
          "time": 260.625,
          "velocity": 0.4645669291338583
        },
        {
          "duration": 0.17724609375,
          "durationTicks": 121,
          "midi": 65,
          "name": "F4",
          "ticks": 178048,
          "time": 260.8125,
          "velocity": 0.4645669291338583
        },
        {
          "duration": 0.1904296875,
          "durationTicks": 130,
          "midi": 63,
          "name": "D#4",
          "ticks": 178176,
          "time": 261,
          "velocity": 0.44881889763779526
        },
        {
          "duration": 0.1904296875,
          "durationTicks": 130,
          "midi": 65,
          "name": "F4",
          "ticks": 178304,
          "time": 261.1875,
          "velocity": 0.4566929133858268
        },
        {
          "duration": 0.1904296875,
          "durationTicks": 130,
          "midi": 63,
          "name": "D#4",
          "ticks": 178432,
          "time": 261.375,
          "velocity": 0.49606299212598426
        },
        {
          "duration": 0.1904296875,
          "durationTicks": 130,
          "midi": 65,
          "name": "F4",
          "ticks": 178560,
          "time": 261.5625,
          "velocity": 0.5433070866141733
        },
        {
          "duration": 0.1904296875,
          "durationTicks": 130,
          "midi": 60,
          "name": "C4",
          "ticks": 178688,
          "time": 261.75,
          "velocity": 0.4251968503937008
        },
        {
          "duration": 0.1904296875,
          "durationTicks": 130,
          "midi": 65,
          "name": "F4",
          "ticks": 178816,
          "time": 261.9375,
          "velocity": 0.4645669291338583
        },
        {
          "duration": 0.1904296875,
          "durationTicks": 130,
          "midi": 60,
          "name": "C4",
          "ticks": 178944,
          "time": 262.125,
          "velocity": 0.4409448818897638
        },
        {
          "duration": 0.17724609375,
          "durationTicks": 121,
          "midi": 65,
          "name": "F4",
          "ticks": 179072,
          "time": 262.3125,
          "velocity": 0.49606299212598426
        },
        {
          "duration": 0.1904296875,
          "durationTicks": 130,
          "midi": 58,
          "name": "A#3",
          "ticks": 179200,
          "time": 262.5,
          "velocity": 0.4330708661417323
        },
        {
          "duration": 0.1904296875,
          "durationTicks": 130,
          "midi": 65,
          "name": "F4",
          "ticks": 179328,
          "time": 262.6875,
          "velocity": 0.5275590551181102
        },
        {
          "duration": 0.1904296875,
          "durationTicks": 130,
          "midi": 58,
          "name": "A#3",
          "ticks": 179456,
          "time": 262.875,
          "velocity": 0.44881889763779526
        },
        {
          "duration": 0.1904296875,
          "durationTicks": 130,
          "midi": 65,
          "name": "F4",
          "ticks": 179584,
          "time": 263.0625,
          "velocity": 0.5039370078740157
        },
        {
          "duration": 0.1904296875,
          "durationTicks": 130,
          "midi": 58,
          "name": "A#3",
          "ticks": 179712,
          "time": 263.25,
          "velocity": 0.44881889763779526
        },
        {
          "duration": 0.1904296875,
          "durationTicks": 130,
          "midi": 65,
          "name": "F4",
          "ticks": 179840,
          "time": 263.4375,
          "velocity": 0.5039370078740157
        },
        {
          "duration": 0.1904296875,
          "durationTicks": 130,
          "midi": 70,
          "name": "A#4",
          "ticks": 179968,
          "time": 263.625,
          "velocity": 0.5433070866141733
        },
        {
          "duration": 0.17724609375,
          "durationTicks": 121,
          "midi": 65,
          "name": "F4",
          "ticks": 180096,
          "time": 263.8125,
          "velocity": 0.4881889763779528
        },
        {
          "duration": 0.1875,
          "durationTicks": 128,
          "midi": 72,
          "name": "C5",
          "ticks": 180224,
          "time": 264,
          "velocity": 0.984251968503937
        },
        {
          "duration": 0.1875,
          "durationTicks": 128,
          "midi": 78,
          "name": "F#5",
          "ticks": 180224,
          "time": 264,
          "velocity": 0.984251968503937
        },
        {
          "duration": 0.1875,
          "durationTicks": 128,
          "midi": 72,
          "name": "C5",
          "ticks": 180352,
          "time": 264.1875,
          "velocity": 0.8346456692913385
        },
        {
          "duration": 0.1875,
          "durationTicks": 128,
          "midi": 78,
          "name": "F#5",
          "ticks": 180352,
          "time": 264.1875,
          "velocity": 0.8346456692913385
        },
        {
          "duration": 0.1875,
          "durationTicks": 128,
          "midi": 72,
          "name": "C5",
          "ticks": 180480,
          "time": 264.375,
          "velocity": 0.7795275590551181
        },
        {
          "duration": 0.1875,
          "durationTicks": 128,
          "midi": 78,
          "name": "F#5",
          "ticks": 180480,
          "time": 264.375,
          "velocity": 0.7795275590551181
        },
        {
          "duration": 0.1875,
          "durationTicks": 128,
          "midi": 72,
          "name": "C5",
          "ticks": 180608,
          "time": 264.5625,
          "velocity": 0.7559055118110236
        },
        {
          "duration": 0.1875,
          "durationTicks": 128,
          "midi": 78,
          "name": "F#5",
          "ticks": 180608,
          "time": 264.5625,
          "velocity": 0.7559055118110236
        },
        {
          "duration": 0.1875,
          "durationTicks": 128,
          "midi": 72,
          "name": "C5",
          "ticks": 180736,
          "time": 264.75,
          "velocity": 0.7559055118110236
        },
        {
          "duration": 0.1875,
          "durationTicks": 128,
          "midi": 78,
          "name": "F#5",
          "ticks": 180736,
          "time": 264.75,
          "velocity": 0.7559055118110236
        },
        {
          "duration": 0.1875,
          "durationTicks": 128,
          "midi": 72,
          "name": "C5",
          "ticks": 180864,
          "time": 264.9375,
          "velocity": 0.7637795275590551
        },
        {
          "duration": 0.1875,
          "durationTicks": 128,
          "midi": 78,
          "name": "F#5",
          "ticks": 180864,
          "time": 264.9375,
          "velocity": 0.7637795275590551
        },
        {
          "duration": 0.1875,
          "durationTicks": 128,
          "midi": 72,
          "name": "C5",
          "ticks": 180992,
          "time": 265.125,
          "velocity": 0.7716535433070866
        },
        {
          "duration": 0.1875,
          "durationTicks": 128,
          "midi": 78,
          "name": "F#5",
          "ticks": 180992,
          "time": 265.125,
          "velocity": 0.7716535433070866
        },
        {
          "duration": 0.1875,
          "durationTicks": 128,
          "midi": 72,
          "name": "C5",
          "ticks": 181120,
          "time": 265.3125,
          "velocity": 0.7322834645669292
        },
        {
          "duration": 0.1875,
          "durationTicks": 128,
          "midi": 78,
          "name": "F#5",
          "ticks": 181120,
          "time": 265.3125,
          "velocity": 0.7322834645669292
        },
        {
          "duration": 0.75,
          "durationTicks": 512,
          "midi": 70,
          "name": "A#4",
          "ticks": 181248,
          "time": 265.5,
          "velocity": 0.8188976377952756
        },
        {
          "duration": 0.75,
          "durationTicks": 512,
          "midi": 79,
          "name": "G5",
          "ticks": 181248,
          "time": 265.5,
          "velocity": 0.8188976377952756
        },
        {
          "duration": 0.57275390625,
          "durationTicks": 391,
          "midi": 79,
          "name": "G5",
          "ticks": 181760,
          "time": 266.25,
          "velocity": 0.7795275590551181
        },
        {
          "duration": 0.17724609375,
          "durationTicks": 121,
          "midi": 75,
          "name": "D#5",
          "ticks": 182144,
          "time": 266.8125,
          "velocity": 0.7007874015748031
        },
        {
          "duration": 0.57275390625,
          "durationTicks": 391,
          "midi": 74,
          "name": "D5",
          "ticks": 182272,
          "time": 267,
          "velocity": 0.7480314960629921
        },
        {
          "duration": 0.17724609375,
          "durationTicks": 121,
          "midi": 77,
          "name": "F5",
          "ticks": 182656,
          "time": 267.5625,
          "velocity": 0.8110236220472441
        },
        {
          "duration": 0.57275390625,
          "durationTicks": 391,
          "midi": 75,
          "name": "D#5",
          "ticks": 182784,
          "time": 267.75,
          "velocity": 0.7401574803149606
        },
        {
          "duration": 0.17724609375,
          "durationTicks": 121,
          "midi": 72,
          "name": "C5",
          "ticks": 183168,
          "time": 268.3125,
          "velocity": 0.6456692913385826
        },
        {
          "duration": 0.1875,
          "durationTicks": 128,
          "midi": 74,
          "name": "D5",
          "ticks": 183296,
          "time": 268.5,
          "velocity": 0.8346456692913385
        },
        {
          "duration": 0.1875,
          "durationTicks": 128,
          "midi": 65,
          "name": "F4",
          "ticks": 183424,
          "time": 268.6875,
          "velocity": 0.4015748031496063
        },
        {
          "duration": 0.1875,
          "durationTicks": 128,
          "midi": 62,
          "name": "D4",
          "ticks": 183552,
          "time": 268.875,
          "velocity": 0.4251968503937008
        },
        {
          "duration": 0.1875,
          "durationTicks": 128,
          "midi": 65,
          "name": "F4",
          "ticks": 183680,
          "time": 269.0625,
          "velocity": 0.5039370078740157
        },
        {
          "duration": 0.1875,
          "durationTicks": 128,
          "midi": 62,
          "name": "D4",
          "ticks": 183808,
          "time": 269.25,
          "velocity": 0.44881889763779526
        },
        {
          "duration": 0.1875,
          "durationTicks": 128,
          "midi": 65,
          "name": "F4",
          "ticks": 183936,
          "time": 269.4375,
          "velocity": 0.5590551181102362
        },
        {
          "duration": 0.1875,
          "durationTicks": 128,
          "midi": 62,
          "name": "D4",
          "ticks": 184064,
          "time": 269.625,
          "velocity": 0.41732283464566927
        },
        {
          "duration": 0.1875,
          "durationTicks": 128,
          "midi": 65,
          "name": "F4",
          "ticks": 184192,
          "time": 269.8125,
          "velocity": 0.49606299212598426
        },
        {
          "duration": 0.1875,
          "durationTicks": 128,
          "midi": 60,
          "name": "C4",
          "ticks": 184320,
          "time": 270,
          "velocity": 0.4330708661417323
        },
        {
          "duration": 0.1875,
          "durationTicks": 128,
          "midi": 63,
          "name": "D#4",
          "ticks": 184448,
          "time": 270.1875,
          "velocity": 0.5196850393700787
        },
        {
          "duration": 0.1875,
          "durationTicks": 128,
          "midi": 60,
          "name": "C4",
          "ticks": 184576,
          "time": 270.375,
          "velocity": 0.4094488188976378
        },
        {
          "duration": 0.1875,
          "durationTicks": 128,
          "midi": 63,
          "name": "D#4",
          "ticks": 184704,
          "time": 270.5625,
          "velocity": 0.5039370078740157
        },
        {
          "duration": 0.1875,
          "durationTicks": 128,
          "midi": 60,
          "name": "C4",
          "ticks": 184832,
          "time": 270.75,
          "velocity": 0.4566929133858268
        },
        {
          "duration": 0.1875,
          "durationTicks": 128,
          "midi": 65,
          "name": "F4",
          "ticks": 184960,
          "time": 270.9375,
          "velocity": 0.5275590551181102
        },
        {
          "duration": 0.1875,
          "durationTicks": 128,
          "midi": 57,
          "name": "A3",
          "ticks": 185088,
          "time": 271.125,
          "velocity": 0.4251968503937008
        },
        {
          "duration": 0.1875,
          "durationTicks": 128,
          "midi": 65,
          "name": "F4",
          "ticks": 185216,
          "time": 271.3125,
          "velocity": 0.5748031496062992
        },
        {
          "duration": 0.1875,
          "durationTicks": 128,
          "midi": 58,
          "name": "A#3",
          "ticks": 185344,
          "time": 271.5,
          "velocity": 0.4409448818897638
        },
        {
          "duration": 0.1875,
          "durationTicks": 128,
          "midi": 65,
          "name": "F4",
          "ticks": 185472,
          "time": 271.6875,
          "velocity": 0.5511811023622047
        },
        {
          "duration": 0.1875,
          "durationTicks": 128,
          "midi": 58,
          "name": "A#3",
          "ticks": 185600,
          "time": 271.875,
          "velocity": 0.48031496062992124
        },
        {
          "duration": 0.1875,
          "durationTicks": 128,
          "midi": 65,
          "name": "F4",
          "ticks": 185728,
          "time": 272.0625,
          "velocity": 0.5826771653543307
        },
        {
          "duration": 0.1875,
          "durationTicks": 128,
          "midi": 58,
          "name": "A#3",
          "ticks": 185856,
          "time": 272.25,
          "velocity": 0.4409448818897638
        },
        {
          "duration": 0.1875,
          "durationTicks": 128,
          "midi": 65,
          "name": "F4",
          "ticks": 185984,
          "time": 272.4375,
          "velocity": 0.5511811023622047
        },
        {
          "duration": 0.1875,
          "durationTicks": 128,
          "midi": 62,
          "name": "D4",
          "ticks": 186112,
          "time": 272.625,
          "velocity": 0.4645669291338583
        },
        {
          "duration": 0.1875,
          "durationTicks": 128,
          "midi": 65,
          "name": "F4",
          "ticks": 186240,
          "time": 272.8125,
          "velocity": 0.4881889763779528
        },
        {
          "duration": 0.1875,
          "durationTicks": 128,
          "midi": 60,
          "name": "C4",
          "ticks": 186368,
          "time": 273,
          "velocity": 0.4251968503937008
        },
        {
          "duration": 0.1875,
          "durationTicks": 128,
          "midi": 63,
          "name": "D#4",
          "ticks": 186496,
          "time": 273.1875,
          "velocity": 0.5196850393700787
        },
        {
          "duration": 0.1875,
          "durationTicks": 128,
          "midi": 60,
          "name": "C4",
          "ticks": 186624,
          "time": 273.375,
          "velocity": 0.4881889763779528
        },
        {
          "duration": 0.1875,
          "durationTicks": 128,
          "midi": 63,
          "name": "D#4",
          "ticks": 186752,
          "time": 273.5625,
          "velocity": 0.5433070866141733
        },
        {
          "duration": 0.1875,
          "durationTicks": 128,
          "midi": 60,
          "name": "C4",
          "ticks": 186880,
          "time": 273.75,
          "velocity": 0.4409448818897638
        },
        {
          "duration": 0.1875,
          "durationTicks": 128,
          "midi": 65,
          "name": "F4",
          "ticks": 187008,
          "time": 273.9375,
          "velocity": 0.5275590551181102
        },
        {
          "duration": 0.1875,
          "durationTicks": 128,
          "midi": 57,
          "name": "A3",
          "ticks": 187136,
          "time": 274.125,
          "velocity": 0.4566929133858268
        },
        {
          "duration": 0.1875,
          "durationTicks": 128,
          "midi": 65,
          "name": "F4",
          "ticks": 187264,
          "time": 274.3125,
          "velocity": 0.5984251968503937
        },
        {
          "duration": 0.1875,
          "durationTicks": 128,
          "midi": 58,
          "name": "A#3",
          "ticks": 187392,
          "time": 274.5,
          "velocity": 0.4566929133858268
        },
        {
          "duration": 0.1875,
          "durationTicks": 128,
          "midi": 65,
          "name": "F4",
          "ticks": 187520,
          "time": 274.6875,
          "velocity": 0.5511811023622047
        },
        {
          "duration": 0.1875,
          "durationTicks": 128,
          "midi": 58,
          "name": "A#3",
          "ticks": 187648,
          "time": 274.875,
          "velocity": 0.4094488188976378
        },
        {
          "duration": 0.1875,
          "durationTicks": 128,
          "midi": 65,
          "name": "F4",
          "ticks": 187776,
          "time": 275.0625,
          "velocity": 0.5984251968503937
        },
        {
          "duration": 0.1875,
          "durationTicks": 128,
          "midi": 58,
          "name": "A#3",
          "ticks": 187904,
          "time": 275.25,
          "velocity": 0.47244094488188976
        },
        {
          "duration": 0.1875,
          "durationTicks": 128,
          "midi": 65,
          "name": "F4",
          "ticks": 188032,
          "time": 275.4375,
          "velocity": 0.5826771653543307
        },
        {
          "duration": 0.1875,
          "durationTicks": 128,
          "midi": 70,
          "name": "A#4",
          "ticks": 188160,
          "time": 275.625,
          "velocity": 0.5590551181102362
        },
        {
          "duration": 0.1875,
          "durationTicks": 128,
          "midi": 65,
          "name": "F4",
          "ticks": 188288,
          "time": 275.8125,
          "velocity": 0.44881889763779526
        },
        {
          "duration": 0.1875,
          "durationTicks": 128,
          "midi": 72,
          "name": "C5",
          "ticks": 188416,
          "time": 276,
          "velocity": 0.9448818897637795
        },
        {
          "duration": 0.1875,
          "durationTicks": 128,
          "midi": 78,
          "name": "F#5",
          "ticks": 188416,
          "time": 276,
          "velocity": 0.9448818897637795
        },
        {
          "duration": 0.1875,
          "durationTicks": 128,
          "midi": 72,
          "name": "C5",
          "ticks": 188544,
          "time": 276.1875,
          "velocity": 0.8110236220472441
        },
        {
          "duration": 0.1875,
          "durationTicks": 128,
          "midi": 78,
          "name": "F#5",
          "ticks": 188544,
          "time": 276.1875,
          "velocity": 0.8110236220472441
        },
        {
          "duration": 0.1875,
          "durationTicks": 128,
          "midi": 72,
          "name": "C5",
          "ticks": 188672,
          "time": 276.375,
          "velocity": 0.7874015748031497
        },
        {
          "duration": 0.1875,
          "durationTicks": 128,
          "midi": 78,
          "name": "F#5",
          "ticks": 188672,
          "time": 276.375,
          "velocity": 0.7874015748031497
        },
        {
          "duration": 0.1875,
          "durationTicks": 128,
          "midi": 72,
          "name": "C5",
          "ticks": 188800,
          "time": 276.5625,
          "velocity": 0.7637795275590551
        },
        {
          "duration": 0.1875,
          "durationTicks": 128,
          "midi": 78,
          "name": "F#5",
          "ticks": 188800,
          "time": 276.5625,
          "velocity": 0.7637795275590551
        },
        {
          "duration": 0.1875,
          "durationTicks": 128,
          "midi": 72,
          "name": "C5",
          "ticks": 188928,
          "time": 276.75,
          "velocity": 0.7637795275590551
        },
        {
          "duration": 0.1875,
          "durationTicks": 128,
          "midi": 78,
          "name": "F#5",
          "ticks": 188928,
          "time": 276.75,
          "velocity": 0.7637795275590551
        },
        {
          "duration": 0.1875,
          "durationTicks": 128,
          "midi": 72,
          "name": "C5",
          "ticks": 189056,
          "time": 276.9375,
          "velocity": 0.7716535433070866
        },
        {
          "duration": 0.1875,
          "durationTicks": 128,
          "midi": 78,
          "name": "F#5",
          "ticks": 189056,
          "time": 276.9375,
          "velocity": 0.7716535433070866
        },
        {
          "duration": 0.1875,
          "durationTicks": 128,
          "midi": 72,
          "name": "C5",
          "ticks": 189184,
          "time": 277.125,
          "velocity": 0.7559055118110236
        },
        {
          "duration": 0.1875,
          "durationTicks": 128,
          "midi": 78,
          "name": "F#5",
          "ticks": 189184,
          "time": 277.125,
          "velocity": 0.7559055118110236
        },
        {
          "duration": 0.1875,
          "durationTicks": 128,
          "midi": 72,
          "name": "C5",
          "ticks": 189312,
          "time": 277.3125,
          "velocity": 0.7716535433070866
        },
        {
          "duration": 0.1875,
          "durationTicks": 128,
          "midi": 78,
          "name": "F#5",
          "ticks": 189312,
          "time": 277.3125,
          "velocity": 0.7716535433070866
        },
        {
          "duration": 0.75,
          "durationTicks": 512,
          "midi": 70,
          "name": "A#4",
          "ticks": 189440,
          "time": 277.5,
          "velocity": 0.8110236220472441
        },
        {
          "duration": 0.75,
          "durationTicks": 512,
          "midi": 79,
          "name": "G5",
          "ticks": 189440,
          "time": 277.5,
          "velocity": 0.8110236220472441
        },
        {
          "duration": 0.5625,
          "durationTicks": 384,
          "midi": 79,
          "name": "G5",
          "ticks": 189952,
          "time": 278.25,
          "velocity": 0.7559055118110236
        },
        {
          "duration": 0.1875,
          "durationTicks": 128,
          "midi": 75,
          "name": "D#5",
          "ticks": 190336,
          "time": 278.8125,
          "velocity": 0.6771653543307087
        },
        {
          "duration": 0.5625,
          "durationTicks": 384,
          "midi": 74,
          "name": "D5",
          "ticks": 190464,
          "time": 279,
          "velocity": 0.7244094488188977
        },
        {
          "duration": 0.1875,
          "durationTicks": 128,
          "midi": 77,
          "name": "F5",
          "ticks": 190848,
          "time": 279.5625,
          "velocity": 0.84251968503937
        },
        {
          "duration": 0.5625,
          "durationTicks": 384,
          "midi": 75,
          "name": "D#5",
          "ticks": 190976,
          "time": 279.75,
          "velocity": 0.7007874015748031
        },
        {
          "duration": 0.1875,
          "durationTicks": 128,
          "midi": 72,
          "name": "C5",
          "ticks": 191360,
          "time": 280.3125,
          "velocity": 0.7007874015748031
        },
        {
          "duration": 0.375,
          "durationTicks": 256,
          "midi": 74,
          "name": "D5",
          "ticks": 191488,
          "time": 280.5,
          "velocity": 0.8346456692913385
        },
        {
          "duration": 0.1875,
          "durationTicks": 128,
          "midi": 86,
          "name": "D6",
          "ticks": 191744,
          "time": 280.875,
          "velocity": 1
        },
        {
          "duration": 0.1875,
          "durationTicks": 128,
          "midi": 84,
          "name": "C6",
          "ticks": 191872,
          "time": 281.0625,
          "velocity": 0.7480314960629921
        },
        {
          "duration": 0.1875,
          "durationTicks": 128,
          "midi": 82,
          "name": "A#5",
          "ticks": 192000,
          "time": 281.25,
          "velocity": 0.7244094488188977
        },
        {
          "duration": 0.1875,
          "durationTicks": 128,
          "midi": 81,
          "name": "A5",
          "ticks": 192128,
          "time": 281.4375,
          "velocity": 0.6929133858267716
        },
        {
          "duration": 0.1875,
          "durationTicks": 128,
          "midi": 79,
          "name": "G5",
          "ticks": 192256,
          "time": 281.625,
          "velocity": 0.7086614173228346
        },
        {
          "duration": 0.1875,
          "durationTicks": 128,
          "midi": 77,
          "name": "F5",
          "ticks": 192384,
          "time": 281.8125,
          "velocity": 0.7007874015748031
        },
        {
          "duration": 0.1875,
          "durationTicks": 128,
          "midi": 75,
          "name": "D#5",
          "ticks": 192512,
          "time": 282,
          "velocity": 0.7165354330708661
        },
        {
          "duration": 0.1875,
          "durationTicks": 128,
          "midi": 74,
          "name": "D5",
          "ticks": 192640,
          "time": 282.1875,
          "velocity": 0.7480314960629921
        },
        {
          "duration": 0.1875,
          "durationTicks": 128,
          "midi": 72,
          "name": "C5",
          "ticks": 192768,
          "time": 282.375,
          "velocity": 0.6850393700787402
        },
        {
          "duration": 0.1875,
          "durationTicks": 128,
          "midi": 70,
          "name": "A#4",
          "ticks": 192896,
          "time": 282.5625,
          "velocity": 0.7401574803149606
        },
        {
          "duration": 0.1875,
          "durationTicks": 128,
          "midi": 69,
          "name": "A4",
          "ticks": 193024,
          "time": 282.75,
          "velocity": 0.7244094488188977
        },
        {
          "duration": 0.1875,
          "durationTicks": 128,
          "midi": 67,
          "name": "G4",
          "ticks": 193152,
          "time": 282.9375,
          "velocity": 0.7007874015748031
        },
        {
          "duration": 0.1875,
          "durationTicks": 128,
          "midi": 65,
          "name": "F4",
          "ticks": 193280,
          "time": 283.125,
          "velocity": 0.7322834645669292
        },
        {
          "duration": 0.1875,
          "durationTicks": 128,
          "midi": 63,
          "name": "D#4",
          "ticks": 193408,
          "time": 283.3125,
          "velocity": 0.6929133858267716
        },
        {
          "duration": 0.375,
          "durationTicks": 256,
          "midi": 62,
          "name": "D4",
          "ticks": 193536,
          "time": 283.5,
          "velocity": 0.7480314960629921
        },
        {
          "duration": 0.375,
          "durationTicks": 256,
          "midi": 70,
          "name": "A#4",
          "ticks": 193792,
          "time": 283.875,
          "velocity": 0.9133858267716536
        },
        {
          "duration": 0.375,
          "durationTicks": 256,
          "midi": 70,
          "name": "A#4",
          "ticks": 194048,
          "time": 284.25,
          "velocity": 0.8267716535433071
        },
        {
          "duration": 0.375,
          "durationTicks": 256,
          "midi": 60,
          "name": "C4",
          "ticks": 194304,
          "time": 284.625,
          "velocity": 0.6299212598425197
        },
        {
          "duration": 0.375,
          "durationTicks": 256,
          "midi": 63,
          "name": "D#4",
          "ticks": 194304,
          "time": 284.625,
          "velocity": 0.6299212598425197
        },
        {
          "duration": 0.375,
          "durationTicks": 256,
          "midi": 58,
          "name": "A#3",
          "ticks": 194560,
          "time": 285,
          "velocity": 0.6929133858267716
        },
        {
          "duration": 0.375,
          "durationTicks": 256,
          "midi": 62,
          "name": "D4",
          "ticks": 194560,
          "time": 285,
          "velocity": 0.6929133858267716
        },
        {
          "duration": 0.1875,
          "durationTicks": 128,
          "midi": 74,
          "name": "D5",
          "ticks": 194816,
          "time": 285.375,
          "velocity": 0.952755905511811
        },
        {
          "duration": 0.1875,
          "durationTicks": 128,
          "midi": 72,
          "name": "C5",
          "ticks": 194944,
          "time": 285.5625,
          "velocity": 0.7795275590551181
        },
        {
          "duration": 0.1875,
          "durationTicks": 128,
          "midi": 70,
          "name": "A#4",
          "ticks": 195072,
          "time": 285.75,
          "velocity": 0.7086614173228346
        },
        {
          "duration": 0.1875,
          "durationTicks": 128,
          "midi": 69,
          "name": "A4",
          "ticks": 195200,
          "time": 285.9375,
          "velocity": 0.7401574803149606
        },
        {
          "duration": 0.1875,
          "durationTicks": 128,
          "midi": 67,
          "name": "G4",
          "ticks": 195328,
          "time": 286.125,
          "velocity": 0.7322834645669292
        },
        {
          "duration": 0.1875,
          "durationTicks": 128,
          "midi": 65,
          "name": "F4",
          "ticks": 195456,
          "time": 286.3125,
          "velocity": 0.7086614173228346
        },
        {
          "duration": 0.1875,
          "durationTicks": 128,
          "midi": 63,
          "name": "D#4",
          "ticks": 195584,
          "time": 286.5,
          "velocity": 0.7165354330708661
        },
        {
          "duration": 0.1875,
          "durationTicks": 128,
          "midi": 62,
          "name": "D4",
          "ticks": 195712,
          "time": 286.6875,
          "velocity": 0.7165354330708661
        },
        {
          "duration": 0.1875,
          "durationTicks": 128,
          "midi": 60,
          "name": "C4",
          "ticks": 195840,
          "time": 286.875,
          "velocity": 0.7086614173228346
        },
        {
          "duration": 0.1875,
          "durationTicks": 128,
          "midi": 58,
          "name": "A#3",
          "ticks": 195968,
          "time": 287.0625,
          "velocity": 0.7480314960629921
        },
        {
          "duration": 0.1875,
          "durationTicks": 128,
          "midi": 57,
          "name": "A3",
          "ticks": 196096,
          "time": 287.25,
          "velocity": 0.7952755905511811
        },
        {
          "duration": 0.1875,
          "durationTicks": 128,
          "midi": 60,
          "name": "C4",
          "ticks": 196224,
          "time": 287.4375,
          "velocity": 0.84251968503937
        },
        {
          "duration": 0.1875,
          "durationTicks": 128,
          "midi": 65,
          "name": "F4",
          "ticks": 196352,
          "time": 287.625,
          "velocity": 0.8818897637795275
        },
        {
          "duration": 0.1875,
          "durationTicks": 128,
          "midi": 63,
          "name": "D#4",
          "ticks": 196480,
          "time": 287.8125,
          "velocity": 0.7637795275590551
        },
        {
          "duration": 0.375,
          "durationTicks": 256,
          "midi": 62,
          "name": "D4",
          "ticks": 196608,
          "time": 288,
          "velocity": 0.7165354330708661
        },
        {
          "duration": 0.375,
          "durationTicks": 256,
          "midi": 70,
          "name": "A#4",
          "ticks": 196864,
          "time": 288.375,
          "velocity": 0.905511811023622
        },
        {
          "duration": 0.375,
          "durationTicks": 256,
          "midi": 70,
          "name": "A#4",
          "ticks": 197120,
          "time": 288.75,
          "velocity": 0.8188976377952756
        },
        {
          "duration": 0.375,
          "durationTicks": 256,
          "midi": 75,
          "name": "D#5",
          "ticks": 197376,
          "time": 289.125,
          "velocity": 0.8503937007874016
        },
        {
          "duration": 0.375,
          "durationTicks": 256,
          "midi": 74,
          "name": "D5",
          "ticks": 197632,
          "time": 289.5,
          "velocity": 0.7559055118110236
        },
        {
          "duration": 0.375,
          "durationTicks": 256,
          "midi": 75,
          "name": "D#5",
          "ticks": 197888,
          "time": 289.875,
          "velocity": 0.8188976377952756
        },
        {
          "duration": 0.375,
          "durationTicks": 256,
          "midi": 74,
          "name": "D5",
          "ticks": 198144,
          "time": 290.25,
          "velocity": 0.7086614173228346
        },
        {
          "duration": 0.375,
          "durationTicks": 256,
          "midi": 60,
          "name": "C4",
          "ticks": 198400,
          "time": 290.625,
          "velocity": 0.5354330708661418
        },
        {
          "duration": 0.375,
          "durationTicks": 256,
          "midi": 63,
          "name": "D#4",
          "ticks": 198400,
          "time": 290.625,
          "velocity": 0.5354330708661418
        },
        {
          "duration": 0.375,
          "durationTicks": 256,
          "midi": 58,
          "name": "A#3",
          "ticks": 198656,
          "time": 291,
          "velocity": 0.7007874015748031
        },
        {
          "duration": 0.375,
          "durationTicks": 256,
          "midi": 62,
          "name": "D4",
          "ticks": 198656,
          "time": 291,
          "velocity": 0.7007874015748031
        },
        {
          "duration": 0.1875,
          "durationTicks": 128,
          "midi": 65,
          "name": "F4",
          "ticks": 198912,
          "time": 291.375,
          "velocity": 0.968503937007874
        },
        {
          "duration": 0.1875,
          "durationTicks": 128,
          "midi": 74,
          "name": "D5",
          "ticks": 198912,
          "time": 291.375,
          "velocity": 0.968503937007874
        },
        {
          "duration": 0.1875,
          "durationTicks": 128,
          "midi": 65,
          "name": "F4",
          "ticks": 199040,
          "time": 291.5625,
          "velocity": 0.7874015748031497
        },
        {
          "duration": 0.1875,
          "durationTicks": 128,
          "midi": 74,
          "name": "D5",
          "ticks": 199040,
          "time": 291.5625,
          "velocity": 0.7874015748031497
        },
        {
          "duration": 0.375,
          "durationTicks": 256,
          "midi": 65,
          "name": "F4",
          "ticks": 199168,
          "time": 291.75,
          "velocity": 0.7952755905511811
        },
        {
          "duration": 0.375,
          "durationTicks": 256,
          "midi": 75,
          "name": "D#5",
          "ticks": 199168,
          "time": 291.75,
          "velocity": 0.7952755905511811
        },
        {
          "duration": 0.1875,
          "durationTicks": 128,
          "midi": 65,
          "name": "F4",
          "ticks": 199424,
          "time": 292.125,
          "velocity": 0.7795275590551181
        },
        {
          "duration": 0.1875,
          "durationTicks": 128,
          "midi": 75,
          "name": "D#5",
          "ticks": 199424,
          "time": 292.125,
          "velocity": 0.7795275590551181
        },
        {
          "duration": 0.1875,
          "durationTicks": 128,
          "midi": 65,
          "name": "F4",
          "ticks": 199552,
          "time": 292.3125,
          "velocity": 0.7716535433070866
        },
        {
          "duration": 0.1875,
          "durationTicks": 128,
          "midi": 75,
          "name": "D#5",
          "ticks": 199552,
          "time": 292.3125,
          "velocity": 0.7716535433070866
        },
        {
          "duration": 0.375,
          "durationTicks": 256,
          "midi": 65,
          "name": "F4",
          "ticks": 199680,
          "time": 292.5,
          "velocity": 0.7401574803149606
        },
        {
          "duration": 0.375,
          "durationTicks": 256,
          "midi": 74,
          "name": "D5",
          "ticks": 199680,
          "time": 292.5,
          "velocity": 0.7401574803149606
        },
        {
          "duration": 0.1875,
          "durationTicks": 128,
          "midi": 65,
          "name": "F4",
          "ticks": 199936,
          "time": 292.875,
          "velocity": 0.7716535433070866
        },
        {
          "duration": 0.1875,
          "durationTicks": 128,
          "midi": 74,
          "name": "D5",
          "ticks": 199936,
          "time": 292.875,
          "velocity": 0.7716535433070866
        },
        {
          "duration": 0.1875,
          "durationTicks": 128,
          "midi": 65,
          "name": "F4",
          "ticks": 200064,
          "time": 293.0625,
          "velocity": 0.7716535433070866
        },
        {
          "duration": 0.1875,
          "durationTicks": 128,
          "midi": 74,
          "name": "D5",
          "ticks": 200064,
          "time": 293.0625,
          "velocity": 0.7716535433070866
        },
        {
          "duration": 0.375,
          "durationTicks": 256,
          "midi": 65,
          "name": "F4",
          "ticks": 200192,
          "time": 293.25,
          "velocity": 0.84251968503937
        },
        {
          "duration": 0.375,
          "durationTicks": 256,
          "midi": 75,
          "name": "D#5",
          "ticks": 200192,
          "time": 293.25,
          "velocity": 0.84251968503937
        },
        {
          "duration": 0.1875,
          "durationTicks": 128,
          "midi": 65,
          "name": "F4",
          "ticks": 200448,
          "time": 293.625,
          "velocity": 0.7952755905511811
        },
        {
          "duration": 0.1875,
          "durationTicks": 128,
          "midi": 75,
          "name": "D#5",
          "ticks": 200448,
          "time": 293.625,
          "velocity": 0.7952755905511811
        },
        {
          "duration": 0.1875,
          "durationTicks": 128,
          "midi": 65,
          "name": "F4",
          "ticks": 200576,
          "time": 293.8125,
          "velocity": 0.7795275590551181
        },
        {
          "duration": 0.1875,
          "durationTicks": 128,
          "midi": 75,
          "name": "D#5",
          "ticks": 200576,
          "time": 293.8125,
          "velocity": 0.7795275590551181
        },
        {
          "duration": 0.375,
          "durationTicks": 256,
          "midi": 65,
          "name": "F4",
          "ticks": 200704,
          "time": 294,
          "velocity": 0.7322834645669292
        },
        {
          "duration": 0.375,
          "durationTicks": 256,
          "midi": 74,
          "name": "D5",
          "ticks": 200704,
          "time": 294,
          "velocity": 0.7322834645669292
        },
        {
          "duration": 0.1875,
          "durationTicks": 128,
          "midi": 65,
          "name": "F4",
          "ticks": 200960,
          "time": 294.375,
          "velocity": 0.7716535433070866
        },
        {
          "duration": 0.1875,
          "durationTicks": 128,
          "midi": 74,
          "name": "D5",
          "ticks": 200960,
          "time": 294.375,
          "velocity": 0.7716535433070866
        },
        {
          "duration": 0.1875,
          "durationTicks": 128,
          "midi": 65,
          "name": "F4",
          "ticks": 201088,
          "time": 294.5625,
          "velocity": 0.7559055118110236
        },
        {
          "duration": 0.1875,
          "durationTicks": 128,
          "midi": 74,
          "name": "D5",
          "ticks": 201088,
          "time": 294.5625,
          "velocity": 0.7559055118110236
        },
        {
          "duration": 0.375,
          "durationTicks": 256,
          "midi": 65,
          "name": "F4",
          "ticks": 201216,
          "time": 294.75,
          "velocity": 0.7952755905511811
        },
        {
          "duration": 0.375,
          "durationTicks": 256,
          "midi": 75,
          "name": "D#5",
          "ticks": 201216,
          "time": 294.75,
          "velocity": 0.7952755905511811
        },
        {
          "duration": 0.1875,
          "durationTicks": 128,
          "midi": 65,
          "name": "F4",
          "ticks": 201472,
          "time": 295.125,
          "velocity": 0.7716535433070866
        },
        {
          "duration": 0.1875,
          "durationTicks": 128,
          "midi": 75,
          "name": "D#5",
          "ticks": 201472,
          "time": 295.125,
          "velocity": 0.7716535433070866
        },
        {
          "duration": 0.1875,
          "durationTicks": 128,
          "midi": 65,
          "name": "F4",
          "ticks": 201600,
          "time": 295.3125,
          "velocity": 0.7637795275590551
        },
        {
          "duration": 0.1875,
          "durationTicks": 128,
          "midi": 75,
          "name": "D#5",
          "ticks": 201600,
          "time": 295.3125,
          "velocity": 0.7637795275590551
        },
        {
          "duration": 0.375,
          "durationTicks": 256,
          "midi": 65,
          "name": "F4",
          "ticks": 201728,
          "time": 295.5,
          "velocity": 0.7480314960629921
        },
        {
          "duration": 0.375,
          "durationTicks": 256,
          "midi": 74,
          "name": "D5",
          "ticks": 201728,
          "time": 295.5,
          "velocity": 0.7480314960629921
        },
        {
          "duration": 0.375,
          "durationTicks": 256,
          "midi": 65,
          "name": "F4",
          "ticks": 201984,
          "time": 295.875,
          "velocity": 0.7795275590551181
        },
        {
          "duration": 0.375,
          "durationTicks": 256,
          "midi": 75,
          "name": "D#5",
          "ticks": 201984,
          "time": 295.875,
          "velocity": 0.7795275590551181
        },
        {
          "duration": 0.375,
          "durationTicks": 256,
          "midi": 65,
          "name": "F4",
          "ticks": 202240,
          "time": 296.25,
          "velocity": 0.7244094488188977
        },
        {
          "duration": 0.375,
          "durationTicks": 256,
          "midi": 74,
          "name": "D5",
          "ticks": 202240,
          "time": 296.25,
          "velocity": 0.7244094488188977
        },
        {
          "duration": 0.375,
          "durationTicks": 256,
          "midi": 65,
          "name": "F4",
          "ticks": 202496,
          "time": 296.625,
          "velocity": 0.7952755905511811
        },
        {
          "duration": 0.375,
          "durationTicks": 256,
          "midi": 75,
          "name": "D#5",
          "ticks": 202496,
          "time": 296.625,
          "velocity": 0.7952755905511811
        },
        {
          "duration": 0.375,
          "durationTicks": 256,
          "midi": 65,
          "name": "F4",
          "ticks": 202752,
          "time": 297,
          "velocity": 0.6771653543307087
        },
        {
          "duration": 0.375,
          "durationTicks": 256,
          "midi": 74,
          "name": "D5",
          "ticks": 202752,
          "time": 297,
          "velocity": 0.6771653543307087
        },
        {
          "duration": 0.375,
          "durationTicks": 256,
          "midi": 62,
          "name": "D4",
          "ticks": 203776,
          "time": 298.5,
          "velocity": 0.6614173228346457
        },
        {
          "duration": 0.375,
          "durationTicks": 256,
          "midi": 72,
          "name": "C5",
          "ticks": 203776,
          "time": 298.5,
          "velocity": 0.6614173228346457
        },
        {
          "duration": 0.375,
          "durationTicks": 256,
          "midi": 78,
          "name": "F#5",
          "ticks": 203776,
          "time": 298.5,
          "velocity": 0.6614173228346457
        },
        {
          "duration": 0.375,
          "durationTicks": 256,
          "midi": 62,
          "name": "D4",
          "ticks": 204800,
          "time": 300,
          "velocity": 0.7007874015748031
        },
        {
          "duration": 0.375,
          "durationTicks": 256,
          "midi": 70,
          "name": "A#4",
          "ticks": 204800,
          "time": 300,
          "velocity": 0.7007874015748031
        },
        {
          "duration": 0.375,
          "durationTicks": 256,
          "midi": 79,
          "name": "G5",
          "ticks": 204800,
          "time": 300,
          "velocity": 0.7007874015748031
        },
        {
          "duration": 0.375,
          "durationTicks": 256,
          "midi": 62,
          "name": "D4",
          "ticks": 205312,
          "time": 300.75,
          "velocity": 0.7086614173228346
        },
        {
          "duration": 0.375,
          "durationTicks": 256,
          "midi": 71,
          "name": "B4",
          "ticks": 205312,
          "time": 300.75,
          "velocity": 0.7086614173228346
        },
        {
          "duration": 0.375,
          "durationTicks": 256,
          "midi": 80,
          "name": "G#5",
          "ticks": 205312,
          "time": 300.75,
          "velocity": 0.7086614173228346
        },
        {
          "duration": 0.1904296875,
          "durationTicks": 130,
          "midi": 62,
          "name": "D4",
          "ticks": 207616,
          "time": 304.125,
          "velocity": 0.4330708661417323
        },
        {
          "duration": 0.17724609375,
          "durationTicks": 121,
          "midi": 61,
          "name": "C#4",
          "ticks": 207744,
          "time": 304.3125,
          "velocity": 0.3858267716535433
        },
        {
          "duration": 0.375,
          "durationTicks": 256,
          "midi": 61,
          "name": "C#4",
          "ticks": 207872,
          "time": 304.5,
          "velocity": 0.4881889763779528
        },
        {
          "duration": 0.1904296875,
          "durationTicks": 130,
          "midi": 62,
          "name": "D4",
          "ticks": 208128,
          "time": 304.875,
          "velocity": 0.5118110236220472
        },
        {
          "duration": 0.17724609375,
          "durationTicks": 121,
          "midi": 61,
          "name": "C#4",
          "ticks": 208256,
          "time": 305.0625,
          "velocity": 0.48031496062992124
        },
        {
          "duration": 0.375,
          "durationTicks": 256,
          "midi": 61,
          "name": "C#4",
          "ticks": 208384,
          "time": 305.25,
          "velocity": 0.48031496062992124
        },
        {
          "duration": 0.1904296875,
          "durationTicks": 130,
          "midi": 62,
          "name": "D4",
          "ticks": 208640,
          "time": 305.625,
          "velocity": 0.5118110236220472
        },
        {
          "duration": 0.17724609375,
          "durationTicks": 121,
          "midi": 61,
          "name": "C#4",
          "ticks": 208768,
          "time": 305.8125,
          "velocity": 0.4881889763779528
        },
        {
          "duration": 0.38232421875,
          "durationTicks": 261,
          "midi": 61,
          "name": "C#4",
          "ticks": 208896,
          "time": 306,
          "velocity": 0.4881889763779528
        },
        {
          "duration": 0.35595703125,
          "durationTicks": 243,
          "midi": 69,
          "name": "A4",
          "ticks": 209152,
          "time": 306.375,
          "velocity": 0.5669291338582677
        },
        {
          "duration": 0.1904296875,
          "durationTicks": 130,
          "midi": 69,
          "name": "A4",
          "ticks": 209664,
          "time": 307.125,
          "velocity": 0.4251968503937008
        },
        {
          "duration": 0.17724609375,
          "durationTicks": 121,
          "midi": 68,
          "name": "G#4",
          "ticks": 209792,
          "time": 307.3125,
          "velocity": 0.4094488188976378
        },
        {
          "duration": 0.375,
          "durationTicks": 256,
          "midi": 66,
          "name": "F#4",
          "ticks": 209920,
          "time": 307.5,
          "velocity": 0.4409448818897638
        },
        {
          "duration": 0.1904296875,
          "durationTicks": 130,
          "midi": 66,
          "name": "F#4",
          "ticks": 210176,
          "time": 307.875,
          "velocity": 0.47244094488188976
        },
        {
          "duration": 0.17724609375,
          "durationTicks": 121,
          "midi": 64,
          "name": "E4",
          "ticks": 210304,
          "time": 308.0625,
          "velocity": 0.44881889763779526
        },
        {
          "duration": 0.375,
          "durationTicks": 256,
          "midi": 62,
          "name": "D4",
          "ticks": 210432,
          "time": 308.25,
          "velocity": 0.44881889763779526
        },
        {
          "duration": 0.1904296875,
          "durationTicks": 130,
          "midi": 62,
          "name": "D4",
          "ticks": 210688,
          "time": 308.625,
          "velocity": 0.4645669291338583
        },
        {
          "duration": 0.17724609375,
          "durationTicks": 121,
          "midi": 61,
          "name": "C#4",
          "ticks": 210816,
          "time": 308.8125,
          "velocity": 0.4251968503937008
        },
        {
          "duration": 0.375,
          "durationTicks": 256,
          "midi": 60,
          "name": "C4",
          "ticks": 210944,
          "time": 309,
          "velocity": 0.48031496062992124
        },
        {
          "duration": 0.375,
          "durationTicks": 256,
          "midi": 60,
          "name": "C4",
          "ticks": 211200,
          "time": 309.375,
          "velocity": 0.4566929133858268
        },
        {
          "duration": 0.1904296875,
          "durationTicks": 130,
          "midi": 61,
          "name": "C#4",
          "ticks": 211712,
          "time": 310.125,
          "velocity": 0.44881889763779526
        },
        {
          "duration": 0.17724609375,
          "durationTicks": 121,
          "midi": 59,
          "name": "B3",
          "ticks": 211840,
          "time": 310.3125,
          "velocity": 0.4409448818897638
        },
        {
          "duration": 0.375,
          "durationTicks": 256,
          "midi": 59,
          "name": "B3",
          "ticks": 211968,
          "time": 310.5,
          "velocity": 0.4645669291338583
        },
        {
          "duration": 0.1904296875,
          "durationTicks": 130,
          "midi": 61,
          "name": "C#4",
          "ticks": 212224,
          "time": 310.875,
          "velocity": 0.48031496062992124
        },
        {
          "duration": 0.17724609375,
          "durationTicks": 121,
          "midi": 59,
          "name": "B3",
          "ticks": 212352,
          "time": 311.0625,
          "velocity": 0.4409448818897638
        },
        {
          "duration": 0.375,
          "durationTicks": 256,
          "midi": 59,
          "name": "B3",
          "ticks": 212480,
          "time": 311.25,
          "velocity": 0.4645669291338583
        },
        {
          "duration": 0.1904296875,
          "durationTicks": 130,
          "midi": 61,
          "name": "C#4",
          "ticks": 212736,
          "time": 311.625,
          "velocity": 0.4881889763779528
        },
        {
          "duration": 0.17724609375,
          "durationTicks": 121,
          "midi": 59,
          "name": "B3",
          "ticks": 212864,
          "time": 311.8125,
          "velocity": 0.5039370078740157
        },
        {
          "duration": 0.375,
          "durationTicks": 256,
          "midi": 59,
          "name": "B3",
          "ticks": 212992,
          "time": 312,
          "velocity": 0.48031496062992124
        },
        {
          "duration": 0.375,
          "durationTicks": 256,
          "midi": 68,
          "name": "G#4",
          "ticks": 213248,
          "time": 312.375,
          "velocity": 0.5590551181102362
        },
        {
          "duration": 0.1904296875,
          "durationTicks": 130,
          "midi": 68,
          "name": "G#4",
          "ticks": 213760,
          "time": 313.125,
          "velocity": 0.4645669291338583
        },
        {
          "duration": 0.17724609375,
          "durationTicks": 121,
          "midi": 66,
          "name": "F#4",
          "ticks": 213888,
          "time": 313.3125,
          "velocity": 0.4330708661417323
        },
        {
          "duration": 0.375,
          "durationTicks": 256,
          "midi": 65,
          "name": "F4",
          "ticks": 214016,
          "time": 313.5,
          "velocity": 0.44881889763779526
        },
        {
          "duration": 0.1904296875,
          "durationTicks": 130,
          "midi": 65,
          "name": "F4",
          "ticks": 214272,
          "time": 313.875,
          "velocity": 0.4881889763779528
        },
        {
          "duration": 0.17724609375,
          "durationTicks": 121,
          "midi": 62,
          "name": "D4",
          "ticks": 214400,
          "time": 314.0625,
          "velocity": 0.4251968503937008
        },
        {
          "duration": 0.375,
          "durationTicks": 256,
          "midi": 61,
          "name": "C#4",
          "ticks": 214528,
          "time": 314.25,
          "velocity": 0.4566929133858268
        },
        {
          "duration": 0.1904296875,
          "durationTicks": 130,
          "midi": 61,
          "name": "C#4",
          "ticks": 214784,
          "time": 314.625,
          "velocity": 0.5118110236220472
        },
        {
          "duration": 0.17724609375,
          "durationTicks": 121,
          "midi": 59,
          "name": "B3",
          "ticks": 214912,
          "time": 314.8125,
          "velocity": 0.5118110236220472
        },
        {
          "duration": 0.375,
          "durationTicks": 256,
          "midi": 58,
          "name": "A#3",
          "ticks": 215040,
          "time": 315,
          "velocity": 0.48031496062992124
        },
        {
          "duration": 0.375,
          "durationTicks": 256,
          "midi": 58,
          "name": "A#3",
          "ticks": 215296,
          "time": 315.375,
          "velocity": 0.48031496062992124
        },
        {
          "duration": 0.1904296875,
          "durationTicks": 130,
          "midi": 59,
          "name": "B3",
          "ticks": 215808,
          "time": 316.125,
          "velocity": 0.4251968503937008
        },
        {
          "duration": 0.17724609375,
          "durationTicks": 121,
          "midi": 57,
          "name": "A3",
          "ticks": 215936,
          "time": 316.3125,
          "velocity": 0.4015748031496063
        },
        {
          "duration": 0.375,
          "durationTicks": 256,
          "midi": 57,
          "name": "A3",
          "ticks": 216064,
          "time": 316.5,
          "velocity": 0.5118110236220472
        },
        {
          "duration": 0.1904296875,
          "durationTicks": 130,
          "midi": 59,
          "name": "B3",
          "ticks": 216320,
          "time": 316.875,
          "velocity": 0.47244094488188976
        },
        {
          "duration": 0.17724609375,
          "durationTicks": 121,
          "midi": 57,
          "name": "A3",
          "ticks": 216448,
          "time": 317.0625,
          "velocity": 0.4645669291338583
        },
        {
          "duration": 0.375,
          "durationTicks": 256,
          "midi": 57,
          "name": "A3",
          "ticks": 216576,
          "time": 317.25,
          "velocity": 0.5039370078740157
        },
        {
          "duration": 0.1904296875,
          "durationTicks": 130,
          "midi": 59,
          "name": "B3",
          "ticks": 216832,
          "time": 317.625,
          "velocity": 0.49606299212598426
        },
        {
          "duration": 0.17724609375,
          "durationTicks": 121,
          "midi": 57,
          "name": "A3",
          "ticks": 216960,
          "time": 317.8125,
          "velocity": 0.49606299212598426
        },
        {
          "duration": 0.375,
          "durationTicks": 256,
          "midi": 57,
          "name": "A3",
          "ticks": 217088,
          "time": 318,
          "velocity": 0.4881889763779528
        },
        {
          "duration": 0.375,
          "durationTicks": 256,
          "midi": 66,
          "name": "F#4",
          "ticks": 217344,
          "time": 318.375,
          "velocity": 0.5905511811023622
        },
        {
          "duration": 0.1904296875,
          "durationTicks": 130,
          "midi": 66,
          "name": "F#4",
          "ticks": 217856,
          "time": 319.125,
          "velocity": 0.47244094488188976
        },
        {
          "duration": 0.17724609375,
          "durationTicks": 121,
          "midi": 64,
          "name": "E4",
          "ticks": 217984,
          "time": 319.3125,
          "velocity": 0.4094488188976378
        },
        {
          "duration": 0.375,
          "durationTicks": 256,
          "midi": 63,
          "name": "D#4",
          "ticks": 218112,
          "time": 319.5,
          "velocity": 0.41732283464566927
        },
        {
          "duration": 0.1904296875,
          "durationTicks": 130,
          "midi": 63,
          "name": "D#4",
          "ticks": 218368,
          "time": 319.875,
          "velocity": 0.4881889763779528
        },
        {
          "duration": 0.17724609375,
          "durationTicks": 121,
          "midi": 60,
          "name": "C4",
          "ticks": 218496,
          "time": 320.0625,
          "velocity": 0.44881889763779526
        },
        {
          "duration": 0.375,
          "durationTicks": 256,
          "midi": 59,
          "name": "B3",
          "ticks": 218624,
          "time": 320.25,
          "velocity": 0.5039370078740157
        },
        {
          "duration": 0.09375,
          "durationTicks": 64,
          "midi": 78,
          "name": "F#5",
          "ticks": 218880,
          "time": 320.625,
          "velocity": 1
        },
        {
          "duration": 0.09375,
          "durationTicks": 64,
          "midi": 69,
          "name": "A4",
          "ticks": 219008,
          "time": 320.8125,
          "velocity": 0.6535433070866141
        },
        {
          "duration": 0.09375,
          "durationTicks": 64,
          "midi": 67,
          "name": "G4",
          "ticks": 219136,
          "time": 321,
          "velocity": 0.6929133858267716
        },
        {
          "duration": 0.09375,
          "durationTicks": 64,
          "midi": 71,
          "name": "B4",
          "ticks": 219264,
          "time": 321.1875,
          "velocity": 0.8267716535433071
        },
        {
          "duration": 0.09375,
          "durationTicks": 64,
          "midi": 76,
          "name": "E5",
          "ticks": 219392,
          "time": 321.375,
          "velocity": 0.889763779527559
        },
        {
          "duration": 0.09375,
          "durationTicks": 64,
          "midi": 67,
          "name": "G4",
          "ticks": 219520,
          "time": 321.5625,
          "velocity": 0.6535433070866141
        },
        {
          "duration": 0.09375,
          "durationTicks": 64,
          "midi": 66,
          "name": "F#4",
          "ticks": 219648,
          "time": 321.75,
          "velocity": 0.7322834645669292
        },
        {
          "duration": 0.09375,
          "durationTicks": 64,
          "midi": 69,
          "name": "A4",
          "ticks": 219776,
          "time": 321.9375,
          "velocity": 0.84251968503937
        },
        {
          "duration": 0.09375,
          "durationTicks": 64,
          "midi": 75,
          "name": "D#5",
          "ticks": 219904,
          "time": 322.125,
          "velocity": 0.8976377952755905
        },
        {
          "duration": 0.09375,
          "durationTicks": 64,
          "midi": 66,
          "name": "F#4",
          "ticks": 220032,
          "time": 322.3125,
          "velocity": 0.6299212598425197
        },
        {
          "duration": 0.09375,
          "durationTicks": 64,
          "midi": 67,
          "name": "G4",
          "ticks": 220160,
          "time": 322.5,
          "velocity": 0.7952755905511811
        },
        {
          "duration": 0.09375,
          "durationTicks": 64,
          "midi": 71,
          "name": "B4",
          "ticks": 220288,
          "time": 322.6875,
          "velocity": 0.8582677165354331
        },
        {
          "duration": 0.09375,
          "durationTicks": 64,
          "midi": 73,
          "name": "C#5",
          "ticks": 220416,
          "time": 322.875,
          "velocity": 0.8188976377952756
        },
        {
          "duration": 0.09375,
          "durationTicks": 64,
          "midi": 75,
          "name": "D#5",
          "ticks": 220544,
          "time": 323.0625,
          "velocity": 0.8031496062992126
        },
        {
          "duration": 0.09375,
          "durationTicks": 64,
          "midi": 76,
          "name": "E5",
          "ticks": 220672,
          "time": 323.25,
          "velocity": 0.7952755905511811
        },
        {
          "duration": 0.09375,
          "durationTicks": 64,
          "midi": 71,
          "name": "B4",
          "ticks": 220800,
          "time": 323.4375,
          "velocity": 0.6535433070866141
        },
        {
          "duration": 0.09375,
          "durationTicks": 64,
          "midi": 76,
          "name": "E5",
          "ticks": 220928,
          "time": 323.625,
          "velocity": 0.8582677165354331
        },
        {
          "duration": 0.09375,
          "durationTicks": 64,
          "midi": 78,
          "name": "F#5",
          "ticks": 221056,
          "time": 323.8125,
          "velocity": 0.7952755905511811
        },
        {
          "duration": 0.09375,
          "durationTicks": 64,
          "midi": 79,
          "name": "G5",
          "ticks": 221184,
          "time": 324,
          "velocity": 0.7874015748031497
        },
        {
          "duration": 0.09375,
          "durationTicks": 64,
          "midi": 76,
          "name": "E5",
          "ticks": 221312,
          "time": 324.1875,
          "velocity": 0.7086614173228346
        },
        {
          "duration": 0.09375,
          "durationTicks": 64,
          "midi": 78,
          "name": "F#5",
          "ticks": 221440,
          "time": 324.375,
          "velocity": 0.8267716535433071
        },
        {
          "duration": 0.09375,
          "durationTicks": 64,
          "midi": 80,
          "name": "G#5",
          "ticks": 221568,
          "time": 324.5625,
          "velocity": 0.8346456692913385
        },
        {
          "duration": 0.09375,
          "durationTicks": 64,
          "midi": 81,
          "name": "A5",
          "ticks": 221696,
          "time": 324.75,
          "velocity": 0.8267716535433071
        },
        {
          "duration": 0.09375,
          "durationTicks": 64,
          "midi": 76,
          "name": "E5",
          "ticks": 221824,
          "time": 324.9375,
          "velocity": 0.6614173228346457
        },
        {
          "duration": 0.09375,
          "durationTicks": 64,
          "midi": 81,
          "name": "A5",
          "ticks": 221952,
          "time": 325.125,
          "velocity": 0.84251968503937
        },
        {
          "duration": 0.09375,
          "durationTicks": 64,
          "midi": 83,
          "name": "B5",
          "ticks": 222080,
          "time": 325.3125,
          "velocity": 0.8346456692913385
        },
        {
          "duration": 0.375,
          "durationTicks": 256,
          "midi": 84,
          "name": "C6",
          "ticks": 222208,
          "time": 325.5,
          "velocity": 0.8031496062992126
        },
        {
          "duration": 0.375,
          "durationTicks": 256,
          "midi": 69,
          "name": "A4",
          "ticks": 222464,
          "time": 325.875,
          "velocity": 0.5511811023622047
        },
        {
          "duration": 0.1904296875,
          "durationTicks": 130,
          "midi": 70,
          "name": "A#4",
          "ticks": 222976,
          "time": 326.625,
          "velocity": 0.6771653543307087
        },
        {
          "duration": 0.17724609375,
          "durationTicks": 121,
          "midi": 69,
          "name": "A4",
          "ticks": 223104,
          "time": 326.8125,
          "velocity": 0.6377952755905512
        },
        {
          "duration": 0.375,
          "durationTicks": 256,
          "midi": 69,
          "name": "A4",
          "ticks": 223232,
          "time": 327,
          "velocity": 0.7952755905511811
        },
        {
          "duration": 0.1904296875,
          "durationTicks": 130,
          "midi": 70,
          "name": "A#4",
          "ticks": 223488,
          "time": 327.375,
          "velocity": 0.8346456692913385
        },
        {
          "duration": 0.17724609375,
          "durationTicks": 121,
          "midi": 69,
          "name": "A4",
          "ticks": 223616,
          "time": 327.5625,
          "velocity": 0.8188976377952756
        },
        {
          "duration": 0.375,
          "durationTicks": 256,
          "midi": 69,
          "name": "A4",
          "ticks": 223744,
          "time": 327.75,
          "velocity": 0.7795275590551181
        },
        {
          "duration": 0.1904296875,
          "durationTicks": 130,
          "midi": 70,
          "name": "A#4",
          "ticks": 224000,
          "time": 328.125,
          "velocity": 0.8188976377952756
        },
        {
          "duration": 0.17724609375,
          "durationTicks": 121,
          "midi": 69,
          "name": "A4",
          "ticks": 224128,
          "time": 328.3125,
          "velocity": 0.7795275590551181
        },
        {
          "duration": 0.38232421875,
          "durationTicks": 261,
          "midi": 69,
          "name": "A4",
          "ticks": 224256,
          "time": 328.5,
          "velocity": 0.7637795275590551
        },
        {
          "duration": 0.35595703125,
          "durationTicks": 243,
          "midi": 77,
          "name": "F5",
          "ticks": 224512,
          "time": 328.875,
          "velocity": 0.9212598425196851
        },
        {
          "duration": 0.1904296875,
          "durationTicks": 130,
          "midi": 77,
          "name": "F5",
          "ticks": 225024,
          "time": 329.625,
          "velocity": 0.6929133858267716
        },
        {
          "duration": 0.17724609375,
          "durationTicks": 121,
          "midi": 76,
          "name": "E5",
          "ticks": 225152,
          "time": 329.8125,
          "velocity": 0.6535433070866141
        },
        {
          "duration": 0.375,
          "durationTicks": 256,
          "midi": 74,
          "name": "D5",
          "ticks": 225280,
          "time": 330,
          "velocity": 0.7480314960629921
        },
        {
          "duration": 0.1904296875,
          "durationTicks": 130,
          "midi": 74,
          "name": "D5",
          "ticks": 225536,
          "time": 330.375,
          "velocity": 0.7401574803149606
        },
        {
          "duration": 0.17724609375,
          "durationTicks": 121,
          "midi": 72,
          "name": "C5",
          "ticks": 225664,
          "time": 330.5625,
          "velocity": 0.7086614173228346
        },
        {
          "duration": 0.375,
          "durationTicks": 256,
          "midi": 70,
          "name": "A#4",
          "ticks": 225792,
          "time": 330.75,
          "velocity": 0.7401574803149606
        },
        {
          "duration": 0.1904296875,
          "durationTicks": 130,
          "midi": 70,
          "name": "A#4",
          "ticks": 226048,
          "time": 331.125,
          "velocity": 0.7559055118110236
        },
        {
          "duration": 0.17724609375,
          "durationTicks": 121,
          "midi": 69,
          "name": "A4",
          "ticks": 226176,
          "time": 331.3125,
          "velocity": 0.7795275590551181
        },
        {
          "duration": 0.1875,
          "durationTicks": 128,
          "midi": 67,
          "name": "G4",
          "ticks": 226304,
          "time": 331.5,
          "velocity": 0.6929133858267716
        },
        {
          "duration": 0.09375,
          "durationTicks": 64,
          "midi": 70,
          "name": "A#4",
          "ticks": 226560,
          "time": 331.875,
          "velocity": 0.8346456692913385
        },
        {
          "duration": 0.09375,
          "durationTicks": 64,
          "midi": 72,
          "name": "C5",
          "ticks": 226688,
          "time": 332.0625,
          "velocity": 0.8031496062992126
        },
        {
          "duration": 0.09375,
          "durationTicks": 64,
          "midi": 74,
          "name": "D5",
          "ticks": 226816,
          "time": 332.25,
          "velocity": 0.8267716535433071
        },
        {
          "duration": 0.09375,
          "durationTicks": 64,
          "midi": 71,
          "name": "B4",
          "ticks": 226944,
          "time": 332.4375,
          "velocity": 0.7007874015748031
        },
        {
          "duration": 0.09375,
          "durationTicks": 64,
          "midi": 74,
          "name": "D5",
          "ticks": 227072,
          "time": 332.625,
          "velocity": 0.8503937007874016
        },
        {
          "duration": 0.09375,
          "durationTicks": 64,
          "midi": 65,
          "name": "F4",
          "ticks": 227200,
          "time": 332.8125,
          "velocity": 0.5984251968503937
        },
        {
          "duration": 0.1875,
          "durationTicks": 128,
          "midi": 64,
          "name": "E4",
          "ticks": 227328,
          "time": 333,
          "velocity": 0.7007874015748031
        },
        {
          "duration": 0.1875,
          "durationTicks": 128,
          "midi": 67,
          "name": "G4",
          "ticks": 227456,
          "time": 333.1875,
          "velocity": 0.84251968503937
        },
        {
          "duration": 0.1875,
          "durationTicks": 128,
          "midi": 72,
          "name": "C5",
          "ticks": 227584,
          "time": 333.375,
          "velocity": 0.8661417322834646
        },
        {
          "duration": 0.1875,
          "durationTicks": 128,
          "midi": 64,
          "name": "E4",
          "ticks": 227712,
          "time": 333.5625,
          "velocity": 0.6771653543307087
        },
        {
          "duration": 0.1875,
          "durationTicks": 128,
          "midi": 62,
          "name": "D4",
          "ticks": 227840,
          "time": 333.75,
          "velocity": 0.7086614173228346
        },
        {
          "duration": 0.1875,
          "durationTicks": 128,
          "midi": 65,
          "name": "F4",
          "ticks": 227968,
          "time": 333.9375,
          "velocity": 0.8346456692913385
        },
        {
          "duration": 0.1875,
          "durationTicks": 128,
          "midi": 71,
          "name": "B4",
          "ticks": 228096,
          "time": 334.125,
          "velocity": 0.905511811023622
        },
        {
          "duration": 0.1875,
          "durationTicks": 128,
          "midi": 62,
          "name": "D4",
          "ticks": 228224,
          "time": 334.3125,
          "velocity": 0.6299212598425197
        },
        {
          "duration": 0.1875,
          "durationTicks": 128,
          "midi": 64,
          "name": "E4",
          "ticks": 228352,
          "time": 334.5,
          "velocity": 0.8110236220472441
        },
        {
          "duration": 0.1875,
          "durationTicks": 128,
          "midi": 67,
          "name": "G4",
          "ticks": 228480,
          "time": 334.6875,
          "velocity": 0.8110236220472441
        },
        {
          "duration": 0.1875,
          "durationTicks": 128,
          "midi": 69,
          "name": "A4",
          "ticks": 228608,
          "time": 334.875,
          "velocity": 0.8346456692913385
        },
        {
          "duration": 0.1875,
          "durationTicks": 128,
          "midi": 71,
          "name": "B4",
          "ticks": 228736,
          "time": 335.0625,
          "velocity": 0.8110236220472441
        },
        {
          "duration": 0.1875,
          "durationTicks": 128,
          "midi": 72,
          "name": "C5",
          "ticks": 228864,
          "time": 335.25,
          "velocity": 0.8188976377952756
        },
        {
          "duration": 0.1875,
          "durationTicks": 128,
          "midi": 67,
          "name": "G4",
          "ticks": 228992,
          "time": 335.4375,
          "velocity": 0.6850393700787402
        },
        {
          "duration": 0.1875,
          "durationTicks": 128,
          "midi": 72,
          "name": "C5",
          "ticks": 229120,
          "time": 335.625,
          "velocity": 0.8740157480314961
        },
        {
          "duration": 0.1875,
          "durationTicks": 128,
          "midi": 74,
          "name": "D5",
          "ticks": 229248,
          "time": 335.8125,
          "velocity": 0.8188976377952756
        },
        {
          "duration": 0.1875,
          "durationTicks": 128,
          "midi": 76,
          "name": "E5",
          "ticks": 229376,
          "time": 336,
          "velocity": 0.8110236220472441
        },
        {
          "duration": 0.1875,
          "durationTicks": 128,
          "midi": 72,
          "name": "C5",
          "ticks": 229504,
          "time": 336.1875,
          "velocity": 0.6614173228346457
        },
        {
          "duration": 0.1875,
          "durationTicks": 128,
          "midi": 74,
          "name": "D5",
          "ticks": 229632,
          "time": 336.375,
          "velocity": 0.8110236220472441
        },
        {
          "duration": 0.1875,
          "durationTicks": 128,
          "midi": 76,
          "name": "E5",
          "ticks": 229760,
          "time": 336.5625,
          "velocity": 0.8267716535433071
        },
        {
          "duration": 0.1875,
          "durationTicks": 128,
          "midi": 77,
          "name": "F5",
          "ticks": 229888,
          "time": 336.75,
          "velocity": 0.7952755905511811
        },
        {
          "duration": 0.1875,
          "durationTicks": 128,
          "midi": 72,
          "name": "C5",
          "ticks": 230016,
          "time": 336.9375,
          "velocity": 0.6614173228346457
        },
        {
          "duration": 0.1875,
          "durationTicks": 128,
          "midi": 77,
          "name": "F5",
          "ticks": 230144,
          "time": 337.125,
          "velocity": 0.8740157480314961
        },
        {
          "duration": 0.1875,
          "durationTicks": 128,
          "midi": 79,
          "name": "G5",
          "ticks": 230272,
          "time": 337.3125,
          "velocity": 0.7795275590551181
        },
        {
          "duration": 0.375,
          "durationTicks": 256,
          "midi": 81,
          "name": "A5",
          "ticks": 230400,
          "time": 337.5,
          "velocity": 0.8188976377952756
        },
        {
          "duration": 0.375,
          "durationTicks": 256,
          "midi": 65,
          "name": "F4",
          "ticks": 230656,
          "time": 337.875,
          "velocity": 0.5354330708661418
        },
        {
          "duration": 0.1904296875,
          "durationTicks": 130,
          "midi": 67,
          "name": "G4",
          "ticks": 231168,
          "time": 338.625,
          "velocity": 0.6771653543307087
        },
        {
          "duration": 0.17724609375,
          "durationTicks": 121,
          "midi": 65,
          "name": "F4",
          "ticks": 231296,
          "time": 338.8125,
          "velocity": 0.6141732283464567
        },
        {
          "duration": 0.375,
          "durationTicks": 256,
          "midi": 65,
          "name": "F4",
          "ticks": 231424,
          "time": 339,
          "velocity": 0.7244094488188977
        },
        {
          "duration": 0.1904296875,
          "durationTicks": 130,
          "midi": 67,
          "name": "G4",
          "ticks": 231680,
          "time": 339.375,
          "velocity": 0.8031496062992126
        },
        {
          "duration": 0.17724609375,
          "durationTicks": 121,
          "midi": 65,
          "name": "F4",
          "ticks": 231808,
          "time": 339.5625,
          "velocity": 0.7322834645669292
        },
        {
          "duration": 0.375,
          "durationTicks": 256,
          "midi": 65,
          "name": "F4",
          "ticks": 231936,
          "time": 339.75,
          "velocity": 0.7874015748031497
        },
        {
          "duration": 0.1904296875,
          "durationTicks": 130,
          "midi": 67,
          "name": "G4",
          "ticks": 232192,
          "time": 340.125,
          "velocity": 0.8110236220472441
        },
        {
          "duration": 0.17724609375,
          "durationTicks": 121,
          "midi": 65,
          "name": "F4",
          "ticks": 232320,
          "time": 340.3125,
          "velocity": 0.7401574803149606
        },
        {
          "duration": 0.38232421875,
          "durationTicks": 261,
          "midi": 65,
          "name": "F4",
          "ticks": 232448,
          "time": 340.5,
          "velocity": 0.7480314960629921
        },
        {
          "duration": 0.35595703125,
          "durationTicks": 243,
          "midi": 74,
          "name": "D5",
          "ticks": 232704,
          "time": 340.875,
          "velocity": 0.952755905511811
        },
        {
          "duration": 0.1904296875,
          "durationTicks": 130,
          "midi": 74,
          "name": "D5",
          "ticks": 233216,
          "time": 341.625,
          "velocity": 0.6692913385826772
        },
        {
          "duration": 0.17724609375,
          "durationTicks": 121,
          "midi": 72,
          "name": "C5",
          "ticks": 233344,
          "time": 341.8125,
          "velocity": 0.5984251968503937
        },
        {
          "duration": 0.375,
          "durationTicks": 256,
          "midi": 70,
          "name": "A#4",
          "ticks": 233472,
          "time": 342,
          "velocity": 0.7322834645669292
        },
        {
          "duration": 0.1904296875,
          "durationTicks": 130,
          "midi": 70,
          "name": "A#4",
          "ticks": 233728,
          "time": 342.375,
          "velocity": 0.7559055118110236
        },
        {
          "duration": 0.17724609375,
          "durationTicks": 121,
          "midi": 69,
          "name": "A4",
          "ticks": 233856,
          "time": 342.5625,
          "velocity": 0.7007874015748031
        },
        {
          "duration": 0.375,
          "durationTicks": 256,
          "midi": 67,
          "name": "G4",
          "ticks": 233984,
          "time": 342.75,
          "velocity": 0.7322834645669292
        },
        {
          "duration": 0.1904296875,
          "durationTicks": 130,
          "midi": 67,
          "name": "G4",
          "ticks": 234240,
          "time": 343.125,
          "velocity": 0.7795275590551181
        },
        {
          "duration": 0.17724609375,
          "durationTicks": 121,
          "midi": 65,
          "name": "F4",
          "ticks": 234368,
          "time": 343.3125,
          "velocity": 0.7165354330708661
        },
        {
          "duration": 0.38232421875,
          "durationTicks": 261,
          "midi": 63,
          "name": "D#4",
          "ticks": 234496,
          "time": 343.5,
          "velocity": 0.7007874015748031
        },
        {
          "duration": 0.35595703125,
          "durationTicks": 243,
          "midi": 72,
          "name": "C5",
          "ticks": 234752,
          "time": 343.875,
          "velocity": 0.8267716535433071
        },
        {
          "duration": 0.1904296875,
          "durationTicks": 130,
          "midi": 72,
          "name": "C5",
          "ticks": 235264,
          "time": 344.625,
          "velocity": 0.6850393700787402
        },
        {
          "duration": 0.17724609375,
          "durationTicks": 121,
          "midi": 70,
          "name": "A#4",
          "ticks": 235392,
          "time": 344.8125,
          "velocity": 0.6141732283464567
        },
        {
          "duration": 0.375,
          "durationTicks": 256,
          "midi": 69,
          "name": "A4",
          "ticks": 235520,
          "time": 345,
          "velocity": 0.7007874015748031
        },
        {
          "duration": 0.1904296875,
          "durationTicks": 130,
          "midi": 69,
          "name": "A4",
          "ticks": 235776,
          "time": 345.375,
          "velocity": 0.7637795275590551
        },
        {
          "duration": 0.17724609375,
          "durationTicks": 121,
          "midi": 67,
          "name": "G4",
          "ticks": 235904,
          "time": 345.5625,
          "velocity": 0.6929133858267716
        },
        {
          "duration": 0.375,
          "durationTicks": 256,
          "midi": 66,
          "name": "F#4",
          "ticks": 236032,
          "time": 345.75,
          "velocity": 0.7165354330708661
        },
        {
          "duration": 0.1904296875,
          "durationTicks": 130,
          "midi": 66,
          "name": "F#4",
          "ticks": 236288,
          "time": 346.125,
          "velocity": 0.7716535433070866
        },
        {
          "duration": 0.17724609375,
          "durationTicks": 121,
          "midi": 64,
          "name": "E4",
          "ticks": 236416,
          "time": 346.3125,
          "velocity": 0.7637795275590551
        },
        {
          "duration": 0.38232421875,
          "durationTicks": 261,
          "midi": 62,
          "name": "D4",
          "ticks": 236544,
          "time": 346.5,
          "velocity": 0.7165354330708661
        },
        {
          "duration": 0.35595703125,
          "durationTicks": 243,
          "midi": 70,
          "name": "A#4",
          "ticks": 236800,
          "time": 346.875,
          "velocity": 0.8267716535433071
        },
        {
          "duration": 0.1904296875,
          "durationTicks": 130,
          "midi": 70,
          "name": "A#4",
          "ticks": 237312,
          "time": 347.625,
          "velocity": 0.7165354330708661
        },
        {
          "duration": 0.17724609375,
          "durationTicks": 121,
          "midi": 69,
          "name": "A4",
          "ticks": 237440,
          "time": 347.8125,
          "velocity": 0.6771653543307087
        },
        {
          "duration": 0.375,
          "durationTicks": 256,
          "midi": 67,
          "name": "G4",
          "ticks": 237568,
          "time": 348,
          "velocity": 0.7244094488188977
        },
        {
          "duration": 0.1904296875,
          "durationTicks": 130,
          "midi": 67,
          "name": "G4",
          "ticks": 237824,
          "time": 348.375,
          "velocity": 0.7559055118110236
        },
        {
          "duration": 0.17724609375,
          "durationTicks": 121,
          "midi": 65,
          "name": "F4",
          "ticks": 237952,
          "time": 348.5625,
          "velocity": 0.7165354330708661
        },
        {
          "duration": 0.375,
          "durationTicks": 256,
          "midi": 64,
          "name": "E4",
          "ticks": 238080,
          "time": 348.75,
          "velocity": 0.7637795275590551
        },
        {
          "duration": 0.1904296875,
          "durationTicks": 130,
          "midi": 64,
          "name": "E4",
          "ticks": 238336,
          "time": 349.125,
          "velocity": 0.7874015748031497
        },
        {
          "duration": 0.17724609375,
          "durationTicks": 121,
          "midi": 62,
          "name": "D4",
          "ticks": 238464,
          "time": 349.3125,
          "velocity": 0.7244094488188977
        },
        {
          "duration": 0.1875,
          "durationTicks": 128,
          "midi": 61,
          "name": "C#4",
          "ticks": 238592,
          "time": 349.5,
          "velocity": 0.7952755905511811
        },
        {
          "duration": 0.1875,
          "durationTicks": 128,
          "midi": 64,
          "name": "E4",
          "ticks": 238592,
          "time": 349.5,
          "velocity": 0.7952755905511811
        },
        {
          "duration": 0.1875,
          "durationTicks": 128,
          "midi": 61,
          "name": "C#4",
          "ticks": 238720,
          "time": 349.6875,
          "velocity": 0.8267716535433071
        },
        {
          "duration": 0.1875,
          "durationTicks": 128,
          "midi": 64,
          "name": "E4",
          "ticks": 238720,
          "time": 349.6875,
          "velocity": 0.8267716535433071
        },
        {
          "duration": 0.1875,
          "durationTicks": 128,
          "midi": 61,
          "name": "C#4",
          "ticks": 238848,
          "time": 349.875,
          "velocity": 0.8031496062992126
        },
        {
          "duration": 0.1875,
          "durationTicks": 128,
          "midi": 64,
          "name": "E4",
          "ticks": 238848,
          "time": 349.875,
          "velocity": 0.8031496062992126
        },
        {
          "duration": 0.1875,
          "durationTicks": 128,
          "midi": 61,
          "name": "C#4",
          "ticks": 238976,
          "time": 350.0625,
          "velocity": 0.7244094488188977
        },
        {
          "duration": 0.1875,
          "durationTicks": 128,
          "midi": 64,
          "name": "E4",
          "ticks": 238976,
          "time": 350.0625,
          "velocity": 0.7244094488188977
        },
        {
          "duration": 0.1875,
          "durationTicks": 128,
          "midi": 62,
          "name": "D4",
          "ticks": 239104,
          "time": 350.25,
          "velocity": 0.7874015748031497
        },
        {
          "duration": 0.1875,
          "durationTicks": 128,
          "midi": 65,
          "name": "F4",
          "ticks": 239104,
          "time": 350.25,
          "velocity": 0.7874015748031497
        },
        {
          "duration": 0.1875,
          "durationTicks": 128,
          "midi": 62,
          "name": "D4",
          "ticks": 239232,
          "time": 350.4375,
          "velocity": 0.7716535433070866
        },
        {
          "duration": 0.1875,
          "durationTicks": 128,
          "midi": 65,
          "name": "F4",
          "ticks": 239232,
          "time": 350.4375,
          "velocity": 0.7716535433070866
        },
        {
          "duration": 0.1875,
          "durationTicks": 128,
          "midi": 62,
          "name": "D4",
          "ticks": 239360,
          "time": 350.625,
          "velocity": 0.7401574803149606
        },
        {
          "duration": 0.1875,
          "durationTicks": 128,
          "midi": 65,
          "name": "F4",
          "ticks": 239360,
          "time": 350.625,
          "velocity": 0.7401574803149606
        },
        {
          "duration": 0.1875,
          "durationTicks": 128,
          "midi": 62,
          "name": "D4",
          "ticks": 239488,
          "time": 350.8125,
          "velocity": 0.7795275590551181
        },
        {
          "duration": 0.1875,
          "durationTicks": 128,
          "midi": 65,
          "name": "F4",
          "ticks": 239488,
          "time": 350.8125,
          "velocity": 0.7795275590551181
        },
        {
          "duration": 0.1875,
          "durationTicks": 128,
          "midi": 61,
          "name": "C#4",
          "ticks": 239616,
          "time": 351,
          "velocity": 0.7165354330708661
        },
        {
          "duration": 0.1875,
          "durationTicks": 128,
          "midi": 64,
          "name": "E4",
          "ticks": 239616,
          "time": 351,
          "velocity": 0.7165354330708661
        },
        {
          "duration": 0.1875,
          "durationTicks": 128,
          "midi": 61,
          "name": "C#4",
          "ticks": 239744,
          "time": 351.1875,
          "velocity": 0.7637795275590551
        },
        {
          "duration": 0.1875,
          "durationTicks": 128,
          "midi": 64,
          "name": "E4",
          "ticks": 239744,
          "time": 351.1875,
          "velocity": 0.7637795275590551
        },
        {
          "duration": 0.1875,
          "durationTicks": 128,
          "midi": 61,
          "name": "C#4",
          "ticks": 239872,
          "time": 351.375,
          "velocity": 0.7874015748031497
        },
        {
          "duration": 0.1875,
          "durationTicks": 128,
          "midi": 64,
          "name": "E4",
          "ticks": 239872,
          "time": 351.375,
          "velocity": 0.7874015748031497
        },
        {
          "duration": 0.1875,
          "durationTicks": 128,
          "midi": 61,
          "name": "C#4",
          "ticks": 240000,
          "time": 351.5625,
          "velocity": 0.7874015748031497
        },
        {
          "duration": 0.1875,
          "durationTicks": 128,
          "midi": 64,
          "name": "E4",
          "ticks": 240000,
          "time": 351.5625,
          "velocity": 0.7874015748031497
        },
        {
          "duration": 0.1875,
          "durationTicks": 128,
          "midi": 62,
          "name": "D4",
          "ticks": 240128,
          "time": 351.75,
          "velocity": 0.8110236220472441
        },
        {
          "duration": 0.1875,
          "durationTicks": 128,
          "midi": 65,
          "name": "F4",
          "ticks": 240128,
          "time": 351.75,
          "velocity": 0.8110236220472441
        },
        {
          "duration": 0.1875,
          "durationTicks": 128,
          "midi": 62,
          "name": "D4",
          "ticks": 240256,
          "time": 351.9375,
          "velocity": 0.8110236220472441
        },
        {
          "duration": 0.1875,
          "durationTicks": 128,
          "midi": 65,
          "name": "F4",
          "ticks": 240256,
          "time": 351.9375,
          "velocity": 0.8110236220472441
        },
        {
          "duration": 0.1875,
          "durationTicks": 128,
          "midi": 62,
          "name": "D4",
          "ticks": 240384,
          "time": 352.125,
          "velocity": 0.7559055118110236
        },
        {
          "duration": 0.1875,
          "durationTicks": 128,
          "midi": 65,
          "name": "F4",
          "ticks": 240384,
          "time": 352.125,
          "velocity": 0.7559055118110236
        },
        {
          "duration": 0.1875,
          "durationTicks": 128,
          "midi": 62,
          "name": "D4",
          "ticks": 240512,
          "time": 352.3125,
          "velocity": 0.8031496062992126
        },
        {
          "duration": 0.1875,
          "durationTicks": 128,
          "midi": 65,
          "name": "F4",
          "ticks": 240512,
          "time": 352.3125,
          "velocity": 0.8031496062992126
        },
        {
          "duration": 0.1875,
          "durationTicks": 128,
          "midi": 61,
          "name": "C#4",
          "ticks": 240640,
          "time": 352.5,
          "velocity": 0.6771653543307087
        },
        {
          "duration": 0.1875,
          "durationTicks": 128,
          "midi": 64,
          "name": "E4",
          "ticks": 240640,
          "time": 352.5,
          "velocity": 0.6771653543307087
        },
        {
          "duration": 0.1875,
          "durationTicks": 128,
          "midi": 61,
          "name": "C#4",
          "ticks": 240768,
          "time": 352.6875,
          "velocity": 0.7716535433070866
        },
        {
          "duration": 0.1875,
          "durationTicks": 128,
          "midi": 64,
          "name": "E4",
          "ticks": 240768,
          "time": 352.6875,
          "velocity": 0.7716535433070866
        },
        {
          "duration": 0.1875,
          "durationTicks": 128,
          "midi": 61,
          "name": "C#4",
          "ticks": 240896,
          "time": 352.875,
          "velocity": 0.7716535433070866
        },
        {
          "duration": 0.1875,
          "durationTicks": 128,
          "midi": 64,
          "name": "E4",
          "ticks": 240896,
          "time": 352.875,
          "velocity": 0.7716535433070866
        },
        {
          "duration": 0.1875,
          "durationTicks": 128,
          "midi": 61,
          "name": "C#4",
          "ticks": 241024,
          "time": 353.0625,
          "velocity": 0.7874015748031497
        },
        {
          "duration": 0.1875,
          "durationTicks": 128,
          "midi": 64,
          "name": "E4",
          "ticks": 241024,
          "time": 353.0625,
          "velocity": 0.7874015748031497
        },
        {
          "duration": 0.1875,
          "durationTicks": 128,
          "midi": 62,
          "name": "D4",
          "ticks": 241152,
          "time": 353.25,
          "velocity": 0.8031496062992126
        },
        {
          "duration": 0.1875,
          "durationTicks": 128,
          "midi": 65,
          "name": "F4",
          "ticks": 241152,
          "time": 353.25,
          "velocity": 0.8031496062992126
        },
        {
          "duration": 0.1875,
          "durationTicks": 128,
          "midi": 62,
          "name": "D4",
          "ticks": 241280,
          "time": 353.4375,
          "velocity": 0.7480314960629921
        },
        {
          "duration": 0.1875,
          "durationTicks": 128,
          "midi": 65,
          "name": "F4",
          "ticks": 241280,
          "time": 353.4375,
          "velocity": 0.7480314960629921
        },
        {
          "duration": 0.1875,
          "durationTicks": 128,
          "midi": 62,
          "name": "D4",
          "ticks": 241408,
          "time": 353.625,
          "velocity": 0.7874015748031497
        },
        {
          "duration": 0.1875,
          "durationTicks": 128,
          "midi": 65,
          "name": "F4",
          "ticks": 241408,
          "time": 353.625,
          "velocity": 0.7874015748031497
        },
        {
          "duration": 0.1875,
          "durationTicks": 128,
          "midi": 62,
          "name": "D4",
          "ticks": 241536,
          "time": 353.8125,
          "velocity": 0.7559055118110236
        },
        {
          "duration": 0.1875,
          "durationTicks": 128,
          "midi": 65,
          "name": "F4",
          "ticks": 241536,
          "time": 353.8125,
          "velocity": 0.7559055118110236
        },
        {
          "duration": 0.1875,
          "durationTicks": 128,
          "midi": 61,
          "name": "C#4",
          "ticks": 241664,
          "time": 354,
          "velocity": 0.7086614173228346
        },
        {
          "duration": 0.1875,
          "durationTicks": 128,
          "midi": 64,
          "name": "E4",
          "ticks": 241664,
          "time": 354,
          "velocity": 0.7086614173228346
        },
        {
          "duration": 0.1875,
          "durationTicks": 128,
          "midi": 61,
          "name": "C#4",
          "ticks": 241792,
          "time": 354.1875,
          "velocity": 0.7716535433070866
        },
        {
          "duration": 0.1875,
          "durationTicks": 128,
          "midi": 64,
          "name": "E4",
          "ticks": 241792,
          "time": 354.1875,
          "velocity": 0.7716535433070866
        },
        {
          "duration": 0.1875,
          "durationTicks": 128,
          "midi": 61,
          "name": "C#4",
          "ticks": 241920,
          "time": 354.375,
          "velocity": 0.7952755905511811
        },
        {
          "duration": 0.1875,
          "durationTicks": 128,
          "midi": 64,
          "name": "E4",
          "ticks": 241920,
          "time": 354.375,
          "velocity": 0.7952755905511811
        },
        {
          "duration": 0.1875,
          "durationTicks": 128,
          "midi": 61,
          "name": "C#4",
          "ticks": 242048,
          "time": 354.5625,
          "velocity": 0.7952755905511811
        },
        {
          "duration": 0.1875,
          "durationTicks": 128,
          "midi": 64,
          "name": "E4",
          "ticks": 242048,
          "time": 354.5625,
          "velocity": 0.7952755905511811
        },
        {
          "duration": 0.1875,
          "durationTicks": 128,
          "midi": 62,
          "name": "D4",
          "ticks": 242176,
          "time": 354.75,
          "velocity": 0.7716535433070866
        },
        {
          "duration": 0.1875,
          "durationTicks": 128,
          "midi": 65,
          "name": "F4",
          "ticks": 242176,
          "time": 354.75,
          "velocity": 0.7716535433070866
        },
        {
          "duration": 0.1875,
          "durationTicks": 128,
          "midi": 62,
          "name": "D4",
          "ticks": 242304,
          "time": 354.9375,
          "velocity": 0.7559055118110236
        },
        {
          "duration": 0.1875,
          "durationTicks": 128,
          "midi": 65,
          "name": "F4",
          "ticks": 242304,
          "time": 354.9375,
          "velocity": 0.7559055118110236
        },
        {
          "duration": 0.1875,
          "durationTicks": 128,
          "midi": 62,
          "name": "D4",
          "ticks": 242432,
          "time": 355.125,
          "velocity": 0.7637795275590551
        },
        {
          "duration": 0.1875,
          "durationTicks": 128,
          "midi": 65,
          "name": "F4",
          "ticks": 242432,
          "time": 355.125,
          "velocity": 0.7637795275590551
        },
        {
          "duration": 0.1875,
          "durationTicks": 128,
          "midi": 62,
          "name": "D4",
          "ticks": 242560,
          "time": 355.3125,
          "velocity": 0.7716535433070866
        },
        {
          "duration": 0.1875,
          "durationTicks": 128,
          "midi": 65,
          "name": "F4",
          "ticks": 242560,
          "time": 355.3125,
          "velocity": 0.7716535433070866
        },
        {
          "duration": 0.75,
          "durationTicks": 512,
          "midi": 61,
          "name": "C#4",
          "ticks": 242688,
          "time": 355.5,
          "velocity": 0.7559055118110236
        },
        {
          "duration": 0.75,
          "durationTicks": 512,
          "midi": 64,
          "name": "E4",
          "ticks": 242688,
          "time": 355.5,
          "velocity": 0.7559055118110236
        },
        {
          "duration": 0.75,
          "durationTicks": 512,
          "midi": 75,
          "name": "D#5",
          "ticks": 251648,
          "time": 368.625,
          "velocity": 0.4409448818897638
        },
        {
          "duration": 0.75,
          "durationTicks": 512,
          "midi": 75,
          "name": "D#5",
          "ticks": 252160,
          "time": 369.375,
          "velocity": 0.47244094488188976
        },
        {
          "duration": 0.75,
          "durationTicks": 512,
          "midi": 75,
          "name": "D#5",
          "ticks": 252672,
          "time": 370.125,
          "velocity": 0.5039370078740157
        },
        {
          "duration": 0.75,
          "durationTicks": 512,
          "midi": 72,
          "name": "C5",
          "ticks": 253696,
          "time": 371.625,
          "velocity": 0.4409448818897638
        },
        {
          "duration": 0.75,
          "durationTicks": 512,
          "midi": 72,
          "name": "C5",
          "ticks": 254208,
          "time": 372.375,
          "velocity": 0.49606299212598426
        },
        {
          "duration": 0.75,
          "durationTicks": 512,
          "midi": 72,
          "name": "C5",
          "ticks": 254720,
          "time": 373.125,
          "velocity": 0.4881889763779528
        },
        {
          "duration": 0.75,
          "durationTicks": 512,
          "midi": 69,
          "name": "A4",
          "ticks": 255744,
          "time": 374.625,
          "velocity": 0.4251968503937008
        },
        {
          "duration": 0.75,
          "durationTicks": 512,
          "midi": 69,
          "name": "A4",
          "ticks": 256256,
          "time": 375.375,
          "velocity": 0.44881889763779526
        },
        {
          "duration": 0.75,
          "durationTicks": 512,
          "midi": 69,
          "name": "A4",
          "ticks": 256768,
          "time": 376.125,
          "velocity": 0.4409448818897638
        },
        {
          "duration": 0.1904296875,
          "durationTicks": 130,
          "midi": 79,
          "name": "G5",
          "ticks": 257792,
          "time": 377.625,
          "velocity": 0.6771653543307087
        },
        {
          "duration": 0.17724609375,
          "durationTicks": 121,
          "midi": 78,
          "name": "F#5",
          "ticks": 257920,
          "time": 377.8125,
          "velocity": 0.6377952755905512
        },
        {
          "duration": 0.375,
          "durationTicks": 256,
          "midi": 78,
          "name": "F#5",
          "ticks": 258048,
          "time": 378,
          "velocity": 0.7795275590551181
        },
        {
          "duration": 0.1904296875,
          "durationTicks": 130,
          "midi": 78,
          "name": "F#5",
          "ticks": 258816,
          "time": 379.125,
          "velocity": 0.6850393700787402
        },
        {
          "duration": 0.17724609375,
          "durationTicks": 121,
          "midi": 79,
          "name": "G5",
          "ticks": 258944,
          "time": 379.3125,
          "velocity": 0.7086614173228346
        },
        {
          "duration": 0.375,
          "durationTicks": 256,
          "midi": 79,
          "name": "G5",
          "ticks": 259072,
          "time": 379.5,
          "velocity": 0.8031496062992126
        },
        {
          "duration": 0.1904296875,
          "durationTicks": 130,
          "midi": 79,
          "name": "G5",
          "ticks": 259840,
          "time": 380.625,
          "velocity": 0.6850393700787402
        },
        {
          "duration": 0.17724609375,
          "durationTicks": 121,
          "midi": 81,
          "name": "A5",
          "ticks": 259968,
          "time": 380.8125,
          "velocity": 0.7637795275590551
        },
        {
          "duration": 0.375,
          "durationTicks": 256,
          "midi": 82,
          "name": "A#5",
          "ticks": 260096,
          "time": 381,
          "velocity": 0.8110236220472441
        },
        {
          "duration": 0.1904296875,
          "durationTicks": 130,
          "midi": 82,
          "name": "A#5",
          "ticks": 260864,
          "time": 382.125,
          "velocity": 0.7007874015748031
        },
        {
          "duration": 0.17724609375,
          "durationTicks": 121,
          "midi": 81,
          "name": "A5",
          "ticks": 260992,
          "time": 382.3125,
          "velocity": 0.6456692913385826
        },
        {
          "duration": 0.375,
          "durationTicks": 256,
          "midi": 81,
          "name": "A5",
          "ticks": 261120,
          "time": 382.5,
          "velocity": 0.7559055118110236
        },
        {
          "duration": 0.1904296875,
          "durationTicks": 130,
          "midi": 77,
          "name": "F5",
          "ticks": 261888,
          "time": 383.625,
          "velocity": 0.7007874015748031
        },
        {
          "duration": 0.17724609375,
          "durationTicks": 121,
          "midi": 78,
          "name": "F#5",
          "ticks": 262016,
          "time": 383.8125,
          "velocity": 0.7322834645669292
        },
        {
          "duration": 0.375,
          "durationTicks": 256,
          "midi": 78,
          "name": "F#5",
          "ticks": 262144,
          "time": 384,
          "velocity": 0.7952755905511811
        },
        {
          "duration": 0.1904296875,
          "durationTicks": 130,
          "midi": 78,
          "name": "F#5",
          "ticks": 262912,
          "time": 385.125,
          "velocity": 0.6771653543307087
        },
        {
          "duration": 0.17724609375,
          "durationTicks": 121,
          "midi": 79,
          "name": "G5",
          "ticks": 263040,
          "time": 385.3125,
          "velocity": 0.7007874015748031
        },
        {
          "duration": 0.375,
          "durationTicks": 256,
          "midi": 79,
          "name": "G5",
          "ticks": 263168,
          "time": 385.5,
          "velocity": 0.7480314960629921
        },
        {
          "duration": 0.1904296875,
          "durationTicks": 130,
          "midi": 74,
          "name": "D5",
          "ticks": 263936,
          "time": 386.625,
          "velocity": 0.7244094488188977
        },
        {
          "duration": 0.17724609375,
          "durationTicks": 121,
          "midi": 75,
          "name": "D#5",
          "ticks": 264064,
          "time": 386.8125,
          "velocity": 0.7401574803149606
        },
        {
          "duration": 0.375,
          "durationTicks": 256,
          "midi": 75,
          "name": "D#5",
          "ticks": 264192,
          "time": 387,
          "velocity": 0.7716535433070866
        },
        {
          "duration": 0.1904296875,
          "durationTicks": 130,
          "midi": 72,
          "name": "C5",
          "ticks": 264448,
          "time": 387.375,
          "velocity": 0.6850393700787402
        },
        {
          "duration": 0.17724609375,
          "durationTicks": 121,
          "midi": 70,
          "name": "A#4",
          "ticks": 264576,
          "time": 387.5625,
          "velocity": 0.6299212598425197
        },
        {
          "duration": 0.375,
          "durationTicks": 256,
          "midi": 70,
          "name": "A#4",
          "ticks": 264704,
          "time": 387.75,
          "velocity": 0.7874015748031497
        },
        {
          "duration": 0.1904296875,
          "durationTicks": 130,
          "midi": 67,
          "name": "G4",
          "ticks": 264960,
          "time": 388.125,
          "velocity": 0.6929133858267716
        },
        {
          "duration": 0.17724609375,
          "durationTicks": 121,
          "midi": 66,
          "name": "F#4",
          "ticks": 265088,
          "time": 388.3125,
          "velocity": 0.6141732283464567
        },
        {
          "duration": 0.375,
          "durationTicks": 256,
          "midi": 66,
          "name": "F#4",
          "ticks": 265216,
          "time": 388.5,
          "velocity": 0.7716535433070866
        },
        {
          "duration": 0.1904296875,
          "durationTicks": 130,
          "midi": 63,
          "name": "D#4",
          "ticks": 270080,
          "time": 395.625,
          "velocity": 0.4251968503937008
        },
        {
          "duration": 0.17724609375,
          "durationTicks": 121,
          "midi": 62,
          "name": "D4",
          "ticks": 270208,
          "time": 395.8125,
          "velocity": 0.41732283464566927
        },
        {
          "duration": 0.375,
          "durationTicks": 256,
          "midi": 62,
          "name": "D4",
          "ticks": 270336,
          "time": 396,
          "velocity": 0.4645669291338583
        },
        {
          "duration": 0.1904296875,
          "durationTicks": 130,
          "midi": 63,
          "name": "D#4",
          "ticks": 270592,
          "time": 396.375,
          "velocity": 0.48031496062992124
        },
        {
          "duration": 0.17724609375,
          "durationTicks": 121,
          "midi": 62,
          "name": "D4",
          "ticks": 270720,
          "time": 396.5625,
          "velocity": 0.4566929133858268
        },
        {
          "duration": 0.375,
          "durationTicks": 256,
          "midi": 62,
          "name": "D4",
          "ticks": 270848,
          "time": 396.75,
          "velocity": 0.4645669291338583
        },
        {
          "duration": 0.1904296875,
          "durationTicks": 130,
          "midi": 63,
          "name": "D#4",
          "ticks": 271104,
          "time": 397.125,
          "velocity": 0.5039370078740157
        },
        {
          "duration": 0.17724609375,
          "durationTicks": 121,
          "midi": 62,
          "name": "D4",
          "ticks": 271232,
          "time": 397.3125,
          "velocity": 0.4566929133858268
        },
        {
          "duration": 0.38232421875,
          "durationTicks": 261,
          "midi": 62,
          "name": "D4",
          "ticks": 271360,
          "time": 397.5,
          "velocity": 0.4566929133858268
        },
        {
          "duration": 0.35595703125,
          "durationTicks": 243,
          "midi": 70,
          "name": "A#4",
          "ticks": 271616,
          "time": 397.875,
          "velocity": 0.5590551181102362
        },
        {
          "duration": 0.1904296875,
          "durationTicks": 130,
          "midi": 70,
          "name": "A#4",
          "ticks": 272128,
          "time": 398.625,
          "velocity": 0.4409448818897638
        },
        {
          "duration": 0.17724609375,
          "durationTicks": 121,
          "midi": 69,
          "name": "A4",
          "ticks": 272256,
          "time": 398.8125,
          "velocity": 0.4409448818897638
        },
        {
          "duration": 0.375,
          "durationTicks": 256,
          "midi": 67,
          "name": "G4",
          "ticks": 272384,
          "time": 399,
          "velocity": 0.4251968503937008
        },
        {
          "duration": 0.1904296875,
          "durationTicks": 130,
          "midi": 67,
          "name": "G4",
          "ticks": 272640,
          "time": 399.375,
          "velocity": 0.49606299212598426
        },
        {
          "duration": 0.17724609375,
          "durationTicks": 121,
          "midi": 65,
          "name": "F4",
          "ticks": 272768,
          "time": 399.5625,
          "velocity": 0.4409448818897638
        },
        {
          "duration": 0.375,
          "durationTicks": 256,
          "midi": 63,
          "name": "D#4",
          "ticks": 272896,
          "time": 399.75,
          "velocity": 0.4566929133858268
        },
        {
          "duration": 0.1904296875,
          "durationTicks": 130,
          "midi": 63,
          "name": "D#4",
          "ticks": 273152,
          "time": 400.125,
          "velocity": 0.5039370078740157
        },
        {
          "duration": 0.17724609375,
          "durationTicks": 121,
          "midi": 62,
          "name": "D4",
          "ticks": 273280,
          "time": 400.3125,
          "velocity": 0.4409448818897638
        },
        {
          "duration": 0.375,
          "durationTicks": 256,
          "midi": 60,
          "name": "C4",
          "ticks": 273408,
          "time": 400.5,
          "velocity": 0.4409448818897638
        },
        {
          "duration": 0.375,
          "durationTicks": 256,
          "midi": 60,
          "name": "C4",
          "ticks": 273664,
          "time": 400.875,
          "velocity": 0.49606299212598426
        },
        {
          "duration": 0.1904296875,
          "durationTicks": 130,
          "midi": 62,
          "name": "D4",
          "ticks": 274176,
          "time": 401.625,
          "velocity": 0.4251968503937008
        },
        {
          "duration": 0.17724609375,
          "durationTicks": 121,
          "midi": 60,
          "name": "C4",
          "ticks": 274304,
          "time": 401.8125,
          "velocity": 0.3779527559055118
        },
        {
          "duration": 0.375,
          "durationTicks": 256,
          "midi": 60,
          "name": "C4",
          "ticks": 274432,
          "time": 402,
          "velocity": 0.47244094488188976
        },
        {
          "duration": 0.1904296875,
          "durationTicks": 130,
          "midi": 62,
          "name": "D4",
          "ticks": 274688,
          "time": 402.375,
          "velocity": 0.5275590551181102
        },
        {
          "duration": 0.17724609375,
          "durationTicks": 121,
          "midi": 60,
          "name": "C4",
          "ticks": 274816,
          "time": 402.5625,
          "velocity": 0.5196850393700787
        },
        {
          "duration": 0.375,
          "durationTicks": 256,
          "midi": 60,
          "name": "C4",
          "ticks": 274944,
          "time": 402.75,
          "velocity": 0.48031496062992124
        },
        {
          "duration": 0.1904296875,
          "durationTicks": 130,
          "midi": 62,
          "name": "D4",
          "ticks": 275200,
          "time": 403.125,
          "velocity": 0.5118110236220472
        },
        {
          "duration": 0.17724609375,
          "durationTicks": 121,
          "midi": 60,
          "name": "C4",
          "ticks": 275328,
          "time": 403.3125,
          "velocity": 0.48031496062992124
        },
        {
          "duration": 0.38232421875,
          "durationTicks": 261,
          "midi": 60,
          "name": "C4",
          "ticks": 275456,
          "time": 403.5,
          "velocity": 0.5118110236220472
        },
        {
          "duration": 0.35595703125,
          "durationTicks": 243,
          "midi": 69,
          "name": "A4",
          "ticks": 275712,
          "time": 403.875,
          "velocity": 0.6220472440944882
        },
        {
          "duration": 0.1904296875,
          "durationTicks": 130,
          "midi": 69,
          "name": "A4",
          "ticks": 276224,
          "time": 404.625,
          "velocity": 0.47244094488188976
        },
        {
          "duration": 0.17724609375,
          "durationTicks": 121,
          "midi": 67,
          "name": "G4",
          "ticks": 276352,
          "time": 404.8125,
          "velocity": 0.4251968503937008
        },
        {
          "duration": 0.375,
          "durationTicks": 256,
          "midi": 66,
          "name": "F#4",
          "ticks": 276480,
          "time": 405,
          "velocity": 0.4330708661417323
        },
        {
          "duration": 0.1904296875,
          "durationTicks": 130,
          "midi": 66,
          "name": "F#4",
          "ticks": 276736,
          "time": 405.375,
          "velocity": 0.4566929133858268
        },
        {
          "duration": 0.17724609375,
          "durationTicks": 121,
          "midi": 63,
          "name": "D#4",
          "ticks": 276864,
          "time": 405.5625,
          "velocity": 0.3858267716535433
        },
        {
          "duration": 0.375,
          "durationTicks": 256,
          "midi": 62,
          "name": "D4",
          "ticks": 276992,
          "time": 405.75,
          "velocity": 0.44881889763779526
        },
        {
          "duration": 0.1904296875,
          "durationTicks": 130,
          "midi": 62,
          "name": "D4",
          "ticks": 277248,
          "time": 406.125,
          "velocity": 0.48031496062992124
        },
        {
          "duration": 0.17724609375,
          "durationTicks": 121,
          "midi": 60,
          "name": "C4",
          "ticks": 277376,
          "time": 406.3125,
          "velocity": 0.4330708661417323
        },
        {
          "duration": 0.375,
          "durationTicks": 256,
          "midi": 58,
          "name": "A#3",
          "ticks": 277504,
          "time": 406.5,
          "velocity": 0.4645669291338583
        },
        {
          "duration": 0.375,
          "durationTicks": 256,
          "midi": 58,
          "name": "A#3",
          "ticks": 277760,
          "time": 406.875,
          "velocity": 0.5196850393700787
        },
        {
          "duration": 0.1904296875,
          "durationTicks": 130,
          "midi": 70,
          "name": "A#4",
          "ticks": 278272,
          "time": 407.625,
          "velocity": 0.4330708661417323
        },
        {
          "duration": 0.17724609375,
          "durationTicks": 121,
          "midi": 69,
          "name": "A4",
          "ticks": 278400,
          "time": 407.8125,
          "velocity": 0.41732283464566927
        },
        {
          "duration": 0.38232421875,
          "durationTicks": 261,
          "midi": 69,
          "name": "A4",
          "ticks": 278528,
          "time": 408,
          "velocity": 0.4881889763779528
        },
        {
          "duration": 0.38232421875,
          "durationTicks": 261,
          "midi": 72,
          "name": "C5",
          "ticks": 278784,
          "time": 408.375,
          "velocity": 0.5354330708661418
        },
        {
          "duration": 0.38232421875,
          "durationTicks": 261,
          "midi": 66,
          "name": "F#4",
          "ticks": 279040,
          "time": 408.75,
          "velocity": 0.3937007874015748
        },
        {
          "duration": 0.35595703125,
          "durationTicks": 243,
          "midi": 69,
          "name": "A4",
          "ticks": 279296,
          "time": 409.125,
          "velocity": 0.4015748031496063
        },
        {
          "duration": 0.38232421875,
          "durationTicks": 261,
          "midi": 67,
          "name": "G4",
          "ticks": 279552,
          "time": 409.5,
          "velocity": 0.47244094488188976
        },
        {
          "duration": 0.35595703125,
          "durationTicks": 243,
          "midi": 62,
          "name": "D4",
          "ticks": 279808,
          "time": 409.875,
          "velocity": 0.3858267716535433
        },
        {
          "duration": 0.1904296875,
          "durationTicks": 130,
          "midi": 70,
          "name": "A#4",
          "ticks": 280320,
          "time": 410.625,
          "velocity": 0.4330708661417323
        },
        {
          "duration": 0.17724609375,
          "durationTicks": 121,
          "midi": 69,
          "name": "A4",
          "ticks": 280448,
          "time": 410.8125,
          "velocity": 0.3937007874015748
        },
        {
          "duration": 0.38232421875,
          "durationTicks": 261,
          "midi": 69,
          "name": "A4",
          "ticks": 280576,
          "time": 411,
          "velocity": 0.4566929133858268
        },
        {
          "duration": 0.38232421875,
          "durationTicks": 261,
          "midi": 72,
          "name": "C5",
          "ticks": 280832,
          "time": 411.375,
          "velocity": 0.49606299212598426
        },
        {
          "duration": 0.38232421875,
          "durationTicks": 261,
          "midi": 66,
          "name": "F#4",
          "ticks": 281088,
          "time": 411.75,
          "velocity": 0.4409448818897638
        },
        {
          "duration": 0.35595703125,
          "durationTicks": 243,
          "midi": 69,
          "name": "A4",
          "ticks": 281344,
          "time": 412.125,
          "velocity": 0.49606299212598426
        },
        {
          "duration": 0.38232421875,
          "durationTicks": 261,
          "midi": 67,
          "name": "G4",
          "ticks": 281600,
          "time": 412.5,
          "velocity": 0.48031496062992124
        },
        {
          "duration": 0.38232421875,
          "durationTicks": 261,
          "midi": 70,
          "name": "A#4",
          "ticks": 281856,
          "time": 412.875,
          "velocity": 0.5511811023622047
        },
        {
          "duration": 0.1904296875,
          "durationTicks": 130,
          "midi": 69,
          "name": "A4",
          "ticks": 282112,
          "time": 413.25,
          "velocity": 0.44881889763779526
        },
        {
          "duration": 0.1904296875,
          "durationTicks": 130,
          "midi": 67,
          "name": "G4",
          "ticks": 282240,
          "time": 413.4375,
          "velocity": 0.4330708661417323
        },
        {
          "duration": 0.1904296875,
          "durationTicks": 130,
          "midi": 65,
          "name": "F4",
          "ticks": 282368,
          "time": 413.625,
          "velocity": 0.4094488188976378
        },
        {
          "duration": 0.17724609375,
          "durationTicks": 121,
          "midi": 63,
          "name": "D#4",
          "ticks": 282496,
          "time": 413.8125,
          "velocity": 0.41732283464566927
        },
        {
          "duration": 1.529296875,
          "durationTicks": 1044,
          "midi": 62,
          "name": "D4",
          "ticks": 282624,
          "time": 414,
          "velocity": 0.4645669291338583
        },
        {
          "duration": 1.529296875,
          "durationTicks": 1044,
          "midi": 61,
          "name": "C#4",
          "ticks": 283648,
          "time": 415.5,
          "velocity": 0.4330708661417323
        },
        {
          "duration": 0.7119140625,
          "durationTicks": 486,
          "midi": 62,
          "name": "D4",
          "ticks": 284672,
          "time": 417,
          "velocity": 0.5118110236220472
        },
        {
          "duration": 0.1875,
          "durationTicks": 128,
          "midi": 62,
          "name": "D4",
          "ticks": 285440,
          "time": 418.125,
          "velocity": 0.6771653543307087
        },
        {
          "duration": 0.1875,
          "durationTicks": 128,
          "midi": 62,
          "name": "D4",
          "ticks": 285568,
          "time": 418.3125,
          "velocity": 0.7480314960629921
        },
        {
          "duration": 0.75,
          "durationTicks": 512,
          "midi": 62,
          "name": "D4",
          "ticks": 285696,
          "time": 418.5,
          "velocity": 0.8031496062992126
        },
        {
          "duration": 0.1875,
          "durationTicks": 128,
          "midi": 62,
          "name": "D4",
          "ticks": 286464,
          "time": 419.625,
          "velocity": 0.6850393700787402
        },
        {
          "duration": 0.1875,
          "durationTicks": 128,
          "midi": 62,
          "name": "D4",
          "ticks": 286592,
          "time": 419.8125,
          "velocity": 0.7716535433070866
        },
        {
          "duration": 0.75,
          "durationTicks": 512,
          "midi": 62,
          "name": "D4",
          "ticks": 286720,
          "time": 420,
          "velocity": 0.7952755905511811
        },
        {
          "duration": 0.1875,
          "durationTicks": 128,
          "midi": 62,
          "name": "D4",
          "ticks": 287488,
          "time": 421.125,
          "velocity": 0.7007874015748031
        },
        {
          "duration": 0.1875,
          "durationTicks": 128,
          "midi": 62,
          "name": "D4",
          "ticks": 287616,
          "time": 421.3125,
          "velocity": 0.8031496062992126
        },
        {
          "duration": 0.375,
          "durationTicks": 256,
          "midi": 62,
          "name": "D4",
          "ticks": 287744,
          "time": 421.5,
          "velocity": 0.7874015748031497
        },
        {
          "duration": 0.1875,
          "durationTicks": 128,
          "midi": 62,
          "name": "D4",
          "ticks": 288000,
          "time": 421.875,
          "velocity": 0.7874015748031497
        },
        {
          "duration": 0.1875,
          "durationTicks": 128,
          "midi": 62,
          "name": "D4",
          "ticks": 288128,
          "time": 422.0625,
          "velocity": 0.7244094488188977
        },
        {
          "duration": 0.375,
          "durationTicks": 256,
          "midi": 62,
          "name": "D4",
          "ticks": 288256,
          "time": 422.25,
          "velocity": 0.7795275590551181
        },
        {
          "duration": 0.1875,
          "durationTicks": 128,
          "midi": 62,
          "name": "D4",
          "ticks": 288512,
          "time": 422.625,
          "velocity": 0.7952755905511811
        },
        {
          "duration": 0.1875,
          "durationTicks": 128,
          "midi": 62,
          "name": "D4",
          "ticks": 288640,
          "time": 422.8125,
          "velocity": 0.7716535433070866
        },
        {
          "duration": 0.75,
          "durationTicks": 512,
          "midi": 62,
          "name": "D4",
          "ticks": 288768,
          "time": 423,
          "velocity": 0.7795275590551181
        },
        {
          "duration": 0.1904296875,
          "durationTicks": 130,
          "midi": 63,
          "name": "D#4",
          "ticks": 289536,
          "time": 424.125,
          "velocity": 0.4251968503937008
        },
        {
          "duration": 0.17724609375,
          "durationTicks": 121,
          "midi": 62,
          "name": "D4",
          "ticks": 289664,
          "time": 424.3125,
          "velocity": 0.3937007874015748
        },
        {
          "duration": 0.375,
          "durationTicks": 256,
          "midi": 62,
          "name": "D4",
          "ticks": 289792,
          "time": 424.5,
          "velocity": 0.47244094488188976
        },
        {
          "duration": 0.1904296875,
          "durationTicks": 130,
          "midi": 63,
          "name": "D#4",
          "ticks": 290048,
          "time": 424.875,
          "velocity": 0.48031496062992124
        },
        {
          "duration": 0.17724609375,
          "durationTicks": 121,
          "midi": 62,
          "name": "D4",
          "ticks": 290176,
          "time": 425.0625,
          "velocity": 0.48031496062992124
        },
        {
          "duration": 0.375,
          "durationTicks": 256,
          "midi": 62,
          "name": "D4",
          "ticks": 290304,
          "time": 425.25,
          "velocity": 0.4881889763779528
        },
        {
          "duration": 0.1904296875,
          "durationTicks": 130,
          "midi": 63,
          "name": "D#4",
          "ticks": 290560,
          "time": 425.625,
          "velocity": 0.48031496062992124
        },
        {
          "duration": 0.17724609375,
          "durationTicks": 121,
          "midi": 62,
          "name": "D4",
          "ticks": 290688,
          "time": 425.8125,
          "velocity": 0.4251968503937008
        },
        {
          "duration": 0.38232421875,
          "durationTicks": 261,
          "midi": 62,
          "name": "D4",
          "ticks": 290816,
          "time": 426,
          "velocity": 0.49606299212598426
        },
        {
          "duration": 0.35595703125,
          "durationTicks": 243,
          "midi": 70,
          "name": "A#4",
          "ticks": 291072,
          "time": 426.375,
          "velocity": 0.5984251968503937
        },
        {
          "duration": 0.1904296875,
          "durationTicks": 130,
          "midi": 70,
          "name": "A#4",
          "ticks": 291584,
          "time": 427.125,
          "velocity": 0.41732283464566927
        },
        {
          "duration": 0.17724609375,
          "durationTicks": 121,
          "midi": 68,
          "name": "G#4",
          "ticks": 291712,
          "time": 427.3125,
          "velocity": 0.41732283464566927
        },
        {
          "duration": 0.375,
          "durationTicks": 256,
          "midi": 67,
          "name": "G4",
          "ticks": 291840,
          "time": 427.5,
          "velocity": 0.4881889763779528
        },
        {
          "duration": 0.1904296875,
          "durationTicks": 130,
          "midi": 67,
          "name": "G4",
          "ticks": 292096,
          "time": 427.875,
          "velocity": 0.4330708661417323
        },
        {
          "duration": 0.17724609375,
          "durationTicks": 121,
          "midi": 65,
          "name": "F4",
          "ticks": 292224,
          "time": 428.0625,
          "velocity": 0.4094488188976378
        },
        {
          "duration": 0.375,
          "durationTicks": 256,
          "midi": 63,
          "name": "D#4",
          "ticks": 292352,
          "time": 428.25,
          "velocity": 0.4645669291338583
        },
        {
          "duration": 0.1904296875,
          "durationTicks": 130,
          "midi": 65,
          "name": "F4",
          "ticks": 292608,
          "time": 428.625,
          "velocity": 0.5039370078740157
        },
        {
          "duration": 0.17724609375,
          "durationTicks": 121,
          "midi": 63,
          "name": "D#4",
          "ticks": 292736,
          "time": 428.8125,
          "velocity": 0.4645669291338583
        },
        {
          "duration": 0.375,
          "durationTicks": 256,
          "midi": 62,
          "name": "D4",
          "ticks": 292864,
          "time": 429,
          "velocity": 0.4409448818897638
        },
        {
          "duration": 0.375,
          "durationTicks": 256,
          "midi": 62,
          "name": "D4",
          "ticks": 293120,
          "time": 429.375,
          "velocity": 0.5039370078740157
        },
        {
          "duration": 0.1904296875,
          "durationTicks": 130,
          "midi": 70,
          "name": "A#4",
          "ticks": 293632,
          "time": 430.125,
          "velocity": 0.41732283464566927
        },
        {
          "duration": 0.17724609375,
          "durationTicks": 121,
          "midi": 68,
          "name": "G#4",
          "ticks": 293760,
          "time": 430.3125,
          "velocity": 0.3937007874015748
        },
        {
          "duration": 0.375,
          "durationTicks": 256,
          "midi": 68,
          "name": "G#4",
          "ticks": 293888,
          "time": 430.5,
          "velocity": 0.4645669291338583
        },
        {
          "duration": 0.1904296875,
          "durationTicks": 130,
          "midi": 70,
          "name": "A#4",
          "ticks": 294144,
          "time": 430.875,
          "velocity": 0.48031496062992124
        },
        {
          "duration": 0.17724609375,
          "durationTicks": 121,
          "midi": 68,
          "name": "G#4",
          "ticks": 294272,
          "time": 431.0625,
          "velocity": 0.4645669291338583
        },
        {
          "duration": 0.375,
          "durationTicks": 256,
          "midi": 68,
          "name": "G#4",
          "ticks": 294400,
          "time": 431.25,
          "velocity": 0.4881889763779528
        },
        {
          "duration": 0.1904296875,
          "durationTicks": 130,
          "midi": 70,
          "name": "A#4",
          "ticks": 294656,
          "time": 431.625,
          "velocity": 0.5590551181102362
        },
        {
          "duration": 0.17724609375,
          "durationTicks": 121,
          "midi": 68,
          "name": "G#4",
          "ticks": 294784,
          "time": 431.8125,
          "velocity": 0.5590551181102362
        },
        {
          "duration": 0.38232421875,
          "durationTicks": 261,
          "midi": 68,
          "name": "G#4",
          "ticks": 294912,
          "time": 432,
          "velocity": 0.49606299212598426
        },
        {
          "duration": 0.35595703125,
          "durationTicks": 243,
          "midi": 58,
          "name": "A#3",
          "ticks": 295168,
          "time": 432.375,
          "velocity": 0.4566929133858268
        },
        {
          "duration": 0.1904296875,
          "durationTicks": 130,
          "midi": 65,
          "name": "F4",
          "ticks": 295680,
          "time": 433.125,
          "velocity": 0.44881889763779526
        },
        {
          "duration": 0.17724609375,
          "durationTicks": 121,
          "midi": 63,
          "name": "D#4",
          "ticks": 295808,
          "time": 433.3125,
          "velocity": 0.4015748031496063
        },
        {
          "duration": 0.375,
          "durationTicks": 256,
          "midi": 62,
          "name": "D4",
          "ticks": 295936,
          "time": 433.5,
          "velocity": 0.44881889763779526
        },
        {
          "duration": 0.1904296875,
          "durationTicks": 130,
          "midi": 62,
          "name": "D4",
          "ticks": 296192,
          "time": 433.875,
          "velocity": 0.47244094488188976
        },
        {
          "duration": 0.17724609375,
          "durationTicks": 121,
          "midi": 60,
          "name": "C4",
          "ticks": 296320,
          "time": 434.0625,
          "velocity": 0.41732283464566927
        },
        {
          "duration": 0.375,
          "durationTicks": 256,
          "midi": 58,
          "name": "A#3",
          "ticks": 296448,
          "time": 434.25,
          "velocity": 0.47244094488188976
        },
        {
          "duration": 0.1904296875,
          "durationTicks": 130,
          "midi": 58,
          "name": "A#3",
          "ticks": 296704,
          "time": 434.625,
          "velocity": 0.4409448818897638
        },
        {
          "duration": 0.17724609375,
          "durationTicks": 121,
          "midi": 56,
          "name": "G#3",
          "ticks": 296832,
          "time": 434.8125,
          "velocity": 0.44881889763779526
        },
        {
          "duration": 1.5,
          "durationTicks": 1024,
          "midi": 55,
          "name": "G3",
          "ticks": 296960,
          "time": 435,
          "velocity": 0.9212598425196851
        },
        {
          "duration": 1.5,
          "durationTicks": 1024,
          "midi": 63,
          "name": "D#4",
          "ticks": 296960,
          "time": 435,
          "velocity": 0.9212598425196851
        },
        {
          "duration": 1.125,
          "durationTicks": 768,
          "midi": 62,
          "name": "D4",
          "ticks": 297984,
          "time": 436.5,
          "velocity": 0.9291338582677166
        },
        {
          "duration": 1.125,
          "durationTicks": 768,
          "midi": 70,
          "name": "A#4",
          "ticks": 297984,
          "time": 436.5,
          "velocity": 0.9291338582677166
        },
        {
          "duration": 0.1875,
          "durationTicks": 128,
          "midi": 70,
          "name": "A#4",
          "ticks": 298880,
          "time": 437.8125,
          "velocity": 0.7007874015748031
        },
        {
          "duration": 0.1875,
          "durationTicks": 128,
          "midi": 68,
          "name": "G#4",
          "ticks": 299008,
          "time": 438,
          "velocity": 0.6929133858267716
        },
        {
          "duration": 0.1875,
          "durationTicks": 128,
          "midi": 72,
          "name": "C5",
          "ticks": 299264,
          "time": 438.375,
          "velocity": 0.8346456692913385
        },
        {
          "duration": 0.1875,
          "durationTicks": 128,
          "midi": 75,
          "name": "D#5",
          "ticks": 299520,
          "time": 438.75,
          "velocity": 0.8818897637795275
        },
        {
          "duration": 0.1875,
          "durationTicks": 128,
          "midi": 67,
          "name": "G4",
          "ticks": 300032,
          "time": 439.5,
          "velocity": 0.6929133858267716
        },
        {
          "duration": 0.1875,
          "durationTicks": 128,
          "midi": 70,
          "name": "A#4",
          "ticks": 300288,
          "time": 439.875,
          "velocity": 0.8503937007874016
        },
        {
          "duration": 0.1875,
          "durationTicks": 128,
          "midi": 75,
          "name": "D#5",
          "ticks": 300544,
          "time": 440.25,
          "velocity": 0.905511811023622
        },
        {
          "duration": 0.1875,
          "durationTicks": 128,
          "midi": 67,
          "name": "G4",
          "ticks": 300928,
          "time": 440.8125,
          "velocity": 0.7244094488188977
        },
        {
          "duration": 0.1875,
          "durationTicks": 128,
          "midi": 65,
          "name": "F4",
          "ticks": 301056,
          "time": 441,
          "velocity": 0.7086614173228346
        },
        {
          "duration": 0.1875,
          "durationTicks": 128,
          "midi": 68,
          "name": "G#4",
          "ticks": 301312,
          "time": 441.375,
          "velocity": 0.8031496062992126
        },
        {
          "duration": 0.1875,
          "durationTicks": 128,
          "midi": 72,
          "name": "C5",
          "ticks": 301568,
          "time": 441.75,
          "velocity": 0.8740157480314961
        },
        {
          "duration": 0.1875,
          "durationTicks": 128,
          "midi": 65,
          "name": "F4",
          "ticks": 301824,
          "time": 442.125,
          "velocity": 0.6614173228346457
        },
        {
          "duration": 0.1875,
          "durationTicks": 128,
          "midi": 64,
          "name": "E4",
          "ticks": 302080,
          "time": 442.5,
          "velocity": 0.7244094488188977
        },
        {
          "duration": 0.1875,
          "durationTicks": 128,
          "midi": 67,
          "name": "G4",
          "ticks": 302336,
          "time": 442.875,
          "velocity": 0.84251968503937
        },
        {
          "duration": 0.1875,
          "durationTicks": 128,
          "midi": 70,
          "name": "A#4",
          "ticks": 302592,
          "time": 443.25,
          "velocity": 0.8582677165354331
        },
        {
          "duration": 0.1875,
          "durationTicks": 128,
          "midi": 61,
          "name": "C#4",
          "ticks": 302848,
          "time": 443.625,
          "velocity": 0.6062992125984252
        },
        {
          "duration": 0.1875,
          "durationTicks": 128,
          "midi": 60,
          "name": "C4",
          "ticks": 303104,
          "time": 444,
          "velocity": 0.6929133858267716
        },
        {
          "duration": 0.1875,
          "durationTicks": 128,
          "midi": 64,
          "name": "E4",
          "ticks": 303360,
          "time": 444.375,
          "velocity": 0.8582677165354331
        },
        {
          "duration": 0.1875,
          "durationTicks": 128,
          "midi": 67,
          "name": "G4",
          "ticks": 303616,
          "time": 444.75,
          "velocity": 0.8582677165354331
        },
        {
          "duration": 0.1875,
          "durationTicks": 128,
          "midi": 58,
          "name": "A#3",
          "ticks": 303872,
          "time": 445.125,
          "velocity": 0.6929133858267716
        },
        {
          "duration": 0.1875,
          "durationTicks": 128,
          "midi": 68,
          "name": "G#4",
          "ticks": 304128,
          "time": 445.5,
          "velocity": 0.9291338582677166
        },
        {
          "duration": 0.1875,
          "durationTicks": 128,
          "midi": 65,
          "name": "F4",
          "ticks": 304256,
          "time": 445.6875,
          "velocity": 0.7559055118110236
        },
        {
          "duration": 0.1875,
          "durationTicks": 128,
          "midi": 72,
          "name": "C5",
          "ticks": 304384,
          "time": 445.875,
          "velocity": 0.8818897637795275
        },
        {
          "duration": 0.1875,
          "durationTicks": 128,
          "midi": 68,
          "name": "G#4",
          "ticks": 304512,
          "time": 446.0625,
          "velocity": 0.7322834645669292
        },
        {
          "duration": 0.1875,
          "durationTicks": 128,
          "midi": 77,
          "name": "F5",
          "ticks": 304640,
          "time": 446.25,
          "velocity": 0.8976377952755905
        },
        {
          "duration": 0.1875,
          "durationTicks": 128,
          "midi": 72,
          "name": "C5",
          "ticks": 304768,
          "time": 446.4375,
          "velocity": 0.7480314960629921
        },
        {
          "duration": 0.1875,
          "durationTicks": 128,
          "midi": 80,
          "name": "G#5",
          "ticks": 304896,
          "time": 446.625,
          "velocity": 0.9133858267716536
        },
        {
          "duration": 0.1875,
          "durationTicks": 128,
          "midi": 77,
          "name": "F5",
          "ticks": 305024,
          "time": 446.8125,
          "velocity": 0.7244094488188977
        },
        {
          "duration": 0.1875,
          "durationTicks": 128,
          "midi": 76,
          "name": "E5",
          "ticks": 305152,
          "time": 447,
          "velocity": 0.7244094488188977
        },
        {
          "duration": 0.1875,
          "durationTicks": 128,
          "midi": 79,
          "name": "G5",
          "ticks": 305280,
          "time": 447.1875,
          "velocity": 0.7874015748031497
        },
        {
          "duration": 0.1875,
          "durationTicks": 128,
          "midi": 84,
          "name": "C6",
          "ticks": 305408,
          "time": 447.375,
          "velocity": 0.8661417322834646
        },
        {
          "duration": 0.1875,
          "durationTicks": 128,
          "midi": 82,
          "name": "A#5",
          "ticks": 305536,
          "time": 447.5625,
          "velocity": 0.7401574803149606
        },
        {
          "duration": 0.1875,
          "durationTicks": 128,
          "midi": 80,
          "name": "G#5",
          "ticks": 305664,
          "time": 447.75,
          "velocity": 0.7244094488188977
        },
        {
          "duration": 0.1875,
          "durationTicks": 128,
          "midi": 79,
          "name": "G5",
          "ticks": 305792,
          "time": 447.9375,
          "velocity": 0.7165354330708661
        },
        {
          "duration": 0.1875,
          "durationTicks": 128,
          "midi": 77,
          "name": "F5",
          "ticks": 305920,
          "time": 448.125,
          "velocity": 0.7086614173228346
        },
        {
          "duration": 0.1875,
          "durationTicks": 128,
          "midi": 75,
          "name": "D#5",
          "ticks": 306048,
          "time": 448.3125,
          "velocity": 0.6771653543307087
        },
        {
          "duration": 0.1875,
          "durationTicks": 128,
          "midi": 73,
          "name": "C#5",
          "ticks": 306176,
          "time": 448.5,
          "velocity": 0.7322834645669292
        },
        {
          "duration": 0.1875,
          "durationTicks": 128,
          "midi": 77,
          "name": "F5",
          "ticks": 306304,
          "time": 448.6875,
          "velocity": 0.8818897637795275
        },
        {
          "duration": 0.1875,
          "durationTicks": 128,
          "midi": 82,
          "name": "A#5",
          "ticks": 306432,
          "time": 448.875,
          "velocity": 0.905511811023622
        },
        {
          "duration": 0.1875,
          "durationTicks": 128,
          "midi": 80,
          "name": "G#5",
          "ticks": 306560,
          "time": 449.0625,
          "velocity": 0.7007874015748031
        },
        {
          "duration": 0.1875,
          "durationTicks": 128,
          "midi": 79,
          "name": "G5",
          "ticks": 306688,
          "time": 449.25,
          "velocity": 0.7322834645669292
        },
        {
          "duration": 0.1875,
          "durationTicks": 128,
          "midi": 77,
          "name": "F5",
          "ticks": 306816,
          "time": 449.4375,
          "velocity": 0.7401574803149606
        },
        {
          "duration": 0.1875,
          "durationTicks": 128,
          "midi": 75,
          "name": "D#5",
          "ticks": 306944,
          "time": 449.625,
          "velocity": 0.7007874015748031
        },
        {
          "duration": 0.1875,
          "durationTicks": 128,
          "midi": 73,
          "name": "C#5",
          "ticks": 307072,
          "time": 449.8125,
          "velocity": 0.6929133858267716
        },
        {
          "duration": 0.1875,
          "durationTicks": 128,
          "midi": 72,
          "name": "C5",
          "ticks": 307200,
          "time": 450,
          "velocity": 0.7322834645669292
        },
        {
          "duration": 0.1875,
          "durationTicks": 128,
          "midi": 75,
          "name": "D#5",
          "ticks": 307328,
          "time": 450.1875,
          "velocity": 0.8110236220472441
        },
        {
          "duration": 0.1875,
          "durationTicks": 128,
          "midi": 80,
          "name": "G#5",
          "ticks": 307456,
          "time": 450.375,
          "velocity": 0.889763779527559
        },
        {
          "duration": 0.1875,
          "durationTicks": 128,
          "midi": 79,
          "name": "G5",
          "ticks": 307584,
          "time": 450.5625,
          "velocity": 0.7795275590551181
        },
        {
          "duration": 0.1875,
          "durationTicks": 128,
          "midi": 77,
          "name": "F5",
          "ticks": 307712,
          "time": 450.75,
          "velocity": 0.6850393700787402
        },
        {
          "duration": 0.1875,
          "durationTicks": 128,
          "midi": 75,
          "name": "D#5",
          "ticks": 307840,
          "time": 450.9375,
          "velocity": 0.7007874015748031
        },
        {
          "duration": 0.1875,
          "durationTicks": 128,
          "midi": 73,
          "name": "C#5",
          "ticks": 307968,
          "time": 451.125,
          "velocity": 0.7244094488188977
        },
        {
          "duration": 0.1875,
          "durationTicks": 128,
          "midi": 72,
          "name": "C5",
          "ticks": 308096,
          "time": 451.3125,
          "velocity": 0.7086614173228346
        },
        {
          "duration": 0.1875,
          "durationTicks": 128,
          "midi": 70,
          "name": "A#4",
          "ticks": 308224,
          "time": 451.5,
          "velocity": 0.7165354330708661
        },
        {
          "duration": 0.1875,
          "durationTicks": 128,
          "midi": 73,
          "name": "C#5",
          "ticks": 308352,
          "time": 451.6875,
          "velocity": 0.8031496062992126
        },
        {
          "duration": 0.1875,
          "durationTicks": 128,
          "midi": 79,
          "name": "G5",
          "ticks": 308480,
          "time": 451.875,
          "velocity": 0.8976377952755905
        },
        {
          "duration": 0.1875,
          "durationTicks": 128,
          "midi": 77,
          "name": "F5",
          "ticks": 308608,
          "time": 452.0625,
          "velocity": 0.7480314960629921
        },
        {
          "duration": 0.1875,
          "durationTicks": 128,
          "midi": 76,
          "name": "E5",
          "ticks": 308736,
          "time": 452.25,
          "velocity": 0.7086614173228346
        },
        {
          "duration": 0.1875,
          "durationTicks": 128,
          "midi": 73,
          "name": "C#5",
          "ticks": 308864,
          "time": 452.4375,
          "velocity": 0.7165354330708661
        },
        {
          "duration": 0.1875,
          "durationTicks": 128,
          "midi": 72,
          "name": "C5",
          "ticks": 308992,
          "time": 452.625,
          "velocity": 0.7480314960629921
        },
        {
          "duration": 0.1875,
          "durationTicks": 128,
          "midi": 70,
          "name": "A#4",
          "ticks": 309120,
          "time": 452.8125,
          "velocity": 0.7086614173228346
        },
        {
          "duration": 0.1875,
          "durationTicks": 128,
          "midi": 68,
          "name": "G#4",
          "ticks": 309248,
          "time": 453,
          "velocity": 0.7165354330708661
        },
        {
          "duration": 0.1875,
          "durationTicks": 128,
          "midi": 65,
          "name": "F4",
          "ticks": 309376,
          "time": 453.1875,
          "velocity": 0.7401574803149606
        },
        {
          "duration": 0.1875,
          "durationTicks": 128,
          "midi": 72,
          "name": "C5",
          "ticks": 309504,
          "time": 453.375,
          "velocity": 0.889763779527559
        },
        {
          "duration": 0.1875,
          "durationTicks": 128,
          "midi": 70,
          "name": "A#4",
          "ticks": 309632,
          "time": 453.5625,
          "velocity": 0.7480314960629921
        },
        {
          "duration": 0.1875,
          "durationTicks": 128,
          "midi": 68,
          "name": "G#4",
          "ticks": 309760,
          "time": 453.75,
          "velocity": 0.7165354330708661
        },
        {
          "duration": 0.1875,
          "durationTicks": 128,
          "midi": 67,
          "name": "G4",
          "ticks": 309888,
          "time": 453.9375,
          "velocity": 0.7480314960629921
        },
        {
          "duration": 0.1875,
          "durationTicks": 128,
          "midi": 65,
          "name": "F4",
          "ticks": 310016,
          "time": 454.125,
          "velocity": 0.7007874015748031
        },
        {
          "duration": 0.1875,
          "durationTicks": 128,
          "midi": 63,
          "name": "D#4",
          "ticks": 310144,
          "time": 454.3125,
          "velocity": 0.7165354330708661
        },
        {
          "duration": 0.1875,
          "durationTicks": 128,
          "midi": 62,
          "name": "D4",
          "ticks": 310272,
          "time": 454.5,
          "velocity": 0.7480314960629921
        },
        {
          "duration": 0.1875,
          "durationTicks": 128,
          "midi": 70,
          "name": "A#4",
          "ticks": 310400,
          "time": 454.6875,
          "velocity": 0.937007874015748
        },
        {
          "duration": 0.1875,
          "durationTicks": 128,
          "midi": 77,
          "name": "F5",
          "ticks": 310528,
          "time": 454.875,
          "velocity": 0.905511811023622
        },
        {
          "duration": 0.1875,
          "durationTicks": 128,
          "midi": 75,
          "name": "D#5",
          "ticks": 310656,
          "time": 455.0625,
          "velocity": 0.7952755905511811
        },
        {
          "duration": 0.1875,
          "durationTicks": 128,
          "midi": 74,
          "name": "D5",
          "ticks": 310784,
          "time": 455.25,
          "velocity": 0.7637795275590551
        },
        {
          "duration": 0.1875,
          "durationTicks": 128,
          "midi": 72,
          "name": "C5",
          "ticks": 310912,
          "time": 455.4375,
          "velocity": 0.7480314960629921
        },
        {
          "duration": 0.1875,
          "durationTicks": 128,
          "midi": 70,
          "name": "A#4",
          "ticks": 311040,
          "time": 455.625,
          "velocity": 0.7165354330708661
        },
        {
          "duration": 0.1875,
          "durationTicks": 128,
          "midi": 68,
          "name": "G#4",
          "ticks": 311168,
          "time": 455.8125,
          "velocity": 0.7165354330708661
        },
        {
          "duration": 0.1875,
          "durationTicks": 128,
          "midi": 67,
          "name": "G4",
          "ticks": 311296,
          "time": 456,
          "velocity": 0.7165354330708661
        },
        {
          "duration": 0.1875,
          "durationTicks": 128,
          "midi": 63,
          "name": "D#4",
          "ticks": 311424,
          "time": 456.1875,
          "velocity": 0.6771653543307087
        },
        {
          "duration": 0.1875,
          "durationTicks": 128,
          "midi": 70,
          "name": "A#4",
          "ticks": 311552,
          "time": 456.375,
          "velocity": 0.889763779527559
        },
        {
          "duration": 0.1875,
          "durationTicks": 128,
          "midi": 68,
          "name": "G#4",
          "ticks": 311680,
          "time": 456.5625,
          "velocity": 0.7401574803149606
        },
        {
          "duration": 0.1875,
          "durationTicks": 128,
          "midi": 67,
          "name": "G4",
          "ticks": 311808,
          "time": 456.75,
          "velocity": 0.7322834645669292
        },
        {
          "duration": 0.1875,
          "durationTicks": 128,
          "midi": 65,
          "name": "F4",
          "ticks": 311936,
          "time": 456.9375,
          "velocity": 0.7165354330708661
        },
        {
          "duration": 0.1875,
          "durationTicks": 128,
          "midi": 63,
          "name": "D#4",
          "ticks": 312064,
          "time": 457.125,
          "velocity": 0.7086614173228346
        },
        {
          "duration": 0.1875,
          "durationTicks": 128,
          "midi": 62,
          "name": "D4",
          "ticks": 312192,
          "time": 457.3125,
          "velocity": 0.7244094488188977
        },
        {
          "duration": 0.1875,
          "durationTicks": 128,
          "midi": 60,
          "name": "C4",
          "ticks": 312320,
          "time": 457.5,
          "velocity": 0.7007874015748031
        },
        {
          "duration": 0.1875,
          "durationTicks": 128,
          "midi": 68,
          "name": "G#4",
          "ticks": 312448,
          "time": 457.6875,
          "velocity": 0.9212598425196851
        },
        {
          "duration": 0.1875,
          "durationTicks": 128,
          "midi": 75,
          "name": "D#5",
          "ticks": 312576,
          "time": 457.875,
          "velocity": 0.952755905511811
        },
        {
          "duration": 0.1875,
          "durationTicks": 128,
          "midi": 74,
          "name": "D5",
          "ticks": 312704,
          "time": 458.0625,
          "velocity": 0.7637795275590551
        },
        {
          "duration": 0.1875,
          "durationTicks": 128,
          "midi": 72,
          "name": "C5",
          "ticks": 312832,
          "time": 458.25,
          "velocity": 0.7559055118110236
        },
        {
          "duration": 0.1875,
          "durationTicks": 128,
          "midi": 70,
          "name": "A#4",
          "ticks": 312960,
          "time": 458.4375,
          "velocity": 0.6929133858267716
        },
        {
          "duration": 0.1875,
          "durationTicks": 128,
          "midi": 68,
          "name": "G#4",
          "ticks": 313088,
          "time": 458.625,
          "velocity": 0.7086614173228346
        },
        {
          "duration": 0.1875,
          "durationTicks": 128,
          "midi": 67,
          "name": "G4",
          "ticks": 313216,
          "time": 458.8125,
          "velocity": 0.7322834645669292
        },
        {
          "duration": 0.1875,
          "durationTicks": 128,
          "midi": 65,
          "name": "F4",
          "ticks": 313344,
          "time": 459,
          "velocity": 0.6929133858267716
        },
        {
          "duration": 0.1875,
          "durationTicks": 128,
          "midi": 69,
          "name": "A4",
          "ticks": 313472,
          "time": 459.1875,
          "velocity": 0.8582677165354331
        },
        {
          "duration": 0.1875,
          "durationTicks": 128,
          "midi": 74,
          "name": "D5",
          "ticks": 313600,
          "time": 459.375,
          "velocity": 0.8976377952755905
        },
        {
          "duration": 0.1875,
          "durationTicks": 128,
          "midi": 75,
          "name": "D#5",
          "ticks": 313728,
          "time": 459.5625,
          "velocity": 0.8267716535433071
        },
        {
          "duration": 0.1875,
          "durationTicks": 128,
          "midi": 77,
          "name": "F5",
          "ticks": 313856,
          "time": 459.75,
          "velocity": 0.8346456692913385
        },
        {
          "duration": 0.1875,
          "durationTicks": 128,
          "midi": 75,
          "name": "D#5",
          "ticks": 313984,
          "time": 459.9375,
          "velocity": 0.7480314960629921
        },
        {
          "duration": 0.1875,
          "durationTicks": 128,
          "midi": 74,
          "name": "D5",
          "ticks": 314112,
          "time": 460.125,
          "velocity": 0.7086614173228346
        },
        {
          "duration": 0.1875,
          "durationTicks": 128,
          "midi": 72,
          "name": "C5",
          "ticks": 314240,
          "time": 460.3125,
          "velocity": 0.7086614173228346
        },
        {
          "duration": 0.1875,
          "durationTicks": 128,
          "midi": 71,
          "name": "B4",
          "ticks": 314368,
          "time": 460.5,
          "velocity": 0.7637795275590551
        },
        {
          "duration": 0.1875,
          "durationTicks": 128,
          "midi": 67,
          "name": "G4",
          "ticks": 314496,
          "time": 460.6875,
          "velocity": 0.7086614173228346
        },
        {
          "duration": 0.1875,
          "durationTicks": 128,
          "midi": 74,
          "name": "D5",
          "ticks": 314624,
          "time": 460.875,
          "velocity": 0.889763779527559
        },
        {
          "duration": 0.1875,
          "durationTicks": 128,
          "midi": 72,
          "name": "C5",
          "ticks": 314752,
          "time": 461.0625,
          "velocity": 0.7480314960629921
        },
        {
          "duration": 0.1875,
          "durationTicks": 128,
          "midi": 71,
          "name": "B4",
          "ticks": 314880,
          "time": 461.25,
          "velocity": 0.7480314960629921
        },
        {
          "duration": 0.1875,
          "durationTicks": 128,
          "midi": 68,
          "name": "G#4",
          "ticks": 315008,
          "time": 461.4375,
          "velocity": 0.6850393700787402
        },
        {
          "duration": 0.1875,
          "durationTicks": 128,
          "midi": 67,
          "name": "G4",
          "ticks": 315136,
          "time": 461.625,
          "velocity": 0.7086614173228346
        },
        {
          "duration": 0.1875,
          "durationTicks": 128,
          "midi": 65,
          "name": "F4",
          "ticks": 315264,
          "time": 461.8125,
          "velocity": 0.7007874015748031
        },
        {
          "duration": 0.1875,
          "durationTicks": 128,
          "midi": 63,
          "name": "D#4",
          "ticks": 315392,
          "time": 462,
          "velocity": 0.7244094488188977
        },
        {
          "duration": 0.1875,
          "durationTicks": 128,
          "midi": 60,
          "name": "C4",
          "ticks": 315520,
          "time": 462.1875,
          "velocity": 0.6850393700787402
        },
        {
          "duration": 0.1875,
          "durationTicks": 128,
          "midi": 67,
          "name": "G4",
          "ticks": 315648,
          "time": 462.375,
          "velocity": 0.905511811023622
        },
        {
          "duration": 0.1875,
          "durationTicks": 128,
          "midi": 63,
          "name": "D#4",
          "ticks": 315776,
          "time": 462.5625,
          "velocity": 0.6850393700787402
        },
        {
          "duration": 0.1875,
          "durationTicks": 128,
          "midi": 72,
          "name": "C5",
          "ticks": 315904,
          "time": 462.75,
          "velocity": 0.937007874015748
        },
        {
          "duration": 0.1875,
          "durationTicks": 128,
          "midi": 70,
          "name": "A#4",
          "ticks": 316032,
          "time": 462.9375,
          "velocity": 0.7637795275590551
        },
        {
          "duration": 0.1875,
          "durationTicks": 128,
          "midi": 69,
          "name": "A4",
          "ticks": 316160,
          "time": 463.125,
          "velocity": 0.7322834645669292
        },
        {
          "duration": 0.1875,
          "durationTicks": 128,
          "midi": 67,
          "name": "G4",
          "ticks": 316288,
          "time": 463.3125,
          "velocity": 0.7086614173228346
        },
        {
          "duration": 0.1875,
          "durationTicks": 128,
          "midi": 66,
          "name": "F#4",
          "ticks": 316416,
          "time": 463.5,
          "velocity": 0.7401574803149606
        },
        {
          "duration": 0.1875,
          "durationTicks": 128,
          "midi": 67,
          "name": "G4",
          "ticks": 316544,
          "time": 463.6875,
          "velocity": 0.7874015748031497
        },
        {
          "duration": 0.1875,
          "durationTicks": 128,
          "midi": 69,
          "name": "A4",
          "ticks": 316672,
          "time": 463.875,
          "velocity": 0.7952755905511811
        },
        {
          "duration": 0.1875,
          "durationTicks": 128,
          "midi": 67,
          "name": "G4",
          "ticks": 316800,
          "time": 464.0625,
          "velocity": 0.7480314960629921
        },
        {
          "duration": 0.1875,
          "durationTicks": 128,
          "midi": 66,
          "name": "F#4",
          "ticks": 316928,
          "time": 464.25,
          "velocity": 0.7401574803149606
        },
        {
          "duration": 0.1875,
          "durationTicks": 128,
          "midi": 63,
          "name": "D#4",
          "ticks": 317056,
          "time": 464.4375,
          "velocity": 0.6929133858267716
        },
        {
          "duration": 0.1875,
          "durationTicks": 128,
          "midi": 62,
          "name": "D4",
          "ticks": 317184,
          "time": 464.625,
          "velocity": 0.7165354330708661
        },
        {
          "duration": 0.1875,
          "durationTicks": 128,
          "midi": 60,
          "name": "C4",
          "ticks": 317312,
          "time": 464.8125,
          "velocity": 0.7086614173228346
        },
        {
          "duration": 1.5,
          "durationTicks": 1024,
          "midi": 58,
          "name": "A#3",
          "ticks": 317440,
          "time": 465,
          "velocity": 0.9212598425196851
        },
        {
          "duration": 1.5,
          "durationTicks": 1024,
          "midi": 67,
          "name": "G4",
          "ticks": 317440,
          "time": 465,
          "velocity": 0.9212598425196851
        },
        {
          "duration": 1.125,
          "durationTicks": 768,
          "midi": 62,
          "name": "D4",
          "ticks": 318464,
          "time": 466.5,
          "velocity": 0.937007874015748
        },
        {
          "duration": 1.125,
          "durationTicks": 768,
          "midi": 74,
          "name": "D5",
          "ticks": 318464,
          "time": 466.5,
          "velocity": 0.937007874015748
        },
        {
          "duration": 0.1875,
          "durationTicks": 128,
          "midi": 74,
          "name": "D5",
          "ticks": 319360,
          "time": 467.8125,
          "velocity": 0.7007874015748031
        },
        {
          "duration": 0.1875,
          "durationTicks": 128,
          "midi": 72,
          "name": "C5",
          "ticks": 319488,
          "time": 468,
          "velocity": 0.6850393700787402
        },
        {
          "duration": 0.1875,
          "durationTicks": 128,
          "midi": 75,
          "name": "D#5",
          "ticks": 319744,
          "time": 468.375,
          "velocity": 0.8346456692913385
        },
        {
          "duration": 0.1875,
          "durationTicks": 128,
          "midi": 79,
          "name": "G5",
          "ticks": 320000,
          "time": 468.75,
          "velocity": 0.8661417322834646
        },
        {
          "duration": 0.1875,
          "durationTicks": 128,
          "midi": 70,
          "name": "A#4",
          "ticks": 320512,
          "time": 469.5,
          "velocity": 0.7165354330708661
        },
        {
          "duration": 0.1875,
          "durationTicks": 128,
          "midi": 74,
          "name": "D5",
          "ticks": 320768,
          "time": 469.875,
          "velocity": 0.8188976377952756
        },
        {
          "duration": 0.1875,
          "durationTicks": 128,
          "midi": 79,
          "name": "G5",
          "ticks": 321024,
          "time": 470.25,
          "velocity": 0.8582677165354331
        },
        {
          "duration": 0.1875,
          "durationTicks": 128,
          "midi": 70,
          "name": "A#4",
          "ticks": 321408,
          "time": 470.8125,
          "velocity": 0.6692913385826772
        },
        {
          "duration": 0.1875,
          "durationTicks": 128,
          "midi": 69,
          "name": "A4",
          "ticks": 321536,
          "time": 471,
          "velocity": 0.7322834645669292
        },
        {
          "duration": 0.1875,
          "durationTicks": 128,
          "midi": 72,
          "name": "C5",
          "ticks": 321792,
          "time": 471.375,
          "velocity": 0.8031496062992126
        },
        {
          "duration": 0.1875,
          "durationTicks": 128,
          "midi": 75,
          "name": "D#5",
          "ticks": 322048,
          "time": 471.75,
          "velocity": 0.8346456692913385
        },
        {
          "duration": 0.1875,
          "durationTicks": 128,
          "midi": 66,
          "name": "F#4",
          "ticks": 322432,
          "time": 472.3125,
          "velocity": 0.7165354330708661
        },
        {
          "duration": 0.1875,
          "durationTicks": 128,
          "midi": 67,
          "name": "G4",
          "ticks": 322560,
          "time": 472.5,
          "velocity": 0.7716535433070866
        },
        {
          "duration": 0.1875,
          "durationTicks": 128,
          "midi": 70,
          "name": "A#4",
          "ticks": 322816,
          "time": 472.875,
          "velocity": 0.8267716535433071
        },
        {
          "duration": 0.1875,
          "durationTicks": 128,
          "midi": 74,
          "name": "D5",
          "ticks": 323072,
          "time": 473.25,
          "velocity": 0.8661417322834646
        },
        {
          "duration": 0.1875,
          "durationTicks": 128,
          "midi": 62,
          "name": "D4",
          "ticks": 323456,
          "time": 473.8125,
          "velocity": 0.6929133858267716
        },
        {
          "duration": 0.1875,
          "durationTicks": 128,
          "midi": 61,
          "name": "C#4",
          "ticks": 323584,
          "time": 474,
          "velocity": 0.7165354330708661
        },
        {
          "duration": 0.1875,
          "durationTicks": 128,
          "midi": 62,
          "name": "D4",
          "ticks": 323712,
          "time": 474.1875,
          "velocity": 0.8031496062992126
        },
        {
          "duration": 0.1875,
          "durationTicks": 128,
          "midi": 64,
          "name": "E4",
          "ticks": 323840,
          "time": 474.375,
          "velocity": 0.8346456692913385
        },
        {
          "duration": 0.1875,
          "durationTicks": 128,
          "midi": 65,
          "name": "F4",
          "ticks": 323968,
          "time": 474.5625,
          "velocity": 0.8346456692913385
        },
        {
          "duration": 0.1875,
          "durationTicks": 128,
          "midi": 67,
          "name": "G4",
          "ticks": 324096,
          "time": 474.75,
          "velocity": 0.8267716535433071
        },
        {
          "duration": 0.1875,
          "durationTicks": 128,
          "midi": 69,
          "name": "A4",
          "ticks": 324224,
          "time": 474.9375,
          "velocity": 0.84251968503937
        },
        {
          "duration": 0.1875,
          "durationTicks": 128,
          "midi": 70,
          "name": "A#4",
          "ticks": 324352,
          "time": 475.125,
          "velocity": 0.8346456692913385
        },
        {
          "duration": 0.1875,
          "durationTicks": 128,
          "midi": 62,
          "name": "D4",
          "ticks": 324480,
          "time": 475.3125,
          "velocity": 0.6614173228346457
        },
        {
          "duration": 0.1875,
          "durationTicks": 128,
          "midi": 61,
          "name": "C#4",
          "ticks": 324608,
          "time": 475.5,
          "velocity": 0.6692913385826772
        },
        {
          "duration": 0.1875,
          "durationTicks": 128,
          "midi": 62,
          "name": "D4",
          "ticks": 324736,
          "time": 475.6875,
          "velocity": 0.7874015748031497
        },
        {
          "duration": 0.1875,
          "durationTicks": 128,
          "midi": 64,
          "name": "E4",
          "ticks": 324864,
          "time": 475.875,
          "velocity": 0.7952755905511811
        },
        {
          "duration": 0.1875,
          "durationTicks": 128,
          "midi": 65,
          "name": "F4",
          "ticks": 324992,
          "time": 476.0625,
          "velocity": 0.8188976377952756
        },
        {
          "duration": 0.1875,
          "durationTicks": 128,
          "midi": 67,
          "name": "G4",
          "ticks": 325120,
          "time": 476.25,
          "velocity": 0.8346456692913385
        },
        {
          "duration": 0.1875,
          "durationTicks": 128,
          "midi": 69,
          "name": "A4",
          "ticks": 325248,
          "time": 476.4375,
          "velocity": 0.8267716535433071
        },
        {
          "duration": 0.1875,
          "durationTicks": 128,
          "midi": 70,
          "name": "A#4",
          "ticks": 325376,
          "time": 476.625,
          "velocity": 0.8267716535433071
        },
        {
          "duration": 0.1875,
          "durationTicks": 128,
          "midi": 62,
          "name": "D4",
          "ticks": 325504,
          "time": 476.8125,
          "velocity": 0.5984251968503937
        },
        {
          "duration": 0.1875,
          "durationTicks": 128,
          "midi": 61,
          "name": "C#4",
          "ticks": 325632,
          "time": 477,
          "velocity": 0.6929133858267716
        },
        {
          "duration": 0.1875,
          "durationTicks": 128,
          "midi": 62,
          "name": "D4",
          "ticks": 325760,
          "time": 477.1875,
          "velocity": 0.8031496062992126
        },
        {
          "duration": 0.1875,
          "durationTicks": 128,
          "midi": 64,
          "name": "E4",
          "ticks": 325888,
          "time": 477.375,
          "velocity": 0.8503937007874016
        },
        {
          "duration": 0.1875,
          "durationTicks": 128,
          "midi": 65,
          "name": "F4",
          "ticks": 326016,
          "time": 477.5625,
          "velocity": 0.8031496062992126
        },
        {
          "duration": 0.1875,
          "durationTicks": 128,
          "midi": 67,
          "name": "G4",
          "ticks": 326144,
          "time": 477.75,
          "velocity": 0.8503937007874016
        },
        {
          "duration": 0.1875,
          "durationTicks": 128,
          "midi": 69,
          "name": "A4",
          "ticks": 326272,
          "time": 477.9375,
          "velocity": 0.8188976377952756
        },
        {
          "duration": 0.1875,
          "durationTicks": 128,
          "midi": 70,
          "name": "A#4",
          "ticks": 326400,
          "time": 478.125,
          "velocity": 0.8661417322834646
        },
        {
          "duration": 0.1875,
          "durationTicks": 128,
          "midi": 62,
          "name": "D4",
          "ticks": 326528,
          "time": 478.3125,
          "velocity": 0.6299212598425197
        },
        {
          "duration": 0.1875,
          "durationTicks": 128,
          "midi": 61,
          "name": "C#4",
          "ticks": 326656,
          "time": 478.5,
          "velocity": 0.7086614173228346
        },
        {
          "duration": 0.1875,
          "durationTicks": 128,
          "midi": 62,
          "name": "D4",
          "ticks": 326784,
          "time": 478.6875,
          "velocity": 0.8031496062992126
        },
        {
          "duration": 0.1875,
          "durationTicks": 128,
          "midi": 64,
          "name": "E4",
          "ticks": 326912,
          "time": 478.875,
          "velocity": 0.8346456692913385
        },
        {
          "duration": 0.1875,
          "durationTicks": 128,
          "midi": 65,
          "name": "F4",
          "ticks": 327040,
          "time": 479.0625,
          "velocity": 0.8031496062992126
        },
        {
          "duration": 0.1875,
          "durationTicks": 128,
          "midi": 67,
          "name": "G4",
          "ticks": 327168,
          "time": 479.25,
          "velocity": 0.8110236220472441
        },
        {
          "duration": 0.1875,
          "durationTicks": 128,
          "midi": 69,
          "name": "A4",
          "ticks": 327296,
          "time": 479.4375,
          "velocity": 0.8346456692913385
        },
        {
          "duration": 0.1875,
          "durationTicks": 128,
          "midi": 70,
          "name": "A#4",
          "ticks": 327424,
          "time": 479.625,
          "velocity": 0.8188976377952756
        },
        {
          "duration": 0.1875,
          "durationTicks": 128,
          "midi": 61,
          "name": "C#4",
          "ticks": 327552,
          "time": 479.8125,
          "velocity": 0.6456692913385826
        },
        {
          "duration": 0.1875,
          "durationTicks": 128,
          "midi": 62,
          "name": "D4",
          "ticks": 327680,
          "time": 480,
          "velocity": 0.7559055118110236
        },
        {
          "duration": 0.1875,
          "durationTicks": 128,
          "midi": 69,
          "name": "A4",
          "ticks": 327808,
          "time": 480.1875,
          "velocity": 0.889763779527559
        },
        {
          "duration": 0.1875,
          "durationTicks": 128,
          "midi": 69,
          "name": "A4",
          "ticks": 327936,
          "time": 480.375,
          "velocity": 0.7716535433070866
        },
        {
          "duration": 0.1875,
          "durationTicks": 128,
          "midi": 69,
          "name": "A4",
          "ticks": 328064,
          "time": 480.5625,
          "velocity": 0.7401574803149606
        },
        {
          "duration": 0.1875,
          "durationTicks": 128,
          "midi": 72,
          "name": "C5",
          "ticks": 328192,
          "time": 480.75,
          "velocity": 0.8267716535433071
        },
        {
          "duration": 0.1875,
          "durationTicks": 128,
          "midi": 72,
          "name": "C5",
          "ticks": 328320,
          "time": 480.9375,
          "velocity": 0.7795275590551181
        },
        {
          "duration": 0.1875,
          "durationTicks": 128,
          "midi": 72,
          "name": "C5",
          "ticks": 328448,
          "time": 481.125,
          "velocity": 0.7637795275590551
        },
        {
          "duration": 0.1875,
          "durationTicks": 128,
          "midi": 72,
          "name": "C5",
          "ticks": 328576,
          "time": 481.3125,
          "velocity": 0.7716535433070866
        },
        {
          "duration": 0.1875,
          "durationTicks": 128,
          "midi": 70,
          "name": "A#4",
          "ticks": 328704,
          "time": 481.5,
          "velocity": 0.7322834645669292
        },
        {
          "duration": 0.1875,
          "durationTicks": 128,
          "midi": 70,
          "name": "A#4",
          "ticks": 328832,
          "time": 481.6875,
          "velocity": 0.7637795275590551
        },
        {
          "duration": 0.1875,
          "durationTicks": 128,
          "midi": 70,
          "name": "A#4",
          "ticks": 328960,
          "time": 481.875,
          "velocity": 0.7401574803149606
        },
        {
          "duration": 0.1875,
          "durationTicks": 128,
          "midi": 70,
          "name": "A#4",
          "ticks": 329088,
          "time": 482.0625,
          "velocity": 0.7874015748031497
        },
        {
          "duration": 0.1875,
          "durationTicks": 128,
          "midi": 70,
          "name": "A#4",
          "ticks": 329216,
          "time": 482.25,
          "velocity": 0.7716535433070866
        },
        {
          "duration": 0.1875,
          "durationTicks": 128,
          "midi": 70,
          "name": "A#4",
          "ticks": 329344,
          "time": 482.4375,
          "velocity": 0.7874015748031497
        },
        {
          "duration": 0.1875,
          "durationTicks": 128,
          "midi": 70,
          "name": "A#4",
          "ticks": 329472,
          "time": 482.625,
          "velocity": 0.7559055118110236
        },
        {
          "duration": 0.1875,
          "durationTicks": 128,
          "midi": 70,
          "name": "A#4",
          "ticks": 329600,
          "time": 482.8125,
          "velocity": 0.7637795275590551
        },
        {
          "duration": 0.1875,
          "durationTicks": 128,
          "midi": 69,
          "name": "A4",
          "ticks": 329728,
          "time": 483,
          "velocity": 0.7244094488188977
        },
        {
          "duration": 0.1875,
          "durationTicks": 128,
          "midi": 69,
          "name": "A4",
          "ticks": 329856,
          "time": 483.1875,
          "velocity": 0.7874015748031497
        },
        {
          "duration": 0.1875,
          "durationTicks": 128,
          "midi": 69,
          "name": "A4",
          "ticks": 329984,
          "time": 483.375,
          "velocity": 0.7874015748031497
        },
        {
          "duration": 0.1875,
          "durationTicks": 128,
          "midi": 69,
          "name": "A4",
          "ticks": 330112,
          "time": 483.5625,
          "velocity": 0.7559055118110236
        },
        {
          "duration": 0.1875,
          "durationTicks": 128,
          "midi": 72,
          "name": "C5",
          "ticks": 330240,
          "time": 483.75,
          "velocity": 0.8346456692913385
        },
        {
          "duration": 0.1875,
          "durationTicks": 128,
          "midi": 72,
          "name": "C5",
          "ticks": 330368,
          "time": 483.9375,
          "velocity": 0.7716535433070866
        },
        {
          "duration": 0.1875,
          "durationTicks": 128,
          "midi": 72,
          "name": "C5",
          "ticks": 330496,
          "time": 484.125,
          "velocity": 0.7952755905511811
        },
        {
          "duration": 0.1875,
          "durationTicks": 128,
          "midi": 72,
          "name": "C5",
          "ticks": 330624,
          "time": 484.3125,
          "velocity": 0.7795275590551181
        },
        {
          "duration": 0.1875,
          "durationTicks": 128,
          "midi": 70,
          "name": "A#4",
          "ticks": 330752,
          "time": 484.5,
          "velocity": 0.7165354330708661
        },
        {
          "duration": 0.1875,
          "durationTicks": 128,
          "midi": 70,
          "name": "A#4",
          "ticks": 330880,
          "time": 484.6875,
          "velocity": 0.7559055118110236
        },
        {
          "duration": 0.1875,
          "durationTicks": 128,
          "midi": 70,
          "name": "A#4",
          "ticks": 331008,
          "time": 484.875,
          "velocity": 0.7637795275590551
        },
        {
          "duration": 0.1875,
          "durationTicks": 128,
          "midi": 70,
          "name": "A#4",
          "ticks": 331136,
          "time": 485.0625,
          "velocity": 0.7874015748031497
        },
        {
          "duration": 0.1875,
          "durationTicks": 128,
          "midi": 67,
          "name": "G4",
          "ticks": 331264,
          "time": 485.25,
          "velocity": 0.7401574803149606
        },
        {
          "duration": 0.1875,
          "durationTicks": 128,
          "midi": 67,
          "name": "G4",
          "ticks": 331392,
          "time": 485.4375,
          "velocity": 0.7480314960629921
        },
        {
          "duration": 0.1875,
          "durationTicks": 128,
          "midi": 67,
          "name": "G4",
          "ticks": 331520,
          "time": 485.625,
          "velocity": 0.7401574803149606
        },
        {
          "duration": 0.1875,
          "durationTicks": 128,
          "midi": 67,
          "name": "G4",
          "ticks": 331648,
          "time": 485.8125,
          "velocity": 0.7244094488188977
        },
        {
          "duration": 0.375,
          "durationTicks": 256,
          "midi": 66,
          "name": "F#4",
          "ticks": 331776,
          "time": 486,
          "velocity": 0.7401574803149606
        },
        {
          "duration": 0.375,
          "durationTicks": 256,
          "midi": 62,
          "name": "D4",
          "ticks": 332288,
          "time": 486.75,
          "velocity": 0.7165354330708661
        },
        {
          "duration": 0.375,
          "durationTicks": 256,
          "midi": 69,
          "name": "A4",
          "ticks": 332288,
          "time": 486.75,
          "velocity": 0.7165354330708661
        },
        {
          "duration": 0.375,
          "durationTicks": 256,
          "midi": 78,
          "name": "F#5",
          "ticks": 332288,
          "time": 486.75,
          "velocity": 0.7165354330708661
        },
        {
          "duration": 1.14697265625,
          "durationTicks": 783,
          "midi": 62,
          "name": "D4",
          "ticks": 333824,
          "time": 489,
          "velocity": 0.4409448818897638
        },
        {
          "duration": 0.38232421875,
          "durationTicks": 261,
          "midi": 61,
          "name": "C#4",
          "ticks": 334592,
          "time": 490.125,
          "velocity": 0.4251968503937008
        },
        {
          "duration": 0.35595703125,
          "durationTicks": 243,
          "midi": 60,
          "name": "C4",
          "ticks": 334848,
          "time": 490.5,
          "velocity": 0.4566929133858268
        },
        {
          "duration": 0.1875,
          "durationTicks": 128,
          "midi": 62,
          "name": "D4",
          "ticks": 336128,
          "time": 492.375,
          "velocity": 0.4251968503937008
        },
        {
          "duration": 0.375,
          "durationTicks": 256,
          "midi": 67,
          "name": "G4",
          "ticks": 336384,
          "time": 492.75,
          "velocity": 0.5669291338582677
        },
        {
          "duration": 0.35595703125,
          "durationTicks": 243,
          "midi": 67,
          "name": "G4",
          "ticks": 336640,
          "time": 493.125,
          "velocity": 0.5118110236220472
        },
        {
          "duration": 0.57275390625,
          "durationTicks": 391,
          "midi": 67,
          "name": "G4",
          "ticks": 336896,
          "time": 493.5,
          "velocity": 0.5039370078740157
        },
        {
          "duration": 0.17724609375,
          "durationTicks": 121,
          "midi": 69,
          "name": "A4",
          "ticks": 337280,
          "time": 494.0625,
          "velocity": 0.5039370078740157
        },
        {
          "duration": 0.375,
          "durationTicks": 256,
          "midi": 66,
          "name": "F#4",
          "ticks": 337408,
          "time": 494.25,
          "velocity": 0.4251968503937008
        },
        {
          "duration": 1.14697265625,
          "durationTicks": 783,
          "midi": 66,
          "name": "F#4",
          "ticks": 337920,
          "time": 495,
          "velocity": 0.44881889763779526
        },
        {
          "duration": 0.7119140625,
          "durationTicks": 486,
          "midi": 67,
          "name": "G4",
          "ticks": 338688,
          "time": 496.125,
          "velocity": 0.4566929133858268
        },
        {
          "duration": 0.38232421875,
          "durationTicks": 261,
          "midi": 66,
          "name": "F#4",
          "ticks": 339200,
          "time": 496.875,
          "velocity": 0.47244094488188976
        },
        {
          "duration": 0.7119140625,
          "durationTicks": 486,
          "midi": 67,
          "name": "G4",
          "ticks": 339456,
          "time": 497.25,
          "velocity": 0.5118110236220472
        },
        {
          "duration": 0.375,
          "durationTicks": 256,
          "midi": 63,
          "name": "D#4",
          "ticks": 339968,
          "time": 498,
          "velocity": 0.4645669291338583
        },
        {
          "duration": 0.375,
          "durationTicks": 256,
          "midi": 60,
          "name": "C4",
          "ticks": 340480,
          "time": 498.75,
          "velocity": 0.44881889763779526
        },
        {
          "duration": 0.375,
          "durationTicks": 256,
          "midi": 58,
          "name": "A#3",
          "ticks": 340992,
          "time": 499.5,
          "velocity": 0.4566929133858268
        },
        {
          "duration": 1.14697265625,
          "durationTicks": 783,
          "midi": 60,
          "name": "C4",
          "ticks": 343040,
          "time": 502.5,
          "velocity": 0.4330708661417323
        },
        {
          "duration": 0.09521484375,
          "durationTicks": 65,
          "midi": 62,
          "name": "D4",
          "ticks": 343808,
          "time": 503.625,
          "velocity": 0.4251968503937008
        },
        {
          "duration": 0.09521484375,
          "durationTicks": 65,
          "midi": 60,
          "name": "C4",
          "ticks": 343872,
          "time": 503.71875,
          "velocity": 0.4409448818897638
        },
        {
          "duration": 0.09521484375,
          "durationTicks": 65,
          "midi": 58,
          "name": "A#3",
          "ticks": 343936,
          "time": 503.8125,
          "velocity": 0.3937007874015748
        },
        {
          "duration": 0.09521484375,
          "durationTicks": 65,
          "midi": 57,
          "name": "A3",
          "ticks": 344000,
          "time": 503.90625,
          "velocity": 0.4645669291338583
        },
        {
          "duration": 0.35595703125,
          "durationTicks": 243,
          "midi": 55,
          "name": "G3",
          "ticks": 344064,
          "time": 504,
          "velocity": 0.4330708661417323
        },
        {
          "duration": 1.14697265625,
          "durationTicks": 783,
          "midi": 66,
          "name": "F#4",
          "ticks": 346112,
          "time": 507,
          "velocity": 0.4330708661417323
        },
        {
          "duration": 0.7646484375,
          "durationTicks": 522,
          "midi": 67,
          "name": "G4",
          "ticks": 346880,
          "time": 508.125,
          "velocity": 0.4330708661417323
        },
        {
          "duration": 0.38232421875,
          "durationTicks": 261,
          "midi": 66,
          "name": "F#4",
          "ticks": 347392,
          "time": 508.875,
          "velocity": 0.4330708661417323
        },
        {
          "duration": 0.35595703125,
          "durationTicks": 243,
          "midi": 67,
          "name": "G4",
          "ticks": 347648,
          "time": 509.25,
          "velocity": 0.4645669291338583
        },
        {
          "duration": 0.1904296875,
          "durationTicks": 130,
          "midi": 65,
          "name": "F4",
          "ticks": 348160,
          "time": 510,
          "velocity": 0.4251968503937008
        },
        {
          "duration": 0.1904296875,
          "durationTicks": 130,
          "midi": 62,
          "name": "D4",
          "ticks": 348288,
          "time": 510.1875,
          "velocity": 0.3779527559055118
        },
        {
          "duration": 0.1904296875,
          "durationTicks": 130,
          "midi": 65,
          "name": "F4",
          "ticks": 348416,
          "time": 510.375,
          "velocity": 0.5196850393700787
        },
        {
          "duration": 0.1904296875,
          "durationTicks": 130,
          "midi": 62,
          "name": "D4",
          "ticks": 348544,
          "time": 510.5625,
          "velocity": 0.4409448818897638
        },
        {
          "duration": 0.1904296875,
          "durationTicks": 130,
          "midi": 65,
          "name": "F4",
          "ticks": 348672,
          "time": 510.75,
          "velocity": 0.5118110236220472
        },
        {
          "duration": 0.1904296875,
          "durationTicks": 130,
          "midi": 62,
          "name": "D4",
          "ticks": 348800,
          "time": 510.9375,
          "velocity": 0.47244094488188976
        },
        {
          "duration": 0.1904296875,
          "durationTicks": 130,
          "midi": 63,
          "name": "D#4",
          "ticks": 348928,
          "time": 511.125,
          "velocity": 0.49606299212598426
        },
        {
          "duration": 0.17724609375,
          "durationTicks": 121,
          "midi": 67,
          "name": "G4",
          "ticks": 349056,
          "time": 511.3125,
          "velocity": 0.5433070866141733
        },
        {
          "duration": 0.1904296875,
          "durationTicks": 130,
          "midi": 65,
          "name": "F4",
          "ticks": 349184,
          "time": 511.5,
          "velocity": 0.4645669291338583
        },
        {
          "duration": 0.1904296875,
          "durationTicks": 130,
          "midi": 62,
          "name": "D4",
          "ticks": 349312,
          "time": 511.6875,
          "velocity": 0.3937007874015748
        },
        {
          "duration": 0.1904296875,
          "durationTicks": 130,
          "midi": 65,
          "name": "F4",
          "ticks": 349440,
          "time": 511.875,
          "velocity": 0.48031496062992124
        },
        {
          "duration": 0.1904296875,
          "durationTicks": 130,
          "midi": 62,
          "name": "D4",
          "ticks": 349568,
          "time": 512.0625,
          "velocity": 0.44881889763779526
        },
        {
          "duration": 0.1904296875,
          "durationTicks": 130,
          "midi": 65,
          "name": "F4",
          "ticks": 349696,
          "time": 512.25,
          "velocity": 0.5118110236220472
        },
        {
          "duration": 0.1904296875,
          "durationTicks": 130,
          "midi": 62,
          "name": "D4",
          "ticks": 349824,
          "time": 512.4375,
          "velocity": 0.47244094488188976
        },
        {
          "duration": 0.1904296875,
          "durationTicks": 130,
          "midi": 63,
          "name": "D#4",
          "ticks": 349952,
          "time": 512.625,
          "velocity": 0.4645669291338583
        },
        {
          "duration": 0.17724609375,
          "durationTicks": 121,
          "midi": 67,
          "name": "G4",
          "ticks": 350080,
          "time": 512.8125,
          "velocity": 0.4881889763779528
        },
        {
          "duration": 0.1904296875,
          "durationTicks": 130,
          "midi": 65,
          "name": "F4",
          "ticks": 350208,
          "time": 513,
          "velocity": 0.4409448818897638
        },
        {
          "duration": 0.1904296875,
          "durationTicks": 130,
          "midi": 62,
          "name": "D4",
          "ticks": 350336,
          "time": 513.1875,
          "velocity": 0.4015748031496063
        },
        {
          "duration": 0.1904296875,
          "durationTicks": 130,
          "midi": 65,
          "name": "F4",
          "ticks": 350464,
          "time": 513.375,
          "velocity": 0.5196850393700787
        },
        {
          "duration": 0.1904296875,
          "durationTicks": 130,
          "midi": 62,
          "name": "D4",
          "ticks": 350592,
          "time": 513.5625,
          "velocity": 0.4645669291338583
        },
        {
          "duration": 0.1904296875,
          "durationTicks": 130,
          "midi": 65,
          "name": "F4",
          "ticks": 350720,
          "time": 513.75,
          "velocity": 0.5433070866141733
        },
        {
          "duration": 0.1904296875,
          "durationTicks": 130,
          "midi": 62,
          "name": "D4",
          "ticks": 350848,
          "time": 513.9375,
          "velocity": 0.5039370078740157
        },
        {
          "duration": 0.1904296875,
          "durationTicks": 130,
          "midi": 63,
          "name": "D#4",
          "ticks": 350976,
          "time": 514.125,
          "velocity": 0.48031496062992124
        },
        {
          "duration": 0.17724609375,
          "durationTicks": 121,
          "midi": 67,
          "name": "G4",
          "ticks": 351104,
          "time": 514.3125,
          "velocity": 0.5196850393700787
        },
        {
          "duration": 0.1904296875,
          "durationTicks": 130,
          "midi": 65,
          "name": "F4",
          "ticks": 351232,
          "time": 514.5,
          "velocity": 0.4566929133858268
        },
        {
          "duration": 0.1904296875,
          "durationTicks": 130,
          "midi": 62,
          "name": "D4",
          "ticks": 351360,
          "time": 514.6875,
          "velocity": 0.3858267716535433
        },
        {
          "duration": 0.1904296875,
          "durationTicks": 130,
          "midi": 65,
          "name": "F4",
          "ticks": 351488,
          "time": 514.875,
          "velocity": 0.5196850393700787
        },
        {
          "duration": 0.1904296875,
          "durationTicks": 130,
          "midi": 62,
          "name": "D4",
          "ticks": 351616,
          "time": 515.0625,
          "velocity": 0.4330708661417323
        },
        {
          "duration": 0.1904296875,
          "durationTicks": 130,
          "midi": 65,
          "name": "F4",
          "ticks": 351744,
          "time": 515.25,
          "velocity": 0.5354330708661418
        },
        {
          "duration": 0.1904296875,
          "durationTicks": 130,
          "midi": 62,
          "name": "D4",
          "ticks": 351872,
          "time": 515.4375,
          "velocity": 0.48031496062992124
        },
        {
          "duration": 0.1904296875,
          "durationTicks": 130,
          "midi": 63,
          "name": "D#4",
          "ticks": 352000,
          "time": 515.625,
          "velocity": 0.5669291338582677
        },
        {
          "duration": 0.17724609375,
          "durationTicks": 121,
          "midi": 67,
          "name": "G4",
          "ticks": 352128,
          "time": 515.8125,
          "velocity": 0.6377952755905512
        },
        {
          "duration": 0.1875,
          "durationTicks": 128,
          "midi": 65,
          "name": "F4",
          "ticks": 352256,
          "time": 516,
          "velocity": 0.47244094488188976
        },
        {
          "duration": 0.1875,
          "durationTicks": 128,
          "midi": 77,
          "name": "F5",
          "ticks": 352384,
          "time": 516.1875,
          "velocity": 0.5905511811023622
        },
        {
          "duration": 0.1875,
          "durationTicks": 128,
          "midi": 77,
          "name": "F5",
          "ticks": 352512,
          "time": 516.375,
          "velocity": 0.49606299212598426
        },
        {
          "duration": 0.1875,
          "durationTicks": 128,
          "midi": 77,
          "name": "F5",
          "ticks": 352640,
          "time": 516.5625,
          "velocity": 0.5196850393700787
        },
        {
          "duration": 0.1875,
          "durationTicks": 128,
          "midi": 77,
          "name": "F5",
          "ticks": 352768,
          "time": 516.75,
          "velocity": 0.5039370078740157
        },
        {
          "duration": 0.1875,
          "durationTicks": 128,
          "midi": 77,
          "name": "F5",
          "ticks": 352896,
          "time": 516.9375,
          "velocity": 0.5669291338582677
        },
        {
          "duration": 0.1875,
          "durationTicks": 128,
          "midi": 77,
          "name": "F5",
          "ticks": 353024,
          "time": 517.125,
          "velocity": 0.5275590551181102
        },
        {
          "duration": 0.1875,
          "durationTicks": 128,
          "midi": 77,
          "name": "F5",
          "ticks": 353152,
          "time": 517.3125,
          "velocity": 0.5826771653543307
        },
        {
          "duration": 0.1875,
          "durationTicks": 128,
          "midi": 77,
          "name": "F5",
          "ticks": 353280,
          "time": 517.5,
          "velocity": 0.5590551181102362
        },
        {
          "duration": 0.1875,
          "durationTicks": 128,
          "midi": 77,
          "name": "F5",
          "ticks": 353408,
          "time": 517.6875,
          "velocity": 0.5433070866141733
        },
        {
          "duration": 0.1875,
          "durationTicks": 128,
          "midi": 77,
          "name": "F5",
          "ticks": 353536,
          "time": 517.875,
          "velocity": 0.5354330708661418
        },
        {
          "duration": 0.1875,
          "durationTicks": 128,
          "midi": 77,
          "name": "F5",
          "ticks": 353664,
          "time": 518.0625,
          "velocity": 0.5433070866141733
        },
        {
          "duration": 0.1875,
          "durationTicks": 128,
          "midi": 77,
          "name": "F5",
          "ticks": 353792,
          "time": 518.25,
          "velocity": 0.5669291338582677
        },
        {
          "duration": 0.1875,
          "durationTicks": 128,
          "midi": 77,
          "name": "F5",
          "ticks": 353920,
          "time": 518.4375,
          "velocity": 0.5275590551181102
        },
        {
          "duration": 0.1875,
          "durationTicks": 128,
          "midi": 77,
          "name": "F5",
          "ticks": 354048,
          "time": 518.625,
          "velocity": 0.5748031496062992
        },
        {
          "duration": 0.1875,
          "durationTicks": 128,
          "midi": 77,
          "name": "F5",
          "ticks": 354176,
          "time": 518.8125,
          "velocity": 0.5905511811023622
        },
        {
          "duration": 0.1875,
          "durationTicks": 128,
          "midi": 78,
          "name": "F#5",
          "ticks": 354304,
          "time": 519,
          "velocity": 0.8110236220472441
        },
        {
          "duration": 0.1875,
          "durationTicks": 128,
          "midi": 78,
          "name": "F#5",
          "ticks": 354432,
          "time": 519.1875,
          "velocity": 0.8031496062992126
        },
        {
          "duration": 0.1875,
          "durationTicks": 128,
          "midi": 78,
          "name": "F#5",
          "ticks": 354560,
          "time": 519.375,
          "velocity": 0.7401574803149606
        },
        {
          "duration": 0.1875,
          "durationTicks": 128,
          "midi": 78,
          "name": "F#5",
          "ticks": 354688,
          "time": 519.5625,
          "velocity": 0.8031496062992126
        },
        {
          "duration": 0.1875,
          "durationTicks": 128,
          "midi": 66,
          "name": "F#4",
          "ticks": 354816,
          "time": 519.75,
          "velocity": 0.5433070866141733
        },
        {
          "duration": 0.1875,
          "durationTicks": 128,
          "midi": 66,
          "name": "F#4",
          "ticks": 354944,
          "time": 519.9375,
          "velocity": 0.7480314960629921
        },
        {
          "duration": 0.1875,
          "durationTicks": 128,
          "midi": 66,
          "name": "F#4",
          "ticks": 355072,
          "time": 520.125,
          "velocity": 0.7637795275590551
        },
        {
          "duration": 0.1875,
          "durationTicks": 128,
          "midi": 66,
          "name": "F#4",
          "ticks": 355200,
          "time": 520.3125,
          "velocity": 0.7716535433070866
        },
        {
          "duration": 0.1875,
          "durationTicks": 128,
          "midi": 65,
          "name": "F4",
          "ticks": 355328,
          "time": 520.5,
          "velocity": 0.7480314960629921
        },
        {
          "duration": 0.1875,
          "durationTicks": 128,
          "midi": 65,
          "name": "F4",
          "ticks": 355456,
          "time": 520.6875,
          "velocity": 0.7637795275590551
        },
        {
          "duration": 0.1875,
          "durationTicks": 128,
          "midi": 65,
          "name": "F4",
          "ticks": 355584,
          "time": 520.875,
          "velocity": 0.7795275590551181
        },
        {
          "duration": 0.1875,
          "durationTicks": 128,
          "midi": 65,
          "name": "F4",
          "ticks": 355712,
          "time": 521.0625,
          "velocity": 0.7874015748031497
        },
        {
          "duration": 0.1875,
          "durationTicks": 128,
          "midi": 77,
          "name": "F5",
          "ticks": 355840,
          "time": 521.25,
          "velocity": 0.9606299212598425
        },
        {
          "duration": 0.1875,
          "durationTicks": 128,
          "midi": 77,
          "name": "F5",
          "ticks": 355968,
          "time": 521.4375,
          "velocity": 0.7952755905511811
        },
        {
          "duration": 0.1875,
          "durationTicks": 128,
          "midi": 77,
          "name": "F5",
          "ticks": 356096,
          "time": 521.625,
          "velocity": 0.7637795275590551
        },
        {
          "duration": 0.1875,
          "durationTicks": 128,
          "midi": 77,
          "name": "F5",
          "ticks": 356224,
          "time": 521.8125,
          "velocity": 0.7716535433070866
        },
        {
          "duration": 0.1875,
          "durationTicks": 128,
          "midi": 80,
          "name": "G#5",
          "ticks": 356352,
          "time": 522,
          "velocity": 0.8188976377952756
        },
        {
          "duration": 0.1875,
          "durationTicks": 128,
          "midi": 80,
          "name": "G#5",
          "ticks": 356480,
          "time": 522.1875,
          "velocity": 0.8110236220472441
        },
        {
          "duration": 0.1875,
          "durationTicks": 128,
          "midi": 80,
          "name": "G#5",
          "ticks": 356608,
          "time": 522.375,
          "velocity": 0.7637795275590551
        },
        {
          "duration": 0.1875,
          "durationTicks": 128,
          "midi": 80,
          "name": "G#5",
          "ticks": 356736,
          "time": 522.5625,
          "velocity": 0.8110236220472441
        },
        {
          "duration": 0.1875,
          "durationTicks": 128,
          "midi": 68,
          "name": "G#4",
          "ticks": 356864,
          "time": 522.75,
          "velocity": 0.5826771653543307
        },
        {
          "duration": 0.1875,
          "durationTicks": 128,
          "midi": 68,
          "name": "G#4",
          "ticks": 356992,
          "time": 522.9375,
          "velocity": 0.7401574803149606
        },
        {
          "duration": 0.1875,
          "durationTicks": 128,
          "midi": 68,
          "name": "G#4",
          "ticks": 357120,
          "time": 523.125,
          "velocity": 0.7637795275590551
        },
        {
          "duration": 0.1875,
          "durationTicks": 128,
          "midi": 68,
          "name": "G#4",
          "ticks": 357248,
          "time": 523.3125,
          "velocity": 0.7795275590551181
        },
        {
          "duration": 0.1875,
          "durationTicks": 128,
          "midi": 67,
          "name": "G4",
          "ticks": 357376,
          "time": 523.5,
          "velocity": 0.7322834645669292
        },
        {
          "duration": 0.1875,
          "durationTicks": 128,
          "midi": 67,
          "name": "G4",
          "ticks": 357504,
          "time": 523.6875,
          "velocity": 0.7480314960629921
        },
        {
          "duration": 0.1875,
          "durationTicks": 128,
          "midi": 67,
          "name": "G4",
          "ticks": 357632,
          "time": 523.875,
          "velocity": 0.7795275590551181
        },
        {
          "duration": 0.1875,
          "durationTicks": 128,
          "midi": 67,
          "name": "G4",
          "ticks": 357760,
          "time": 524.0625,
          "velocity": 0.7874015748031497
        },
        {
          "duration": 0.1875,
          "durationTicks": 128,
          "midi": 79,
          "name": "G5",
          "ticks": 357888,
          "time": 524.25,
          "velocity": 0.984251968503937
        },
        {
          "duration": 0.1875,
          "durationTicks": 128,
          "midi": 79,
          "name": "G5",
          "ticks": 358016,
          "time": 524.4375,
          "velocity": 0.7874015748031497
        },
        {
          "duration": 0.1875,
          "durationTicks": 128,
          "midi": 79,
          "name": "G5",
          "ticks": 358144,
          "time": 524.625,
          "velocity": 0.7401574803149606
        },
        {
          "duration": 0.1875,
          "durationTicks": 128,
          "midi": 79,
          "name": "G5",
          "ticks": 358272,
          "time": 524.8125,
          "velocity": 0.7795275590551181
        },
        {
          "duration": 0.1875,
          "durationTicks": 128,
          "midi": 82,
          "name": "A#5",
          "ticks": 358400,
          "time": 525,
          "velocity": 0.8267716535433071
        },
        {
          "duration": 0.1875,
          "durationTicks": 128,
          "midi": 82,
          "name": "A#5",
          "ticks": 358528,
          "time": 525.1875,
          "velocity": 0.7795275590551181
        },
        {
          "duration": 0.1875,
          "durationTicks": 128,
          "midi": 82,
          "name": "A#5",
          "ticks": 358656,
          "time": 525.375,
          "velocity": 0.7952755905511811
        },
        {
          "duration": 0.1875,
          "durationTicks": 128,
          "midi": 82,
          "name": "A#5",
          "ticks": 358784,
          "time": 525.5625,
          "velocity": 0.7716535433070866
        },
        {
          "duration": 0.1875,
          "durationTicks": 128,
          "midi": 70,
          "name": "A#4",
          "ticks": 358912,
          "time": 525.75,
          "velocity": 0.5511811023622047
        },
        {
          "duration": 0.1875,
          "durationTicks": 128,
          "midi": 70,
          "name": "A#4",
          "ticks": 359040,
          "time": 525.9375,
          "velocity": 0.7165354330708661
        },
        {
          "duration": 0.1875,
          "durationTicks": 128,
          "midi": 70,
          "name": "A#4",
          "ticks": 359168,
          "time": 526.125,
          "velocity": 0.7637795275590551
        },
        {
          "duration": 0.1875,
          "durationTicks": 128,
          "midi": 70,
          "name": "A#4",
          "ticks": 359296,
          "time": 526.3125,
          "velocity": 0.7716535433070866
        },
        {
          "duration": 0.375,
          "durationTicks": 256,
          "midi": 62,
          "name": "D4",
          "ticks": 359424,
          "time": 526.5,
          "velocity": 0.7559055118110236
        },
        {
          "duration": 0.375,
          "durationTicks": 256,
          "midi": 70,
          "name": "A#4",
          "ticks": 359424,
          "time": 526.5,
          "velocity": 0.7559055118110236
        },
        {
          "duration": 0.75,
          "durationTicks": 512,
          "midi": 62,
          "name": "D4",
          "ticks": 359680,
          "time": 526.875,
          "velocity": 0.7559055118110236
        },
        {
          "duration": 0.75,
          "durationTicks": 512,
          "midi": 70,
          "name": "A#4",
          "ticks": 359680,
          "time": 526.875,
          "velocity": 0.7559055118110236
        },
        {
          "duration": 0.75,
          "durationTicks": 512,
          "midi": 62,
          "name": "D4",
          "ticks": 360192,
          "time": 527.625,
          "velocity": 0.7716535433070866
        },
        {
          "duration": 0.375,
          "durationTicks": 256,
          "midi": 70,
          "name": "A#4",
          "ticks": 360192,
          "time": 527.625,
          "velocity": 0.7716535433070866
        },
        {
          "duration": 0.375,
          "durationTicks": 256,
          "midi": 72,
          "name": "C5",
          "ticks": 360448,
          "time": 528,
          "velocity": 0.8582677165354331
        },
        {
          "duration": 0.75,
          "durationTicks": 512,
          "midi": 62,
          "name": "D4",
          "ticks": 360704,
          "time": 528.375,
          "velocity": 0.7559055118110236
        },
        {
          "duration": 0.75,
          "durationTicks": 512,
          "midi": 72,
          "name": "C5",
          "ticks": 360704,
          "time": 528.375,
          "velocity": 0.7559055118110236
        },
        {
          "duration": 0.375,
          "durationTicks": 256,
          "midi": 62,
          "name": "D4",
          "ticks": 361216,
          "time": 529.125,
          "velocity": 0.7401574803149606
        },
        {
          "duration": 0.375,
          "durationTicks": 256,
          "midi": 72,
          "name": "C5",
          "ticks": 361216,
          "time": 529.125,
          "velocity": 0.7401574803149606
        },
        {
          "duration": 0.375,
          "durationTicks": 256,
          "midi": 62,
          "name": "D4",
          "ticks": 361472,
          "time": 529.5,
          "velocity": 0.7165354330708661
        },
        {
          "duration": 0.375,
          "durationTicks": 256,
          "midi": 70,
          "name": "A#4",
          "ticks": 361472,
          "time": 529.5,
          "velocity": 0.7165354330708661
        },
        {
          "duration": 0.1875,
          "durationTicks": 128,
          "midi": 58,
          "name": "A#3",
          "ticks": 361728,
          "time": 529.875,
          "velocity": 0.6692913385826772
        },
        {
          "duration": 0.1875,
          "durationTicks": 128,
          "midi": 58,
          "name": "A#3",
          "ticks": 361856,
          "time": 530.0625,
          "velocity": 0.7874015748031497
        },
        {
          "duration": 0.1875,
          "durationTicks": 128,
          "midi": 58,
          "name": "A#3",
          "ticks": 361984,
          "time": 530.25,
          "velocity": 0.7874015748031497
        },
        {
          "duration": 0.1875,
          "durationTicks": 128,
          "midi": 58,
          "name": "A#3",
          "ticks": 362112,
          "time": 530.4375,
          "velocity": 0.7637795275590551
        },
        {
          "duration": 0.1875,
          "durationTicks": 128,
          "midi": 60,
          "name": "C4",
          "ticks": 362240,
          "time": 530.625,
          "velocity": 0.8346456692913385
        },
        {
          "duration": 0.1875,
          "durationTicks": 128,
          "midi": 60,
          "name": "C4",
          "ticks": 362368,
          "time": 530.8125,
          "velocity": 0.7795275590551181
        },
        {
          "duration": 0.1875,
          "durationTicks": 128,
          "midi": 61,
          "name": "C#4",
          "ticks": 362496,
          "time": 531,
          "velocity": 0.7795275590551181
        },
        {
          "duration": 0.1875,
          "durationTicks": 128,
          "midi": 61,
          "name": "C#4",
          "ticks": 362624,
          "time": 531.1875,
          "velocity": 0.7244094488188977
        },
        {
          "duration": 0.1875,
          "durationTicks": 128,
          "midi": 62,
          "name": "D4",
          "ticks": 362752,
          "time": 531.375,
          "velocity": 0.8031496062992126
        },
        {
          "duration": 0.1875,
          "durationTicks": 128,
          "midi": 62,
          "name": "D4",
          "ticks": 362880,
          "time": 531.5625,
          "velocity": 0.7480314960629921
        },
        {
          "duration": 0.1875,
          "durationTicks": 128,
          "midi": 63,
          "name": "D#4",
          "ticks": 363008,
          "time": 531.75,
          "velocity": 0.7874015748031497
        },
        {
          "duration": 0.1875,
          "durationTicks": 128,
          "midi": 63,
          "name": "D#4",
          "ticks": 363136,
          "time": 531.9375,
          "velocity": 0.7559055118110236
        },
        {
          "duration": 0.1875,
          "durationTicks": 128,
          "midi": 64,
          "name": "E4",
          "ticks": 363264,
          "time": 532.125,
          "velocity": 0.7952755905511811
        },
        {
          "duration": 0.1875,
          "durationTicks": 128,
          "midi": 64,
          "name": "E4",
          "ticks": 363392,
          "time": 532.3125,
          "velocity": 0.7559055118110236
        },
        {
          "duration": 0.375,
          "durationTicks": 256,
          "midi": 65,
          "name": "F4",
          "ticks": 363520,
          "time": 532.5,
          "velocity": 0.8110236220472441
        },
        {
          "duration": 0.09375,
          "durationTicks": 64,
          "midi": 65,
          "name": "F4",
          "ticks": 363968,
          "time": 533.15625,
          "velocity": 0.7244094488188977
        },
        {
          "duration": 0.375,
          "durationTicks": 256,
          "midi": 63,
          "name": "D#4",
          "ticks": 364032,
          "time": 533.25,
          "velocity": 0.6614173228346457
        },
        {
          "duration": 0.09375,
          "durationTicks": 64,
          "midi": 63,
          "name": "D#4",
          "ticks": 364480,
          "time": 533.90625,
          "velocity": 0.6929133858267716
        },
        {
          "duration": 0.375,
          "durationTicks": 256,
          "midi": 72,
          "name": "C5",
          "ticks": 364544,
          "time": 534,
          "velocity": 0.9448818897637795
        },
        {
          "duration": 0.09375,
          "durationTicks": 64,
          "midi": 72,
          "name": "C5",
          "ticks": 364992,
          "time": 534.65625,
          "velocity": 0.7086614173228346
        },
        {
          "duration": 0.375,
          "durationTicks": 256,
          "midi": 70,
          "name": "A#4",
          "ticks": 365056,
          "time": 534.75,
          "velocity": 0.7559055118110236
        },
        {
          "duration": 0.09375,
          "durationTicks": 64,
          "midi": 70,
          "name": "A#4",
          "ticks": 365504,
          "time": 535.40625,
          "velocity": 0.7007874015748031
        },
        {
          "duration": 0.9375,
          "durationTicks": 640,
          "midi": 75,
          "name": "D#5",
          "ticks": 365568,
          "time": 535.5,
          "velocity": 0.8582677165354331
        },
        {
          "duration": 0.09375,
          "durationTicks": 64,
          "midi": 74,
          "name": "D5",
          "ticks": 366208,
          "time": 536.4375,
          "velocity": 0.49606299212598426
        },
        {
          "duration": 0.09375,
          "durationTicks": 64,
          "midi": 72,
          "name": "C5",
          "ticks": 366336,
          "time": 536.625,
          "velocity": 0.4566929133858268
        },
        {
          "duration": 0.09375,
          "durationTicks": 64,
          "midi": 70,
          "name": "A#4",
          "ticks": 366464,
          "time": 536.8125,
          "velocity": 0.4566929133858268
        },
        {
          "duration": 0.09375,
          "durationTicks": 64,
          "midi": 69,
          "name": "A4",
          "ticks": 366592,
          "time": 537,
          "velocity": 0.4409448818897638
        },
        {
          "duration": 0.09375,
          "durationTicks": 64,
          "midi": 67,
          "name": "G4",
          "ticks": 366720,
          "time": 537.1875,
          "velocity": 0.4409448818897638
        },
        {
          "duration": 0.09375,
          "durationTicks": 64,
          "midi": 66,
          "name": "F#4",
          "ticks": 366848,
          "time": 537.375,
          "velocity": 0.4881889763779528
        },
        {
          "duration": 0.09375,
          "durationTicks": 64,
          "midi": 63,
          "name": "D#4",
          "ticks": 366976,
          "time": 537.5625,
          "velocity": 0.41732283464566927
        },
        {
          "duration": 0.09375,
          "durationTicks": 64,
          "midi": 62,
          "name": "D4",
          "ticks": 367104,
          "time": 537.75,
          "velocity": 0.47244094488188976
        },
        {
          "duration": 0.09375,
          "durationTicks": 64,
          "midi": 60,
          "name": "C4",
          "ticks": 367232,
          "time": 537.9375,
          "velocity": 0.4330708661417323
        },
        {
          "duration": 0.09375,
          "durationTicks": 64,
          "midi": 58,
          "name": "A#3",
          "ticks": 367360,
          "time": 538.125,
          "velocity": 0.4645669291338583
        },
        {
          "duration": 0.09375,
          "durationTicks": 64,
          "midi": 57,
          "name": "A3",
          "ticks": 367488,
          "time": 538.3125,
          "velocity": 0.44881889763779526
        },
        {
          "duration": 0.1904296875,
          "durationTicks": 130,
          "midi": 58,
          "name": "A#3",
          "ticks": 367616,
          "time": 538.5,
          "velocity": 0.4645669291338583
        },
        {
          "duration": 0.1904296875,
          "durationTicks": 130,
          "midi": 62,
          "name": "D4",
          "ticks": 367744,
          "time": 538.6875,
          "velocity": 0.4881889763779528
        },
        {
          "duration": 0.1904296875,
          "durationTicks": 130,
          "midi": 58,
          "name": "A#3",
          "ticks": 367872,
          "time": 538.875,
          "velocity": 0.5118110236220472
        },
        {
          "duration": 0.1904296875,
          "durationTicks": 130,
          "midi": 62,
          "name": "D4",
          "ticks": 368000,
          "time": 539.0625,
          "velocity": 0.5905511811023622
        },
        {
          "duration": 0.1904296875,
          "durationTicks": 130,
          "midi": 58,
          "name": "A#3",
          "ticks": 368128,
          "time": 539.25,
          "velocity": 0.4645669291338583
        },
        {
          "duration": 0.1904296875,
          "durationTicks": 130,
          "midi": 62,
          "name": "D4",
          "ticks": 368256,
          "time": 539.4375,
          "velocity": 0.5039370078740157
        },
        {
          "duration": 0.1904296875,
          "durationTicks": 130,
          "midi": 58,
          "name": "A#3",
          "ticks": 368384,
          "time": 539.625,
          "velocity": 0.4566929133858268
        },
        {
          "duration": 0.17724609375,
          "durationTicks": 121,
          "midi": 62,
          "name": "D4",
          "ticks": 368512,
          "time": 539.8125,
          "velocity": 0.5118110236220472
        },
        {
          "duration": 0.1904296875,
          "durationTicks": 130,
          "midi": 60,
          "name": "C4",
          "ticks": 368640,
          "time": 540,
          "velocity": 0.4645669291338583
        },
        {
          "duration": 0.1904296875,
          "durationTicks": 130,
          "midi": 62,
          "name": "D4",
          "ticks": 368768,
          "time": 540.1875,
          "velocity": 0.4881889763779528
        },
        {
          "duration": 0.1904296875,
          "durationTicks": 130,
          "midi": 60,
          "name": "C4",
          "ticks": 368896,
          "time": 540.375,
          "velocity": 0.4645669291338583
        },
        {
          "duration": 0.1904296875,
          "durationTicks": 130,
          "midi": 62,
          "name": "D4",
          "ticks": 369024,
          "time": 540.5625,
          "velocity": 0.47244094488188976
        },
        {
          "duration": 0.1904296875,
          "durationTicks": 130,
          "midi": 57,
          "name": "A3",
          "ticks": 369152,
          "time": 540.75,
          "velocity": 0.4409448818897638
        },
        {
          "duration": 0.1904296875,
          "durationTicks": 130,
          "midi": 62,
          "name": "D4",
          "ticks": 369280,
          "time": 540.9375,
          "velocity": 0.49606299212598426
        },
        {
          "duration": 0.1904296875,
          "durationTicks": 130,
          "midi": 57,
          "name": "A3",
          "ticks": 369408,
          "time": 541.125,
          "velocity": 0.4881889763779528
        },
        {
          "duration": 0.17724609375,
          "durationTicks": 121,
          "midi": 62,
          "name": "D4",
          "ticks": 369536,
          "time": 541.3125,
          "velocity": 0.5118110236220472
        },
        {
          "duration": 0.1904296875,
          "durationTicks": 130,
          "midi": 55,
          "name": "G3",
          "ticks": 369664,
          "time": 541.5,
          "velocity": 0.44881889763779526
        },
        {
          "duration": 0.1904296875,
          "durationTicks": 130,
          "midi": 62,
          "name": "D4",
          "ticks": 369792,
          "time": 541.6875,
          "velocity": 0.5196850393700787
        },
        {
          "duration": 0.1904296875,
          "durationTicks": 130,
          "midi": 55,
          "name": "G3",
          "ticks": 369920,
          "time": 541.875,
          "velocity": 0.4881889763779528
        },
        {
          "duration": 0.1904296875,
          "durationTicks": 130,
          "midi": 62,
          "name": "D4",
          "ticks": 370048,
          "time": 542.0625,
          "velocity": 0.5669291338582677
        },
        {
          "duration": 0.1904296875,
          "durationTicks": 130,
          "midi": 55,
          "name": "G3",
          "ticks": 370176,
          "time": 542.25,
          "velocity": 0.4330708661417323
        },
        {
          "duration": 0.1904296875,
          "durationTicks": 130,
          "midi": 62,
          "name": "D4",
          "ticks": 370304,
          "time": 542.4375,
          "velocity": 0.4566929133858268
        },
        {
          "duration": 0.1904296875,
          "durationTicks": 130,
          "midi": 58,
          "name": "A#3",
          "ticks": 370432,
          "time": 542.625,
          "velocity": 0.47244094488188976
        },
        {
          "duration": 0.17724609375,
          "durationTicks": 121,
          "midi": 62,
          "name": "D4",
          "ticks": 370560,
          "time": 542.8125,
          "velocity": 0.5354330708661418
        },
        {
          "duration": 0.1904296875,
          "durationTicks": 130,
          "midi": 60,
          "name": "C4",
          "ticks": 370688,
          "time": 543,
          "velocity": 0.47244094488188976
        },
        {
          "duration": 0.1904296875,
          "durationTicks": 130,
          "midi": 62,
          "name": "D4",
          "ticks": 370816,
          "time": 543.1875,
          "velocity": 0.5275590551181102
        },
        {
          "duration": 0.1904296875,
          "durationTicks": 130,
          "midi": 60,
          "name": "C4",
          "ticks": 370944,
          "time": 543.375,
          "velocity": 0.4409448818897638
        },
        {
          "duration": 0.1904296875,
          "durationTicks": 130,
          "midi": 62,
          "name": "D4",
          "ticks": 371072,
          "time": 543.5625,
          "velocity": 0.48031496062992124
        },
        {
          "duration": 0.1904296875,
          "durationTicks": 130,
          "midi": 57,
          "name": "A3",
          "ticks": 371200,
          "time": 543.75,
          "velocity": 0.44881889763779526
        },
        {
          "duration": 0.1904296875,
          "durationTicks": 130,
          "midi": 62,
          "name": "D4",
          "ticks": 371328,
          "time": 543.9375,
          "velocity": 0.47244094488188976
        },
        {
          "duration": 0.1904296875,
          "durationTicks": 130,
          "midi": 57,
          "name": "A3",
          "ticks": 371456,
          "time": 544.125,
          "velocity": 0.4094488188976378
        },
        {
          "duration": 0.17724609375,
          "durationTicks": 121,
          "midi": 62,
          "name": "D4",
          "ticks": 371584,
          "time": 544.3125,
          "velocity": 0.4881889763779528
        },
        {
          "duration": 0.1904296875,
          "durationTicks": 130,
          "midi": 55,
          "name": "G3",
          "ticks": 371712,
          "time": 544.5,
          "velocity": 0.44881889763779526
        },
        {
          "duration": 0.1904296875,
          "durationTicks": 130,
          "midi": 62,
          "name": "D4",
          "ticks": 371840,
          "time": 544.6875,
          "velocity": 0.5196850393700787
        },
        {
          "duration": 0.1904296875,
          "durationTicks": 130,
          "midi": 55,
          "name": "G3",
          "ticks": 371968,
          "time": 544.875,
          "velocity": 0.4566929133858268
        },
        {
          "duration": 0.1904296875,
          "durationTicks": 130,
          "midi": 62,
          "name": "D4",
          "ticks": 372096,
          "time": 545.0625,
          "velocity": 0.5354330708661418
        },
        {
          "duration": 0.1904296875,
          "durationTicks": 130,
          "midi": 55,
          "name": "G3",
          "ticks": 372224,
          "time": 545.25,
          "velocity": 0.44881889763779526
        },
        {
          "duration": 0.1904296875,
          "durationTicks": 130,
          "midi": 62,
          "name": "D4",
          "ticks": 372352,
          "time": 545.4375,
          "velocity": 0.5196850393700787
        },
        {
          "duration": 0.1904296875,
          "durationTicks": 130,
          "midi": 67,
          "name": "G4",
          "ticks": 372480,
          "time": 545.625,
          "velocity": 0.5354330708661418
        },
        {
          "duration": 0.17724609375,
          "durationTicks": 121,
          "midi": 62,
          "name": "D4",
          "ticks": 372608,
          "time": 545.8125,
          "velocity": 0.49606299212598426
        },
        {
          "duration": 0.1875,
          "durationTicks": 128,
          "midi": 65,
          "name": "F4",
          "ticks": 372736,
          "time": 546,
          "velocity": 0.937007874015748
        },
        {
          "duration": 0.1875,
          "durationTicks": 128,
          "midi": 71,
          "name": "B4",
          "ticks": 372736,
          "time": 546,
          "velocity": 0.937007874015748
        },
        {
          "duration": 0.1875,
          "durationTicks": 128,
          "midi": 65,
          "name": "F4",
          "ticks": 372864,
          "time": 546.1875,
          "velocity": 0.8031496062992126
        },
        {
          "duration": 0.1875,
          "durationTicks": 128,
          "midi": 71,
          "name": "B4",
          "ticks": 372864,
          "time": 546.1875,
          "velocity": 0.8031496062992126
        },
        {
          "duration": 0.1875,
          "durationTicks": 128,
          "midi": 65,
          "name": "F4",
          "ticks": 372992,
          "time": 546.375,
          "velocity": 0.7795275590551181
        },
        {
          "duration": 0.1875,
          "durationTicks": 128,
          "midi": 71,
          "name": "B4",
          "ticks": 372992,
          "time": 546.375,
          "velocity": 0.7795275590551181
        },
        {
          "duration": 0.1875,
          "durationTicks": 128,
          "midi": 65,
          "name": "F4",
          "ticks": 373120,
          "time": 546.5625,
          "velocity": 0.8031496062992126
        },
        {
          "duration": 0.1875,
          "durationTicks": 128,
          "midi": 71,
          "name": "B4",
          "ticks": 373120,
          "time": 546.5625,
          "velocity": 0.8031496062992126
        },
        {
          "duration": 0.1875,
          "durationTicks": 128,
          "midi": 65,
          "name": "F4",
          "ticks": 373248,
          "time": 546.75,
          "velocity": 0.8267716535433071
        },
        {
          "duration": 0.1875,
          "durationTicks": 128,
          "midi": 71,
          "name": "B4",
          "ticks": 373248,
          "time": 546.75,
          "velocity": 0.8267716535433071
        },
        {
          "duration": 0.1875,
          "durationTicks": 128,
          "midi": 65,
          "name": "F4",
          "ticks": 373376,
          "time": 546.9375,
          "velocity": 0.7874015748031497
        },
        {
          "duration": 0.1875,
          "durationTicks": 128,
          "midi": 71,
          "name": "B4",
          "ticks": 373376,
          "time": 546.9375,
          "velocity": 0.7874015748031497
        },
        {
          "duration": 0.1875,
          "durationTicks": 128,
          "midi": 65,
          "name": "F4",
          "ticks": 373504,
          "time": 547.125,
          "velocity": 0.7874015748031497
        },
        {
          "duration": 0.1875,
          "durationTicks": 128,
          "midi": 71,
          "name": "B4",
          "ticks": 373504,
          "time": 547.125,
          "velocity": 0.7874015748031497
        },
        {
          "duration": 0.1875,
          "durationTicks": 128,
          "midi": 65,
          "name": "F4",
          "ticks": 373632,
          "time": 547.3125,
          "velocity": 0.7401574803149606
        },
        {
          "duration": 0.1875,
          "durationTicks": 128,
          "midi": 71,
          "name": "B4",
          "ticks": 373632,
          "time": 547.3125,
          "velocity": 0.7401574803149606
        },
        {
          "duration": 0.75,
          "durationTicks": 512,
          "midi": 63,
          "name": "D#4",
          "ticks": 373760,
          "time": 547.5,
          "velocity": 0.8031496062992126
        },
        {
          "duration": 0.75,
          "durationTicks": 512,
          "midi": 72,
          "name": "C5",
          "ticks": 373760,
          "time": 547.5,
          "velocity": 0.8031496062992126
        },
        {
          "duration": 0.57275390625,
          "durationTicks": 391,
          "midi": 79,
          "name": "G5",
          "ticks": 374272,
          "time": 548.25,
          "velocity": 0.8976377952755905
        },
        {
          "duration": 0.17724609375,
          "durationTicks": 121,
          "midi": 75,
          "name": "D#5",
          "ticks": 374656,
          "time": 548.8125,
          "velocity": 0.8346456692913385
        },
        {
          "duration": 0.57275390625,
          "durationTicks": 391,
          "midi": 74,
          "name": "D5",
          "ticks": 374784,
          "time": 549,
          "velocity": 0.7244094488188977
        },
        {
          "duration": 0.17724609375,
          "durationTicks": 121,
          "midi": 70,
          "name": "A#4",
          "ticks": 375168,
          "time": 549.5625,
          "velocity": 0.6614173228346457
        },
        {
          "duration": 0.57275390625,
          "durationTicks": 391,
          "midi": 69,
          "name": "A4",
          "ticks": 375296,
          "time": 549.75,
          "velocity": 0.7086614173228346
        },
        {
          "duration": 0.17724609375,
          "durationTicks": 121,
          "midi": 72,
          "name": "C5",
          "ticks": 375680,
          "time": 550.3125,
          "velocity": 0.7637795275590551
        },
        {
          "duration": 0.1875,
          "durationTicks": 128,
          "midi": 70,
          "name": "A#4",
          "ticks": 375808,
          "time": 550.5,
          "velocity": 0.7637795275590551
        },
        {
          "duration": 0.1904296875,
          "durationTicks": 130,
          "midi": 62,
          "name": "D4",
          "ticks": 375936,
          "time": 550.6875,
          "velocity": 0.4094488188976378
        },
        {
          "duration": 0.1904296875,
          "durationTicks": 130,
          "midi": 58,
          "name": "A#3",
          "ticks": 376064,
          "time": 550.875,
          "velocity": 0.4251968503937008
        },
        {
          "duration": 0.1904296875,
          "durationTicks": 130,
          "midi": 62,
          "name": "D4",
          "ticks": 376192,
          "time": 551.0625,
          "velocity": 0.5433070866141733
        },
        {
          "duration": 0.1904296875,
          "durationTicks": 130,
          "midi": 58,
          "name": "A#3",
          "ticks": 376320,
          "time": 551.25,
          "velocity": 0.5118110236220472
        },
        {
          "duration": 0.1904296875,
          "durationTicks": 130,
          "midi": 62,
          "name": "D4",
          "ticks": 376448,
          "time": 551.4375,
          "velocity": 0.5590551181102362
        },
        {
          "duration": 0.1904296875,
          "durationTicks": 130,
          "midi": 58,
          "name": "A#3",
          "ticks": 376576,
          "time": 551.625,
          "velocity": 0.5196850393700787
        },
        {
          "duration": 0.17724609375,
          "durationTicks": 121,
          "midi": 62,
          "name": "D4",
          "ticks": 376704,
          "time": 551.8125,
          "velocity": 0.5275590551181102
        },
        {
          "duration": 0.1904296875,
          "durationTicks": 130,
          "midi": 57,
          "name": "A3",
          "ticks": 376832,
          "time": 552,
          "velocity": 0.4409448818897638
        },
        {
          "duration": 0.1904296875,
          "durationTicks": 130,
          "midi": 60,
          "name": "C4",
          "ticks": 376960,
          "time": 552.1875,
          "velocity": 0.47244094488188976
        },
        {
          "duration": 0.1904296875,
          "durationTicks": 130,
          "midi": 57,
          "name": "A3",
          "ticks": 377088,
          "time": 552.375,
          "velocity": 0.4881889763779528
        },
        {
          "duration": 0.1904296875,
          "durationTicks": 130,
          "midi": 60,
          "name": "C4",
          "ticks": 377216,
          "time": 552.5625,
          "velocity": 0.5118110236220472
        },
        {
          "duration": 0.1904296875,
          "durationTicks": 130,
          "midi": 57,
          "name": "A3",
          "ticks": 377344,
          "time": 552.75,
          "velocity": 0.48031496062992124
        },
        {
          "duration": 0.1904296875,
          "durationTicks": 130,
          "midi": 62,
          "name": "D4",
          "ticks": 377472,
          "time": 552.9375,
          "velocity": 0.5669291338582677
        },
        {
          "duration": 0.1904296875,
          "durationTicks": 130,
          "midi": 66,
          "name": "F#4",
          "ticks": 377600,
          "time": 553.125,
          "velocity": 0.5196850393700787
        },
        {
          "duration": 0.17724609375,
          "durationTicks": 121,
          "midi": 62,
          "name": "D4",
          "ticks": 377728,
          "time": 553.3125,
          "velocity": 0.4881889763779528
        },
        {
          "duration": 0.1904296875,
          "durationTicks": 130,
          "midi": 67,
          "name": "G4",
          "ticks": 377856,
          "time": 553.5,
          "velocity": 0.5275590551181102
        },
        {
          "duration": 0.1904296875,
          "durationTicks": 130,
          "midi": 62,
          "name": "D4",
          "ticks": 377984,
          "time": 553.6875,
          "velocity": 0.4566929133858268
        },
        {
          "duration": 0.1904296875,
          "durationTicks": 130,
          "midi": 55,
          "name": "G3",
          "ticks": 378112,
          "time": 553.875,
          "velocity": 0.4251968503937008
        },
        {
          "duration": 0.1904296875,
          "durationTicks": 130,
          "midi": 62,
          "name": "D4",
          "ticks": 378240,
          "time": 554.0625,
          "velocity": 0.5118110236220472
        },
        {
          "duration": 0.1904296875,
          "durationTicks": 130,
          "midi": 55,
          "name": "G3",
          "ticks": 378368,
          "time": 554.25,
          "velocity": 0.47244094488188976
        },
        {
          "duration": 0.1904296875,
          "durationTicks": 130,
          "midi": 62,
          "name": "D4",
          "ticks": 378496,
          "time": 554.4375,
          "velocity": 0.5826771653543307
        },
        {
          "duration": 0.1904296875,
          "durationTicks": 130,
          "midi": 58,
          "name": "A#3",
          "ticks": 378624,
          "time": 554.625,
          "velocity": 0.4645669291338583
        },
        {
          "duration": 0.17724609375,
          "durationTicks": 121,
          "midi": 62,
          "name": "D4",
          "ticks": 378752,
          "time": 554.8125,
          "velocity": 0.5275590551181102
        },
        {
          "duration": 0.1904296875,
          "durationTicks": 130,
          "midi": 57,
          "name": "A3",
          "ticks": 378880,
          "time": 555,
          "velocity": 0.4881889763779528
        },
        {
          "duration": 0.1904296875,
          "durationTicks": 130,
          "midi": 60,
          "name": "C4",
          "ticks": 379008,
          "time": 555.1875,
          "velocity": 0.47244094488188976
        },
        {
          "duration": 0.1904296875,
          "durationTicks": 130,
          "midi": 57,
          "name": "A3",
          "ticks": 379136,
          "time": 555.375,
          "velocity": 0.5039370078740157
        },
        {
          "duration": 0.1904296875,
          "durationTicks": 130,
          "midi": 60,
          "name": "C4",
          "ticks": 379264,
          "time": 555.5625,
          "velocity": 0.5433070866141733
        },
        {
          "duration": 0.1904296875,
          "durationTicks": 130,
          "midi": 57,
          "name": "A3",
          "ticks": 379392,
          "time": 555.75,
          "velocity": 0.49606299212598426
        },
        {
          "duration": 0.1904296875,
          "durationTicks": 130,
          "midi": 62,
          "name": "D4",
          "ticks": 379520,
          "time": 555.9375,
          "velocity": 0.5669291338582677
        },
        {
          "duration": 0.1904296875,
          "durationTicks": 130,
          "midi": 66,
          "name": "F#4",
          "ticks": 379648,
          "time": 556.125,
          "velocity": 0.5590551181102362
        },
        {
          "duration": 0.17724609375,
          "durationTicks": 121,
          "midi": 62,
          "name": "D4",
          "ticks": 379776,
          "time": 556.3125,
          "velocity": 0.49606299212598426
        },
        {
          "duration": 0.1904296875,
          "durationTicks": 130,
          "midi": 67,
          "name": "G4",
          "ticks": 379904,
          "time": 556.5,
          "velocity": 0.5590551181102362
        },
        {
          "duration": 0.1904296875,
          "durationTicks": 130,
          "midi": 62,
          "name": "D4",
          "ticks": 380032,
          "time": 556.6875,
          "velocity": 0.47244094488188976
        },
        {
          "duration": 0.1904296875,
          "durationTicks": 130,
          "midi": 55,
          "name": "G3",
          "ticks": 380160,
          "time": 556.875,
          "velocity": 0.3937007874015748
        },
        {
          "duration": 0.1904296875,
          "durationTicks": 130,
          "midi": 62,
          "name": "D4",
          "ticks": 380288,
          "time": 557.0625,
          "velocity": 0.4566929133858268
        },
        {
          "duration": 0.1904296875,
          "durationTicks": 130,
          "midi": 55,
          "name": "G3",
          "ticks": 380416,
          "time": 557.25,
          "velocity": 0.4251968503937008
        },
        {
          "duration": 0.1904296875,
          "durationTicks": 130,
          "midi": 62,
          "name": "D4",
          "ticks": 380544,
          "time": 557.4375,
          "velocity": 0.49606299212598426
        },
        {
          "duration": 0.1904296875,
          "durationTicks": 130,
          "midi": 67,
          "name": "G4",
          "ticks": 380672,
          "time": 557.625,
          "velocity": 0.5984251968503937
        },
        {
          "duration": 0.17724609375,
          "durationTicks": 121,
          "midi": 62,
          "name": "D4",
          "ticks": 380800,
          "time": 557.8125,
          "velocity": 0.5196850393700787
        },
        {
          "duration": 0.1875,
          "durationTicks": 128,
          "midi": 65,
          "name": "F4",
          "ticks": 380928,
          "time": 558,
          "velocity": 0.937007874015748
        },
        {
          "duration": 0.1875,
          "durationTicks": 128,
          "midi": 71,
          "name": "B4",
          "ticks": 380928,
          "time": 558,
          "velocity": 0.937007874015748
        },
        {
          "duration": 0.1875,
          "durationTicks": 128,
          "midi": 65,
          "name": "F4",
          "ticks": 381056,
          "time": 558.1875,
          "velocity": 0.8188976377952756
        },
        {
          "duration": 0.1875,
          "durationTicks": 128,
          "midi": 71,
          "name": "B4",
          "ticks": 381056,
          "time": 558.1875,
          "velocity": 0.8188976377952756
        },
        {
          "duration": 0.1875,
          "durationTicks": 128,
          "midi": 65,
          "name": "F4",
          "ticks": 381184,
          "time": 558.375,
          "velocity": 0.7401574803149606
        },
        {
          "duration": 0.1875,
          "durationTicks": 128,
          "midi": 71,
          "name": "B4",
          "ticks": 381184,
          "time": 558.375,
          "velocity": 0.7401574803149606
        },
        {
          "duration": 0.1875,
          "durationTicks": 128,
          "midi": 65,
          "name": "F4",
          "ticks": 381312,
          "time": 558.5625,
          "velocity": 0.7716535433070866
        },
        {
          "duration": 0.1875,
          "durationTicks": 128,
          "midi": 71,
          "name": "B4",
          "ticks": 381312,
          "time": 558.5625,
          "velocity": 0.7716535433070866
        },
        {
          "duration": 0.1875,
          "durationTicks": 128,
          "midi": 65,
          "name": "F4",
          "ticks": 381440,
          "time": 558.75,
          "velocity": 0.7716535433070866
        },
        {
          "duration": 0.1875,
          "durationTicks": 128,
          "midi": 71,
          "name": "B4",
          "ticks": 381440,
          "time": 558.75,
          "velocity": 0.7716535433070866
        },
        {
          "duration": 0.1875,
          "durationTicks": 128,
          "midi": 65,
          "name": "F4",
          "ticks": 381568,
          "time": 558.9375,
          "velocity": 0.7716535433070866
        },
        {
          "duration": 0.1875,
          "durationTicks": 128,
          "midi": 71,
          "name": "B4",
          "ticks": 381568,
          "time": 558.9375,
          "velocity": 0.7716535433070866
        },
        {
          "duration": 0.1875,
          "durationTicks": 128,
          "midi": 65,
          "name": "F4",
          "ticks": 381696,
          "time": 559.125,
          "velocity": 0.7716535433070866
        },
        {
          "duration": 0.1875,
          "durationTicks": 128,
          "midi": 71,
          "name": "B4",
          "ticks": 381696,
          "time": 559.125,
          "velocity": 0.7716535433070866
        },
        {
          "duration": 0.1875,
          "durationTicks": 128,
          "midi": 65,
          "name": "F4",
          "ticks": 381824,
          "time": 559.3125,
          "velocity": 0.7952755905511811
        },
        {
          "duration": 0.1875,
          "durationTicks": 128,
          "midi": 71,
          "name": "B4",
          "ticks": 381824,
          "time": 559.3125,
          "velocity": 0.7952755905511811
        },
        {
          "duration": 0.75,
          "durationTicks": 512,
          "midi": 63,
          "name": "D#4",
          "ticks": 381952,
          "time": 559.5,
          "velocity": 0.8188976377952756
        },
        {
          "duration": 0.75,
          "durationTicks": 512,
          "midi": 72,
          "name": "C5",
          "ticks": 381952,
          "time": 559.5,
          "velocity": 0.8188976377952756
        },
        {
          "duration": 0.57275390625,
          "durationTicks": 391,
          "midi": 79,
          "name": "G5",
          "ticks": 382464,
          "time": 560.25,
          "velocity": 0.9212598425196851
        },
        {
          "duration": 0.17724609375,
          "durationTicks": 121,
          "midi": 75,
          "name": "D#5",
          "ticks": 382848,
          "time": 560.8125,
          "velocity": 0.8503937007874016
        },
        {
          "duration": 0.57275390625,
          "durationTicks": 391,
          "midi": 74,
          "name": "D5",
          "ticks": 382976,
          "time": 561,
          "velocity": 0.7244094488188977
        },
        {
          "duration": 0.17724609375,
          "durationTicks": 121,
          "midi": 70,
          "name": "A#4",
          "ticks": 383360,
          "time": 561.5625,
          "velocity": 0.6535433070866141
        },
        {
          "duration": 0.57275390625,
          "durationTicks": 391,
          "midi": 66,
          "name": "F#4",
          "ticks": 383488,
          "time": 561.75,
          "velocity": 0.7165354330708661
        },
        {
          "duration": 0.17724609375,
          "durationTicks": 121,
          "midi": 69,
          "name": "A4",
          "ticks": 383872,
          "time": 562.3125,
          "velocity": 0.7952755905511811
        },
        {
          "duration": 0.1875,
          "durationTicks": 128,
          "midi": 67,
          "name": "G4",
          "ticks": 384000,
          "time": 562.5,
          "velocity": 0.7244094488188977
        },
        {
          "duration": 0.1875,
          "durationTicks": 128,
          "midi": 74,
          "name": "D5",
          "ticks": 384128,
          "time": 562.6875,
          "velocity": 0.9291338582677166
        },
        {
          "duration": 0.1875,
          "durationTicks": 128,
          "midi": 82,
          "name": "A#5",
          "ticks": 384256,
          "time": 562.875,
          "velocity": 0.968503937007874
        },
        {
          "duration": 0.1875,
          "durationTicks": 128,
          "midi": 81,
          "name": "A5",
          "ticks": 384384,
          "time": 563.0625,
          "velocity": 0.7559055118110236
        },
        {
          "duration": 0.1875,
          "durationTicks": 128,
          "midi": 79,
          "name": "G5",
          "ticks": 384512,
          "time": 563.25,
          "velocity": 0.7165354330708661
        },
        {
          "duration": 0.1875,
          "durationTicks": 128,
          "midi": 77,
          "name": "F5",
          "ticks": 384640,
          "time": 563.4375,
          "velocity": 0.7401574803149606
        },
        {
          "duration": 0.1875,
          "durationTicks": 128,
          "midi": 75,
          "name": "D#5",
          "ticks": 384768,
          "time": 563.625,
          "velocity": 0.7086614173228346
        },
        {
          "duration": 0.1875,
          "durationTicks": 128,
          "midi": 74,
          "name": "D5",
          "ticks": 384896,
          "time": 563.8125,
          "velocity": 0.7480314960629921
        },
        {
          "duration": 0.1875,
          "durationTicks": 128,
          "midi": 72,
          "name": "C5",
          "ticks": 385024,
          "time": 564,
          "velocity": 0.6929133858267716
        },
        {
          "duration": 0.1875,
          "durationTicks": 128,
          "midi": 70,
          "name": "A#4",
          "ticks": 385152,
          "time": 564.1875,
          "velocity": 0.7165354330708661
        },
        {
          "duration": 0.1875,
          "durationTicks": 128,
          "midi": 69,
          "name": "A4",
          "ticks": 385280,
          "time": 564.375,
          "velocity": 0.7480314960629921
        },
        {
          "duration": 0.1875,
          "durationTicks": 128,
          "midi": 67,
          "name": "G4",
          "ticks": 385408,
          "time": 564.5625,
          "velocity": 0.7401574803149606
        },
        {
          "duration": 0.1875,
          "durationTicks": 128,
          "midi": 66,
          "name": "F#4",
          "ticks": 385536,
          "time": 564.75,
          "velocity": 0.7086614173228346
        },
        {
          "duration": 0.1875,
          "durationTicks": 128,
          "midi": 63,
          "name": "D#4",
          "ticks": 385664,
          "time": 564.9375,
          "velocity": 0.7086614173228346
        },
        {
          "duration": 0.1875,
          "durationTicks": 128,
          "midi": 62,
          "name": "D4",
          "ticks": 385792,
          "time": 565.125,
          "velocity": 0.7007874015748031
        },
        {
          "duration": 0.1875,
          "durationTicks": 128,
          "midi": 60,
          "name": "C4",
          "ticks": 385920,
          "time": 565.3125,
          "velocity": 0.7559055118110236
        },
        {
          "duration": 0.375,
          "durationTicks": 256,
          "midi": 58,
          "name": "A#3",
          "ticks": 386048,
          "time": 565.5,
          "velocity": 0.7322834645669292
        },
        {
          "duration": 0.375,
          "durationTicks": 256,
          "midi": 67,
          "name": "G4",
          "ticks": 386304,
          "time": 565.875,
          "velocity": 0.8976377952755905
        },
        {
          "duration": 0.375,
          "durationTicks": 256,
          "midi": 67,
          "name": "G4",
          "ticks": 386560,
          "time": 566.25,
          "velocity": 0.7716535433070866
        },
        {
          "duration": 0.375,
          "durationTicks": 256,
          "midi": 60,
          "name": "C4",
          "ticks": 386816,
          "time": 566.625,
          "velocity": 0.6220472440944882
        },
        {
          "duration": 0.1875,
          "durationTicks": 128,
          "midi": 58,
          "name": "A#3",
          "ticks": 387072,
          "time": 567,
          "velocity": 0.6929133858267716
        },
        {
          "duration": 0.1875,
          "durationTicks": 128,
          "midi": 62,
          "name": "D4",
          "ticks": 387200,
          "time": 567.1875,
          "velocity": 0.8346456692913385
        },
        {
          "duration": 0.1875,
          "durationTicks": 128,
          "midi": 70,
          "name": "A#4",
          "ticks": 387328,
          "time": 567.375,
          "velocity": 0.9133858267716536
        },
        {
          "duration": 0.1875,
          "durationTicks": 128,
          "midi": 69,
          "name": "A4",
          "ticks": 387456,
          "time": 567.5625,
          "velocity": 0.7952755905511811
        },
        {
          "duration": 0.1875,
          "durationTicks": 128,
          "midi": 67,
          "name": "G4",
          "ticks": 387584,
          "time": 567.75,
          "velocity": 0.7007874015748031
        },
        {
          "duration": 0.1875,
          "durationTicks": 128,
          "midi": 65,
          "name": "F4",
          "ticks": 387712,
          "time": 567.9375,
          "velocity": 0.7086614173228346
        },
        {
          "duration": 0.1875,
          "durationTicks": 128,
          "midi": 63,
          "name": "D#4",
          "ticks": 387840,
          "time": 568.125,
          "velocity": 0.7322834645669292
        },
        {
          "duration": 0.1875,
          "durationTicks": 128,
          "midi": 62,
          "name": "D4",
          "ticks": 387968,
          "time": 568.3125,
          "velocity": 0.7559055118110236
        },
        {
          "duration": 0.1875,
          "durationTicks": 128,
          "midi": 61,
          "name": "C#4",
          "ticks": 388096,
          "time": 568.5,
          "velocity": 0.7007874015748031
        },
        {
          "duration": 0.1875,
          "durationTicks": 128,
          "midi": 64,
          "name": "E4",
          "ticks": 388224,
          "time": 568.6875,
          "velocity": 0.84251968503937
        },
        {
          "duration": 0.1875,
          "durationTicks": 128,
          "midi": 69,
          "name": "A4",
          "ticks": 388352,
          "time": 568.875,
          "velocity": 0.8661417322834646
        },
        {
          "duration": 0.1875,
          "durationTicks": 128,
          "midi": 67,
          "name": "G4",
          "ticks": 388480,
          "time": 569.0625,
          "velocity": 0.7480314960629921
        },
        {
          "duration": 0.1875,
          "durationTicks": 128,
          "midi": 66,
          "name": "F#4",
          "ticks": 388608,
          "time": 569.25,
          "velocity": 0.7480314960629921
        },
        {
          "duration": 0.1875,
          "durationTicks": 128,
          "midi": 63,
          "name": "D#4",
          "ticks": 388736,
          "time": 569.4375,
          "velocity": 0.7165354330708661
        },
        {
          "duration": 0.1875,
          "durationTicks": 128,
          "midi": 62,
          "name": "D4",
          "ticks": 388864,
          "time": 569.625,
          "velocity": 0.7322834645669292
        },
        {
          "duration": 0.1875,
          "durationTicks": 128,
          "midi": 60,
          "name": "C4",
          "ticks": 388992,
          "time": 569.8125,
          "velocity": 0.7244094488188977
        },
        {
          "duration": 0.375,
          "durationTicks": 256,
          "midi": 58,
          "name": "A#3",
          "ticks": 389120,
          "time": 570,
          "velocity": 0.7637795275590551
        },
        {
          "duration": 0.09375,
          "durationTicks": 64,
          "midi": 67,
          "name": "G4",
          "ticks": 389568,
          "time": 570.65625,
          "velocity": 0.7086614173228346
        },
        {
          "duration": 0.375,
          "durationTicks": 256,
          "midi": 67,
          "name": "G4",
          "ticks": 389632,
          "time": 570.75,
          "velocity": 0.7637795275590551
        },
        {
          "duration": 0.09375,
          "durationTicks": 64,
          "midi": 68,
          "name": "G#4",
          "ticks": 390080,
          "time": 571.40625,
          "velocity": 0.6614173228346457
        },
        {
          "duration": 0.375,
          "durationTicks": 256,
          "midi": 68,
          "name": "G#4",
          "ticks": 390144,
          "time": 571.5,
          "velocity": 0.7244094488188977
        },
        {
          "duration": 0.09375,
          "durationTicks": 64,
          "midi": 69,
          "name": "A4",
          "ticks": 390592,
          "time": 572.15625,
          "velocity": 0.6771653543307087
        },
        {
          "duration": 0.375,
          "durationTicks": 256,
          "midi": 69,
          "name": "A4",
          "ticks": 390656,
          "time": 572.25,
          "velocity": 0.7480314960629921
        },
        {
          "duration": 0.09375,
          "durationTicks": 64,
          "midi": 70,
          "name": "A#4",
          "ticks": 391104,
          "time": 572.90625,
          "velocity": 0.6929133858267716
        },
        {
          "duration": 0.375,
          "durationTicks": 256,
          "midi": 70,
          "name": "A#4",
          "ticks": 391168,
          "time": 573,
          "velocity": 0.7244094488188977
        },
        {
          "duration": 0.09375,
          "durationTicks": 64,
          "midi": 71,
          "name": "B4",
          "ticks": 391616,
          "time": 573.65625,
          "velocity": 0.6929133858267716
        },
        {
          "duration": 0.375,
          "durationTicks": 256,
          "midi": 71,
          "name": "B4",
          "ticks": 391680,
          "time": 573.75,
          "velocity": 0.7716535433070866
        },
        {
          "duration": 0.09375,
          "durationTicks": 64,
          "midi": 72,
          "name": "C5",
          "ticks": 392128,
          "time": 574.40625,
          "velocity": 0.7086614173228346
        },
        {
          "duration": 0.375,
          "durationTicks": 256,
          "midi": 72,
          "name": "C5",
          "ticks": 392192,
          "time": 574.5,
          "velocity": 0.7795275590551181
        },
        {
          "duration": 0.09375,
          "durationTicks": 64,
          "midi": 73,
          "name": "C#5",
          "ticks": 392640,
          "time": 575.15625,
          "velocity": 0.7086614173228346
        },
        {
          "duration": 0.375,
          "durationTicks": 256,
          "midi": 73,
          "name": "C#5",
          "ticks": 392704,
          "time": 575.25,
          "velocity": 0.7559055118110236
        },
        {
          "duration": 0.1904296875,
          "durationTicks": 130,
          "midi": 75,
          "name": "D#5",
          "ticks": 393984,
          "time": 577.125,
          "velocity": 0.4251968503937008
        },
        {
          "duration": 0.17724609375,
          "durationTicks": 121,
          "midi": 74,
          "name": "D5",
          "ticks": 394112,
          "time": 577.3125,
          "velocity": 0.4251968503937008
        },
        {
          "duration": 0.1875,
          "durationTicks": 128,
          "midi": 74,
          "name": "D5",
          "ticks": 394240,
          "time": 577.5,
          "velocity": 0.4566929133858268
        },
        {
          "duration": 0.1904296875,
          "durationTicks": 130,
          "midi": 75,
          "name": "D#5",
          "ticks": 394496,
          "time": 577.875,
          "velocity": 0.4881889763779528
        },
        {
          "duration": 0.17724609375,
          "durationTicks": 121,
          "midi": 74,
          "name": "D5",
          "ticks": 394624,
          "time": 578.0625,
          "velocity": 0.4566929133858268
        },
        {
          "duration": 0.1875,
          "durationTicks": 128,
          "midi": 74,
          "name": "D5",
          "ticks": 394752,
          "time": 578.25,
          "velocity": 0.49606299212598426
        },
        {
          "duration": 0.1904296875,
          "durationTicks": 130,
          "midi": 75,
          "name": "D#5",
          "ticks": 395008,
          "time": 578.625,
          "velocity": 0.5118110236220472
        },
        {
          "duration": 0.17724609375,
          "durationTicks": 121,
          "midi": 74,
          "name": "D5",
          "ticks": 395136,
          "time": 578.8125,
          "velocity": 0.48031496062992124
        },
        {
          "duration": 0.38232421875,
          "durationTicks": 261,
          "midi": 74,
          "name": "D5",
          "ticks": 395264,
          "time": 579,
          "velocity": 0.5118110236220472
        },
        {
          "duration": 0.7646484375,
          "durationTicks": 522,
          "midi": 79,
          "name": "G5",
          "ticks": 395520,
          "time": 579.375,
          "velocity": 0.5984251968503937
        },
        {
          "duration": 0.7119140625,
          "durationTicks": 486,
          "midi": 77,
          "name": "F5",
          "ticks": 396032,
          "time": 580.125,
          "velocity": 0.4881889763779528
        },
        {
          "duration": 0.7646484375,
          "durationTicks": 522,
          "midi": 75,
          "name": "D#5",
          "ticks": 396544,
          "time": 580.875,
          "velocity": 0.4409448818897638
        },
        {
          "duration": 0.35595703125,
          "durationTicks": 243,
          "midi": 74,
          "name": "D5",
          "ticks": 397056,
          "time": 581.625,
          "velocity": 0.4251968503937008
        },
        {
          "duration": 6,
          "durationTicks": 4096,
          "midi": 72,
          "name": "C5",
          "ticks": 397312,
          "time": 582,
          "velocity": 0.44881889763779526
        },
        {
          "duration": 0.375,
          "durationTicks": 256,
          "midi": 62,
          "name": "D4",
          "ticks": 401408,
          "time": 588,
          "velocity": 0.6929133858267716
        },
        {
          "duration": 0.375,
          "durationTicks": 256,
          "midi": 70,
          "name": "A#4",
          "ticks": 401408,
          "time": 588,
          "velocity": 0.6929133858267716
        },
        {
          "duration": 0.1875,
          "durationTicks": 128,
          "midi": 62,
          "name": "D4",
          "ticks": 401664,
          "time": 588.375,
          "velocity": 0.7401574803149606
        },
        {
          "duration": 0.1875,
          "durationTicks": 128,
          "midi": 70,
          "name": "A#4",
          "ticks": 401664,
          "time": 588.375,
          "velocity": 0.7401574803149606
        },
        {
          "duration": 0.1875,
          "durationTicks": 128,
          "midi": 62,
          "name": "D4",
          "ticks": 401792,
          "time": 588.5625,
          "velocity": 0.7637795275590551
        },
        {
          "duration": 0.1875,
          "durationTicks": 128,
          "midi": 70,
          "name": "A#4",
          "ticks": 401792,
          "time": 588.5625,
          "velocity": 0.7637795275590551
        },
        {
          "duration": 0.375,
          "durationTicks": 256,
          "midi": 62,
          "name": "D4",
          "ticks": 401920,
          "time": 588.75,
          "velocity": 0.8188976377952756
        },
        {
          "duration": 0.375,
          "durationTicks": 256,
          "midi": 72,
          "name": "C5",
          "ticks": 401920,
          "time": 588.75,
          "velocity": 0.8188976377952756
        },
        {
          "duration": 0.1875,
          "durationTicks": 128,
          "midi": 62,
          "name": "D4",
          "ticks": 402176,
          "time": 589.125,
          "velocity": 0.7716535433070866
        },
        {
          "duration": 0.1875,
          "durationTicks": 128,
          "midi": 72,
          "name": "C5",
          "ticks": 402176,
          "time": 589.125,
          "velocity": 0.7716535433070866
        },
        {
          "duration": 0.1875,
          "durationTicks": 128,
          "midi": 62,
          "name": "D4",
          "ticks": 402304,
          "time": 589.3125,
          "velocity": 0.7559055118110236
        },
        {
          "duration": 0.1875,
          "durationTicks": 128,
          "midi": 72,
          "name": "C5",
          "ticks": 402304,
          "time": 589.3125,
          "velocity": 0.7559055118110236
        },
        {
          "duration": 0.375,
          "durationTicks": 256,
          "midi": 62,
          "name": "D4",
          "ticks": 402432,
          "time": 589.5,
          "velocity": 0.7401574803149606
        },
        {
          "duration": 0.375,
          "durationTicks": 256,
          "midi": 70,
          "name": "A#4",
          "ticks": 402432,
          "time": 589.5,
          "velocity": 0.7401574803149606
        },
        {
          "duration": 0.1875,
          "durationTicks": 128,
          "midi": 62,
          "name": "D4",
          "ticks": 402688,
          "time": 589.875,
          "velocity": 0.7559055118110236
        },
        {
          "duration": 0.1875,
          "durationTicks": 128,
          "midi": 70,
          "name": "A#4",
          "ticks": 402688,
          "time": 589.875,
          "velocity": 0.7559055118110236
        },
        {
          "duration": 0.1875,
          "durationTicks": 128,
          "midi": 62,
          "name": "D4",
          "ticks": 402816,
          "time": 590.0625,
          "velocity": 0.7559055118110236
        },
        {
          "duration": 0.1875,
          "durationTicks": 128,
          "midi": 70,
          "name": "A#4",
          "ticks": 402816,
          "time": 590.0625,
          "velocity": 0.7559055118110236
        },
        {
          "duration": 0.375,
          "durationTicks": 256,
          "midi": 62,
          "name": "D4",
          "ticks": 402944,
          "time": 590.25,
          "velocity": 0.7716535433070866
        },
        {
          "duration": 0.375,
          "durationTicks": 256,
          "midi": 72,
          "name": "C5",
          "ticks": 402944,
          "time": 590.25,
          "velocity": 0.7716535433070866
        },
        {
          "duration": 0.1875,
          "durationTicks": 128,
          "midi": 62,
          "name": "D4",
          "ticks": 403200,
          "time": 590.625,
          "velocity": 0.7952755905511811
        },
        {
          "duration": 0.1875,
          "durationTicks": 128,
          "midi": 72,
          "name": "C5",
          "ticks": 403200,
          "time": 590.625,
          "velocity": 0.7952755905511811
        },
        {
          "duration": 0.1875,
          "durationTicks": 128,
          "midi": 62,
          "name": "D4",
          "ticks": 403328,
          "time": 590.8125,
          "velocity": 0.7952755905511811
        },
        {
          "duration": 0.1875,
          "durationTicks": 128,
          "midi": 72,
          "name": "C5",
          "ticks": 403328,
          "time": 590.8125,
          "velocity": 0.7952755905511811
        },
        {
          "duration": 0.375,
          "durationTicks": 256,
          "midi": 62,
          "name": "D4",
          "ticks": 403456,
          "time": 591,
          "velocity": 0.6850393700787402
        },
        {
          "duration": 0.375,
          "durationTicks": 256,
          "midi": 70,
          "name": "A#4",
          "ticks": 403456,
          "time": 591,
          "velocity": 0.6850393700787402
        },
        {
          "duration": 0.1875,
          "durationTicks": 128,
          "midi": 62,
          "name": "D4",
          "ticks": 403712,
          "time": 591.375,
          "velocity": 0.7322834645669292
        },
        {
          "duration": 0.1875,
          "durationTicks": 128,
          "midi": 70,
          "name": "A#4",
          "ticks": 403712,
          "time": 591.375,
          "velocity": 0.7322834645669292
        },
        {
          "duration": 0.1875,
          "durationTicks": 128,
          "midi": 62,
          "name": "D4",
          "ticks": 403840,
          "time": 591.5625,
          "velocity": 0.7795275590551181
        },
        {
          "duration": 0.1875,
          "durationTicks": 128,
          "midi": 70,
          "name": "A#4",
          "ticks": 403840,
          "time": 591.5625,
          "velocity": 0.7795275590551181
        },
        {
          "duration": 0.375,
          "durationTicks": 256,
          "midi": 62,
          "name": "D4",
          "ticks": 403968,
          "time": 591.75,
          "velocity": 0.8346456692913385
        },
        {
          "duration": 0.375,
          "durationTicks": 256,
          "midi": 72,
          "name": "C5",
          "ticks": 403968,
          "time": 591.75,
          "velocity": 0.8346456692913385
        },
        {
          "duration": 0.1875,
          "durationTicks": 128,
          "midi": 62,
          "name": "D4",
          "ticks": 404224,
          "time": 592.125,
          "velocity": 0.8031496062992126
        },
        {
          "duration": 0.1875,
          "durationTicks": 128,
          "midi": 72,
          "name": "C5",
          "ticks": 404224,
          "time": 592.125,
          "velocity": 0.8031496062992126
        },
        {
          "duration": 0.1875,
          "durationTicks": 128,
          "midi": 62,
          "name": "D4",
          "ticks": 404352,
          "time": 592.3125,
          "velocity": 0.7795275590551181
        },
        {
          "duration": 0.1875,
          "durationTicks": 128,
          "midi": 72,
          "name": "C5",
          "ticks": 404352,
          "time": 592.3125,
          "velocity": 0.7795275590551181
        },
        {
          "duration": 0.375,
          "durationTicks": 256,
          "midi": 62,
          "name": "D4",
          "ticks": 404480,
          "time": 592.5,
          "velocity": 0.7086614173228346
        },
        {
          "duration": 0.375,
          "durationTicks": 256,
          "midi": 70,
          "name": "A#4",
          "ticks": 404480,
          "time": 592.5,
          "velocity": 0.7086614173228346
        },
        {
          "duration": 0.375,
          "durationTicks": 256,
          "midi": 62,
          "name": "D4",
          "ticks": 404736,
          "time": 592.875,
          "velocity": 0.8110236220472441
        },
        {
          "duration": 0.375,
          "durationTicks": 256,
          "midi": 72,
          "name": "C5",
          "ticks": 404736,
          "time": 592.875,
          "velocity": 0.8110236220472441
        },
        {
          "duration": 0.375,
          "durationTicks": 256,
          "midi": 62,
          "name": "D4",
          "ticks": 404992,
          "time": 593.25,
          "velocity": 0.6929133858267716
        },
        {
          "duration": 0.375,
          "durationTicks": 256,
          "midi": 70,
          "name": "A#4",
          "ticks": 404992,
          "time": 593.25,
          "velocity": 0.6929133858267716
        },
        {
          "duration": 0.375,
          "durationTicks": 256,
          "midi": 62,
          "name": "D4",
          "ticks": 405248,
          "time": 593.625,
          "velocity": 0.8031496062992126
        },
        {
          "duration": 0.375,
          "durationTicks": 256,
          "midi": 72,
          "name": "C5",
          "ticks": 405248,
          "time": 593.625,
          "velocity": 0.8031496062992126
        },
        {
          "duration": 0.375,
          "durationTicks": 256,
          "midi": 62,
          "name": "D4",
          "ticks": 405504,
          "time": 594,
          "velocity": 0.7086614173228346
        },
        {
          "duration": 0.375,
          "durationTicks": 256,
          "midi": 70,
          "name": "A#4",
          "ticks": 405504,
          "time": 594,
          "velocity": 0.7086614173228346
        },
        {
          "duration": 0.375,
          "durationTicks": 256,
          "midi": 62,
          "name": "D4",
          "ticks": 406528,
          "time": 595.5,
          "velocity": 0.6614173228346457
        },
        {
          "duration": 0.375,
          "durationTicks": 256,
          "midi": 70,
          "name": "A#4",
          "ticks": 406528,
          "time": 595.5,
          "velocity": 0.6614173228346457
        },
        {
          "duration": 0.375,
          "durationTicks": 256,
          "midi": 79,
          "name": "G5",
          "ticks": 406528,
          "time": 595.5,
          "velocity": 0.6614173228346457
        },
        {
          "duration": 0.375,
          "durationTicks": 256,
          "midi": 67,
          "name": "G4",
          "ticks": 407040,
          "time": 596.25,
          "velocity": 0.7007874015748031
        },
        {
          "duration": 0.375,
          "durationTicks": 256,
          "midi": 74,
          "name": "D5",
          "ticks": 407040,
          "time": 596.25,
          "velocity": 0.7007874015748031
        },
        {
          "duration": 0.375,
          "durationTicks": 256,
          "midi": 82,
          "name": "A#5",
          "ticks": 407040,
          "time": 596.25,
          "velocity": 0.7007874015748031
        },
        {
          "duration": 0.75,
          "durationTicks": 512,
          "midi": 55,
          "name": "G3",
          "ticks": 407552,
          "time": 597,
          "velocity": 0.6929133858267716
        }
      ],
      "endOfTrackTicks": 408065
    },
    {
      "channel": 7,
      "controlChanges": {
        "7": [
          {
            "number": 7,
            "ticks": 0,
            "time": 0,
            "value": 0.9606299212598425
          }
        ],
        "10": [
          {
            "number": 10,
            "ticks": 0,
            "time": 0,
            "value": 0.25196850393700787
          }
        ],
        "64": [
          {
            "number": 64,
            "ticks": 0,
            "time": 0,
            "value": 0
          }
        ],
        "91": [
          {
            "number": 91,
            "ticks": 0,
            "time": 0,
            "value": 0.47244094488188976
          }
        ],
        "121": [
          {
            "number": 121,
            "ticks": 0,
            "time": 0,
            "value": 0
          }
        ]
      },
      "pitchBends": [],
      "instrument": {
        "family": "ensemble",
        "number": 48,
        "name": "string ensemble 1"
      },
      "name": "Viola",
      "notes": [
        {
          "duration": 0.1875,
          "durationTicks": 128,
          "midi": 58,
          "name": "A#3",
          "ticks": 0,
          "time": 0,
          "velocity": 0.4094488188976378
        },
        {
          "duration": 0.1875,
          "durationTicks": 128,
          "midi": 58,
          "name": "A#3",
          "ticks": 128,
          "time": 0.1875,
          "velocity": 0.4330708661417323
        },
        {
          "duration": 0.1875,
          "durationTicks": 128,
          "midi": 67,
          "name": "G4",
          "ticks": 256,
          "time": 0.375,
          "velocity": 0.5826771653543307
        },
        {
          "duration": 0.1875,
          "durationTicks": 128,
          "midi": 67,
          "name": "G4",
          "ticks": 384,
          "time": 0.5625,
          "velocity": 0.48031496062992124
        },
        {
          "duration": 0.1875,
          "durationTicks": 128,
          "midi": 58,
          "name": "A#3",
          "ticks": 512,
          "time": 0.75,
          "velocity": 0.3937007874015748
        },
        {
          "duration": 0.1875,
          "durationTicks": 128,
          "midi": 58,
          "name": "A#3",
          "ticks": 640,
          "time": 0.9375,
          "velocity": 0.4881889763779528
        },
        {
          "duration": 0.1875,
          "durationTicks": 128,
          "midi": 67,
          "name": "G4",
          "ticks": 768,
          "time": 1.125,
          "velocity": 0.5748031496062992
        },
        {
          "duration": 0.1875,
          "durationTicks": 128,
          "midi": 67,
          "name": "G4",
          "ticks": 896,
          "time": 1.3125,
          "velocity": 0.49606299212598426
        },
        {
          "duration": 0.1875,
          "durationTicks": 128,
          "midi": 58,
          "name": "A#3",
          "ticks": 1024,
          "time": 1.5,
          "velocity": 0.44881889763779526
        },
        {
          "duration": 0.1875,
          "durationTicks": 128,
          "midi": 58,
          "name": "A#3",
          "ticks": 1152,
          "time": 1.6875,
          "velocity": 0.48031496062992124
        },
        {
          "duration": 0.1875,
          "durationTicks": 128,
          "midi": 67,
          "name": "G4",
          "ticks": 1280,
          "time": 1.875,
          "velocity": 0.5511811023622047
        },
        {
          "duration": 0.1875,
          "durationTicks": 128,
          "midi": 67,
          "name": "G4",
          "ticks": 1408,
          "time": 2.0625,
          "velocity": 0.47244094488188976
        },
        {
          "duration": 0.1875,
          "durationTicks": 128,
          "midi": 58,
          "name": "A#3",
          "ticks": 1536,
          "time": 2.25,
          "velocity": 0.4251968503937008
        },
        {
          "duration": 0.1875,
          "durationTicks": 128,
          "midi": 58,
          "name": "A#3",
          "ticks": 1664,
          "time": 2.4375,
          "velocity": 0.48031496062992124
        },
        {
          "duration": 0.1875,
          "durationTicks": 128,
          "midi": 67,
          "name": "G4",
          "ticks": 1792,
          "time": 2.625,
          "velocity": 0.5590551181102362
        },
        {
          "duration": 0.1875,
          "durationTicks": 128,
          "midi": 67,
          "name": "G4",
          "ticks": 1920,
          "time": 2.8125,
          "velocity": 0.49606299212598426
        },
        {
          "duration": 0.1875,
          "durationTicks": 128,
          "midi": 58,
          "name": "A#3",
          "ticks": 2048,
          "time": 3,
          "velocity": 0.4330708661417323
        },
        {
          "duration": 0.1875,
          "durationTicks": 128,
          "midi": 58,
          "name": "A#3",
          "ticks": 2176,
          "time": 3.1875,
          "velocity": 0.4645669291338583
        },
        {
          "duration": 0.1875,
          "durationTicks": 128,
          "midi": 67,
          "name": "G4",
          "ticks": 2304,
          "time": 3.375,
          "velocity": 0.5905511811023622
        },
        {
          "duration": 0.1875,
          "durationTicks": 128,
          "midi": 67,
          "name": "G4",
          "ticks": 2432,
          "time": 3.5625,
          "velocity": 0.5118110236220472
        },
        {
          "duration": 0.1875,
          "durationTicks": 128,
          "midi": 58,
          "name": "A#3",
          "ticks": 2560,
          "time": 3.75,
          "velocity": 0.4330708661417323
        },
        {
          "duration": 0.1875,
          "durationTicks": 128,
          "midi": 58,
          "name": "A#3",
          "ticks": 2688,
          "time": 3.9375,
          "velocity": 0.47244094488188976
        },
        {
          "duration": 0.1875,
          "durationTicks": 128,
          "midi": 67,
          "name": "G4",
          "ticks": 2816,
          "time": 4.125,
          "velocity": 0.5905511811023622
        },
        {
          "duration": 0.1875,
          "durationTicks": 128,
          "midi": 67,
          "name": "G4",
          "ticks": 2944,
          "time": 4.3125,
          "velocity": 0.5118110236220472
        },
        {
          "duration": 0.1875,
          "durationTicks": 128,
          "midi": 58,
          "name": "A#3",
          "ticks": 3072,
          "time": 4.5,
          "velocity": 0.4645669291338583
        },
        {
          "duration": 0.1875,
          "durationTicks": 128,
          "midi": 58,
          "name": "A#3",
          "ticks": 3200,
          "time": 4.6875,
          "velocity": 0.49606299212598426
        },
        {
          "duration": 0.1875,
          "durationTicks": 128,
          "midi": 62,
          "name": "D4",
          "ticks": 3328,
          "time": 4.875,
          "velocity": 0.5433070866141733
        },
        {
          "duration": 0.1875,
          "durationTicks": 128,
          "midi": 62,
          "name": "D4",
          "ticks": 3456,
          "time": 5.0625,
          "velocity": 0.5039370078740157
        },
        {
          "duration": 0.1875,
          "durationTicks": 128,
          "midi": 58,
          "name": "A#3",
          "ticks": 3584,
          "time": 5.25,
          "velocity": 0.4566929133858268
        },
        {
          "duration": 0.1875,
          "durationTicks": 128,
          "midi": 58,
          "name": "A#3",
          "ticks": 3712,
          "time": 5.4375,
          "velocity": 0.5196850393700787
        },
        {
          "duration": 0.1875,
          "durationTicks": 128,
          "midi": 67,
          "name": "G4",
          "ticks": 3840,
          "time": 5.625,
          "velocity": 0.5984251968503937
        },
        {
          "duration": 0.1875,
          "durationTicks": 128,
          "midi": 67,
          "name": "G4",
          "ticks": 3968,
          "time": 5.8125,
          "velocity": 0.5196850393700787
        },
        {
          "duration": 0.1875,
          "durationTicks": 128,
          "midi": 63,
          "name": "D#4",
          "ticks": 4096,
          "time": 6,
          "velocity": 0.4251968503937008
        },
        {
          "duration": 0.1875,
          "durationTicks": 128,
          "midi": 63,
          "name": "D#4",
          "ticks": 4224,
          "time": 6.1875,
          "velocity": 0.4566929133858268
        },
        {
          "duration": 0.1875,
          "durationTicks": 128,
          "midi": 69,
          "name": "A4",
          "ticks": 4352,
          "time": 6.375,
          "velocity": 0.5433070866141733
        },
        {
          "duration": 0.1875,
          "durationTicks": 128,
          "midi": 69,
          "name": "A4",
          "ticks": 4480,
          "time": 6.5625,
          "velocity": 0.5039370078740157
        },
        {
          "duration": 0.1875,
          "durationTicks": 128,
          "midi": 63,
          "name": "D#4",
          "ticks": 4608,
          "time": 6.75,
          "velocity": 0.4094488188976378
        },
        {
          "duration": 0.1875,
          "durationTicks": 128,
          "midi": 63,
          "name": "D#4",
          "ticks": 4736,
          "time": 6.9375,
          "velocity": 0.47244094488188976
        },
        {
          "duration": 0.1875,
          "durationTicks": 128,
          "midi": 69,
          "name": "A4",
          "ticks": 4864,
          "time": 7.125,
          "velocity": 0.5511811023622047
        },
        {
          "duration": 0.1875,
          "durationTicks": 128,
          "midi": 69,
          "name": "A4",
          "ticks": 4992,
          "time": 7.3125,
          "velocity": 0.5275590551181102
        },
        {
          "duration": 0.1875,
          "durationTicks": 128,
          "midi": 63,
          "name": "D#4",
          "ticks": 5120,
          "time": 7.5,
          "velocity": 0.4015748031496063
        },
        {
          "duration": 0.1875,
          "durationTicks": 128,
          "midi": 63,
          "name": "D#4",
          "ticks": 5248,
          "time": 7.6875,
          "velocity": 0.49606299212598426
        },
        {
          "duration": 0.1875,
          "durationTicks": 128,
          "midi": 69,
          "name": "A4",
          "ticks": 5376,
          "time": 7.875,
          "velocity": 0.5433070866141733
        },
        {
          "duration": 0.1875,
          "durationTicks": 128,
          "midi": 69,
          "name": "A4",
          "ticks": 5504,
          "time": 8.0625,
          "velocity": 0.4645669291338583
        },
        {
          "duration": 0.1875,
          "durationTicks": 128,
          "midi": 63,
          "name": "D#4",
          "ticks": 5632,
          "time": 8.25,
          "velocity": 0.4251968503937008
        },
        {
          "duration": 0.1875,
          "durationTicks": 128,
          "midi": 63,
          "name": "D#4",
          "ticks": 5760,
          "time": 8.4375,
          "velocity": 0.5118110236220472
        },
        {
          "duration": 0.1875,
          "durationTicks": 128,
          "midi": 69,
          "name": "A4",
          "ticks": 5888,
          "time": 8.625,
          "velocity": 0.5669291338582677
        },
        {
          "duration": 0.1875,
          "durationTicks": 128,
          "midi": 69,
          "name": "A4",
          "ticks": 6016,
          "time": 8.8125,
          "velocity": 0.49606299212598426
        },
        {
          "duration": 0.1875,
          "durationTicks": 128,
          "midi": 62,
          "name": "D4",
          "ticks": 6144,
          "time": 9,
          "velocity": 0.3700787401574803
        },
        {
          "duration": 0.1875,
          "durationTicks": 128,
          "midi": 62,
          "name": "D4",
          "ticks": 6272,
          "time": 9.1875,
          "velocity": 0.4645669291338583
        },
        {
          "duration": 0.1875,
          "durationTicks": 128,
          "midi": 72,
          "name": "C5",
          "ticks": 6400,
          "time": 9.375,
          "velocity": 0.5669291338582677
        },
        {
          "duration": 0.1875,
          "durationTicks": 128,
          "midi": 72,
          "name": "C5",
          "ticks": 6528,
          "time": 9.5625,
          "velocity": 0.5118110236220472
        },
        {
          "duration": 0.1875,
          "durationTicks": 128,
          "midi": 62,
          "name": "D4",
          "ticks": 6656,
          "time": 9.75,
          "velocity": 0.33858267716535434
        },
        {
          "duration": 0.1875,
          "durationTicks": 128,
          "midi": 62,
          "name": "D4",
          "ticks": 6784,
          "time": 9.9375,
          "velocity": 0.4645669291338583
        },
        {
          "duration": 0.1875,
          "durationTicks": 128,
          "midi": 72,
          "name": "C5",
          "ticks": 6912,
          "time": 10.125,
          "velocity": 0.5984251968503937
        },
        {
          "duration": 0.1875,
          "durationTicks": 128,
          "midi": 72,
          "name": "C5",
          "ticks": 7040,
          "time": 10.3125,
          "velocity": 0.5196850393700787
        },
        {
          "duration": 0.1875,
          "durationTicks": 128,
          "midi": 60,
          "name": "C4",
          "ticks": 7168,
          "time": 10.5,
          "velocity": 0.33858267716535434
        },
        {
          "duration": 0.1875,
          "durationTicks": 128,
          "midi": 60,
          "name": "C4",
          "ticks": 7296,
          "time": 10.6875,
          "velocity": 0.4330708661417323
        },
        {
          "duration": 0.1875,
          "durationTicks": 128,
          "midi": 69,
          "name": "A4",
          "ticks": 7424,
          "time": 10.875,
          "velocity": 0.5748031496062992
        },
        {
          "duration": 0.1875,
          "durationTicks": 128,
          "midi": 69,
          "name": "A4",
          "ticks": 7552,
          "time": 11.0625,
          "velocity": 0.49606299212598426
        },
        {
          "duration": 0.1875,
          "durationTicks": 128,
          "midi": 66,
          "name": "F#4",
          "ticks": 7680,
          "time": 11.25,
          "velocity": 0.4094488188976378
        },
        {
          "duration": 0.1875,
          "durationTicks": 128,
          "midi": 66,
          "name": "F#4",
          "ticks": 7808,
          "time": 11.4375,
          "velocity": 0.5118110236220472
        },
        {
          "duration": 0.1875,
          "durationTicks": 128,
          "midi": 69,
          "name": "A4",
          "ticks": 7936,
          "time": 11.625,
          "velocity": 0.5275590551181102
        },
        {
          "duration": 0.1875,
          "durationTicks": 128,
          "midi": 69,
          "name": "A4",
          "ticks": 8064,
          "time": 11.8125,
          "velocity": 0.4566929133858268
        },
        {
          "duration": 0.1875,
          "durationTicks": 128,
          "midi": 62,
          "name": "D4",
          "ticks": 8192,
          "time": 12,
          "velocity": 0.4094488188976378
        },
        {
          "duration": 0.1875,
          "durationTicks": 128,
          "midi": 62,
          "name": "D4",
          "ticks": 8320,
          "time": 12.1875,
          "velocity": 0.48031496062992124
        },
        {
          "duration": 0.1875,
          "durationTicks": 128,
          "midi": 67,
          "name": "G4",
          "ticks": 8448,
          "time": 12.375,
          "velocity": 0.5354330708661418
        },
        {
          "duration": 0.1875,
          "durationTicks": 128,
          "midi": 67,
          "name": "G4",
          "ticks": 8576,
          "time": 12.5625,
          "velocity": 0.4645669291338583
        },
        {
          "duration": 0.1875,
          "durationTicks": 128,
          "midi": 62,
          "name": "D4",
          "ticks": 8704,
          "time": 12.75,
          "velocity": 0.4251968503937008
        },
        {
          "duration": 0.1875,
          "durationTicks": 128,
          "midi": 62,
          "name": "D4",
          "ticks": 8832,
          "time": 12.9375,
          "velocity": 0.4645669291338583
        },
        {
          "duration": 0.1875,
          "durationTicks": 128,
          "midi": 67,
          "name": "G4",
          "ticks": 8960,
          "time": 13.125,
          "velocity": 0.5590551181102362
        },
        {
          "duration": 0.1875,
          "durationTicks": 128,
          "midi": 67,
          "name": "G4",
          "ticks": 9088,
          "time": 13.3125,
          "velocity": 0.4645669291338583
        },
        {
          "duration": 0.1875,
          "durationTicks": 128,
          "midi": 63,
          "name": "D#4",
          "ticks": 9216,
          "time": 13.5,
          "velocity": 0.3937007874015748
        },
        {
          "duration": 0.1875,
          "durationTicks": 128,
          "midi": 63,
          "name": "D#4",
          "ticks": 9344,
          "time": 13.6875,
          "velocity": 0.4251968503937008
        },
        {
          "duration": 0.1875,
          "durationTicks": 128,
          "midi": 66,
          "name": "F#4",
          "ticks": 9472,
          "time": 13.875,
          "velocity": 0.5118110236220472
        },
        {
          "duration": 0.1875,
          "durationTicks": 128,
          "midi": 66,
          "name": "F#4",
          "ticks": 9600,
          "time": 14.0625,
          "velocity": 0.47244094488188976
        },
        {
          "duration": 0.1875,
          "durationTicks": 128,
          "midi": 63,
          "name": "D#4",
          "ticks": 9728,
          "time": 14.25,
          "velocity": 0.4251968503937008
        },
        {
          "duration": 0.1875,
          "durationTicks": 128,
          "midi": 63,
          "name": "D#4",
          "ticks": 9856,
          "time": 14.4375,
          "velocity": 0.47244094488188976
        },
        {
          "duration": 0.1875,
          "durationTicks": 128,
          "midi": 66,
          "name": "F#4",
          "ticks": 9984,
          "time": 14.625,
          "velocity": 0.5275590551181102
        },
        {
          "duration": 0.1875,
          "durationTicks": 128,
          "midi": 66,
          "name": "F#4",
          "ticks": 10112,
          "time": 14.8125,
          "velocity": 0.49606299212598426
        },
        {
          "duration": 0.1875,
          "durationTicks": 128,
          "midi": 62,
          "name": "D4",
          "ticks": 10240,
          "time": 15,
          "velocity": 0.4409448818897638
        },
        {
          "duration": 0.1875,
          "durationTicks": 128,
          "midi": 62,
          "name": "D4",
          "ticks": 10368,
          "time": 15.1875,
          "velocity": 0.47244094488188976
        },
        {
          "duration": 0.1875,
          "durationTicks": 128,
          "midi": 67,
          "name": "G4",
          "ticks": 10496,
          "time": 15.375,
          "velocity": 0.5433070866141733
        },
        {
          "duration": 0.1875,
          "durationTicks": 128,
          "midi": 67,
          "name": "G4",
          "ticks": 10624,
          "time": 15.5625,
          "velocity": 0.49606299212598426
        },
        {
          "duration": 0.1875,
          "durationTicks": 128,
          "midi": 62,
          "name": "D4",
          "ticks": 10752,
          "time": 15.75,
          "velocity": 0.4094488188976378
        },
        {
          "duration": 0.1875,
          "durationTicks": 128,
          "midi": 62,
          "name": "D4",
          "ticks": 10880,
          "time": 15.9375,
          "velocity": 0.48031496062992124
        },
        {
          "duration": 0.1875,
          "durationTicks": 128,
          "midi": 67,
          "name": "G4",
          "ticks": 11008,
          "time": 16.125,
          "velocity": 0.5511811023622047
        },
        {
          "duration": 0.1875,
          "durationTicks": 128,
          "midi": 67,
          "name": "G4",
          "ticks": 11136,
          "time": 16.3125,
          "velocity": 0.49606299212598426
        },
        {
          "duration": 0.1875,
          "durationTicks": 128,
          "midi": 63,
          "name": "D#4",
          "ticks": 11264,
          "time": 16.5,
          "velocity": 0.4409448818897638
        },
        {
          "duration": 0.1875,
          "durationTicks": 128,
          "midi": 63,
          "name": "D#4",
          "ticks": 11392,
          "time": 16.6875,
          "velocity": 0.47244094488188976
        },
        {
          "duration": 0.1875,
          "durationTicks": 128,
          "midi": 66,
          "name": "F#4",
          "ticks": 11520,
          "time": 16.875,
          "velocity": 0.49606299212598426
        },
        {
          "duration": 0.1875,
          "durationTicks": 128,
          "midi": 66,
          "name": "F#4",
          "ticks": 11648,
          "time": 17.0625,
          "velocity": 0.5118110236220472
        },
        {
          "duration": 0.1875,
          "durationTicks": 128,
          "midi": 63,
          "name": "D#4",
          "ticks": 11776,
          "time": 17.25,
          "velocity": 0.4881889763779528
        },
        {
          "duration": 0.1875,
          "durationTicks": 128,
          "midi": 63,
          "name": "D#4",
          "ticks": 11904,
          "time": 17.4375,
          "velocity": 0.44881889763779526
        },
        {
          "duration": 0.1875,
          "durationTicks": 128,
          "midi": 66,
          "name": "F#4",
          "ticks": 12032,
          "time": 17.625,
          "velocity": 0.5196850393700787
        },
        {
          "duration": 0.1875,
          "durationTicks": 128,
          "midi": 66,
          "name": "F#4",
          "ticks": 12160,
          "time": 17.8125,
          "velocity": 0.4881889763779528
        },
        {
          "duration": 1.5,
          "durationTicks": 1024,
          "midi": 62,
          "name": "D4",
          "ticks": 12288,
          "time": 18,
          "velocity": 0.4015748031496063
        },
        {
          "duration": 1.14697265625,
          "durationTicks": 783,
          "midi": 58,
          "name": "A#3",
          "ticks": 13312,
          "time": 19.5,
          "velocity": 0.4645669291338583
        },
        {
          "duration": 0.38232421875,
          "durationTicks": 261,
          "midi": 57,
          "name": "A3",
          "ticks": 14080,
          "time": 20.625,
          "velocity": 0.4330708661417323
        },
        {
          "duration": 0.7646484375,
          "durationTicks": 522,
          "midi": 55,
          "name": "G3",
          "ticks": 14336,
          "time": 21,
          "velocity": 0.4409448818897638
        },
        {
          "duration": 0.38232421875,
          "durationTicks": 261,
          "midi": 54,
          "name": "F#3",
          "ticks": 14848,
          "time": 21.75,
          "velocity": 0.3779527559055118
        },
        {
          "duration": 0.38232421875,
          "durationTicks": 261,
          "midi": 55,
          "name": "G3",
          "ticks": 15104,
          "time": 22.125,
          "velocity": 0.48031496062992124
        },
        {
          "duration": 0.7119140625,
          "durationTicks": 486,
          "midi": 57,
          "name": "A3",
          "ticks": 15360,
          "time": 22.5,
          "velocity": 0.48031496062992124
        },
        {
          "duration": 0.1875,
          "durationTicks": 128,
          "midi": 62,
          "name": "D4",
          "ticks": 16128,
          "time": 23.625,
          "velocity": 0.6771653543307087
        },
        {
          "duration": 0.1875,
          "durationTicks": 128,
          "midi": 62,
          "name": "D4",
          "ticks": 16256,
          "time": 23.8125,
          "velocity": 0.7716535433070866
        },
        {
          "duration": 0.75,
          "durationTicks": 512,
          "midi": 62,
          "name": "D4",
          "ticks": 16384,
          "time": 24,
          "velocity": 0.7559055118110236
        },
        {
          "duration": 0.1875,
          "durationTicks": 128,
          "midi": 62,
          "name": "D4",
          "ticks": 17152,
          "time": 25.125,
          "velocity": 0.7007874015748031
        },
        {
          "duration": 0.1875,
          "durationTicks": 128,
          "midi": 62,
          "name": "D4",
          "ticks": 17280,
          "time": 25.3125,
          "velocity": 0.7401574803149606
        },
        {
          "duration": 0.75,
          "durationTicks": 512,
          "midi": 62,
          "name": "D4",
          "ticks": 17408,
          "time": 25.5,
          "velocity": 0.8031496062992126
        },
        {
          "duration": 0.1875,
          "durationTicks": 128,
          "midi": 62,
          "name": "D4",
          "ticks": 18176,
          "time": 26.625,
          "velocity": 0.6929133858267716
        },
        {
          "duration": 0.1875,
          "durationTicks": 128,
          "midi": 62,
          "name": "D4",
          "ticks": 18304,
          "time": 26.8125,
          "velocity": 0.7480314960629921
        },
        {
          "duration": 0.375,
          "durationTicks": 256,
          "midi": 62,
          "name": "D4",
          "ticks": 18432,
          "time": 27,
          "velocity": 0.8031496062992126
        },
        {
          "duration": 0.1875,
          "durationTicks": 128,
          "midi": 62,
          "name": "D4",
          "ticks": 18688,
          "time": 27.375,
          "velocity": 0.7795275590551181
        },
        {
          "duration": 0.1875,
          "durationTicks": 128,
          "midi": 62,
          "name": "D4",
          "ticks": 18816,
          "time": 27.5625,
          "velocity": 0.7716535433070866
        },
        {
          "duration": 0.375,
          "durationTicks": 256,
          "midi": 62,
          "name": "D4",
          "ticks": 18944,
          "time": 27.75,
          "velocity": 0.7401574803149606
        },
        {
          "duration": 0.1875,
          "durationTicks": 128,
          "midi": 62,
          "name": "D4",
          "ticks": 19200,
          "time": 28.125,
          "velocity": 0.7716535433070866
        },
        {
          "duration": 0.1875,
          "durationTicks": 128,
          "midi": 62,
          "name": "D4",
          "ticks": 19328,
          "time": 28.3125,
          "velocity": 0.7716535433070866
        },
        {
          "duration": 0.75,
          "durationTicks": 512,
          "midi": 62,
          "name": "D4",
          "ticks": 19456,
          "time": 28.5,
          "velocity": 0.7637795275590551
        },
        {
          "duration": 0.1875,
          "durationTicks": 128,
          "midi": 58,
          "name": "A#3",
          "ticks": 21504,
          "time": 31.5,
          "velocity": 0.4330708661417323
        },
        {
          "duration": 0.1875,
          "durationTicks": 128,
          "midi": 58,
          "name": "A#3",
          "ticks": 21632,
          "time": 31.6875,
          "velocity": 0.5039370078740157
        },
        {
          "duration": 0.1875,
          "durationTicks": 128,
          "midi": 67,
          "name": "G4",
          "ticks": 21760,
          "time": 31.875,
          "velocity": 0.5669291338582677
        },
        {
          "duration": 0.1875,
          "durationTicks": 128,
          "midi": 67,
          "name": "G4",
          "ticks": 21888,
          "time": 32.0625,
          "velocity": 0.49606299212598426
        },
        {
          "duration": 0.1875,
          "durationTicks": 128,
          "midi": 58,
          "name": "A#3",
          "ticks": 22016,
          "time": 32.25,
          "velocity": 0.4251968503937008
        },
        {
          "duration": 0.1875,
          "durationTicks": 128,
          "midi": 58,
          "name": "A#3",
          "ticks": 22144,
          "time": 32.4375,
          "velocity": 0.47244094488188976
        },
        {
          "duration": 0.1875,
          "durationTicks": 128,
          "midi": 67,
          "name": "G4",
          "ticks": 22272,
          "time": 32.625,
          "velocity": 0.6062992125984252
        },
        {
          "duration": 0.1875,
          "durationTicks": 128,
          "midi": 67,
          "name": "G4",
          "ticks": 22400,
          "time": 32.8125,
          "velocity": 0.5039370078740157
        },
        {
          "duration": 0.1875,
          "durationTicks": 128,
          "midi": 58,
          "name": "A#3",
          "ticks": 22528,
          "time": 33,
          "velocity": 0.4330708661417323
        },
        {
          "duration": 0.1875,
          "durationTicks": 128,
          "midi": 58,
          "name": "A#3",
          "ticks": 22656,
          "time": 33.1875,
          "velocity": 0.48031496062992124
        },
        {
          "duration": 0.1875,
          "durationTicks": 128,
          "midi": 62,
          "name": "D4",
          "ticks": 22784,
          "time": 33.375,
          "velocity": 0.5354330708661418
        },
        {
          "duration": 0.1875,
          "durationTicks": 128,
          "midi": 62,
          "name": "D4",
          "ticks": 22912,
          "time": 33.5625,
          "velocity": 0.47244094488188976
        },
        {
          "duration": 0.1875,
          "durationTicks": 128,
          "midi": 58,
          "name": "A#3",
          "ticks": 23040,
          "time": 33.75,
          "velocity": 0.47244094488188976
        },
        {
          "duration": 0.1875,
          "durationTicks": 128,
          "midi": 58,
          "name": "A#3",
          "ticks": 23168,
          "time": 33.9375,
          "velocity": 0.47244094488188976
        },
        {
          "duration": 0.1875,
          "durationTicks": 128,
          "midi": 67,
          "name": "G4",
          "ticks": 23296,
          "time": 34.125,
          "velocity": 0.5984251968503937
        },
        {
          "duration": 0.1875,
          "durationTicks": 128,
          "midi": 67,
          "name": "G4",
          "ticks": 23424,
          "time": 34.3125,
          "velocity": 0.47244094488188976
        },
        {
          "duration": 0.1875,
          "durationTicks": 128,
          "midi": 58,
          "name": "A#3",
          "ticks": 23552,
          "time": 34.5,
          "velocity": 0.4409448818897638
        },
        {
          "duration": 0.1875,
          "durationTicks": 128,
          "midi": 58,
          "name": "A#3",
          "ticks": 23680,
          "time": 34.6875,
          "velocity": 0.47244094488188976
        },
        {
          "duration": 0.1875,
          "durationTicks": 128,
          "midi": 67,
          "name": "G4",
          "ticks": 23808,
          "time": 34.875,
          "velocity": 0.5748031496062992
        },
        {
          "duration": 0.1875,
          "durationTicks": 128,
          "midi": 67,
          "name": "G4",
          "ticks": 23936,
          "time": 35.0625,
          "velocity": 0.5039370078740157
        },
        {
          "duration": 0.1875,
          "durationTicks": 128,
          "midi": 58,
          "name": "A#3",
          "ticks": 24064,
          "time": 35.25,
          "velocity": 0.4566929133858268
        },
        {
          "duration": 0.1875,
          "durationTicks": 128,
          "midi": 58,
          "name": "A#3",
          "ticks": 24192,
          "time": 35.4375,
          "velocity": 0.4881889763779528
        },
        {
          "duration": 0.1875,
          "durationTicks": 128,
          "midi": 67,
          "name": "G4",
          "ticks": 24320,
          "time": 35.625,
          "velocity": 0.5590551181102362
        },
        {
          "duration": 0.1875,
          "durationTicks": 128,
          "midi": 67,
          "name": "G4",
          "ticks": 24448,
          "time": 35.8125,
          "velocity": 0.5039370078740157
        },
        {
          "duration": 0.1875,
          "durationTicks": 128,
          "midi": 58,
          "name": "A#3",
          "ticks": 24576,
          "time": 36,
          "velocity": 0.4094488188976378
        },
        {
          "duration": 0.1875,
          "durationTicks": 128,
          "midi": 58,
          "name": "A#3",
          "ticks": 24704,
          "time": 36.1875,
          "velocity": 0.4566929133858268
        },
        {
          "duration": 0.1875,
          "durationTicks": 128,
          "midi": 67,
          "name": "G4",
          "ticks": 24832,
          "time": 36.375,
          "velocity": 0.5984251968503937
        },
        {
          "duration": 0.1875,
          "durationTicks": 128,
          "midi": 67,
          "name": "G4",
          "ticks": 24960,
          "time": 36.5625,
          "velocity": 0.4881889763779528
        },
        {
          "duration": 0.1875,
          "durationTicks": 128,
          "midi": 58,
          "name": "A#3",
          "ticks": 25088,
          "time": 36.75,
          "velocity": 0.4330708661417323
        },
        {
          "duration": 0.1875,
          "durationTicks": 128,
          "midi": 58,
          "name": "A#3",
          "ticks": 25216,
          "time": 36.9375,
          "velocity": 0.4645669291338583
        },
        {
          "duration": 0.1875,
          "durationTicks": 128,
          "midi": 67,
          "name": "G4",
          "ticks": 25344,
          "time": 37.125,
          "velocity": 0.5826771653543307
        },
        {
          "duration": 0.1875,
          "durationTicks": 128,
          "midi": 67,
          "name": "G4",
          "ticks": 25472,
          "time": 37.3125,
          "velocity": 0.4881889763779528
        },
        {
          "duration": 0.1875,
          "durationTicks": 128,
          "midi": 60,
          "name": "C4",
          "ticks": 25600,
          "time": 37.5,
          "velocity": 0.3779527559055118
        },
        {
          "duration": 0.1875,
          "durationTicks": 128,
          "midi": 60,
          "name": "C4",
          "ticks": 25728,
          "time": 37.6875,
          "velocity": 0.4566929133858268
        },
        {
          "duration": 0.1875,
          "durationTicks": 128,
          "midi": 69,
          "name": "A4",
          "ticks": 25856,
          "time": 37.875,
          "velocity": 0.5511811023622047
        },
        {
          "duration": 0.1875,
          "durationTicks": 128,
          "midi": 69,
          "name": "A4",
          "ticks": 25984,
          "time": 38.0625,
          "velocity": 0.4645669291338583
        },
        {
          "duration": 0.1875,
          "durationTicks": 128,
          "midi": 60,
          "name": "C4",
          "ticks": 26112,
          "time": 38.25,
          "velocity": 0.31496062992125984
        },
        {
          "duration": 0.1875,
          "durationTicks": 128,
          "midi": 60,
          "name": "C4",
          "ticks": 26240,
          "time": 38.4375,
          "velocity": 0.49606299212598426
        },
        {
          "duration": 0.1875,
          "durationTicks": 128,
          "midi": 69,
          "name": "A4",
          "ticks": 26368,
          "time": 38.625,
          "velocity": 0.5669291338582677
        },
        {
          "duration": 0.1875,
          "durationTicks": 128,
          "midi": 69,
          "name": "A4",
          "ticks": 26496,
          "time": 38.8125,
          "velocity": 0.49606299212598426
        },
        {
          "duration": 0.1875,
          "durationTicks": 128,
          "midi": 63,
          "name": "D#4",
          "ticks": 26624,
          "time": 39,
          "velocity": 0.3937007874015748
        },
        {
          "duration": 0.1875,
          "durationTicks": 128,
          "midi": 63,
          "name": "D#4",
          "ticks": 26752,
          "time": 39.1875,
          "velocity": 0.4645669291338583
        },
        {
          "duration": 0.1875,
          "durationTicks": 128,
          "midi": 72,
          "name": "C5",
          "ticks": 26880,
          "time": 39.375,
          "velocity": 0.5826771653543307
        },
        {
          "duration": 0.1875,
          "durationTicks": 128,
          "midi": 72,
          "name": "C5",
          "ticks": 27008,
          "time": 39.5625,
          "velocity": 0.5039370078740157
        },
        {
          "duration": 0.1875,
          "durationTicks": 128,
          "midi": 60,
          "name": "C4",
          "ticks": 27136,
          "time": 39.75,
          "velocity": 0.3464566929133858
        },
        {
          "duration": 0.1875,
          "durationTicks": 128,
          "midi": 60,
          "name": "C4",
          "ticks": 27264,
          "time": 39.9375,
          "velocity": 0.47244094488188976
        },
        {
          "duration": 0.1875,
          "durationTicks": 128,
          "midi": 69,
          "name": "A4",
          "ticks": 27392,
          "time": 40.125,
          "velocity": 0.5984251968503937
        },
        {
          "duration": 0.1875,
          "durationTicks": 128,
          "midi": 69,
          "name": "A4",
          "ticks": 27520,
          "time": 40.3125,
          "velocity": 0.49606299212598426
        },
        {
          "duration": 0.1875,
          "durationTicks": 128,
          "midi": 70,
          "name": "A#4",
          "ticks": 27648,
          "time": 40.5,
          "velocity": 0.8031496062992126
        },
        {
          "duration": 0.1875,
          "durationTicks": 128,
          "midi": 70,
          "name": "A#4",
          "ticks": 27776,
          "time": 40.6875,
          "velocity": 0.7322834645669292
        },
        {
          "duration": 0.1875,
          "durationTicks": 128,
          "midi": 74,
          "name": "D5",
          "ticks": 27904,
          "time": 40.875,
          "velocity": 0.8503937007874016
        },
        {
          "duration": 0.1875,
          "durationTicks": 128,
          "midi": 70,
          "name": "A#4",
          "ticks": 28032,
          "time": 41.0625,
          "velocity": 0.6929133858267716
        },
        {
          "duration": 0.1875,
          "durationTicks": 128,
          "midi": 74,
          "name": "D5",
          "ticks": 28160,
          "time": 41.25,
          "velocity": 0.8661417322834646
        },
        {
          "duration": 0.1875,
          "durationTicks": 128,
          "midi": 70,
          "name": "A#4",
          "ticks": 28288,
          "time": 41.4375,
          "velocity": 0.6850393700787402
        },
        {
          "duration": 0.1875,
          "durationTicks": 128,
          "midi": 74,
          "name": "D5",
          "ticks": 28416,
          "time": 41.625,
          "velocity": 0.8503937007874016
        },
        {
          "duration": 0.1875,
          "durationTicks": 128,
          "midi": 70,
          "name": "A#4",
          "ticks": 28544,
          "time": 41.8125,
          "velocity": 0.6929133858267716
        },
        {
          "duration": 0.1875,
          "durationTicks": 128,
          "midi": 72,
          "name": "C5",
          "ticks": 28672,
          "time": 42,
          "velocity": 0.8188976377952756
        },
        {
          "duration": 0.1875,
          "durationTicks": 128,
          "midi": 69,
          "name": "A4",
          "ticks": 28800,
          "time": 42.1875,
          "velocity": 0.6771653543307087
        },
        {
          "duration": 0.1875,
          "durationTicks": 128,
          "midi": 72,
          "name": "C5",
          "ticks": 28928,
          "time": 42.375,
          "velocity": 0.8110236220472441
        },
        {
          "duration": 0.1875,
          "durationTicks": 128,
          "midi": 69,
          "name": "A4",
          "ticks": 29056,
          "time": 42.5625,
          "velocity": 0.7086614173228346
        },
        {
          "duration": 0.1875,
          "durationTicks": 128,
          "midi": 72,
          "name": "C5",
          "ticks": 29184,
          "time": 42.75,
          "velocity": 0.8110236220472441
        },
        {
          "duration": 0.1875,
          "durationTicks": 128,
          "midi": 69,
          "name": "A4",
          "ticks": 29312,
          "time": 42.9375,
          "velocity": 0.7007874015748031
        },
        {
          "duration": 0.1875,
          "durationTicks": 128,
          "midi": 72,
          "name": "C5",
          "ticks": 29440,
          "time": 43.125,
          "velocity": 0.84251968503937
        },
        {
          "duration": 0.1875,
          "durationTicks": 128,
          "midi": 69,
          "name": "A4",
          "ticks": 29568,
          "time": 43.3125,
          "velocity": 0.7086614173228346
        },
        {
          "duration": 0.1875,
          "durationTicks": 128,
          "midi": 70,
          "name": "A#4",
          "ticks": 29696,
          "time": 43.5,
          "velocity": 0.8267716535433071
        },
        {
          "duration": 0.1875,
          "durationTicks": 128,
          "midi": 67,
          "name": "G4",
          "ticks": 29824,
          "time": 43.6875,
          "velocity": 0.7322834645669292
        },
        {
          "duration": 0.1875,
          "durationTicks": 128,
          "midi": 70,
          "name": "A#4",
          "ticks": 29952,
          "time": 43.875,
          "velocity": 0.84251968503937
        },
        {
          "duration": 0.1875,
          "durationTicks": 128,
          "midi": 67,
          "name": "G4",
          "ticks": 30080,
          "time": 44.0625,
          "velocity": 0.7322834645669292
        },
        {
          "duration": 0.1875,
          "durationTicks": 128,
          "midi": 70,
          "name": "A#4",
          "ticks": 30208,
          "time": 44.25,
          "velocity": 0.7952755905511811
        },
        {
          "duration": 0.1875,
          "durationTicks": 128,
          "midi": 67,
          "name": "G4",
          "ticks": 30336,
          "time": 44.4375,
          "velocity": 0.6614173228346457
        },
        {
          "duration": 0.1875,
          "durationTicks": 128,
          "midi": 70,
          "name": "A#4",
          "ticks": 30464,
          "time": 44.625,
          "velocity": 0.8031496062992126
        },
        {
          "duration": 0.1875,
          "durationTicks": 128,
          "midi": 67,
          "name": "G4",
          "ticks": 30592,
          "time": 44.8125,
          "velocity": 0.7401574803149606
        },
        {
          "duration": 0.1875,
          "durationTicks": 128,
          "midi": 70,
          "name": "A#4",
          "ticks": 30720,
          "time": 45,
          "velocity": 0.8031496062992126
        },
        {
          "duration": 0.1875,
          "durationTicks": 128,
          "midi": 65,
          "name": "F4",
          "ticks": 30848,
          "time": 45.1875,
          "velocity": 0.7165354330708661
        },
        {
          "duration": 0.1875,
          "durationTicks": 128,
          "midi": 70,
          "name": "A#4",
          "ticks": 30976,
          "time": 45.375,
          "velocity": 0.8582677165354331
        },
        {
          "duration": 0.1875,
          "durationTicks": 128,
          "midi": 65,
          "name": "F4",
          "ticks": 31104,
          "time": 45.5625,
          "velocity": 0.6614173228346457
        },
        {
          "duration": 0.1875,
          "durationTicks": 128,
          "midi": 70,
          "name": "A#4",
          "ticks": 31232,
          "time": 45.75,
          "velocity": 0.84251968503937
        },
        {
          "duration": 0.1875,
          "durationTicks": 128,
          "midi": 65,
          "name": "F4",
          "ticks": 31360,
          "time": 45.9375,
          "velocity": 0.6850393700787402
        },
        {
          "duration": 0.1875,
          "durationTicks": 128,
          "midi": 70,
          "name": "A#4",
          "ticks": 31488,
          "time": 46.125,
          "velocity": 0.8818897637795275
        },
        {
          "duration": 0.1875,
          "durationTicks": 128,
          "midi": 65,
          "name": "F4",
          "ticks": 31616,
          "time": 46.3125,
          "velocity": 0.6614173228346457
        },
        {
          "duration": 0.1875,
          "durationTicks": 128,
          "midi": 67,
          "name": "G4",
          "ticks": 31744,
          "time": 46.5,
          "velocity": 0.8110236220472441
        },
        {
          "duration": 0.1875,
          "durationTicks": 128,
          "midi": 63,
          "name": "D#4",
          "ticks": 31872,
          "time": 46.6875,
          "velocity": 0.6929133858267716
        },
        {
          "duration": 0.1875,
          "durationTicks": 128,
          "midi": 67,
          "name": "G4",
          "ticks": 32000,
          "time": 46.875,
          "velocity": 0.8267716535433071
        },
        {
          "duration": 0.1875,
          "durationTicks": 128,
          "midi": 63,
          "name": "D#4",
          "ticks": 32128,
          "time": 47.0625,
          "velocity": 0.6771653543307087
        },
        {
          "duration": 0.1875,
          "durationTicks": 128,
          "midi": 67,
          "name": "G4",
          "ticks": 32256,
          "time": 47.25,
          "velocity": 0.8740157480314961
        },
        {
          "duration": 0.1875,
          "durationTicks": 128,
          "midi": 63,
          "name": "D#4",
          "ticks": 32384,
          "time": 47.4375,
          "velocity": 0.6614173228346457
        },
        {
          "duration": 0.1875,
          "durationTicks": 128,
          "midi": 67,
          "name": "G4",
          "ticks": 32512,
          "time": 47.625,
          "velocity": 0.8582677165354331
        },
        {
          "duration": 0.1875,
          "durationTicks": 128,
          "midi": 63,
          "name": "D#4",
          "ticks": 32640,
          "time": 47.8125,
          "velocity": 0.6771653543307087
        },
        {
          "duration": 0.1875,
          "durationTicks": 128,
          "midi": 65,
          "name": "F4",
          "ticks": 32768,
          "time": 48,
          "velocity": 0.7874015748031497
        },
        {
          "duration": 0.1875,
          "durationTicks": 128,
          "midi": 62,
          "name": "D4",
          "ticks": 32896,
          "time": 48.1875,
          "velocity": 0.7165354330708661
        },
        {
          "duration": 0.1875,
          "durationTicks": 128,
          "midi": 65,
          "name": "F4",
          "ticks": 33024,
          "time": 48.375,
          "velocity": 0.8346456692913385
        },
        {
          "duration": 0.1875,
          "durationTicks": 128,
          "midi": 62,
          "name": "D4",
          "ticks": 33152,
          "time": 48.5625,
          "velocity": 0.6850393700787402
        },
        {
          "duration": 0.1875,
          "durationTicks": 128,
          "midi": 65,
          "name": "F4",
          "ticks": 33280,
          "time": 48.75,
          "velocity": 0.8503937007874016
        },
        {
          "duration": 0.1875,
          "durationTicks": 128,
          "midi": 62,
          "name": "D4",
          "ticks": 33408,
          "time": 48.9375,
          "velocity": 0.7007874015748031
        },
        {
          "duration": 0.1875,
          "durationTicks": 128,
          "midi": 65,
          "name": "F4",
          "ticks": 33536,
          "time": 49.125,
          "velocity": 0.8346456692913385
        },
        {
          "duration": 0.1875,
          "durationTicks": 128,
          "midi": 62,
          "name": "D4",
          "ticks": 33664,
          "time": 49.3125,
          "velocity": 0.6929133858267716
        },
        {
          "duration": 0.75,
          "durationTicks": 512,
          "midi": 60,
          "name": "C4",
          "ticks": 33792,
          "time": 49.5,
          "velocity": 0.7007874015748031
        },
        {
          "duration": 0.375,
          "durationTicks": 256,
          "midi": 60,
          "name": "C4",
          "ticks": 34816,
          "time": 51,
          "velocity": 0.7716535433070866
        },
        {
          "duration": 0.375,
          "durationTicks": 256,
          "midi": 61,
          "name": "C#4",
          "ticks": 35328,
          "time": 51.75,
          "velocity": 0.8110236220472441
        },
        {
          "duration": 0.375,
          "durationTicks": 256,
          "midi": 60,
          "name": "C4",
          "ticks": 35840,
          "time": 52.5,
          "velocity": 0.7322834645669292
        },
        {
          "duration": 0.375,
          "durationTicks": 256,
          "midi": 61,
          "name": "C#4",
          "ticks": 36352,
          "time": 53.25,
          "velocity": 0.7874015748031497
        },
        {
          "duration": 0.375,
          "durationTicks": 256,
          "midi": 60,
          "name": "C4",
          "ticks": 36864,
          "time": 54,
          "velocity": 0.7322834645669292
        },
        {
          "duration": 0.1875,
          "durationTicks": 128,
          "midi": 60,
          "name": "C4",
          "ticks": 37760,
          "time": 55.3125,
          "velocity": 0.6614173228346457
        },
        {
          "duration": 0.1875,
          "durationTicks": 128,
          "midi": 65,
          "name": "F4",
          "ticks": 37888,
          "time": 55.5,
          "velocity": 0.905511811023622
        },
        {
          "duration": 0.1875,
          "durationTicks": 128,
          "midi": 65,
          "name": "F4",
          "ticks": 38016,
          "time": 55.6875,
          "velocity": 0.7559055118110236
        },
        {
          "duration": 0.1875,
          "durationTicks": 128,
          "midi": 65,
          "name": "F4",
          "ticks": 38144,
          "time": 55.875,
          "velocity": 0.7795275590551181
        },
        {
          "duration": 0.1875,
          "durationTicks": 128,
          "midi": 65,
          "name": "F4",
          "ticks": 38272,
          "time": 56.0625,
          "velocity": 0.7952755905511811
        },
        {
          "duration": 0.1875,
          "durationTicks": 128,
          "midi": 69,
          "name": "A4",
          "ticks": 38400,
          "time": 56.25,
          "velocity": 0.8503937007874016
        },
        {
          "duration": 0.1875,
          "durationTicks": 128,
          "midi": 69,
          "name": "A4",
          "ticks": 38528,
          "time": 56.4375,
          "velocity": 0.8110236220472441
        },
        {
          "duration": 0.1875,
          "durationTicks": 128,
          "midi": 72,
          "name": "C5",
          "ticks": 38656,
          "time": 56.625,
          "velocity": 0.8267716535433071
        },
        {
          "duration": 0.1875,
          "durationTicks": 128,
          "midi": 72,
          "name": "C5",
          "ticks": 38784,
          "time": 56.8125,
          "velocity": 0.7952755905511811
        },
        {
          "duration": 0.1875,
          "durationTicks": 128,
          "midi": 70,
          "name": "A#4",
          "ticks": 38912,
          "time": 57,
          "velocity": 0.7086614173228346
        },
        {
          "duration": 0.1875,
          "durationTicks": 128,
          "midi": 70,
          "name": "A#4",
          "ticks": 39040,
          "time": 57.1875,
          "velocity": 0.7480314960629921
        },
        {
          "duration": 0.1875,
          "durationTicks": 128,
          "midi": 70,
          "name": "A#4",
          "ticks": 39168,
          "time": 57.375,
          "velocity": 0.7952755905511811
        },
        {
          "duration": 0.1875,
          "durationTicks": 128,
          "midi": 70,
          "name": "A#4",
          "ticks": 39296,
          "time": 57.5625,
          "velocity": 0.7480314960629921
        },
        {
          "duration": 0.1875,
          "durationTicks": 128,
          "midi": 70,
          "name": "A#4",
          "ticks": 39424,
          "time": 57.75,
          "velocity": 0.7480314960629921
        },
        {
          "duration": 0.1875,
          "durationTicks": 128,
          "midi": 70,
          "name": "A#4",
          "ticks": 39552,
          "time": 57.9375,
          "velocity": 0.7716535433070866
        },
        {
          "duration": 0.1875,
          "durationTicks": 128,
          "midi": 70,
          "name": "A#4",
          "ticks": 39680,
          "time": 58.125,
          "velocity": 0.7795275590551181
        },
        {
          "duration": 0.1875,
          "durationTicks": 128,
          "midi": 70,
          "name": "A#4",
          "ticks": 39808,
          "time": 58.3125,
          "velocity": 0.7637795275590551
        },
        {
          "duration": 0.1875,
          "durationTicks": 128,
          "midi": 69,
          "name": "A4",
          "ticks": 39936,
          "time": 58.5,
          "velocity": 0.7480314960629921
        },
        {
          "duration": 0.1875,
          "durationTicks": 128,
          "midi": 69,
          "name": "A4",
          "ticks": 40064,
          "time": 58.6875,
          "velocity": 0.7559055118110236
        },
        {
          "duration": 0.1875,
          "durationTicks": 128,
          "midi": 69,
          "name": "A4",
          "ticks": 40192,
          "time": 58.875,
          "velocity": 0.7637795275590551
        },
        {
          "duration": 0.1875,
          "durationTicks": 128,
          "midi": 69,
          "name": "A4",
          "ticks": 40320,
          "time": 59.0625,
          "velocity": 0.7559055118110236
        },
        {
          "duration": 0.1875,
          "durationTicks": 128,
          "midi": 69,
          "name": "A4",
          "ticks": 40448,
          "time": 59.25,
          "velocity": 0.8031496062992126
        },
        {
          "duration": 0.1875,
          "durationTicks": 128,
          "midi": 72,
          "name": "C5",
          "ticks": 40576,
          "time": 59.4375,
          "velocity": 0.84251968503937
        },
        {
          "duration": 0.1875,
          "durationTicks": 128,
          "midi": 69,
          "name": "A4",
          "ticks": 40704,
          "time": 59.625,
          "velocity": 0.6929133858267716
        },
        {
          "duration": 0.1875,
          "durationTicks": 128,
          "midi": 72,
          "name": "C5",
          "ticks": 40832,
          "time": 59.8125,
          "velocity": 0.8188976377952756
        },
        {
          "duration": 0.1875,
          "durationTicks": 128,
          "midi": 70,
          "name": "A#4",
          "ticks": 40960,
          "time": 60,
          "velocity": 0.7401574803149606
        },
        {
          "duration": 0.1875,
          "durationTicks": 128,
          "midi": 70,
          "name": "A#4",
          "ticks": 41088,
          "time": 60.1875,
          "velocity": 0.7559055118110236
        },
        {
          "duration": 0.1875,
          "durationTicks": 128,
          "midi": 70,
          "name": "A#4",
          "ticks": 41216,
          "time": 60.375,
          "velocity": 0.7716535433070866
        },
        {
          "duration": 0.1875,
          "durationTicks": 128,
          "midi": 70,
          "name": "A#4",
          "ticks": 41344,
          "time": 60.5625,
          "velocity": 0.7952755905511811
        },
        {
          "duration": 0.1875,
          "durationTicks": 128,
          "midi": 67,
          "name": "G4",
          "ticks": 41472,
          "time": 60.75,
          "velocity": 0.6771653543307087
        },
        {
          "duration": 0.1875,
          "durationTicks": 128,
          "midi": 64,
          "name": "E4",
          "ticks": 41600,
          "time": 60.9375,
          "velocity": 0.6929133858267716
        },
        {
          "duration": 0.1875,
          "durationTicks": 128,
          "midi": 67,
          "name": "G4",
          "ticks": 41728,
          "time": 61.125,
          "velocity": 0.8267716535433071
        },
        {
          "duration": 0.1875,
          "durationTicks": 128,
          "midi": 64,
          "name": "E4",
          "ticks": 41856,
          "time": 61.3125,
          "velocity": 0.7322834645669292
        },
        {
          "duration": 0.375,
          "durationTicks": 256,
          "midi": 65,
          "name": "F4",
          "ticks": 41984,
          "time": 61.5,
          "velocity": 0.7952755905511811
        },
        {
          "duration": 0.375,
          "durationTicks": 256,
          "midi": 53,
          "name": "F3",
          "ticks": 42496,
          "time": 62.25,
          "velocity": 0.7165354330708661
        },
        {
          "duration": 1.14697265625,
          "durationTicks": 783,
          "midi": 62,
          "name": "D4",
          "ticks": 44032,
          "time": 64.5,
          "velocity": 0.4566929133858268
        },
        {
          "duration": 0.38232421875,
          "durationTicks": 261,
          "midi": 60,
          "name": "C4",
          "ticks": 44800,
          "time": 65.625,
          "velocity": 0.41732283464566927
        },
        {
          "duration": 0.35595703125,
          "durationTicks": 243,
          "midi": 57,
          "name": "A3",
          "ticks": 45056,
          "time": 66,
          "velocity": 0.44881889763779526
        },
        {
          "duration": 0.1875,
          "durationTicks": 128,
          "midi": 62,
          "name": "D4",
          "ticks": 46336,
          "time": 67.875,
          "velocity": 0.41732283464566927
        },
        {
          "duration": 0.38232421875,
          "durationTicks": 261,
          "midi": 62,
          "name": "D4",
          "ticks": 46592,
          "time": 68.25,
          "velocity": 0.48031496062992124
        },
        {
          "duration": 0.35595703125,
          "durationTicks": 243,
          "midi": 67,
          "name": "G4",
          "ticks": 46848,
          "time": 68.625,
          "velocity": 0.5826771653543307
        },
        {
          "duration": 0.75,
          "durationTicks": 512,
          "midi": 65,
          "name": "F4",
          "ticks": 47104,
          "time": 69,
          "velocity": 0.48031496062992124
        },
        {
          "duration": 1.14697265625,
          "durationTicks": 783,
          "midi": 55,
          "name": "G3",
          "ticks": 48128,
          "time": 70.5,
          "velocity": 0.47244094488188976
        },
        {
          "duration": 0.38232421875,
          "durationTicks": 261,
          "midi": 57,
          "name": "A3",
          "ticks": 48896,
          "time": 71.625,
          "velocity": 0.4881889763779528
        },
        {
          "duration": 0.38232421875,
          "durationTicks": 261,
          "midi": 59,
          "name": "B3",
          "ticks": 49152,
          "time": 72,
          "velocity": 0.4881889763779528
        },
        {
          "duration": 0.38232421875,
          "durationTicks": 261,
          "midi": 60,
          "name": "C4",
          "ticks": 49408,
          "time": 72.375,
          "velocity": 0.5354330708661418
        },
        {
          "duration": 0.38232421875,
          "durationTicks": 261,
          "midi": 57,
          "name": "A3",
          "ticks": 49664,
          "time": 72.75,
          "velocity": 0.48031496062992124
        },
        {
          "duration": 0.35595703125,
          "durationTicks": 243,
          "midi": 58,
          "name": "A#3",
          "ticks": 49920,
          "time": 73.125,
          "velocity": 0.49606299212598426
        },
        {
          "duration": 0.375,
          "durationTicks": 256,
          "midi": 55,
          "name": "G3",
          "ticks": 50176,
          "time": 73.5,
          "velocity": 0.47244094488188976
        },
        {
          "duration": 0.375,
          "durationTicks": 256,
          "midi": 60,
          "name": "C4",
          "ticks": 50688,
          "time": 74.25,
          "velocity": 0.44881889763779526
        },
        {
          "duration": 0.375,
          "durationTicks": 256,
          "midi": 50,
          "name": "D3",
          "ticks": 51200,
          "time": 75,
          "velocity": 0.4251968503937008
        },
        {
          "duration": 1.14697265625,
          "durationTicks": 783,
          "midi": 55,
          "name": "G3",
          "ticks": 56320,
          "time": 82.5,
          "velocity": 0.4330708661417323
        },
        {
          "duration": 0.38232421875,
          "durationTicks": 261,
          "midi": 57,
          "name": "A3",
          "ticks": 57088,
          "time": 83.625,
          "velocity": 0.4409448818897638
        },
        {
          "duration": 0.7646484375,
          "durationTicks": 522,
          "midi": 55,
          "name": "G3",
          "ticks": 57344,
          "time": 84,
          "velocity": 0.4881889763779528
        },
        {
          "duration": 0.7119140625,
          "durationTicks": 486,
          "midi": 53,
          "name": "F3",
          "ticks": 57856,
          "time": 84.75,
          "velocity": 0.48031496062992124
        },
        {
          "duration": 0.1904296875,
          "durationTicks": 130,
          "midi": 58,
          "name": "A#3",
          "ticks": 58368,
          "time": 85.5,
          "velocity": 0.5039370078740157
        },
        {
          "duration": 0.1904296875,
          "durationTicks": 130,
          "midi": 55,
          "name": "G3",
          "ticks": 58496,
          "time": 85.6875,
          "velocity": 0.5275590551181102
        },
        {
          "duration": 0.1904296875,
          "durationTicks": 130,
          "midi": 58,
          "name": "A#3",
          "ticks": 58624,
          "time": 85.875,
          "velocity": 0.49606299212598426
        },
        {
          "duration": 0.1904296875,
          "durationTicks": 130,
          "midi": 55,
          "name": "G3",
          "ticks": 58752,
          "time": 86.0625,
          "velocity": 0.48031496062992124
        },
        {
          "duration": 0.1904296875,
          "durationTicks": 130,
          "midi": 58,
          "name": "A#3",
          "ticks": 58880,
          "time": 86.25,
          "velocity": 0.49606299212598426
        },
        {
          "duration": 0.1904296875,
          "durationTicks": 130,
          "midi": 55,
          "name": "G3",
          "ticks": 59008,
          "time": 86.4375,
          "velocity": 0.47244094488188976
        },
        {
          "duration": 0.1904296875,
          "durationTicks": 130,
          "midi": 56,
          "name": "G#3",
          "ticks": 59136,
          "time": 86.625,
          "velocity": 0.49606299212598426
        },
        {
          "duration": 0.17724609375,
          "durationTicks": 121,
          "midi": 60,
          "name": "C4",
          "ticks": 59264,
          "time": 86.8125,
          "velocity": 0.5669291338582677
        },
        {
          "duration": 0.1904296875,
          "durationTicks": 130,
          "midi": 58,
          "name": "A#3",
          "ticks": 59392,
          "time": 87,
          "velocity": 0.47244094488188976
        },
        {
          "duration": 0.1904296875,
          "durationTicks": 130,
          "midi": 55,
          "name": "G3",
          "ticks": 59520,
          "time": 87.1875,
          "velocity": 0.4409448818897638
        },
        {
          "duration": 0.1904296875,
          "durationTicks": 130,
          "midi": 58,
          "name": "A#3",
          "ticks": 59648,
          "time": 87.375,
          "velocity": 0.49606299212598426
        },
        {
          "duration": 0.1904296875,
          "durationTicks": 130,
          "midi": 55,
          "name": "G3",
          "ticks": 59776,
          "time": 87.5625,
          "velocity": 0.48031496062992124
        },
        {
          "duration": 0.1904296875,
          "durationTicks": 130,
          "midi": 58,
          "name": "A#3",
          "ticks": 59904,
          "time": 87.75,
          "velocity": 0.49606299212598426
        },
        {
          "duration": 0.1904296875,
          "durationTicks": 130,
          "midi": 55,
          "name": "G3",
          "ticks": 60032,
          "time": 87.9375,
          "velocity": 0.49606299212598426
        },
        {
          "duration": 0.1904296875,
          "durationTicks": 130,
          "midi": 56,
          "name": "G#3",
          "ticks": 60160,
          "time": 88.125,
          "velocity": 0.48031496062992124
        },
        {
          "duration": 0.17724609375,
          "durationTicks": 121,
          "midi": 60,
          "name": "C4",
          "ticks": 60288,
          "time": 88.3125,
          "velocity": 0.5354330708661418
        },
        {
          "duration": 0.1904296875,
          "durationTicks": 130,
          "midi": 58,
          "name": "A#3",
          "ticks": 60416,
          "time": 88.5,
          "velocity": 0.4645669291338583
        },
        {
          "duration": 0.1904296875,
          "durationTicks": 130,
          "midi": 55,
          "name": "G3",
          "ticks": 60544,
          "time": 88.6875,
          "velocity": 0.4330708661417323
        },
        {
          "duration": 0.1904296875,
          "durationTicks": 130,
          "midi": 58,
          "name": "A#3",
          "ticks": 60672,
          "time": 88.875,
          "velocity": 0.5196850393700787
        },
        {
          "duration": 0.1904296875,
          "durationTicks": 130,
          "midi": 55,
          "name": "G3",
          "ticks": 60800,
          "time": 89.0625,
          "velocity": 0.47244094488188976
        },
        {
          "duration": 0.1904296875,
          "durationTicks": 130,
          "midi": 58,
          "name": "A#3",
          "ticks": 60928,
          "time": 89.25,
          "velocity": 0.5039370078740157
        },
        {
          "duration": 0.1904296875,
          "durationTicks": 130,
          "midi": 55,
          "name": "G3",
          "ticks": 61056,
          "time": 89.4375,
          "velocity": 0.4645669291338583
        },
        {
          "duration": 0.1904296875,
          "durationTicks": 130,
          "midi": 56,
          "name": "G#3",
          "ticks": 61184,
          "time": 89.625,
          "velocity": 0.4881889763779528
        },
        {
          "duration": 0.17724609375,
          "durationTicks": 121,
          "midi": 60,
          "name": "C4",
          "ticks": 61312,
          "time": 89.8125,
          "velocity": 0.5511811023622047
        },
        {
          "duration": 0.1904296875,
          "durationTicks": 130,
          "midi": 58,
          "name": "A#3",
          "ticks": 61440,
          "time": 90,
          "velocity": 0.4566929133858268
        },
        {
          "duration": 0.1904296875,
          "durationTicks": 130,
          "midi": 55,
          "name": "G3",
          "ticks": 61568,
          "time": 90.1875,
          "velocity": 0.4251968503937008
        },
        {
          "duration": 0.1904296875,
          "durationTicks": 130,
          "midi": 58,
          "name": "A#3",
          "ticks": 61696,
          "time": 90.375,
          "velocity": 0.5118110236220472
        },
        {
          "duration": 0.1904296875,
          "durationTicks": 130,
          "midi": 55,
          "name": "G3",
          "ticks": 61824,
          "time": 90.5625,
          "velocity": 0.49606299212598426
        },
        {
          "duration": 0.1904296875,
          "durationTicks": 130,
          "midi": 58,
          "name": "A#3",
          "ticks": 61952,
          "time": 90.75,
          "velocity": 0.5039370078740157
        },
        {
          "duration": 0.1904296875,
          "durationTicks": 130,
          "midi": 55,
          "name": "G3",
          "ticks": 62080,
          "time": 90.9375,
          "velocity": 0.5196850393700787
        },
        {
          "duration": 0.1904296875,
          "durationTicks": 130,
          "midi": 56,
          "name": "G#3",
          "ticks": 62208,
          "time": 91.125,
          "velocity": 0.49606299212598426
        },
        {
          "duration": 0.17724609375,
          "durationTicks": 121,
          "midi": 60,
          "name": "C4",
          "ticks": 62336,
          "time": 91.3125,
          "velocity": 0.5511811023622047
        },
        {
          "duration": 0.1875,
          "durationTicks": 128,
          "midi": 55,
          "name": "G3",
          "ticks": 62464,
          "time": 91.5,
          "velocity": 0.4251968503937008
        },
        {
          "duration": 0.1875,
          "durationTicks": 128,
          "midi": 55,
          "name": "G3",
          "ticks": 62592,
          "time": 91.6875,
          "velocity": 0.5196850393700787
        },
        {
          "duration": 0.1875,
          "durationTicks": 128,
          "midi": 55,
          "name": "G3",
          "ticks": 62720,
          "time": 91.875,
          "velocity": 0.5118110236220472
        },
        {
          "duration": 0.1875,
          "durationTicks": 128,
          "midi": 55,
          "name": "G3",
          "ticks": 62848,
          "time": 92.0625,
          "velocity": 0.5118110236220472
        },
        {
          "duration": 0.1875,
          "durationTicks": 128,
          "midi": 55,
          "name": "G3",
          "ticks": 62976,
          "time": 92.25,
          "velocity": 0.5590551181102362
        },
        {
          "duration": 0.1875,
          "durationTicks": 128,
          "midi": 55,
          "name": "G3",
          "ticks": 63104,
          "time": 92.4375,
          "velocity": 0.5590551181102362
        },
        {
          "duration": 0.1875,
          "durationTicks": 128,
          "midi": 55,
          "name": "G3",
          "ticks": 63232,
          "time": 92.625,
          "velocity": 0.5905511811023622
        },
        {
          "duration": 0.1875,
          "durationTicks": 128,
          "midi": 55,
          "name": "G3",
          "ticks": 63360,
          "time": 92.8125,
          "velocity": 0.6299212598425197
        },
        {
          "duration": 0.1875,
          "durationTicks": 128,
          "midi": 55,
          "name": "G3",
          "ticks": 63488,
          "time": 93,
          "velocity": 0.6062992125984252
        },
        {
          "duration": 0.1875,
          "durationTicks": 128,
          "midi": 67,
          "name": "G4",
          "ticks": 63616,
          "time": 93.1875,
          "velocity": 0.8188976377952756
        },
        {
          "duration": 0.1875,
          "durationTicks": 128,
          "midi": 67,
          "name": "G4",
          "ticks": 63744,
          "time": 93.375,
          "velocity": 0.6614173228346457
        },
        {
          "duration": 0.1875,
          "durationTicks": 128,
          "midi": 67,
          "name": "G4",
          "ticks": 63872,
          "time": 93.5625,
          "velocity": 0.6850393700787402
        },
        {
          "duration": 0.1875,
          "durationTicks": 128,
          "midi": 67,
          "name": "G4",
          "ticks": 64000,
          "time": 93.75,
          "velocity": 0.6929133858267716
        },
        {
          "duration": 0.1875,
          "durationTicks": 128,
          "midi": 67,
          "name": "G4",
          "ticks": 64128,
          "time": 93.9375,
          "velocity": 0.7086614173228346
        },
        {
          "duration": 0.1875,
          "durationTicks": 128,
          "midi": 67,
          "name": "G4",
          "ticks": 64256,
          "time": 94.125,
          "velocity": 0.7401574803149606
        },
        {
          "duration": 0.1875,
          "durationTicks": 128,
          "midi": 67,
          "name": "G4",
          "ticks": 64384,
          "time": 94.3125,
          "velocity": 0.7480314960629921
        },
        {
          "duration": 0.1875,
          "durationTicks": 128,
          "midi": 65,
          "name": "F4",
          "ticks": 64512,
          "time": 94.5,
          "velocity": 0.7165354330708661
        },
        {
          "duration": 0.1875,
          "durationTicks": 128,
          "midi": 65,
          "name": "F4",
          "ticks": 64640,
          "time": 94.6875,
          "velocity": 0.7637795275590551
        },
        {
          "duration": 0.1875,
          "durationTicks": 128,
          "midi": 65,
          "name": "F4",
          "ticks": 64768,
          "time": 94.875,
          "velocity": 0.7716535433070866
        },
        {
          "duration": 0.1875,
          "durationTicks": 128,
          "midi": 65,
          "name": "F4",
          "ticks": 64896,
          "time": 95.0625,
          "velocity": 0.7322834645669292
        },
        {
          "duration": 0.1875,
          "durationTicks": 128,
          "midi": 65,
          "name": "F4",
          "ticks": 65024,
          "time": 95.25,
          "velocity": 0.8031496062992126
        },
        {
          "duration": 0.1875,
          "durationTicks": 128,
          "midi": 65,
          "name": "F4",
          "ticks": 65152,
          "time": 95.4375,
          "velocity": 0.7401574803149606
        },
        {
          "duration": 0.1875,
          "durationTicks": 128,
          "midi": 65,
          "name": "F4",
          "ticks": 65280,
          "time": 95.625,
          "velocity": 0.8031496062992126
        },
        {
          "duration": 0.1875,
          "durationTicks": 128,
          "midi": 65,
          "name": "F4",
          "ticks": 65408,
          "time": 95.8125,
          "velocity": 0.7952755905511811
        },
        {
          "duration": 0.1875,
          "durationTicks": 128,
          "midi": 53,
          "name": "F3",
          "ticks": 65536,
          "time": 96,
          "velocity": 0.6299212598425197
        },
        {
          "duration": 0.1875,
          "durationTicks": 128,
          "midi": 53,
          "name": "F3",
          "ticks": 65664,
          "time": 96.1875,
          "velocity": 0.7480314960629921
        },
        {
          "duration": 0.1875,
          "durationTicks": 128,
          "midi": 53,
          "name": "F3",
          "ticks": 65792,
          "time": 96.375,
          "velocity": 0.7716535433070866
        },
        {
          "duration": 0.1875,
          "durationTicks": 128,
          "midi": 53,
          "name": "F3",
          "ticks": 65920,
          "time": 96.5625,
          "velocity": 0.8188976377952756
        },
        {
          "duration": 0.1875,
          "durationTicks": 128,
          "midi": 53,
          "name": "F3",
          "ticks": 66048,
          "time": 96.75,
          "velocity": 0.7244094488188977
        },
        {
          "duration": 0.1875,
          "durationTicks": 128,
          "midi": 53,
          "name": "F3",
          "ticks": 66176,
          "time": 96.9375,
          "velocity": 0.7716535433070866
        },
        {
          "duration": 0.1875,
          "durationTicks": 128,
          "midi": 53,
          "name": "F3",
          "ticks": 66304,
          "time": 97.125,
          "velocity": 0.7559055118110236
        },
        {
          "duration": 0.1875,
          "durationTicks": 128,
          "midi": 53,
          "name": "F3",
          "ticks": 66432,
          "time": 97.3125,
          "velocity": 0.7716535433070866
        },
        {
          "duration": 0.375,
          "durationTicks": 256,
          "midi": 58,
          "name": "A#3",
          "ticks": 66560,
          "time": 97.5,
          "velocity": 0.8031496062992126
        },
        {
          "duration": 0.75,
          "durationTicks": 512,
          "midi": 50,
          "name": "D3",
          "ticks": 66816,
          "time": 97.875,
          "velocity": 0.7007874015748031
        },
        {
          "duration": 0.1875,
          "durationTicks": 128,
          "midi": 51,
          "name": "D#3",
          "ticks": 67328,
          "time": 98.625,
          "velocity": 0.7716535433070866
        },
        {
          "duration": 0.1875,
          "durationTicks": 128,
          "midi": 52,
          "name": "E3",
          "ticks": 67584,
          "time": 99,
          "velocity": 0.8031496062992126
        },
        {
          "duration": 0.1875,
          "durationTicks": 128,
          "midi": 53,
          "name": "F3",
          "ticks": 67840,
          "time": 99.375,
          "velocity": 0.7874015748031497
        },
        {
          "duration": 0.1875,
          "durationTicks": 128,
          "midi": 54,
          "name": "F#3",
          "ticks": 68096,
          "time": 99.75,
          "velocity": 0.8110236220472441
        },
        {
          "duration": 0.1875,
          "durationTicks": 128,
          "midi": 55,
          "name": "G3",
          "ticks": 68352,
          "time": 100.125,
          "velocity": 0.8188976377952756
        },
        {
          "duration": 0.375,
          "durationTicks": 256,
          "midi": 56,
          "name": "G#3",
          "ticks": 68608,
          "time": 100.5,
          "velocity": 0.7795275590551181
        },
        {
          "duration": 0.09375,
          "durationTicks": 64,
          "midi": 56,
          "name": "G#3",
          "ticks": 69056,
          "time": 101.15625,
          "velocity": 0.7007874015748031
        },
        {
          "duration": 0.375,
          "durationTicks": 256,
          "midi": 55,
          "name": "G3",
          "ticks": 69120,
          "time": 101.25,
          "velocity": 0.7165354330708661
        },
        {
          "duration": 0.09375,
          "durationTicks": 64,
          "midi": 55,
          "name": "G3",
          "ticks": 69568,
          "time": 101.90625,
          "velocity": 0.6850393700787402
        },
        {
          "duration": 0.375,
          "durationTicks": 256,
          "midi": 63,
          "name": "D#4",
          "ticks": 69632,
          "time": 102,
          "velocity": 0.9133858267716536
        },
        {
          "duration": 0.09375,
          "durationTicks": 64,
          "midi": 63,
          "name": "D#4",
          "ticks": 70080,
          "time": 102.65625,
          "velocity": 0.6850393700787402
        },
        {
          "duration": 0.375,
          "durationTicks": 256,
          "midi": 62,
          "name": "D4",
          "ticks": 70144,
          "time": 102.75,
          "velocity": 0.7401574803149606
        },
        {
          "duration": 0.09375,
          "durationTicks": 64,
          "midi": 62,
          "name": "D4",
          "ticks": 70592,
          "time": 103.40625,
          "velocity": 0.6692913385826772
        },
        {
          "duration": 0.375,
          "durationTicks": 256,
          "midi": 51,
          "name": "D#3",
          "ticks": 70656,
          "time": 103.5,
          "velocity": 0.6771653543307087
        },
        {
          "duration": 0.375,
          "durationTicks": 256,
          "midi": 53,
          "name": "F3",
          "ticks": 71680,
          "time": 105,
          "velocity": 0.4330708661417323
        },
        {
          "duration": 1.5,
          "durationTicks": 1024,
          "midi": 51,
          "name": "D#3",
          "ticks": 74240,
          "time": 108.75,
          "velocity": 0.4251968503937008
        },
        {
          "duration": 0.35595703125,
          "durationTicks": 243,
          "midi": 50,
          "name": "D3",
          "ticks": 75264,
          "time": 110.25,
          "velocity": 0.4645669291338583
        },
        {
          "duration": 1.5,
          "durationTicks": 1024,
          "midi": 51,
          "name": "D#3",
          "ticks": 76288,
          "time": 111.75,
          "velocity": 0.41732283464566927
        },
        {
          "duration": 0.35595703125,
          "durationTicks": 243,
          "midi": 50,
          "name": "D3",
          "ticks": 77312,
          "time": 113.25,
          "velocity": 0.48031496062992124
        },
        {
          "duration": 0.1875,
          "durationTicks": 128,
          "midi": 62,
          "name": "D4",
          "ticks": 77824,
          "time": 114,
          "velocity": 0.6929133858267716
        },
        {
          "duration": 0.1875,
          "durationTicks": 128,
          "midi": 62,
          "name": "D4",
          "ticks": 77952,
          "time": 114.1875,
          "velocity": 0.7401574803149606
        },
        {
          "duration": 0.1875,
          "durationTicks": 128,
          "midi": 62,
          "name": "D4",
          "ticks": 78080,
          "time": 114.375,
          "velocity": 0.7795275590551181
        },
        {
          "duration": 0.1875,
          "durationTicks": 128,
          "midi": 62,
          "name": "D4",
          "ticks": 78208,
          "time": 114.5625,
          "velocity": 0.7795275590551181
        },
        {
          "duration": 0.1875,
          "durationTicks": 128,
          "midi": 62,
          "name": "D4",
          "ticks": 78336,
          "time": 114.75,
          "velocity": 0.7322834645669292
        },
        {
          "duration": 0.1875,
          "durationTicks": 128,
          "midi": 62,
          "name": "D4",
          "ticks": 78464,
          "time": 114.9375,
          "velocity": 0.7637795275590551
        },
        {
          "duration": 0.1875,
          "durationTicks": 128,
          "midi": 62,
          "name": "D4",
          "ticks": 78592,
          "time": 115.125,
          "velocity": 0.7559055118110236
        },
        {
          "duration": 0.1875,
          "durationTicks": 128,
          "midi": 62,
          "name": "D4",
          "ticks": 78720,
          "time": 115.3125,
          "velocity": 0.7874015748031497
        },
        {
          "duration": 0.1875,
          "durationTicks": 128,
          "midi": 67,
          "name": "G4",
          "ticks": 78848,
          "time": 115.5,
          "velocity": 0.8267716535433071
        },
        {
          "duration": 0.1875,
          "durationTicks": 128,
          "midi": 67,
          "name": "G4",
          "ticks": 78976,
          "time": 115.6875,
          "velocity": 0.7874015748031497
        },
        {
          "duration": 0.1875,
          "durationTicks": 128,
          "midi": 67,
          "name": "G4",
          "ticks": 79104,
          "time": 115.875,
          "velocity": 0.7401574803149606
        },
        {
          "duration": 0.1875,
          "durationTicks": 128,
          "midi": 67,
          "name": "G4",
          "ticks": 79232,
          "time": 116.0625,
          "velocity": 0.8267716535433071
        },
        {
          "duration": 0.1875,
          "durationTicks": 128,
          "midi": 63,
          "name": "D#4",
          "ticks": 79360,
          "time": 116.25,
          "velocity": 0.6929133858267716
        },
        {
          "duration": 0.1875,
          "durationTicks": 128,
          "midi": 63,
          "name": "D#4",
          "ticks": 79488,
          "time": 116.4375,
          "velocity": 0.7322834645669292
        },
        {
          "duration": 0.1875,
          "durationTicks": 128,
          "midi": 63,
          "name": "D#4",
          "ticks": 79616,
          "time": 116.625,
          "velocity": 0.7637795275590551
        },
        {
          "duration": 0.1875,
          "durationTicks": 128,
          "midi": 63,
          "name": "D#4",
          "ticks": 79744,
          "time": 116.8125,
          "velocity": 0.7637795275590551
        },
        {
          "duration": 0.1875,
          "durationTicks": 128,
          "midi": 65,
          "name": "F4",
          "ticks": 79872,
          "time": 117,
          "velocity": 0.8110236220472441
        },
        {
          "duration": 0.1875,
          "durationTicks": 128,
          "midi": 65,
          "name": "F4",
          "ticks": 80000,
          "time": 117.1875,
          "velocity": 0.7480314960629921
        },
        {
          "duration": 0.1875,
          "durationTicks": 128,
          "midi": 65,
          "name": "F4",
          "ticks": 80128,
          "time": 117.375,
          "velocity": 0.8110236220472441
        },
        {
          "duration": 0.1875,
          "durationTicks": 128,
          "midi": 65,
          "name": "F4",
          "ticks": 80256,
          "time": 117.5625,
          "velocity": 0.7716535433070866
        },
        {
          "duration": 0.1875,
          "durationTicks": 128,
          "midi": 53,
          "name": "F3",
          "ticks": 80384,
          "time": 117.75,
          "velocity": 0.6771653543307087
        },
        {
          "duration": 0.1875,
          "durationTicks": 128,
          "midi": 53,
          "name": "F3",
          "ticks": 80512,
          "time": 117.9375,
          "velocity": 0.7559055118110236
        },
        {
          "duration": 0.1875,
          "durationTicks": 128,
          "midi": 53,
          "name": "F3",
          "ticks": 80640,
          "time": 118.125,
          "velocity": 0.7952755905511811
        },
        {
          "duration": 0.1875,
          "durationTicks": 128,
          "midi": 53,
          "name": "F3",
          "ticks": 80768,
          "time": 118.3125,
          "velocity": 0.8110236220472441
        },
        {
          "duration": 0.375,
          "durationTicks": 256,
          "midi": 58,
          "name": "A#3",
          "ticks": 80896,
          "time": 118.5,
          "velocity": 0.7795275590551181
        },
        {
          "duration": 1.875,
          "durationTicks": 1280,
          "midi": 70,
          "name": "A#4",
          "ticks": 81408,
          "time": 119.25,
          "velocity": 0.44881889763779526
        },
        {
          "duration": 1.5,
          "durationTicks": 1024,
          "midi": 58,
          "name": "A#3",
          "ticks": 83456,
          "time": 122.25,
          "velocity": 0.4251968503937008
        },
        {
          "duration": 0.35595703125,
          "durationTicks": 243,
          "midi": 57,
          "name": "A3",
          "ticks": 84480,
          "time": 123.75,
          "velocity": 0.44881889763779526
        },
        {
          "duration": 0.1875,
          "durationTicks": 128,
          "midi": 62,
          "name": "D4",
          "ticks": 86016,
          "time": 126,
          "velocity": 0.6929133858267716
        },
        {
          "duration": 0.1875,
          "durationTicks": 128,
          "midi": 62,
          "name": "D4",
          "ticks": 86144,
          "time": 126.1875,
          "velocity": 0.7716535433070866
        },
        {
          "duration": 0.1875,
          "durationTicks": 128,
          "midi": 62,
          "name": "D4",
          "ticks": 86272,
          "time": 126.375,
          "velocity": 0.7874015748031497
        },
        {
          "duration": 0.1875,
          "durationTicks": 128,
          "midi": 62,
          "name": "D4",
          "ticks": 86400,
          "time": 126.5625,
          "velocity": 0.7716535433070866
        },
        {
          "duration": 0.1875,
          "durationTicks": 128,
          "midi": 62,
          "name": "D4",
          "ticks": 86528,
          "time": 126.75,
          "velocity": 0.7401574803149606
        },
        {
          "duration": 0.1875,
          "durationTicks": 128,
          "midi": 62,
          "name": "D4",
          "ticks": 86656,
          "time": 126.9375,
          "velocity": 0.7874015748031497
        },
        {
          "duration": 0.1875,
          "durationTicks": 128,
          "midi": 62,
          "name": "D4",
          "ticks": 86784,
          "time": 127.125,
          "velocity": 0.7795275590551181
        },
        {
          "duration": 0.1875,
          "durationTicks": 128,
          "midi": 62,
          "name": "D4",
          "ticks": 86912,
          "time": 127.3125,
          "velocity": 0.7480314960629921
        },
        {
          "duration": 0.1875,
          "durationTicks": 128,
          "midi": 67,
          "name": "G4",
          "ticks": 87040,
          "time": 127.5,
          "velocity": 0.8740157480314961
        },
        {
          "duration": 0.1875,
          "durationTicks": 128,
          "midi": 67,
          "name": "G4",
          "ticks": 87168,
          "time": 127.6875,
          "velocity": 0.7401574803149606
        },
        {
          "duration": 0.1875,
          "durationTicks": 128,
          "midi": 67,
          "name": "G4",
          "ticks": 87296,
          "time": 127.875,
          "velocity": 0.7952755905511811
        },
        {
          "duration": 0.1875,
          "durationTicks": 128,
          "midi": 67,
          "name": "G4",
          "ticks": 87424,
          "time": 128.0625,
          "velocity": 0.7874015748031497
        },
        {
          "duration": 0.1875,
          "durationTicks": 128,
          "midi": 63,
          "name": "D#4",
          "ticks": 87552,
          "time": 128.25,
          "velocity": 0.6850393700787402
        },
        {
          "duration": 0.1875,
          "durationTicks": 128,
          "midi": 63,
          "name": "D#4",
          "ticks": 87680,
          "time": 128.4375,
          "velocity": 0.7401574803149606
        },
        {
          "duration": 0.1875,
          "durationTicks": 128,
          "midi": 63,
          "name": "D#4",
          "ticks": 87808,
          "time": 128.625,
          "velocity": 0.7952755905511811
        },
        {
          "duration": 0.1875,
          "durationTicks": 128,
          "midi": 63,
          "name": "D#4",
          "ticks": 87936,
          "time": 128.8125,
          "velocity": 0.7165354330708661
        },
        {
          "duration": 0.1875,
          "durationTicks": 128,
          "midi": 65,
          "name": "F4",
          "ticks": 88064,
          "time": 129,
          "velocity": 0.7874015748031497
        },
        {
          "duration": 0.1875,
          "durationTicks": 128,
          "midi": 65,
          "name": "F4",
          "ticks": 88192,
          "time": 129.1875,
          "velocity": 0.7637795275590551
        },
        {
          "duration": 0.1875,
          "durationTicks": 128,
          "midi": 65,
          "name": "F4",
          "ticks": 88320,
          "time": 129.375,
          "velocity": 0.7874015748031497
        },
        {
          "duration": 0.1875,
          "durationTicks": 128,
          "midi": 65,
          "name": "F4",
          "ticks": 88448,
          "time": 129.5625,
          "velocity": 0.7716535433070866
        },
        {
          "duration": 0.1875,
          "durationTicks": 128,
          "midi": 53,
          "name": "F3",
          "ticks": 88576,
          "time": 129.75,
          "velocity": 0.6850393700787402
        },
        {
          "duration": 0.1875,
          "durationTicks": 128,
          "midi": 53,
          "name": "F3",
          "ticks": 88704,
          "time": 129.9375,
          "velocity": 0.7165354330708661
        },
        {
          "duration": 0.1875,
          "durationTicks": 128,
          "midi": 53,
          "name": "F3",
          "ticks": 88832,
          "time": 130.125,
          "velocity": 0.7480314960629921
        },
        {
          "duration": 0.1875,
          "durationTicks": 128,
          "midi": 53,
          "name": "F3",
          "ticks": 88960,
          "time": 130.3125,
          "velocity": 0.8110236220472441
        },
        {
          "duration": 0.75,
          "durationTicks": 512,
          "midi": 58,
          "name": "A#3",
          "ticks": 89088,
          "time": 130.5,
          "velocity": 0.8031496062992126
        },
        {
          "duration": 0.1875,
          "durationTicks": 128,
          "midi": 77,
          "name": "F5",
          "ticks": 89984,
          "time": 131.8125,
          "velocity": 0.7086614173228346
        },
        {
          "duration": 0.1875,
          "durationTicks": 128,
          "midi": 75,
          "name": "D#5",
          "ticks": 90112,
          "time": 132,
          "velocity": 0.7007874015748031
        },
        {
          "duration": 0.1875,
          "durationTicks": 128,
          "midi": 74,
          "name": "D5",
          "ticks": 90240,
          "time": 132.1875,
          "velocity": 0.6929133858267716
        },
        {
          "duration": 0.1875,
          "durationTicks": 128,
          "midi": 72,
          "name": "C5",
          "ticks": 90368,
          "time": 132.375,
          "velocity": 0.6850393700787402
        },
        {
          "duration": 0.1875,
          "durationTicks": 128,
          "midi": 70,
          "name": "A#4",
          "ticks": 90496,
          "time": 132.5625,
          "velocity": 0.7244094488188977
        },
        {
          "duration": 0.1875,
          "durationTicks": 128,
          "midi": 69,
          "name": "A4",
          "ticks": 90624,
          "time": 132.75,
          "velocity": 0.7165354330708661
        },
        {
          "duration": 0.1875,
          "durationTicks": 128,
          "midi": 67,
          "name": "G4",
          "ticks": 90752,
          "time": 132.9375,
          "velocity": 0.7165354330708661
        },
        {
          "duration": 0.1875,
          "durationTicks": 128,
          "midi": 65,
          "name": "F4",
          "ticks": 90880,
          "time": 133.125,
          "velocity": 0.7244094488188977
        },
        {
          "duration": 0.1875,
          "durationTicks": 128,
          "midi": 63,
          "name": "D#4",
          "ticks": 91008,
          "time": 133.3125,
          "velocity": 0.6929133858267716
        },
        {
          "duration": 0.375,
          "durationTicks": 256,
          "midi": 62,
          "name": "D4",
          "ticks": 91136,
          "time": 133.5,
          "velocity": 0.7401574803149606
        },
        {
          "duration": 0.375,
          "durationTicks": 256,
          "midi": 62,
          "name": "D4",
          "ticks": 91392,
          "time": 133.875,
          "velocity": 0.7716535433070866
        },
        {
          "duration": 0.375,
          "durationTicks": 256,
          "midi": 63,
          "name": "D#4",
          "ticks": 91648,
          "time": 134.25,
          "velocity": 0.7874015748031497
        },
        {
          "duration": 0.375,
          "durationTicks": 256,
          "midi": 65,
          "name": "F4",
          "ticks": 91904,
          "time": 134.625,
          "velocity": 0.8188976377952756
        },
        {
          "duration": 0.1875,
          "durationTicks": 128,
          "midi": 70,
          "name": "A#4",
          "ticks": 92160,
          "time": 135,
          "velocity": 0.8818897637795275
        },
        {
          "duration": 0.1875,
          "durationTicks": 128,
          "midi": 65,
          "name": "F4",
          "ticks": 92288,
          "time": 135.1875,
          "velocity": 0.7086614173228346
        },
        {
          "duration": 0.1875,
          "durationTicks": 128,
          "midi": 74,
          "name": "D5",
          "ticks": 92416,
          "time": 135.375,
          "velocity": 0.9291338582677166
        },
        {
          "duration": 0.1875,
          "durationTicks": 128,
          "midi": 72,
          "name": "C5",
          "ticks": 92544,
          "time": 135.5625,
          "velocity": 0.7165354330708661
        },
        {
          "duration": 0.1875,
          "durationTicks": 128,
          "midi": 70,
          "name": "A#4",
          "ticks": 92672,
          "time": 135.75,
          "velocity": 0.7244094488188977
        },
        {
          "duration": 0.1875,
          "durationTicks": 128,
          "midi": 69,
          "name": "A4",
          "ticks": 92800,
          "time": 135.9375,
          "velocity": 0.7322834645669292
        },
        {
          "duration": 0.1875,
          "durationTicks": 128,
          "midi": 67,
          "name": "G4",
          "ticks": 92928,
          "time": 136.125,
          "velocity": 0.7401574803149606
        },
        {
          "duration": 0.1875,
          "durationTicks": 128,
          "midi": 65,
          "name": "F4",
          "ticks": 93056,
          "time": 136.3125,
          "velocity": 0.7401574803149606
        },
        {
          "duration": 0.1875,
          "durationTicks": 128,
          "midi": 63,
          "name": "D#4",
          "ticks": 93184,
          "time": 136.5,
          "velocity": 0.7244094488188977
        },
        {
          "duration": 0.1875,
          "durationTicks": 128,
          "midi": 62,
          "name": "D4",
          "ticks": 93312,
          "time": 136.6875,
          "velocity": 0.6929133858267716
        },
        {
          "duration": 0.1875,
          "durationTicks": 128,
          "midi": 60,
          "name": "C4",
          "ticks": 93440,
          "time": 136.875,
          "velocity": 0.7165354330708661
        },
        {
          "duration": 0.1875,
          "durationTicks": 128,
          "midi": 58,
          "name": "A#3",
          "ticks": 93568,
          "time": 137.0625,
          "velocity": 0.7322834645669292
        },
        {
          "duration": 0.1875,
          "durationTicks": 128,
          "midi": 57,
          "name": "A3",
          "ticks": 93696,
          "time": 137.25,
          "velocity": 0.7795275590551181
        },
        {
          "duration": 0.1875,
          "durationTicks": 128,
          "midi": 60,
          "name": "C4",
          "ticks": 93824,
          "time": 137.4375,
          "velocity": 0.8267716535433071
        },
        {
          "duration": 0.1875,
          "durationTicks": 128,
          "midi": 65,
          "name": "F4",
          "ticks": 93952,
          "time": 137.625,
          "velocity": 0.8740157480314961
        },
        {
          "duration": 0.1875,
          "durationTicks": 128,
          "midi": 63,
          "name": "D#4",
          "ticks": 94080,
          "time": 137.8125,
          "velocity": 0.7244094488188977
        },
        {
          "duration": 0.375,
          "durationTicks": 256,
          "midi": 62,
          "name": "D4",
          "ticks": 94208,
          "time": 138,
          "velocity": 0.7480314960629921
        },
        {
          "duration": 0.375,
          "durationTicks": 256,
          "midi": 62,
          "name": "D4",
          "ticks": 94464,
          "time": 138.375,
          "velocity": 0.7244094488188977
        },
        {
          "duration": 0.375,
          "durationTicks": 256,
          "midi": 63,
          "name": "D#4",
          "ticks": 94720,
          "time": 138.75,
          "velocity": 0.8110236220472441
        },
        {
          "duration": 0.375,
          "durationTicks": 256,
          "midi": 65,
          "name": "F4",
          "ticks": 94976,
          "time": 139.125,
          "velocity": 0.8188976377952756
        },
        {
          "duration": 0.375,
          "durationTicks": 256,
          "midi": 67,
          "name": "G4",
          "ticks": 95232,
          "time": 139.5,
          "velocity": 0.8582677165354331
        },
        {
          "duration": 0.375,
          "durationTicks": 256,
          "midi": 63,
          "name": "D#4",
          "ticks": 95488,
          "time": 139.875,
          "velocity": 0.6929133858267716
        },
        {
          "duration": 0.375,
          "durationTicks": 256,
          "midi": 65,
          "name": "F4",
          "ticks": 95744,
          "time": 140.25,
          "velocity": 0.8031496062992126
        },
        {
          "duration": 0.375,
          "durationTicks": 256,
          "midi": 53,
          "name": "F3",
          "ticks": 96000,
          "time": 140.625,
          "velocity": 0.6692913385826772
        },
        {
          "duration": 0.375,
          "durationTicks": 256,
          "midi": 58,
          "name": "A#3",
          "ticks": 96256,
          "time": 141,
          "velocity": 0.8503937007874016
        },
        {
          "duration": 0.375,
          "durationTicks": 256,
          "midi": 65,
          "name": "F4",
          "ticks": 96768,
          "time": 141.75,
          "velocity": 0.6929133858267716
        },
        {
          "duration": 0.375,
          "durationTicks": 256,
          "midi": 70,
          "name": "A#4",
          "ticks": 97280,
          "time": 142.5,
          "velocity": 0.6771653543307087
        },
        {
          "duration": 0.375,
          "durationTicks": 256,
          "midi": 65,
          "name": "F4",
          "ticks": 97792,
          "time": 143.25,
          "velocity": 0.6692913385826772
        },
        {
          "duration": 0.375,
          "durationTicks": 256,
          "midi": 70,
          "name": "A#4",
          "ticks": 98304,
          "time": 144,
          "velocity": 0.6771653543307087
        },
        {
          "duration": 0.375,
          "durationTicks": 256,
          "midi": 65,
          "name": "F4",
          "ticks": 98816,
          "time": 144.75,
          "velocity": 0.7007874015748031
        },
        {
          "duration": 0.375,
          "durationTicks": 256,
          "midi": 70,
          "name": "A#4",
          "ticks": 99328,
          "time": 145.5,
          "velocity": 0.6929133858267716
        },
        {
          "duration": 0.375,
          "durationTicks": 256,
          "midi": 65,
          "name": "F4",
          "ticks": 99584,
          "time": 145.875,
          "velocity": 0.6377952755905512
        },
        {
          "duration": 0.375,
          "durationTicks": 256,
          "midi": 70,
          "name": "A#4",
          "ticks": 99840,
          "time": 146.25,
          "velocity": 0.889763779527559
        },
        {
          "duration": 0.375,
          "durationTicks": 256,
          "midi": 65,
          "name": "F4",
          "ticks": 100096,
          "time": 146.625,
          "velocity": 0.6692913385826772
        },
        {
          "duration": 0.375,
          "durationTicks": 256,
          "midi": 70,
          "name": "A#4",
          "ticks": 100352,
          "time": 147,
          "velocity": 0.8818897637795275
        },
        {
          "duration": 0.375,
          "durationTicks": 256,
          "midi": 69,
          "name": "A4",
          "ticks": 101376,
          "time": 148.5,
          "velocity": 0.6692913385826772
        },
        {
          "duration": 0.1875,
          "durationTicks": 128,
          "midi": 58,
          "name": "A#3",
          "ticks": 102400,
          "time": 150,
          "velocity": 0.4094488188976378
        },
        {
          "duration": 0.1875,
          "durationTicks": 128,
          "midi": 58,
          "name": "A#3",
          "ticks": 102528,
          "time": 150.1875,
          "velocity": 0.44881889763779526
        },
        {
          "duration": 0.1875,
          "durationTicks": 128,
          "midi": 67,
          "name": "G4",
          "ticks": 102656,
          "time": 150.375,
          "velocity": 0.5748031496062992
        },
        {
          "duration": 0.1875,
          "durationTicks": 128,
          "midi": 67,
          "name": "G4",
          "ticks": 102784,
          "time": 150.5625,
          "velocity": 0.48031496062992124
        },
        {
          "duration": 0.1875,
          "durationTicks": 128,
          "midi": 58,
          "name": "A#3",
          "ticks": 102912,
          "time": 150.75,
          "velocity": 0.4251968503937008
        },
        {
          "duration": 0.1875,
          "durationTicks": 128,
          "midi": 58,
          "name": "A#3",
          "ticks": 103040,
          "time": 150.9375,
          "velocity": 0.4881889763779528
        },
        {
          "duration": 0.1875,
          "durationTicks": 128,
          "midi": 67,
          "name": "G4",
          "ticks": 103168,
          "time": 151.125,
          "velocity": 0.6062992125984252
        },
        {
          "duration": 0.1875,
          "durationTicks": 128,
          "midi": 67,
          "name": "G4",
          "ticks": 103296,
          "time": 151.3125,
          "velocity": 0.5118110236220472
        },
        {
          "duration": 0.1875,
          "durationTicks": 128,
          "midi": 58,
          "name": "A#3",
          "ticks": 103424,
          "time": 151.5,
          "velocity": 0.4094488188976378
        },
        {
          "duration": 0.1875,
          "durationTicks": 128,
          "midi": 58,
          "name": "A#3",
          "ticks": 103552,
          "time": 151.6875,
          "velocity": 0.47244094488188976
        },
        {
          "duration": 0.1875,
          "durationTicks": 128,
          "midi": 67,
          "name": "G4",
          "ticks": 103680,
          "time": 151.875,
          "velocity": 0.5590551181102362
        },
        {
          "duration": 0.1875,
          "durationTicks": 128,
          "midi": 67,
          "name": "G4",
          "ticks": 103808,
          "time": 152.0625,
          "velocity": 0.44881889763779526
        },
        {
          "duration": 0.1875,
          "durationTicks": 128,
          "midi": 58,
          "name": "A#3",
          "ticks": 103936,
          "time": 152.25,
          "velocity": 0.4094488188976378
        },
        {
          "duration": 0.1875,
          "durationTicks": 128,
          "midi": 58,
          "name": "A#3",
          "ticks": 104064,
          "time": 152.4375,
          "velocity": 0.5118110236220472
        },
        {
          "duration": 0.1875,
          "durationTicks": 128,
          "midi": 67,
          "name": "G4",
          "ticks": 104192,
          "time": 152.625,
          "velocity": 0.5590551181102362
        },
        {
          "duration": 0.1875,
          "durationTicks": 128,
          "midi": 67,
          "name": "G4",
          "ticks": 104320,
          "time": 152.8125,
          "velocity": 0.48031496062992124
        },
        {
          "duration": 0.1875,
          "durationTicks": 128,
          "midi": 58,
          "name": "A#3",
          "ticks": 104448,
          "time": 153,
          "velocity": 0.4251968503937008
        },
        {
          "duration": 0.1875,
          "durationTicks": 128,
          "midi": 58,
          "name": "A#3",
          "ticks": 104576,
          "time": 153.1875,
          "velocity": 0.4645669291338583
        },
        {
          "duration": 0.1875,
          "durationTicks": 128,
          "midi": 67,
          "name": "G4",
          "ticks": 104704,
          "time": 153.375,
          "velocity": 0.6141732283464567
        },
        {
          "duration": 0.1875,
          "durationTicks": 128,
          "midi": 67,
          "name": "G4",
          "ticks": 104832,
          "time": 153.5625,
          "velocity": 0.4566929133858268
        },
        {
          "duration": 0.1875,
          "durationTicks": 128,
          "midi": 58,
          "name": "A#3",
          "ticks": 104960,
          "time": 153.75,
          "velocity": 0.4330708661417323
        },
        {
          "duration": 0.1875,
          "durationTicks": 128,
          "midi": 58,
          "name": "A#3",
          "ticks": 105088,
          "time": 153.9375,
          "velocity": 0.49606299212598426
        },
        {
          "duration": 0.1875,
          "durationTicks": 128,
          "midi": 67,
          "name": "G4",
          "ticks": 105216,
          "time": 154.125,
          "velocity": 0.5826771653543307
        },
        {
          "duration": 0.1875,
          "durationTicks": 128,
          "midi": 67,
          "name": "G4",
          "ticks": 105344,
          "time": 154.3125,
          "velocity": 0.49606299212598426
        },
        {
          "duration": 0.1875,
          "durationTicks": 128,
          "midi": 58,
          "name": "A#3",
          "ticks": 105472,
          "time": 154.5,
          "velocity": 0.4251968503937008
        },
        {
          "duration": 0.1875,
          "durationTicks": 128,
          "midi": 58,
          "name": "A#3",
          "ticks": 105600,
          "time": 154.6875,
          "velocity": 0.4645669291338583
        },
        {
          "duration": 0.1875,
          "durationTicks": 128,
          "midi": 62,
          "name": "D4",
          "ticks": 105728,
          "time": 154.875,
          "velocity": 0.5118110236220472
        },
        {
          "duration": 0.1875,
          "durationTicks": 128,
          "midi": 62,
          "name": "D4",
          "ticks": 105856,
          "time": 155.0625,
          "velocity": 0.5039370078740157
        },
        {
          "duration": 0.1875,
          "durationTicks": 128,
          "midi": 58,
          "name": "A#3",
          "ticks": 105984,
          "time": 155.25,
          "velocity": 0.47244094488188976
        },
        {
          "duration": 0.1875,
          "durationTicks": 128,
          "midi": 58,
          "name": "A#3",
          "ticks": 106112,
          "time": 155.4375,
          "velocity": 0.47244094488188976
        },
        {
          "duration": 0.1875,
          "durationTicks": 128,
          "midi": 67,
          "name": "G4",
          "ticks": 106240,
          "time": 155.625,
          "velocity": 0.5984251968503937
        },
        {
          "duration": 0.1875,
          "durationTicks": 128,
          "midi": 67,
          "name": "G4",
          "ticks": 106368,
          "time": 155.8125,
          "velocity": 0.4881889763779528
        },
        {
          "duration": 0.1875,
          "durationTicks": 128,
          "midi": 63,
          "name": "D#4",
          "ticks": 106496,
          "time": 156,
          "velocity": 0.44881889763779526
        },
        {
          "duration": 0.1875,
          "durationTicks": 128,
          "midi": 63,
          "name": "D#4",
          "ticks": 106624,
          "time": 156.1875,
          "velocity": 0.4566929133858268
        },
        {
          "duration": 0.1875,
          "durationTicks": 128,
          "midi": 69,
          "name": "A4",
          "ticks": 106752,
          "time": 156.375,
          "velocity": 0.5826771653543307
        },
        {
          "duration": 0.1875,
          "durationTicks": 128,
          "midi": 69,
          "name": "A4",
          "ticks": 106880,
          "time": 156.5625,
          "velocity": 0.5118110236220472
        },
        {
          "duration": 0.1875,
          "durationTicks": 128,
          "midi": 63,
          "name": "D#4",
          "ticks": 107008,
          "time": 156.75,
          "velocity": 0.4015748031496063
        },
        {
          "duration": 0.1875,
          "durationTicks": 128,
          "midi": 63,
          "name": "D#4",
          "ticks": 107136,
          "time": 156.9375,
          "velocity": 0.47244094488188976
        },
        {
          "duration": 0.1875,
          "durationTicks": 128,
          "midi": 69,
          "name": "A4",
          "ticks": 107264,
          "time": 157.125,
          "velocity": 0.5196850393700787
        },
        {
          "duration": 0.1875,
          "durationTicks": 128,
          "midi": 69,
          "name": "A4",
          "ticks": 107392,
          "time": 157.3125,
          "velocity": 0.4566929133858268
        },
        {
          "duration": 0.1875,
          "durationTicks": 128,
          "midi": 63,
          "name": "D#4",
          "ticks": 107520,
          "time": 157.5,
          "velocity": 0.4330708661417323
        },
        {
          "duration": 0.1875,
          "durationTicks": 128,
          "midi": 63,
          "name": "D#4",
          "ticks": 107648,
          "time": 157.6875,
          "velocity": 0.4881889763779528
        },
        {
          "duration": 0.1875,
          "durationTicks": 128,
          "midi": 69,
          "name": "A4",
          "ticks": 107776,
          "time": 157.875,
          "velocity": 0.5354330708661418
        },
        {
          "duration": 0.1875,
          "durationTicks": 128,
          "midi": 69,
          "name": "A4",
          "ticks": 107904,
          "time": 158.0625,
          "velocity": 0.5039370078740157
        },
        {
          "duration": 0.1875,
          "durationTicks": 128,
          "midi": 63,
          "name": "D#4",
          "ticks": 108032,
          "time": 158.25,
          "velocity": 0.4251968503937008
        },
        {
          "duration": 0.1875,
          "durationTicks": 128,
          "midi": 63,
          "name": "D#4",
          "ticks": 108160,
          "time": 158.4375,
          "velocity": 0.47244094488188976
        },
        {
          "duration": 0.1875,
          "durationTicks": 128,
          "midi": 69,
          "name": "A4",
          "ticks": 108288,
          "time": 158.625,
          "velocity": 0.5433070866141733
        },
        {
          "duration": 0.1875,
          "durationTicks": 128,
          "midi": 69,
          "name": "A4",
          "ticks": 108416,
          "time": 158.8125,
          "velocity": 0.49606299212598426
        },
        {
          "duration": 0.1875,
          "durationTicks": 128,
          "midi": 62,
          "name": "D4",
          "ticks": 108544,
          "time": 159,
          "velocity": 0.4015748031496063
        },
        {
          "duration": 0.1875,
          "durationTicks": 128,
          "midi": 62,
          "name": "D4",
          "ticks": 108672,
          "time": 159.1875,
          "velocity": 0.4645669291338583
        },
        {
          "duration": 0.1875,
          "durationTicks": 128,
          "midi": 72,
          "name": "C5",
          "ticks": 108800,
          "time": 159.375,
          "velocity": 0.5826771653543307
        },
        {
          "duration": 0.1875,
          "durationTicks": 128,
          "midi": 72,
          "name": "C5",
          "ticks": 108928,
          "time": 159.5625,
          "velocity": 0.47244094488188976
        },
        {
          "duration": 0.1875,
          "durationTicks": 128,
          "midi": 62,
          "name": "D4",
          "ticks": 109056,
          "time": 159.75,
          "velocity": 0.36220472440944884
        },
        {
          "duration": 0.1875,
          "durationTicks": 128,
          "midi": 62,
          "name": "D4",
          "ticks": 109184,
          "time": 159.9375,
          "velocity": 0.4645669291338583
        },
        {
          "duration": 0.1875,
          "durationTicks": 128,
          "midi": 72,
          "name": "C5",
          "ticks": 109312,
          "time": 160.125,
          "velocity": 0.5905511811023622
        },
        {
          "duration": 0.1875,
          "durationTicks": 128,
          "midi": 72,
          "name": "C5",
          "ticks": 109440,
          "time": 160.3125,
          "velocity": 0.47244094488188976
        },
        {
          "duration": 0.1875,
          "durationTicks": 128,
          "midi": 60,
          "name": "C4",
          "ticks": 109568,
          "time": 160.5,
          "velocity": 0.3779527559055118
        },
        {
          "duration": 0.1875,
          "durationTicks": 128,
          "midi": 60,
          "name": "C4",
          "ticks": 109696,
          "time": 160.6875,
          "velocity": 0.4251968503937008
        },
        {
          "duration": 0.1875,
          "durationTicks": 128,
          "midi": 69,
          "name": "A4",
          "ticks": 109824,
          "time": 160.875,
          "velocity": 0.5905511811023622
        },
        {
          "duration": 0.1875,
          "durationTicks": 128,
          "midi": 69,
          "name": "A4",
          "ticks": 109952,
          "time": 161.0625,
          "velocity": 0.5118110236220472
        },
        {
          "duration": 0.1875,
          "durationTicks": 128,
          "midi": 66,
          "name": "F#4",
          "ticks": 110080,
          "time": 161.25,
          "velocity": 0.4330708661417323
        },
        {
          "duration": 0.1875,
          "durationTicks": 128,
          "midi": 66,
          "name": "F#4",
          "ticks": 110208,
          "time": 161.4375,
          "velocity": 0.4881889763779528
        },
        {
          "duration": 0.1875,
          "durationTicks": 128,
          "midi": 69,
          "name": "A4",
          "ticks": 110336,
          "time": 161.625,
          "velocity": 0.49606299212598426
        },
        {
          "duration": 0.1875,
          "durationTicks": 128,
          "midi": 69,
          "name": "A4",
          "ticks": 110464,
          "time": 161.8125,
          "velocity": 0.4881889763779528
        },
        {
          "duration": 0.1875,
          "durationTicks": 128,
          "midi": 62,
          "name": "D4",
          "ticks": 110592,
          "time": 162,
          "velocity": 0.4409448818897638
        },
        {
          "duration": 0.1875,
          "durationTicks": 128,
          "midi": 62,
          "name": "D4",
          "ticks": 110720,
          "time": 162.1875,
          "velocity": 0.4251968503937008
        },
        {
          "duration": 0.1875,
          "durationTicks": 128,
          "midi": 67,
          "name": "G4",
          "ticks": 110848,
          "time": 162.375,
          "velocity": 0.5511811023622047
        },
        {
          "duration": 0.1875,
          "durationTicks": 128,
          "midi": 67,
          "name": "G4",
          "ticks": 110976,
          "time": 162.5625,
          "velocity": 0.4881889763779528
        },
        {
          "duration": 0.1875,
          "durationTicks": 128,
          "midi": 62,
          "name": "D4",
          "ticks": 111104,
          "time": 162.75,
          "velocity": 0.41732283464566927
        },
        {
          "duration": 0.1875,
          "durationTicks": 128,
          "midi": 62,
          "name": "D4",
          "ticks": 111232,
          "time": 162.9375,
          "velocity": 0.4881889763779528
        },
        {
          "duration": 0.1875,
          "durationTicks": 128,
          "midi": 67,
          "name": "G4",
          "ticks": 111360,
          "time": 163.125,
          "velocity": 0.5275590551181102
        },
        {
          "duration": 0.1875,
          "durationTicks": 128,
          "midi": 67,
          "name": "G4",
          "ticks": 111488,
          "time": 163.3125,
          "velocity": 0.4881889763779528
        },
        {
          "duration": 0.1875,
          "durationTicks": 128,
          "midi": 63,
          "name": "D#4",
          "ticks": 111616,
          "time": 163.5,
          "velocity": 0.4330708661417323
        },
        {
          "duration": 0.1875,
          "durationTicks": 128,
          "midi": 63,
          "name": "D#4",
          "ticks": 111744,
          "time": 163.6875,
          "velocity": 0.5039370078740157
        },
        {
          "duration": 0.1875,
          "durationTicks": 128,
          "midi": 66,
          "name": "F#4",
          "ticks": 111872,
          "time": 163.875,
          "velocity": 0.5354330708661418
        },
        {
          "duration": 0.1875,
          "durationTicks": 128,
          "midi": 66,
          "name": "F#4",
          "ticks": 112000,
          "time": 164.0625,
          "velocity": 0.4881889763779528
        },
        {
          "duration": 0.1875,
          "durationTicks": 128,
          "midi": 63,
          "name": "D#4",
          "ticks": 112128,
          "time": 164.25,
          "velocity": 0.44881889763779526
        },
        {
          "duration": 0.1875,
          "durationTicks": 128,
          "midi": 63,
          "name": "D#4",
          "ticks": 112256,
          "time": 164.4375,
          "velocity": 0.4881889763779528
        },
        {
          "duration": 0.1875,
          "durationTicks": 128,
          "midi": 66,
          "name": "F#4",
          "ticks": 112384,
          "time": 164.625,
          "velocity": 0.5196850393700787
        },
        {
          "duration": 0.1875,
          "durationTicks": 128,
          "midi": 66,
          "name": "F#4",
          "ticks": 112512,
          "time": 164.8125,
          "velocity": 0.5118110236220472
        },
        {
          "duration": 0.1875,
          "durationTicks": 128,
          "midi": 62,
          "name": "D4",
          "ticks": 112640,
          "time": 165,
          "velocity": 0.3858267716535433
        },
        {
          "duration": 0.1875,
          "durationTicks": 128,
          "midi": 62,
          "name": "D4",
          "ticks": 112768,
          "time": 165.1875,
          "velocity": 0.4409448818897638
        },
        {
          "duration": 0.1875,
          "durationTicks": 128,
          "midi": 67,
          "name": "G4",
          "ticks": 112896,
          "time": 165.375,
          "velocity": 0.5433070866141733
        },
        {
          "duration": 0.1875,
          "durationTicks": 128,
          "midi": 67,
          "name": "G4",
          "ticks": 113024,
          "time": 165.5625,
          "velocity": 0.5118110236220472
        },
        {
          "duration": 0.1875,
          "durationTicks": 128,
          "midi": 62,
          "name": "D4",
          "ticks": 113152,
          "time": 165.75,
          "velocity": 0.41732283464566927
        },
        {
          "duration": 0.1875,
          "durationTicks": 128,
          "midi": 62,
          "name": "D4",
          "ticks": 113280,
          "time": 165.9375,
          "velocity": 0.4251968503937008
        },
        {
          "duration": 0.1875,
          "durationTicks": 128,
          "midi": 67,
          "name": "G4",
          "ticks": 113408,
          "time": 166.125,
          "velocity": 0.5354330708661418
        },
        {
          "duration": 0.1875,
          "durationTicks": 128,
          "midi": 67,
          "name": "G4",
          "ticks": 113536,
          "time": 166.3125,
          "velocity": 0.5039370078740157
        },
        {
          "duration": 0.1875,
          "durationTicks": 128,
          "midi": 63,
          "name": "D#4",
          "ticks": 113664,
          "time": 166.5,
          "velocity": 0.44881889763779526
        },
        {
          "duration": 0.1875,
          "durationTicks": 128,
          "midi": 63,
          "name": "D#4",
          "ticks": 113792,
          "time": 166.6875,
          "velocity": 0.48031496062992124
        },
        {
          "duration": 0.1875,
          "durationTicks": 128,
          "midi": 66,
          "name": "F#4",
          "ticks": 113920,
          "time": 166.875,
          "velocity": 0.5433070866141733
        },
        {
          "duration": 0.1875,
          "durationTicks": 128,
          "midi": 66,
          "name": "F#4",
          "ticks": 114048,
          "time": 167.0625,
          "velocity": 0.4881889763779528
        },
        {
          "duration": 0.1875,
          "durationTicks": 128,
          "midi": 63,
          "name": "D#4",
          "ticks": 114176,
          "time": 167.25,
          "velocity": 0.41732283464566927
        },
        {
          "duration": 0.1875,
          "durationTicks": 128,
          "midi": 63,
          "name": "D#4",
          "ticks": 114304,
          "time": 167.4375,
          "velocity": 0.5039370078740157
        },
        {
          "duration": 0.1875,
          "durationTicks": 128,
          "midi": 66,
          "name": "F#4",
          "ticks": 114432,
          "time": 167.625,
          "velocity": 0.49606299212598426
        },
        {
          "duration": 0.1875,
          "durationTicks": 128,
          "midi": 66,
          "name": "F#4",
          "ticks": 114560,
          "time": 167.8125,
          "velocity": 0.47244094488188976
        },
        {
          "duration": 1.5,
          "durationTicks": 1024,
          "midi": 62,
          "name": "D4",
          "ticks": 114688,
          "time": 168,
          "velocity": 0.41732283464566927
        },
        {
          "duration": 1.14697265625,
          "durationTicks": 783,
          "midi": 58,
          "name": "A#3",
          "ticks": 115712,
          "time": 169.5,
          "velocity": 0.4251968503937008
        },
        {
          "duration": 0.38232421875,
          "durationTicks": 261,
          "midi": 57,
          "name": "A3",
          "ticks": 116480,
          "time": 170.625,
          "velocity": 0.3858267716535433
        },
        {
          "duration": 0.7646484375,
          "durationTicks": 522,
          "midi": 55,
          "name": "G3",
          "ticks": 116736,
          "time": 171,
          "velocity": 0.4645669291338583
        },
        {
          "duration": 0.38232421875,
          "durationTicks": 261,
          "midi": 54,
          "name": "F#3",
          "ticks": 117248,
          "time": 171.75,
          "velocity": 0.4330708661417323
        },
        {
          "duration": 0.38232421875,
          "durationTicks": 261,
          "midi": 55,
          "name": "G3",
          "ticks": 117504,
          "time": 172.125,
          "velocity": 0.5039370078740157
        },
        {
          "duration": 0.7119140625,
          "durationTicks": 486,
          "midi": 57,
          "name": "A3",
          "ticks": 117760,
          "time": 172.5,
          "velocity": 0.5275590551181102
        },
        {
          "duration": 0.1875,
          "durationTicks": 128,
          "midi": 62,
          "name": "D4",
          "ticks": 118528,
          "time": 173.625,
          "velocity": 0.7165354330708661
        },
        {
          "duration": 0.1875,
          "durationTicks": 128,
          "midi": 62,
          "name": "D4",
          "ticks": 118656,
          "time": 173.8125,
          "velocity": 0.7401574803149606
        },
        {
          "duration": 0.75,
          "durationTicks": 512,
          "midi": 62,
          "name": "D4",
          "ticks": 118784,
          "time": 174,
          "velocity": 0.8031496062992126
        },
        {
          "duration": 0.1875,
          "durationTicks": 128,
          "midi": 62,
          "name": "D4",
          "ticks": 119552,
          "time": 175.125,
          "velocity": 0.6929133858267716
        },
        {
          "duration": 0.1875,
          "durationTicks": 128,
          "midi": 62,
          "name": "D4",
          "ticks": 119680,
          "time": 175.3125,
          "velocity": 0.7795275590551181
        },
        {
          "duration": 0.75,
          "durationTicks": 512,
          "midi": 62,
          "name": "D4",
          "ticks": 119808,
          "time": 175.5,
          "velocity": 0.7716535433070866
        },
        {
          "duration": 0.1875,
          "durationTicks": 128,
          "midi": 62,
          "name": "D4",
          "ticks": 120576,
          "time": 176.625,
          "velocity": 0.6850393700787402
        },
        {
          "duration": 0.1875,
          "durationTicks": 128,
          "midi": 62,
          "name": "D4",
          "ticks": 120704,
          "time": 176.8125,
          "velocity": 0.7795275590551181
        },
        {
          "duration": 0.375,
          "durationTicks": 256,
          "midi": 62,
          "name": "D4",
          "ticks": 120832,
          "time": 177,
          "velocity": 0.8110236220472441
        },
        {
          "duration": 0.1875,
          "durationTicks": 128,
          "midi": 62,
          "name": "D4",
          "ticks": 121088,
          "time": 177.375,
          "velocity": 0.7716535433070866
        },
        {
          "duration": 0.1875,
          "durationTicks": 128,
          "midi": 62,
          "name": "D4",
          "ticks": 121216,
          "time": 177.5625,
          "velocity": 0.7401574803149606
        },
        {
          "duration": 0.375,
          "durationTicks": 256,
          "midi": 62,
          "name": "D4",
          "ticks": 121344,
          "time": 177.75,
          "velocity": 0.7716535433070866
        },
        {
          "duration": 0.1875,
          "durationTicks": 128,
          "midi": 62,
          "name": "D4",
          "ticks": 121600,
          "time": 178.125,
          "velocity": 0.7244094488188977
        },
        {
          "duration": 0.1875,
          "durationTicks": 128,
          "midi": 62,
          "name": "D4",
          "ticks": 121728,
          "time": 178.3125,
          "velocity": 0.7637795275590551
        },
        {
          "duration": 0.75,
          "durationTicks": 512,
          "midi": 62,
          "name": "D4",
          "ticks": 121856,
          "time": 178.5,
          "velocity": 0.7874015748031497
        },
        {
          "duration": 0.1875,
          "durationTicks": 128,
          "midi": 58,
          "name": "A#3",
          "ticks": 123904,
          "time": 181.5,
          "velocity": 0.44881889763779526
        },
        {
          "duration": 0.1875,
          "durationTicks": 128,
          "midi": 58,
          "name": "A#3",
          "ticks": 124032,
          "time": 181.6875,
          "velocity": 0.5039370078740157
        },
        {
          "duration": 0.1875,
          "durationTicks": 128,
          "midi": 67,
          "name": "G4",
          "ticks": 124160,
          "time": 181.875,
          "velocity": 0.6062992125984252
        },
        {
          "duration": 0.1875,
          "durationTicks": 128,
          "midi": 67,
          "name": "G4",
          "ticks": 124288,
          "time": 182.0625,
          "velocity": 0.4881889763779528
        },
        {
          "duration": 0.1875,
          "durationTicks": 128,
          "midi": 58,
          "name": "A#3",
          "ticks": 124416,
          "time": 182.25,
          "velocity": 0.4409448818897638
        },
        {
          "duration": 0.1875,
          "durationTicks": 128,
          "midi": 58,
          "name": "A#3",
          "ticks": 124544,
          "time": 182.4375,
          "velocity": 0.4645669291338583
        },
        {
          "duration": 0.1875,
          "durationTicks": 128,
          "midi": 67,
          "name": "G4",
          "ticks": 124672,
          "time": 182.625,
          "velocity": 0.5905511811023622
        },
        {
          "duration": 0.1875,
          "durationTicks": 128,
          "midi": 67,
          "name": "G4",
          "ticks": 124800,
          "time": 182.8125,
          "velocity": 0.49606299212598426
        },
        {
          "duration": 0.1875,
          "durationTicks": 128,
          "midi": 58,
          "name": "A#3",
          "ticks": 124928,
          "time": 183,
          "velocity": 0.4566929133858268
        },
        {
          "duration": 0.1875,
          "durationTicks": 128,
          "midi": 58,
          "name": "A#3",
          "ticks": 125056,
          "time": 183.1875,
          "velocity": 0.5039370078740157
        },
        {
          "duration": 0.1875,
          "durationTicks": 128,
          "midi": 62,
          "name": "D4",
          "ticks": 125184,
          "time": 183.375,
          "velocity": 0.5196850393700787
        },
        {
          "duration": 0.1875,
          "durationTicks": 128,
          "midi": 62,
          "name": "D4",
          "ticks": 125312,
          "time": 183.5625,
          "velocity": 0.4881889763779528
        },
        {
          "duration": 0.1875,
          "durationTicks": 128,
          "midi": 58,
          "name": "A#3",
          "ticks": 125440,
          "time": 183.75,
          "velocity": 0.49606299212598426
        },
        {
          "duration": 0.1875,
          "durationTicks": 128,
          "midi": 58,
          "name": "A#3",
          "ticks": 125568,
          "time": 183.9375,
          "velocity": 0.4881889763779528
        },
        {
          "duration": 0.1875,
          "durationTicks": 128,
          "midi": 67,
          "name": "G4",
          "ticks": 125696,
          "time": 184.125,
          "velocity": 0.6062992125984252
        },
        {
          "duration": 0.1875,
          "durationTicks": 128,
          "midi": 67,
          "name": "G4",
          "ticks": 125824,
          "time": 184.3125,
          "velocity": 0.5118110236220472
        },
        {
          "duration": 0.1875,
          "durationTicks": 128,
          "midi": 58,
          "name": "A#3",
          "ticks": 125952,
          "time": 184.5,
          "velocity": 0.44881889763779526
        },
        {
          "duration": 0.1875,
          "durationTicks": 128,
          "midi": 58,
          "name": "A#3",
          "ticks": 126080,
          "time": 184.6875,
          "velocity": 0.5039370078740157
        },
        {
          "duration": 0.1875,
          "durationTicks": 128,
          "midi": 67,
          "name": "G4",
          "ticks": 126208,
          "time": 184.875,
          "velocity": 0.5748031496062992
        },
        {
          "duration": 0.1875,
          "durationTicks": 128,
          "midi": 67,
          "name": "G4",
          "ticks": 126336,
          "time": 185.0625,
          "velocity": 0.49606299212598426
        },
        {
          "duration": 0.1875,
          "durationTicks": 128,
          "midi": 58,
          "name": "A#3",
          "ticks": 126464,
          "time": 185.25,
          "velocity": 0.4409448818897638
        },
        {
          "duration": 0.1875,
          "durationTicks": 128,
          "midi": 58,
          "name": "A#3",
          "ticks": 126592,
          "time": 185.4375,
          "velocity": 0.47244094488188976
        },
        {
          "duration": 0.1875,
          "durationTicks": 128,
          "midi": 67,
          "name": "G4",
          "ticks": 126720,
          "time": 185.625,
          "velocity": 0.6062992125984252
        },
        {
          "duration": 0.1875,
          "durationTicks": 128,
          "midi": 67,
          "name": "G4",
          "ticks": 126848,
          "time": 185.8125,
          "velocity": 0.49606299212598426
        },
        {
          "duration": 0.1875,
          "durationTicks": 128,
          "midi": 58,
          "name": "A#3",
          "ticks": 126976,
          "time": 186,
          "velocity": 0.44881889763779526
        },
        {
          "duration": 0.1875,
          "durationTicks": 128,
          "midi": 58,
          "name": "A#3",
          "ticks": 127104,
          "time": 186.1875,
          "velocity": 0.4330708661417323
        },
        {
          "duration": 0.1875,
          "durationTicks": 128,
          "midi": 67,
          "name": "G4",
          "ticks": 127232,
          "time": 186.375,
          "velocity": 0.5826771653543307
        },
        {
          "duration": 0.1875,
          "durationTicks": 128,
          "midi": 67,
          "name": "G4",
          "ticks": 127360,
          "time": 186.5625,
          "velocity": 0.5275590551181102
        },
        {
          "duration": 0.1875,
          "durationTicks": 128,
          "midi": 58,
          "name": "A#3",
          "ticks": 127488,
          "time": 186.75,
          "velocity": 0.41732283464566927
        },
        {
          "duration": 0.1875,
          "durationTicks": 128,
          "midi": 58,
          "name": "A#3",
          "ticks": 127616,
          "time": 186.9375,
          "velocity": 0.48031496062992124
        },
        {
          "duration": 0.1875,
          "durationTicks": 128,
          "midi": 67,
          "name": "G4",
          "ticks": 127744,
          "time": 187.125,
          "velocity": 0.5826771653543307
        },
        {
          "duration": 0.1875,
          "durationTicks": 128,
          "midi": 67,
          "name": "G4",
          "ticks": 127872,
          "time": 187.3125,
          "velocity": 0.5275590551181102
        },
        {
          "duration": 0.1875,
          "durationTicks": 128,
          "midi": 60,
          "name": "C4",
          "ticks": 128000,
          "time": 187.5,
          "velocity": 0.3937007874015748
        },
        {
          "duration": 0.1875,
          "durationTicks": 128,
          "midi": 60,
          "name": "C4",
          "ticks": 128128,
          "time": 187.6875,
          "velocity": 0.44881889763779526
        },
        {
          "duration": 0.1875,
          "durationTicks": 128,
          "midi": 69,
          "name": "A4",
          "ticks": 128256,
          "time": 187.875,
          "velocity": 0.5354330708661418
        },
        {
          "duration": 0.1875,
          "durationTicks": 128,
          "midi": 69,
          "name": "A4",
          "ticks": 128384,
          "time": 188.0625,
          "velocity": 0.5354330708661418
        },
        {
          "duration": 0.1875,
          "durationTicks": 128,
          "midi": 60,
          "name": "C4",
          "ticks": 128512,
          "time": 188.25,
          "velocity": 0.4015748031496063
        },
        {
          "duration": 0.1875,
          "durationTicks": 128,
          "midi": 60,
          "name": "C4",
          "ticks": 128640,
          "time": 188.4375,
          "velocity": 0.4409448818897638
        },
        {
          "duration": 0.1875,
          "durationTicks": 128,
          "midi": 69,
          "name": "A4",
          "ticks": 128768,
          "time": 188.625,
          "velocity": 0.5826771653543307
        },
        {
          "duration": 0.1875,
          "durationTicks": 128,
          "midi": 69,
          "name": "A4",
          "ticks": 128896,
          "time": 188.8125,
          "velocity": 0.48031496062992124
        },
        {
          "duration": 0.1875,
          "durationTicks": 128,
          "midi": 63,
          "name": "D#4",
          "ticks": 129024,
          "time": 189,
          "velocity": 0.41732283464566927
        },
        {
          "duration": 0.1875,
          "durationTicks": 128,
          "midi": 63,
          "name": "D#4",
          "ticks": 129152,
          "time": 189.1875,
          "velocity": 0.4645669291338583
        },
        {
          "duration": 0.1875,
          "durationTicks": 128,
          "midi": 72,
          "name": "C5",
          "ticks": 129280,
          "time": 189.375,
          "velocity": 0.5984251968503937
        },
        {
          "duration": 0.1875,
          "durationTicks": 128,
          "midi": 72,
          "name": "C5",
          "ticks": 129408,
          "time": 189.5625,
          "velocity": 0.49606299212598426
        },
        {
          "duration": 0.1875,
          "durationTicks": 128,
          "midi": 60,
          "name": "C4",
          "ticks": 129536,
          "time": 189.75,
          "velocity": 0.3464566929133858
        },
        {
          "duration": 0.1875,
          "durationTicks": 128,
          "midi": 60,
          "name": "C4",
          "ticks": 129664,
          "time": 189.9375,
          "velocity": 0.4566929133858268
        },
        {
          "duration": 0.1875,
          "durationTicks": 128,
          "midi": 69,
          "name": "A4",
          "ticks": 129792,
          "time": 190.125,
          "velocity": 0.5669291338582677
        },
        {
          "duration": 0.1875,
          "durationTicks": 128,
          "midi": 69,
          "name": "A4",
          "ticks": 129920,
          "time": 190.3125,
          "velocity": 0.5275590551181102
        },
        {
          "duration": 0.1875,
          "durationTicks": 128,
          "midi": 70,
          "name": "A#4",
          "ticks": 130048,
          "time": 190.5,
          "velocity": 0.8188976377952756
        },
        {
          "duration": 0.1875,
          "durationTicks": 128,
          "midi": 70,
          "name": "A#4",
          "ticks": 130176,
          "time": 190.6875,
          "velocity": 0.8031496062992126
        },
        {
          "duration": 0.1875,
          "durationTicks": 128,
          "midi": 74,
          "name": "D5",
          "ticks": 130304,
          "time": 190.875,
          "velocity": 0.8976377952755905
        },
        {
          "duration": 0.1875,
          "durationTicks": 128,
          "midi": 70,
          "name": "A#4",
          "ticks": 130432,
          "time": 191.0625,
          "velocity": 0.7007874015748031
        },
        {
          "duration": 0.1875,
          "durationTicks": 128,
          "midi": 74,
          "name": "D5",
          "ticks": 130560,
          "time": 191.25,
          "velocity": 0.8267716535433071
        },
        {
          "duration": 0.1875,
          "durationTicks": 128,
          "midi": 70,
          "name": "A#4",
          "ticks": 130688,
          "time": 191.4375,
          "velocity": 0.7007874015748031
        },
        {
          "duration": 0.1875,
          "durationTicks": 128,
          "midi": 74,
          "name": "D5",
          "ticks": 130816,
          "time": 191.625,
          "velocity": 0.8582677165354331
        },
        {
          "duration": 0.1875,
          "durationTicks": 128,
          "midi": 70,
          "name": "A#4",
          "ticks": 130944,
          "time": 191.8125,
          "velocity": 0.7007874015748031
        },
        {
          "duration": 0.1875,
          "durationTicks": 128,
          "midi": 72,
          "name": "C5",
          "ticks": 131072,
          "time": 192,
          "velocity": 0.7952755905511811
        },
        {
          "duration": 0.1875,
          "durationTicks": 128,
          "midi": 69,
          "name": "A4",
          "ticks": 131200,
          "time": 192.1875,
          "velocity": 0.6929133858267716
        },
        {
          "duration": 0.1875,
          "durationTicks": 128,
          "midi": 72,
          "name": "C5",
          "ticks": 131328,
          "time": 192.375,
          "velocity": 0.8110236220472441
        },
        {
          "duration": 0.1875,
          "durationTicks": 128,
          "midi": 69,
          "name": "A4",
          "ticks": 131456,
          "time": 192.5625,
          "velocity": 0.7244094488188977
        },
        {
          "duration": 0.1875,
          "durationTicks": 128,
          "midi": 72,
          "name": "C5",
          "ticks": 131584,
          "time": 192.75,
          "velocity": 0.8503937007874016
        },
        {
          "duration": 0.1875,
          "durationTicks": 128,
          "midi": 69,
          "name": "A4",
          "ticks": 131712,
          "time": 192.9375,
          "velocity": 0.7559055118110236
        },
        {
          "duration": 0.1875,
          "durationTicks": 128,
          "midi": 72,
          "name": "C5",
          "ticks": 131840,
          "time": 193.125,
          "velocity": 0.8661417322834646
        },
        {
          "duration": 0.1875,
          "durationTicks": 128,
          "midi": 69,
          "name": "A4",
          "ticks": 131968,
          "time": 193.3125,
          "velocity": 0.6929133858267716
        },
        {
          "duration": 0.1875,
          "durationTicks": 128,
          "midi": 70,
          "name": "A#4",
          "ticks": 132096,
          "time": 193.5,
          "velocity": 0.8110236220472441
        },
        {
          "duration": 0.1875,
          "durationTicks": 128,
          "midi": 67,
          "name": "G4",
          "ticks": 132224,
          "time": 193.6875,
          "velocity": 0.7244094488188977
        },
        {
          "duration": 0.1875,
          "durationTicks": 128,
          "midi": 70,
          "name": "A#4",
          "ticks": 132352,
          "time": 193.875,
          "velocity": 0.8031496062992126
        },
        {
          "duration": 0.1875,
          "durationTicks": 128,
          "midi": 67,
          "name": "G4",
          "ticks": 132480,
          "time": 194.0625,
          "velocity": 0.7007874015748031
        },
        {
          "duration": 0.1875,
          "durationTicks": 128,
          "midi": 70,
          "name": "A#4",
          "ticks": 132608,
          "time": 194.25,
          "velocity": 0.8188976377952756
        },
        {
          "duration": 0.1875,
          "durationTicks": 128,
          "midi": 67,
          "name": "G4",
          "ticks": 132736,
          "time": 194.4375,
          "velocity": 0.7165354330708661
        },
        {
          "duration": 0.1875,
          "durationTicks": 128,
          "midi": 70,
          "name": "A#4",
          "ticks": 132864,
          "time": 194.625,
          "velocity": 0.84251968503937
        },
        {
          "duration": 0.1875,
          "durationTicks": 128,
          "midi": 67,
          "name": "G4",
          "ticks": 132992,
          "time": 194.8125,
          "velocity": 0.6850393700787402
        },
        {
          "duration": 0.1875,
          "durationTicks": 128,
          "midi": 70,
          "name": "A#4",
          "ticks": 133120,
          "time": 195,
          "velocity": 0.8740157480314961
        },
        {
          "duration": 0.1875,
          "durationTicks": 128,
          "midi": 65,
          "name": "F4",
          "ticks": 133248,
          "time": 195.1875,
          "velocity": 0.6771653543307087
        },
        {
          "duration": 0.1875,
          "durationTicks": 128,
          "midi": 70,
          "name": "A#4",
          "ticks": 133376,
          "time": 195.375,
          "velocity": 0.8582677165354331
        },
        {
          "duration": 0.1875,
          "durationTicks": 128,
          "midi": 65,
          "name": "F4",
          "ticks": 133504,
          "time": 195.5625,
          "velocity": 0.6614173228346457
        },
        {
          "duration": 0.1875,
          "durationTicks": 128,
          "midi": 70,
          "name": "A#4",
          "ticks": 133632,
          "time": 195.75,
          "velocity": 0.8503937007874016
        },
        {
          "duration": 0.1875,
          "durationTicks": 128,
          "midi": 65,
          "name": "F4",
          "ticks": 133760,
          "time": 195.9375,
          "velocity": 0.6929133858267716
        },
        {
          "duration": 0.1875,
          "durationTicks": 128,
          "midi": 70,
          "name": "A#4",
          "ticks": 133888,
          "time": 196.125,
          "velocity": 0.8582677165354331
        },
        {
          "duration": 0.1875,
          "durationTicks": 128,
          "midi": 65,
          "name": "F4",
          "ticks": 134016,
          "time": 196.3125,
          "velocity": 0.7244094488188977
        },
        {
          "duration": 0.1875,
          "durationTicks": 128,
          "midi": 67,
          "name": "G4",
          "ticks": 134144,
          "time": 196.5,
          "velocity": 0.84251968503937
        },
        {
          "duration": 0.1875,
          "durationTicks": 128,
          "midi": 63,
          "name": "D#4",
          "ticks": 134272,
          "time": 196.6875,
          "velocity": 0.6771653543307087
        },
        {
          "duration": 0.1875,
          "durationTicks": 128,
          "midi": 67,
          "name": "G4",
          "ticks": 134400,
          "time": 196.875,
          "velocity": 0.8346456692913385
        },
        {
          "duration": 0.1875,
          "durationTicks": 128,
          "midi": 63,
          "name": "D#4",
          "ticks": 134528,
          "time": 197.0625,
          "velocity": 0.6771653543307087
        },
        {
          "duration": 0.1875,
          "durationTicks": 128,
          "midi": 67,
          "name": "G4",
          "ticks": 134656,
          "time": 197.25,
          "velocity": 0.8267716535433071
        },
        {
          "duration": 0.1875,
          "durationTicks": 128,
          "midi": 63,
          "name": "D#4",
          "ticks": 134784,
          "time": 197.4375,
          "velocity": 0.7007874015748031
        },
        {
          "duration": 0.1875,
          "durationTicks": 128,
          "midi": 67,
          "name": "G4",
          "ticks": 134912,
          "time": 197.625,
          "velocity": 0.84251968503937
        },
        {
          "duration": 0.1875,
          "durationTicks": 128,
          "midi": 63,
          "name": "D#4",
          "ticks": 135040,
          "time": 197.8125,
          "velocity": 0.7007874015748031
        },
        {
          "duration": 0.1875,
          "durationTicks": 128,
          "midi": 65,
          "name": "F4",
          "ticks": 135168,
          "time": 198,
          "velocity": 0.8267716535433071
        },
        {
          "duration": 0.1875,
          "durationTicks": 128,
          "midi": 62,
          "name": "D4",
          "ticks": 135296,
          "time": 198.1875,
          "velocity": 0.7322834645669292
        },
        {
          "duration": 0.1875,
          "durationTicks": 128,
          "midi": 65,
          "name": "F4",
          "ticks": 135424,
          "time": 198.375,
          "velocity": 0.8110236220472441
        },
        {
          "duration": 0.1875,
          "durationTicks": 128,
          "midi": 62,
          "name": "D4",
          "ticks": 135552,
          "time": 198.5625,
          "velocity": 0.7086614173228346
        },
        {
          "duration": 0.1875,
          "durationTicks": 128,
          "midi": 65,
          "name": "F4",
          "ticks": 135680,
          "time": 198.75,
          "velocity": 0.8267716535433071
        },
        {
          "duration": 0.1875,
          "durationTicks": 128,
          "midi": 62,
          "name": "D4",
          "ticks": 135808,
          "time": 198.9375,
          "velocity": 0.6850393700787402
        },
        {
          "duration": 0.1875,
          "durationTicks": 128,
          "midi": 65,
          "name": "F4",
          "ticks": 135936,
          "time": 199.125,
          "velocity": 0.7952755905511811
        },
        {
          "duration": 0.1875,
          "durationTicks": 128,
          "midi": 62,
          "name": "D4",
          "ticks": 136064,
          "time": 199.3125,
          "velocity": 0.7244094488188977
        },
        {
          "duration": 0.75,
          "durationTicks": 512,
          "midi": 60,
          "name": "C4",
          "ticks": 136192,
          "time": 199.5,
          "velocity": 0.7086614173228346
        },
        {
          "duration": 0.375,
          "durationTicks": 256,
          "midi": 60,
          "name": "C4",
          "ticks": 137216,
          "time": 201,
          "velocity": 0.7559055118110236
        },
        {
          "duration": 0.375,
          "durationTicks": 256,
          "midi": 61,
          "name": "C#4",
          "ticks": 137728,
          "time": 201.75,
          "velocity": 0.7952755905511811
        },
        {
          "duration": 0.375,
          "durationTicks": 256,
          "midi": 60,
          "name": "C4",
          "ticks": 138240,
          "time": 202.5,
          "velocity": 0.7480314960629921
        },
        {
          "duration": 0.375,
          "durationTicks": 256,
          "midi": 61,
          "name": "C#4",
          "ticks": 138752,
          "time": 203.25,
          "velocity": 0.7559055118110236
        },
        {
          "duration": 0.375,
          "durationTicks": 256,
          "midi": 60,
          "name": "C4",
          "ticks": 139264,
          "time": 204,
          "velocity": 0.7244094488188977
        },
        {
          "duration": 0.1875,
          "durationTicks": 128,
          "midi": 60,
          "name": "C4",
          "ticks": 140160,
          "time": 205.3125,
          "velocity": 0.6850393700787402
        },
        {
          "duration": 0.1875,
          "durationTicks": 128,
          "midi": 65,
          "name": "F4",
          "ticks": 140288,
          "time": 205.5,
          "velocity": 0.84251968503937
        },
        {
          "duration": 0.1875,
          "durationTicks": 128,
          "midi": 65,
          "name": "F4",
          "ticks": 140416,
          "time": 205.6875,
          "velocity": 0.7795275590551181
        },
        {
          "duration": 0.1875,
          "durationTicks": 128,
          "midi": 65,
          "name": "F4",
          "ticks": 140544,
          "time": 205.875,
          "velocity": 0.7637795275590551
        },
        {
          "duration": 0.1875,
          "durationTicks": 128,
          "midi": 65,
          "name": "F4",
          "ticks": 140672,
          "time": 206.0625,
          "velocity": 0.8031496062992126
        },
        {
          "duration": 0.1875,
          "durationTicks": 128,
          "midi": 69,
          "name": "A4",
          "ticks": 140800,
          "time": 206.25,
          "velocity": 0.8582677165354331
        },
        {
          "duration": 0.1875,
          "durationTicks": 128,
          "midi": 69,
          "name": "A4",
          "ticks": 140928,
          "time": 206.4375,
          "velocity": 0.7795275590551181
        },
        {
          "duration": 0.1875,
          "durationTicks": 128,
          "midi": 72,
          "name": "C5",
          "ticks": 141056,
          "time": 206.625,
          "velocity": 0.8503937007874016
        },
        {
          "duration": 0.1875,
          "durationTicks": 128,
          "midi": 72,
          "name": "C5",
          "ticks": 141184,
          "time": 206.8125,
          "velocity": 0.7637795275590551
        },
        {
          "duration": 0.1875,
          "durationTicks": 128,
          "midi": 70,
          "name": "A#4",
          "ticks": 141312,
          "time": 207,
          "velocity": 0.7165354330708661
        },
        {
          "duration": 0.1875,
          "durationTicks": 128,
          "midi": 70,
          "name": "A#4",
          "ticks": 141440,
          "time": 207.1875,
          "velocity": 0.7716535433070866
        },
        {
          "duration": 0.1875,
          "durationTicks": 128,
          "midi": 70,
          "name": "A#4",
          "ticks": 141568,
          "time": 207.375,
          "velocity": 0.8031496062992126
        },
        {
          "duration": 0.1875,
          "durationTicks": 128,
          "midi": 70,
          "name": "A#4",
          "ticks": 141696,
          "time": 207.5625,
          "velocity": 0.7952755905511811
        },
        {
          "duration": 0.1875,
          "durationTicks": 128,
          "midi": 70,
          "name": "A#4",
          "ticks": 141824,
          "time": 207.75,
          "velocity": 0.7401574803149606
        },
        {
          "duration": 0.1875,
          "durationTicks": 128,
          "midi": 70,
          "name": "A#4",
          "ticks": 141952,
          "time": 207.9375,
          "velocity": 0.7716535433070866
        },
        {
          "duration": 0.1875,
          "durationTicks": 128,
          "midi": 70,
          "name": "A#4",
          "ticks": 142080,
          "time": 208.125,
          "velocity": 0.7401574803149606
        },
        {
          "duration": 0.1875,
          "durationTicks": 128,
          "midi": 70,
          "name": "A#4",
          "ticks": 142208,
          "time": 208.3125,
          "velocity": 0.7795275590551181
        },
        {
          "duration": 0.1875,
          "durationTicks": 128,
          "midi": 69,
          "name": "A4",
          "ticks": 142336,
          "time": 208.5,
          "velocity": 0.7244094488188977
        },
        {
          "duration": 0.1875,
          "durationTicks": 128,
          "midi": 69,
          "name": "A4",
          "ticks": 142464,
          "time": 208.6875,
          "velocity": 0.7559055118110236
        },
        {
          "duration": 0.1875,
          "durationTicks": 128,
          "midi": 69,
          "name": "A4",
          "ticks": 142592,
          "time": 208.875,
          "velocity": 0.7480314960629921
        },
        {
          "duration": 0.1875,
          "durationTicks": 128,
          "midi": 69,
          "name": "A4",
          "ticks": 142720,
          "time": 209.0625,
          "velocity": 0.7952755905511811
        },
        {
          "duration": 0.1875,
          "durationTicks": 128,
          "midi": 69,
          "name": "A4",
          "ticks": 142848,
          "time": 209.25,
          "velocity": 0.7637795275590551
        },
        {
          "duration": 0.1875,
          "durationTicks": 128,
          "midi": 72,
          "name": "C5",
          "ticks": 142976,
          "time": 209.4375,
          "velocity": 0.8346456692913385
        },
        {
          "duration": 0.1875,
          "durationTicks": 128,
          "midi": 69,
          "name": "A4",
          "ticks": 143104,
          "time": 209.625,
          "velocity": 0.7165354330708661
        },
        {
          "duration": 0.1875,
          "durationTicks": 128,
          "midi": 72,
          "name": "C5",
          "ticks": 143232,
          "time": 209.8125,
          "velocity": 0.8188976377952756
        },
        {
          "duration": 0.1875,
          "durationTicks": 128,
          "midi": 70,
          "name": "A#4",
          "ticks": 143360,
          "time": 210,
          "velocity": 0.7637795275590551
        },
        {
          "duration": 0.1875,
          "durationTicks": 128,
          "midi": 70,
          "name": "A#4",
          "ticks": 143488,
          "time": 210.1875,
          "velocity": 0.7559055118110236
        },
        {
          "duration": 0.1875,
          "durationTicks": 128,
          "midi": 70,
          "name": "A#4",
          "ticks": 143616,
          "time": 210.375,
          "velocity": 0.7637795275590551
        },
        {
          "duration": 0.1875,
          "durationTicks": 128,
          "midi": 70,
          "name": "A#4",
          "ticks": 143744,
          "time": 210.5625,
          "velocity": 0.7874015748031497
        },
        {
          "duration": 0.1875,
          "durationTicks": 128,
          "midi": 67,
          "name": "G4",
          "ticks": 143872,
          "time": 210.75,
          "velocity": 0.6929133858267716
        },
        {
          "duration": 0.1875,
          "durationTicks": 128,
          "midi": 64,
          "name": "E4",
          "ticks": 144000,
          "time": 210.9375,
          "velocity": 0.6535433070866141
        },
        {
          "duration": 0.1875,
          "durationTicks": 128,
          "midi": 67,
          "name": "G4",
          "ticks": 144128,
          "time": 211.125,
          "velocity": 0.8031496062992126
        },
        {
          "duration": 0.1875,
          "durationTicks": 128,
          "midi": 64,
          "name": "E4",
          "ticks": 144256,
          "time": 211.3125,
          "velocity": 0.6850393700787402
        },
        {
          "duration": 0.375,
          "durationTicks": 256,
          "midi": 65,
          "name": "F4",
          "ticks": 144384,
          "time": 211.5,
          "velocity": 0.8110236220472441
        },
        {
          "duration": 0.375,
          "durationTicks": 256,
          "midi": 53,
          "name": "F3",
          "ticks": 144896,
          "time": 212.25,
          "velocity": 0.6771653543307087
        },
        {
          "duration": 1.14697265625,
          "durationTicks": 783,
          "midi": 62,
          "name": "D4",
          "ticks": 146432,
          "time": 214.5,
          "velocity": 0.4330708661417323
        },
        {
          "duration": 0.38232421875,
          "durationTicks": 261,
          "midi": 60,
          "name": "C4",
          "ticks": 147200,
          "time": 215.625,
          "velocity": 0.41732283464566927
        },
        {
          "duration": 0.35595703125,
          "durationTicks": 243,
          "midi": 57,
          "name": "A3",
          "ticks": 147456,
          "time": 216,
          "velocity": 0.4330708661417323
        },
        {
          "duration": 0.1875,
          "durationTicks": 128,
          "midi": 62,
          "name": "D4",
          "ticks": 148736,
          "time": 217.875,
          "velocity": 0.4330708661417323
        },
        {
          "duration": 0.38232421875,
          "durationTicks": 261,
          "midi": 62,
          "name": "D4",
          "ticks": 148992,
          "time": 218.25,
          "velocity": 0.4251968503937008
        },
        {
          "duration": 0.35595703125,
          "durationTicks": 243,
          "midi": 67,
          "name": "G4",
          "ticks": 149248,
          "time": 218.625,
          "velocity": 0.4566929133858268
        },
        {
          "duration": 0.75,
          "durationTicks": 512,
          "midi": 65,
          "name": "F4",
          "ticks": 149504,
          "time": 219,
          "velocity": 0.47244094488188976
        },
        {
          "duration": 1.14697265625,
          "durationTicks": 783,
          "midi": 55,
          "name": "G3",
          "ticks": 150528,
          "time": 220.5,
          "velocity": 0.4330708661417323
        },
        {
          "duration": 0.38232421875,
          "durationTicks": 261,
          "midi": 57,
          "name": "A3",
          "ticks": 151296,
          "time": 221.625,
          "velocity": 0.4409448818897638
        },
        {
          "duration": 0.38232421875,
          "durationTicks": 261,
          "midi": 59,
          "name": "B3",
          "ticks": 151552,
          "time": 222,
          "velocity": 0.5275590551181102
        },
        {
          "duration": 0.38232421875,
          "durationTicks": 261,
          "midi": 60,
          "name": "C4",
          "ticks": 151808,
          "time": 222.375,
          "velocity": 0.5826771653543307
        },
        {
          "duration": 0.38232421875,
          "durationTicks": 261,
          "midi": 57,
          "name": "A3",
          "ticks": 152064,
          "time": 222.75,
          "velocity": 0.47244094488188976
        },
        {
          "duration": 0.35595703125,
          "durationTicks": 243,
          "midi": 58,
          "name": "A#3",
          "ticks": 152320,
          "time": 223.125,
          "velocity": 0.48031496062992124
        },
        {
          "duration": 0.375,
          "durationTicks": 256,
          "midi": 55,
          "name": "G3",
          "ticks": 152576,
          "time": 223.5,
          "velocity": 0.41732283464566927
        },
        {
          "duration": 0.375,
          "durationTicks": 256,
          "midi": 60,
          "name": "C4",
          "ticks": 153088,
          "time": 224.25,
          "velocity": 0.41732283464566927
        },
        {
          "duration": 0.375,
          "durationTicks": 256,
          "midi": 50,
          "name": "D3",
          "ticks": 153600,
          "time": 225,
          "velocity": 0.4251968503937008
        },
        {
          "duration": 1.14697265625,
          "durationTicks": 783,
          "midi": 55,
          "name": "G3",
          "ticks": 158720,
          "time": 232.5,
          "velocity": 0.4566929133858268
        },
        {
          "duration": 0.38232421875,
          "durationTicks": 261,
          "midi": 57,
          "name": "A3",
          "ticks": 159488,
          "time": 233.625,
          "velocity": 0.4645669291338583
        },
        {
          "duration": 0.7646484375,
          "durationTicks": 522,
          "midi": 55,
          "name": "G3",
          "ticks": 159744,
          "time": 234,
          "velocity": 0.48031496062992124
        },
        {
          "duration": 0.7119140625,
          "durationTicks": 486,
          "midi": 53,
          "name": "F3",
          "ticks": 160256,
          "time": 234.75,
          "velocity": 0.48031496062992124
        },
        {
          "duration": 0.1904296875,
          "durationTicks": 130,
          "midi": 58,
          "name": "A#3",
          "ticks": 160768,
          "time": 235.5,
          "velocity": 0.5275590551181102
        },
        {
          "duration": 0.1904296875,
          "durationTicks": 130,
          "midi": 55,
          "name": "G3",
          "ticks": 160896,
          "time": 235.6875,
          "velocity": 0.5354330708661418
        },
        {
          "duration": 0.1904296875,
          "durationTicks": 130,
          "midi": 58,
          "name": "A#3",
          "ticks": 161024,
          "time": 235.875,
          "velocity": 0.5196850393700787
        },
        {
          "duration": 0.1904296875,
          "durationTicks": 130,
          "midi": 55,
          "name": "G3",
          "ticks": 161152,
          "time": 236.0625,
          "velocity": 0.49606299212598426
        },
        {
          "duration": 0.1904296875,
          "durationTicks": 130,
          "midi": 58,
          "name": "A#3",
          "ticks": 161280,
          "time": 236.25,
          "velocity": 0.48031496062992124
        },
        {
          "duration": 0.1904296875,
          "durationTicks": 130,
          "midi": 55,
          "name": "G3",
          "ticks": 161408,
          "time": 236.4375,
          "velocity": 0.4409448818897638
        },
        {
          "duration": 0.1904296875,
          "durationTicks": 130,
          "midi": 56,
          "name": "G#3",
          "ticks": 161536,
          "time": 236.625,
          "velocity": 0.5039370078740157
        },
        {
          "duration": 0.17724609375,
          "durationTicks": 121,
          "midi": 60,
          "name": "C4",
          "ticks": 161664,
          "time": 236.8125,
          "velocity": 0.5669291338582677
        },
        {
          "duration": 0.1904296875,
          "durationTicks": 130,
          "midi": 58,
          "name": "A#3",
          "ticks": 161792,
          "time": 237,
          "velocity": 0.44881889763779526
        },
        {
          "duration": 0.1904296875,
          "durationTicks": 130,
          "midi": 55,
          "name": "G3",
          "ticks": 161920,
          "time": 237.1875,
          "velocity": 0.4251968503937008
        },
        {
          "duration": 0.1904296875,
          "durationTicks": 130,
          "midi": 58,
          "name": "A#3",
          "ticks": 162048,
          "time": 237.375,
          "velocity": 0.49606299212598426
        },
        {
          "duration": 0.1904296875,
          "durationTicks": 130,
          "midi": 55,
          "name": "G3",
          "ticks": 162176,
          "time": 237.5625,
          "velocity": 0.4645669291338583
        },
        {
          "duration": 0.1904296875,
          "durationTicks": 130,
          "midi": 58,
          "name": "A#3",
          "ticks": 162304,
          "time": 237.75,
          "velocity": 0.5039370078740157
        },
        {
          "duration": 0.1904296875,
          "durationTicks": 130,
          "midi": 55,
          "name": "G3",
          "ticks": 162432,
          "time": 237.9375,
          "velocity": 0.47244094488188976
        },
        {
          "duration": 0.1904296875,
          "durationTicks": 130,
          "midi": 56,
          "name": "G#3",
          "ticks": 162560,
          "time": 238.125,
          "velocity": 0.5354330708661418
        },
        {
          "duration": 0.17724609375,
          "durationTicks": 121,
          "midi": 60,
          "name": "C4",
          "ticks": 162688,
          "time": 238.3125,
          "velocity": 0.5590551181102362
        },
        {
          "duration": 0.1904296875,
          "durationTicks": 130,
          "midi": 58,
          "name": "A#3",
          "ticks": 162816,
          "time": 238.5,
          "velocity": 0.48031496062992124
        },
        {
          "duration": 0.1904296875,
          "durationTicks": 130,
          "midi": 55,
          "name": "G3",
          "ticks": 162944,
          "time": 238.6875,
          "velocity": 0.4566929133858268
        },
        {
          "duration": 0.1904296875,
          "durationTicks": 130,
          "midi": 58,
          "name": "A#3",
          "ticks": 163072,
          "time": 238.875,
          "velocity": 0.49606299212598426
        },
        {
          "duration": 0.1904296875,
          "durationTicks": 130,
          "midi": 55,
          "name": "G3",
          "ticks": 163200,
          "time": 239.0625,
          "velocity": 0.4645669291338583
        },
        {
          "duration": 0.1904296875,
          "durationTicks": 130,
          "midi": 58,
          "name": "A#3",
          "ticks": 163328,
          "time": 239.25,
          "velocity": 0.4645669291338583
        },
        {
          "duration": 0.1904296875,
          "durationTicks": 130,
          "midi": 55,
          "name": "G3",
          "ticks": 163456,
          "time": 239.4375,
          "velocity": 0.4566929133858268
        },
        {
          "duration": 0.1904296875,
          "durationTicks": 130,
          "midi": 56,
          "name": "G#3",
          "ticks": 163584,
          "time": 239.625,
          "velocity": 0.47244094488188976
        },
        {
          "duration": 0.17724609375,
          "durationTicks": 121,
          "midi": 60,
          "name": "C4",
          "ticks": 163712,
          "time": 239.8125,
          "velocity": 0.5039370078740157
        },
        {
          "duration": 0.1904296875,
          "durationTicks": 130,
          "midi": 58,
          "name": "A#3",
          "ticks": 163840,
          "time": 240,
          "velocity": 0.5118110236220472
        },
        {
          "duration": 0.1904296875,
          "durationTicks": 130,
          "midi": 55,
          "name": "G3",
          "ticks": 163968,
          "time": 240.1875,
          "velocity": 0.44881889763779526
        },
        {
          "duration": 0.1904296875,
          "durationTicks": 130,
          "midi": 58,
          "name": "A#3",
          "ticks": 164096,
          "time": 240.375,
          "velocity": 0.49606299212598426
        },
        {
          "duration": 0.1904296875,
          "durationTicks": 130,
          "midi": 55,
          "name": "G3",
          "ticks": 164224,
          "time": 240.5625,
          "velocity": 0.47244094488188976
        },
        {
          "duration": 0.1904296875,
          "durationTicks": 130,
          "midi": 58,
          "name": "A#3",
          "ticks": 164352,
          "time": 240.75,
          "velocity": 0.48031496062992124
        },
        {
          "duration": 0.1904296875,
          "durationTicks": 130,
          "midi": 55,
          "name": "G3",
          "ticks": 164480,
          "time": 240.9375,
          "velocity": 0.49606299212598426
        },
        {
          "duration": 0.1904296875,
          "durationTicks": 130,
          "midi": 56,
          "name": "G#3",
          "ticks": 164608,
          "time": 241.125,
          "velocity": 0.4881889763779528
        },
        {
          "duration": 0.17724609375,
          "durationTicks": 121,
          "midi": 60,
          "name": "C4",
          "ticks": 164736,
          "time": 241.3125,
          "velocity": 0.5196850393700787
        },
        {
          "duration": 0.1875,
          "durationTicks": 128,
          "midi": 55,
          "name": "G3",
          "ticks": 164864,
          "time": 241.5,
          "velocity": 0.4566929133858268
        },
        {
          "duration": 0.1875,
          "durationTicks": 128,
          "midi": 55,
          "name": "G3",
          "ticks": 164992,
          "time": 241.6875,
          "velocity": 0.47244094488188976
        },
        {
          "duration": 0.1875,
          "durationTicks": 128,
          "midi": 55,
          "name": "G3",
          "ticks": 165120,
          "time": 241.875,
          "velocity": 0.5196850393700787
        },
        {
          "duration": 0.1875,
          "durationTicks": 128,
          "midi": 55,
          "name": "G3",
          "ticks": 165248,
          "time": 242.0625,
          "velocity": 0.5511811023622047
        },
        {
          "duration": 0.1875,
          "durationTicks": 128,
          "midi": 55,
          "name": "G3",
          "ticks": 165376,
          "time": 242.25,
          "velocity": 0.5275590551181102
        },
        {
          "duration": 0.1875,
          "durationTicks": 128,
          "midi": 55,
          "name": "G3",
          "ticks": 165504,
          "time": 242.4375,
          "velocity": 0.5669291338582677
        },
        {
          "duration": 0.1875,
          "durationTicks": 128,
          "midi": 55,
          "name": "G3",
          "ticks": 165632,
          "time": 242.625,
          "velocity": 0.6220472440944882
        },
        {
          "duration": 0.1875,
          "durationTicks": 128,
          "midi": 55,
          "name": "G3",
          "ticks": 165760,
          "time": 242.8125,
          "velocity": 0.5905511811023622
        },
        {
          "duration": 0.1875,
          "durationTicks": 128,
          "midi": 55,
          "name": "G3",
          "ticks": 165888,
          "time": 243,
          "velocity": 0.5984251968503937
        },
        {
          "duration": 0.1875,
          "durationTicks": 128,
          "midi": 67,
          "name": "G4",
          "ticks": 166016,
          "time": 243.1875,
          "velocity": 0.7795275590551181
        },
        {
          "duration": 0.1875,
          "durationTicks": 128,
          "midi": 67,
          "name": "G4",
          "ticks": 166144,
          "time": 243.375,
          "velocity": 0.6771653543307087
        },
        {
          "duration": 0.1875,
          "durationTicks": 128,
          "midi": 67,
          "name": "G4",
          "ticks": 166272,
          "time": 243.5625,
          "velocity": 0.6850393700787402
        },
        {
          "duration": 0.1875,
          "durationTicks": 128,
          "midi": 67,
          "name": "G4",
          "ticks": 166400,
          "time": 243.75,
          "velocity": 0.6692913385826772
        },
        {
          "duration": 0.1875,
          "durationTicks": 128,
          "midi": 67,
          "name": "G4",
          "ticks": 166528,
          "time": 243.9375,
          "velocity": 0.7480314960629921
        },
        {
          "duration": 0.1875,
          "durationTicks": 128,
          "midi": 67,
          "name": "G4",
          "ticks": 166656,
          "time": 244.125,
          "velocity": 0.7401574803149606
        },
        {
          "duration": 0.1875,
          "durationTicks": 128,
          "midi": 67,
          "name": "G4",
          "ticks": 166784,
          "time": 244.3125,
          "velocity": 0.7716535433070866
        },
        {
          "duration": 0.1875,
          "durationTicks": 128,
          "midi": 65,
          "name": "F4",
          "ticks": 166912,
          "time": 244.5,
          "velocity": 0.7086614173228346
        },
        {
          "duration": 0.1875,
          "durationTicks": 128,
          "midi": 65,
          "name": "F4",
          "ticks": 167040,
          "time": 244.6875,
          "velocity": 0.7716535433070866
        },
        {
          "duration": 0.1875,
          "durationTicks": 128,
          "midi": 65,
          "name": "F4",
          "ticks": 167168,
          "time": 244.875,
          "velocity": 0.7480314960629921
        },
        {
          "duration": 0.1875,
          "durationTicks": 128,
          "midi": 65,
          "name": "F4",
          "ticks": 167296,
          "time": 245.0625,
          "velocity": 0.7637795275590551
        },
        {
          "duration": 0.1875,
          "durationTicks": 128,
          "midi": 65,
          "name": "F4",
          "ticks": 167424,
          "time": 245.25,
          "velocity": 0.7637795275590551
        },
        {
          "duration": 0.1875,
          "durationTicks": 128,
          "midi": 65,
          "name": "F4",
          "ticks": 167552,
          "time": 245.4375,
          "velocity": 0.7637795275590551
        },
        {
          "duration": 0.1875,
          "durationTicks": 128,
          "midi": 65,
          "name": "F4",
          "ticks": 167680,
          "time": 245.625,
          "velocity": 0.7716535433070866
        },
        {
          "duration": 0.1875,
          "durationTicks": 128,
          "midi": 65,
          "name": "F4",
          "ticks": 167808,
          "time": 245.8125,
          "velocity": 0.7716535433070866
        },
        {
          "duration": 0.1875,
          "durationTicks": 128,
          "midi": 53,
          "name": "F3",
          "ticks": 167936,
          "time": 246,
          "velocity": 0.6929133858267716
        },
        {
          "duration": 0.1875,
          "durationTicks": 128,
          "midi": 53,
          "name": "F3",
          "ticks": 168064,
          "time": 246.1875,
          "velocity": 0.7716535433070866
        },
        {
          "duration": 0.1875,
          "durationTicks": 128,
          "midi": 53,
          "name": "F3",
          "ticks": 168192,
          "time": 246.375,
          "velocity": 0.7637795275590551
        },
        {
          "duration": 0.1875,
          "durationTicks": 128,
          "midi": 53,
          "name": "F3",
          "ticks": 168320,
          "time": 246.5625,
          "velocity": 0.7480314960629921
        },
        {
          "duration": 0.1875,
          "durationTicks": 128,
          "midi": 53,
          "name": "F3",
          "ticks": 168448,
          "time": 246.75,
          "velocity": 0.7874015748031497
        },
        {
          "duration": 0.1875,
          "durationTicks": 128,
          "midi": 53,
          "name": "F3",
          "ticks": 168576,
          "time": 246.9375,
          "velocity": 0.7637795275590551
        },
        {
          "duration": 0.1875,
          "durationTicks": 128,
          "midi": 53,
          "name": "F3",
          "ticks": 168704,
          "time": 247.125,
          "velocity": 0.7795275590551181
        },
        {
          "duration": 0.1875,
          "durationTicks": 128,
          "midi": 53,
          "name": "F3",
          "ticks": 168832,
          "time": 247.3125,
          "velocity": 0.7480314960629921
        },
        {
          "duration": 0.375,
          "durationTicks": 256,
          "midi": 58,
          "name": "A#3",
          "ticks": 168960,
          "time": 247.5,
          "velocity": 0.7795275590551181
        },
        {
          "duration": 0.75,
          "durationTicks": 512,
          "midi": 50,
          "name": "D3",
          "ticks": 169216,
          "time": 247.875,
          "velocity": 0.6771653543307087
        },
        {
          "duration": 0.1875,
          "durationTicks": 128,
          "midi": 51,
          "name": "D#3",
          "ticks": 169728,
          "time": 248.625,
          "velocity": 0.7874015748031497
        },
        {
          "duration": 0.1875,
          "durationTicks": 128,
          "midi": 52,
          "name": "E3",
          "ticks": 169984,
          "time": 249,
          "velocity": 0.7874015748031497
        },
        {
          "duration": 0.1875,
          "durationTicks": 128,
          "midi": 53,
          "name": "F3",
          "ticks": 170240,
          "time": 249.375,
          "velocity": 0.7874015748031497
        },
        {
          "duration": 0.1875,
          "durationTicks": 128,
          "midi": 54,
          "name": "F#3",
          "ticks": 170496,
          "time": 249.75,
          "velocity": 0.7952755905511811
        },
        {
          "duration": 0.1875,
          "durationTicks": 128,
          "midi": 55,
          "name": "G3",
          "ticks": 170752,
          "time": 250.125,
          "velocity": 0.7795275590551181
        },
        {
          "duration": 0.375,
          "durationTicks": 256,
          "midi": 56,
          "name": "G#3",
          "ticks": 171008,
          "time": 250.5,
          "velocity": 0.7716535433070866
        },
        {
          "duration": 0.09375,
          "durationTicks": 64,
          "midi": 56,
          "name": "G#3",
          "ticks": 171456,
          "time": 251.15625,
          "velocity": 0.6692913385826772
        },
        {
          "duration": 0.375,
          "durationTicks": 256,
          "midi": 55,
          "name": "G3",
          "ticks": 171520,
          "time": 251.25,
          "velocity": 0.7401574803149606
        },
        {
          "duration": 0.09375,
          "durationTicks": 64,
          "midi": 55,
          "name": "G3",
          "ticks": 171968,
          "time": 251.90625,
          "velocity": 0.6929133858267716
        },
        {
          "duration": 0.375,
          "durationTicks": 256,
          "midi": 63,
          "name": "D#4",
          "ticks": 172032,
          "time": 252,
          "velocity": 0.889763779527559
        },
        {
          "duration": 0.09375,
          "durationTicks": 64,
          "midi": 63,
          "name": "D#4",
          "ticks": 172480,
          "time": 252.65625,
          "velocity": 0.6929133858267716
        },
        {
          "duration": 0.375,
          "durationTicks": 256,
          "midi": 62,
          "name": "D4",
          "ticks": 172544,
          "time": 252.75,
          "velocity": 0.7401574803149606
        },
        {
          "duration": 0.09375,
          "durationTicks": 64,
          "midi": 62,
          "name": "D4",
          "ticks": 172992,
          "time": 253.40625,
          "velocity": 0.7165354330708661
        },
        {
          "duration": 0.375,
          "durationTicks": 256,
          "midi": 51,
          "name": "D#3",
          "ticks": 173056,
          "time": 253.5,
          "velocity": 0.6614173228346457
        },
        {
          "duration": 0.375,
          "durationTicks": 256,
          "midi": 53,
          "name": "F3",
          "ticks": 174080,
          "time": 255,
          "velocity": 0.4251968503937008
        },
        {
          "duration": 1.5,
          "durationTicks": 1024,
          "midi": 51,
          "name": "D#3",
          "ticks": 176640,
          "time": 258.75,
          "velocity": 0.4330708661417323
        },
        {
          "duration": 0.35595703125,
          "durationTicks": 243,
          "midi": 50,
          "name": "D3",
          "ticks": 177664,
          "time": 260.25,
          "velocity": 0.4881889763779528
        },
        {
          "duration": 1.5,
          "durationTicks": 1024,
          "midi": 51,
          "name": "D#3",
          "ticks": 178688,
          "time": 261.75,
          "velocity": 0.4330708661417323
        },
        {
          "duration": 0.35595703125,
          "durationTicks": 243,
          "midi": 50,
          "name": "D3",
          "ticks": 179712,
          "time": 263.25,
          "velocity": 0.47244094488188976
        },
        {
          "duration": 0.1875,
          "durationTicks": 128,
          "midi": 62,
          "name": "D4",
          "ticks": 180224,
          "time": 264,
          "velocity": 0.6771653543307087
        },
        {
          "duration": 0.1875,
          "durationTicks": 128,
          "midi": 62,
          "name": "D4",
          "ticks": 180352,
          "time": 264.1875,
          "velocity": 0.7480314960629921
        },
        {
          "duration": 0.1875,
          "durationTicks": 128,
          "midi": 62,
          "name": "D4",
          "ticks": 180480,
          "time": 264.375,
          "velocity": 0.7874015748031497
        },
        {
          "duration": 0.1875,
          "durationTicks": 128,
          "midi": 62,
          "name": "D4",
          "ticks": 180608,
          "time": 264.5625,
          "velocity": 0.8031496062992126
        },
        {
          "duration": 0.1875,
          "durationTicks": 128,
          "midi": 62,
          "name": "D4",
          "ticks": 180736,
          "time": 264.75,
          "velocity": 0.7322834645669292
        },
        {
          "duration": 0.1875,
          "durationTicks": 128,
          "midi": 62,
          "name": "D4",
          "ticks": 180864,
          "time": 264.9375,
          "velocity": 0.7716535433070866
        },
        {
          "duration": 0.1875,
          "durationTicks": 128,
          "midi": 62,
          "name": "D4",
          "ticks": 180992,
          "time": 265.125,
          "velocity": 0.7559055118110236
        },
        {
          "duration": 0.1875,
          "durationTicks": 128,
          "midi": 62,
          "name": "D4",
          "ticks": 181120,
          "time": 265.3125,
          "velocity": 0.7559055118110236
        },
        {
          "duration": 0.1875,
          "durationTicks": 128,
          "midi": 67,
          "name": "G4",
          "ticks": 181248,
          "time": 265.5,
          "velocity": 0.8582677165354331
        },
        {
          "duration": 0.1875,
          "durationTicks": 128,
          "midi": 67,
          "name": "G4",
          "ticks": 181376,
          "time": 265.6875,
          "velocity": 0.7952755905511811
        },
        {
          "duration": 0.1875,
          "durationTicks": 128,
          "midi": 67,
          "name": "G4",
          "ticks": 181504,
          "time": 265.875,
          "velocity": 0.7480314960629921
        },
        {
          "duration": 0.1875,
          "durationTicks": 128,
          "midi": 67,
          "name": "G4",
          "ticks": 181632,
          "time": 266.0625,
          "velocity": 0.7874015748031497
        },
        {
          "duration": 0.1875,
          "durationTicks": 128,
          "midi": 63,
          "name": "D#4",
          "ticks": 181760,
          "time": 266.25,
          "velocity": 0.6771653543307087
        },
        {
          "duration": 0.1875,
          "durationTicks": 128,
          "midi": 63,
          "name": "D#4",
          "ticks": 181888,
          "time": 266.4375,
          "velocity": 0.7716535433070866
        },
        {
          "duration": 0.1875,
          "durationTicks": 128,
          "midi": 63,
          "name": "D#4",
          "ticks": 182016,
          "time": 266.625,
          "velocity": 0.7480314960629921
        },
        {
          "duration": 0.1875,
          "durationTicks": 128,
          "midi": 63,
          "name": "D#4",
          "ticks": 182144,
          "time": 266.8125,
          "velocity": 0.7480314960629921
        },
        {
          "duration": 0.1875,
          "durationTicks": 128,
          "midi": 65,
          "name": "F4",
          "ticks": 182272,
          "time": 267,
          "velocity": 0.8110236220472441
        },
        {
          "duration": 0.1875,
          "durationTicks": 128,
          "midi": 65,
          "name": "F4",
          "ticks": 182400,
          "time": 267.1875,
          "velocity": 0.7637795275590551
        },
        {
          "duration": 0.1875,
          "durationTicks": 128,
          "midi": 65,
          "name": "F4",
          "ticks": 182528,
          "time": 267.375,
          "velocity": 0.7559055118110236
        },
        {
          "duration": 0.1875,
          "durationTicks": 128,
          "midi": 65,
          "name": "F4",
          "ticks": 182656,
          "time": 267.5625,
          "velocity": 0.7874015748031497
        },
        {
          "duration": 0.1875,
          "durationTicks": 128,
          "midi": 53,
          "name": "F3",
          "ticks": 182784,
          "time": 267.75,
          "velocity": 0.6535433070866141
        },
        {
          "duration": 0.1875,
          "durationTicks": 128,
          "midi": 53,
          "name": "F3",
          "ticks": 182912,
          "time": 267.9375,
          "velocity": 0.7480314960629921
        },
        {
          "duration": 0.1875,
          "durationTicks": 128,
          "midi": 53,
          "name": "F3",
          "ticks": 183040,
          "time": 268.125,
          "velocity": 0.7952755905511811
        },
        {
          "duration": 0.1875,
          "durationTicks": 128,
          "midi": 53,
          "name": "F3",
          "ticks": 183168,
          "time": 268.3125,
          "velocity": 0.7952755905511811
        },
        {
          "duration": 0.375,
          "durationTicks": 256,
          "midi": 58,
          "name": "A#3",
          "ticks": 183296,
          "time": 268.5,
          "velocity": 0.8188976377952756
        },
        {
          "duration": 1.875,
          "durationTicks": 1280,
          "midi": 70,
          "name": "A#4",
          "ticks": 183808,
          "time": 269.25,
          "velocity": 0.4330708661417323
        },
        {
          "duration": 1.5,
          "durationTicks": 1024,
          "midi": 58,
          "name": "A#3",
          "ticks": 185856,
          "time": 272.25,
          "velocity": 0.4094488188976378
        },
        {
          "duration": 0.35595703125,
          "durationTicks": 243,
          "midi": 57,
          "name": "A3",
          "ticks": 186880,
          "time": 273.75,
          "velocity": 0.4566929133858268
        },
        {
          "duration": 0.1875,
          "durationTicks": 128,
          "midi": 62,
          "name": "D4",
          "ticks": 188416,
          "time": 276,
          "velocity": 0.6771653543307087
        },
        {
          "duration": 0.1875,
          "durationTicks": 128,
          "midi": 62,
          "name": "D4",
          "ticks": 188544,
          "time": 276.1875,
          "velocity": 0.7952755905511811
        },
        {
          "duration": 0.1875,
          "durationTicks": 128,
          "midi": 62,
          "name": "D4",
          "ticks": 188672,
          "time": 276.375,
          "velocity": 0.7874015748031497
        },
        {
          "duration": 0.1875,
          "durationTicks": 128,
          "midi": 62,
          "name": "D4",
          "ticks": 188800,
          "time": 276.5625,
          "velocity": 0.7559055118110236
        },
        {
          "duration": 0.1875,
          "durationTicks": 128,
          "midi": 62,
          "name": "D4",
          "ticks": 188928,
          "time": 276.75,
          "velocity": 0.7874015748031497
        },
        {
          "duration": 0.1875,
          "durationTicks": 128,
          "midi": 62,
          "name": "D4",
          "ticks": 189056,
          "time": 276.9375,
          "velocity": 0.7874015748031497
        },
        {
          "duration": 0.1875,
          "durationTicks": 128,
          "midi": 62,
          "name": "D4",
          "ticks": 189184,
          "time": 277.125,
          "velocity": 0.7637795275590551
        },
        {
          "duration": 0.1875,
          "durationTicks": 128,
          "midi": 62,
          "name": "D4",
          "ticks": 189312,
          "time": 277.3125,
          "velocity": 0.7559055118110236
        },
        {
          "duration": 0.1875,
          "durationTicks": 128,
          "midi": 67,
          "name": "G4",
          "ticks": 189440,
          "time": 277.5,
          "velocity": 0.9212598425196851
        },
        {
          "duration": 0.1875,
          "durationTicks": 128,
          "midi": 67,
          "name": "G4",
          "ticks": 189568,
          "time": 277.6875,
          "velocity": 0.7716535433070866
        },
        {
          "duration": 0.1875,
          "durationTicks": 128,
          "midi": 67,
          "name": "G4",
          "ticks": 189696,
          "time": 277.875,
          "velocity": 0.7559055118110236
        },
        {
          "duration": 0.1875,
          "durationTicks": 128,
          "midi": 67,
          "name": "G4",
          "ticks": 189824,
          "time": 278.0625,
          "velocity": 0.7637795275590551
        },
        {
          "duration": 0.1875,
          "durationTicks": 128,
          "midi": 63,
          "name": "D#4",
          "ticks": 189952,
          "time": 278.25,
          "velocity": 0.7007874015748031
        },
        {
          "duration": 0.1875,
          "durationTicks": 128,
          "midi": 63,
          "name": "D#4",
          "ticks": 190080,
          "time": 278.4375,
          "velocity": 0.7401574803149606
        },
        {
          "duration": 0.1875,
          "durationTicks": 128,
          "midi": 63,
          "name": "D#4",
          "ticks": 190208,
          "time": 278.625,
          "velocity": 0.7637795275590551
        },
        {
          "duration": 0.1875,
          "durationTicks": 128,
          "midi": 63,
          "name": "D#4",
          "ticks": 190336,
          "time": 278.8125,
          "velocity": 0.7795275590551181
        },
        {
          "duration": 0.1875,
          "durationTicks": 128,
          "midi": 65,
          "name": "F4",
          "ticks": 190464,
          "time": 279,
          "velocity": 0.8267716535433071
        },
        {
          "duration": 0.1875,
          "durationTicks": 128,
          "midi": 65,
          "name": "F4",
          "ticks": 190592,
          "time": 279.1875,
          "velocity": 0.7874015748031497
        },
        {
          "duration": 0.1875,
          "durationTicks": 128,
          "midi": 65,
          "name": "F4",
          "ticks": 190720,
          "time": 279.375,
          "velocity": 0.7795275590551181
        },
        {
          "duration": 0.1875,
          "durationTicks": 128,
          "midi": 65,
          "name": "F4",
          "ticks": 190848,
          "time": 279.5625,
          "velocity": 0.8346456692913385
        },
        {
          "duration": 0.1875,
          "durationTicks": 128,
          "midi": 53,
          "name": "F3",
          "ticks": 190976,
          "time": 279.75,
          "velocity": 0.6535433070866141
        },
        {
          "duration": 0.1875,
          "durationTicks": 128,
          "midi": 53,
          "name": "F3",
          "ticks": 191104,
          "time": 279.9375,
          "velocity": 0.7480314960629921
        },
        {
          "duration": 0.1875,
          "durationTicks": 128,
          "midi": 53,
          "name": "F3",
          "ticks": 191232,
          "time": 280.125,
          "velocity": 0.8031496062992126
        },
        {
          "duration": 0.1875,
          "durationTicks": 128,
          "midi": 53,
          "name": "F3",
          "ticks": 191360,
          "time": 280.3125,
          "velocity": 0.7874015748031497
        },
        {
          "duration": 0.75,
          "durationTicks": 512,
          "midi": 58,
          "name": "A#3",
          "ticks": 191488,
          "time": 280.5,
          "velocity": 0.8267716535433071
        },
        {
          "duration": 0.1875,
          "durationTicks": 128,
          "midi": 77,
          "name": "F5",
          "ticks": 192384,
          "time": 281.8125,
          "velocity": 0.7007874015748031
        },
        {
          "duration": 0.1875,
          "durationTicks": 128,
          "midi": 75,
          "name": "D#5",
          "ticks": 192512,
          "time": 282,
          "velocity": 0.6771653543307087
        },
        {
          "duration": 0.1875,
          "durationTicks": 128,
          "midi": 74,
          "name": "D5",
          "ticks": 192640,
          "time": 282.1875,
          "velocity": 0.7401574803149606
        },
        {
          "duration": 0.1875,
          "durationTicks": 128,
          "midi": 72,
          "name": "C5",
          "ticks": 192768,
          "time": 282.375,
          "velocity": 0.7322834645669292
        },
        {
          "duration": 0.1875,
          "durationTicks": 128,
          "midi": 70,
          "name": "A#4",
          "ticks": 192896,
          "time": 282.5625,
          "velocity": 0.7165354330708661
        },
        {
          "duration": 0.1875,
          "durationTicks": 128,
          "midi": 69,
          "name": "A4",
          "ticks": 193024,
          "time": 282.75,
          "velocity": 0.7007874015748031
        },
        {
          "duration": 0.1875,
          "durationTicks": 128,
          "midi": 67,
          "name": "G4",
          "ticks": 193152,
          "time": 282.9375,
          "velocity": 0.6929133858267716
        },
        {
          "duration": 0.1875,
          "durationTicks": 128,
          "midi": 65,
          "name": "F4",
          "ticks": 193280,
          "time": 283.125,
          "velocity": 0.7401574803149606
        },
        {
          "duration": 0.1875,
          "durationTicks": 128,
          "midi": 63,
          "name": "D#4",
          "ticks": 193408,
          "time": 283.3125,
          "velocity": 0.7086614173228346
        },
        {
          "duration": 0.375,
          "durationTicks": 256,
          "midi": 62,
          "name": "D4",
          "ticks": 193536,
          "time": 283.5,
          "velocity": 0.7322834645669292
        },
        {
          "duration": 0.375,
          "durationTicks": 256,
          "midi": 62,
          "name": "D4",
          "ticks": 193792,
          "time": 283.875,
          "velocity": 0.7716535433070866
        },
        {
          "duration": 0.375,
          "durationTicks": 256,
          "midi": 63,
          "name": "D#4",
          "ticks": 194048,
          "time": 284.25,
          "velocity": 0.8031496062992126
        },
        {
          "duration": 0.375,
          "durationTicks": 256,
          "midi": 65,
          "name": "F4",
          "ticks": 194304,
          "time": 284.625,
          "velocity": 0.7952755905511811
        },
        {
          "duration": 0.1875,
          "durationTicks": 128,
          "midi": 70,
          "name": "A#4",
          "ticks": 194560,
          "time": 285,
          "velocity": 0.8740157480314961
        },
        {
          "duration": 0.1875,
          "durationTicks": 128,
          "midi": 65,
          "name": "F4",
          "ticks": 194688,
          "time": 285.1875,
          "velocity": 0.6614173228346457
        },
        {
          "duration": 0.1875,
          "durationTicks": 128,
          "midi": 74,
          "name": "D5",
          "ticks": 194816,
          "time": 285.375,
          "velocity": 0.937007874015748
        },
        {
          "duration": 0.1875,
          "durationTicks": 128,
          "midi": 72,
          "name": "C5",
          "ticks": 194944,
          "time": 285.5625,
          "velocity": 0.7480314960629921
        },
        {
          "duration": 0.1875,
          "durationTicks": 128,
          "midi": 70,
          "name": "A#4",
          "ticks": 195072,
          "time": 285.75,
          "velocity": 0.7244094488188977
        },
        {
          "duration": 0.1875,
          "durationTicks": 128,
          "midi": 69,
          "name": "A4",
          "ticks": 195200,
          "time": 285.9375,
          "velocity": 0.7165354330708661
        },
        {
          "duration": 0.1875,
          "durationTicks": 128,
          "midi": 67,
          "name": "G4",
          "ticks": 195328,
          "time": 286.125,
          "velocity": 0.7086614173228346
        },
        {
          "duration": 0.1875,
          "durationTicks": 128,
          "midi": 65,
          "name": "F4",
          "ticks": 195456,
          "time": 286.3125,
          "velocity": 0.7322834645669292
        },
        {
          "duration": 0.1875,
          "durationTicks": 128,
          "midi": 63,
          "name": "D#4",
          "ticks": 195584,
          "time": 286.5,
          "velocity": 0.7165354330708661
        },
        {
          "duration": 0.1875,
          "durationTicks": 128,
          "midi": 62,
          "name": "D4",
          "ticks": 195712,
          "time": 286.6875,
          "velocity": 0.7480314960629921
        },
        {
          "duration": 0.1875,
          "durationTicks": 128,
          "midi": 60,
          "name": "C4",
          "ticks": 195840,
          "time": 286.875,
          "velocity": 0.7007874015748031
        },
        {
          "duration": 0.1875,
          "durationTicks": 128,
          "midi": 58,
          "name": "A#3",
          "ticks": 195968,
          "time": 287.0625,
          "velocity": 0.7401574803149606
        },
        {
          "duration": 0.1875,
          "durationTicks": 128,
          "midi": 57,
          "name": "A3",
          "ticks": 196096,
          "time": 287.25,
          "velocity": 0.7401574803149606
        },
        {
          "duration": 0.1875,
          "durationTicks": 128,
          "midi": 60,
          "name": "C4",
          "ticks": 196224,
          "time": 287.4375,
          "velocity": 0.8188976377952756
        },
        {
          "duration": 0.1875,
          "durationTicks": 128,
          "midi": 65,
          "name": "F4",
          "ticks": 196352,
          "time": 287.625,
          "velocity": 0.84251968503937
        },
        {
          "duration": 0.1875,
          "durationTicks": 128,
          "midi": 63,
          "name": "D#4",
          "ticks": 196480,
          "time": 287.8125,
          "velocity": 0.7480314960629921
        },
        {
          "duration": 0.375,
          "durationTicks": 256,
          "midi": 62,
          "name": "D4",
          "ticks": 196608,
          "time": 288,
          "velocity": 0.7086614173228346
        },
        {
          "duration": 0.375,
          "durationTicks": 256,
          "midi": 62,
          "name": "D4",
          "ticks": 196864,
          "time": 288.375,
          "velocity": 0.7559055118110236
        },
        {
          "duration": 0.375,
          "durationTicks": 256,
          "midi": 63,
          "name": "D#4",
          "ticks": 197120,
          "time": 288.75,
          "velocity": 0.7952755905511811
        },
        {
          "duration": 0.375,
          "durationTicks": 256,
          "midi": 65,
          "name": "F4",
          "ticks": 197376,
          "time": 289.125,
          "velocity": 0.8031496062992126
        },
        {
          "duration": 0.375,
          "durationTicks": 256,
          "midi": 67,
          "name": "G4",
          "ticks": 197632,
          "time": 289.5,
          "velocity": 0.7874015748031497
        },
        {
          "duration": 0.375,
          "durationTicks": 256,
          "midi": 63,
          "name": "D#4",
          "ticks": 197888,
          "time": 289.875,
          "velocity": 0.7165354330708661
        },
        {
          "duration": 0.375,
          "durationTicks": 256,
          "midi": 65,
          "name": "F4",
          "ticks": 198144,
          "time": 290.25,
          "velocity": 0.8110236220472441
        },
        {
          "duration": 0.375,
          "durationTicks": 256,
          "midi": 53,
          "name": "F3",
          "ticks": 198400,
          "time": 290.625,
          "velocity": 0.6456692913385826
        },
        {
          "duration": 0.375,
          "durationTicks": 256,
          "midi": 58,
          "name": "A#3",
          "ticks": 198656,
          "time": 291,
          "velocity": 0.7952755905511811
        },
        {
          "duration": 0.375,
          "durationTicks": 256,
          "midi": 65,
          "name": "F4",
          "ticks": 199168,
          "time": 291.75,
          "velocity": 0.7007874015748031
        },
        {
          "duration": 0.375,
          "durationTicks": 256,
          "midi": 70,
          "name": "A#4",
          "ticks": 199680,
          "time": 292.5,
          "velocity": 0.7007874015748031
        },
        {
          "duration": 0.375,
          "durationTicks": 256,
          "midi": 65,
          "name": "F4",
          "ticks": 200192,
          "time": 293.25,
          "velocity": 0.6929133858267716
        },
        {
          "duration": 0.375,
          "durationTicks": 256,
          "midi": 70,
          "name": "A#4",
          "ticks": 200704,
          "time": 294,
          "velocity": 0.6929133858267716
        },
        {
          "duration": 0.375,
          "durationTicks": 256,
          "midi": 65,
          "name": "F4",
          "ticks": 201216,
          "time": 294.75,
          "velocity": 0.6929133858267716
        },
        {
          "duration": 0.375,
          "durationTicks": 256,
          "midi": 70,
          "name": "A#4",
          "ticks": 201728,
          "time": 295.5,
          "velocity": 0.7165354330708661
        },
        {
          "duration": 0.375,
          "durationTicks": 256,
          "midi": 65,
          "name": "F4",
          "ticks": 201984,
          "time": 295.875,
          "velocity": 0.6614173228346457
        },
        {
          "duration": 0.375,
          "durationTicks": 256,
          "midi": 70,
          "name": "A#4",
          "ticks": 202240,
          "time": 296.25,
          "velocity": 0.8188976377952756
        },
        {
          "duration": 0.375,
          "durationTicks": 256,
          "midi": 65,
          "name": "F4",
          "ticks": 202496,
          "time": 296.625,
          "velocity": 0.6614173228346457
        },
        {
          "duration": 0.375,
          "durationTicks": 256,
          "midi": 70,
          "name": "A#4",
          "ticks": 202752,
          "time": 297,
          "velocity": 0.8661417322834646
        },
        {
          "duration": 0.375,
          "durationTicks": 256,
          "midi": 69,
          "name": "A4",
          "ticks": 203776,
          "time": 298.5,
          "velocity": 0.6850393700787402
        },
        {
          "duration": 0.375,
          "durationTicks": 256,
          "midi": 67,
          "name": "G4",
          "ticks": 204800,
          "time": 300,
          "velocity": 0.7007874015748031
        },
        {
          "duration": 0.375,
          "durationTicks": 256,
          "midi": 65,
          "name": "F4",
          "ticks": 205312,
          "time": 300.75,
          "velocity": 0.6771653543307087
        },
        {
          "duration": 0.1875,
          "durationTicks": 128,
          "midi": 57,
          "name": "A3",
          "ticks": 208896,
          "time": 306,
          "velocity": 0.44881889763779526
        },
        {
          "duration": 0.1875,
          "durationTicks": 128,
          "midi": 57,
          "name": "A3",
          "ticks": 209024,
          "time": 306.1875,
          "velocity": 0.49606299212598426
        },
        {
          "duration": 0.1875,
          "durationTicks": 128,
          "midi": 66,
          "name": "F#4",
          "ticks": 209152,
          "time": 306.375,
          "velocity": 0.5748031496062992
        },
        {
          "duration": 0.1875,
          "durationTicks": 128,
          "midi": 66,
          "name": "F#4",
          "ticks": 209280,
          "time": 306.5625,
          "velocity": 0.5196850393700787
        },
        {
          "duration": 0.1875,
          "durationTicks": 128,
          "midi": 57,
          "name": "A3",
          "ticks": 209408,
          "time": 306.75,
          "velocity": 0.4094488188976378
        },
        {
          "duration": 0.1875,
          "durationTicks": 128,
          "midi": 57,
          "name": "A3",
          "ticks": 209536,
          "time": 306.9375,
          "velocity": 0.4409448818897638
        },
        {
          "duration": 0.1875,
          "durationTicks": 128,
          "midi": 66,
          "name": "F#4",
          "ticks": 209664,
          "time": 307.125,
          "velocity": 0.5669291338582677
        },
        {
          "duration": 0.1875,
          "durationTicks": 128,
          "midi": 66,
          "name": "F#4",
          "ticks": 209792,
          "time": 307.3125,
          "velocity": 0.49606299212598426
        },
        {
          "duration": 0.1875,
          "durationTicks": 128,
          "midi": 57,
          "name": "A3",
          "ticks": 209920,
          "time": 307.5,
          "velocity": 0.41732283464566927
        },
        {
          "duration": 0.1875,
          "durationTicks": 128,
          "midi": 57,
          "name": "A3",
          "ticks": 210048,
          "time": 307.6875,
          "velocity": 0.49606299212598426
        },
        {
          "duration": 0.1875,
          "durationTicks": 128,
          "midi": 61,
          "name": "C#4",
          "ticks": 210176,
          "time": 307.875,
          "velocity": 0.5039370078740157
        },
        {
          "duration": 0.1875,
          "durationTicks": 128,
          "midi": 61,
          "name": "C#4",
          "ticks": 210304,
          "time": 308.0625,
          "velocity": 0.47244094488188976
        },
        {
          "duration": 0.1875,
          "durationTicks": 128,
          "midi": 57,
          "name": "A3",
          "ticks": 210432,
          "time": 308.25,
          "velocity": 0.4566929133858268
        },
        {
          "duration": 0.1875,
          "durationTicks": 128,
          "midi": 57,
          "name": "A3",
          "ticks": 210560,
          "time": 308.4375,
          "velocity": 0.4566929133858268
        },
        {
          "duration": 0.1875,
          "durationTicks": 128,
          "midi": 66,
          "name": "F#4",
          "ticks": 210688,
          "time": 308.625,
          "velocity": 0.5826771653543307
        },
        {
          "duration": 0.1875,
          "durationTicks": 128,
          "midi": 66,
          "name": "F#4",
          "ticks": 210816,
          "time": 308.8125,
          "velocity": 0.5039370078740157
        },
        {
          "duration": 0.1875,
          "durationTicks": 128,
          "midi": 63,
          "name": "D#4",
          "ticks": 210944,
          "time": 309,
          "velocity": 0.4330708661417323
        },
        {
          "duration": 0.1875,
          "durationTicks": 128,
          "midi": 63,
          "name": "D#4",
          "ticks": 211072,
          "time": 309.1875,
          "velocity": 0.4251968503937008
        },
        {
          "duration": 0.1875,
          "durationTicks": 128,
          "midi": 68,
          "name": "G#4",
          "ticks": 211200,
          "time": 309.375,
          "velocity": 0.5433070866141733
        },
        {
          "duration": 0.1875,
          "durationTicks": 128,
          "midi": 68,
          "name": "G#4",
          "ticks": 211328,
          "time": 309.5625,
          "velocity": 0.4881889763779528
        },
        {
          "duration": 0.1875,
          "durationTicks": 128,
          "midi": 63,
          "name": "D#4",
          "ticks": 211456,
          "time": 309.75,
          "velocity": 0.4251968503937008
        },
        {
          "duration": 0.1875,
          "durationTicks": 128,
          "midi": 63,
          "name": "D#4",
          "ticks": 211584,
          "time": 309.9375,
          "velocity": 0.47244094488188976
        },
        {
          "duration": 0.1875,
          "durationTicks": 128,
          "midi": 68,
          "name": "G#4",
          "ticks": 211712,
          "time": 310.125,
          "velocity": 0.5433070866141733
        },
        {
          "duration": 0.1875,
          "durationTicks": 128,
          "midi": 68,
          "name": "G#4",
          "ticks": 211840,
          "time": 310.3125,
          "velocity": 0.5039370078740157
        },
        {
          "duration": 0.1875,
          "durationTicks": 128,
          "midi": 62,
          "name": "D4",
          "ticks": 211968,
          "time": 310.5,
          "velocity": 0.41732283464566927
        },
        {
          "duration": 0.1875,
          "durationTicks": 128,
          "midi": 62,
          "name": "D4",
          "ticks": 212096,
          "time": 310.6875,
          "velocity": 0.47244094488188976
        },
        {
          "duration": 0.1875,
          "durationTicks": 128,
          "midi": 68,
          "name": "G#4",
          "ticks": 212224,
          "time": 310.875,
          "velocity": 0.6141732283464567
        },
        {
          "duration": 0.1875,
          "durationTicks": 128,
          "midi": 68,
          "name": "G#4",
          "ticks": 212352,
          "time": 311.0625,
          "velocity": 0.5039370078740157
        },
        {
          "duration": 0.1875,
          "durationTicks": 128,
          "midi": 62,
          "name": "D4",
          "ticks": 212480,
          "time": 311.25,
          "velocity": 0.3858267716535433
        },
        {
          "duration": 0.1875,
          "durationTicks": 128,
          "midi": 62,
          "name": "D4",
          "ticks": 212608,
          "time": 311.4375,
          "velocity": 0.47244094488188976
        },
        {
          "duration": 0.1875,
          "durationTicks": 128,
          "midi": 68,
          "name": "G#4",
          "ticks": 212736,
          "time": 311.625,
          "velocity": 0.5826771653543307
        },
        {
          "duration": 0.1875,
          "durationTicks": 128,
          "midi": 68,
          "name": "G#4",
          "ticks": 212864,
          "time": 311.8125,
          "velocity": 0.47244094488188976
        },
        {
          "duration": 0.1875,
          "durationTicks": 128,
          "midi": 61,
          "name": "C#4",
          "ticks": 212992,
          "time": 312,
          "velocity": 0.4094488188976378
        },
        {
          "duration": 0.1875,
          "durationTicks": 128,
          "midi": 61,
          "name": "C#4",
          "ticks": 213120,
          "time": 312.1875,
          "velocity": 0.4330708661417323
        },
        {
          "duration": 0.1875,
          "durationTicks": 128,
          "midi": 71,
          "name": "B4",
          "ticks": 213248,
          "time": 312.375,
          "velocity": 0.5669291338582677
        },
        {
          "duration": 0.1875,
          "durationTicks": 128,
          "midi": 71,
          "name": "B4",
          "ticks": 213376,
          "time": 312.5625,
          "velocity": 0.4645669291338583
        },
        {
          "duration": 0.1875,
          "durationTicks": 128,
          "midi": 61,
          "name": "C#4",
          "ticks": 213504,
          "time": 312.75,
          "velocity": 0.3779527559055118
        },
        {
          "duration": 0.1875,
          "durationTicks": 128,
          "midi": 61,
          "name": "C#4",
          "ticks": 213632,
          "time": 312.9375,
          "velocity": 0.4645669291338583
        },
        {
          "duration": 0.1875,
          "durationTicks": 128,
          "midi": 71,
          "name": "B4",
          "ticks": 213760,
          "time": 313.125,
          "velocity": 0.5669291338582677
        },
        {
          "duration": 0.1875,
          "durationTicks": 128,
          "midi": 71,
          "name": "B4",
          "ticks": 213888,
          "time": 313.3125,
          "velocity": 0.4881889763779528
        },
        {
          "duration": 0.1875,
          "durationTicks": 128,
          "midi": 61,
          "name": "C#4",
          "ticks": 214016,
          "time": 313.5,
          "velocity": 0.3543307086614173
        },
        {
          "duration": 0.1875,
          "durationTicks": 128,
          "midi": 61,
          "name": "C#4",
          "ticks": 214144,
          "time": 313.6875,
          "velocity": 0.44881889763779526
        },
        {
          "duration": 0.1875,
          "durationTicks": 128,
          "midi": 68,
          "name": "G#4",
          "ticks": 214272,
          "time": 313.875,
          "velocity": 0.5433070866141733
        },
        {
          "duration": 0.1875,
          "durationTicks": 128,
          "midi": 68,
          "name": "G#4",
          "ticks": 214400,
          "time": 314.0625,
          "velocity": 0.49606299212598426
        },
        {
          "duration": 0.1875,
          "durationTicks": 128,
          "midi": 61,
          "name": "C#4",
          "ticks": 214528,
          "time": 314.25,
          "velocity": 0.36220472440944884
        },
        {
          "duration": 0.1875,
          "durationTicks": 128,
          "midi": 61,
          "name": "C#4",
          "ticks": 214656,
          "time": 314.4375,
          "velocity": 0.4566929133858268
        },
        {
          "duration": 0.1875,
          "durationTicks": 128,
          "midi": 68,
          "name": "G#4",
          "ticks": 214784,
          "time": 314.625,
          "velocity": 0.5590551181102362
        },
        {
          "duration": 0.1875,
          "durationTicks": 128,
          "midi": 68,
          "name": "G#4",
          "ticks": 214912,
          "time": 314.8125,
          "velocity": 0.47244094488188976
        },
        {
          "duration": 0.1875,
          "durationTicks": 128,
          "midi": 61,
          "name": "C#4",
          "ticks": 215040,
          "time": 315,
          "velocity": 0.4094488188976378
        },
        {
          "duration": 0.1875,
          "durationTicks": 128,
          "midi": 61,
          "name": "C#4",
          "ticks": 215168,
          "time": 315.1875,
          "velocity": 0.48031496062992124
        },
        {
          "duration": 0.1875,
          "durationTicks": 128,
          "midi": 67,
          "name": "G4",
          "ticks": 215296,
          "time": 315.375,
          "velocity": 0.6062992125984252
        },
        {
          "duration": 0.1875,
          "durationTicks": 128,
          "midi": 67,
          "name": "G4",
          "ticks": 215424,
          "time": 315.5625,
          "velocity": 0.49606299212598426
        },
        {
          "duration": 0.1875,
          "durationTicks": 128,
          "midi": 61,
          "name": "C#4",
          "ticks": 215552,
          "time": 315.75,
          "velocity": 0.3779527559055118
        },
        {
          "duration": 0.1875,
          "durationTicks": 128,
          "midi": 61,
          "name": "C#4",
          "ticks": 215680,
          "time": 315.9375,
          "velocity": 0.4881889763779528
        },
        {
          "duration": 0.1875,
          "durationTicks": 128,
          "midi": 67,
          "name": "G4",
          "ticks": 215808,
          "time": 316.125,
          "velocity": 0.5826771653543307
        },
        {
          "duration": 0.1875,
          "durationTicks": 128,
          "midi": 67,
          "name": "G4",
          "ticks": 215936,
          "time": 316.3125,
          "velocity": 0.4881889763779528
        },
        {
          "duration": 0.1875,
          "durationTicks": 128,
          "midi": 60,
          "name": "C4",
          "ticks": 216064,
          "time": 316.5,
          "velocity": 0.4015748031496063
        },
        {
          "duration": 0.1875,
          "durationTicks": 128,
          "midi": 60,
          "name": "C4",
          "ticks": 216192,
          "time": 316.6875,
          "velocity": 0.44881889763779526
        },
        {
          "duration": 0.1875,
          "durationTicks": 128,
          "midi": 66,
          "name": "F#4",
          "ticks": 216320,
          "time": 316.875,
          "velocity": 0.5826771653543307
        },
        {
          "duration": 0.1875,
          "durationTicks": 128,
          "midi": 66,
          "name": "F#4",
          "ticks": 216448,
          "time": 317.0625,
          "velocity": 0.4881889763779528
        },
        {
          "duration": 0.1875,
          "durationTicks": 128,
          "midi": 60,
          "name": "C4",
          "ticks": 216576,
          "time": 317.25,
          "velocity": 0.4094488188976378
        },
        {
          "duration": 0.1875,
          "durationTicks": 128,
          "midi": 60,
          "name": "C4",
          "ticks": 216704,
          "time": 317.4375,
          "velocity": 0.4409448818897638
        },
        {
          "duration": 0.1875,
          "durationTicks": 128,
          "midi": 66,
          "name": "F#4",
          "ticks": 216832,
          "time": 317.625,
          "velocity": 0.5826771653543307
        },
        {
          "duration": 0.1875,
          "durationTicks": 128,
          "midi": 66,
          "name": "F#4",
          "ticks": 216960,
          "time": 317.8125,
          "velocity": 0.48031496062992124
        },
        {
          "duration": 0.1875,
          "durationTicks": 128,
          "midi": 59,
          "name": "B3",
          "ticks": 217088,
          "time": 318,
          "velocity": 0.4330708661417323
        },
        {
          "duration": 0.1875,
          "durationTicks": 128,
          "midi": 59,
          "name": "B3",
          "ticks": 217216,
          "time": 318.1875,
          "velocity": 0.48031496062992124
        },
        {
          "duration": 0.1875,
          "durationTicks": 128,
          "midi": 69,
          "name": "A4",
          "ticks": 217344,
          "time": 318.375,
          "velocity": 0.5826771653543307
        },
        {
          "duration": 0.1875,
          "durationTicks": 128,
          "midi": 69,
          "name": "A4",
          "ticks": 217472,
          "time": 318.5625,
          "velocity": 0.5196850393700787
        },
        {
          "duration": 0.1875,
          "durationTicks": 128,
          "midi": 59,
          "name": "B3",
          "ticks": 217600,
          "time": 318.75,
          "velocity": 0.4251968503937008
        },
        {
          "duration": 0.1875,
          "durationTicks": 128,
          "midi": 59,
          "name": "B3",
          "ticks": 217728,
          "time": 318.9375,
          "velocity": 0.5039370078740157
        },
        {
          "duration": 0.1875,
          "durationTicks": 128,
          "midi": 69,
          "name": "A4",
          "ticks": 217856,
          "time": 319.125,
          "velocity": 0.6220472440944882
        },
        {
          "duration": 0.1875,
          "durationTicks": 128,
          "midi": 69,
          "name": "A4",
          "ticks": 217984,
          "time": 319.3125,
          "velocity": 0.49606299212598426
        },
        {
          "duration": 0.1875,
          "durationTicks": 128,
          "midi": 57,
          "name": "A3",
          "ticks": 218112,
          "time": 319.5,
          "velocity": 0.4094488188976378
        },
        {
          "duration": 0.1875,
          "durationTicks": 128,
          "midi": 57,
          "name": "A3",
          "ticks": 218240,
          "time": 319.6875,
          "velocity": 0.4881889763779528
        },
        {
          "duration": 0.1875,
          "durationTicks": 128,
          "midi": 66,
          "name": "F#4",
          "ticks": 218368,
          "time": 319.875,
          "velocity": 0.6141732283464567
        },
        {
          "duration": 0.1875,
          "durationTicks": 128,
          "midi": 66,
          "name": "F#4",
          "ticks": 218496,
          "time": 320.0625,
          "velocity": 0.5039370078740157
        },
        {
          "duration": 0.375,
          "durationTicks": 256,
          "midi": 63,
          "name": "D#4",
          "ticks": 218624,
          "time": 320.25,
          "velocity": 0.4251968503937008
        },
        {
          "duration": 0.1875,
          "durationTicks": 128,
          "midi": 60,
          "name": "C4",
          "ticks": 218880,
          "time": 320.625,
          "velocity": 0.7165354330708661
        },
        {
          "duration": 0.1875,
          "durationTicks": 128,
          "midi": 59,
          "name": "B3",
          "ticks": 219008,
          "time": 320.8125,
          "velocity": 0.7559055118110236
        },
        {
          "duration": 0.375,
          "durationTicks": 256,
          "midi": 59,
          "name": "B3",
          "ticks": 219136,
          "time": 321,
          "velocity": 0.7480314960629921
        },
        {
          "duration": 0.1875,
          "durationTicks": 128,
          "midi": 60,
          "name": "C4",
          "ticks": 219392,
          "time": 321.375,
          "velocity": 0.8110236220472441
        },
        {
          "duration": 0.1875,
          "durationTicks": 128,
          "midi": 59,
          "name": "B3",
          "ticks": 219520,
          "time": 321.5625,
          "velocity": 0.7401574803149606
        },
        {
          "duration": 0.375,
          "durationTicks": 256,
          "midi": 59,
          "name": "B3",
          "ticks": 219648,
          "time": 321.75,
          "velocity": 0.7795275590551181
        },
        {
          "duration": 0.1875,
          "durationTicks": 128,
          "midi": 60,
          "name": "C4",
          "ticks": 219904,
          "time": 322.125,
          "velocity": 0.8031496062992126
        },
        {
          "duration": 0.1875,
          "durationTicks": 128,
          "midi": 59,
          "name": "B3",
          "ticks": 220032,
          "time": 322.3125,
          "velocity": 0.7795275590551181
        },
        {
          "duration": 0.38232421875,
          "durationTicks": 261,
          "midi": 59,
          "name": "B3",
          "ticks": 220160,
          "time": 322.5,
          "velocity": 0.7795275590551181
        },
        {
          "duration": 0.35595703125,
          "durationTicks": 243,
          "midi": 67,
          "name": "G4",
          "ticks": 220416,
          "time": 322.875,
          "velocity": 0.952755905511811
        },
        {
          "duration": 0.1904296875,
          "durationTicks": 130,
          "midi": 67,
          "name": "G4",
          "ticks": 220928,
          "time": 323.625,
          "velocity": 0.6929133858267716
        },
        {
          "duration": 0.17724609375,
          "durationTicks": 121,
          "midi": 66,
          "name": "F#4",
          "ticks": 221056,
          "time": 323.8125,
          "velocity": 0.6535433070866141
        },
        {
          "duration": 0.375,
          "durationTicks": 256,
          "midi": 64,
          "name": "E4",
          "ticks": 221184,
          "time": 324,
          "velocity": 0.7401574803149606
        },
        {
          "duration": 0.1904296875,
          "durationTicks": 130,
          "midi": 64,
          "name": "E4",
          "ticks": 221440,
          "time": 324.375,
          "velocity": 0.7480314960629921
        },
        {
          "duration": 0.17724609375,
          "durationTicks": 121,
          "midi": 62,
          "name": "D4",
          "ticks": 221568,
          "time": 324.5625,
          "velocity": 0.7244094488188977
        },
        {
          "duration": 0.375,
          "durationTicks": 256,
          "midi": 60,
          "name": "C4",
          "ticks": 221696,
          "time": 324.75,
          "velocity": 0.7086614173228346
        },
        {
          "duration": 0.1904296875,
          "durationTicks": 130,
          "midi": 60,
          "name": "C4",
          "ticks": 221952,
          "time": 325.125,
          "velocity": 0.7637795275590551
        },
        {
          "duration": 0.17724609375,
          "durationTicks": 121,
          "midi": 59,
          "name": "B3",
          "ticks": 222080,
          "time": 325.3125,
          "velocity": 0.7559055118110236
        },
        {
          "duration": 0.09375,
          "durationTicks": 64,
          "midi": 57,
          "name": "A3",
          "ticks": 222208,
          "time": 325.5,
          "velocity": 0.7244094488188977
        },
        {
          "duration": 0.09375,
          "durationTicks": 64,
          "midi": 59,
          "name": "B3",
          "ticks": 222336,
          "time": 325.6875,
          "velocity": 0.8031496062992126
        },
        {
          "duration": 0.09375,
          "durationTicks": 64,
          "midi": 60,
          "name": "C4",
          "ticks": 222464,
          "time": 325.875,
          "velocity": 0.7716535433070866
        },
        {
          "duration": 0.09375,
          "durationTicks": 64,
          "midi": 59,
          "name": "B3",
          "ticks": 222592,
          "time": 326.0625,
          "velocity": 0.7559055118110236
        },
        {
          "duration": 0.09375,
          "durationTicks": 64,
          "midi": 57,
          "name": "A3",
          "ticks": 222720,
          "time": 326.25,
          "velocity": 0.7086614173228346
        },
        {
          "duration": 0.09375,
          "durationTicks": 64,
          "midi": 58,
          "name": "A#3",
          "ticks": 222848,
          "time": 326.4375,
          "velocity": 0.7874015748031497
        },
        {
          "duration": 0.09375,
          "durationTicks": 64,
          "midi": 55,
          "name": "G3",
          "ticks": 222976,
          "time": 326.625,
          "velocity": 0.7480314960629921
        },
        {
          "duration": 0.09375,
          "durationTicks": 64,
          "midi": 57,
          "name": "A3",
          "ticks": 223104,
          "time": 326.8125,
          "velocity": 0.7952755905511811
        },
        {
          "duration": 0.09375,
          "durationTicks": 64,
          "midi": 53,
          "name": "F3",
          "ticks": 223232,
          "time": 327,
          "velocity": 0.7480314960629921
        },
        {
          "duration": 0.09375,
          "durationTicks": 64,
          "midi": 57,
          "name": "A3",
          "ticks": 223360,
          "time": 327.1875,
          "velocity": 0.7795275590551181
        },
        {
          "duration": 0.09375,
          "durationTicks": 64,
          "midi": 62,
          "name": "D4",
          "ticks": 223488,
          "time": 327.375,
          "velocity": 0.8661417322834646
        },
        {
          "duration": 0.09375,
          "durationTicks": 64,
          "midi": 53,
          "name": "F3",
          "ticks": 223616,
          "time": 327.5625,
          "velocity": 0.7007874015748031
        },
        {
          "duration": 0.09375,
          "durationTicks": 64,
          "midi": 52,
          "name": "E3",
          "ticks": 223744,
          "time": 327.75,
          "velocity": 0.7559055118110236
        },
        {
          "duration": 0.09375,
          "durationTicks": 64,
          "midi": 55,
          "name": "G3",
          "ticks": 223872,
          "time": 327.9375,
          "velocity": 0.8188976377952756
        },
        {
          "duration": 0.09375,
          "durationTicks": 64,
          "midi": 61,
          "name": "C#4",
          "ticks": 224000,
          "time": 328.125,
          "velocity": 0.8740157480314961
        },
        {
          "duration": 0.09375,
          "durationTicks": 64,
          "midi": 52,
          "name": "E3",
          "ticks": 224128,
          "time": 328.3125,
          "velocity": 0.6692913385826772
        },
        {
          "duration": 0.1875,
          "durationTicks": 128,
          "midi": 50,
          "name": "D3",
          "ticks": 224256,
          "time": 328.5,
          "velocity": 0.7244094488188977
        },
        {
          "duration": 0.1875,
          "durationTicks": 128,
          "midi": 57,
          "name": "A3",
          "ticks": 224384,
          "time": 328.6875,
          "velocity": 0.84251968503937
        },
        {
          "duration": 0.1875,
          "durationTicks": 128,
          "midi": 59,
          "name": "B3",
          "ticks": 224512,
          "time": 328.875,
          "velocity": 0.7716535433070866
        },
        {
          "duration": 0.1875,
          "durationTicks": 128,
          "midi": 61,
          "name": "C#4",
          "ticks": 224640,
          "time": 329.0625,
          "velocity": 0.8110236220472441
        },
        {
          "duration": 0.1875,
          "durationTicks": 128,
          "midi": 62,
          "name": "D4",
          "ticks": 224768,
          "time": 329.25,
          "velocity": 0.8346456692913385
        },
        {
          "duration": 0.1875,
          "durationTicks": 128,
          "midi": 57,
          "name": "A3",
          "ticks": 224896,
          "time": 329.4375,
          "velocity": 0.7244094488188977
        },
        {
          "duration": 0.1875,
          "durationTicks": 128,
          "midi": 62,
          "name": "D4",
          "ticks": 225024,
          "time": 329.625,
          "velocity": 0.8661417322834646
        },
        {
          "duration": 0.1875,
          "durationTicks": 128,
          "midi": 64,
          "name": "E4",
          "ticks": 225152,
          "time": 329.8125,
          "velocity": 0.8110236220472441
        },
        {
          "duration": 0.1875,
          "durationTicks": 128,
          "midi": 65,
          "name": "F4",
          "ticks": 225280,
          "time": 330,
          "velocity": 0.7716535433070866
        },
        {
          "duration": 0.1875,
          "durationTicks": 128,
          "midi": 62,
          "name": "D4",
          "ticks": 225408,
          "time": 330.1875,
          "velocity": 0.6771653543307087
        },
        {
          "duration": 0.1875,
          "durationTicks": 128,
          "midi": 64,
          "name": "E4",
          "ticks": 225536,
          "time": 330.375,
          "velocity": 0.8188976377952756
        },
        {
          "duration": 0.1875,
          "durationTicks": 128,
          "midi": 66,
          "name": "F#4",
          "ticks": 225664,
          "time": 330.5625,
          "velocity": 0.8267716535433071
        },
        {
          "duration": 0.1875,
          "durationTicks": 128,
          "midi": 67,
          "name": "G4",
          "ticks": 225792,
          "time": 330.75,
          "velocity": 0.8110236220472441
        },
        {
          "duration": 0.1875,
          "durationTicks": 128,
          "midi": 62,
          "name": "D4",
          "ticks": 225920,
          "time": 330.9375,
          "velocity": 0.6614173228346457
        },
        {
          "duration": 0.1875,
          "durationTicks": 128,
          "midi": 67,
          "name": "G4",
          "ticks": 226048,
          "time": 331.125,
          "velocity": 0.8503937007874016
        },
        {
          "duration": 0.1875,
          "durationTicks": 128,
          "midi": 69,
          "name": "A4",
          "ticks": 226176,
          "time": 331.3125,
          "velocity": 0.8110236220472441
        },
        {
          "duration": 0.375,
          "durationTicks": 256,
          "midi": 70,
          "name": "A#4",
          "ticks": 226304,
          "time": 331.5,
          "velocity": 0.8031496062992126
        },
        {
          "duration": 0.375,
          "durationTicks": 256,
          "midi": 55,
          "name": "G3",
          "ticks": 226560,
          "time": 331.875,
          "velocity": 0.6377952755905512
        },
        {
          "duration": 0.1904296875,
          "durationTicks": 130,
          "midi": 57,
          "name": "A3",
          "ticks": 227072,
          "time": 332.625,
          "velocity": 0.7007874015748031
        },
        {
          "duration": 0.17724609375,
          "durationTicks": 121,
          "midi": 55,
          "name": "G3",
          "ticks": 227200,
          "time": 332.8125,
          "velocity": 0.6535433070866141
        },
        {
          "duration": 0.375,
          "durationTicks": 256,
          "midi": 55,
          "name": "G3",
          "ticks": 227328,
          "time": 333,
          "velocity": 0.7795275590551181
        },
        {
          "duration": 0.1904296875,
          "durationTicks": 130,
          "midi": 57,
          "name": "A3",
          "ticks": 227584,
          "time": 333.375,
          "velocity": 0.7874015748031497
        },
        {
          "duration": 0.17724609375,
          "durationTicks": 121,
          "midi": 55,
          "name": "G3",
          "ticks": 227712,
          "time": 333.5625,
          "velocity": 0.7480314960629921
        },
        {
          "duration": 0.375,
          "durationTicks": 256,
          "midi": 55,
          "name": "G3",
          "ticks": 227840,
          "time": 333.75,
          "velocity": 0.7795275590551181
        },
        {
          "duration": 0.1904296875,
          "durationTicks": 130,
          "midi": 57,
          "name": "A3",
          "ticks": 228096,
          "time": 334.125,
          "velocity": 0.7952755905511811
        },
        {
          "duration": 0.17724609375,
          "durationTicks": 121,
          "midi": 55,
          "name": "G3",
          "ticks": 228224,
          "time": 334.3125,
          "velocity": 0.7480314960629921
        },
        {
          "duration": 0.38232421875,
          "durationTicks": 261,
          "midi": 55,
          "name": "G3",
          "ticks": 228352,
          "time": 334.5,
          "velocity": 0.7795275590551181
        },
        {
          "duration": 0.35595703125,
          "durationTicks": 243,
          "midi": 64,
          "name": "E4",
          "ticks": 228608,
          "time": 334.875,
          "velocity": 0.9133858267716536
        },
        {
          "duration": 0.1904296875,
          "durationTicks": 130,
          "midi": 64,
          "name": "E4",
          "ticks": 229120,
          "time": 335.625,
          "velocity": 0.7007874015748031
        },
        {
          "duration": 0.17724609375,
          "durationTicks": 121,
          "midi": 62,
          "name": "D4",
          "ticks": 229248,
          "time": 335.8125,
          "velocity": 0.6220472440944882
        },
        {
          "duration": 0.375,
          "durationTicks": 256,
          "midi": 60,
          "name": "C4",
          "ticks": 229376,
          "time": 336,
          "velocity": 0.7480314960629921
        },
        {
          "duration": 0.1904296875,
          "durationTicks": 130,
          "midi": 60,
          "name": "C4",
          "ticks": 229632,
          "time": 336.375,
          "velocity": 0.7795275590551181
        },
        {
          "duration": 0.17724609375,
          "durationTicks": 121,
          "midi": 58,
          "name": "A#3",
          "ticks": 229760,
          "time": 336.5625,
          "velocity": 0.7559055118110236
        },
        {
          "duration": 0.375,
          "durationTicks": 256,
          "midi": 57,
          "name": "A3",
          "ticks": 229888,
          "time": 336.75,
          "velocity": 0.7716535433070866
        },
        {
          "duration": 0.1904296875,
          "durationTicks": 130,
          "midi": 57,
          "name": "A3",
          "ticks": 230144,
          "time": 337.125,
          "velocity": 0.7716535433070866
        },
        {
          "duration": 0.17724609375,
          "durationTicks": 121,
          "midi": 55,
          "name": "G3",
          "ticks": 230272,
          "time": 337.3125,
          "velocity": 0.7716535433070866
        },
        {
          "duration": 0.09375,
          "durationTicks": 64,
          "midi": 53,
          "name": "F3",
          "ticks": 230400,
          "time": 337.5,
          "velocity": 0.7480314960629921
        },
        {
          "duration": 0.09375,
          "durationTicks": 64,
          "midi": 55,
          "name": "G3",
          "ticks": 230528,
          "time": 337.6875,
          "velocity": 0.7795275590551181
        },
        {
          "duration": 0.09375,
          "durationTicks": 64,
          "midi": 57,
          "name": "A3",
          "ticks": 230656,
          "time": 337.875,
          "velocity": 0.8267716535433071
        },
        {
          "duration": 0.09375,
          "durationTicks": 64,
          "midi": 55,
          "name": "G3",
          "ticks": 230784,
          "time": 338.0625,
          "velocity": 0.7165354330708661
        },
        {
          "duration": 0.09375,
          "durationTicks": 64,
          "midi": 53,
          "name": "F3",
          "ticks": 230912,
          "time": 338.25,
          "velocity": 0.7559055118110236
        },
        {
          "duration": 0.09375,
          "durationTicks": 64,
          "midi": 55,
          "name": "G3",
          "ticks": 231040,
          "time": 338.4375,
          "velocity": 0.7716535433070866
        },
        {
          "duration": 0.09375,
          "durationTicks": 64,
          "midi": 51,
          "name": "D#3",
          "ticks": 231168,
          "time": 338.625,
          "velocity": 0.7165354330708661
        },
        {
          "duration": 0.09375,
          "durationTicks": 64,
          "midi": 53,
          "name": "F3",
          "ticks": 231296,
          "time": 338.8125,
          "velocity": 0.8110236220472441
        },
        {
          "duration": 0.09375,
          "durationTicks": 64,
          "midi": 50,
          "name": "D3",
          "ticks": 231424,
          "time": 339,
          "velocity": 0.7322834645669292
        },
        {
          "duration": 0.09375,
          "durationTicks": 64,
          "midi": 53,
          "name": "F3",
          "ticks": 231552,
          "time": 339.1875,
          "velocity": 0.7952755905511811
        },
        {
          "duration": 0.09375,
          "durationTicks": 64,
          "midi": 58,
          "name": "A#3",
          "ticks": 231680,
          "time": 339.375,
          "velocity": 0.8110236220472441
        },
        {
          "duration": 0.09375,
          "durationTicks": 64,
          "midi": 50,
          "name": "D3",
          "ticks": 231808,
          "time": 339.5625,
          "velocity": 0.6929133858267716
        },
        {
          "duration": 0.09375,
          "durationTicks": 64,
          "midi": 48,
          "name": "C3",
          "ticks": 231936,
          "time": 339.75,
          "velocity": 0.7165354330708661
        },
        {
          "duration": 0.09375,
          "durationTicks": 64,
          "midi": 51,
          "name": "D#3",
          "ticks": 232064,
          "time": 339.9375,
          "velocity": 0.7874015748031497
        },
        {
          "duration": 0.09375,
          "durationTicks": 64,
          "midi": 57,
          "name": "A3",
          "ticks": 232192,
          "time": 340.125,
          "velocity": 0.8267716535433071
        },
        {
          "duration": 0.09375,
          "durationTicks": 64,
          "midi": 60,
          "name": "C4",
          "ticks": 232320,
          "time": 340.3125,
          "velocity": 0.8582677165354331
        },
        {
          "duration": 0.09375,
          "durationTicks": 64,
          "midi": 58,
          "name": "A#3",
          "ticks": 232448,
          "time": 340.5,
          "velocity": 0.7637795275590551
        },
        {
          "duration": 0.09375,
          "durationTicks": 64,
          "midi": 53,
          "name": "F3",
          "ticks": 232576,
          "time": 340.6875,
          "velocity": 0.7244094488188977
        },
        {
          "duration": 0.09375,
          "durationTicks": 64,
          "midi": 55,
          "name": "G3",
          "ticks": 232704,
          "time": 340.875,
          "velocity": 0.7952755905511811
        },
        {
          "duration": 0.09375,
          "durationTicks": 64,
          "midi": 57,
          "name": "A3",
          "ticks": 232832,
          "time": 341.0625,
          "velocity": 0.7952755905511811
        },
        {
          "duration": 0.09375,
          "durationTicks": 64,
          "midi": 58,
          "name": "A#3",
          "ticks": 232960,
          "time": 341.25,
          "velocity": 0.8188976377952756
        },
        {
          "duration": 0.09375,
          "durationTicks": 64,
          "midi": 57,
          "name": "A3",
          "ticks": 233088,
          "time": 341.4375,
          "velocity": 0.7480314960629921
        },
        {
          "duration": 0.09375,
          "durationTicks": 64,
          "midi": 58,
          "name": "A#3",
          "ticks": 233216,
          "time": 341.625,
          "velocity": 0.7952755905511811
        },
        {
          "duration": 0.09375,
          "durationTicks": 64,
          "midi": 60,
          "name": "C4",
          "ticks": 233344,
          "time": 341.8125,
          "velocity": 0.7952755905511811
        },
        {
          "duration": 0.09375,
          "durationTicks": 64,
          "midi": 62,
          "name": "D4",
          "ticks": 233472,
          "time": 342,
          "velocity": 0.8110236220472441
        },
        {
          "duration": 0.09375,
          "durationTicks": 64,
          "midi": 58,
          "name": "A#3",
          "ticks": 233600,
          "time": 342.1875,
          "velocity": 0.7322834645669292
        },
        {
          "duration": 0.09375,
          "durationTicks": 64,
          "midi": 60,
          "name": "C4",
          "ticks": 233728,
          "time": 342.375,
          "velocity": 0.8031496062992126
        },
        {
          "duration": 0.09375,
          "durationTicks": 64,
          "midi": 62,
          "name": "D4",
          "ticks": 233856,
          "time": 342.5625,
          "velocity": 0.8346456692913385
        },
        {
          "duration": 0.09375,
          "durationTicks": 64,
          "midi": 63,
          "name": "D#4",
          "ticks": 233984,
          "time": 342.75,
          "velocity": 0.8503937007874016
        },
        {
          "duration": 0.09375,
          "durationTicks": 64,
          "midi": 62,
          "name": "D4",
          "ticks": 234112,
          "time": 342.9375,
          "velocity": 0.7401574803149606
        },
        {
          "duration": 0.09375,
          "durationTicks": 64,
          "midi": 63,
          "name": "D#4",
          "ticks": 234240,
          "time": 343.125,
          "velocity": 0.8110236220472441
        },
        {
          "duration": 0.09375,
          "durationTicks": 64,
          "midi": 65,
          "name": "F4",
          "ticks": 234368,
          "time": 343.3125,
          "velocity": 0.8267716535433071
        },
        {
          "duration": 0.1875,
          "durationTicks": 128,
          "midi": 67,
          "name": "G4",
          "ticks": 234496,
          "time": 343.5,
          "velocity": 0.8031496062992126
        },
        {
          "duration": 0.1875,
          "durationTicks": 128,
          "midi": 51,
          "name": "D#3",
          "ticks": 234624,
          "time": 343.6875,
          "velocity": 0.6456692913385826
        },
        {
          "duration": 0.1875,
          "durationTicks": 128,
          "midi": 53,
          "name": "F3",
          "ticks": 234752,
          "time": 343.875,
          "velocity": 0.7559055118110236
        },
        {
          "duration": 0.1875,
          "durationTicks": 128,
          "midi": 55,
          "name": "G3",
          "ticks": 234880,
          "time": 344.0625,
          "velocity": 0.7716535433070866
        },
        {
          "duration": 0.1875,
          "durationTicks": 128,
          "midi": 57,
          "name": "A3",
          "ticks": 235008,
          "time": 344.25,
          "velocity": 0.8110236220472441
        },
        {
          "duration": 0.1875,
          "durationTicks": 128,
          "midi": 55,
          "name": "G3",
          "ticks": 235136,
          "time": 344.4375,
          "velocity": 0.7401574803149606
        },
        {
          "duration": 0.1875,
          "durationTicks": 128,
          "midi": 57,
          "name": "A3",
          "ticks": 235264,
          "time": 344.625,
          "velocity": 0.8031496062992126
        },
        {
          "duration": 0.1875,
          "durationTicks": 128,
          "midi": 58,
          "name": "A#3",
          "ticks": 235392,
          "time": 344.8125,
          "velocity": 0.7874015748031497
        },
        {
          "duration": 0.1875,
          "durationTicks": 128,
          "midi": 60,
          "name": "C4",
          "ticks": 235520,
          "time": 345,
          "velocity": 0.7952755905511811
        },
        {
          "duration": 0.1875,
          "durationTicks": 128,
          "midi": 57,
          "name": "A3",
          "ticks": 235648,
          "time": 345.1875,
          "velocity": 0.7322834645669292
        },
        {
          "duration": 0.1875,
          "durationTicks": 128,
          "midi": 58,
          "name": "A#3",
          "ticks": 235776,
          "time": 345.375,
          "velocity": 0.7716535433070866
        },
        {
          "duration": 0.1875,
          "durationTicks": 128,
          "midi": 60,
          "name": "C4",
          "ticks": 235904,
          "time": 345.5625,
          "velocity": 0.8267716535433071
        },
        {
          "duration": 0.1875,
          "durationTicks": 128,
          "midi": 62,
          "name": "D4",
          "ticks": 236032,
          "time": 345.75,
          "velocity": 0.8110236220472441
        },
        {
          "duration": 0.1875,
          "durationTicks": 128,
          "midi": 61,
          "name": "C#4",
          "ticks": 236160,
          "time": 345.9375,
          "velocity": 0.7322834645669292
        },
        {
          "duration": 0.1875,
          "durationTicks": 128,
          "midi": 62,
          "name": "D4",
          "ticks": 236288,
          "time": 346.125,
          "velocity": 0.8188976377952756
        },
        {
          "duration": 0.1875,
          "durationTicks": 128,
          "midi": 64,
          "name": "E4",
          "ticks": 236416,
          "time": 346.3125,
          "velocity": 0.8110236220472441
        },
        {
          "duration": 0.1875,
          "durationTicks": 128,
          "midi": 66,
          "name": "F#4",
          "ticks": 236544,
          "time": 346.5,
          "velocity": 0.8188976377952756
        },
        {
          "duration": 0.1875,
          "durationTicks": 128,
          "midi": 62,
          "name": "D4",
          "ticks": 236672,
          "time": 346.6875,
          "velocity": 0.6929133858267716
        },
        {
          "duration": 0.1875,
          "durationTicks": 128,
          "midi": 64,
          "name": "E4",
          "ticks": 236800,
          "time": 346.875,
          "velocity": 0.8188976377952756
        },
        {
          "duration": 0.1875,
          "durationTicks": 128,
          "midi": 66,
          "name": "F#4",
          "ticks": 236928,
          "time": 347.0625,
          "velocity": 0.8503937007874016
        },
        {
          "duration": 0.1875,
          "durationTicks": 128,
          "midi": 67,
          "name": "G4",
          "ticks": 237056,
          "time": 347.25,
          "velocity": 0.8188976377952756
        },
        {
          "duration": 0.1875,
          "durationTicks": 128,
          "midi": 63,
          "name": "D#4",
          "ticks": 237184,
          "time": 347.4375,
          "velocity": 0.6929133858267716
        },
        {
          "duration": 0.1875,
          "durationTicks": 128,
          "midi": 62,
          "name": "D4",
          "ticks": 237312,
          "time": 347.625,
          "velocity": 0.7086614173228346
        },
        {
          "duration": 0.1875,
          "durationTicks": 128,
          "midi": 60,
          "name": "C4",
          "ticks": 237440,
          "time": 347.8125,
          "velocity": 0.7086614173228346
        },
        {
          "duration": 0.1875,
          "durationTicks": 128,
          "midi": 58,
          "name": "A#3",
          "ticks": 237568,
          "time": 348,
          "velocity": 0.7559055118110236
        },
        {
          "duration": 0.1875,
          "durationTicks": 128,
          "midi": 60,
          "name": "C4",
          "ticks": 237696,
          "time": 348.1875,
          "velocity": 0.7874015748031497
        },
        {
          "duration": 0.1875,
          "durationTicks": 128,
          "midi": 58,
          "name": "A#3",
          "ticks": 237824,
          "time": 348.375,
          "velocity": 0.7637795275590551
        },
        {
          "duration": 0.1875,
          "durationTicks": 128,
          "midi": 57,
          "name": "A3",
          "ticks": 237952,
          "time": 348.5625,
          "velocity": 0.7480314960629921
        },
        {
          "duration": 0.1875,
          "durationTicks": 128,
          "midi": 55,
          "name": "G3",
          "ticks": 238080,
          "time": 348.75,
          "velocity": 0.7165354330708661
        },
        {
          "duration": 0.1875,
          "durationTicks": 128,
          "midi": 53,
          "name": "F3",
          "ticks": 238208,
          "time": 348.9375,
          "velocity": 0.7716535433070866
        },
        {
          "duration": 0.1875,
          "durationTicks": 128,
          "midi": 55,
          "name": "G3",
          "ticks": 238336,
          "time": 349.125,
          "velocity": 0.7716535433070866
        },
        {
          "duration": 0.1875,
          "durationTicks": 128,
          "midi": 56,
          "name": "G#3",
          "ticks": 238464,
          "time": 349.3125,
          "velocity": 0.7874015748031497
        },
        {
          "duration": 0.1875,
          "durationTicks": 128,
          "midi": 57,
          "name": "A3",
          "ticks": 238592,
          "time": 349.5,
          "velocity": 0.8267716535433071
        },
        {
          "duration": 0.1875,
          "durationTicks": 128,
          "midi": 57,
          "name": "A3",
          "ticks": 238720,
          "time": 349.6875,
          "velocity": 0.7559055118110236
        },
        {
          "duration": 0.1875,
          "durationTicks": 128,
          "midi": 57,
          "name": "A3",
          "ticks": 238848,
          "time": 349.875,
          "velocity": 0.7716535433070866
        },
        {
          "duration": 0.1875,
          "durationTicks": 128,
          "midi": 57,
          "name": "A3",
          "ticks": 238976,
          "time": 350.0625,
          "velocity": 0.7795275590551181
        },
        {
          "duration": 0.1875,
          "durationTicks": 128,
          "midi": 57,
          "name": "A3",
          "ticks": 239104,
          "time": 350.25,
          "velocity": 0.7007874015748031
        },
        {
          "duration": 0.1875,
          "durationTicks": 128,
          "midi": 57,
          "name": "A3",
          "ticks": 239232,
          "time": 350.4375,
          "velocity": 0.7716535433070866
        },
        {
          "duration": 0.1875,
          "durationTicks": 128,
          "midi": 57,
          "name": "A3",
          "ticks": 239360,
          "time": 350.625,
          "velocity": 0.7874015748031497
        },
        {
          "duration": 0.1875,
          "durationTicks": 128,
          "midi": 57,
          "name": "A3",
          "ticks": 239488,
          "time": 350.8125,
          "velocity": 0.7480314960629921
        },
        {
          "duration": 0.1875,
          "durationTicks": 128,
          "midi": 57,
          "name": "A3",
          "ticks": 239616,
          "time": 351,
          "velocity": 0.7795275590551181
        },
        {
          "duration": 0.1875,
          "durationTicks": 128,
          "midi": 57,
          "name": "A3",
          "ticks": 239744,
          "time": 351.1875,
          "velocity": 0.7716535433070866
        },
        {
          "duration": 0.1875,
          "durationTicks": 128,
          "midi": 57,
          "name": "A3",
          "ticks": 239872,
          "time": 351.375,
          "velocity": 0.7716535433070866
        },
        {
          "duration": 0.1875,
          "durationTicks": 128,
          "midi": 57,
          "name": "A3",
          "ticks": 240000,
          "time": 351.5625,
          "velocity": 0.7716535433070866
        },
        {
          "duration": 0.1875,
          "durationTicks": 128,
          "midi": 57,
          "name": "A3",
          "ticks": 240128,
          "time": 351.75,
          "velocity": 0.7637795275590551
        },
        {
          "duration": 0.1875,
          "durationTicks": 128,
          "midi": 57,
          "name": "A3",
          "ticks": 240256,
          "time": 351.9375,
          "velocity": 0.7795275590551181
        },
        {
          "duration": 0.1875,
          "durationTicks": 128,
          "midi": 57,
          "name": "A3",
          "ticks": 240384,
          "time": 352.125,
          "velocity": 0.7952755905511811
        },
        {
          "duration": 0.1875,
          "durationTicks": 128,
          "midi": 57,
          "name": "A3",
          "ticks": 240512,
          "time": 352.3125,
          "velocity": 0.7952755905511811
        },
        {
          "duration": 0.1875,
          "durationTicks": 128,
          "midi": 57,
          "name": "A3",
          "ticks": 240640,
          "time": 352.5,
          "velocity": 0.7716535433070866
        },
        {
          "duration": 0.1875,
          "durationTicks": 128,
          "midi": 57,
          "name": "A3",
          "ticks": 240768,
          "time": 352.6875,
          "velocity": 0.7322834645669292
        },
        {
          "duration": 0.1875,
          "durationTicks": 128,
          "midi": 57,
          "name": "A3",
          "ticks": 240896,
          "time": 352.875,
          "velocity": 0.7716535433070866
        },
        {
          "duration": 0.1875,
          "durationTicks": 128,
          "midi": 57,
          "name": "A3",
          "ticks": 241024,
          "time": 353.0625,
          "velocity": 0.7795275590551181
        },
        {
          "duration": 0.1875,
          "durationTicks": 128,
          "midi": 57,
          "name": "A3",
          "ticks": 241152,
          "time": 353.25,
          "velocity": 0.7795275590551181
        },
        {
          "duration": 0.1875,
          "durationTicks": 128,
          "midi": 57,
          "name": "A3",
          "ticks": 241280,
          "time": 353.4375,
          "velocity": 0.7716535433070866
        },
        {
          "duration": 0.1875,
          "durationTicks": 128,
          "midi": 57,
          "name": "A3",
          "ticks": 241408,
          "time": 353.625,
          "velocity": 0.7952755905511811
        },
        {
          "duration": 0.1875,
          "durationTicks": 128,
          "midi": 57,
          "name": "A3",
          "ticks": 241536,
          "time": 353.8125,
          "velocity": 0.7795275590551181
        },
        {
          "duration": 0.1875,
          "durationTicks": 128,
          "midi": 57,
          "name": "A3",
          "ticks": 241664,
          "time": 354,
          "velocity": 0.7637795275590551
        },
        {
          "duration": 0.1875,
          "durationTicks": 128,
          "midi": 57,
          "name": "A3",
          "ticks": 241792,
          "time": 354.1875,
          "velocity": 0.7559055118110236
        },
        {
          "duration": 0.1875,
          "durationTicks": 128,
          "midi": 57,
          "name": "A3",
          "ticks": 241920,
          "time": 354.375,
          "velocity": 0.7559055118110236
        },
        {
          "duration": 0.1875,
          "durationTicks": 128,
          "midi": 57,
          "name": "A3",
          "ticks": 242048,
          "time": 354.5625,
          "velocity": 0.8110236220472441
        },
        {
          "duration": 0.1875,
          "durationTicks": 128,
          "midi": 57,
          "name": "A3",
          "ticks": 242176,
          "time": 354.75,
          "velocity": 0.7559055118110236
        },
        {
          "duration": 0.1875,
          "durationTicks": 128,
          "midi": 57,
          "name": "A3",
          "ticks": 242304,
          "time": 354.9375,
          "velocity": 0.7716535433070866
        },
        {
          "duration": 0.1875,
          "durationTicks": 128,
          "midi": 57,
          "name": "A3",
          "ticks": 242432,
          "time": 355.125,
          "velocity": 0.8031496062992126
        },
        {
          "duration": 0.1875,
          "durationTicks": 128,
          "midi": 57,
          "name": "A3",
          "ticks": 242560,
          "time": 355.3125,
          "velocity": 0.7480314960629921
        },
        {
          "duration": 0.75,
          "durationTicks": 512,
          "midi": 57,
          "name": "A3",
          "ticks": 242688,
          "time": 355.5,
          "velocity": 0.7716535433070866
        },
        {
          "duration": 0.75,
          "durationTicks": 512,
          "midi": 72,
          "name": "C5",
          "ticks": 251648,
          "time": 368.625,
          "velocity": 0.4409448818897638
        },
        {
          "duration": 0.75,
          "durationTicks": 512,
          "midi": 72,
          "name": "C5",
          "ticks": 252160,
          "time": 369.375,
          "velocity": 0.4645669291338583
        },
        {
          "duration": 0.75,
          "durationTicks": 512,
          "midi": 72,
          "name": "C5",
          "ticks": 252672,
          "time": 370.125,
          "velocity": 0.48031496062992124
        },
        {
          "duration": 0.75,
          "durationTicks": 512,
          "midi": 69,
          "name": "A4",
          "ticks": 253696,
          "time": 371.625,
          "velocity": 0.44881889763779526
        },
        {
          "duration": 0.75,
          "durationTicks": 512,
          "midi": 69,
          "name": "A4",
          "ticks": 254208,
          "time": 372.375,
          "velocity": 0.47244094488188976
        },
        {
          "duration": 0.75,
          "durationTicks": 512,
          "midi": 69,
          "name": "A4",
          "ticks": 254720,
          "time": 373.125,
          "velocity": 0.49606299212598426
        },
        {
          "duration": 0.75,
          "durationTicks": 512,
          "midi": 60,
          "name": "C4",
          "ticks": 255744,
          "time": 374.625,
          "velocity": 0.41732283464566927
        },
        {
          "duration": 0.75,
          "durationTicks": 512,
          "midi": 60,
          "name": "C4",
          "ticks": 256256,
          "time": 375.375,
          "velocity": 0.4645669291338583
        },
        {
          "duration": 0.75,
          "durationTicks": 512,
          "midi": 60,
          "name": "C4",
          "ticks": 256768,
          "time": 376.125,
          "velocity": 0.4881889763779528
        },
        {
          "duration": 0.1904296875,
          "durationTicks": 130,
          "midi": 70,
          "name": "A#4",
          "ticks": 257792,
          "time": 377.625,
          "velocity": 0.7165354330708661
        },
        {
          "duration": 0.17724609375,
          "durationTicks": 121,
          "midi": 69,
          "name": "A4",
          "ticks": 257920,
          "time": 377.8125,
          "velocity": 0.6692913385826772
        },
        {
          "duration": 0.375,
          "durationTicks": 256,
          "midi": 69,
          "name": "A4",
          "ticks": 258048,
          "time": 378,
          "velocity": 0.7322834645669292
        },
        {
          "duration": 0.1904296875,
          "durationTicks": 130,
          "midi": 69,
          "name": "A4",
          "ticks": 258816,
          "time": 379.125,
          "velocity": 0.6850393700787402
        },
        {
          "duration": 0.17724609375,
          "durationTicks": 121,
          "midi": 70,
          "name": "A#4",
          "ticks": 258944,
          "time": 379.3125,
          "velocity": 0.7007874015748031
        },
        {
          "duration": 0.375,
          "durationTicks": 256,
          "midi": 70,
          "name": "A#4",
          "ticks": 259072,
          "time": 379.5,
          "velocity": 0.7637795275590551
        },
        {
          "duration": 0.1904296875,
          "durationTicks": 130,
          "midi": 70,
          "name": "A#4",
          "ticks": 259840,
          "time": 380.625,
          "velocity": 0.7086614173228346
        },
        {
          "duration": 0.17724609375,
          "durationTicks": 121,
          "midi": 69,
          "name": "A4",
          "ticks": 259968,
          "time": 380.8125,
          "velocity": 0.6456692913385826
        },
        {
          "duration": 0.375,
          "durationTicks": 256,
          "midi": 67,
          "name": "G4",
          "ticks": 260096,
          "time": 381,
          "velocity": 0.7480314960629921
        },
        {
          "duration": 0.1904296875,
          "durationTicks": 130,
          "midi": 67,
          "name": "G4",
          "ticks": 260864,
          "time": 382.125,
          "velocity": 0.7165354330708661
        },
        {
          "duration": 0.17724609375,
          "durationTicks": 121,
          "midi": 66,
          "name": "F#4",
          "ticks": 260992,
          "time": 382.3125,
          "velocity": 0.6456692913385826
        },
        {
          "duration": 0.375,
          "durationTicks": 256,
          "midi": 66,
          "name": "F#4",
          "ticks": 261120,
          "time": 382.5,
          "velocity": 0.7637795275590551
        },
        {
          "duration": 0.1904296875,
          "durationTicks": 130,
          "midi": 68,
          "name": "G#4",
          "ticks": 261888,
          "time": 383.625,
          "velocity": 0.7322834645669292
        },
        {
          "duration": 0.17724609375,
          "durationTicks": 121,
          "midi": 69,
          "name": "A4",
          "ticks": 262016,
          "time": 383.8125,
          "velocity": 0.7480314960629921
        },
        {
          "duration": 0.375,
          "durationTicks": 256,
          "midi": 69,
          "name": "A4",
          "ticks": 262144,
          "time": 384,
          "velocity": 0.7322834645669292
        },
        {
          "duration": 0.1904296875,
          "durationTicks": 130,
          "midi": 72,
          "name": "C5",
          "ticks": 262912,
          "time": 385.125,
          "velocity": 0.7086614173228346
        },
        {
          "duration": 0.17724609375,
          "durationTicks": 121,
          "midi": 70,
          "name": "A#4",
          "ticks": 263040,
          "time": 385.3125,
          "velocity": 0.6220472440944882
        },
        {
          "duration": 0.375,
          "durationTicks": 256,
          "midi": 70,
          "name": "A#4",
          "ticks": 263168,
          "time": 385.5,
          "velocity": 0.7795275590551181
        },
        {
          "duration": 0.1904296875,
          "durationTicks": 130,
          "midi": 71,
          "name": "B4",
          "ticks": 263936,
          "time": 386.625,
          "velocity": 0.7007874015748031
        },
        {
          "duration": 0.17724609375,
          "durationTicks": 121,
          "midi": 72,
          "name": "C5",
          "ticks": 264064,
          "time": 386.8125,
          "velocity": 0.7322834645669292
        },
        {
          "duration": 0.375,
          "durationTicks": 256,
          "midi": 72,
          "name": "C5",
          "ticks": 264192,
          "time": 387,
          "velocity": 0.7559055118110236
        },
        {
          "duration": 0.1904296875,
          "durationTicks": 130,
          "midi": 69,
          "name": "A4",
          "ticks": 264448,
          "time": 387.375,
          "velocity": 0.7244094488188977
        },
        {
          "duration": 0.17724609375,
          "durationTicks": 121,
          "midi": 67,
          "name": "G4",
          "ticks": 264576,
          "time": 387.5625,
          "velocity": 0.6535433070866141
        },
        {
          "duration": 0.375,
          "durationTicks": 256,
          "midi": 67,
          "name": "G4",
          "ticks": 264704,
          "time": 387.75,
          "velocity": 0.7637795275590551
        },
        {
          "duration": 0.1904296875,
          "durationTicks": 130,
          "midi": 67,
          "name": "G4",
          "ticks": 264960,
          "time": 388.125,
          "velocity": 0.7637795275590551
        },
        {
          "duration": 0.17724609375,
          "durationTicks": 121,
          "midi": 69,
          "name": "A4",
          "ticks": 265088,
          "time": 388.3125,
          "velocity": 0.7795275590551181
        },
        {
          "duration": 0.375,
          "durationTicks": 256,
          "midi": 69,
          "name": "A4",
          "ticks": 265216,
          "time": 388.5,
          "velocity": 0.7795275590551181
        },
        {
          "duration": 0.1875,
          "durationTicks": 128,
          "midi": 58,
          "name": "A#3",
          "ticks": 271360,
          "time": 397.5,
          "velocity": 0.4094488188976378
        },
        {
          "duration": 0.1875,
          "durationTicks": 128,
          "midi": 58,
          "name": "A#3",
          "ticks": 271488,
          "time": 397.6875,
          "velocity": 0.47244094488188976
        },
        {
          "duration": 0.1875,
          "durationTicks": 128,
          "midi": 67,
          "name": "G4",
          "ticks": 271616,
          "time": 397.875,
          "velocity": 0.5511811023622047
        },
        {
          "duration": 0.1875,
          "durationTicks": 128,
          "midi": 67,
          "name": "G4",
          "ticks": 271744,
          "time": 398.0625,
          "velocity": 0.49606299212598426
        },
        {
          "duration": 0.1875,
          "durationTicks": 128,
          "midi": 58,
          "name": "A#3",
          "ticks": 271872,
          "time": 398.25,
          "velocity": 0.4409448818897638
        },
        {
          "duration": 0.1875,
          "durationTicks": 128,
          "midi": 58,
          "name": "A#3",
          "ticks": 272000,
          "time": 398.4375,
          "velocity": 0.44881889763779526
        },
        {
          "duration": 0.1875,
          "durationTicks": 128,
          "midi": 67,
          "name": "G4",
          "ticks": 272128,
          "time": 398.625,
          "velocity": 0.5748031496062992
        },
        {
          "duration": 0.1875,
          "durationTicks": 128,
          "midi": 67,
          "name": "G4",
          "ticks": 272256,
          "time": 398.8125,
          "velocity": 0.5118110236220472
        },
        {
          "duration": 0.1875,
          "durationTicks": 128,
          "midi": 58,
          "name": "A#3",
          "ticks": 272384,
          "time": 399,
          "velocity": 0.4330708661417323
        },
        {
          "duration": 0.1875,
          "durationTicks": 128,
          "midi": 58,
          "name": "A#3",
          "ticks": 272512,
          "time": 399.1875,
          "velocity": 0.48031496062992124
        },
        {
          "duration": 0.1875,
          "durationTicks": 128,
          "midi": 62,
          "name": "D4",
          "ticks": 272640,
          "time": 399.375,
          "velocity": 0.5196850393700787
        },
        {
          "duration": 0.1875,
          "durationTicks": 128,
          "midi": 62,
          "name": "D4",
          "ticks": 272768,
          "time": 399.5625,
          "velocity": 0.4566929133858268
        },
        {
          "duration": 0.1875,
          "durationTicks": 128,
          "midi": 58,
          "name": "A#3",
          "ticks": 272896,
          "time": 399.75,
          "velocity": 0.47244094488188976
        },
        {
          "duration": 0.1875,
          "durationTicks": 128,
          "midi": 58,
          "name": "A#3",
          "ticks": 273024,
          "time": 399.9375,
          "velocity": 0.47244094488188976
        },
        {
          "duration": 0.1875,
          "durationTicks": 128,
          "midi": 67,
          "name": "G4",
          "ticks": 273152,
          "time": 400.125,
          "velocity": 0.5826771653543307
        },
        {
          "duration": 0.1875,
          "durationTicks": 128,
          "midi": 67,
          "name": "G4",
          "ticks": 273280,
          "time": 400.3125,
          "velocity": 0.5039370078740157
        },
        {
          "duration": 0.1875,
          "durationTicks": 128,
          "midi": 63,
          "name": "D#4",
          "ticks": 273408,
          "time": 400.5,
          "velocity": 0.41732283464566927
        },
        {
          "duration": 0.1875,
          "durationTicks": 128,
          "midi": 63,
          "name": "D#4",
          "ticks": 273536,
          "time": 400.6875,
          "velocity": 0.47244094488188976
        },
        {
          "duration": 0.1875,
          "durationTicks": 128,
          "midi": 69,
          "name": "A4",
          "ticks": 273664,
          "time": 400.875,
          "velocity": 0.5826771653543307
        },
        {
          "duration": 0.1875,
          "durationTicks": 128,
          "midi": 69,
          "name": "A4",
          "ticks": 273792,
          "time": 401.0625,
          "velocity": 0.5196850393700787
        },
        {
          "duration": 0.1875,
          "durationTicks": 128,
          "midi": 63,
          "name": "D#4",
          "ticks": 273920,
          "time": 401.25,
          "velocity": 0.4015748031496063
        },
        {
          "duration": 0.1875,
          "durationTicks": 128,
          "midi": 63,
          "name": "D#4",
          "ticks": 274048,
          "time": 401.4375,
          "velocity": 0.41732283464566927
        },
        {
          "duration": 0.1875,
          "durationTicks": 128,
          "midi": 69,
          "name": "A4",
          "ticks": 274176,
          "time": 401.625,
          "velocity": 0.5669291338582677
        },
        {
          "duration": 0.1875,
          "durationTicks": 128,
          "midi": 69,
          "name": "A4",
          "ticks": 274304,
          "time": 401.8125,
          "velocity": 0.47244094488188976
        },
        {
          "duration": 0.1875,
          "durationTicks": 128,
          "midi": 63,
          "name": "D#4",
          "ticks": 274432,
          "time": 402,
          "velocity": 0.3779527559055118
        },
        {
          "duration": 0.1875,
          "durationTicks": 128,
          "midi": 63,
          "name": "D#4",
          "ticks": 274560,
          "time": 402.1875,
          "velocity": 0.41732283464566927
        },
        {
          "duration": 0.1875,
          "durationTicks": 128,
          "midi": 69,
          "name": "A4",
          "ticks": 274688,
          "time": 402.375,
          "velocity": 0.5669291338582677
        },
        {
          "duration": 0.1875,
          "durationTicks": 128,
          "midi": 69,
          "name": "A4",
          "ticks": 274816,
          "time": 402.5625,
          "velocity": 0.49606299212598426
        },
        {
          "duration": 0.1875,
          "durationTicks": 128,
          "midi": 63,
          "name": "D#4",
          "ticks": 274944,
          "time": 402.75,
          "velocity": 0.4015748031496063
        },
        {
          "duration": 0.1875,
          "durationTicks": 128,
          "midi": 63,
          "name": "D#4",
          "ticks": 275072,
          "time": 402.9375,
          "velocity": 0.47244094488188976
        },
        {
          "duration": 0.1875,
          "durationTicks": 128,
          "midi": 69,
          "name": "A4",
          "ticks": 275200,
          "time": 403.125,
          "velocity": 0.5590551181102362
        },
        {
          "duration": 0.1875,
          "durationTicks": 128,
          "midi": 69,
          "name": "A4",
          "ticks": 275328,
          "time": 403.3125,
          "velocity": 0.4881889763779528
        },
        {
          "duration": 0.1875,
          "durationTicks": 128,
          "midi": 62,
          "name": "D4",
          "ticks": 275456,
          "time": 403.5,
          "velocity": 0.3937007874015748
        },
        {
          "duration": 0.1875,
          "durationTicks": 128,
          "midi": 62,
          "name": "D4",
          "ticks": 275584,
          "time": 403.6875,
          "velocity": 0.48031496062992124
        },
        {
          "duration": 0.1875,
          "durationTicks": 128,
          "midi": 72,
          "name": "C5",
          "ticks": 275712,
          "time": 403.875,
          "velocity": 0.5984251968503937
        },
        {
          "duration": 0.1875,
          "durationTicks": 128,
          "midi": 72,
          "name": "C5",
          "ticks": 275840,
          "time": 404.0625,
          "velocity": 0.49606299212598426
        },
        {
          "duration": 0.1875,
          "durationTicks": 128,
          "midi": 62,
          "name": "D4",
          "ticks": 275968,
          "time": 404.25,
          "velocity": 0.3779527559055118
        },
        {
          "duration": 0.1875,
          "durationTicks": 128,
          "midi": 62,
          "name": "D4",
          "ticks": 276096,
          "time": 404.4375,
          "velocity": 0.48031496062992124
        },
        {
          "duration": 0.1875,
          "durationTicks": 128,
          "midi": 72,
          "name": "C5",
          "ticks": 276224,
          "time": 404.625,
          "velocity": 0.5748031496062992
        },
        {
          "duration": 0.1875,
          "durationTicks": 128,
          "midi": 72,
          "name": "C5",
          "ticks": 276352,
          "time": 404.8125,
          "velocity": 0.5118110236220472
        },
        {
          "duration": 0.1875,
          "durationTicks": 128,
          "midi": 60,
          "name": "C4",
          "ticks": 276480,
          "time": 405,
          "velocity": 0.3779527559055118
        },
        {
          "duration": 0.1875,
          "durationTicks": 128,
          "midi": 60,
          "name": "C4",
          "ticks": 276608,
          "time": 405.1875,
          "velocity": 0.4566929133858268
        },
        {
          "duration": 0.1875,
          "durationTicks": 128,
          "midi": 69,
          "name": "A4",
          "ticks": 276736,
          "time": 405.375,
          "velocity": 0.5590551181102362
        },
        {
          "duration": 0.1875,
          "durationTicks": 128,
          "midi": 69,
          "name": "A4",
          "ticks": 276864,
          "time": 405.5625,
          "velocity": 0.49606299212598426
        },
        {
          "duration": 0.1875,
          "durationTicks": 128,
          "midi": 66,
          "name": "F#4",
          "ticks": 276992,
          "time": 405.75,
          "velocity": 0.41732283464566927
        },
        {
          "duration": 0.1875,
          "durationTicks": 128,
          "midi": 66,
          "name": "F#4",
          "ticks": 277120,
          "time": 405.9375,
          "velocity": 0.4566929133858268
        },
        {
          "duration": 0.1875,
          "durationTicks": 128,
          "midi": 69,
          "name": "A4",
          "ticks": 277248,
          "time": 406.125,
          "velocity": 0.5118110236220472
        },
        {
          "duration": 0.1875,
          "durationTicks": 128,
          "midi": 69,
          "name": "A4",
          "ticks": 277376,
          "time": 406.3125,
          "velocity": 0.5275590551181102
        },
        {
          "duration": 0.1875,
          "durationTicks": 128,
          "midi": 62,
          "name": "D4",
          "ticks": 277504,
          "time": 406.5,
          "velocity": 0.3779527559055118
        },
        {
          "duration": 0.1875,
          "durationTicks": 128,
          "midi": 62,
          "name": "D4",
          "ticks": 277632,
          "time": 406.6875,
          "velocity": 0.44881889763779526
        },
        {
          "duration": 0.1875,
          "durationTicks": 128,
          "midi": 67,
          "name": "G4",
          "ticks": 277760,
          "time": 406.875,
          "velocity": 0.5511811023622047
        },
        {
          "duration": 0.1875,
          "durationTicks": 128,
          "midi": 67,
          "name": "G4",
          "ticks": 277888,
          "time": 407.0625,
          "velocity": 0.48031496062992124
        },
        {
          "duration": 0.1875,
          "durationTicks": 128,
          "midi": 62,
          "name": "D4",
          "ticks": 278016,
          "time": 407.25,
          "velocity": 0.4251968503937008
        },
        {
          "duration": 0.1875,
          "durationTicks": 128,
          "midi": 62,
          "name": "D4",
          "ticks": 278144,
          "time": 407.4375,
          "velocity": 0.4881889763779528
        },
        {
          "duration": 0.1875,
          "durationTicks": 128,
          "midi": 67,
          "name": "G4",
          "ticks": 278272,
          "time": 407.625,
          "velocity": 0.5590551181102362
        },
        {
          "duration": 0.1875,
          "durationTicks": 128,
          "midi": 67,
          "name": "G4",
          "ticks": 278400,
          "time": 407.8125,
          "velocity": 0.4881889763779528
        },
        {
          "duration": 0.1875,
          "durationTicks": 128,
          "midi": 63,
          "name": "D#4",
          "ticks": 278528,
          "time": 408,
          "velocity": 0.47244094488188976
        },
        {
          "duration": 0.1875,
          "durationTicks": 128,
          "midi": 63,
          "name": "D#4",
          "ticks": 278656,
          "time": 408.1875,
          "velocity": 0.41732283464566927
        },
        {
          "duration": 0.1875,
          "durationTicks": 128,
          "midi": 66,
          "name": "F#4",
          "ticks": 278784,
          "time": 408.375,
          "velocity": 0.5433070866141733
        },
        {
          "duration": 0.1875,
          "durationTicks": 128,
          "midi": 66,
          "name": "F#4",
          "ticks": 278912,
          "time": 408.5625,
          "velocity": 0.5196850393700787
        },
        {
          "duration": 0.1875,
          "durationTicks": 128,
          "midi": 63,
          "name": "D#4",
          "ticks": 279040,
          "time": 408.75,
          "velocity": 0.4330708661417323
        },
        {
          "duration": 0.1875,
          "durationTicks": 128,
          "midi": 63,
          "name": "D#4",
          "ticks": 279168,
          "time": 408.9375,
          "velocity": 0.47244094488188976
        },
        {
          "duration": 0.1875,
          "durationTicks": 128,
          "midi": 66,
          "name": "F#4",
          "ticks": 279296,
          "time": 409.125,
          "velocity": 0.5511811023622047
        },
        {
          "duration": 0.1875,
          "durationTicks": 128,
          "midi": 66,
          "name": "F#4",
          "ticks": 279424,
          "time": 409.3125,
          "velocity": 0.5275590551181102
        },
        {
          "duration": 0.1875,
          "durationTicks": 128,
          "midi": 62,
          "name": "D4",
          "ticks": 279552,
          "time": 409.5,
          "velocity": 0.4330708661417323
        },
        {
          "duration": 0.1875,
          "durationTicks": 128,
          "midi": 62,
          "name": "D4",
          "ticks": 279680,
          "time": 409.6875,
          "velocity": 0.4881889763779528
        },
        {
          "duration": 0.1875,
          "durationTicks": 128,
          "midi": 67,
          "name": "G4",
          "ticks": 279808,
          "time": 409.875,
          "velocity": 0.5433070866141733
        },
        {
          "duration": 0.1875,
          "durationTicks": 128,
          "midi": 67,
          "name": "G4",
          "ticks": 279936,
          "time": 410.0625,
          "velocity": 0.49606299212598426
        },
        {
          "duration": 0.1875,
          "durationTicks": 128,
          "midi": 62,
          "name": "D4",
          "ticks": 280064,
          "time": 410.25,
          "velocity": 0.41732283464566927
        },
        {
          "duration": 0.1875,
          "durationTicks": 128,
          "midi": 62,
          "name": "D4",
          "ticks": 280192,
          "time": 410.4375,
          "velocity": 0.47244094488188976
        },
        {
          "duration": 0.1875,
          "durationTicks": 128,
          "midi": 67,
          "name": "G4",
          "ticks": 280320,
          "time": 410.625,
          "velocity": 0.5511811023622047
        },
        {
          "duration": 0.1875,
          "durationTicks": 128,
          "midi": 67,
          "name": "G4",
          "ticks": 280448,
          "time": 410.8125,
          "velocity": 0.5196850393700787
        },
        {
          "duration": 0.1875,
          "durationTicks": 128,
          "midi": 63,
          "name": "D#4",
          "ticks": 280576,
          "time": 411,
          "velocity": 0.4409448818897638
        },
        {
          "duration": 0.1875,
          "durationTicks": 128,
          "midi": 63,
          "name": "D#4",
          "ticks": 280704,
          "time": 411.1875,
          "velocity": 0.47244094488188976
        },
        {
          "duration": 0.1875,
          "durationTicks": 128,
          "midi": 66,
          "name": "F#4",
          "ticks": 280832,
          "time": 411.375,
          "velocity": 0.5196850393700787
        },
        {
          "duration": 0.1875,
          "durationTicks": 128,
          "midi": 66,
          "name": "F#4",
          "ticks": 280960,
          "time": 411.5625,
          "velocity": 0.44881889763779526
        },
        {
          "duration": 0.1875,
          "durationTicks": 128,
          "midi": 63,
          "name": "D#4",
          "ticks": 281088,
          "time": 411.75,
          "velocity": 0.4251968503937008
        },
        {
          "duration": 0.1875,
          "durationTicks": 128,
          "midi": 63,
          "name": "D#4",
          "ticks": 281216,
          "time": 411.9375,
          "velocity": 0.5039370078740157
        },
        {
          "duration": 0.1875,
          "durationTicks": 128,
          "midi": 66,
          "name": "F#4",
          "ticks": 281344,
          "time": 412.125,
          "velocity": 0.5275590551181102
        },
        {
          "duration": 0.1875,
          "durationTicks": 128,
          "midi": 66,
          "name": "F#4",
          "ticks": 281472,
          "time": 412.3125,
          "velocity": 0.47244094488188976
        },
        {
          "duration": 1.5,
          "durationTicks": 1024,
          "midi": 62,
          "name": "D4",
          "ticks": 281600,
          "time": 412.5,
          "velocity": 0.44881889763779526
        },
        {
          "duration": 1.14697265625,
          "durationTicks": 783,
          "midi": 58,
          "name": "A#3",
          "ticks": 282624,
          "time": 414,
          "velocity": 0.4251968503937008
        },
        {
          "duration": 0.38232421875,
          "durationTicks": 261,
          "midi": 57,
          "name": "A3",
          "ticks": 283392,
          "time": 415.125,
          "velocity": 0.3779527559055118
        },
        {
          "duration": 0.7646484375,
          "durationTicks": 522,
          "midi": 55,
          "name": "G3",
          "ticks": 283648,
          "time": 415.5,
          "velocity": 0.48031496062992124
        },
        {
          "duration": 0.38232421875,
          "durationTicks": 261,
          "midi": 54,
          "name": "F#3",
          "ticks": 284160,
          "time": 416.25,
          "velocity": 0.48031496062992124
        },
        {
          "duration": 0.38232421875,
          "durationTicks": 261,
          "midi": 55,
          "name": "G3",
          "ticks": 284416,
          "time": 416.625,
          "velocity": 0.4881889763779528
        },
        {
          "duration": 0.7119140625,
          "durationTicks": 486,
          "midi": 57,
          "name": "A3",
          "ticks": 284672,
          "time": 417,
          "velocity": 0.5354330708661418
        },
        {
          "duration": 0.1875,
          "durationTicks": 128,
          "midi": 62,
          "name": "D4",
          "ticks": 285440,
          "time": 418.125,
          "velocity": 0.7322834645669292
        },
        {
          "duration": 0.1875,
          "durationTicks": 128,
          "midi": 62,
          "name": "D4",
          "ticks": 285568,
          "time": 418.3125,
          "velocity": 0.7244094488188977
        },
        {
          "duration": 0.75,
          "durationTicks": 512,
          "midi": 62,
          "name": "D4",
          "ticks": 285696,
          "time": 418.5,
          "velocity": 0.7637795275590551
        },
        {
          "duration": 0.1875,
          "durationTicks": 128,
          "midi": 62,
          "name": "D4",
          "ticks": 286464,
          "time": 419.625,
          "velocity": 0.6614173228346457
        },
        {
          "duration": 0.1875,
          "durationTicks": 128,
          "midi": 62,
          "name": "D4",
          "ticks": 286592,
          "time": 419.8125,
          "velocity": 0.7559055118110236
        },
        {
          "duration": 0.75,
          "durationTicks": 512,
          "midi": 62,
          "name": "D4",
          "ticks": 286720,
          "time": 420,
          "velocity": 0.7637795275590551
        },
        {
          "duration": 0.1875,
          "durationTicks": 128,
          "midi": 62,
          "name": "D4",
          "ticks": 287488,
          "time": 421.125,
          "velocity": 0.6771653543307087
        },
        {
          "duration": 0.1875,
          "durationTicks": 128,
          "midi": 62,
          "name": "D4",
          "ticks": 287616,
          "time": 421.3125,
          "velocity": 0.7322834645669292
        },
        {
          "duration": 0.375,
          "durationTicks": 256,
          "midi": 62,
          "name": "D4",
          "ticks": 287744,
          "time": 421.5,
          "velocity": 0.7716535433070866
        },
        {
          "duration": 0.1875,
          "durationTicks": 128,
          "midi": 62,
          "name": "D4",
          "ticks": 288000,
          "time": 421.875,
          "velocity": 0.7952755905511811
        },
        {
          "duration": 0.1875,
          "durationTicks": 128,
          "midi": 62,
          "name": "D4",
          "ticks": 288128,
          "time": 422.0625,
          "velocity": 0.7952755905511811
        },
        {
          "duration": 0.375,
          "durationTicks": 256,
          "midi": 62,
          "name": "D4",
          "ticks": 288256,
          "time": 422.25,
          "velocity": 0.7716535433070866
        },
        {
          "duration": 0.1875,
          "durationTicks": 128,
          "midi": 62,
          "name": "D4",
          "ticks": 288512,
          "time": 422.625,
          "velocity": 0.7559055118110236
        },
        {
          "duration": 0.1875,
          "durationTicks": 128,
          "midi": 62,
          "name": "D4",
          "ticks": 288640,
          "time": 422.8125,
          "velocity": 0.7480314960629921
        },
        {
          "duration": 0.75,
          "durationTicks": 512,
          "midi": 62,
          "name": "D4",
          "ticks": 288768,
          "time": 423,
          "velocity": 0.7795275590551181
        },
        {
          "duration": 0.1875,
          "durationTicks": 128,
          "midi": 58,
          "name": "A#3",
          "ticks": 290816,
          "time": 426,
          "velocity": 0.4566929133858268
        },
        {
          "duration": 0.1875,
          "durationTicks": 128,
          "midi": 58,
          "name": "A#3",
          "ticks": 290944,
          "time": 426.1875,
          "velocity": 0.49606299212598426
        },
        {
          "duration": 0.1875,
          "durationTicks": 128,
          "midi": 67,
          "name": "G4",
          "ticks": 291072,
          "time": 426.375,
          "velocity": 0.5669291338582677
        },
        {
          "duration": 0.1875,
          "durationTicks": 128,
          "midi": 67,
          "name": "G4",
          "ticks": 291200,
          "time": 426.5625,
          "velocity": 0.49606299212598426
        },
        {
          "duration": 0.1875,
          "durationTicks": 128,
          "midi": 58,
          "name": "A#3",
          "ticks": 291328,
          "time": 426.75,
          "velocity": 0.4251968503937008
        },
        {
          "duration": 0.1875,
          "durationTicks": 128,
          "midi": 58,
          "name": "A#3",
          "ticks": 291456,
          "time": 426.9375,
          "velocity": 0.4566929133858268
        },
        {
          "duration": 0.1875,
          "durationTicks": 128,
          "midi": 67,
          "name": "G4",
          "ticks": 291584,
          "time": 427.125,
          "velocity": 0.6299212598425197
        },
        {
          "duration": 0.1875,
          "durationTicks": 128,
          "midi": 67,
          "name": "G4",
          "ticks": 291712,
          "time": 427.3125,
          "velocity": 0.48031496062992124
        },
        {
          "duration": 0.1875,
          "durationTicks": 128,
          "midi": 63,
          "name": "D#4",
          "ticks": 291840,
          "time": 427.5,
          "velocity": 0.4409448818897638
        },
        {
          "duration": 0.1875,
          "durationTicks": 128,
          "midi": 63,
          "name": "D#4",
          "ticks": 291968,
          "time": 427.6875,
          "velocity": 0.5039370078740157
        },
        {
          "duration": 0.1875,
          "durationTicks": 128,
          "midi": 67,
          "name": "G4",
          "ticks": 292096,
          "time": 427.875,
          "velocity": 0.5275590551181102
        },
        {
          "duration": 0.1875,
          "durationTicks": 128,
          "midi": 67,
          "name": "G4",
          "ticks": 292224,
          "time": 428.0625,
          "velocity": 0.47244094488188976
        },
        {
          "duration": 0.1875,
          "durationTicks": 128,
          "midi": 63,
          "name": "D#4",
          "ticks": 292352,
          "time": 428.25,
          "velocity": 0.44881889763779526
        },
        {
          "duration": 0.1875,
          "durationTicks": 128,
          "midi": 63,
          "name": "D#4",
          "ticks": 292480,
          "time": 428.4375,
          "velocity": 0.48031496062992124
        },
        {
          "duration": 0.1875,
          "durationTicks": 128,
          "midi": 70,
          "name": "A#4",
          "ticks": 292608,
          "time": 428.625,
          "velocity": 0.5669291338582677
        },
        {
          "duration": 0.1875,
          "durationTicks": 128,
          "midi": 70,
          "name": "A#4",
          "ticks": 292736,
          "time": 428.8125,
          "velocity": 0.49606299212598426
        },
        {
          "duration": 0.1875,
          "durationTicks": 128,
          "midi": 58,
          "name": "A#3",
          "ticks": 292864,
          "time": 429,
          "velocity": 0.44881889763779526
        },
        {
          "duration": 0.1875,
          "durationTicks": 128,
          "midi": 58,
          "name": "A#3",
          "ticks": 292992,
          "time": 429.1875,
          "velocity": 0.44881889763779526
        },
        {
          "duration": 0.1875,
          "durationTicks": 128,
          "midi": 68,
          "name": "G#4",
          "ticks": 293120,
          "time": 429.375,
          "velocity": 0.5826771653543307
        },
        {
          "duration": 0.1875,
          "durationTicks": 128,
          "midi": 68,
          "name": "G#4",
          "ticks": 293248,
          "time": 429.5625,
          "velocity": 0.4566929133858268
        },
        {
          "duration": 0.1875,
          "durationTicks": 128,
          "midi": 58,
          "name": "A#3",
          "ticks": 293376,
          "time": 429.75,
          "velocity": 0.4330708661417323
        },
        {
          "duration": 0.1875,
          "durationTicks": 128,
          "midi": 58,
          "name": "A#3",
          "ticks": 293504,
          "time": 429.9375,
          "velocity": 0.44881889763779526
        },
        {
          "duration": 0.1875,
          "durationTicks": 128,
          "midi": 62,
          "name": "D4",
          "ticks": 293632,
          "time": 430.125,
          "velocity": 0.5354330708661418
        },
        {
          "duration": 0.1875,
          "durationTicks": 128,
          "midi": 62,
          "name": "D4",
          "ticks": 293760,
          "time": 430.3125,
          "velocity": 0.48031496062992124
        },
        {
          "duration": 0.1875,
          "durationTicks": 128,
          "midi": 59,
          "name": "B3",
          "ticks": 293888,
          "time": 430.5,
          "velocity": 0.49606299212598426
        },
        {
          "duration": 0.1875,
          "durationTicks": 128,
          "midi": 59,
          "name": "B3",
          "ticks": 294016,
          "time": 430.6875,
          "velocity": 0.5196850393700787
        },
        {
          "duration": 0.1875,
          "durationTicks": 128,
          "midi": 65,
          "name": "F4",
          "ticks": 294144,
          "time": 430.875,
          "velocity": 0.5590551181102362
        },
        {
          "duration": 0.1875,
          "durationTicks": 128,
          "midi": 65,
          "name": "F4",
          "ticks": 294272,
          "time": 431.0625,
          "velocity": 0.4566929133858268
        },
        {
          "duration": 0.1875,
          "durationTicks": 128,
          "midi": 59,
          "name": "B3",
          "ticks": 294400,
          "time": 431.25,
          "velocity": 0.4566929133858268
        },
        {
          "duration": 0.1875,
          "durationTicks": 128,
          "midi": 59,
          "name": "B3",
          "ticks": 294528,
          "time": 431.4375,
          "velocity": 0.5039370078740157
        },
        {
          "duration": 0.1875,
          "durationTicks": 128,
          "midi": 65,
          "name": "F4",
          "ticks": 294656,
          "time": 431.625,
          "velocity": 0.5590551181102362
        },
        {
          "duration": 0.1875,
          "durationTicks": 128,
          "midi": 65,
          "name": "F4",
          "ticks": 294784,
          "time": 431.8125,
          "velocity": 0.5118110236220472
        },
        {
          "duration": 0.1875,
          "durationTicks": 128,
          "midi": 58,
          "name": "A#3",
          "ticks": 294912,
          "time": 432,
          "velocity": 0.4330708661417323
        },
        {
          "duration": 0.1875,
          "durationTicks": 128,
          "midi": 58,
          "name": "A#3",
          "ticks": 295040,
          "time": 432.1875,
          "velocity": 0.4881889763779528
        },
        {
          "duration": 0.1875,
          "durationTicks": 128,
          "midi": 68,
          "name": "G#4",
          "ticks": 295168,
          "time": 432.375,
          "velocity": 0.5984251968503937
        },
        {
          "duration": 0.1875,
          "durationTicks": 128,
          "midi": 68,
          "name": "G#4",
          "ticks": 295296,
          "time": 432.5625,
          "velocity": 0.5196850393700787
        },
        {
          "duration": 0.1875,
          "durationTicks": 128,
          "midi": 58,
          "name": "A#3",
          "ticks": 295424,
          "time": 432.75,
          "velocity": 0.4015748031496063
        },
        {
          "duration": 0.1875,
          "durationTicks": 128,
          "midi": 58,
          "name": "A#3",
          "ticks": 295552,
          "time": 432.9375,
          "velocity": 0.47244094488188976
        },
        {
          "duration": 0.1875,
          "durationTicks": 128,
          "midi": 68,
          "name": "G#4",
          "ticks": 295680,
          "time": 433.125,
          "velocity": 0.5905511811023622
        },
        {
          "duration": 0.1875,
          "durationTicks": 128,
          "midi": 68,
          "name": "G#4",
          "ticks": 295808,
          "time": 433.3125,
          "velocity": 0.5275590551181102
        },
        {
          "duration": 0.1875,
          "durationTicks": 128,
          "midi": 56,
          "name": "G#3",
          "ticks": 295936,
          "time": 433.5,
          "velocity": 0.4094488188976378
        },
        {
          "duration": 0.1875,
          "durationTicks": 128,
          "midi": 56,
          "name": "G#3",
          "ticks": 296064,
          "time": 433.6875,
          "velocity": 0.4409448818897638
        },
        {
          "duration": 0.1875,
          "durationTicks": 128,
          "midi": 65,
          "name": "F4",
          "ticks": 296192,
          "time": 433.875,
          "velocity": 0.5905511811023622
        },
        {
          "duration": 0.1875,
          "durationTicks": 128,
          "midi": 65,
          "name": "F4",
          "ticks": 296320,
          "time": 434.0625,
          "velocity": 0.4645669291338583
        },
        {
          "duration": 0.1875,
          "durationTicks": 128,
          "midi": 62,
          "name": "D4",
          "ticks": 296448,
          "time": 434.25,
          "velocity": 0.4645669291338583
        },
        {
          "duration": 0.1875,
          "durationTicks": 128,
          "midi": 62,
          "name": "D4",
          "ticks": 296576,
          "time": 434.4375,
          "velocity": 0.48031496062992124
        },
        {
          "duration": 0.1875,
          "durationTicks": 128,
          "midi": 65,
          "name": "F4",
          "ticks": 296704,
          "time": 434.625,
          "velocity": 0.5039370078740157
        },
        {
          "duration": 0.1875,
          "durationTicks": 128,
          "midi": 65,
          "name": "F4",
          "ticks": 296832,
          "time": 434.8125,
          "velocity": 0.5196850393700787
        },
        {
          "duration": 0.375,
          "durationTicks": 256,
          "midi": 63,
          "name": "D#4",
          "ticks": 296960,
          "time": 435,
          "velocity": 0.7165354330708661
        },
        {
          "duration": 0.09375,
          "durationTicks": 64,
          "midi": 58,
          "name": "A#3",
          "ticks": 297216,
          "time": 435.375,
          "velocity": 0.7165354330708661
        },
        {
          "duration": 0.09375,
          "durationTicks": 64,
          "midi": 63,
          "name": "D#4",
          "ticks": 297344,
          "time": 435.5625,
          "velocity": 0.84251968503937
        },
        {
          "duration": 0.09375,
          "durationTicks": 64,
          "midi": 67,
          "name": "G4",
          "ticks": 297472,
          "time": 435.75,
          "velocity": 0.8661417322834646
        },
        {
          "duration": 0.09375,
          "durationTicks": 64,
          "midi": 65,
          "name": "F4",
          "ticks": 297600,
          "time": 435.9375,
          "velocity": 0.6929133858267716
        },
        {
          "duration": 0.09375,
          "durationTicks": 64,
          "midi": 67,
          "name": "G4",
          "ticks": 297728,
          "time": 436.125,
          "velocity": 0.8031496062992126
        },
        {
          "duration": 0.09375,
          "durationTicks": 64,
          "midi": 63,
          "name": "D#4",
          "ticks": 297856,
          "time": 436.3125,
          "velocity": 0.7086614173228346
        },
        {
          "duration": 0.09375,
          "durationTicks": 64,
          "midi": 62,
          "name": "D4",
          "ticks": 297984,
          "time": 436.5,
          "velocity": 0.7165354330708661
        },
        {
          "duration": 0.09375,
          "durationTicks": 64,
          "midi": 63,
          "name": "D#4",
          "ticks": 298112,
          "time": 436.6875,
          "velocity": 0.7952755905511811
        },
        {
          "duration": 0.09375,
          "durationTicks": 64,
          "midi": 65,
          "name": "F4",
          "ticks": 298240,
          "time": 436.875,
          "velocity": 0.84251968503937
        },
        {
          "duration": 0.09375,
          "durationTicks": 64,
          "midi": 63,
          "name": "D#4",
          "ticks": 298368,
          "time": 437.0625,
          "velocity": 0.6929133858267716
        },
        {
          "duration": 0.09375,
          "durationTicks": 64,
          "midi": 62,
          "name": "D4",
          "ticks": 298496,
          "time": 437.25,
          "velocity": 0.7322834645669292
        },
        {
          "duration": 0.09375,
          "durationTicks": 64,
          "midi": 60,
          "name": "C4",
          "ticks": 298624,
          "time": 437.4375,
          "velocity": 0.7559055118110236
        },
        {
          "duration": 0.09375,
          "durationTicks": 64,
          "midi": 62,
          "name": "D4",
          "ticks": 298752,
          "time": 437.625,
          "velocity": 0.8267716535433071
        },
        {
          "duration": 0.09375,
          "durationTicks": 64,
          "midi": 58,
          "name": "A#3",
          "ticks": 298880,
          "time": 437.8125,
          "velocity": 0.7165354330708661
        },
        {
          "duration": 0.1875,
          "durationTicks": 128,
          "midi": 63,
          "name": "D#4",
          "ticks": 299008,
          "time": 438,
          "velocity": 0.8661417322834646
        },
        {
          "duration": 0.1875,
          "durationTicks": 128,
          "midi": 60,
          "name": "C4",
          "ticks": 299136,
          "time": 438.1875,
          "velocity": 0.7165354330708661
        },
        {
          "duration": 0.1875,
          "durationTicks": 128,
          "midi": 63,
          "name": "D#4",
          "ticks": 299264,
          "time": 438.375,
          "velocity": 0.84251968503937
        },
        {
          "duration": 0.1875,
          "durationTicks": 128,
          "midi": 60,
          "name": "C4",
          "ticks": 299392,
          "time": 438.5625,
          "velocity": 0.7007874015748031
        },
        {
          "duration": 0.1875,
          "durationTicks": 128,
          "midi": 63,
          "name": "D#4",
          "ticks": 299520,
          "time": 438.75,
          "velocity": 0.8188976377952756
        },
        {
          "duration": 0.1875,
          "durationTicks": 128,
          "midi": 60,
          "name": "C4",
          "ticks": 299648,
          "time": 438.9375,
          "velocity": 0.7007874015748031
        },
        {
          "duration": 0.1875,
          "durationTicks": 128,
          "midi": 63,
          "name": "D#4",
          "ticks": 299776,
          "time": 439.125,
          "velocity": 0.8110236220472441
        },
        {
          "duration": 0.1875,
          "durationTicks": 128,
          "midi": 60,
          "name": "C4",
          "ticks": 299904,
          "time": 439.3125,
          "velocity": 0.7244094488188977
        },
        {
          "duration": 0.1875,
          "durationTicks": 128,
          "midi": 63,
          "name": "D#4",
          "ticks": 300032,
          "time": 439.5,
          "velocity": 0.84251968503937
        },
        {
          "duration": 0.1875,
          "durationTicks": 128,
          "midi": 58,
          "name": "A#3",
          "ticks": 300160,
          "time": 439.6875,
          "velocity": 0.7480314960629921
        },
        {
          "duration": 0.1875,
          "durationTicks": 128,
          "midi": 63,
          "name": "D#4",
          "ticks": 300288,
          "time": 439.875,
          "velocity": 0.8661417322834646
        },
        {
          "duration": 0.1875,
          "durationTicks": 128,
          "midi": 58,
          "name": "A#3",
          "ticks": 300416,
          "time": 440.0625,
          "velocity": 0.7559055118110236
        },
        {
          "duration": 0.1875,
          "durationTicks": 128,
          "midi": 63,
          "name": "D#4",
          "ticks": 300544,
          "time": 440.25,
          "velocity": 0.8976377952755905
        },
        {
          "duration": 0.1875,
          "durationTicks": 128,
          "midi": 58,
          "name": "A#3",
          "ticks": 300672,
          "time": 440.4375,
          "velocity": 0.7559055118110236
        },
        {
          "duration": 0.1875,
          "durationTicks": 128,
          "midi": 63,
          "name": "D#4",
          "ticks": 300800,
          "time": 440.625,
          "velocity": 0.84251968503937
        },
        {
          "duration": 0.1875,
          "durationTicks": 128,
          "midi": 58,
          "name": "A#3",
          "ticks": 300928,
          "time": 440.8125,
          "velocity": 0.7637795275590551
        },
        {
          "duration": 0.1875,
          "durationTicks": 128,
          "midi": 60,
          "name": "C4",
          "ticks": 301056,
          "time": 441,
          "velocity": 0.8346456692913385
        },
        {
          "duration": 0.1875,
          "durationTicks": 128,
          "midi": 68,
          "name": "G#4",
          "ticks": 301184,
          "time": 441.1875,
          "velocity": 0.952755905511811
        },
        {
          "duration": 0.1875,
          "durationTicks": 128,
          "midi": 72,
          "name": "C5",
          "ticks": 301312,
          "time": 441.375,
          "velocity": 0.8818897637795275
        },
        {
          "duration": 0.1875,
          "durationTicks": 128,
          "midi": 68,
          "name": "G#4",
          "ticks": 301440,
          "time": 441.5625,
          "velocity": 0.7244094488188977
        },
        {
          "duration": 0.1875,
          "durationTicks": 128,
          "midi": 72,
          "name": "C5",
          "ticks": 301568,
          "time": 441.75,
          "velocity": 0.8503937007874016
        },
        {
          "duration": 0.1875,
          "durationTicks": 128,
          "midi": 68,
          "name": "G#4",
          "ticks": 301696,
          "time": 441.9375,
          "velocity": 0.6929133858267716
        },
        {
          "duration": 0.1875,
          "durationTicks": 128,
          "midi": 72,
          "name": "C5",
          "ticks": 301824,
          "time": 442.125,
          "velocity": 0.8346456692913385
        },
        {
          "duration": 0.1875,
          "durationTicks": 128,
          "midi": 68,
          "name": "G#4",
          "ticks": 301952,
          "time": 442.3125,
          "velocity": 0.6692913385826772
        },
        {
          "duration": 0.1875,
          "durationTicks": 128,
          "midi": 70,
          "name": "A#4",
          "ticks": 302080,
          "time": 442.5,
          "velocity": 0.7952755905511811
        },
        {
          "duration": 0.1875,
          "durationTicks": 128,
          "midi": 67,
          "name": "G4",
          "ticks": 302208,
          "time": 442.6875,
          "velocity": 0.6850393700787402
        },
        {
          "duration": 0.1875,
          "durationTicks": 128,
          "midi": 70,
          "name": "A#4",
          "ticks": 302336,
          "time": 442.875,
          "velocity": 0.8267716535433071
        },
        {
          "duration": 0.1875,
          "durationTicks": 128,
          "midi": 67,
          "name": "G4",
          "ticks": 302464,
          "time": 443.0625,
          "velocity": 0.7165354330708661
        },
        {
          "duration": 0.1875,
          "durationTicks": 128,
          "midi": 68,
          "name": "G#4",
          "ticks": 302592,
          "time": 443.25,
          "velocity": 0.8031496062992126
        },
        {
          "duration": 0.1875,
          "durationTicks": 128,
          "midi": 65,
          "name": "F4",
          "ticks": 302720,
          "time": 443.4375,
          "velocity": 0.7244094488188977
        },
        {
          "duration": 0.1875,
          "durationTicks": 128,
          "midi": 68,
          "name": "G#4",
          "ticks": 302848,
          "time": 443.625,
          "velocity": 0.8267716535433071
        },
        {
          "duration": 0.1875,
          "durationTicks": 128,
          "midi": 65,
          "name": "F4",
          "ticks": 302976,
          "time": 443.8125,
          "velocity": 0.7086614173228346
        },
        {
          "duration": 0.1875,
          "durationTicks": 128,
          "midi": 67,
          "name": "G4",
          "ticks": 303104,
          "time": 444,
          "velocity": 0.8110236220472441
        },
        {
          "duration": 0.1875,
          "durationTicks": 128,
          "midi": 64,
          "name": "E4",
          "ticks": 303232,
          "time": 444.1875,
          "velocity": 0.7244094488188977
        },
        {
          "duration": 0.1875,
          "durationTicks": 128,
          "midi": 67,
          "name": "G4",
          "ticks": 303360,
          "time": 444.375,
          "velocity": 0.8661417322834646
        },
        {
          "duration": 0.1875,
          "durationTicks": 128,
          "midi": 64,
          "name": "E4",
          "ticks": 303488,
          "time": 444.5625,
          "velocity": 0.7716535433070866
        },
        {
          "duration": 0.1875,
          "durationTicks": 128,
          "midi": 64,
          "name": "E4",
          "ticks": 303616,
          "time": 444.75,
          "velocity": 0.7559055118110236
        },
        {
          "duration": 0.1875,
          "durationTicks": 128,
          "midi": 60,
          "name": "C4",
          "ticks": 303744,
          "time": 444.9375,
          "velocity": 0.6929133858267716
        },
        {
          "duration": 0.1875,
          "durationTicks": 128,
          "midi": 64,
          "name": "E4",
          "ticks": 303872,
          "time": 445.125,
          "velocity": 0.8503937007874016
        },
        {
          "duration": 0.1875,
          "durationTicks": 128,
          "midi": 60,
          "name": "C4",
          "ticks": 304000,
          "time": 445.3125,
          "velocity": 0.7007874015748031
        },
        {
          "duration": 1.5,
          "durationTicks": 1024,
          "midi": 65,
          "name": "F4",
          "ticks": 304128,
          "time": 445.5,
          "velocity": 0.8582677165354331
        },
        {
          "duration": 1.125,
          "durationTicks": 768,
          "midi": 72,
          "name": "C5",
          "ticks": 305152,
          "time": 447,
          "velocity": 0.937007874015748
        },
        {
          "duration": 0.1875,
          "durationTicks": 128,
          "midi": 60,
          "name": "C4",
          "ticks": 306048,
          "time": 448.3125,
          "velocity": 0.7086614173228346
        },
        {
          "duration": 0.1875,
          "durationTicks": 128,
          "midi": 58,
          "name": "A#3",
          "ticks": 306176,
          "time": 448.5,
          "velocity": 0.7007874015748031
        },
        {
          "duration": 0.1875,
          "durationTicks": 128,
          "midi": 61,
          "name": "C#4",
          "ticks": 306432,
          "time": 448.875,
          "velocity": 0.8818897637795275
        },
        {
          "duration": 0.1875,
          "durationTicks": 128,
          "midi": 67,
          "name": "G4",
          "ticks": 306688,
          "time": 449.25,
          "velocity": 0.9133858267716536
        },
        {
          "duration": 0.1875,
          "durationTicks": 128,
          "midi": 56,
          "name": "G#3",
          "ticks": 307200,
          "time": 450,
          "velocity": 0.6771653543307087
        },
        {
          "duration": 0.1875,
          "durationTicks": 128,
          "midi": 60,
          "name": "C4",
          "ticks": 307456,
          "time": 450.375,
          "velocity": 0.8740157480314961
        },
        {
          "duration": 0.1875,
          "durationTicks": 128,
          "midi": 65,
          "name": "F4",
          "ticks": 307712,
          "time": 450.75,
          "velocity": 0.8740157480314961
        },
        {
          "duration": 0.1875,
          "durationTicks": 128,
          "midi": 56,
          "name": "G#3",
          "ticks": 308096,
          "time": 451.3125,
          "velocity": 0.7086614173228346
        },
        {
          "duration": 0.1875,
          "durationTicks": 128,
          "midi": 55,
          "name": "G3",
          "ticks": 308224,
          "time": 451.5,
          "velocity": 0.7086614173228346
        },
        {
          "duration": 0.1875,
          "durationTicks": 128,
          "midi": 58,
          "name": "A#3",
          "ticks": 308480,
          "time": 451.875,
          "velocity": 0.84251968503937
        },
        {
          "duration": 0.1875,
          "durationTicks": 128,
          "midi": 64,
          "name": "E4",
          "ticks": 308736,
          "time": 452.25,
          "velocity": 0.8818897637795275
        },
        {
          "duration": 0.1875,
          "durationTicks": 128,
          "midi": 55,
          "name": "G3",
          "ticks": 309120,
          "time": 452.8125,
          "velocity": 0.6771653543307087
        },
        {
          "duration": 0.1875,
          "durationTicks": 128,
          "midi": 53,
          "name": "F3",
          "ticks": 309248,
          "time": 453,
          "velocity": 0.7244094488188977
        },
        {
          "duration": 0.1875,
          "durationTicks": 128,
          "midi": 56,
          "name": "G#3",
          "ticks": 309504,
          "time": 453.375,
          "velocity": 0.7874015748031497
        },
        {
          "duration": 0.1875,
          "durationTicks": 128,
          "midi": 60,
          "name": "C4",
          "ticks": 309760,
          "time": 453.75,
          "velocity": 0.8818897637795275
        },
        {
          "duration": 0.1875,
          "durationTicks": 128,
          "midi": 53,
          "name": "F3",
          "ticks": 310144,
          "time": 454.3125,
          "velocity": 0.6850393700787402
        },
        {
          "duration": 0.1875,
          "durationTicks": 128,
          "midi": 58,
          "name": "A#3",
          "ticks": 310272,
          "time": 454.5,
          "velocity": 0.7952755905511811
        },
        {
          "duration": 0.1875,
          "durationTicks": 128,
          "midi": 62,
          "name": "D4",
          "ticks": 310528,
          "time": 454.875,
          "velocity": 0.8976377952755905
        },
        {
          "duration": 0.1875,
          "durationTicks": 128,
          "midi": 65,
          "name": "F4",
          "ticks": 310784,
          "time": 455.25,
          "velocity": 0.84251968503937
        },
        {
          "duration": 0.1875,
          "durationTicks": 128,
          "midi": 58,
          "name": "A#3",
          "ticks": 311168,
          "time": 455.8125,
          "velocity": 0.7086614173228346
        },
        {
          "duration": 0.1875,
          "durationTicks": 128,
          "midi": 63,
          "name": "D#4",
          "ticks": 311296,
          "time": 456,
          "velocity": 0.889763779527559
        },
        {
          "duration": 0.1875,
          "durationTicks": 128,
          "midi": 67,
          "name": "G4",
          "ticks": 311552,
          "time": 456.375,
          "velocity": 0.8582677165354331
        },
        {
          "duration": 0.1875,
          "durationTicks": 128,
          "midi": 70,
          "name": "A#4",
          "ticks": 311808,
          "time": 456.75,
          "velocity": 0.8582677165354331
        },
        {
          "duration": 0.1875,
          "durationTicks": 128,
          "midi": 51,
          "name": "D#3",
          "ticks": 312192,
          "time": 457.3125,
          "velocity": 0.7086614173228346
        },
        {
          "duration": 0.375,
          "durationTicks": 256,
          "midi": 56,
          "name": "G#3",
          "ticks": 312320,
          "time": 457.5,
          "velocity": 0.7952755905511811
        },
        {
          "duration": 0.375,
          "durationTicks": 256,
          "midi": 60,
          "name": "C4",
          "ticks": 312576,
          "time": 457.875,
          "velocity": 0.889763779527559
        },
        {
          "duration": 0.375,
          "durationTicks": 256,
          "midi": 63,
          "name": "D#4",
          "ticks": 312832,
          "time": 458.25,
          "velocity": 0.8503937007874016
        },
        {
          "duration": 0.1875,
          "durationTicks": 128,
          "midi": 56,
          "name": "G#3",
          "ticks": 313216,
          "time": 458.8125,
          "velocity": 0.6692913385826772
        },
        {
          "duration": 0.375,
          "durationTicks": 256,
          "midi": 62,
          "name": "D4",
          "ticks": 313344,
          "time": 459,
          "velocity": 0.905511811023622
        },
        {
          "duration": 0.375,
          "durationTicks": 256,
          "midi": 65,
          "name": "F4",
          "ticks": 313600,
          "time": 459.375,
          "velocity": 0.8582677165354331
        },
        {
          "duration": 0.375,
          "durationTicks": 256,
          "midi": 69,
          "name": "A4",
          "ticks": 313856,
          "time": 459.75,
          "velocity": 0.8661417322834646
        },
        {
          "duration": 0.1875,
          "durationTicks": 128,
          "midi": 62,
          "name": "D4",
          "ticks": 314240,
          "time": 460.3125,
          "velocity": 0.6929133858267716
        },
        {
          "duration": 0.375,
          "durationTicks": 256,
          "midi": 67,
          "name": "G4",
          "ticks": 314368,
          "time": 460.5,
          "velocity": 0.8661417322834646
        },
        {
          "duration": 0.375,
          "durationTicks": 256,
          "midi": 71,
          "name": "B4",
          "ticks": 314624,
          "time": 460.875,
          "velocity": 0.8582677165354331
        },
        {
          "duration": 0.375,
          "durationTicks": 256,
          "midi": 74,
          "name": "D5",
          "ticks": 314880,
          "time": 461.25,
          "velocity": 0.8346456692913385
        },
        {
          "duration": 0.1875,
          "durationTicks": 128,
          "midi": 55,
          "name": "G3",
          "ticks": 315264,
          "time": 461.8125,
          "velocity": 0.7086614173228346
        },
        {
          "duration": 0.375,
          "durationTicks": 256,
          "midi": 60,
          "name": "C4",
          "ticks": 315392,
          "time": 462,
          "velocity": 0.8267716535433071
        },
        {
          "duration": 0.375,
          "durationTicks": 256,
          "midi": 63,
          "name": "D#4",
          "ticks": 315648,
          "time": 462.375,
          "velocity": 0.8740157480314961
        },
        {
          "duration": 0.375,
          "durationTicks": 256,
          "midi": 67,
          "name": "G4",
          "ticks": 315904,
          "time": 462.75,
          "velocity": 0.8503937007874016
        },
        {
          "duration": 0.1875,
          "durationTicks": 128,
          "midi": 60,
          "name": "C4",
          "ticks": 316288,
          "time": 463.3125,
          "velocity": 0.7007874015748031
        },
        {
          "duration": 0.375,
          "durationTicks": 256,
          "midi": 62,
          "name": "D4",
          "ticks": 316416,
          "time": 463.5,
          "velocity": 0.8031496062992126
        },
        {
          "duration": 0.375,
          "durationTicks": 256,
          "midi": 66,
          "name": "F#4",
          "ticks": 316672,
          "time": 463.875,
          "velocity": 0.889763779527559
        },
        {
          "duration": 0.375,
          "durationTicks": 256,
          "midi": 69,
          "name": "A4",
          "ticks": 316928,
          "time": 464.25,
          "velocity": 0.84251968503937
        },
        {
          "duration": 0.1875,
          "durationTicks": 128,
          "midi": 70,
          "name": "A#4",
          "ticks": 317440,
          "time": 465,
          "velocity": 0.6692913385826772
        },
        {
          "duration": 0.1875,
          "durationTicks": 128,
          "midi": 67,
          "name": "G4",
          "ticks": 317568,
          "time": 465.1875,
          "velocity": 0.6771653543307087
        },
        {
          "duration": 0.1875,
          "durationTicks": 128,
          "midi": 70,
          "name": "A#4",
          "ticks": 317696,
          "time": 465.375,
          "velocity": 0.7952755905511811
        },
        {
          "duration": 0.1875,
          "durationTicks": 128,
          "midi": 67,
          "name": "G4",
          "ticks": 317824,
          "time": 465.5625,
          "velocity": 0.7007874015748031
        },
        {
          "duration": 0.1875,
          "durationTicks": 128,
          "midi": 70,
          "name": "A#4",
          "ticks": 317952,
          "time": 465.75,
          "velocity": 0.8503937007874016
        },
        {
          "duration": 0.1875,
          "durationTicks": 128,
          "midi": 67,
          "name": "G4",
          "ticks": 318080,
          "time": 465.9375,
          "velocity": 0.6929133858267716
        },
        {
          "duration": 0.1875,
          "durationTicks": 128,
          "midi": 70,
          "name": "A#4",
          "ticks": 318208,
          "time": 466.125,
          "velocity": 0.8346456692913385
        },
        {
          "duration": 0.1875,
          "durationTicks": 128,
          "midi": 67,
          "name": "G4",
          "ticks": 318336,
          "time": 466.3125,
          "velocity": 0.7244094488188977
        },
        {
          "duration": 0.1875,
          "durationTicks": 128,
          "midi": 69,
          "name": "A4",
          "ticks": 318464,
          "time": 466.5,
          "velocity": 0.7874015748031497
        },
        {
          "duration": 0.1875,
          "durationTicks": 128,
          "midi": 65,
          "name": "F4",
          "ticks": 318592,
          "time": 466.6875,
          "velocity": 0.6929133858267716
        },
        {
          "duration": 0.1875,
          "durationTicks": 128,
          "midi": 69,
          "name": "A4",
          "ticks": 318720,
          "time": 466.875,
          "velocity": 0.8661417322834646
        },
        {
          "duration": 0.1875,
          "durationTicks": 128,
          "midi": 65,
          "name": "F4",
          "ticks": 318848,
          "time": 467.0625,
          "velocity": 0.7086614173228346
        },
        {
          "duration": 0.1875,
          "durationTicks": 128,
          "midi": 69,
          "name": "A4",
          "ticks": 318976,
          "time": 467.25,
          "velocity": 0.8582677165354331
        },
        {
          "duration": 0.1875,
          "durationTicks": 128,
          "midi": 65,
          "name": "F4",
          "ticks": 319104,
          "time": 467.4375,
          "velocity": 0.7165354330708661
        },
        {
          "duration": 0.1875,
          "durationTicks": 128,
          "midi": 69,
          "name": "A4",
          "ticks": 319232,
          "time": 467.625,
          "velocity": 0.8503937007874016
        },
        {
          "duration": 0.1875,
          "durationTicks": 128,
          "midi": 65,
          "name": "F4",
          "ticks": 319360,
          "time": 467.8125,
          "velocity": 0.6850393700787402
        },
        {
          "duration": 0.1875,
          "durationTicks": 128,
          "midi": 67,
          "name": "G4",
          "ticks": 319488,
          "time": 468,
          "velocity": 0.8031496062992126
        },
        {
          "duration": 0.1875,
          "durationTicks": 128,
          "midi": 63,
          "name": "D#4",
          "ticks": 319616,
          "time": 468.1875,
          "velocity": 0.6929133858267716
        },
        {
          "duration": 0.1875,
          "durationTicks": 128,
          "midi": 67,
          "name": "G4",
          "ticks": 319744,
          "time": 468.375,
          "velocity": 0.8503937007874016
        },
        {
          "duration": 0.1875,
          "durationTicks": 128,
          "midi": 63,
          "name": "D#4",
          "ticks": 319872,
          "time": 468.5625,
          "velocity": 0.7007874015748031
        },
        {
          "duration": 0.1875,
          "durationTicks": 128,
          "midi": 67,
          "name": "G4",
          "ticks": 320000,
          "time": 468.75,
          "velocity": 0.8503937007874016
        },
        {
          "duration": 0.1875,
          "durationTicks": 128,
          "midi": 63,
          "name": "D#4",
          "ticks": 320128,
          "time": 468.9375,
          "velocity": 0.6850393700787402
        },
        {
          "duration": 0.1875,
          "durationTicks": 128,
          "midi": 67,
          "name": "G4",
          "ticks": 320256,
          "time": 469.125,
          "velocity": 0.8188976377952756
        },
        {
          "duration": 0.1875,
          "durationTicks": 128,
          "midi": 63,
          "name": "D#4",
          "ticks": 320384,
          "time": 469.3125,
          "velocity": 0.6771653543307087
        },
        {
          "duration": 0.1875,
          "durationTicks": 128,
          "midi": 67,
          "name": "G4",
          "ticks": 320512,
          "time": 469.5,
          "velocity": 0.8267716535433071
        },
        {
          "duration": 0.1875,
          "durationTicks": 128,
          "midi": 62,
          "name": "D4",
          "ticks": 320640,
          "time": 469.6875,
          "velocity": 0.7007874015748031
        },
        {
          "duration": 0.1875,
          "durationTicks": 128,
          "midi": 67,
          "name": "G4",
          "ticks": 320768,
          "time": 469.875,
          "velocity": 0.8267716535433071
        },
        {
          "duration": 0.1875,
          "durationTicks": 128,
          "midi": 62,
          "name": "D4",
          "ticks": 320896,
          "time": 470.0625,
          "velocity": 0.7086614173228346
        },
        {
          "duration": 0.1875,
          "durationTicks": 128,
          "midi": 67,
          "name": "G4",
          "ticks": 321024,
          "time": 470.25,
          "velocity": 0.8582677165354331
        },
        {
          "duration": 0.1875,
          "durationTicks": 128,
          "midi": 62,
          "name": "D4",
          "ticks": 321152,
          "time": 470.4375,
          "velocity": 0.7007874015748031
        },
        {
          "duration": 0.1875,
          "durationTicks": 128,
          "midi": 67,
          "name": "G4",
          "ticks": 321280,
          "time": 470.625,
          "velocity": 0.8582677165354331
        },
        {
          "duration": 0.1875,
          "durationTicks": 128,
          "midi": 62,
          "name": "D4",
          "ticks": 321408,
          "time": 470.8125,
          "velocity": 0.6929133858267716
        },
        {
          "duration": 0.1875,
          "durationTicks": 128,
          "midi": 63,
          "name": "D#4",
          "ticks": 321536,
          "time": 471,
          "velocity": 0.7952755905511811
        },
        {
          "duration": 0.1875,
          "durationTicks": 128,
          "midi": 60,
          "name": "C4",
          "ticks": 321664,
          "time": 471.1875,
          "velocity": 0.6850393700787402
        },
        {
          "duration": 0.1875,
          "durationTicks": 128,
          "midi": 63,
          "name": "D#4",
          "ticks": 321792,
          "time": 471.375,
          "velocity": 0.8346456692913385
        },
        {
          "duration": 0.1875,
          "durationTicks": 128,
          "midi": 60,
          "name": "C4",
          "ticks": 321920,
          "time": 471.5625,
          "velocity": 0.7165354330708661
        },
        {
          "duration": 0.1875,
          "durationTicks": 128,
          "midi": 63,
          "name": "D#4",
          "ticks": 322048,
          "time": 471.75,
          "velocity": 0.8031496062992126
        },
        {
          "duration": 0.1875,
          "durationTicks": 128,
          "midi": 60,
          "name": "C4",
          "ticks": 322176,
          "time": 471.9375,
          "velocity": 0.7165354330708661
        },
        {
          "duration": 0.1875,
          "durationTicks": 128,
          "midi": 63,
          "name": "D#4",
          "ticks": 322304,
          "time": 472.125,
          "velocity": 0.84251968503937
        },
        {
          "duration": 0.1875,
          "durationTicks": 128,
          "midi": 60,
          "name": "C4",
          "ticks": 322432,
          "time": 472.3125,
          "velocity": 0.7007874015748031
        },
        {
          "duration": 0.1875,
          "durationTicks": 128,
          "midi": 62,
          "name": "D4",
          "ticks": 322560,
          "time": 472.5,
          "velocity": 0.7952755905511811
        },
        {
          "duration": 0.1875,
          "durationTicks": 128,
          "midi": 58,
          "name": "A#3",
          "ticks": 322688,
          "time": 472.6875,
          "velocity": 0.7322834645669292
        },
        {
          "duration": 0.1875,
          "durationTicks": 128,
          "midi": 62,
          "name": "D4",
          "ticks": 322816,
          "time": 472.875,
          "velocity": 0.8188976377952756
        },
        {
          "duration": 0.1875,
          "durationTicks": 128,
          "midi": 58,
          "name": "A#3",
          "ticks": 322944,
          "time": 473.0625,
          "velocity": 0.7559055118110236
        },
        {
          "duration": 0.1875,
          "durationTicks": 128,
          "midi": 62,
          "name": "D4",
          "ticks": 323072,
          "time": 473.25,
          "velocity": 0.8661417322834646
        },
        {
          "duration": 0.1875,
          "durationTicks": 128,
          "midi": 58,
          "name": "A#3",
          "ticks": 323200,
          "time": 473.4375,
          "velocity": 0.7480314960629921
        },
        {
          "duration": 0.1875,
          "durationTicks": 128,
          "midi": 62,
          "name": "D4",
          "ticks": 323328,
          "time": 473.625,
          "velocity": 0.8661417322834646
        },
        {
          "duration": 0.1875,
          "durationTicks": 128,
          "midi": 58,
          "name": "A#3",
          "ticks": 323456,
          "time": 473.8125,
          "velocity": 0.7244094488188977
        },
        {
          "duration": 1.5,
          "durationTicks": 1024,
          "midi": 57,
          "name": "A3",
          "ticks": 323584,
          "time": 474,
          "velocity": 0.7637795275590551
        },
        {
          "duration": 0.75,
          "durationTicks": 512,
          "midi": 57,
          "name": "A3",
          "ticks": 324608,
          "time": 475.5,
          "velocity": 0.7795275590551181
        },
        {
          "duration": 0.75,
          "durationTicks": 512,
          "midi": 58,
          "name": "A#3",
          "ticks": 325120,
          "time": 476.25,
          "velocity": 0.8031496062992126
        },
        {
          "duration": 0.75,
          "durationTicks": 512,
          "midi": 57,
          "name": "A3",
          "ticks": 325632,
          "time": 477,
          "velocity": 0.7165354330708661
        },
        {
          "duration": 0.75,
          "durationTicks": 512,
          "midi": 58,
          "name": "A#3",
          "ticks": 326144,
          "time": 477.75,
          "velocity": 0.7952755905511811
        },
        {
          "duration": 0.75,
          "durationTicks": 512,
          "midi": 57,
          "name": "A3",
          "ticks": 326656,
          "time": 478.5,
          "velocity": 0.7716535433070866
        },
        {
          "duration": 0.1875,
          "durationTicks": 128,
          "midi": 57,
          "name": "A3",
          "ticks": 327552,
          "time": 479.8125,
          "velocity": 0.7244094488188977
        },
        {
          "duration": 0.1875,
          "durationTicks": 128,
          "midi": 62,
          "name": "D4",
          "ticks": 327680,
          "time": 480,
          "velocity": 0.8661417322834646
        },
        {
          "duration": 0.1875,
          "durationTicks": 128,
          "midi": 66,
          "name": "F#4",
          "ticks": 327808,
          "time": 480.1875,
          "velocity": 0.8740157480314961
        },
        {
          "duration": 0.1875,
          "durationTicks": 128,
          "midi": 66,
          "name": "F#4",
          "ticks": 327936,
          "time": 480.375,
          "velocity": 0.8031496062992126
        },
        {
          "duration": 0.1875,
          "durationTicks": 128,
          "midi": 66,
          "name": "F#4",
          "ticks": 328064,
          "time": 480.5625,
          "velocity": 0.7244094488188977
        },
        {
          "duration": 0.1875,
          "durationTicks": 128,
          "midi": 66,
          "name": "F#4",
          "ticks": 328192,
          "time": 480.75,
          "velocity": 0.7874015748031497
        },
        {
          "duration": 0.1875,
          "durationTicks": 128,
          "midi": 66,
          "name": "F#4",
          "ticks": 328320,
          "time": 480.9375,
          "velocity": 0.7480314960629921
        },
        {
          "duration": 0.1875,
          "durationTicks": 128,
          "midi": 69,
          "name": "A4",
          "ticks": 328448,
          "time": 481.125,
          "velocity": 0.8503937007874016
        },
        {
          "duration": 0.1875,
          "durationTicks": 128,
          "midi": 69,
          "name": "A4",
          "ticks": 328576,
          "time": 481.3125,
          "velocity": 0.7795275590551181
        },
        {
          "duration": 0.1875,
          "durationTicks": 128,
          "midi": 67,
          "name": "G4",
          "ticks": 328704,
          "time": 481.5,
          "velocity": 0.7480314960629921
        },
        {
          "duration": 0.1875,
          "durationTicks": 128,
          "midi": 67,
          "name": "G4",
          "ticks": 328832,
          "time": 481.6875,
          "velocity": 0.7401574803149606
        },
        {
          "duration": 0.1875,
          "durationTicks": 128,
          "midi": 67,
          "name": "G4",
          "ticks": 328960,
          "time": 481.875,
          "velocity": 0.7559055118110236
        },
        {
          "duration": 0.1875,
          "durationTicks": 128,
          "midi": 67,
          "name": "G4",
          "ticks": 329088,
          "time": 482.0625,
          "velocity": 0.7795275590551181
        },
        {
          "duration": 0.1875,
          "durationTicks": 128,
          "midi": 67,
          "name": "G4",
          "ticks": 329216,
          "time": 482.25,
          "velocity": 0.7322834645669292
        },
        {
          "duration": 0.1875,
          "durationTicks": 128,
          "midi": 67,
          "name": "G4",
          "ticks": 329344,
          "time": 482.4375,
          "velocity": 0.7716535433070866
        },
        {
          "duration": 0.1875,
          "durationTicks": 128,
          "midi": 67,
          "name": "G4",
          "ticks": 329472,
          "time": 482.625,
          "velocity": 0.7637795275590551
        },
        {
          "duration": 0.1875,
          "durationTicks": 128,
          "midi": 67,
          "name": "G4",
          "ticks": 329600,
          "time": 482.8125,
          "velocity": 0.7480314960629921
        },
        {
          "duration": 0.1875,
          "durationTicks": 128,
          "midi": 66,
          "name": "F#4",
          "ticks": 329728,
          "time": 483,
          "velocity": 0.7480314960629921
        },
        {
          "duration": 0.1875,
          "durationTicks": 128,
          "midi": 66,
          "name": "F#4",
          "ticks": 329856,
          "time": 483.1875,
          "velocity": 0.7795275590551181
        },
        {
          "duration": 0.1875,
          "durationTicks": 128,
          "midi": 66,
          "name": "F#4",
          "ticks": 329984,
          "time": 483.375,
          "velocity": 0.7716535433070866
        },
        {
          "duration": 0.1875,
          "durationTicks": 128,
          "midi": 66,
          "name": "F#4",
          "ticks": 330112,
          "time": 483.5625,
          "velocity": 0.7952755905511811
        },
        {
          "duration": 0.1875,
          "durationTicks": 128,
          "midi": 66,
          "name": "F#4",
          "ticks": 330240,
          "time": 483.75,
          "velocity": 0.7716535433070866
        },
        {
          "duration": 0.1875,
          "durationTicks": 128,
          "midi": 69,
          "name": "A4",
          "ticks": 330368,
          "time": 483.9375,
          "velocity": 0.84251968503937
        },
        {
          "duration": 0.1875,
          "durationTicks": 128,
          "midi": 66,
          "name": "F#4",
          "ticks": 330496,
          "time": 484.125,
          "velocity": 0.7165354330708661
        },
        {
          "duration": 0.1875,
          "durationTicks": 128,
          "midi": 69,
          "name": "A4",
          "ticks": 330624,
          "time": 484.3125,
          "velocity": 0.84251968503937
        },
        {
          "duration": 0.1875,
          "durationTicks": 128,
          "midi": 67,
          "name": "G4",
          "ticks": 330752,
          "time": 484.5,
          "velocity": 0.7086614173228346
        },
        {
          "duration": 0.1875,
          "durationTicks": 128,
          "midi": 67,
          "name": "G4",
          "ticks": 330880,
          "time": 484.6875,
          "velocity": 0.7637795275590551
        },
        {
          "duration": 0.1875,
          "durationTicks": 128,
          "midi": 67,
          "name": "G4",
          "ticks": 331008,
          "time": 484.875,
          "velocity": 0.7637795275590551
        },
        {
          "duration": 0.1875,
          "durationTicks": 128,
          "midi": 67,
          "name": "G4",
          "ticks": 331136,
          "time": 485.0625,
          "velocity": 0.7559055118110236
        },
        {
          "duration": 0.1875,
          "durationTicks": 128,
          "midi": 64,
          "name": "E4",
          "ticks": 331264,
          "time": 485.25,
          "velocity": 0.6850393700787402
        },
        {
          "duration": 0.1875,
          "durationTicks": 128,
          "midi": 61,
          "name": "C#4",
          "ticks": 331392,
          "time": 485.4375,
          "velocity": 0.6850393700787402
        },
        {
          "duration": 0.1875,
          "durationTicks": 128,
          "midi": 64,
          "name": "E4",
          "ticks": 331520,
          "time": 485.625,
          "velocity": 0.8110236220472441
        },
        {
          "duration": 0.1875,
          "durationTicks": 128,
          "midi": 61,
          "name": "C#4",
          "ticks": 331648,
          "time": 485.8125,
          "velocity": 0.7244094488188977
        },
        {
          "duration": 0.375,
          "durationTicks": 256,
          "midi": 62,
          "name": "D4",
          "ticks": 331776,
          "time": 486,
          "velocity": 0.7795275590551181
        },
        {
          "duration": 0.375,
          "durationTicks": 256,
          "midi": 50,
          "name": "D3",
          "ticks": 332288,
          "time": 486.75,
          "velocity": 0.6929133858267716
        },
        {
          "duration": 1.14697265625,
          "durationTicks": 783,
          "midi": 58,
          "name": "A#3",
          "ticks": 333824,
          "time": 489,
          "velocity": 0.4251968503937008
        },
        {
          "duration": 0.38232421875,
          "durationTicks": 261,
          "midi": 57,
          "name": "A3",
          "ticks": 334592,
          "time": 490.125,
          "velocity": 0.4330708661417323
        },
        {
          "duration": 0.35595703125,
          "durationTicks": 243,
          "midi": 54,
          "name": "F#3",
          "ticks": 334848,
          "time": 490.5,
          "velocity": 0.44881889763779526
        },
        {
          "duration": 0.38232421875,
          "durationTicks": 261,
          "midi": 59,
          "name": "B3",
          "ticks": 336128,
          "time": 492.375,
          "velocity": 0.41732283464566927
        },
        {
          "duration": 0.38232421875,
          "durationTicks": 261,
          "midi": 60,
          "name": "C4",
          "ticks": 336384,
          "time": 492.75,
          "velocity": 0.4251968503937008
        },
        {
          "duration": 0.38232421875,
          "durationTicks": 261,
          "midi": 61,
          "name": "C#4",
          "ticks": 336640,
          "time": 493.125,
          "velocity": 0.4881889763779528
        },
        {
          "duration": 0.7119140625,
          "durationTicks": 486,
          "midi": 62,
          "name": "D4",
          "ticks": 336896,
          "time": 493.5,
          "velocity": 0.5118110236220472
        },
        {
          "duration": 1.14697265625,
          "durationTicks": 783,
          "midi": 57,
          "name": "A3",
          "ticks": 337920,
          "time": 495,
          "velocity": 0.4094488188976378
        },
        {
          "duration": 0.35595703125,
          "durationTicks": 243,
          "midi": 58,
          "name": "A#3",
          "ticks": 338688,
          "time": 496.125,
          "velocity": 0.4015748031496063
        },
        {
          "duration": 0.38232421875,
          "durationTicks": 261,
          "midi": 64,
          "name": "E4",
          "ticks": 338944,
          "time": 496.5,
          "velocity": 0.5826771653543307
        },
        {
          "duration": 0.7646484375,
          "durationTicks": 522,
          "midi": 62,
          "name": "D4",
          "ticks": 339200,
          "time": 496.875,
          "velocity": 0.5748031496062992
        },
        {
          "duration": 0.35595703125,
          "durationTicks": 243,
          "midi": 55,
          "name": "G3",
          "ticks": 339712,
          "time": 497.625,
          "velocity": 0.4409448818897638
        },
        {
          "duration": 0.375,
          "durationTicks": 256,
          "midi": 60,
          "name": "C4",
          "ticks": 339968,
          "time": 498,
          "velocity": 0.5275590551181102
        },
        {
          "duration": 0.375,
          "durationTicks": 256,
          "midi": 57,
          "name": "A3",
          "ticks": 340480,
          "time": 498.75,
          "velocity": 0.4566929133858268
        },
        {
          "duration": 0.375,
          "durationTicks": 256,
          "midi": 55,
          "name": "G3",
          "ticks": 340992,
          "time": 499.5,
          "velocity": 0.41732283464566927
        },
        {
          "duration": 1.125,
          "durationTicks": 768,
          "midi": 57,
          "name": "A3",
          "ticks": 346112,
          "time": 507,
          "velocity": 0.4330708661417323
        },
        {
          "duration": 0.375,
          "durationTicks": 256,
          "midi": 58,
          "name": "A#3",
          "ticks": 346880,
          "time": 508.125,
          "velocity": 0.47244094488188976
        },
        {
          "duration": 0.375,
          "durationTicks": 256,
          "midi": 64,
          "name": "E4",
          "ticks": 347136,
          "time": 508.5,
          "velocity": 0.5511811023622047
        },
        {
          "duration": 0.75,
          "durationTicks": 512,
          "midi": 62,
          "name": "D4",
          "ticks": 347392,
          "time": 508.875,
          "velocity": 0.4645669291338583
        },
        {
          "duration": 0.375,
          "durationTicks": 256,
          "midi": 55,
          "name": "G3",
          "ticks": 347904,
          "time": 509.625,
          "velocity": 0.4409448818897638
        },
        {
          "duration": 0.1904296875,
          "durationTicks": 130,
          "midi": 53,
          "name": "F3",
          "ticks": 348160,
          "time": 510,
          "velocity": 0.47244094488188976
        },
        {
          "duration": 0.1904296875,
          "durationTicks": 130,
          "midi": 50,
          "name": "D3",
          "ticks": 348288,
          "time": 510.1875,
          "velocity": 0.4330708661417323
        },
        {
          "duration": 0.1904296875,
          "durationTicks": 130,
          "midi": 53,
          "name": "F3",
          "ticks": 348416,
          "time": 510.375,
          "velocity": 0.4881889763779528
        },
        {
          "duration": 0.1904296875,
          "durationTicks": 130,
          "midi": 50,
          "name": "D3",
          "ticks": 348544,
          "time": 510.5625,
          "velocity": 0.4566929133858268
        },
        {
          "duration": 0.1904296875,
          "durationTicks": 130,
          "midi": 53,
          "name": "F3",
          "ticks": 348672,
          "time": 510.75,
          "velocity": 0.5118110236220472
        },
        {
          "duration": 0.1904296875,
          "durationTicks": 130,
          "midi": 50,
          "name": "D3",
          "ticks": 348800,
          "time": 510.9375,
          "velocity": 0.49606299212598426
        },
        {
          "duration": 0.1904296875,
          "durationTicks": 130,
          "midi": 51,
          "name": "D#3",
          "ticks": 348928,
          "time": 511.125,
          "velocity": 0.5039370078740157
        },
        {
          "duration": 0.17724609375,
          "durationTicks": 121,
          "midi": 55,
          "name": "G3",
          "ticks": 349056,
          "time": 511.3125,
          "velocity": 0.5118110236220472
        },
        {
          "duration": 0.1904296875,
          "durationTicks": 130,
          "midi": 53,
          "name": "F3",
          "ticks": 349184,
          "time": 511.5,
          "velocity": 0.4645669291338583
        },
        {
          "duration": 0.1904296875,
          "durationTicks": 130,
          "midi": 50,
          "name": "D3",
          "ticks": 349312,
          "time": 511.6875,
          "velocity": 0.44881889763779526
        },
        {
          "duration": 0.1904296875,
          "durationTicks": 130,
          "midi": 53,
          "name": "F3",
          "ticks": 349440,
          "time": 511.875,
          "velocity": 0.5118110236220472
        },
        {
          "duration": 0.1904296875,
          "durationTicks": 130,
          "midi": 50,
          "name": "D3",
          "ticks": 349568,
          "time": 512.0625,
          "velocity": 0.4881889763779528
        },
        {
          "duration": 0.1904296875,
          "durationTicks": 130,
          "midi": 53,
          "name": "F3",
          "ticks": 349696,
          "time": 512.25,
          "velocity": 0.5118110236220472
        },
        {
          "duration": 0.1904296875,
          "durationTicks": 130,
          "midi": 50,
          "name": "D3",
          "ticks": 349824,
          "time": 512.4375,
          "velocity": 0.4881889763779528
        },
        {
          "duration": 0.1904296875,
          "durationTicks": 130,
          "midi": 51,
          "name": "D#3",
          "ticks": 349952,
          "time": 512.625,
          "velocity": 0.4881889763779528
        },
        {
          "duration": 0.17724609375,
          "durationTicks": 121,
          "midi": 55,
          "name": "G3",
          "ticks": 350080,
          "time": 512.8125,
          "velocity": 0.5433070866141733
        },
        {
          "duration": 0.1904296875,
          "durationTicks": 130,
          "midi": 53,
          "name": "F3",
          "ticks": 350208,
          "time": 513,
          "velocity": 0.4645669291338583
        },
        {
          "duration": 0.1904296875,
          "durationTicks": 130,
          "midi": 50,
          "name": "D3",
          "ticks": 350336,
          "time": 513.1875,
          "velocity": 0.4645669291338583
        },
        {
          "duration": 0.1904296875,
          "durationTicks": 130,
          "midi": 53,
          "name": "F3",
          "ticks": 350464,
          "time": 513.375,
          "velocity": 0.5196850393700787
        },
        {
          "duration": 0.1904296875,
          "durationTicks": 130,
          "midi": 50,
          "name": "D3",
          "ticks": 350592,
          "time": 513.5625,
          "velocity": 0.5196850393700787
        },
        {
          "duration": 0.1904296875,
          "durationTicks": 130,
          "midi": 53,
          "name": "F3",
          "ticks": 350720,
          "time": 513.75,
          "velocity": 0.47244094488188976
        },
        {
          "duration": 0.1904296875,
          "durationTicks": 130,
          "midi": 50,
          "name": "D3",
          "ticks": 350848,
          "time": 513.9375,
          "velocity": 0.4881889763779528
        },
        {
          "duration": 0.1904296875,
          "durationTicks": 130,
          "midi": 51,
          "name": "D#3",
          "ticks": 350976,
          "time": 514.125,
          "velocity": 0.49606299212598426
        },
        {
          "duration": 0.17724609375,
          "durationTicks": 121,
          "midi": 55,
          "name": "G3",
          "ticks": 351104,
          "time": 514.3125,
          "velocity": 0.49606299212598426
        },
        {
          "duration": 0.1904296875,
          "durationTicks": 130,
          "midi": 53,
          "name": "F3",
          "ticks": 351232,
          "time": 514.5,
          "velocity": 0.41732283464566927
        },
        {
          "duration": 0.1904296875,
          "durationTicks": 130,
          "midi": 50,
          "name": "D3",
          "ticks": 351360,
          "time": 514.6875,
          "velocity": 0.4094488188976378
        },
        {
          "duration": 0.1904296875,
          "durationTicks": 130,
          "midi": 53,
          "name": "F3",
          "ticks": 351488,
          "time": 514.875,
          "velocity": 0.5039370078740157
        },
        {
          "duration": 0.1904296875,
          "durationTicks": 130,
          "midi": 50,
          "name": "D3",
          "ticks": 351616,
          "time": 515.0625,
          "velocity": 0.49606299212598426
        },
        {
          "duration": 0.1904296875,
          "durationTicks": 130,
          "midi": 53,
          "name": "F3",
          "ticks": 351744,
          "time": 515.25,
          "velocity": 0.5196850393700787
        },
        {
          "duration": 0.1904296875,
          "durationTicks": 130,
          "midi": 50,
          "name": "D3",
          "ticks": 351872,
          "time": 515.4375,
          "velocity": 0.47244094488188976
        },
        {
          "duration": 0.1904296875,
          "durationTicks": 130,
          "midi": 51,
          "name": "D#3",
          "ticks": 352000,
          "time": 515.625,
          "velocity": 0.4645669291338583
        },
        {
          "duration": 0.17724609375,
          "durationTicks": 121,
          "midi": 55,
          "name": "G3",
          "ticks": 352128,
          "time": 515.8125,
          "velocity": 0.47244094488188976
        },
        {
          "duration": 0.1875,
          "durationTicks": 128,
          "midi": 50,
          "name": "D3",
          "ticks": 352256,
          "time": 516,
          "velocity": 0.44881889763779526
        },
        {
          "duration": 0.1875,
          "durationTicks": 128,
          "midi": 50,
          "name": "D3",
          "ticks": 352384,
          "time": 516.1875,
          "velocity": 0.49606299212598426
        },
        {
          "duration": 0.1875,
          "durationTicks": 128,
          "midi": 50,
          "name": "D3",
          "ticks": 352512,
          "time": 516.375,
          "velocity": 0.49606299212598426
        },
        {
          "duration": 0.1875,
          "durationTicks": 128,
          "midi": 50,
          "name": "D3",
          "ticks": 352640,
          "time": 516.5625,
          "velocity": 0.5275590551181102
        },
        {
          "duration": 0.1875,
          "durationTicks": 128,
          "midi": 50,
          "name": "D3",
          "ticks": 352768,
          "time": 516.75,
          "velocity": 0.5275590551181102
        },
        {
          "duration": 0.1875,
          "durationTicks": 128,
          "midi": 50,
          "name": "D3",
          "ticks": 352896,
          "time": 516.9375,
          "velocity": 0.5354330708661418
        },
        {
          "duration": 0.1875,
          "durationTicks": 128,
          "midi": 50,
          "name": "D3",
          "ticks": 353024,
          "time": 517.125,
          "velocity": 0.5275590551181102
        },
        {
          "duration": 0.1875,
          "durationTicks": 128,
          "midi": 50,
          "name": "D3",
          "ticks": 353152,
          "time": 517.3125,
          "velocity": 0.5196850393700787
        },
        {
          "duration": 0.1875,
          "durationTicks": 128,
          "midi": 50,
          "name": "D3",
          "ticks": 353280,
          "time": 517.5,
          "velocity": 0.5118110236220472
        },
        {
          "duration": 0.1875,
          "durationTicks": 128,
          "midi": 62,
          "name": "D4",
          "ticks": 353408,
          "time": 517.6875,
          "velocity": 0.6850393700787402
        },
        {
          "duration": 0.1875,
          "durationTicks": 128,
          "midi": 62,
          "name": "D4",
          "ticks": 353536,
          "time": 517.875,
          "velocity": 0.5590551181102362
        },
        {
          "duration": 0.1875,
          "durationTicks": 128,
          "midi": 62,
          "name": "D4",
          "ticks": 353664,
          "time": 518.0625,
          "velocity": 0.5748031496062992
        },
        {
          "duration": 0.1875,
          "durationTicks": 128,
          "midi": 62,
          "name": "D4",
          "ticks": 353792,
          "time": 518.25,
          "velocity": 0.5590551181102362
        },
        {
          "duration": 0.1875,
          "durationTicks": 128,
          "midi": 62,
          "name": "D4",
          "ticks": 353920,
          "time": 518.4375,
          "velocity": 0.5196850393700787
        },
        {
          "duration": 0.1875,
          "durationTicks": 128,
          "midi": 62,
          "name": "D4",
          "ticks": 354048,
          "time": 518.625,
          "velocity": 0.5433070866141733
        },
        {
          "duration": 0.1875,
          "durationTicks": 128,
          "midi": 62,
          "name": "D4",
          "ticks": 354176,
          "time": 518.8125,
          "velocity": 0.5669291338582677
        },
        {
          "duration": 0.1875,
          "durationTicks": 128,
          "midi": 63,
          "name": "D#4",
          "ticks": 354304,
          "time": 519,
          "velocity": 0.7795275590551181
        },
        {
          "duration": 0.1875,
          "durationTicks": 128,
          "midi": 63,
          "name": "D#4",
          "ticks": 354432,
          "time": 519.1875,
          "velocity": 0.7480314960629921
        },
        {
          "duration": 0.1875,
          "durationTicks": 128,
          "midi": 63,
          "name": "D#4",
          "ticks": 354560,
          "time": 519.375,
          "velocity": 0.7874015748031497
        },
        {
          "duration": 0.1875,
          "durationTicks": 128,
          "midi": 63,
          "name": "D#4",
          "ticks": 354688,
          "time": 519.5625,
          "velocity": 0.7952755905511811
        },
        {
          "duration": 0.1875,
          "durationTicks": 128,
          "midi": 51,
          "name": "D#3",
          "ticks": 354816,
          "time": 519.75,
          "velocity": 0.6614173228346457
        },
        {
          "duration": 0.1875,
          "durationTicks": 128,
          "midi": 51,
          "name": "D#3",
          "ticks": 354944,
          "time": 519.9375,
          "velocity": 0.7952755905511811
        },
        {
          "duration": 0.1875,
          "durationTicks": 128,
          "midi": 51,
          "name": "D#3",
          "ticks": 355072,
          "time": 520.125,
          "velocity": 0.7795275590551181
        },
        {
          "duration": 0.1875,
          "durationTicks": 128,
          "midi": 51,
          "name": "D#3",
          "ticks": 355200,
          "time": 520.3125,
          "velocity": 0.7795275590551181
        },
        {
          "duration": 0.1875,
          "durationTicks": 128,
          "midi": 49,
          "name": "C#3",
          "ticks": 355328,
          "time": 520.5,
          "velocity": 0.7874015748031497
        },
        {
          "duration": 0.1875,
          "durationTicks": 128,
          "midi": 49,
          "name": "C#3",
          "ticks": 355456,
          "time": 520.6875,
          "velocity": 0.7480314960629921
        },
        {
          "duration": 0.1875,
          "durationTicks": 128,
          "midi": 49,
          "name": "C#3",
          "ticks": 355584,
          "time": 520.875,
          "velocity": 0.7795275590551181
        },
        {
          "duration": 0.1875,
          "durationTicks": 128,
          "midi": 49,
          "name": "C#3",
          "ticks": 355712,
          "time": 521.0625,
          "velocity": 0.7559055118110236
        },
        {
          "duration": 0.1875,
          "durationTicks": 128,
          "midi": 61,
          "name": "C#4",
          "ticks": 355840,
          "time": 521.25,
          "velocity": 1
        },
        {
          "duration": 0.1875,
          "durationTicks": 128,
          "midi": 61,
          "name": "C#4",
          "ticks": 355968,
          "time": 521.4375,
          "velocity": 0.8031496062992126
        },
        {
          "duration": 0.1875,
          "durationTicks": 128,
          "midi": 61,
          "name": "C#4",
          "ticks": 356096,
          "time": 521.625,
          "velocity": 0.7874015748031497
        },
        {
          "duration": 0.1875,
          "durationTicks": 128,
          "midi": 61,
          "name": "C#4",
          "ticks": 356224,
          "time": 521.8125,
          "velocity": 0.7795275590551181
        },
        {
          "duration": 0.1875,
          "durationTicks": 128,
          "midi": 65,
          "name": "F4",
          "ticks": 356352,
          "time": 522,
          "velocity": 0.8582677165354331
        },
        {
          "duration": 0.1875,
          "durationTicks": 128,
          "midi": 65,
          "name": "F4",
          "ticks": 356480,
          "time": 522.1875,
          "velocity": 0.7637795275590551
        },
        {
          "duration": 0.1875,
          "durationTicks": 128,
          "midi": 65,
          "name": "F4",
          "ticks": 356608,
          "time": 522.375,
          "velocity": 0.7637795275590551
        },
        {
          "duration": 0.1875,
          "durationTicks": 128,
          "midi": 65,
          "name": "F4",
          "ticks": 356736,
          "time": 522.5625,
          "velocity": 0.7637795275590551
        },
        {
          "duration": 0.1875,
          "durationTicks": 128,
          "midi": 53,
          "name": "F3",
          "ticks": 356864,
          "time": 522.75,
          "velocity": 0.6771653543307087
        },
        {
          "duration": 0.1875,
          "durationTicks": 128,
          "midi": 53,
          "name": "F3",
          "ticks": 356992,
          "time": 522.9375,
          "velocity": 0.7716535433070866
        },
        {
          "duration": 0.1875,
          "durationTicks": 128,
          "midi": 53,
          "name": "F3",
          "ticks": 357120,
          "time": 523.125,
          "velocity": 0.7795275590551181
        },
        {
          "duration": 0.1875,
          "durationTicks": 128,
          "midi": 53,
          "name": "F3",
          "ticks": 357248,
          "time": 523.3125,
          "velocity": 0.7480314960629921
        },
        {
          "duration": 0.1875,
          "durationTicks": 128,
          "midi": 51,
          "name": "D#3",
          "ticks": 357376,
          "time": 523.5,
          "velocity": 0.7086614173228346
        },
        {
          "duration": 0.1875,
          "durationTicks": 128,
          "midi": 51,
          "name": "D#3",
          "ticks": 357504,
          "time": 523.6875,
          "velocity": 0.7874015748031497
        },
        {
          "duration": 0.1875,
          "durationTicks": 128,
          "midi": 51,
          "name": "D#3",
          "ticks": 357632,
          "time": 523.875,
          "velocity": 0.7637795275590551
        },
        {
          "duration": 0.1875,
          "durationTicks": 128,
          "midi": 51,
          "name": "D#3",
          "ticks": 357760,
          "time": 524.0625,
          "velocity": 0.7322834645669292
        },
        {
          "duration": 0.1875,
          "durationTicks": 128,
          "midi": 63,
          "name": "D#4",
          "ticks": 357888,
          "time": 524.25,
          "velocity": 0.9921259842519685
        },
        {
          "duration": 0.1875,
          "durationTicks": 128,
          "midi": 63,
          "name": "D#4",
          "ticks": 358016,
          "time": 524.4375,
          "velocity": 0.84251968503937
        },
        {
          "duration": 0.1875,
          "durationTicks": 128,
          "midi": 63,
          "name": "D#4",
          "ticks": 358144,
          "time": 524.625,
          "velocity": 0.7795275590551181
        },
        {
          "duration": 0.1875,
          "durationTicks": 128,
          "midi": 63,
          "name": "D#4",
          "ticks": 358272,
          "time": 524.8125,
          "velocity": 0.7952755905511811
        },
        {
          "duration": 0.1875,
          "durationTicks": 128,
          "midi": 67,
          "name": "G4",
          "ticks": 358400,
          "time": 525,
          "velocity": 0.8188976377952756
        },
        {
          "duration": 0.1875,
          "durationTicks": 128,
          "midi": 67,
          "name": "G4",
          "ticks": 358528,
          "time": 525.1875,
          "velocity": 0.7952755905511811
        },
        {
          "duration": 0.1875,
          "durationTicks": 128,
          "midi": 67,
          "name": "G4",
          "ticks": 358656,
          "time": 525.375,
          "velocity": 0.7322834645669292
        },
        {
          "duration": 0.1875,
          "durationTicks": 128,
          "midi": 67,
          "name": "G4",
          "ticks": 358784,
          "time": 525.5625,
          "velocity": 0.8031496062992126
        },
        {
          "duration": 0.1875,
          "durationTicks": 128,
          "midi": 55,
          "name": "G3",
          "ticks": 358912,
          "time": 525.75,
          "velocity": 0.6299212598425197
        },
        {
          "duration": 0.1875,
          "durationTicks": 128,
          "midi": 55,
          "name": "G3",
          "ticks": 359040,
          "time": 525.9375,
          "velocity": 0.7480314960629921
        },
        {
          "duration": 0.1875,
          "durationTicks": 128,
          "midi": 55,
          "name": "G3",
          "ticks": 359168,
          "time": 526.125,
          "velocity": 0.7559055118110236
        },
        {
          "duration": 0.1875,
          "durationTicks": 128,
          "midi": 55,
          "name": "G3",
          "ticks": 359296,
          "time": 526.3125,
          "velocity": 0.7559055118110236
        },
        {
          "duration": 0.1875,
          "durationTicks": 128,
          "midi": 62,
          "name": "D4",
          "ticks": 359424,
          "time": 526.5,
          "velocity": 0.889763779527559
        },
        {
          "duration": 0.1875,
          "durationTicks": 128,
          "midi": 62,
          "name": "D4",
          "ticks": 359552,
          "time": 526.6875,
          "velocity": 0.7952755905511811
        },
        {
          "duration": 0.1875,
          "durationTicks": 128,
          "midi": 62,
          "name": "D4",
          "ticks": 359680,
          "time": 526.875,
          "velocity": 0.7874015748031497
        },
        {
          "duration": 0.1875,
          "durationTicks": 128,
          "midi": 62,
          "name": "D4",
          "ticks": 359808,
          "time": 527.0625,
          "velocity": 0.7874015748031497
        },
        {
          "duration": 0.1875,
          "durationTicks": 128,
          "midi": 62,
          "name": "D4",
          "ticks": 359936,
          "time": 527.25,
          "velocity": 0.7795275590551181
        },
        {
          "duration": 0.1875,
          "durationTicks": 128,
          "midi": 62,
          "name": "D4",
          "ticks": 360064,
          "time": 527.4375,
          "velocity": 0.7559055118110236
        },
        {
          "duration": 0.1875,
          "durationTicks": 128,
          "midi": 62,
          "name": "D4",
          "ticks": 360192,
          "time": 527.625,
          "velocity": 0.7559055118110236
        },
        {
          "duration": 0.1875,
          "durationTicks": 128,
          "midi": 62,
          "name": "D4",
          "ticks": 360320,
          "time": 527.8125,
          "velocity": 0.7795275590551181
        },
        {
          "duration": 0.1875,
          "durationTicks": 128,
          "midi": 50,
          "name": "D3",
          "ticks": 360448,
          "time": 528,
          "velocity": 0.6614173228346457
        },
        {
          "duration": 0.1875,
          "durationTicks": 128,
          "midi": 50,
          "name": "D3",
          "ticks": 360576,
          "time": 528.1875,
          "velocity": 0.7795275590551181
        },
        {
          "duration": 0.1875,
          "durationTicks": 128,
          "midi": 50,
          "name": "D3",
          "ticks": 360704,
          "time": 528.375,
          "velocity": 0.7952755905511811
        },
        {
          "duration": 0.1875,
          "durationTicks": 128,
          "midi": 50,
          "name": "D3",
          "ticks": 360832,
          "time": 528.5625,
          "velocity": 0.7559055118110236
        },
        {
          "duration": 0.1875,
          "durationTicks": 128,
          "midi": 50,
          "name": "D3",
          "ticks": 360960,
          "time": 528.75,
          "velocity": 0.7480314960629921
        },
        {
          "duration": 0.1875,
          "durationTicks": 128,
          "midi": 50,
          "name": "D3",
          "ticks": 361088,
          "time": 528.9375,
          "velocity": 0.7637795275590551
        },
        {
          "duration": 0.1875,
          "durationTicks": 128,
          "midi": 50,
          "name": "D3",
          "ticks": 361216,
          "time": 529.125,
          "velocity": 0.7795275590551181
        },
        {
          "duration": 0.1875,
          "durationTicks": 128,
          "midi": 50,
          "name": "D3",
          "ticks": 361344,
          "time": 529.3125,
          "velocity": 0.7559055118110236
        },
        {
          "duration": 0.375,
          "durationTicks": 256,
          "midi": 55,
          "name": "G3",
          "ticks": 361472,
          "time": 529.5,
          "velocity": 0.8267716535433071
        },
        {
          "duration": 0.75,
          "durationTicks": 512,
          "midi": 58,
          "name": "A#3",
          "ticks": 361728,
          "time": 529.875,
          "velocity": 0.8110236220472441
        },
        {
          "duration": 0.375,
          "durationTicks": 256,
          "midi": 60,
          "name": "C4",
          "ticks": 362240,
          "time": 530.625,
          "velocity": 0.8267716535433071
        },
        {
          "duration": 0.375,
          "durationTicks": 256,
          "midi": 61,
          "name": "C#4",
          "ticks": 362496,
          "time": 531,
          "velocity": 0.8267716535433071
        },
        {
          "duration": 0.375,
          "durationTicks": 256,
          "midi": 62,
          "name": "D4",
          "ticks": 362752,
          "time": 531.375,
          "velocity": 0.8110236220472441
        },
        {
          "duration": 0.375,
          "durationTicks": 256,
          "midi": 63,
          "name": "D#4",
          "ticks": 363008,
          "time": 531.75,
          "velocity": 0.7874015748031497
        },
        {
          "duration": 0.375,
          "durationTicks": 256,
          "midi": 64,
          "name": "E4",
          "ticks": 363264,
          "time": 532.125,
          "velocity": 0.7952755905511811
        },
        {
          "duration": 0.375,
          "durationTicks": 256,
          "midi": 65,
          "name": "F4",
          "ticks": 363520,
          "time": 532.5,
          "velocity": 0.8031496062992126
        },
        {
          "duration": 0.09375,
          "durationTicks": 64,
          "midi": 65,
          "name": "F4",
          "ticks": 363968,
          "time": 533.15625,
          "velocity": 0.7244094488188977
        },
        {
          "duration": 0.375,
          "durationTicks": 256,
          "midi": 63,
          "name": "D#4",
          "ticks": 364032,
          "time": 533.25,
          "velocity": 0.7322834645669292
        },
        {
          "duration": 0.09375,
          "durationTicks": 64,
          "midi": 63,
          "name": "D#4",
          "ticks": 364480,
          "time": 533.90625,
          "velocity": 0.6771653543307087
        },
        {
          "duration": 0.375,
          "durationTicks": 256,
          "midi": 72,
          "name": "C5",
          "ticks": 364544,
          "time": 534,
          "velocity": 0.952755905511811
        },
        {
          "duration": 0.09375,
          "durationTicks": 64,
          "midi": 72,
          "name": "C5",
          "ticks": 364992,
          "time": 534.65625,
          "velocity": 0.7007874015748031
        },
        {
          "duration": 0.375,
          "durationTicks": 256,
          "midi": 70,
          "name": "A#4",
          "ticks": 365056,
          "time": 534.75,
          "velocity": 0.7244094488188977
        },
        {
          "duration": 0.09375,
          "durationTicks": 64,
          "midi": 70,
          "name": "A#4",
          "ticks": 365504,
          "time": 535.40625,
          "velocity": 0.7165354330708661
        },
        {
          "duration": 0.375,
          "durationTicks": 256,
          "midi": 60,
          "name": "C4",
          "ticks": 365568,
          "time": 535.5,
          "velocity": 0.5748031496062992
        },
        {
          "duration": 0.375,
          "durationTicks": 256,
          "midi": 50,
          "name": "D3",
          "ticks": 366592,
          "time": 537,
          "velocity": 0.4330708661417323
        },
        {
          "duration": 1.5,
          "durationTicks": 1024,
          "midi": 60,
          "name": "C4",
          "ticks": 369152,
          "time": 540.75,
          "velocity": 0.4330708661417323
        },
        {
          "duration": 0.35595703125,
          "durationTicks": 243,
          "midi": 58,
          "name": "A#3",
          "ticks": 370176,
          "time": 542.25,
          "velocity": 0.4881889763779528
        },
        {
          "duration": 1.5,
          "durationTicks": 1024,
          "midi": 60,
          "name": "C4",
          "ticks": 371200,
          "time": 543.75,
          "velocity": 0.4330708661417323
        },
        {
          "duration": 0.35595703125,
          "durationTicks": 243,
          "midi": 58,
          "name": "A#3",
          "ticks": 372224,
          "time": 545.25,
          "velocity": 0.4409448818897638
        },
        {
          "duration": 0.1875,
          "durationTicks": 128,
          "midi": 55,
          "name": "G3",
          "ticks": 372736,
          "time": 546,
          "velocity": 0.6850393700787402
        },
        {
          "duration": 0.1875,
          "durationTicks": 128,
          "midi": 55,
          "name": "G3",
          "ticks": 372864,
          "time": 546.1875,
          "velocity": 0.7480314960629921
        },
        {
          "duration": 0.1875,
          "durationTicks": 128,
          "midi": 55,
          "name": "G3",
          "ticks": 372992,
          "time": 546.375,
          "velocity": 0.7795275590551181
        },
        {
          "duration": 0.1875,
          "durationTicks": 128,
          "midi": 55,
          "name": "G3",
          "ticks": 373120,
          "time": 546.5625,
          "velocity": 0.7795275590551181
        },
        {
          "duration": 0.1875,
          "durationTicks": 128,
          "midi": 55,
          "name": "G3",
          "ticks": 373248,
          "time": 546.75,
          "velocity": 0.7716535433070866
        },
        {
          "duration": 0.1875,
          "durationTicks": 128,
          "midi": 55,
          "name": "G3",
          "ticks": 373376,
          "time": 546.9375,
          "velocity": 0.7559055118110236
        },
        {
          "duration": 0.1875,
          "durationTicks": 128,
          "midi": 55,
          "name": "G3",
          "ticks": 373504,
          "time": 547.125,
          "velocity": 0.7795275590551181
        },
        {
          "duration": 0.1875,
          "durationTicks": 128,
          "midi": 55,
          "name": "G3",
          "ticks": 373632,
          "time": 547.3125,
          "velocity": 0.7795275590551181
        },
        {
          "duration": 0.1875,
          "durationTicks": 128,
          "midi": 60,
          "name": "C4",
          "ticks": 373760,
          "time": 547.5,
          "velocity": 0.8740157480314961
        },
        {
          "duration": 0.1875,
          "durationTicks": 128,
          "midi": 60,
          "name": "C4",
          "ticks": 373888,
          "time": 547.6875,
          "velocity": 0.7952755905511811
        },
        {
          "duration": 0.1875,
          "durationTicks": 128,
          "midi": 60,
          "name": "C4",
          "ticks": 374016,
          "time": 547.875,
          "velocity": 0.7716535433070866
        },
        {
          "duration": 0.1875,
          "durationTicks": 128,
          "midi": 60,
          "name": "C4",
          "ticks": 374144,
          "time": 548.0625,
          "velocity": 0.7322834645669292
        },
        {
          "duration": 0.1875,
          "durationTicks": 128,
          "midi": 60,
          "name": "C4",
          "ticks": 374272,
          "time": 548.25,
          "velocity": 0.7244094488188977
        },
        {
          "duration": 0.1875,
          "durationTicks": 128,
          "midi": 60,
          "name": "C4",
          "ticks": 374400,
          "time": 548.4375,
          "velocity": 0.7716535433070866
        },
        {
          "duration": 0.1875,
          "durationTicks": 128,
          "midi": 60,
          "name": "C4",
          "ticks": 374528,
          "time": 548.625,
          "velocity": 0.7874015748031497
        },
        {
          "duration": 0.1875,
          "durationTicks": 128,
          "midi": 60,
          "name": "C4",
          "ticks": 374656,
          "time": 548.8125,
          "velocity": 0.7874015748031497
        },
        {
          "duration": 0.1875,
          "durationTicks": 128,
          "midi": 62,
          "name": "D4",
          "ticks": 374784,
          "time": 549,
          "velocity": 0.8346456692913385
        },
        {
          "duration": 0.1875,
          "durationTicks": 128,
          "midi": 62,
          "name": "D4",
          "ticks": 374912,
          "time": 549.1875,
          "velocity": 0.7874015748031497
        },
        {
          "duration": 0.1875,
          "durationTicks": 128,
          "midi": 62,
          "name": "D4",
          "ticks": 375040,
          "time": 549.375,
          "velocity": 0.8110236220472441
        },
        {
          "duration": 0.1875,
          "durationTicks": 128,
          "midi": 62,
          "name": "D4",
          "ticks": 375168,
          "time": 549.5625,
          "velocity": 0.7322834645669292
        },
        {
          "duration": 0.1875,
          "durationTicks": 128,
          "midi": 50,
          "name": "D3",
          "ticks": 375296,
          "time": 549.75,
          "velocity": 0.6771653543307087
        },
        {
          "duration": 0.1875,
          "durationTicks": 128,
          "midi": 50,
          "name": "D3",
          "ticks": 375424,
          "time": 549.9375,
          "velocity": 0.8031496062992126
        },
        {
          "duration": 0.1875,
          "durationTicks": 128,
          "midi": 50,
          "name": "D3",
          "ticks": 375552,
          "time": 550.125,
          "velocity": 0.7401574803149606
        },
        {
          "duration": 0.1875,
          "durationTicks": 128,
          "midi": 50,
          "name": "D3",
          "ticks": 375680,
          "time": 550.3125,
          "velocity": 0.7874015748031497
        },
        {
          "duration": 0.375,
          "durationTicks": 256,
          "midi": 55,
          "name": "G3",
          "ticks": 375808,
          "time": 550.5,
          "velocity": 0.8267716535433071
        },
        {
          "duration": 1.5,
          "durationTicks": 1024,
          "midi": 67,
          "name": "G4",
          "ticks": 376320,
          "time": 551.25,
          "velocity": 0.4251968503937008
        },
        {
          "duration": 0.35595703125,
          "durationTicks": 243,
          "midi": 66,
          "name": "F#4",
          "ticks": 377344,
          "time": 552.75,
          "velocity": 0.48031496062992124
        },
        {
          "duration": 1.5,
          "durationTicks": 1024,
          "midi": 55,
          "name": "G3",
          "ticks": 378368,
          "time": 554.25,
          "velocity": 0.4566929133858268
        },
        {
          "duration": 0.35595703125,
          "durationTicks": 243,
          "midi": 54,
          "name": "F#3",
          "ticks": 379392,
          "time": 555.75,
          "velocity": 0.47244094488188976
        },
        {
          "duration": 0.1875,
          "durationTicks": 128,
          "midi": 55,
          "name": "G3",
          "ticks": 380928,
          "time": 558,
          "velocity": 0.7007874015748031
        },
        {
          "duration": 0.1875,
          "durationTicks": 128,
          "midi": 55,
          "name": "G3",
          "ticks": 381056,
          "time": 558.1875,
          "velocity": 0.7637795275590551
        },
        {
          "duration": 0.1875,
          "durationTicks": 128,
          "midi": 55,
          "name": "G3",
          "ticks": 381184,
          "time": 558.375,
          "velocity": 0.7952755905511811
        },
        {
          "duration": 0.1875,
          "durationTicks": 128,
          "midi": 55,
          "name": "G3",
          "ticks": 381312,
          "time": 558.5625,
          "velocity": 0.7716535433070866
        },
        {
          "duration": 0.1875,
          "durationTicks": 128,
          "midi": 55,
          "name": "G3",
          "ticks": 381440,
          "time": 558.75,
          "velocity": 0.7559055118110236
        },
        {
          "duration": 0.1875,
          "durationTicks": 128,
          "midi": 55,
          "name": "G3",
          "ticks": 381568,
          "time": 558.9375,
          "velocity": 0.7480314960629921
        },
        {
          "duration": 0.1875,
          "durationTicks": 128,
          "midi": 55,
          "name": "G3",
          "ticks": 381696,
          "time": 559.125,
          "velocity": 0.8267716535433071
        },
        {
          "duration": 0.1875,
          "durationTicks": 128,
          "midi": 55,
          "name": "G3",
          "ticks": 381824,
          "time": 559.3125,
          "velocity": 0.8031496062992126
        },
        {
          "duration": 0.1875,
          "durationTicks": 128,
          "midi": 60,
          "name": "C4",
          "ticks": 381952,
          "time": 559.5,
          "velocity": 0.84251968503937
        },
        {
          "duration": 0.1875,
          "durationTicks": 128,
          "midi": 60,
          "name": "C4",
          "ticks": 382080,
          "time": 559.6875,
          "velocity": 0.8188976377952756
        },
        {
          "duration": 0.1875,
          "durationTicks": 128,
          "midi": 60,
          "name": "C4",
          "ticks": 382208,
          "time": 559.875,
          "velocity": 0.7480314960629921
        },
        {
          "duration": 0.1875,
          "durationTicks": 128,
          "midi": 60,
          "name": "C4",
          "ticks": 382336,
          "time": 560.0625,
          "velocity": 0.7637795275590551
        },
        {
          "duration": 0.1875,
          "durationTicks": 128,
          "midi": 60,
          "name": "C4",
          "ticks": 382464,
          "time": 560.25,
          "velocity": 0.7795275590551181
        },
        {
          "duration": 0.1875,
          "durationTicks": 128,
          "midi": 60,
          "name": "C4",
          "ticks": 382592,
          "time": 560.4375,
          "velocity": 0.7795275590551181
        },
        {
          "duration": 0.1875,
          "durationTicks": 128,
          "midi": 60,
          "name": "C4",
          "ticks": 382720,
          "time": 560.625,
          "velocity": 0.7716535433070866
        },
        {
          "duration": 0.1875,
          "durationTicks": 128,
          "midi": 60,
          "name": "C4",
          "ticks": 382848,
          "time": 560.8125,
          "velocity": 0.7874015748031497
        },
        {
          "duration": 0.1875,
          "durationTicks": 128,
          "midi": 62,
          "name": "D4",
          "ticks": 382976,
          "time": 561,
          "velocity": 0.8267716535433071
        },
        {
          "duration": 0.1875,
          "durationTicks": 128,
          "midi": 62,
          "name": "D4",
          "ticks": 383104,
          "time": 561.1875,
          "velocity": 0.7795275590551181
        },
        {
          "duration": 0.1875,
          "durationTicks": 128,
          "midi": 62,
          "name": "D4",
          "ticks": 383232,
          "time": 561.375,
          "velocity": 0.7559055118110236
        },
        {
          "duration": 0.1875,
          "durationTicks": 128,
          "midi": 62,
          "name": "D4",
          "ticks": 383360,
          "time": 561.5625,
          "velocity": 0.7559055118110236
        },
        {
          "duration": 0.1875,
          "durationTicks": 128,
          "midi": 50,
          "name": "D3",
          "ticks": 383488,
          "time": 561.75,
          "velocity": 0.6614173228346457
        },
        {
          "duration": 0.1875,
          "durationTicks": 128,
          "midi": 50,
          "name": "D3",
          "ticks": 383616,
          "time": 561.9375,
          "velocity": 0.7480314960629921
        },
        {
          "duration": 0.1875,
          "durationTicks": 128,
          "midi": 50,
          "name": "D3",
          "ticks": 383744,
          "time": 562.125,
          "velocity": 0.7874015748031497
        },
        {
          "duration": 0.1875,
          "durationTicks": 128,
          "midi": 50,
          "name": "D3",
          "ticks": 383872,
          "time": 562.3125,
          "velocity": 0.7795275590551181
        },
        {
          "duration": 0.75,
          "durationTicks": 512,
          "midi": 55,
          "name": "G3",
          "ticks": 384000,
          "time": 562.5,
          "velocity": 0.7952755905511811
        },
        {
          "duration": 0.1875,
          "durationTicks": 128,
          "midi": 74,
          "name": "D5",
          "ticks": 384896,
          "time": 563.8125,
          "velocity": 0.7086614173228346
        },
        {
          "duration": 0.1875,
          "durationTicks": 128,
          "midi": 72,
          "name": "C5",
          "ticks": 385024,
          "time": 564,
          "velocity": 0.6850393700787402
        },
        {
          "duration": 0.1875,
          "durationTicks": 128,
          "midi": 70,
          "name": "A#4",
          "ticks": 385152,
          "time": 564.1875,
          "velocity": 0.7007874015748031
        },
        {
          "duration": 0.1875,
          "durationTicks": 128,
          "midi": 69,
          "name": "A4",
          "ticks": 385280,
          "time": 564.375,
          "velocity": 0.7559055118110236
        },
        {
          "duration": 0.1875,
          "durationTicks": 128,
          "midi": 67,
          "name": "G4",
          "ticks": 385408,
          "time": 564.5625,
          "velocity": 0.7165354330708661
        },
        {
          "duration": 0.1875,
          "durationTicks": 128,
          "midi": 66,
          "name": "F#4",
          "ticks": 385536,
          "time": 564.75,
          "velocity": 0.7007874015748031
        },
        {
          "duration": 0.1875,
          "durationTicks": 128,
          "midi": 63,
          "name": "D#4",
          "ticks": 385664,
          "time": 564.9375,
          "velocity": 0.7165354330708661
        },
        {
          "duration": 0.1875,
          "durationTicks": 128,
          "midi": 62,
          "name": "D4",
          "ticks": 385792,
          "time": 565.125,
          "velocity": 0.7716535433070866
        },
        {
          "duration": 0.1875,
          "durationTicks": 128,
          "midi": 60,
          "name": "C4",
          "ticks": 385920,
          "time": 565.3125,
          "velocity": 0.7401574803149606
        },
        {
          "duration": 0.375,
          "durationTicks": 256,
          "midi": 58,
          "name": "A#3",
          "ticks": 386048,
          "time": 565.5,
          "velocity": 0.7322834645669292
        },
        {
          "duration": 0.375,
          "durationTicks": 256,
          "midi": 58,
          "name": "A#3",
          "ticks": 386304,
          "time": 565.875,
          "velocity": 0.7874015748031497
        },
        {
          "duration": 0.375,
          "durationTicks": 256,
          "midi": 60,
          "name": "C4",
          "ticks": 386560,
          "time": 566.25,
          "velocity": 0.8582677165354331
        },
        {
          "duration": 0.375,
          "durationTicks": 256,
          "midi": 62,
          "name": "D4",
          "ticks": 386816,
          "time": 566.625,
          "velocity": 0.8346456692913385
        },
        {
          "duration": 0.1875,
          "durationTicks": 128,
          "midi": 67,
          "name": "G4",
          "ticks": 387072,
          "time": 567,
          "velocity": 0.8976377952755905
        },
        {
          "duration": 0.1875,
          "durationTicks": 128,
          "midi": 62,
          "name": "D4",
          "ticks": 387200,
          "time": 567.1875,
          "velocity": 0.7007874015748031
        },
        {
          "duration": 0.1875,
          "durationTicks": 128,
          "midi": 70,
          "name": "A#4",
          "ticks": 387328,
          "time": 567.375,
          "velocity": 0.8818897637795275
        },
        {
          "duration": 0.1875,
          "durationTicks": 128,
          "midi": 69,
          "name": "A4",
          "ticks": 387456,
          "time": 567.5625,
          "velocity": 0.7480314960629921
        },
        {
          "duration": 0.1875,
          "durationTicks": 128,
          "midi": 67,
          "name": "G4",
          "ticks": 387584,
          "time": 567.75,
          "velocity": 0.7244094488188977
        },
        {
          "duration": 0.1875,
          "durationTicks": 128,
          "midi": 65,
          "name": "F4",
          "ticks": 387712,
          "time": 567.9375,
          "velocity": 0.7007874015748031
        },
        {
          "duration": 0.1875,
          "durationTicks": 128,
          "midi": 63,
          "name": "D#4",
          "ticks": 387840,
          "time": 568.125,
          "velocity": 0.7007874015748031
        },
        {
          "duration": 0.1875,
          "durationTicks": 128,
          "midi": 62,
          "name": "D4",
          "ticks": 387968,
          "time": 568.3125,
          "velocity": 0.7165354330708661
        },
        {
          "duration": 0.1875,
          "durationTicks": 128,
          "midi": 61,
          "name": "C#4",
          "ticks": 388096,
          "time": 568.5,
          "velocity": 0.7322834645669292
        },
        {
          "duration": 0.1875,
          "durationTicks": 128,
          "midi": 64,
          "name": "E4",
          "ticks": 388224,
          "time": 568.6875,
          "velocity": 0.8188976377952756
        },
        {
          "duration": 0.1875,
          "durationTicks": 128,
          "midi": 69,
          "name": "A4",
          "ticks": 388352,
          "time": 568.875,
          "velocity": 0.8740157480314961
        },
        {
          "duration": 0.1875,
          "durationTicks": 128,
          "midi": 67,
          "name": "G4",
          "ticks": 388480,
          "time": 569.0625,
          "velocity": 0.7244094488188977
        },
        {
          "duration": 0.1875,
          "durationTicks": 128,
          "midi": 66,
          "name": "F#4",
          "ticks": 388608,
          "time": 569.25,
          "velocity": 0.7165354330708661
        },
        {
          "duration": 0.1875,
          "durationTicks": 128,
          "midi": 63,
          "name": "D#4",
          "ticks": 388736,
          "time": 569.4375,
          "velocity": 0.7086614173228346
        },
        {
          "duration": 0.1875,
          "durationTicks": 128,
          "midi": 62,
          "name": "D4",
          "ticks": 388864,
          "time": 569.625,
          "velocity": 0.7480314960629921
        },
        {
          "duration": 0.1875,
          "durationTicks": 128,
          "midi": 60,
          "name": "C4",
          "ticks": 388992,
          "time": 569.8125,
          "velocity": 0.7007874015748031
        },
        {
          "duration": 0.375,
          "durationTicks": 256,
          "midi": 58,
          "name": "A#3",
          "ticks": 389120,
          "time": 570,
          "velocity": 0.7401574803149606
        },
        {
          "duration": 0.75,
          "durationTicks": 512,
          "midi": 55,
          "name": "G3",
          "ticks": 389376,
          "time": 570.375,
          "velocity": 0.937007874015748
        },
        {
          "duration": 0.75,
          "durationTicks": 512,
          "midi": 67,
          "name": "G4",
          "ticks": 389376,
          "time": 570.375,
          "velocity": 0.937007874015748
        },
        {
          "duration": 0.75,
          "durationTicks": 512,
          "midi": 55,
          "name": "G3",
          "ticks": 389888,
          "time": 571.125,
          "velocity": 0.8031496062992126
        },
        {
          "duration": 0.75,
          "durationTicks": 512,
          "midi": 67,
          "name": "G4",
          "ticks": 389888,
          "time": 571.125,
          "velocity": 0.8031496062992126
        },
        {
          "duration": 0.75,
          "durationTicks": 512,
          "midi": 55,
          "name": "G3",
          "ticks": 390400,
          "time": 571.875,
          "velocity": 0.7480314960629921
        },
        {
          "duration": 0.75,
          "durationTicks": 512,
          "midi": 67,
          "name": "G4",
          "ticks": 390400,
          "time": 571.875,
          "velocity": 0.7480314960629921
        },
        {
          "duration": 0.75,
          "durationTicks": 512,
          "midi": 55,
          "name": "G3",
          "ticks": 390912,
          "time": 572.625,
          "velocity": 0.7795275590551181
        },
        {
          "duration": 0.75,
          "durationTicks": 512,
          "midi": 67,
          "name": "G4",
          "ticks": 390912,
          "time": 572.625,
          "velocity": 0.7795275590551181
        },
        {
          "duration": 0.75,
          "durationTicks": 512,
          "midi": 55,
          "name": "G3",
          "ticks": 391424,
          "time": 573.375,
          "velocity": 0.7795275590551181
        },
        {
          "duration": 0.75,
          "durationTicks": 512,
          "midi": 67,
          "name": "G4",
          "ticks": 391424,
          "time": 573.375,
          "velocity": 0.7795275590551181
        },
        {
          "duration": 0.75,
          "durationTicks": 512,
          "midi": 55,
          "name": "G3",
          "ticks": 391936,
          "time": 574.125,
          "velocity": 0.7716535433070866
        },
        {
          "duration": 0.75,
          "durationTicks": 512,
          "midi": 67,
          "name": "G4",
          "ticks": 391936,
          "time": 574.125,
          "velocity": 0.7716535433070866
        },
        {
          "duration": 0.75,
          "durationTicks": 512,
          "midi": 55,
          "name": "G3",
          "ticks": 392448,
          "time": 574.875,
          "velocity": 0.7637795275590551
        },
        {
          "duration": 0.75,
          "durationTicks": 512,
          "midi": 67,
          "name": "G4",
          "ticks": 392448,
          "time": 574.875,
          "velocity": 0.7637795275590551
        },
        {
          "duration": 0.1904296875,
          "durationTicks": 130,
          "midi": 65,
          "name": "F4",
          "ticks": 398080,
          "time": 583.125,
          "velocity": 0.4330708661417323
        },
        {
          "duration": 0.17724609375,
          "durationTicks": 121,
          "midi": 63,
          "name": "D#4",
          "ticks": 398208,
          "time": 583.3125,
          "velocity": 0.3779527559055118
        },
        {
          "duration": 0.1875,
          "durationTicks": 128,
          "midi": 63,
          "name": "D#4",
          "ticks": 398336,
          "time": 583.5,
          "velocity": 0.4881889763779528
        },
        {
          "duration": 0.1904296875,
          "durationTicks": 130,
          "midi": 65,
          "name": "F4",
          "ticks": 398592,
          "time": 583.875,
          "velocity": 0.5354330708661418
        },
        {
          "duration": 0.17724609375,
          "durationTicks": 121,
          "midi": 63,
          "name": "D#4",
          "ticks": 398720,
          "time": 584.0625,
          "velocity": 0.5196850393700787
        },
        {
          "duration": 0.1875,
          "durationTicks": 128,
          "midi": 63,
          "name": "D#4",
          "ticks": 398848,
          "time": 584.25,
          "velocity": 0.4881889763779528
        },
        {
          "duration": 0.1904296875,
          "durationTicks": 130,
          "midi": 65,
          "name": "F4",
          "ticks": 399104,
          "time": 584.625,
          "velocity": 0.5196850393700787
        },
        {
          "duration": 0.17724609375,
          "durationTicks": 121,
          "midi": 63,
          "name": "D#4",
          "ticks": 399232,
          "time": 584.8125,
          "velocity": 0.49606299212598426
        },
        {
          "duration": 0.38232421875,
          "durationTicks": 261,
          "midi": 62,
          "name": "D4",
          "ticks": 399360,
          "time": 585,
          "velocity": 0.44881889763779526
        },
        {
          "duration": 0.7646484375,
          "durationTicks": 522,
          "midi": 74,
          "name": "D5",
          "ticks": 399616,
          "time": 585.375,
          "velocity": 0.5905511811023622
        },
        {
          "duration": 0.7119140625,
          "durationTicks": 486,
          "midi": 72,
          "name": "C5",
          "ticks": 400128,
          "time": 586.125,
          "velocity": 0.4881889763779528
        },
        {
          "duration": 0.7646484375,
          "durationTicks": 522,
          "midi": 70,
          "name": "A#4",
          "ticks": 400640,
          "time": 586.875,
          "velocity": 0.4251968503937008
        },
        {
          "duration": 0.35595703125,
          "durationTicks": 243,
          "midi": 69,
          "name": "A4",
          "ticks": 401152,
          "time": 587.625,
          "velocity": 0.4094488188976378
        },
        {
          "duration": 0.375,
          "durationTicks": 256,
          "midi": 67,
          "name": "G4",
          "ticks": 401408,
          "time": 588,
          "velocity": 0.7165354330708661
        },
        {
          "duration": 0.375,
          "durationTicks": 256,
          "midi": 62,
          "name": "D4",
          "ticks": 401920,
          "time": 588.75,
          "velocity": 0.6929133858267716
        },
        {
          "duration": 0.375,
          "durationTicks": 256,
          "midi": 67,
          "name": "G4",
          "ticks": 402432,
          "time": 589.5,
          "velocity": 0.6692913385826772
        },
        {
          "duration": 0.375,
          "durationTicks": 256,
          "midi": 62,
          "name": "D4",
          "ticks": 402944,
          "time": 590.25,
          "velocity": 0.6850393700787402
        },
        {
          "duration": 0.375,
          "durationTicks": 256,
          "midi": 67,
          "name": "G4",
          "ticks": 403456,
          "time": 591,
          "velocity": 0.6929133858267716
        },
        {
          "duration": 0.375,
          "durationTicks": 256,
          "midi": 62,
          "name": "D4",
          "ticks": 403968,
          "time": 591.75,
          "velocity": 0.7007874015748031
        },
        {
          "duration": 0.375,
          "durationTicks": 256,
          "midi": 67,
          "name": "G4",
          "ticks": 404480,
          "time": 592.5,
          "velocity": 0.6850393700787402
        },
        {
          "duration": 0.375,
          "durationTicks": 256,
          "midi": 62,
          "name": "D4",
          "ticks": 404736,
          "time": 592.875,
          "velocity": 0.6535433070866141
        },
        {
          "duration": 0.375,
          "durationTicks": 256,
          "midi": 67,
          "name": "G4",
          "ticks": 404992,
          "time": 593.25,
          "velocity": 0.8661417322834646
        },
        {
          "duration": 0.375,
          "durationTicks": 256,
          "midi": 62,
          "name": "D4",
          "ticks": 405248,
          "time": 593.625,
          "velocity": 0.6850393700787402
        },
        {
          "duration": 0.375,
          "durationTicks": 256,
          "midi": 67,
          "name": "G4",
          "ticks": 405504,
          "time": 594,
          "velocity": 0.8661417322834646
        },
        {
          "duration": 0.375,
          "durationTicks": 256,
          "midi": 55,
          "name": "G3",
          "ticks": 406528,
          "time": 595.5,
          "velocity": 0.7007874015748031
        },
        {
          "duration": 0.375,
          "durationTicks": 256,
          "midi": 67,
          "name": "G4",
          "ticks": 407040,
          "time": 596.25,
          "velocity": 0.6929133858267716
        },
        {
          "duration": 0.75,
          "durationTicks": 512,
          "midi": 55,
          "name": "G3",
          "ticks": 407552,
          "time": 597,
          "velocity": 0.7244094488188977
        }
      ],
      "endOfTrackTicks": 408065
    },
    {
      "channel": 8,
      "controlChanges": {
        "7": [
          {
            "number": 7,
            "ticks": 0,
            "time": 0,
            "value": 0.9448818897637795
          }
        ],
        "10": [
          {
            "number": 10,
            "ticks": 0,
            "time": 0,
            "value": 0.25196850393700787
          }
        ],
        "64": [
          {
            "number": 64,
            "ticks": 0,
            "time": 0,
            "value": 0
          }
        ],
        "91": [
          {
            "number": 91,
            "ticks": 0,
            "time": 0,
            "value": 0.47244094488188976
          }
        ],
        "121": [
          {
            "number": 121,
            "ticks": 0,
            "time": 0,
            "value": 0
          }
        ]
      },
      "pitchBends": [],
      "instrument": {
        "family": "ensemble",
        "number": 48,
        "name": "string ensemble 1"
      },
      "name": "Viola",
      "notes": [
        {
          "duration": 0.1875,
          "durationTicks": 128,
          "midi": 55,
          "name": "G3",
          "ticks": 0,
          "time": 0,
          "velocity": 0.4409448818897638
        },
        {
          "duration": 0.1875,
          "durationTicks": 128,
          "midi": 55,
          "name": "G3",
          "ticks": 128,
          "time": 0.1875,
          "velocity": 0.4881889763779528
        },
        {
          "duration": 0.1875,
          "durationTicks": 128,
          "midi": 58,
          "name": "A#3",
          "ticks": 256,
          "time": 0.375,
          "velocity": 0.5118110236220472
        },
        {
          "duration": 0.1875,
          "durationTicks": 128,
          "midi": 58,
          "name": "A#3",
          "ticks": 384,
          "time": 0.5625,
          "velocity": 0.5039370078740157
        },
        {
          "duration": 0.1875,
          "durationTicks": 128,
          "midi": 55,
          "name": "G3",
          "ticks": 512,
          "time": 0.75,
          "velocity": 0.41732283464566927
        },
        {
          "duration": 0.1875,
          "durationTicks": 128,
          "midi": 55,
          "name": "G3",
          "ticks": 640,
          "time": 0.9375,
          "velocity": 0.49606299212598426
        },
        {
          "duration": 0.1875,
          "durationTicks": 128,
          "midi": 58,
          "name": "A#3",
          "ticks": 768,
          "time": 1.125,
          "velocity": 0.5354330708661418
        },
        {
          "duration": 0.1875,
          "durationTicks": 128,
          "midi": 58,
          "name": "A#3",
          "ticks": 896,
          "time": 1.3125,
          "velocity": 0.48031496062992124
        },
        {
          "duration": 0.1875,
          "durationTicks": 128,
          "midi": 55,
          "name": "G3",
          "ticks": 1024,
          "time": 1.5,
          "velocity": 0.4330708661417323
        },
        {
          "duration": 0.1875,
          "durationTicks": 128,
          "midi": 55,
          "name": "G3",
          "ticks": 1152,
          "time": 1.6875,
          "velocity": 0.5118110236220472
        },
        {
          "duration": 0.1875,
          "durationTicks": 128,
          "midi": 58,
          "name": "A#3",
          "ticks": 1280,
          "time": 1.875,
          "velocity": 0.4881889763779528
        },
        {
          "duration": 0.1875,
          "durationTicks": 128,
          "midi": 58,
          "name": "A#3",
          "ticks": 1408,
          "time": 2.0625,
          "velocity": 0.49606299212598426
        },
        {
          "duration": 0.1875,
          "durationTicks": 128,
          "midi": 55,
          "name": "G3",
          "ticks": 1536,
          "time": 2.25,
          "velocity": 0.4645669291338583
        },
        {
          "duration": 0.1875,
          "durationTicks": 128,
          "midi": 55,
          "name": "G3",
          "ticks": 1664,
          "time": 2.4375,
          "velocity": 0.47244094488188976
        },
        {
          "duration": 0.1875,
          "durationTicks": 128,
          "midi": 58,
          "name": "A#3",
          "ticks": 1792,
          "time": 2.625,
          "velocity": 0.5118110236220472
        },
        {
          "duration": 0.1875,
          "durationTicks": 128,
          "midi": 58,
          "name": "A#3",
          "ticks": 1920,
          "time": 2.8125,
          "velocity": 0.47244094488188976
        },
        {
          "duration": 0.1875,
          "durationTicks": 128,
          "midi": 55,
          "name": "G3",
          "ticks": 2048,
          "time": 3,
          "velocity": 0.47244094488188976
        },
        {
          "duration": 0.1875,
          "durationTicks": 128,
          "midi": 55,
          "name": "G3",
          "ticks": 2176,
          "time": 3.1875,
          "velocity": 0.4566929133858268
        },
        {
          "duration": 0.1875,
          "durationTicks": 128,
          "midi": 62,
          "name": "D4",
          "ticks": 2304,
          "time": 3.375,
          "velocity": 0.5984251968503937
        },
        {
          "duration": 0.1875,
          "durationTicks": 128,
          "midi": 62,
          "name": "D4",
          "ticks": 2432,
          "time": 3.5625,
          "velocity": 0.5039370078740157
        },
        {
          "duration": 0.1875,
          "durationTicks": 128,
          "midi": 55,
          "name": "G3",
          "ticks": 2560,
          "time": 3.75,
          "velocity": 0.4409448818897638
        },
        {
          "duration": 0.1875,
          "durationTicks": 128,
          "midi": 55,
          "name": "G3",
          "ticks": 2688,
          "time": 3.9375,
          "velocity": 0.47244094488188976
        },
        {
          "duration": 0.1875,
          "durationTicks": 128,
          "midi": 62,
          "name": "D4",
          "ticks": 2816,
          "time": 4.125,
          "velocity": 0.5354330708661418
        },
        {
          "duration": 0.1875,
          "durationTicks": 128,
          "midi": 62,
          "name": "D4",
          "ticks": 2944,
          "time": 4.3125,
          "velocity": 0.49606299212598426
        },
        {
          "duration": 0.1875,
          "durationTicks": 128,
          "midi": 55,
          "name": "G3",
          "ticks": 3072,
          "time": 4.5,
          "velocity": 0.44881889763779526
        },
        {
          "duration": 0.1875,
          "durationTicks": 128,
          "midi": 55,
          "name": "G3",
          "ticks": 3200,
          "time": 4.6875,
          "velocity": 0.48031496062992124
        },
        {
          "duration": 0.1875,
          "durationTicks": 128,
          "midi": 58,
          "name": "A#3",
          "ticks": 3328,
          "time": 4.875,
          "velocity": 0.5196850393700787
        },
        {
          "duration": 0.1875,
          "durationTicks": 128,
          "midi": 58,
          "name": "A#3",
          "ticks": 3456,
          "time": 5.0625,
          "velocity": 0.4566929133858268
        },
        {
          "duration": 0.1875,
          "durationTicks": 128,
          "midi": 55,
          "name": "G3",
          "ticks": 3584,
          "time": 5.25,
          "velocity": 0.4645669291338583
        },
        {
          "duration": 0.1875,
          "durationTicks": 128,
          "midi": 55,
          "name": "G3",
          "ticks": 3712,
          "time": 5.4375,
          "velocity": 0.4881889763779528
        },
        {
          "duration": 0.1875,
          "durationTicks": 128,
          "midi": 58,
          "name": "A#3",
          "ticks": 3840,
          "time": 5.625,
          "velocity": 0.5039370078740157
        },
        {
          "duration": 0.1875,
          "durationTicks": 128,
          "midi": 58,
          "name": "A#3",
          "ticks": 3968,
          "time": 5.8125,
          "velocity": 0.47244094488188976
        },
        {
          "duration": 0.1875,
          "durationTicks": 128,
          "midi": 57,
          "name": "A3",
          "ticks": 4096,
          "time": 6,
          "velocity": 0.5118110236220472
        },
        {
          "duration": 0.1875,
          "durationTicks": 128,
          "midi": 57,
          "name": "A3",
          "ticks": 4224,
          "time": 6.1875,
          "velocity": 0.4881889763779528
        },
        {
          "duration": 0.1875,
          "durationTicks": 128,
          "midi": 63,
          "name": "D#4",
          "ticks": 4352,
          "time": 6.375,
          "velocity": 0.5433070866141733
        },
        {
          "duration": 0.1875,
          "durationTicks": 128,
          "midi": 63,
          "name": "D#4",
          "ticks": 4480,
          "time": 6.5625,
          "velocity": 0.5196850393700787
        },
        {
          "duration": 0.1875,
          "durationTicks": 128,
          "midi": 57,
          "name": "A3",
          "ticks": 4608,
          "time": 6.75,
          "velocity": 0.4409448818897638
        },
        {
          "duration": 0.1875,
          "durationTicks": 128,
          "midi": 57,
          "name": "A3",
          "ticks": 4736,
          "time": 6.9375,
          "velocity": 0.4645669291338583
        },
        {
          "duration": 0.1875,
          "durationTicks": 128,
          "midi": 63,
          "name": "D#4",
          "ticks": 4864,
          "time": 7.125,
          "velocity": 0.5590551181102362
        },
        {
          "duration": 0.1875,
          "durationTicks": 128,
          "midi": 63,
          "name": "D#4",
          "ticks": 4992,
          "time": 7.3125,
          "velocity": 0.4566929133858268
        },
        {
          "duration": 0.1875,
          "durationTicks": 128,
          "midi": 57,
          "name": "A3",
          "ticks": 5120,
          "time": 7.5,
          "velocity": 0.44881889763779526
        },
        {
          "duration": 0.1875,
          "durationTicks": 128,
          "midi": 57,
          "name": "A3",
          "ticks": 5248,
          "time": 7.6875,
          "velocity": 0.48031496062992124
        },
        {
          "duration": 0.1875,
          "durationTicks": 128,
          "midi": 63,
          "name": "D#4",
          "ticks": 5376,
          "time": 7.875,
          "velocity": 0.5511811023622047
        },
        {
          "duration": 0.1875,
          "durationTicks": 128,
          "midi": 63,
          "name": "D#4",
          "ticks": 5504,
          "time": 8.0625,
          "velocity": 0.4881889763779528
        },
        {
          "duration": 0.1875,
          "durationTicks": 128,
          "midi": 57,
          "name": "A3",
          "ticks": 5632,
          "time": 8.25,
          "velocity": 0.4409448818897638
        },
        {
          "duration": 0.1875,
          "durationTicks": 128,
          "midi": 57,
          "name": "A3",
          "ticks": 5760,
          "time": 8.4375,
          "velocity": 0.49606299212598426
        },
        {
          "duration": 0.1875,
          "durationTicks": 128,
          "midi": 63,
          "name": "D#4",
          "ticks": 5888,
          "time": 8.625,
          "velocity": 0.5748031496062992
        },
        {
          "duration": 0.1875,
          "durationTicks": 128,
          "midi": 63,
          "name": "D#4",
          "ticks": 6016,
          "time": 8.8125,
          "velocity": 0.5118110236220472
        },
        {
          "duration": 0.1875,
          "durationTicks": 128,
          "midi": 57,
          "name": "A3",
          "ticks": 6144,
          "time": 9,
          "velocity": 0.4409448818897638
        },
        {
          "duration": 0.1875,
          "durationTicks": 128,
          "midi": 57,
          "name": "A3",
          "ticks": 6272,
          "time": 9.1875,
          "velocity": 0.4881889763779528
        },
        {
          "duration": 0.1875,
          "durationTicks": 128,
          "midi": 62,
          "name": "D4",
          "ticks": 6400,
          "time": 9.375,
          "velocity": 0.5511811023622047
        },
        {
          "duration": 0.1875,
          "durationTicks": 128,
          "midi": 62,
          "name": "D4",
          "ticks": 6528,
          "time": 9.5625,
          "velocity": 0.49606299212598426
        },
        {
          "duration": 0.1875,
          "durationTicks": 128,
          "midi": 57,
          "name": "A3",
          "ticks": 6656,
          "time": 9.75,
          "velocity": 0.4645669291338583
        },
        {
          "duration": 0.1875,
          "durationTicks": 128,
          "midi": 57,
          "name": "A3",
          "ticks": 6784,
          "time": 9.9375,
          "velocity": 0.48031496062992124
        },
        {
          "duration": 0.1875,
          "durationTicks": 128,
          "midi": 62,
          "name": "D4",
          "ticks": 6912,
          "time": 10.125,
          "velocity": 0.49606299212598426
        },
        {
          "duration": 0.1875,
          "durationTicks": 128,
          "midi": 62,
          "name": "D4",
          "ticks": 7040,
          "time": 10.3125,
          "velocity": 0.48031496062992124
        },
        {
          "duration": 0.1875,
          "durationTicks": 128,
          "midi": 57,
          "name": "A3",
          "ticks": 7168,
          "time": 10.5,
          "velocity": 0.4881889763779528
        },
        {
          "duration": 0.1875,
          "durationTicks": 128,
          "midi": 57,
          "name": "A3",
          "ticks": 7296,
          "time": 10.6875,
          "velocity": 0.4330708661417323
        },
        {
          "duration": 0.1875,
          "durationTicks": 128,
          "midi": 60,
          "name": "C4",
          "ticks": 7424,
          "time": 10.875,
          "velocity": 0.49606299212598426
        },
        {
          "duration": 0.1875,
          "durationTicks": 128,
          "midi": 60,
          "name": "C4",
          "ticks": 7552,
          "time": 11.0625,
          "velocity": 0.49606299212598426
        },
        {
          "duration": 0.1875,
          "durationTicks": 128,
          "midi": 57,
          "name": "A3",
          "ticks": 7680,
          "time": 11.25,
          "velocity": 0.44881889763779526
        },
        {
          "duration": 0.1875,
          "durationTicks": 128,
          "midi": 57,
          "name": "A3",
          "ticks": 7808,
          "time": 11.4375,
          "velocity": 0.4881889763779528
        },
        {
          "duration": 0.1875,
          "durationTicks": 128,
          "midi": 66,
          "name": "F#4",
          "ticks": 7936,
          "time": 11.625,
          "velocity": 0.5748031496062992
        },
        {
          "duration": 0.1875,
          "durationTicks": 128,
          "midi": 66,
          "name": "F#4",
          "ticks": 8064,
          "time": 11.8125,
          "velocity": 0.5039370078740157
        },
        {
          "duration": 0.1875,
          "durationTicks": 128,
          "midi": 55,
          "name": "G3",
          "ticks": 8192,
          "time": 12,
          "velocity": 0.4251968503937008
        },
        {
          "duration": 0.1875,
          "durationTicks": 128,
          "midi": 55,
          "name": "G3",
          "ticks": 8320,
          "time": 12.1875,
          "velocity": 0.5039370078740157
        },
        {
          "duration": 0.1875,
          "durationTicks": 128,
          "midi": 62,
          "name": "D4",
          "ticks": 8448,
          "time": 12.375,
          "velocity": 0.5748031496062992
        },
        {
          "duration": 0.1875,
          "durationTicks": 128,
          "midi": 62,
          "name": "D4",
          "ticks": 8576,
          "time": 12.5625,
          "velocity": 0.48031496062992124
        },
        {
          "duration": 0.1875,
          "durationTicks": 128,
          "midi": 55,
          "name": "G3",
          "ticks": 8704,
          "time": 12.75,
          "velocity": 0.41732283464566927
        },
        {
          "duration": 0.1875,
          "durationTicks": 128,
          "midi": 55,
          "name": "G3",
          "ticks": 8832,
          "time": 12.9375,
          "velocity": 0.4566929133858268
        },
        {
          "duration": 0.1875,
          "durationTicks": 128,
          "midi": 62,
          "name": "D4",
          "ticks": 8960,
          "time": 13.125,
          "velocity": 0.5669291338582677
        },
        {
          "duration": 0.1875,
          "durationTicks": 128,
          "midi": 62,
          "name": "D4",
          "ticks": 9088,
          "time": 13.3125,
          "velocity": 0.48031496062992124
        },
        {
          "duration": 0.1875,
          "durationTicks": 128,
          "midi": 57,
          "name": "A3",
          "ticks": 9216,
          "time": 13.5,
          "velocity": 0.4330708661417323
        },
        {
          "duration": 0.1875,
          "durationTicks": 128,
          "midi": 57,
          "name": "A3",
          "ticks": 9344,
          "time": 13.6875,
          "velocity": 0.49606299212598426
        },
        {
          "duration": 0.1875,
          "durationTicks": 128,
          "midi": 63,
          "name": "D#4",
          "ticks": 9472,
          "time": 13.875,
          "velocity": 0.5433070866141733
        },
        {
          "duration": 0.1875,
          "durationTicks": 128,
          "midi": 63,
          "name": "D#4",
          "ticks": 9600,
          "time": 14.0625,
          "velocity": 0.5039370078740157
        },
        {
          "duration": 0.1875,
          "durationTicks": 128,
          "midi": 57,
          "name": "A3",
          "ticks": 9728,
          "time": 14.25,
          "velocity": 0.4566929133858268
        },
        {
          "duration": 0.1875,
          "durationTicks": 128,
          "midi": 57,
          "name": "A3",
          "ticks": 9856,
          "time": 14.4375,
          "velocity": 0.5039370078740157
        },
        {
          "duration": 0.1875,
          "durationTicks": 128,
          "midi": 63,
          "name": "D#4",
          "ticks": 9984,
          "time": 14.625,
          "velocity": 0.5275590551181102
        },
        {
          "duration": 0.1875,
          "durationTicks": 128,
          "midi": 63,
          "name": "D#4",
          "ticks": 10112,
          "time": 14.8125,
          "velocity": 0.5118110236220472
        },
        {
          "duration": 0.1875,
          "durationTicks": 128,
          "midi": 55,
          "name": "G3",
          "ticks": 10240,
          "time": 15,
          "velocity": 0.4015748031496063
        },
        {
          "duration": 0.1875,
          "durationTicks": 128,
          "midi": 55,
          "name": "G3",
          "ticks": 10368,
          "time": 15.1875,
          "velocity": 0.4645669291338583
        },
        {
          "duration": 0.1875,
          "durationTicks": 128,
          "midi": 62,
          "name": "D4",
          "ticks": 10496,
          "time": 15.375,
          "velocity": 0.5590551181102362
        },
        {
          "duration": 0.1875,
          "durationTicks": 128,
          "midi": 62,
          "name": "D4",
          "ticks": 10624,
          "time": 15.5625,
          "velocity": 0.4881889763779528
        },
        {
          "duration": 0.1875,
          "durationTicks": 128,
          "midi": 55,
          "name": "G3",
          "ticks": 10752,
          "time": 15.75,
          "velocity": 0.41732283464566927
        },
        {
          "duration": 0.1875,
          "durationTicks": 128,
          "midi": 55,
          "name": "G3",
          "ticks": 10880,
          "time": 15.9375,
          "velocity": 0.44881889763779526
        },
        {
          "duration": 0.1875,
          "durationTicks": 128,
          "midi": 62,
          "name": "D4",
          "ticks": 11008,
          "time": 16.125,
          "velocity": 0.5590551181102362
        },
        {
          "duration": 0.1875,
          "durationTicks": 128,
          "midi": 62,
          "name": "D4",
          "ticks": 11136,
          "time": 16.3125,
          "velocity": 0.4645669291338583
        },
        {
          "duration": 0.1875,
          "durationTicks": 128,
          "midi": 57,
          "name": "A3",
          "ticks": 11264,
          "time": 16.5,
          "velocity": 0.48031496062992124
        },
        {
          "duration": 0.1875,
          "durationTicks": 128,
          "midi": 57,
          "name": "A3",
          "ticks": 11392,
          "time": 16.6875,
          "velocity": 0.47244094488188976
        },
        {
          "duration": 0.1875,
          "durationTicks": 128,
          "midi": 63,
          "name": "D#4",
          "ticks": 11520,
          "time": 16.875,
          "velocity": 0.5669291338582677
        },
        {
          "duration": 0.1875,
          "durationTicks": 128,
          "midi": 63,
          "name": "D#4",
          "ticks": 11648,
          "time": 17.0625,
          "velocity": 0.47244094488188976
        },
        {
          "duration": 0.1875,
          "durationTicks": 128,
          "midi": 57,
          "name": "A3",
          "ticks": 11776,
          "time": 17.25,
          "velocity": 0.4409448818897638
        },
        {
          "duration": 0.1875,
          "durationTicks": 128,
          "midi": 57,
          "name": "A3",
          "ticks": 11904,
          "time": 17.4375,
          "velocity": 0.4881889763779528
        },
        {
          "duration": 0.1875,
          "durationTicks": 128,
          "midi": 63,
          "name": "D#4",
          "ticks": 12032,
          "time": 17.625,
          "velocity": 0.5669291338582677
        },
        {
          "duration": 0.1875,
          "durationTicks": 128,
          "midi": 63,
          "name": "D#4",
          "ticks": 12160,
          "time": 17.8125,
          "velocity": 0.4881889763779528
        },
        {
          "duration": 1.5,
          "durationTicks": 1024,
          "midi": 55,
          "name": "G3",
          "ticks": 12288,
          "time": 18,
          "velocity": 0.4881889763779528
        },
        {
          "duration": 0.1875,
          "durationTicks": 128,
          "midi": 55,
          "name": "G3",
          "ticks": 21504,
          "time": 31.5,
          "velocity": 0.4566929133858268
        },
        {
          "duration": 0.1875,
          "durationTicks": 128,
          "midi": 55,
          "name": "G3",
          "ticks": 21632,
          "time": 31.6875,
          "velocity": 0.4881889763779528
        },
        {
          "duration": 0.1875,
          "durationTicks": 128,
          "midi": 62,
          "name": "D4",
          "ticks": 21760,
          "time": 31.875,
          "velocity": 0.5354330708661418
        },
        {
          "duration": 0.1875,
          "durationTicks": 128,
          "midi": 62,
          "name": "D4",
          "ticks": 21888,
          "time": 32.0625,
          "velocity": 0.48031496062992124
        },
        {
          "duration": 0.1875,
          "durationTicks": 128,
          "midi": 55,
          "name": "G3",
          "ticks": 22016,
          "time": 32.25,
          "velocity": 0.4251968503937008
        },
        {
          "duration": 0.1875,
          "durationTicks": 128,
          "midi": 55,
          "name": "G3",
          "ticks": 22144,
          "time": 32.4375,
          "velocity": 0.4645669291338583
        },
        {
          "duration": 0.1875,
          "durationTicks": 128,
          "midi": 62,
          "name": "D4",
          "ticks": 22272,
          "time": 32.625,
          "velocity": 0.5748031496062992
        },
        {
          "duration": 0.1875,
          "durationTicks": 128,
          "midi": 62,
          "name": "D4",
          "ticks": 22400,
          "time": 32.8125,
          "velocity": 0.48031496062992124
        },
        {
          "duration": 0.1875,
          "durationTicks": 128,
          "midi": 55,
          "name": "G3",
          "ticks": 22528,
          "time": 33,
          "velocity": 0.4409448818897638
        },
        {
          "duration": 0.1875,
          "durationTicks": 128,
          "midi": 55,
          "name": "G3",
          "ticks": 22656,
          "time": 33.1875,
          "velocity": 0.44881889763779526
        },
        {
          "duration": 0.1875,
          "durationTicks": 128,
          "midi": 58,
          "name": "A#3",
          "ticks": 22784,
          "time": 33.375,
          "velocity": 0.4881889763779528
        },
        {
          "duration": 0.1875,
          "durationTicks": 128,
          "midi": 58,
          "name": "A#3",
          "ticks": 22912,
          "time": 33.5625,
          "velocity": 0.49606299212598426
        },
        {
          "duration": 0.1875,
          "durationTicks": 128,
          "midi": 55,
          "name": "G3",
          "ticks": 23040,
          "time": 33.75,
          "velocity": 0.4645669291338583
        },
        {
          "duration": 0.1875,
          "durationTicks": 128,
          "midi": 55,
          "name": "G3",
          "ticks": 23168,
          "time": 33.9375,
          "velocity": 0.4409448818897638
        },
        {
          "duration": 0.1875,
          "durationTicks": 128,
          "midi": 58,
          "name": "A#3",
          "ticks": 23296,
          "time": 34.125,
          "velocity": 0.5118110236220472
        },
        {
          "duration": 0.1875,
          "durationTicks": 128,
          "midi": 58,
          "name": "A#3",
          "ticks": 23424,
          "time": 34.3125,
          "velocity": 0.48031496062992124
        },
        {
          "duration": 0.1875,
          "durationTicks": 128,
          "midi": 55,
          "name": "G3",
          "ticks": 23552,
          "time": 34.5,
          "velocity": 0.5196850393700787
        },
        {
          "duration": 0.1875,
          "durationTicks": 128,
          "midi": 55,
          "name": "G3",
          "ticks": 23680,
          "time": 34.6875,
          "velocity": 0.4881889763779528
        },
        {
          "duration": 0.1875,
          "durationTicks": 128,
          "midi": 58,
          "name": "A#3",
          "ticks": 23808,
          "time": 34.875,
          "velocity": 0.4881889763779528
        },
        {
          "duration": 0.1875,
          "durationTicks": 128,
          "midi": 58,
          "name": "A#3",
          "ticks": 23936,
          "time": 35.0625,
          "velocity": 0.4645669291338583
        },
        {
          "duration": 0.1875,
          "durationTicks": 128,
          "midi": 55,
          "name": "G3",
          "ticks": 24064,
          "time": 35.25,
          "velocity": 0.4645669291338583
        },
        {
          "duration": 0.1875,
          "durationTicks": 128,
          "midi": 55,
          "name": "G3",
          "ticks": 24192,
          "time": 35.4375,
          "velocity": 0.4881889763779528
        },
        {
          "duration": 0.1875,
          "durationTicks": 128,
          "midi": 58,
          "name": "A#3",
          "ticks": 24320,
          "time": 35.625,
          "velocity": 0.47244094488188976
        },
        {
          "duration": 0.1875,
          "durationTicks": 128,
          "midi": 58,
          "name": "A#3",
          "ticks": 24448,
          "time": 35.8125,
          "velocity": 0.44881889763779526
        },
        {
          "duration": 0.1875,
          "durationTicks": 128,
          "midi": 55,
          "name": "G3",
          "ticks": 24576,
          "time": 36,
          "velocity": 0.4645669291338583
        },
        {
          "duration": 0.1875,
          "durationTicks": 128,
          "midi": 55,
          "name": "G3",
          "ticks": 24704,
          "time": 36.1875,
          "velocity": 0.4881889763779528
        },
        {
          "duration": 0.1875,
          "durationTicks": 128,
          "midi": 58,
          "name": "A#3",
          "ticks": 24832,
          "time": 36.375,
          "velocity": 0.49606299212598426
        },
        {
          "duration": 0.1875,
          "durationTicks": 128,
          "midi": 58,
          "name": "A#3",
          "ticks": 24960,
          "time": 36.5625,
          "velocity": 0.4645669291338583
        },
        {
          "duration": 0.1875,
          "durationTicks": 128,
          "midi": 55,
          "name": "G3",
          "ticks": 25088,
          "time": 36.75,
          "velocity": 0.4566929133858268
        },
        {
          "duration": 0.1875,
          "durationTicks": 128,
          "midi": 55,
          "name": "G3",
          "ticks": 25216,
          "time": 36.9375,
          "velocity": 0.4251968503937008
        },
        {
          "duration": 0.1875,
          "durationTicks": 128,
          "midi": 58,
          "name": "A#3",
          "ticks": 25344,
          "time": 37.125,
          "velocity": 0.5118110236220472
        },
        {
          "duration": 0.1875,
          "durationTicks": 128,
          "midi": 58,
          "name": "A#3",
          "ticks": 25472,
          "time": 37.3125,
          "velocity": 0.5039370078740157
        },
        {
          "duration": 0.1875,
          "durationTicks": 128,
          "midi": 57,
          "name": "A3",
          "ticks": 25600,
          "time": 37.5,
          "velocity": 0.4566929133858268
        },
        {
          "duration": 0.1875,
          "durationTicks": 128,
          "midi": 57,
          "name": "A3",
          "ticks": 25728,
          "time": 37.6875,
          "velocity": 0.4881889763779528
        },
        {
          "duration": 0.1875,
          "durationTicks": 128,
          "midi": 63,
          "name": "D#4",
          "ticks": 25856,
          "time": 37.875,
          "velocity": 0.5669291338582677
        },
        {
          "duration": 0.1875,
          "durationTicks": 128,
          "midi": 63,
          "name": "D#4",
          "ticks": 25984,
          "time": 38.0625,
          "velocity": 0.4881889763779528
        },
        {
          "duration": 0.1875,
          "durationTicks": 128,
          "midi": 57,
          "name": "A3",
          "ticks": 26112,
          "time": 38.25,
          "velocity": 0.4330708661417323
        },
        {
          "duration": 0.1875,
          "durationTicks": 128,
          "midi": 57,
          "name": "A3",
          "ticks": 26240,
          "time": 38.4375,
          "velocity": 0.49606299212598426
        },
        {
          "duration": 0.1875,
          "durationTicks": 128,
          "midi": 63,
          "name": "D#4",
          "ticks": 26368,
          "time": 38.625,
          "velocity": 0.5196850393700787
        },
        {
          "duration": 0.1875,
          "durationTicks": 128,
          "midi": 63,
          "name": "D#4",
          "ticks": 26496,
          "time": 38.8125,
          "velocity": 0.4881889763779528
        },
        {
          "duration": 0.1875,
          "durationTicks": 128,
          "midi": 60,
          "name": "C4",
          "ticks": 26624,
          "time": 39,
          "velocity": 0.4409448818897638
        },
        {
          "duration": 0.1875,
          "durationTicks": 128,
          "midi": 60,
          "name": "C4",
          "ticks": 26752,
          "time": 39.1875,
          "velocity": 0.47244094488188976
        },
        {
          "duration": 0.1875,
          "durationTicks": 128,
          "midi": 63,
          "name": "D#4",
          "ticks": 26880,
          "time": 39.375,
          "velocity": 0.4881889763779528
        },
        {
          "duration": 0.1875,
          "durationTicks": 128,
          "midi": 63,
          "name": "D#4",
          "ticks": 27008,
          "time": 39.5625,
          "velocity": 0.5354330708661418
        },
        {
          "duration": 0.1875,
          "durationTicks": 128,
          "midi": 57,
          "name": "A3",
          "ticks": 27136,
          "time": 39.75,
          "velocity": 0.4645669291338583
        },
        {
          "duration": 0.1875,
          "durationTicks": 128,
          "midi": 57,
          "name": "A3",
          "ticks": 27264,
          "time": 39.9375,
          "velocity": 0.4645669291338583
        },
        {
          "duration": 0.1875,
          "durationTicks": 128,
          "midi": 60,
          "name": "C4",
          "ticks": 27392,
          "time": 40.125,
          "velocity": 0.49606299212598426
        },
        {
          "duration": 0.1875,
          "durationTicks": 128,
          "midi": 60,
          "name": "C4",
          "ticks": 27520,
          "time": 40.3125,
          "velocity": 0.5039370078740157
        },
        {
          "duration": 0.1875,
          "durationTicks": 128,
          "midi": 62,
          "name": "D4",
          "ticks": 27648,
          "time": 40.5,
          "velocity": 0.8346456692913385
        },
        {
          "duration": 0.1875,
          "durationTicks": 128,
          "midi": 70,
          "name": "A#4",
          "ticks": 27776,
          "time": 40.6875,
          "velocity": 0.9133858267716536
        },
        {
          "duration": 0.1875,
          "durationTicks": 128,
          "midi": 74,
          "name": "D5",
          "ticks": 27904,
          "time": 40.875,
          "velocity": 0.889763779527559
        },
        {
          "duration": 0.1875,
          "durationTicks": 128,
          "midi": 70,
          "name": "A#4",
          "ticks": 28032,
          "time": 41.0625,
          "velocity": 0.6929133858267716
        },
        {
          "duration": 0.1875,
          "durationTicks": 128,
          "midi": 55,
          "name": "G3",
          "ticks": 102400,
          "time": 150,
          "velocity": 0.4251968503937008
        },
        {
          "duration": 0.1875,
          "durationTicks": 128,
          "midi": 55,
          "name": "G3",
          "ticks": 102528,
          "time": 150.1875,
          "velocity": 0.4645669291338583
        },
        {
          "duration": 0.1875,
          "durationTicks": 128,
          "midi": 58,
          "name": "A#3",
          "ticks": 102656,
          "time": 150.375,
          "velocity": 0.4881889763779528
        },
        {
          "duration": 0.1875,
          "durationTicks": 128,
          "midi": 58,
          "name": "A#3",
          "ticks": 102784,
          "time": 150.5625,
          "velocity": 0.4881889763779528
        },
        {
          "duration": 0.1875,
          "durationTicks": 128,
          "midi": 55,
          "name": "G3",
          "ticks": 102912,
          "time": 150.75,
          "velocity": 0.4881889763779528
        },
        {
          "duration": 0.1875,
          "durationTicks": 128,
          "midi": 55,
          "name": "G3",
          "ticks": 103040,
          "time": 150.9375,
          "velocity": 0.5039370078740157
        },
        {
          "duration": 0.1875,
          "durationTicks": 128,
          "midi": 58,
          "name": "A#3",
          "ticks": 103168,
          "time": 151.125,
          "velocity": 0.5196850393700787
        },
        {
          "duration": 0.1875,
          "durationTicks": 128,
          "midi": 58,
          "name": "A#3",
          "ticks": 103296,
          "time": 151.3125,
          "velocity": 0.5039370078740157
        },
        {
          "duration": 0.1875,
          "durationTicks": 128,
          "midi": 55,
          "name": "G3",
          "ticks": 103424,
          "time": 151.5,
          "velocity": 0.4409448818897638
        },
        {
          "duration": 0.1875,
          "durationTicks": 128,
          "midi": 55,
          "name": "G3",
          "ticks": 103552,
          "time": 151.6875,
          "velocity": 0.5039370078740157
        },
        {
          "duration": 0.1875,
          "durationTicks": 128,
          "midi": 58,
          "name": "A#3",
          "ticks": 103680,
          "time": 151.875,
          "velocity": 0.4645669291338583
        },
        {
          "duration": 0.1875,
          "durationTicks": 128,
          "midi": 58,
          "name": "A#3",
          "ticks": 103808,
          "time": 152.0625,
          "velocity": 0.4645669291338583
        },
        {
          "duration": 0.1875,
          "durationTicks": 128,
          "midi": 55,
          "name": "G3",
          "ticks": 103936,
          "time": 152.25,
          "velocity": 0.4251968503937008
        },
        {
          "duration": 0.1875,
          "durationTicks": 128,
          "midi": 55,
          "name": "G3",
          "ticks": 104064,
          "time": 152.4375,
          "velocity": 0.49606299212598426
        },
        {
          "duration": 0.1875,
          "durationTicks": 128,
          "midi": 58,
          "name": "A#3",
          "ticks": 104192,
          "time": 152.625,
          "velocity": 0.49606299212598426
        },
        {
          "duration": 0.1875,
          "durationTicks": 128,
          "midi": 58,
          "name": "A#3",
          "ticks": 104320,
          "time": 152.8125,
          "velocity": 0.4645669291338583
        },
        {
          "duration": 0.1875,
          "durationTicks": 128,
          "midi": 55,
          "name": "G3",
          "ticks": 104448,
          "time": 153,
          "velocity": 0.4881889763779528
        },
        {
          "duration": 0.1875,
          "durationTicks": 128,
          "midi": 55,
          "name": "G3",
          "ticks": 104576,
          "time": 153.1875,
          "velocity": 0.5118110236220472
        },
        {
          "duration": 0.1875,
          "durationTicks": 128,
          "midi": 62,
          "name": "D4",
          "ticks": 104704,
          "time": 153.375,
          "velocity": 0.5590551181102362
        },
        {
          "duration": 0.1875,
          "durationTicks": 128,
          "midi": 62,
          "name": "D4",
          "ticks": 104832,
          "time": 153.5625,
          "velocity": 0.4566929133858268
        },
        {
          "duration": 0.1875,
          "durationTicks": 128,
          "midi": 55,
          "name": "G3",
          "ticks": 104960,
          "time": 153.75,
          "velocity": 0.4409448818897638
        },
        {
          "duration": 0.1875,
          "durationTicks": 128,
          "midi": 55,
          "name": "G3",
          "ticks": 105088,
          "time": 153.9375,
          "velocity": 0.4645669291338583
        },
        {
          "duration": 0.1875,
          "durationTicks": 128,
          "midi": 62,
          "name": "D4",
          "ticks": 105216,
          "time": 154.125,
          "velocity": 0.5590551181102362
        },
        {
          "duration": 0.1875,
          "durationTicks": 128,
          "midi": 62,
          "name": "D4",
          "ticks": 105344,
          "time": 154.3125,
          "velocity": 0.49606299212598426
        },
        {
          "duration": 0.1875,
          "durationTicks": 128,
          "midi": 55,
          "name": "G3",
          "ticks": 105472,
          "time": 154.5,
          "velocity": 0.41732283464566927
        },
        {
          "duration": 0.1875,
          "durationTicks": 128,
          "midi": 55,
          "name": "G3",
          "ticks": 105600,
          "time": 154.6875,
          "velocity": 0.4881889763779528
        },
        {
          "duration": 0.1875,
          "durationTicks": 128,
          "midi": 58,
          "name": "A#3",
          "ticks": 105728,
          "time": 154.875,
          "velocity": 0.4881889763779528
        },
        {
          "duration": 0.1875,
          "durationTicks": 128,
          "midi": 58,
          "name": "A#3",
          "ticks": 105856,
          "time": 155.0625,
          "velocity": 0.4645669291338583
        },
        {
          "duration": 0.1875,
          "durationTicks": 128,
          "midi": 55,
          "name": "G3",
          "ticks": 105984,
          "time": 155.25,
          "velocity": 0.4409448818897638
        },
        {
          "duration": 0.1875,
          "durationTicks": 128,
          "midi": 55,
          "name": "G3",
          "ticks": 106112,
          "time": 155.4375,
          "velocity": 0.44881889763779526
        },
        {
          "duration": 0.1875,
          "durationTicks": 128,
          "midi": 58,
          "name": "A#3",
          "ticks": 106240,
          "time": 155.625,
          "velocity": 0.4566929133858268
        },
        {
          "duration": 0.1875,
          "durationTicks": 128,
          "midi": 58,
          "name": "A#3",
          "ticks": 106368,
          "time": 155.8125,
          "velocity": 0.47244094488188976
        },
        {
          "duration": 0.1875,
          "durationTicks": 128,
          "midi": 57,
          "name": "A3",
          "ticks": 106496,
          "time": 156,
          "velocity": 0.48031496062992124
        },
        {
          "duration": 0.1875,
          "durationTicks": 128,
          "midi": 57,
          "name": "A3",
          "ticks": 106624,
          "time": 156.1875,
          "velocity": 0.4251968503937008
        },
        {
          "duration": 0.1875,
          "durationTicks": 128,
          "midi": 63,
          "name": "D#4",
          "ticks": 106752,
          "time": 156.375,
          "velocity": 0.5590551181102362
        },
        {
          "duration": 0.1875,
          "durationTicks": 128,
          "midi": 63,
          "name": "D#4",
          "ticks": 106880,
          "time": 156.5625,
          "velocity": 0.49606299212598426
        },
        {
          "duration": 0.1875,
          "durationTicks": 128,
          "midi": 57,
          "name": "A3",
          "ticks": 107008,
          "time": 156.75,
          "velocity": 0.4566929133858268
        },
        {
          "duration": 0.1875,
          "durationTicks": 128,
          "midi": 57,
          "name": "A3",
          "ticks": 107136,
          "time": 156.9375,
          "velocity": 0.44881889763779526
        },
        {
          "duration": 0.1875,
          "durationTicks": 128,
          "midi": 63,
          "name": "D#4",
          "ticks": 107264,
          "time": 157.125,
          "velocity": 0.5275590551181102
        },
        {
          "duration": 0.1875,
          "durationTicks": 128,
          "midi": 63,
          "name": "D#4",
          "ticks": 107392,
          "time": 157.3125,
          "velocity": 0.5039370078740157
        },
        {
          "duration": 0.1875,
          "durationTicks": 128,
          "midi": 57,
          "name": "A3",
          "ticks": 107520,
          "time": 157.5,
          "velocity": 0.4251968503937008
        },
        {
          "duration": 0.1875,
          "durationTicks": 128,
          "midi": 57,
          "name": "A3",
          "ticks": 107648,
          "time": 157.6875,
          "velocity": 0.4645669291338583
        },
        {
          "duration": 0.1875,
          "durationTicks": 128,
          "midi": 63,
          "name": "D#4",
          "ticks": 107776,
          "time": 157.875,
          "velocity": 0.5433070866141733
        },
        {
          "duration": 0.1875,
          "durationTicks": 128,
          "midi": 63,
          "name": "D#4",
          "ticks": 107904,
          "time": 158.0625,
          "velocity": 0.48031496062992124
        },
        {
          "duration": 0.1875,
          "durationTicks": 128,
          "midi": 57,
          "name": "A3",
          "ticks": 108032,
          "time": 158.25,
          "velocity": 0.4566929133858268
        },
        {
          "duration": 0.1875,
          "durationTicks": 128,
          "midi": 57,
          "name": "A3",
          "ticks": 108160,
          "time": 158.4375,
          "velocity": 0.4409448818897638
        },
        {
          "duration": 0.1875,
          "durationTicks": 128,
          "midi": 63,
          "name": "D#4",
          "ticks": 108288,
          "time": 158.625,
          "velocity": 0.5354330708661418
        },
        {
          "duration": 0.1875,
          "durationTicks": 128,
          "midi": 63,
          "name": "D#4",
          "ticks": 108416,
          "time": 158.8125,
          "velocity": 0.4881889763779528
        },
        {
          "duration": 0.1875,
          "durationTicks": 128,
          "midi": 57,
          "name": "A3",
          "ticks": 108544,
          "time": 159,
          "velocity": 0.4330708661417323
        },
        {
          "duration": 0.1875,
          "durationTicks": 128,
          "midi": 57,
          "name": "A3",
          "ticks": 108672,
          "time": 159.1875,
          "velocity": 0.4881889763779528
        },
        {
          "duration": 0.1875,
          "durationTicks": 128,
          "midi": 62,
          "name": "D4",
          "ticks": 108800,
          "time": 159.375,
          "velocity": 0.5511811023622047
        },
        {
          "duration": 0.1875,
          "durationTicks": 128,
          "midi": 62,
          "name": "D4",
          "ticks": 108928,
          "time": 159.5625,
          "velocity": 0.47244094488188976
        },
        {
          "duration": 0.1875,
          "durationTicks": 128,
          "midi": 57,
          "name": "A3",
          "ticks": 109056,
          "time": 159.75,
          "velocity": 0.47244094488188976
        },
        {
          "duration": 0.1875,
          "durationTicks": 128,
          "midi": 57,
          "name": "A3",
          "ticks": 109184,
          "time": 159.9375,
          "velocity": 0.4881889763779528
        },
        {
          "duration": 0.1875,
          "durationTicks": 128,
          "midi": 62,
          "name": "D4",
          "ticks": 109312,
          "time": 160.125,
          "velocity": 0.5433070866141733
        },
        {
          "duration": 0.1875,
          "durationTicks": 128,
          "midi": 62,
          "name": "D4",
          "ticks": 109440,
          "time": 160.3125,
          "velocity": 0.47244094488188976
        },
        {
          "duration": 0.1875,
          "durationTicks": 128,
          "midi": 57,
          "name": "A3",
          "ticks": 109568,
          "time": 160.5,
          "velocity": 0.4409448818897638
        },
        {
          "duration": 0.1875,
          "durationTicks": 128,
          "midi": 57,
          "name": "A3",
          "ticks": 109696,
          "time": 160.6875,
          "velocity": 0.49606299212598426
        },
        {
          "duration": 0.1875,
          "durationTicks": 128,
          "midi": 60,
          "name": "C4",
          "ticks": 109824,
          "time": 160.875,
          "velocity": 0.5196850393700787
        },
        {
          "duration": 0.1875,
          "durationTicks": 128,
          "midi": 60,
          "name": "C4",
          "ticks": 109952,
          "time": 161.0625,
          "velocity": 0.5039370078740157
        },
        {
          "duration": 0.1875,
          "durationTicks": 128,
          "midi": 57,
          "name": "A3",
          "ticks": 110080,
          "time": 161.25,
          "velocity": 0.47244094488188976
        },
        {
          "duration": 0.1875,
          "durationTicks": 128,
          "midi": 57,
          "name": "A3",
          "ticks": 110208,
          "time": 161.4375,
          "velocity": 0.48031496062992124
        },
        {
          "duration": 0.1875,
          "durationTicks": 128,
          "midi": 66,
          "name": "F#4",
          "ticks": 110336,
          "time": 161.625,
          "velocity": 0.5748031496062992
        },
        {
          "duration": 0.1875,
          "durationTicks": 128,
          "midi": 66,
          "name": "F#4",
          "ticks": 110464,
          "time": 161.8125,
          "velocity": 0.5118110236220472
        },
        {
          "duration": 0.1875,
          "durationTicks": 128,
          "midi": 55,
          "name": "G3",
          "ticks": 110592,
          "time": 162,
          "velocity": 0.4251968503937008
        },
        {
          "duration": 0.1875,
          "durationTicks": 128,
          "midi": 55,
          "name": "G3",
          "ticks": 110720,
          "time": 162.1875,
          "velocity": 0.47244094488188976
        },
        {
          "duration": 0.1875,
          "durationTicks": 128,
          "midi": 62,
          "name": "D4",
          "ticks": 110848,
          "time": 162.375,
          "velocity": 0.5590551181102362
        },
        {
          "duration": 0.1875,
          "durationTicks": 128,
          "midi": 62,
          "name": "D4",
          "ticks": 110976,
          "time": 162.5625,
          "velocity": 0.49606299212598426
        },
        {
          "duration": 0.1875,
          "durationTicks": 128,
          "midi": 55,
          "name": "G3",
          "ticks": 111104,
          "time": 162.75,
          "velocity": 0.4251968503937008
        },
        {
          "duration": 0.1875,
          "durationTicks": 128,
          "midi": 55,
          "name": "G3",
          "ticks": 111232,
          "time": 162.9375,
          "velocity": 0.49606299212598426
        },
        {
          "duration": 0.1875,
          "durationTicks": 128,
          "midi": 62,
          "name": "D4",
          "ticks": 111360,
          "time": 163.125,
          "velocity": 0.5669291338582677
        },
        {
          "duration": 0.1875,
          "durationTicks": 128,
          "midi": 62,
          "name": "D4",
          "ticks": 111488,
          "time": 163.3125,
          "velocity": 0.49606299212598426
        },
        {
          "duration": 0.1875,
          "durationTicks": 128,
          "midi": 57,
          "name": "A3",
          "ticks": 111616,
          "time": 163.5,
          "velocity": 0.4566929133858268
        },
        {
          "duration": 0.1875,
          "durationTicks": 128,
          "midi": 57,
          "name": "A3",
          "ticks": 111744,
          "time": 163.6875,
          "velocity": 0.47244094488188976
        },
        {
          "duration": 0.1875,
          "durationTicks": 128,
          "midi": 63,
          "name": "D#4",
          "ticks": 111872,
          "time": 163.875,
          "velocity": 0.5511811023622047
        },
        {
          "duration": 0.1875,
          "durationTicks": 128,
          "midi": 63,
          "name": "D#4",
          "ticks": 112000,
          "time": 164.0625,
          "velocity": 0.5039370078740157
        },
        {
          "duration": 0.1875,
          "durationTicks": 128,
          "midi": 57,
          "name": "A3",
          "ticks": 112128,
          "time": 164.25,
          "velocity": 0.4566929133858268
        },
        {
          "duration": 0.1875,
          "durationTicks": 128,
          "midi": 57,
          "name": "A3",
          "ticks": 112256,
          "time": 164.4375,
          "velocity": 0.47244094488188976
        },
        {
          "duration": 0.1875,
          "durationTicks": 128,
          "midi": 63,
          "name": "D#4",
          "ticks": 112384,
          "time": 164.625,
          "velocity": 0.5984251968503937
        },
        {
          "duration": 0.1875,
          "durationTicks": 128,
          "midi": 63,
          "name": "D#4",
          "ticks": 112512,
          "time": 164.8125,
          "velocity": 0.47244094488188976
        },
        {
          "duration": 0.1875,
          "durationTicks": 128,
          "midi": 55,
          "name": "G3",
          "ticks": 112640,
          "time": 165,
          "velocity": 0.41732283464566927
        },
        {
          "duration": 0.1875,
          "durationTicks": 128,
          "midi": 55,
          "name": "G3",
          "ticks": 112768,
          "time": 165.1875,
          "velocity": 0.47244094488188976
        },
        {
          "duration": 0.1875,
          "durationTicks": 128,
          "midi": 62,
          "name": "D4",
          "ticks": 112896,
          "time": 165.375,
          "velocity": 0.5590551181102362
        },
        {
          "duration": 0.1875,
          "durationTicks": 128,
          "midi": 62,
          "name": "D4",
          "ticks": 113024,
          "time": 165.5625,
          "velocity": 0.5039370078740157
        },
        {
          "duration": 0.1875,
          "durationTicks": 128,
          "midi": 55,
          "name": "G3",
          "ticks": 113152,
          "time": 165.75,
          "velocity": 0.4409448818897638
        },
        {
          "duration": 0.1875,
          "durationTicks": 128,
          "midi": 55,
          "name": "G3",
          "ticks": 113280,
          "time": 165.9375,
          "velocity": 0.4881889763779528
        },
        {
          "duration": 0.1875,
          "durationTicks": 128,
          "midi": 62,
          "name": "D4",
          "ticks": 113408,
          "time": 166.125,
          "velocity": 0.5826771653543307
        },
        {
          "duration": 0.1875,
          "durationTicks": 128,
          "midi": 62,
          "name": "D4",
          "ticks": 113536,
          "time": 166.3125,
          "velocity": 0.49606299212598426
        },
        {
          "duration": 0.1875,
          "durationTicks": 128,
          "midi": 57,
          "name": "A3",
          "ticks": 113664,
          "time": 166.5,
          "velocity": 0.47244094488188976
        },
        {
          "duration": 0.1875,
          "durationTicks": 128,
          "midi": 57,
          "name": "A3",
          "ticks": 113792,
          "time": 166.6875,
          "velocity": 0.47244094488188976
        },
        {
          "duration": 0.1875,
          "durationTicks": 128,
          "midi": 63,
          "name": "D#4",
          "ticks": 113920,
          "time": 166.875,
          "velocity": 0.5433070866141733
        },
        {
          "duration": 0.1875,
          "durationTicks": 128,
          "midi": 63,
          "name": "D#4",
          "ticks": 114048,
          "time": 167.0625,
          "velocity": 0.5275590551181102
        },
        {
          "duration": 0.1875,
          "durationTicks": 128,
          "midi": 57,
          "name": "A3",
          "ticks": 114176,
          "time": 167.25,
          "velocity": 0.41732283464566927
        },
        {
          "duration": 0.1875,
          "durationTicks": 128,
          "midi": 57,
          "name": "A3",
          "ticks": 114304,
          "time": 167.4375,
          "velocity": 0.47244094488188976
        },
        {
          "duration": 0.1875,
          "durationTicks": 128,
          "midi": 63,
          "name": "D#4",
          "ticks": 114432,
          "time": 167.625,
          "velocity": 0.5748031496062992
        },
        {
          "duration": 0.1875,
          "durationTicks": 128,
          "midi": 63,
          "name": "D#4",
          "ticks": 114560,
          "time": 167.8125,
          "velocity": 0.5275590551181102
        },
        {
          "duration": 1.5,
          "durationTicks": 1024,
          "midi": 55,
          "name": "G3",
          "ticks": 114688,
          "time": 168,
          "velocity": 0.41732283464566927
        },
        {
          "duration": 0.1875,
          "durationTicks": 128,
          "midi": 55,
          "name": "G3",
          "ticks": 123904,
          "time": 181.5,
          "velocity": 0.4645669291338583
        },
        {
          "duration": 0.1875,
          "durationTicks": 128,
          "midi": 55,
          "name": "G3",
          "ticks": 124032,
          "time": 181.6875,
          "velocity": 0.49606299212598426
        },
        {
          "duration": 0.1875,
          "durationTicks": 128,
          "midi": 62,
          "name": "D4",
          "ticks": 124160,
          "time": 181.875,
          "velocity": 0.5590551181102362
        },
        {
          "duration": 0.1875,
          "durationTicks": 128,
          "midi": 62,
          "name": "D4",
          "ticks": 124288,
          "time": 182.0625,
          "velocity": 0.47244094488188976
        },
        {
          "duration": 0.1875,
          "durationTicks": 128,
          "midi": 55,
          "name": "G3",
          "ticks": 124416,
          "time": 182.25,
          "velocity": 0.4094488188976378
        },
        {
          "duration": 0.1875,
          "durationTicks": 128,
          "midi": 55,
          "name": "G3",
          "ticks": 124544,
          "time": 182.4375,
          "velocity": 0.47244094488188976
        },
        {
          "duration": 0.1875,
          "durationTicks": 128,
          "midi": 62,
          "name": "D4",
          "ticks": 124672,
          "time": 182.625,
          "velocity": 0.5669291338582677
        },
        {
          "duration": 0.1875,
          "durationTicks": 128,
          "midi": 62,
          "name": "D4",
          "ticks": 124800,
          "time": 182.8125,
          "velocity": 0.5039370078740157
        },
        {
          "duration": 0.1875,
          "durationTicks": 128,
          "midi": 55,
          "name": "G3",
          "ticks": 124928,
          "time": 183,
          "velocity": 0.4409448818897638
        },
        {
          "duration": 0.1875,
          "durationTicks": 128,
          "midi": 55,
          "name": "G3",
          "ticks": 125056,
          "time": 183.1875,
          "velocity": 0.4566929133858268
        },
        {
          "duration": 0.1875,
          "durationTicks": 128,
          "midi": 58,
          "name": "A#3",
          "ticks": 125184,
          "time": 183.375,
          "velocity": 0.5039370078740157
        },
        {
          "duration": 0.1875,
          "durationTicks": 128,
          "midi": 58,
          "name": "A#3",
          "ticks": 125312,
          "time": 183.5625,
          "velocity": 0.47244094488188976
        },
        {
          "duration": 0.1875,
          "durationTicks": 128,
          "midi": 55,
          "name": "G3",
          "ticks": 125440,
          "time": 183.75,
          "velocity": 0.4881889763779528
        },
        {
          "duration": 0.1875,
          "durationTicks": 128,
          "midi": 55,
          "name": "G3",
          "ticks": 125568,
          "time": 183.9375,
          "velocity": 0.4881889763779528
        },
        {
          "duration": 0.1875,
          "durationTicks": 128,
          "midi": 58,
          "name": "A#3",
          "ticks": 125696,
          "time": 184.125,
          "velocity": 0.5039370078740157
        },
        {
          "duration": 0.1875,
          "durationTicks": 128,
          "midi": 58,
          "name": "A#3",
          "ticks": 125824,
          "time": 184.3125,
          "velocity": 0.48031496062992124
        },
        {
          "duration": 0.1875,
          "durationTicks": 128,
          "midi": 55,
          "name": "G3",
          "ticks": 125952,
          "time": 184.5,
          "velocity": 0.4409448818897638
        },
        {
          "duration": 0.1875,
          "durationTicks": 128,
          "midi": 55,
          "name": "G3",
          "ticks": 126080,
          "time": 184.6875,
          "velocity": 0.44881889763779526
        },
        {
          "duration": 0.1875,
          "durationTicks": 128,
          "midi": 58,
          "name": "A#3",
          "ticks": 126208,
          "time": 184.875,
          "velocity": 0.5118110236220472
        },
        {
          "duration": 0.1875,
          "durationTicks": 128,
          "midi": 58,
          "name": "A#3",
          "ticks": 126336,
          "time": 185.0625,
          "velocity": 0.4881889763779528
        },
        {
          "duration": 0.1875,
          "durationTicks": 128,
          "midi": 55,
          "name": "G3",
          "ticks": 126464,
          "time": 185.25,
          "velocity": 0.4409448818897638
        },
        {
          "duration": 0.1875,
          "durationTicks": 128,
          "midi": 55,
          "name": "G3",
          "ticks": 126592,
          "time": 185.4375,
          "velocity": 0.4881889763779528
        },
        {
          "duration": 0.1875,
          "durationTicks": 128,
          "midi": 58,
          "name": "A#3",
          "ticks": 126720,
          "time": 185.625,
          "velocity": 0.5039370078740157
        },
        {
          "duration": 0.1875,
          "durationTicks": 128,
          "midi": 58,
          "name": "A#3",
          "ticks": 126848,
          "time": 185.8125,
          "velocity": 0.5039370078740157
        },
        {
          "duration": 0.1875,
          "durationTicks": 128,
          "midi": 55,
          "name": "G3",
          "ticks": 126976,
          "time": 186,
          "velocity": 0.5039370078740157
        },
        {
          "duration": 0.1875,
          "durationTicks": 128,
          "midi": 55,
          "name": "G3",
          "ticks": 127104,
          "time": 186.1875,
          "velocity": 0.47244094488188976
        },
        {
          "duration": 0.1875,
          "durationTicks": 128,
          "midi": 58,
          "name": "A#3",
          "ticks": 127232,
          "time": 186.375,
          "velocity": 0.5196850393700787
        },
        {
          "duration": 0.1875,
          "durationTicks": 128,
          "midi": 58,
          "name": "A#3",
          "ticks": 127360,
          "time": 186.5625,
          "velocity": 0.4881889763779528
        },
        {
          "duration": 0.1875,
          "durationTicks": 128,
          "midi": 55,
          "name": "G3",
          "ticks": 127488,
          "time": 186.75,
          "velocity": 0.4566929133858268
        },
        {
          "duration": 0.1875,
          "durationTicks": 128,
          "midi": 55,
          "name": "G3",
          "ticks": 127616,
          "time": 186.9375,
          "velocity": 0.5039370078740157
        },
        {
          "duration": 0.1875,
          "durationTicks": 128,
          "midi": 58,
          "name": "A#3",
          "ticks": 127744,
          "time": 187.125,
          "velocity": 0.4881889763779528
        },
        {
          "duration": 0.1875,
          "durationTicks": 128,
          "midi": 58,
          "name": "A#3",
          "ticks": 127872,
          "time": 187.3125,
          "velocity": 0.49606299212598426
        },
        {
          "duration": 0.1875,
          "durationTicks": 128,
          "midi": 57,
          "name": "A3",
          "ticks": 128000,
          "time": 187.5,
          "velocity": 0.44881889763779526
        },
        {
          "duration": 0.1875,
          "durationTicks": 128,
          "midi": 57,
          "name": "A3",
          "ticks": 128128,
          "time": 187.6875,
          "velocity": 0.49606299212598426
        },
        {
          "duration": 0.1875,
          "durationTicks": 128,
          "midi": 63,
          "name": "D#4",
          "ticks": 128256,
          "time": 187.875,
          "velocity": 0.5590551181102362
        },
        {
          "duration": 0.1875,
          "durationTicks": 128,
          "midi": 63,
          "name": "D#4",
          "ticks": 128384,
          "time": 188.0625,
          "velocity": 0.49606299212598426
        },
        {
          "duration": 0.1875,
          "durationTicks": 128,
          "midi": 57,
          "name": "A3",
          "ticks": 128512,
          "time": 188.25,
          "velocity": 0.4645669291338583
        },
        {
          "duration": 0.1875,
          "durationTicks": 128,
          "midi": 57,
          "name": "A3",
          "ticks": 128640,
          "time": 188.4375,
          "velocity": 0.5039370078740157
        },
        {
          "duration": 0.1875,
          "durationTicks": 128,
          "midi": 63,
          "name": "D#4",
          "ticks": 128768,
          "time": 188.625,
          "velocity": 0.5984251968503937
        },
        {
          "duration": 0.1875,
          "durationTicks": 128,
          "midi": 63,
          "name": "D#4",
          "ticks": 128896,
          "time": 188.8125,
          "velocity": 0.5118110236220472
        },
        {
          "duration": 0.1875,
          "durationTicks": 128,
          "midi": 60,
          "name": "C4",
          "ticks": 129024,
          "time": 189,
          "velocity": 0.4330708661417323
        },
        {
          "duration": 0.1875,
          "durationTicks": 128,
          "midi": 60,
          "name": "C4",
          "ticks": 129152,
          "time": 189.1875,
          "velocity": 0.48031496062992124
        },
        {
          "duration": 0.1875,
          "durationTicks": 128,
          "midi": 63,
          "name": "D#4",
          "ticks": 129280,
          "time": 189.375,
          "velocity": 0.49606299212598426
        },
        {
          "duration": 0.1875,
          "durationTicks": 128,
          "midi": 63,
          "name": "D#4",
          "ticks": 129408,
          "time": 189.5625,
          "velocity": 0.5196850393700787
        },
        {
          "duration": 0.1875,
          "durationTicks": 128,
          "midi": 57,
          "name": "A3",
          "ticks": 129536,
          "time": 189.75,
          "velocity": 0.4330708661417323
        },
        {
          "duration": 0.1875,
          "durationTicks": 128,
          "midi": 57,
          "name": "A3",
          "ticks": 129664,
          "time": 189.9375,
          "velocity": 0.47244094488188976
        },
        {
          "duration": 0.1875,
          "durationTicks": 128,
          "midi": 60,
          "name": "C4",
          "ticks": 129792,
          "time": 190.125,
          "velocity": 0.5039370078740157
        },
        {
          "duration": 0.1875,
          "durationTicks": 128,
          "midi": 60,
          "name": "C4",
          "ticks": 129920,
          "time": 190.3125,
          "velocity": 0.4881889763779528
        },
        {
          "duration": 0.1875,
          "durationTicks": 128,
          "midi": 62,
          "name": "D4",
          "ticks": 130048,
          "time": 190.5,
          "velocity": 0.8031496062992126
        },
        {
          "duration": 0.1875,
          "durationTicks": 128,
          "midi": 70,
          "name": "A#4",
          "ticks": 130176,
          "time": 190.6875,
          "velocity": 0.905511811023622
        },
        {
          "duration": 0.1875,
          "durationTicks": 128,
          "midi": 74,
          "name": "D5",
          "ticks": 130304,
          "time": 190.875,
          "velocity": 0.8818897637795275
        },
        {
          "duration": 0.1875,
          "durationTicks": 128,
          "midi": 70,
          "name": "A#4",
          "ticks": 130432,
          "time": 191.0625,
          "velocity": 0.7165354330708661
        },
        {
          "duration": 0.1875,
          "durationTicks": 128,
          "midi": 54,
          "name": "F#3",
          "ticks": 208896,
          "time": 306,
          "velocity": 0.41732283464566927
        },
        {
          "duration": 0.1875,
          "durationTicks": 128,
          "midi": 54,
          "name": "F#3",
          "ticks": 209024,
          "time": 306.1875,
          "velocity": 0.47244094488188976
        },
        {
          "duration": 0.1875,
          "durationTicks": 128,
          "midi": 61,
          "name": "C#4",
          "ticks": 209152,
          "time": 306.375,
          "velocity": 0.5669291338582677
        },
        {
          "duration": 0.1875,
          "durationTicks": 128,
          "midi": 61,
          "name": "C#4",
          "ticks": 209280,
          "time": 306.5625,
          "velocity": 0.5196850393700787
        },
        {
          "duration": 0.1875,
          "durationTicks": 128,
          "midi": 54,
          "name": "F#3",
          "ticks": 209408,
          "time": 306.75,
          "velocity": 0.4330708661417323
        },
        {
          "duration": 0.1875,
          "durationTicks": 128,
          "midi": 54,
          "name": "F#3",
          "ticks": 209536,
          "time": 306.9375,
          "velocity": 0.4645669291338583
        },
        {
          "duration": 0.1875,
          "durationTicks": 128,
          "midi": 61,
          "name": "C#4",
          "ticks": 209664,
          "time": 307.125,
          "velocity": 0.5748031496062992
        },
        {
          "duration": 0.1875,
          "durationTicks": 128,
          "midi": 61,
          "name": "C#4",
          "ticks": 209792,
          "time": 307.3125,
          "velocity": 0.49606299212598426
        },
        {
          "duration": 0.1875,
          "durationTicks": 128,
          "midi": 54,
          "name": "F#3",
          "ticks": 209920,
          "time": 307.5,
          "velocity": 0.4251968503937008
        },
        {
          "duration": 0.1875,
          "durationTicks": 128,
          "midi": 54,
          "name": "F#3",
          "ticks": 210048,
          "time": 307.6875,
          "velocity": 0.47244094488188976
        },
        {
          "duration": 0.1875,
          "durationTicks": 128,
          "midi": 57,
          "name": "A3",
          "ticks": 210176,
          "time": 307.875,
          "velocity": 0.5275590551181102
        },
        {
          "duration": 0.1875,
          "durationTicks": 128,
          "midi": 57,
          "name": "A3",
          "ticks": 210304,
          "time": 308.0625,
          "velocity": 0.4566929133858268
        },
        {
          "duration": 0.1875,
          "durationTicks": 128,
          "midi": 54,
          "name": "F#3",
          "ticks": 210432,
          "time": 308.25,
          "velocity": 0.4330708661417323
        },
        {
          "duration": 0.1875,
          "durationTicks": 128,
          "midi": 54,
          "name": "F#3",
          "ticks": 210560,
          "time": 308.4375,
          "velocity": 0.49606299212598426
        },
        {
          "duration": 0.1875,
          "durationTicks": 128,
          "midi": 57,
          "name": "A3",
          "ticks": 210688,
          "time": 308.625,
          "velocity": 0.48031496062992124
        },
        {
          "duration": 0.1875,
          "durationTicks": 128,
          "midi": 57,
          "name": "A3",
          "ticks": 210816,
          "time": 308.8125,
          "velocity": 0.5196850393700787
        },
        {
          "duration": 0.1875,
          "durationTicks": 128,
          "midi": 56,
          "name": "G#3",
          "ticks": 210944,
          "time": 309,
          "velocity": 0.4645669291338583
        },
        {
          "duration": 0.1875,
          "durationTicks": 128,
          "midi": 56,
          "name": "G#3",
          "ticks": 211072,
          "time": 309.1875,
          "velocity": 0.48031496062992124
        },
        {
          "duration": 0.1875,
          "durationTicks": 128,
          "midi": 63,
          "name": "D#4",
          "ticks": 211200,
          "time": 309.375,
          "velocity": 0.5905511811023622
        },
        {
          "duration": 0.1875,
          "durationTicks": 128,
          "midi": 63,
          "name": "D#4",
          "ticks": 211328,
          "time": 309.5625,
          "velocity": 0.4881889763779528
        },
        {
          "duration": 0.1875,
          "durationTicks": 128,
          "midi": 56,
          "name": "G#3",
          "ticks": 211456,
          "time": 309.75,
          "velocity": 0.4330708661417323
        },
        {
          "duration": 0.1875,
          "durationTicks": 128,
          "midi": 56,
          "name": "G#3",
          "ticks": 211584,
          "time": 309.9375,
          "velocity": 0.4645669291338583
        },
        {
          "duration": 0.1875,
          "durationTicks": 128,
          "midi": 63,
          "name": "D#4",
          "ticks": 211712,
          "time": 310.125,
          "velocity": 0.5511811023622047
        },
        {
          "duration": 0.1875,
          "durationTicks": 128,
          "midi": 63,
          "name": "D#4",
          "ticks": 211840,
          "time": 310.3125,
          "velocity": 0.4881889763779528
        },
        {
          "duration": 0.1875,
          "durationTicks": 128,
          "midi": 56,
          "name": "G#3",
          "ticks": 211968,
          "time": 310.5,
          "velocity": 0.44881889763779526
        },
        {
          "duration": 0.1875,
          "durationTicks": 128,
          "midi": 56,
          "name": "G#3",
          "ticks": 212096,
          "time": 310.6875,
          "velocity": 0.48031496062992124
        },
        {
          "duration": 0.1875,
          "durationTicks": 128,
          "midi": 62,
          "name": "D4",
          "ticks": 212224,
          "time": 310.875,
          "velocity": 0.5748031496062992
        },
        {
          "duration": 0.1875,
          "durationTicks": 128,
          "midi": 62,
          "name": "D4",
          "ticks": 212352,
          "time": 311.0625,
          "velocity": 0.5039370078740157
        },
        {
          "duration": 0.1875,
          "durationTicks": 128,
          "midi": 56,
          "name": "G#3",
          "ticks": 212480,
          "time": 311.25,
          "velocity": 0.4566929133858268
        },
        {
          "duration": 0.1875,
          "durationTicks": 128,
          "midi": 56,
          "name": "G#3",
          "ticks": 212608,
          "time": 311.4375,
          "velocity": 0.4645669291338583
        },
        {
          "duration": 0.1875,
          "durationTicks": 128,
          "midi": 62,
          "name": "D4",
          "ticks": 212736,
          "time": 311.625,
          "velocity": 0.5433070866141733
        },
        {
          "duration": 0.1875,
          "durationTicks": 128,
          "midi": 62,
          "name": "D4",
          "ticks": 212864,
          "time": 311.8125,
          "velocity": 0.47244094488188976
        },
        {
          "duration": 0.1875,
          "durationTicks": 128,
          "midi": 56,
          "name": "G#3",
          "ticks": 212992,
          "time": 312,
          "velocity": 0.41732283464566927
        },
        {
          "duration": 0.1875,
          "durationTicks": 128,
          "midi": 56,
          "name": "G#3",
          "ticks": 213120,
          "time": 312.1875,
          "velocity": 0.4645669291338583
        },
        {
          "duration": 0.1875,
          "durationTicks": 128,
          "midi": 61,
          "name": "C#4",
          "ticks": 213248,
          "time": 312.375,
          "velocity": 0.5511811023622047
        },
        {
          "duration": 0.1875,
          "durationTicks": 128,
          "midi": 61,
          "name": "C#4",
          "ticks": 213376,
          "time": 312.5625,
          "velocity": 0.49606299212598426
        },
        {
          "duration": 0.1875,
          "durationTicks": 128,
          "midi": 56,
          "name": "G#3",
          "ticks": 213504,
          "time": 312.75,
          "velocity": 0.44881889763779526
        },
        {
          "duration": 0.1875,
          "durationTicks": 128,
          "midi": 56,
          "name": "G#3",
          "ticks": 213632,
          "time": 312.9375,
          "velocity": 0.4566929133858268
        },
        {
          "duration": 0.1875,
          "durationTicks": 128,
          "midi": 61,
          "name": "C#4",
          "ticks": 213760,
          "time": 313.125,
          "velocity": 0.5039370078740157
        },
        {
          "duration": 0.1875,
          "durationTicks": 128,
          "midi": 61,
          "name": "C#4",
          "ticks": 213888,
          "time": 313.3125,
          "velocity": 0.4881889763779528
        },
        {
          "duration": 0.1875,
          "durationTicks": 128,
          "midi": 56,
          "name": "G#3",
          "ticks": 214016,
          "time": 313.5,
          "velocity": 0.44881889763779526
        },
        {
          "duration": 0.1875,
          "durationTicks": 128,
          "midi": 56,
          "name": "G#3",
          "ticks": 214144,
          "time": 313.6875,
          "velocity": 0.4881889763779528
        },
        {
          "duration": 0.1875,
          "durationTicks": 128,
          "midi": 61,
          "name": "C#4",
          "ticks": 214272,
          "time": 313.875,
          "velocity": 0.5590551181102362
        },
        {
          "duration": 0.1875,
          "durationTicks": 128,
          "midi": 61,
          "name": "C#4",
          "ticks": 214400,
          "time": 314.0625,
          "velocity": 0.49606299212598426
        },
        {
          "duration": 0.1875,
          "durationTicks": 128,
          "midi": 56,
          "name": "G#3",
          "ticks": 214528,
          "time": 314.25,
          "velocity": 0.49606299212598426
        },
        {
          "duration": 0.1875,
          "durationTicks": 128,
          "midi": 56,
          "name": "G#3",
          "ticks": 214656,
          "time": 314.4375,
          "velocity": 0.49606299212598426
        },
        {
          "duration": 0.1875,
          "durationTicks": 128,
          "midi": 61,
          "name": "C#4",
          "ticks": 214784,
          "time": 314.625,
          "velocity": 0.5511811023622047
        },
        {
          "duration": 0.1875,
          "durationTicks": 128,
          "midi": 61,
          "name": "C#4",
          "ticks": 214912,
          "time": 314.8125,
          "velocity": 0.48031496062992124
        },
        {
          "duration": 0.1875,
          "durationTicks": 128,
          "midi": 55,
          "name": "G3",
          "ticks": 215040,
          "time": 315,
          "velocity": 0.44881889763779526
        },
        {
          "duration": 0.1875,
          "durationTicks": 128,
          "midi": 55,
          "name": "G3",
          "ticks": 215168,
          "time": 315.1875,
          "velocity": 0.4881889763779528
        },
        {
          "duration": 0.1875,
          "durationTicks": 128,
          "midi": 61,
          "name": "C#4",
          "ticks": 215296,
          "time": 315.375,
          "velocity": 0.5590551181102362
        },
        {
          "duration": 0.1875,
          "durationTicks": 128,
          "midi": 61,
          "name": "C#4",
          "ticks": 215424,
          "time": 315.5625,
          "velocity": 0.5118110236220472
        },
        {
          "duration": 0.1875,
          "durationTicks": 128,
          "midi": 55,
          "name": "G3",
          "ticks": 215552,
          "time": 315.75,
          "velocity": 0.4409448818897638
        },
        {
          "duration": 0.1875,
          "durationTicks": 128,
          "midi": 55,
          "name": "G3",
          "ticks": 215680,
          "time": 315.9375,
          "velocity": 0.47244094488188976
        },
        {
          "duration": 0.1875,
          "durationTicks": 128,
          "midi": 61,
          "name": "C#4",
          "ticks": 215808,
          "time": 316.125,
          "velocity": 0.5433070866141733
        },
        {
          "duration": 0.1875,
          "durationTicks": 128,
          "midi": 61,
          "name": "C#4",
          "ticks": 215936,
          "time": 316.3125,
          "velocity": 0.5118110236220472
        },
        {
          "duration": 0.1875,
          "durationTicks": 128,
          "midi": 54,
          "name": "F#3",
          "ticks": 216064,
          "time": 316.5,
          "velocity": 0.4094488188976378
        },
        {
          "duration": 0.1875,
          "durationTicks": 128,
          "midi": 54,
          "name": "F#3",
          "ticks": 216192,
          "time": 316.6875,
          "velocity": 0.4645669291338583
        },
        {
          "duration": 0.1875,
          "durationTicks": 128,
          "midi": 60,
          "name": "C4",
          "ticks": 216320,
          "time": 316.875,
          "velocity": 0.5590551181102362
        },
        {
          "duration": 0.1875,
          "durationTicks": 128,
          "midi": 60,
          "name": "C4",
          "ticks": 216448,
          "time": 317.0625,
          "velocity": 0.48031496062992124
        },
        {
          "duration": 0.1875,
          "durationTicks": 128,
          "midi": 54,
          "name": "F#3",
          "ticks": 216576,
          "time": 317.25,
          "velocity": 0.4645669291338583
        },
        {
          "duration": 0.1875,
          "durationTicks": 128,
          "midi": 54,
          "name": "F#3",
          "ticks": 216704,
          "time": 317.4375,
          "velocity": 0.4645669291338583
        },
        {
          "duration": 0.1875,
          "durationTicks": 128,
          "midi": 60,
          "name": "C4",
          "ticks": 216832,
          "time": 317.625,
          "velocity": 0.5748031496062992
        },
        {
          "duration": 0.1875,
          "durationTicks": 128,
          "midi": 60,
          "name": "C4",
          "ticks": 216960,
          "time": 317.8125,
          "velocity": 0.49606299212598426
        },
        {
          "duration": 0.1875,
          "durationTicks": 128,
          "midi": 54,
          "name": "F#3",
          "ticks": 217088,
          "time": 318,
          "velocity": 0.44881889763779526
        },
        {
          "duration": 0.1875,
          "durationTicks": 128,
          "midi": 54,
          "name": "F#3",
          "ticks": 217216,
          "time": 318.1875,
          "velocity": 0.4881889763779528
        },
        {
          "duration": 0.1875,
          "durationTicks": 128,
          "midi": 59,
          "name": "B3",
          "ticks": 217344,
          "time": 318.375,
          "velocity": 0.4881889763779528
        },
        {
          "duration": 0.1875,
          "durationTicks": 128,
          "midi": 59,
          "name": "B3",
          "ticks": 217472,
          "time": 318.5625,
          "velocity": 0.48031496062992124
        },
        {
          "duration": 0.1875,
          "durationTicks": 128,
          "midi": 54,
          "name": "F#3",
          "ticks": 217600,
          "time": 318.75,
          "velocity": 0.4566929133858268
        },
        {
          "duration": 0.1875,
          "durationTicks": 128,
          "midi": 54,
          "name": "F#3",
          "ticks": 217728,
          "time": 318.9375,
          "velocity": 0.47244094488188976
        },
        {
          "duration": 0.1875,
          "durationTicks": 128,
          "midi": 59,
          "name": "B3",
          "ticks": 217856,
          "time": 319.125,
          "velocity": 0.5590551181102362
        },
        {
          "duration": 0.1875,
          "durationTicks": 128,
          "midi": 59,
          "name": "B3",
          "ticks": 217984,
          "time": 319.3125,
          "velocity": 0.47244094488188976
        },
        {
          "duration": 0.1875,
          "durationTicks": 128,
          "midi": 54,
          "name": "F#3",
          "ticks": 218112,
          "time": 319.5,
          "velocity": 0.4251968503937008
        },
        {
          "duration": 0.1875,
          "durationTicks": 128,
          "midi": 54,
          "name": "F#3",
          "ticks": 218240,
          "time": 319.6875,
          "velocity": 0.4881889763779528
        },
        {
          "duration": 0.1875,
          "durationTicks": 128,
          "midi": 57,
          "name": "A3",
          "ticks": 218368,
          "time": 319.875,
          "velocity": 0.49606299212598426
        },
        {
          "duration": 0.1875,
          "durationTicks": 128,
          "midi": 57,
          "name": "A3",
          "ticks": 218496,
          "time": 320.0625,
          "velocity": 0.47244094488188976
        },
        {
          "duration": 0.375,
          "durationTicks": 256,
          "midi": 54,
          "name": "F#3",
          "ticks": 218624,
          "time": 320.25,
          "velocity": 0.4566929133858268
        },
        {
          "duration": 0.1875,
          "durationTicks": 128,
          "midi": 55,
          "name": "G3",
          "ticks": 271360,
          "time": 397.5,
          "velocity": 0.4094488188976378
        },
        {
          "duration": 0.1875,
          "durationTicks": 128,
          "midi": 55,
          "name": "G3",
          "ticks": 271488,
          "time": 397.6875,
          "velocity": 0.5039370078740157
        },
        {
          "duration": 0.1875,
          "durationTicks": 128,
          "midi": 62,
          "name": "D4",
          "ticks": 271616,
          "time": 397.875,
          "velocity": 0.5590551181102362
        },
        {
          "duration": 0.1875,
          "durationTicks": 128,
          "midi": 62,
          "name": "D4",
          "ticks": 271744,
          "time": 398.0625,
          "velocity": 0.5275590551181102
        },
        {
          "duration": 0.1875,
          "durationTicks": 128,
          "midi": 55,
          "name": "G3",
          "ticks": 271872,
          "time": 398.25,
          "velocity": 0.4645669291338583
        },
        {
          "duration": 0.1875,
          "durationTicks": 128,
          "midi": 55,
          "name": "G3",
          "ticks": 272000,
          "time": 398.4375,
          "velocity": 0.48031496062992124
        },
        {
          "duration": 0.1875,
          "durationTicks": 128,
          "midi": 62,
          "name": "D4",
          "ticks": 272128,
          "time": 398.625,
          "velocity": 0.5511811023622047
        },
        {
          "duration": 0.1875,
          "durationTicks": 128,
          "midi": 62,
          "name": "D4",
          "ticks": 272256,
          "time": 398.8125,
          "velocity": 0.5433070866141733
        },
        {
          "duration": 0.1875,
          "durationTicks": 128,
          "midi": 55,
          "name": "G3",
          "ticks": 272384,
          "time": 399,
          "velocity": 0.4566929133858268
        },
        {
          "duration": 0.1875,
          "durationTicks": 128,
          "midi": 55,
          "name": "G3",
          "ticks": 272512,
          "time": 399.1875,
          "velocity": 0.48031496062992124
        },
        {
          "duration": 0.1875,
          "durationTicks": 128,
          "midi": 58,
          "name": "A#3",
          "ticks": 272640,
          "time": 399.375,
          "velocity": 0.49606299212598426
        },
        {
          "duration": 0.1875,
          "durationTicks": 128,
          "midi": 58,
          "name": "A#3",
          "ticks": 272768,
          "time": 399.5625,
          "velocity": 0.5039370078740157
        },
        {
          "duration": 0.1875,
          "durationTicks": 128,
          "midi": 55,
          "name": "G3",
          "ticks": 272896,
          "time": 399.75,
          "velocity": 0.4881889763779528
        },
        {
          "duration": 0.1875,
          "durationTicks": 128,
          "midi": 55,
          "name": "G3",
          "ticks": 273024,
          "time": 399.9375,
          "velocity": 0.48031496062992124
        },
        {
          "duration": 0.1875,
          "durationTicks": 128,
          "midi": 58,
          "name": "A#3",
          "ticks": 273152,
          "time": 400.125,
          "velocity": 0.49606299212598426
        },
        {
          "duration": 0.1875,
          "durationTicks": 128,
          "midi": 58,
          "name": "A#3",
          "ticks": 273280,
          "time": 400.3125,
          "velocity": 0.47244094488188976
        },
        {
          "duration": 0.1875,
          "durationTicks": 128,
          "midi": 57,
          "name": "A3",
          "ticks": 273408,
          "time": 400.5,
          "velocity": 0.4881889763779528
        },
        {
          "duration": 0.1875,
          "durationTicks": 128,
          "midi": 57,
          "name": "A3",
          "ticks": 273536,
          "time": 400.6875,
          "velocity": 0.44881889763779526
        },
        {
          "duration": 0.1875,
          "durationTicks": 128,
          "midi": 63,
          "name": "D#4",
          "ticks": 273664,
          "time": 400.875,
          "velocity": 0.5511811023622047
        },
        {
          "duration": 0.1875,
          "durationTicks": 128,
          "midi": 63,
          "name": "D#4",
          "ticks": 273792,
          "time": 401.0625,
          "velocity": 0.49606299212598426
        },
        {
          "duration": 0.1875,
          "durationTicks": 128,
          "midi": 57,
          "name": "A3",
          "ticks": 273920,
          "time": 401.25,
          "velocity": 0.41732283464566927
        },
        {
          "duration": 0.1875,
          "durationTicks": 128,
          "midi": 57,
          "name": "A3",
          "ticks": 274048,
          "time": 401.4375,
          "velocity": 0.48031496062992124
        },
        {
          "duration": 0.1875,
          "durationTicks": 128,
          "midi": 63,
          "name": "D#4",
          "ticks": 274176,
          "time": 401.625,
          "velocity": 0.5669291338582677
        },
        {
          "duration": 0.1875,
          "durationTicks": 128,
          "midi": 63,
          "name": "D#4",
          "ticks": 274304,
          "time": 401.8125,
          "velocity": 0.48031496062992124
        },
        {
          "duration": 0.1875,
          "durationTicks": 128,
          "midi": 57,
          "name": "A3",
          "ticks": 274432,
          "time": 402,
          "velocity": 0.44881889763779526
        },
        {
          "duration": 0.1875,
          "durationTicks": 128,
          "midi": 57,
          "name": "A3",
          "ticks": 274560,
          "time": 402.1875,
          "velocity": 0.4566929133858268
        },
        {
          "duration": 0.1875,
          "durationTicks": 128,
          "midi": 63,
          "name": "D#4",
          "ticks": 274688,
          "time": 402.375,
          "velocity": 0.5669291338582677
        },
        {
          "duration": 0.1875,
          "durationTicks": 128,
          "midi": 63,
          "name": "D#4",
          "ticks": 274816,
          "time": 402.5625,
          "velocity": 0.48031496062992124
        },
        {
          "duration": 0.1875,
          "durationTicks": 128,
          "midi": 57,
          "name": "A3",
          "ticks": 274944,
          "time": 402.75,
          "velocity": 0.4566929133858268
        },
        {
          "duration": 0.1875,
          "durationTicks": 128,
          "midi": 57,
          "name": "A3",
          "ticks": 275072,
          "time": 402.9375,
          "velocity": 0.4645669291338583
        },
        {
          "duration": 0.1875,
          "durationTicks": 128,
          "midi": 63,
          "name": "D#4",
          "ticks": 275200,
          "time": 403.125,
          "velocity": 0.5590551181102362
        },
        {
          "duration": 0.1875,
          "durationTicks": 128,
          "midi": 63,
          "name": "D#4",
          "ticks": 275328,
          "time": 403.3125,
          "velocity": 0.47244094488188976
        },
        {
          "duration": 0.1875,
          "durationTicks": 128,
          "midi": 57,
          "name": "A3",
          "ticks": 275456,
          "time": 403.5,
          "velocity": 0.4094488188976378
        },
        {
          "duration": 0.1875,
          "durationTicks": 128,
          "midi": 57,
          "name": "A3",
          "ticks": 275584,
          "time": 403.6875,
          "velocity": 0.48031496062992124
        },
        {
          "duration": 0.1875,
          "durationTicks": 128,
          "midi": 62,
          "name": "D4",
          "ticks": 275712,
          "time": 403.875,
          "velocity": 0.5275590551181102
        },
        {
          "duration": 0.1875,
          "durationTicks": 128,
          "midi": 62,
          "name": "D4",
          "ticks": 275840,
          "time": 404.0625,
          "velocity": 0.47244094488188976
        },
        {
          "duration": 0.1875,
          "durationTicks": 128,
          "midi": 57,
          "name": "A3",
          "ticks": 275968,
          "time": 404.25,
          "velocity": 0.44881889763779526
        },
        {
          "duration": 0.1875,
          "durationTicks": 128,
          "midi": 57,
          "name": "A3",
          "ticks": 276096,
          "time": 404.4375,
          "velocity": 0.47244094488188976
        },
        {
          "duration": 0.1875,
          "durationTicks": 128,
          "midi": 62,
          "name": "D4",
          "ticks": 276224,
          "time": 404.625,
          "velocity": 0.5669291338582677
        },
        {
          "duration": 0.1875,
          "durationTicks": 128,
          "midi": 62,
          "name": "D4",
          "ticks": 276352,
          "time": 404.8125,
          "velocity": 0.47244094488188976
        },
        {
          "duration": 0.1875,
          "durationTicks": 128,
          "midi": 57,
          "name": "A3",
          "ticks": 276480,
          "time": 405,
          "velocity": 0.4645669291338583
        },
        {
          "duration": 0.1875,
          "durationTicks": 128,
          "midi": 57,
          "name": "A3",
          "ticks": 276608,
          "time": 405.1875,
          "velocity": 0.4566929133858268
        },
        {
          "duration": 0.1875,
          "durationTicks": 128,
          "midi": 60,
          "name": "C4",
          "ticks": 276736,
          "time": 405.375,
          "velocity": 0.49606299212598426
        },
        {
          "duration": 0.1875,
          "durationTicks": 128,
          "midi": 60,
          "name": "C4",
          "ticks": 276864,
          "time": 405.5625,
          "velocity": 0.4881889763779528
        },
        {
          "duration": 0.1875,
          "durationTicks": 128,
          "midi": 57,
          "name": "A3",
          "ticks": 276992,
          "time": 405.75,
          "velocity": 0.4881889763779528
        },
        {
          "duration": 0.1875,
          "durationTicks": 128,
          "midi": 57,
          "name": "A3",
          "ticks": 277120,
          "time": 405.9375,
          "velocity": 0.4881889763779528
        },
        {
          "duration": 0.1875,
          "durationTicks": 128,
          "midi": 66,
          "name": "F#4",
          "ticks": 277248,
          "time": 406.125,
          "velocity": 0.5905511811023622
        },
        {
          "duration": 0.1875,
          "durationTicks": 128,
          "midi": 66,
          "name": "F#4",
          "ticks": 277376,
          "time": 406.3125,
          "velocity": 0.5196850393700787
        },
        {
          "duration": 0.1875,
          "durationTicks": 128,
          "midi": 55,
          "name": "G3",
          "ticks": 277504,
          "time": 406.5,
          "velocity": 0.4409448818897638
        },
        {
          "duration": 0.1875,
          "durationTicks": 128,
          "midi": 55,
          "name": "G3",
          "ticks": 277632,
          "time": 406.6875,
          "velocity": 0.4645669291338583
        },
        {
          "duration": 0.1875,
          "durationTicks": 128,
          "midi": 62,
          "name": "D4",
          "ticks": 277760,
          "time": 406.875,
          "velocity": 0.5669291338582677
        },
        {
          "duration": 0.1875,
          "durationTicks": 128,
          "midi": 62,
          "name": "D4",
          "ticks": 277888,
          "time": 407.0625,
          "velocity": 0.5196850393700787
        },
        {
          "duration": 0.1875,
          "durationTicks": 128,
          "midi": 55,
          "name": "G3",
          "ticks": 278016,
          "time": 407.25,
          "velocity": 0.4330708661417323
        },
        {
          "duration": 0.1875,
          "durationTicks": 128,
          "midi": 55,
          "name": "G3",
          "ticks": 278144,
          "time": 407.4375,
          "velocity": 0.5039370078740157
        },
        {
          "duration": 0.1875,
          "durationTicks": 128,
          "midi": 62,
          "name": "D4",
          "ticks": 278272,
          "time": 407.625,
          "velocity": 0.5590551181102362
        },
        {
          "duration": 0.1875,
          "durationTicks": 128,
          "midi": 62,
          "name": "D4",
          "ticks": 278400,
          "time": 407.8125,
          "velocity": 0.4881889763779528
        },
        {
          "duration": 0.1875,
          "durationTicks": 128,
          "midi": 57,
          "name": "A3",
          "ticks": 278528,
          "time": 408,
          "velocity": 0.4409448818897638
        },
        {
          "duration": 0.1875,
          "durationTicks": 128,
          "midi": 57,
          "name": "A3",
          "ticks": 278656,
          "time": 408.1875,
          "velocity": 0.48031496062992124
        },
        {
          "duration": 0.1875,
          "durationTicks": 128,
          "midi": 63,
          "name": "D#4",
          "ticks": 278784,
          "time": 408.375,
          "velocity": 0.5669291338582677
        },
        {
          "duration": 0.1875,
          "durationTicks": 128,
          "midi": 63,
          "name": "D#4",
          "ticks": 278912,
          "time": 408.5625,
          "velocity": 0.5196850393700787
        },
        {
          "duration": 0.1875,
          "durationTicks": 128,
          "midi": 57,
          "name": "A3",
          "ticks": 279040,
          "time": 408.75,
          "velocity": 0.4330708661417323
        },
        {
          "duration": 0.1875,
          "durationTicks": 128,
          "midi": 57,
          "name": "A3",
          "ticks": 279168,
          "time": 408.9375,
          "velocity": 0.48031496062992124
        },
        {
          "duration": 0.1875,
          "durationTicks": 128,
          "midi": 63,
          "name": "D#4",
          "ticks": 279296,
          "time": 409.125,
          "velocity": 0.5669291338582677
        },
        {
          "duration": 0.1875,
          "durationTicks": 128,
          "midi": 63,
          "name": "D#4",
          "ticks": 279424,
          "time": 409.3125,
          "velocity": 0.49606299212598426
        },
        {
          "duration": 0.1875,
          "durationTicks": 128,
          "midi": 55,
          "name": "G3",
          "ticks": 279552,
          "time": 409.5,
          "velocity": 0.4330708661417323
        },
        {
          "duration": 0.1875,
          "durationTicks": 128,
          "midi": 55,
          "name": "G3",
          "ticks": 279680,
          "time": 409.6875,
          "velocity": 0.4566929133858268
        },
        {
          "duration": 0.1875,
          "durationTicks": 128,
          "midi": 62,
          "name": "D4",
          "ticks": 279808,
          "time": 409.875,
          "velocity": 0.5826771653543307
        },
        {
          "duration": 0.1875,
          "durationTicks": 128,
          "midi": 62,
          "name": "D4",
          "ticks": 279936,
          "time": 410.0625,
          "velocity": 0.5196850393700787
        },
        {
          "duration": 0.1875,
          "durationTicks": 128,
          "midi": 55,
          "name": "G3",
          "ticks": 280064,
          "time": 410.25,
          "velocity": 0.48031496062992124
        },
        {
          "duration": 0.1875,
          "durationTicks": 128,
          "midi": 55,
          "name": "G3",
          "ticks": 280192,
          "time": 410.4375,
          "velocity": 0.44881889763779526
        },
        {
          "duration": 0.1875,
          "durationTicks": 128,
          "midi": 62,
          "name": "D4",
          "ticks": 280320,
          "time": 410.625,
          "velocity": 0.5433070866141733
        },
        {
          "duration": 0.1875,
          "durationTicks": 128,
          "midi": 62,
          "name": "D4",
          "ticks": 280448,
          "time": 410.8125,
          "velocity": 0.5275590551181102
        },
        {
          "duration": 0.1875,
          "durationTicks": 128,
          "midi": 57,
          "name": "A3",
          "ticks": 280576,
          "time": 411,
          "velocity": 0.4409448818897638
        },
        {
          "duration": 0.1875,
          "durationTicks": 128,
          "midi": 57,
          "name": "A3",
          "ticks": 280704,
          "time": 411.1875,
          "velocity": 0.4645669291338583
        },
        {
          "duration": 0.1875,
          "durationTicks": 128,
          "midi": 63,
          "name": "D#4",
          "ticks": 280832,
          "time": 411.375,
          "velocity": 0.5354330708661418
        },
        {
          "duration": 0.1875,
          "durationTicks": 128,
          "midi": 63,
          "name": "D#4",
          "ticks": 280960,
          "time": 411.5625,
          "velocity": 0.4645669291338583
        },
        {
          "duration": 0.1875,
          "durationTicks": 128,
          "midi": 57,
          "name": "A3",
          "ticks": 281088,
          "time": 411.75,
          "velocity": 0.4881889763779528
        },
        {
          "duration": 0.1875,
          "durationTicks": 128,
          "midi": 57,
          "name": "A3",
          "ticks": 281216,
          "time": 411.9375,
          "velocity": 0.48031496062992124
        },
        {
          "duration": 0.1875,
          "durationTicks": 128,
          "midi": 63,
          "name": "D#4",
          "ticks": 281344,
          "time": 412.125,
          "velocity": 0.49606299212598426
        },
        {
          "duration": 0.1875,
          "durationTicks": 128,
          "midi": 63,
          "name": "D#4",
          "ticks": 281472,
          "time": 412.3125,
          "velocity": 0.48031496062992124
        },
        {
          "duration": 1.5,
          "durationTicks": 1024,
          "midi": 55,
          "name": "G3",
          "ticks": 281600,
          "time": 412.5,
          "velocity": 0.4251968503937008
        },
        {
          "duration": 0.1875,
          "durationTicks": 128,
          "midi": 55,
          "name": "G3",
          "ticks": 290816,
          "time": 426,
          "velocity": 0.49606299212598426
        },
        {
          "duration": 0.1875,
          "durationTicks": 128,
          "midi": 55,
          "name": "G3",
          "ticks": 290944,
          "time": 426.1875,
          "velocity": 0.47244094488188976
        },
        {
          "duration": 0.1875,
          "durationTicks": 128,
          "midi": 62,
          "name": "D4",
          "ticks": 291072,
          "time": 426.375,
          "velocity": 0.5511811023622047
        },
        {
          "duration": 0.1875,
          "durationTicks": 128,
          "midi": 62,
          "name": "D4",
          "ticks": 291200,
          "time": 426.5625,
          "velocity": 0.5275590551181102
        },
        {
          "duration": 0.1875,
          "durationTicks": 128,
          "midi": 55,
          "name": "G3",
          "ticks": 291328,
          "time": 426.75,
          "velocity": 0.4251968503937008
        },
        {
          "duration": 0.1875,
          "durationTicks": 128,
          "midi": 55,
          "name": "G3",
          "ticks": 291456,
          "time": 426.9375,
          "velocity": 0.48031496062992124
        },
        {
          "duration": 0.1875,
          "durationTicks": 128,
          "midi": 62,
          "name": "D4",
          "ticks": 291584,
          "time": 427.125,
          "velocity": 0.5590551181102362
        },
        {
          "duration": 0.1875,
          "durationTicks": 128,
          "midi": 62,
          "name": "D4",
          "ticks": 291712,
          "time": 427.3125,
          "velocity": 0.48031496062992124
        },
        {
          "duration": 0.1875,
          "durationTicks": 128,
          "midi": 58,
          "name": "A#3",
          "ticks": 291840,
          "time": 427.5,
          "velocity": 0.48031496062992124
        },
        {
          "duration": 0.1875,
          "durationTicks": 128,
          "midi": 58,
          "name": "A#3",
          "ticks": 291968,
          "time": 427.6875,
          "velocity": 0.4566929133858268
        },
        {
          "duration": 0.1875,
          "durationTicks": 128,
          "midi": 63,
          "name": "D#4",
          "ticks": 292096,
          "time": 427.875,
          "velocity": 0.5039370078740157
        },
        {
          "duration": 0.1875,
          "durationTicks": 128,
          "midi": 63,
          "name": "D#4",
          "ticks": 292224,
          "time": 428.0625,
          "velocity": 0.47244094488188976
        },
        {
          "duration": 0.1875,
          "durationTicks": 128,
          "midi": 58,
          "name": "A#3",
          "ticks": 292352,
          "time": 428.25,
          "velocity": 0.4566929133858268
        },
        {
          "duration": 0.1875,
          "durationTicks": 128,
          "midi": 58,
          "name": "A#3",
          "ticks": 292480,
          "time": 428.4375,
          "velocity": 0.4645669291338583
        },
        {
          "duration": 0.1875,
          "durationTicks": 128,
          "midi": 67,
          "name": "G4",
          "ticks": 292608,
          "time": 428.625,
          "velocity": 0.5590551181102362
        },
        {
          "duration": 0.1875,
          "durationTicks": 128,
          "midi": 67,
          "name": "G4",
          "ticks": 292736,
          "time": 428.8125,
          "velocity": 0.5354330708661418
        },
        {
          "duration": 0.1875,
          "durationTicks": 128,
          "midi": 56,
          "name": "G#3",
          "ticks": 292864,
          "time": 429,
          "velocity": 0.4409448818897638
        },
        {
          "duration": 0.1875,
          "durationTicks": 128,
          "midi": 56,
          "name": "G#3",
          "ticks": 292992,
          "time": 429.1875,
          "velocity": 0.5118110236220472
        },
        {
          "duration": 0.1875,
          "durationTicks": 128,
          "midi": 58,
          "name": "A#3",
          "ticks": 293120,
          "time": 429.375,
          "velocity": 0.4645669291338583
        },
        {
          "duration": 0.1875,
          "durationTicks": 128,
          "midi": 58,
          "name": "A#3",
          "ticks": 293248,
          "time": 429.5625,
          "velocity": 0.44881889763779526
        },
        {
          "duration": 0.1875,
          "durationTicks": 128,
          "midi": 56,
          "name": "G#3",
          "ticks": 293376,
          "time": 429.75,
          "velocity": 0.44881889763779526
        },
        {
          "duration": 0.1875,
          "durationTicks": 128,
          "midi": 56,
          "name": "G#3",
          "ticks": 293504,
          "time": 429.9375,
          "velocity": 0.47244094488188976
        },
        {
          "duration": 0.1875,
          "durationTicks": 128,
          "midi": 58,
          "name": "A#3",
          "ticks": 293632,
          "time": 430.125,
          "velocity": 0.47244094488188976
        },
        {
          "duration": 0.1875,
          "durationTicks": 128,
          "midi": 58,
          "name": "A#3",
          "ticks": 293760,
          "time": 430.3125,
          "velocity": 0.48031496062992124
        },
        {
          "duration": 0.1875,
          "durationTicks": 128,
          "midi": 53,
          "name": "F3",
          "ticks": 293888,
          "time": 430.5,
          "velocity": 0.4566929133858268
        },
        {
          "duration": 0.1875,
          "durationTicks": 128,
          "midi": 53,
          "name": "F3",
          "ticks": 294016,
          "time": 430.6875,
          "velocity": 0.5118110236220472
        },
        {
          "duration": 0.1875,
          "durationTicks": 128,
          "midi": 59,
          "name": "B3",
          "ticks": 294144,
          "time": 430.875,
          "velocity": 0.5433070866141733
        },
        {
          "duration": 0.1875,
          "durationTicks": 128,
          "midi": 59,
          "name": "B3",
          "ticks": 294272,
          "time": 431.0625,
          "velocity": 0.4881889763779528
        },
        {
          "duration": 0.1875,
          "durationTicks": 128,
          "midi": 53,
          "name": "F3",
          "ticks": 294400,
          "time": 431.25,
          "velocity": 0.4330708661417323
        },
        {
          "duration": 0.1875,
          "durationTicks": 128,
          "midi": 53,
          "name": "F3",
          "ticks": 294528,
          "time": 431.4375,
          "velocity": 0.4881889763779528
        },
        {
          "duration": 0.1875,
          "durationTicks": 128,
          "midi": 59,
          "name": "B3",
          "ticks": 294656,
          "time": 431.625,
          "velocity": 0.49606299212598426
        },
        {
          "duration": 0.1875,
          "durationTicks": 128,
          "midi": 59,
          "name": "B3",
          "ticks": 294784,
          "time": 431.8125,
          "velocity": 0.5118110236220472
        },
        {
          "duration": 0.1875,
          "durationTicks": 128,
          "midi": 53,
          "name": "F3",
          "ticks": 294912,
          "time": 432,
          "velocity": 0.48031496062992124
        },
        {
          "duration": 0.1875,
          "durationTicks": 128,
          "midi": 53,
          "name": "F3",
          "ticks": 295040,
          "time": 432.1875,
          "velocity": 0.4409448818897638
        },
        {
          "duration": 0.1875,
          "durationTicks": 128,
          "midi": 65,
          "name": "F4",
          "ticks": 295168,
          "time": 432.375,
          "velocity": 0.6141732283464567
        },
        {
          "duration": 0.1875,
          "durationTicks": 128,
          "midi": 65,
          "name": "F4",
          "ticks": 295296,
          "time": 432.5625,
          "velocity": 0.5118110236220472
        },
        {
          "duration": 0.1875,
          "durationTicks": 128,
          "midi": 53,
          "name": "F3",
          "ticks": 295424,
          "time": 432.75,
          "velocity": 0.3858267716535433
        },
        {
          "duration": 0.1875,
          "durationTicks": 128,
          "midi": 53,
          "name": "F3",
          "ticks": 295552,
          "time": 432.9375,
          "velocity": 0.47244094488188976
        },
        {
          "duration": 0.1875,
          "durationTicks": 128,
          "midi": 58,
          "name": "A#3",
          "ticks": 295680,
          "time": 433.125,
          "velocity": 0.5354330708661418
        },
        {
          "duration": 0.1875,
          "durationTicks": 128,
          "midi": 58,
          "name": "A#3",
          "ticks": 295808,
          "time": 433.3125,
          "velocity": 0.44881889763779526
        },
        {
          "duration": 0.1875,
          "durationTicks": 128,
          "midi": 53,
          "name": "F3",
          "ticks": 295936,
          "time": 433.5,
          "velocity": 0.4881889763779528
        },
        {
          "duration": 0.1875,
          "durationTicks": 128,
          "midi": 53,
          "name": "F3",
          "ticks": 296064,
          "time": 433.6875,
          "velocity": 0.4645669291338583
        },
        {
          "duration": 0.1875,
          "durationTicks": 128,
          "midi": 56,
          "name": "G#3",
          "ticks": 296192,
          "time": 433.875,
          "velocity": 0.47244094488188976
        },
        {
          "duration": 0.1875,
          "durationTicks": 128,
          "midi": 56,
          "name": "G#3",
          "ticks": 296320,
          "time": 434.0625,
          "velocity": 0.4645669291338583
        },
        {
          "duration": 0.1875,
          "durationTicks": 128,
          "midi": 53,
          "name": "F3",
          "ticks": 296448,
          "time": 434.25,
          "velocity": 0.48031496062992124
        },
        {
          "duration": 0.1875,
          "durationTicks": 128,
          "midi": 53,
          "name": "F3",
          "ticks": 296576,
          "time": 434.4375,
          "velocity": 0.4881889763779528
        },
        {
          "duration": 0.1875,
          "durationTicks": 128,
          "midi": 62,
          "name": "D4",
          "ticks": 296704,
          "time": 434.625,
          "velocity": 0.6062992125984252
        },
        {
          "duration": 0.1875,
          "durationTicks": 128,
          "midi": 62,
          "name": "D4",
          "ticks": 296832,
          "time": 434.8125,
          "velocity": 0.5118110236220472
        }
      ],
      "endOfTrackTicks": 296961
    },
    {
      "channel": 10,
      "controlChanges": {
        "7": [
          {
            "number": 7,
            "ticks": 0,
            "time": 0,
            "value": 0.937007874015748
          }
        ],
        "10": [
          {
            "number": 10,
            "ticks": 0,
            "time": 0,
            "value": 0.7480314960629921
          }
        ],
        "64": [
          {
            "number": 64,
            "ticks": 0,
            "time": 0,
            "value": 0
          }
        ],
        "91": [
          {
            "number": 91,
            "ticks": 0,
            "time": 0,
            "value": 0.47244094488188976
          }
        ],
        "121": [
          {
            "number": 121,
            "ticks": 0,
            "time": 0,
            "value": 0
          }
        ]
      },
      "pitchBends": [],
      "instrument": {
        "family": "ensemble",
        "number": 48,
        "name": "string ensemble 1"
      },
      "name": "Violoncello",
      "notes": [
        {
          "duration": 0.375,
          "durationTicks": 256,
          "midi": 43,
          "name": "G2",
          "ticks": 0,
          "time": 0,
          "velocity": 0.41732283464566927
        },
        {
          "duration": 0.375,
          "durationTicks": 256,
          "midi": 55,
          "name": "G3",
          "ticks": 1024,
          "time": 1.5,
          "velocity": 0.4566929133858268
        },
        {
          "duration": 0.375,
          "durationTicks": 256,
          "midi": 43,
          "name": "G2",
          "ticks": 2048,
          "time": 3,
          "velocity": 0.4409448818897638
        },
        {
          "duration": 0.375,
          "durationTicks": 256,
          "midi": 55,
          "name": "G3",
          "ticks": 3072,
          "time": 4.5,
          "velocity": 0.41732283464566927
        },
        {
          "duration": 0.375,
          "durationTicks": 256,
          "midi": 43,
          "name": "G2",
          "ticks": 4096,
          "time": 6,
          "velocity": 0.44881889763779526
        },
        {
          "duration": 0.375,
          "durationTicks": 256,
          "midi": 55,
          "name": "G3",
          "ticks": 5120,
          "time": 7.5,
          "velocity": 0.4251968503937008
        },
        {
          "duration": 0.375,
          "durationTicks": 256,
          "midi": 42,
          "name": "F#2",
          "ticks": 6144,
          "time": 9,
          "velocity": 0.41732283464566927
        },
        {
          "duration": 0.375,
          "durationTicks": 256,
          "midi": 50,
          "name": "D3",
          "ticks": 7168,
          "time": 10.5,
          "velocity": 0.41732283464566927
        },
        {
          "duration": 0.375,
          "durationTicks": 256,
          "midi": 43,
          "name": "G2",
          "ticks": 8192,
          "time": 12,
          "velocity": 0.4409448818897638
        },
        {
          "duration": 1.5,
          "durationTicks": 1024,
          "midi": 48,
          "name": "C3",
          "ticks": 9216,
          "time": 13.5,
          "velocity": 0.4566929133858268
        },
        {
          "duration": 1.5,
          "durationTicks": 1024,
          "midi": 46,
          "name": "A#2",
          "ticks": 10240,
          "time": 15,
          "velocity": 0.48031496062992124
        },
        {
          "duration": 1.5,
          "durationTicks": 1024,
          "midi": 48,
          "name": "C3",
          "ticks": 11264,
          "time": 16.5,
          "velocity": 0.4409448818897638
        },
        {
          "duration": 1.5,
          "durationTicks": 1024,
          "midi": 46,
          "name": "A#2",
          "ticks": 12288,
          "time": 18,
          "velocity": 0.4881889763779528
        },
        {
          "duration": 1.5,
          "durationTicks": 1024,
          "midi": 52,
          "name": "E3",
          "ticks": 13312,
          "time": 19.5,
          "velocity": 0.47244094488188976
        },
        {
          "duration": 1.5,
          "durationTicks": 1024,
          "midi": 51,
          "name": "D#3",
          "ticks": 14336,
          "time": 21,
          "velocity": 0.4645669291338583
        },
        {
          "duration": 0.75,
          "durationTicks": 512,
          "midi": 50,
          "name": "D3",
          "ticks": 15360,
          "time": 22.5,
          "velocity": 0.41732283464566927
        },
        {
          "duration": 0.1875,
          "durationTicks": 128,
          "midi": 50,
          "name": "D3",
          "ticks": 16128,
          "time": 23.625,
          "velocity": 0.6850393700787402
        },
        {
          "duration": 0.1875,
          "durationTicks": 128,
          "midi": 50,
          "name": "D3",
          "ticks": 16256,
          "time": 23.8125,
          "velocity": 0.7480314960629921
        },
        {
          "duration": 0.75,
          "durationTicks": 512,
          "midi": 50,
          "name": "D3",
          "ticks": 16384,
          "time": 24,
          "velocity": 0.7795275590551181
        },
        {
          "duration": 0.1875,
          "durationTicks": 128,
          "midi": 50,
          "name": "D3",
          "ticks": 17152,
          "time": 25.125,
          "velocity": 0.6850393700787402
        },
        {
          "duration": 0.1875,
          "durationTicks": 128,
          "midi": 50,
          "name": "D3",
          "ticks": 17280,
          "time": 25.3125,
          "velocity": 0.7637795275590551
        },
        {
          "duration": 0.75,
          "durationTicks": 512,
          "midi": 50,
          "name": "D3",
          "ticks": 17408,
          "time": 25.5,
          "velocity": 0.7637795275590551
        },
        {
          "duration": 0.1875,
          "durationTicks": 128,
          "midi": 50,
          "name": "D3",
          "ticks": 18176,
          "time": 26.625,
          "velocity": 0.7007874015748031
        },
        {
          "duration": 0.1875,
          "durationTicks": 128,
          "midi": 50,
          "name": "D3",
          "ticks": 18304,
          "time": 26.8125,
          "velocity": 0.7559055118110236
        },
        {
          "duration": 0.375,
          "durationTicks": 256,
          "midi": 50,
          "name": "D3",
          "ticks": 18432,
          "time": 27,
          "velocity": 0.7637795275590551
        },
        {
          "duration": 0.1875,
          "durationTicks": 128,
          "midi": 50,
          "name": "D3",
          "ticks": 18688,
          "time": 27.375,
          "velocity": 0.8188976377952756
        },
        {
          "duration": 0.1875,
          "durationTicks": 128,
          "midi": 50,
          "name": "D3",
          "ticks": 18816,
          "time": 27.5625,
          "velocity": 0.7559055118110236
        },
        {
          "duration": 0.375,
          "durationTicks": 256,
          "midi": 50,
          "name": "D3",
          "ticks": 18944,
          "time": 27.75,
          "velocity": 0.7795275590551181
        },
        {
          "duration": 0.1875,
          "durationTicks": 128,
          "midi": 50,
          "name": "D3",
          "ticks": 19200,
          "time": 28.125,
          "velocity": 0.7637795275590551
        },
        {
          "duration": 0.1875,
          "durationTicks": 128,
          "midi": 50,
          "name": "D3",
          "ticks": 19328,
          "time": 28.3125,
          "velocity": 0.7322834645669292
        },
        {
          "duration": 0.75,
          "durationTicks": 512,
          "midi": 50,
          "name": "D3",
          "ticks": 19456,
          "time": 28.5,
          "velocity": 0.7795275590551181
        },
        {
          "duration": 0.375,
          "durationTicks": 256,
          "midi": 43,
          "name": "G2",
          "ticks": 21504,
          "time": 31.5,
          "velocity": 0.44881889763779526
        },
        {
          "duration": 0.375,
          "durationTicks": 256,
          "midi": 55,
          "name": "G3",
          "ticks": 22528,
          "time": 33,
          "velocity": 0.3937007874015748
        },
        {
          "duration": 0.375,
          "durationTicks": 256,
          "midi": 39,
          "name": "D#2",
          "ticks": 23552,
          "time": 34.5,
          "velocity": 0.44881889763779526
        },
        {
          "duration": 0.375,
          "durationTicks": 256,
          "midi": 48,
          "name": "C3",
          "ticks": 24576,
          "time": 36,
          "velocity": 0.4094488188976378
        },
        {
          "duration": 0.375,
          "durationTicks": 256,
          "midi": 41,
          "name": "F2",
          "ticks": 25600,
          "time": 37.5,
          "velocity": 0.4566929133858268
        },
        {
          "duration": 0.375,
          "durationTicks": 256,
          "midi": 53,
          "name": "F3",
          "ticks": 26624,
          "time": 39,
          "velocity": 0.4409448818897638
        },
        {
          "duration": 0.1875,
          "durationTicks": 128,
          "midi": 58,
          "name": "A#3",
          "ticks": 27648,
          "time": 40.5,
          "velocity": 0.6456692913385826
        },
        {
          "duration": 0.1875,
          "durationTicks": 128,
          "midi": 62,
          "name": "D4",
          "ticks": 27776,
          "time": 40.6875,
          "velocity": 0.8503937007874016
        },
        {
          "duration": 0.1875,
          "durationTicks": 128,
          "midi": 58,
          "name": "A#3",
          "ticks": 27904,
          "time": 40.875,
          "velocity": 0.7795275590551181
        },
        {
          "duration": 0.1875,
          "durationTicks": 128,
          "midi": 62,
          "name": "D4",
          "ticks": 28032,
          "time": 41.0625,
          "velocity": 0.8503937007874016
        },
        {
          "duration": 0.1875,
          "durationTicks": 128,
          "midi": 58,
          "name": "A#3",
          "ticks": 28160,
          "time": 41.25,
          "velocity": 0.7559055118110236
        },
        {
          "duration": 0.1875,
          "durationTicks": 128,
          "midi": 62,
          "name": "D4",
          "ticks": 28288,
          "time": 41.4375,
          "velocity": 0.8740157480314961
        },
        {
          "duration": 0.1875,
          "durationTicks": 128,
          "midi": 58,
          "name": "A#3",
          "ticks": 28416,
          "time": 41.625,
          "velocity": 0.7559055118110236
        },
        {
          "duration": 0.1875,
          "durationTicks": 128,
          "midi": 62,
          "name": "D4",
          "ticks": 28544,
          "time": 41.8125,
          "velocity": 0.8503937007874016
        },
        {
          "duration": 0.1875,
          "durationTicks": 128,
          "midi": 57,
          "name": "A3",
          "ticks": 28672,
          "time": 42,
          "velocity": 0.7322834645669292
        },
        {
          "duration": 0.1875,
          "durationTicks": 128,
          "midi": 60,
          "name": "C4",
          "ticks": 28800,
          "time": 42.1875,
          "velocity": 0.8110236220472441
        },
        {
          "duration": 0.1875,
          "durationTicks": 128,
          "midi": 57,
          "name": "A3",
          "ticks": 28928,
          "time": 42.375,
          "velocity": 0.7401574803149606
        },
        {
          "duration": 0.1875,
          "durationTicks": 128,
          "midi": 60,
          "name": "C4",
          "ticks": 29056,
          "time": 42.5625,
          "velocity": 0.8267716535433071
        },
        {
          "duration": 0.1875,
          "durationTicks": 128,
          "midi": 57,
          "name": "A3",
          "ticks": 29184,
          "time": 42.75,
          "velocity": 0.7480314960629921
        },
        {
          "duration": 0.1875,
          "durationTicks": 128,
          "midi": 60,
          "name": "C4",
          "ticks": 29312,
          "time": 42.9375,
          "velocity": 0.8346456692913385
        },
        {
          "duration": 0.1875,
          "durationTicks": 128,
          "midi": 57,
          "name": "A3",
          "ticks": 29440,
          "time": 43.125,
          "velocity": 0.7480314960629921
        },
        {
          "duration": 0.1875,
          "durationTicks": 128,
          "midi": 60,
          "name": "C4",
          "ticks": 29568,
          "time": 43.3125,
          "velocity": 0.8110236220472441
        },
        {
          "duration": 0.1875,
          "durationTicks": 128,
          "midi": 55,
          "name": "G3",
          "ticks": 29696,
          "time": 43.5,
          "velocity": 0.7165354330708661
        },
        {
          "duration": 0.1875,
          "durationTicks": 128,
          "midi": 58,
          "name": "A#3",
          "ticks": 29824,
          "time": 43.6875,
          "velocity": 0.84251968503937
        },
        {
          "duration": 0.1875,
          "durationTicks": 128,
          "midi": 55,
          "name": "G3",
          "ticks": 29952,
          "time": 43.875,
          "velocity": 0.7716535433070866
        },
        {
          "duration": 0.1875,
          "durationTicks": 128,
          "midi": 58,
          "name": "A#3",
          "ticks": 30080,
          "time": 44.0625,
          "velocity": 0.8267716535433071
        },
        {
          "duration": 0.1875,
          "durationTicks": 128,
          "midi": 55,
          "name": "G3",
          "ticks": 30208,
          "time": 44.25,
          "velocity": 0.7637795275590551
        },
        {
          "duration": 0.1875,
          "durationTicks": 128,
          "midi": 58,
          "name": "A#3",
          "ticks": 30336,
          "time": 44.4375,
          "velocity": 0.7874015748031497
        },
        {
          "duration": 0.1875,
          "durationTicks": 128,
          "midi": 55,
          "name": "G3",
          "ticks": 30464,
          "time": 44.625,
          "velocity": 0.7401574803149606
        },
        {
          "duration": 0.1875,
          "durationTicks": 128,
          "midi": 58,
          "name": "A#3",
          "ticks": 30592,
          "time": 44.8125,
          "velocity": 0.7874015748031497
        },
        {
          "duration": 0.1875,
          "durationTicks": 128,
          "midi": 53,
          "name": "F3",
          "ticks": 30720,
          "time": 45,
          "velocity": 0.7401574803149606
        },
        {
          "duration": 0.1875,
          "durationTicks": 128,
          "midi": 58,
          "name": "A#3",
          "ticks": 30848,
          "time": 45.1875,
          "velocity": 0.8110236220472441
        },
        {
          "duration": 0.1875,
          "durationTicks": 128,
          "midi": 53,
          "name": "F3",
          "ticks": 30976,
          "time": 45.375,
          "velocity": 0.7244094488188977
        },
        {
          "duration": 0.1875,
          "durationTicks": 128,
          "midi": 58,
          "name": "A#3",
          "ticks": 31104,
          "time": 45.5625,
          "velocity": 0.8267716535433071
        },
        {
          "duration": 0.1875,
          "durationTicks": 128,
          "midi": 53,
          "name": "F3",
          "ticks": 31232,
          "time": 45.75,
          "velocity": 0.7480314960629921
        },
        {
          "duration": 0.1875,
          "durationTicks": 128,
          "midi": 58,
          "name": "A#3",
          "ticks": 31360,
          "time": 45.9375,
          "velocity": 0.8110236220472441
        },
        {
          "duration": 0.1875,
          "durationTicks": 128,
          "midi": 53,
          "name": "F3",
          "ticks": 31488,
          "time": 46.125,
          "velocity": 0.7007874015748031
        },
        {
          "duration": 0.1875,
          "durationTicks": 128,
          "midi": 58,
          "name": "A#3",
          "ticks": 31616,
          "time": 46.3125,
          "velocity": 0.8188976377952756
        },
        {
          "duration": 0.1875,
          "durationTicks": 128,
          "midi": 51,
          "name": "D#3",
          "ticks": 31744,
          "time": 46.5,
          "velocity": 0.6850393700787402
        },
        {
          "duration": 0.1875,
          "durationTicks": 128,
          "midi": 55,
          "name": "G3",
          "ticks": 31872,
          "time": 46.6875,
          "velocity": 0.8110236220472441
        },
        {
          "duration": 0.1875,
          "durationTicks": 128,
          "midi": 51,
          "name": "D#3",
          "ticks": 32000,
          "time": 46.875,
          "velocity": 0.7165354330708661
        },
        {
          "duration": 0.1875,
          "durationTicks": 128,
          "midi": 55,
          "name": "G3",
          "ticks": 32128,
          "time": 47.0625,
          "velocity": 0.8031496062992126
        },
        {
          "duration": 0.1875,
          "durationTicks": 128,
          "midi": 51,
          "name": "D#3",
          "ticks": 32256,
          "time": 47.25,
          "velocity": 0.7007874015748031
        },
        {
          "duration": 0.1875,
          "durationTicks": 128,
          "midi": 55,
          "name": "G3",
          "ticks": 32384,
          "time": 47.4375,
          "velocity": 0.7952755905511811
        },
        {
          "duration": 0.1875,
          "durationTicks": 128,
          "midi": 51,
          "name": "D#3",
          "ticks": 32512,
          "time": 47.625,
          "velocity": 0.7480314960629921
        },
        {
          "duration": 0.1875,
          "durationTicks": 128,
          "midi": 55,
          "name": "G3",
          "ticks": 32640,
          "time": 47.8125,
          "velocity": 0.8031496062992126
        },
        {
          "duration": 0.1875,
          "durationTicks": 128,
          "midi": 50,
          "name": "D3",
          "ticks": 32768,
          "time": 48,
          "velocity": 0.7480314960629921
        },
        {
          "duration": 0.1875,
          "durationTicks": 128,
          "midi": 53,
          "name": "F3",
          "ticks": 32896,
          "time": 48.1875,
          "velocity": 0.7874015748031497
        },
        {
          "duration": 0.1875,
          "durationTicks": 128,
          "midi": 50,
          "name": "D3",
          "ticks": 33024,
          "time": 48.375,
          "velocity": 0.7244094488188977
        },
        {
          "duration": 0.1875,
          "durationTicks": 128,
          "midi": 53,
          "name": "F3",
          "ticks": 33152,
          "time": 48.5625,
          "velocity": 0.7795275590551181
        },
        {
          "duration": 0.1875,
          "durationTicks": 128,
          "midi": 50,
          "name": "D3",
          "ticks": 33280,
          "time": 48.75,
          "velocity": 0.7322834645669292
        },
        {
          "duration": 0.1875,
          "durationTicks": 128,
          "midi": 53,
          "name": "F3",
          "ticks": 33408,
          "time": 48.9375,
          "velocity": 0.8188976377952756
        },
        {
          "duration": 0.1875,
          "durationTicks": 128,
          "midi": 50,
          "name": "D3",
          "ticks": 33536,
          "time": 49.125,
          "velocity": 0.7637795275590551
        },
        {
          "duration": 0.1875,
          "durationTicks": 128,
          "midi": 53,
          "name": "F3",
          "ticks": 33664,
          "time": 49.3125,
          "velocity": 0.7952755905511811
        },
        {
          "duration": 0.75,
          "durationTicks": 512,
          "midi": 48,
          "name": "C3",
          "ticks": 33792,
          "time": 49.5,
          "velocity": 0.7165354330708661
        },
        {
          "duration": 0.375,
          "durationTicks": 256,
          "midi": 48,
          "name": "C3",
          "ticks": 34816,
          "time": 51,
          "velocity": 0.7559055118110236
        },
        {
          "duration": 0.375,
          "durationTicks": 256,
          "midi": 49,
          "name": "C#3",
          "ticks": 35328,
          "time": 51.75,
          "velocity": 0.8346456692913385
        },
        {
          "duration": 0.375,
          "durationTicks": 256,
          "midi": 48,
          "name": "C3",
          "ticks": 35840,
          "time": 52.5,
          "velocity": 0.7480314960629921
        },
        {
          "duration": 0.375,
          "durationTicks": 256,
          "midi": 49,
          "name": "C#3",
          "ticks": 36352,
          "time": 53.25,
          "velocity": 0.7716535433070866
        },
        {
          "duration": 0.375,
          "durationTicks": 256,
          "midi": 48,
          "name": "C3",
          "ticks": 36864,
          "time": 54,
          "velocity": 0.7559055118110236
        },
        {
          "duration": 0.1875,
          "durationTicks": 128,
          "midi": 48,
          "name": "C3",
          "ticks": 37760,
          "time": 55.3125,
          "velocity": 0.6692913385826772
        },
        {
          "duration": 0.1875,
          "durationTicks": 128,
          "midi": 53,
          "name": "F3",
          "ticks": 37888,
          "time": 55.5,
          "velocity": 0.8188976377952756
        },
        {
          "duration": 0.1875,
          "durationTicks": 128,
          "midi": 53,
          "name": "F3",
          "ticks": 38016,
          "time": 55.6875,
          "velocity": 0.7637795275590551
        },
        {
          "duration": 0.1875,
          "durationTicks": 128,
          "midi": 53,
          "name": "F3",
          "ticks": 38144,
          "time": 55.875,
          "velocity": 0.7795275590551181
        },
        {
          "duration": 0.1875,
          "durationTicks": 128,
          "midi": 53,
          "name": "F3",
          "ticks": 38272,
          "time": 56.0625,
          "velocity": 0.7952755905511811
        },
        {
          "duration": 0.1875,
          "durationTicks": 128,
          "midi": 53,
          "name": "F3",
          "ticks": 38400,
          "time": 56.25,
          "velocity": 0.7480314960629921
        },
        {
          "duration": 0.1875,
          "durationTicks": 128,
          "midi": 53,
          "name": "F3",
          "ticks": 38528,
          "time": 56.4375,
          "velocity": 0.7322834645669292
        },
        {
          "duration": 0.1875,
          "durationTicks": 128,
          "midi": 53,
          "name": "F3",
          "ticks": 38656,
          "time": 56.625,
          "velocity": 0.7716535433070866
        },
        {
          "duration": 0.1875,
          "durationTicks": 128,
          "midi": 53,
          "name": "F3",
          "ticks": 38784,
          "time": 56.8125,
          "velocity": 0.7401574803149606
        },
        {
          "duration": 0.1875,
          "durationTicks": 128,
          "midi": 53,
          "name": "F3",
          "ticks": 38912,
          "time": 57,
          "velocity": 0.7480314960629921
        },
        {
          "duration": 0.1875,
          "durationTicks": 128,
          "midi": 53,
          "name": "F3",
          "ticks": 39040,
          "time": 57.1875,
          "velocity": 0.7637795275590551
        },
        {
          "duration": 0.1875,
          "durationTicks": 128,
          "midi": 53,
          "name": "F3",
          "ticks": 39168,
          "time": 57.375,
          "velocity": 0.7716535433070866
        },
        {
          "duration": 0.1875,
          "durationTicks": 128,
          "midi": 53,
          "name": "F3",
          "ticks": 39296,
          "time": 57.5625,
          "velocity": 0.7244094488188977
        },
        {
          "duration": 0.1875,
          "durationTicks": 128,
          "midi": 53,
          "name": "F3",
          "ticks": 39424,
          "time": 57.75,
          "velocity": 0.7244094488188977
        },
        {
          "duration": 0.1875,
          "durationTicks": 128,
          "midi": 53,
          "name": "F3",
          "ticks": 39552,
          "time": 57.9375,
          "velocity": 0.7559055118110236
        },
        {
          "duration": 0.1875,
          "durationTicks": 128,
          "midi": 53,
          "name": "F3",
          "ticks": 39680,
          "time": 58.125,
          "velocity": 0.7559055118110236
        },
        {
          "duration": 0.1875,
          "durationTicks": 128,
          "midi": 53,
          "name": "F3",
          "ticks": 39808,
          "time": 58.3125,
          "velocity": 0.7716535433070866
        },
        {
          "duration": 0.1875,
          "durationTicks": 128,
          "midi": 53,
          "name": "F3",
          "ticks": 39936,
          "time": 58.5,
          "velocity": 0.7559055118110236
        },
        {
          "duration": 0.1875,
          "durationTicks": 128,
          "midi": 53,
          "name": "F3",
          "ticks": 40064,
          "time": 58.6875,
          "velocity": 0.7874015748031497
        },
        {
          "duration": 0.1875,
          "durationTicks": 128,
          "midi": 53,
          "name": "F3",
          "ticks": 40192,
          "time": 58.875,
          "velocity": 0.7952755905511811
        },
        {
          "duration": 0.1875,
          "durationTicks": 128,
          "midi": 53,
          "name": "F3",
          "ticks": 40320,
          "time": 59.0625,
          "velocity": 0.7874015748031497
        },
        {
          "duration": 0.1875,
          "durationTicks": 128,
          "midi": 53,
          "name": "F3",
          "ticks": 40448,
          "time": 59.25,
          "velocity": 0.7559055118110236
        },
        {
          "duration": 0.1875,
          "durationTicks": 128,
          "midi": 53,
          "name": "F3",
          "ticks": 40576,
          "time": 59.4375,
          "velocity": 0.7480314960629921
        },
        {
          "duration": 0.1875,
          "durationTicks": 128,
          "midi": 53,
          "name": "F3",
          "ticks": 40704,
          "time": 59.625,
          "velocity": 0.7559055118110236
        },
        {
          "duration": 0.1875,
          "durationTicks": 128,
          "midi": 53,
          "name": "F3",
          "ticks": 40832,
          "time": 59.8125,
          "velocity": 0.7874015748031497
        },
        {
          "duration": 0.1875,
          "durationTicks": 128,
          "midi": 53,
          "name": "F3",
          "ticks": 40960,
          "time": 60,
          "velocity": 0.7716535433070866
        },
        {
          "duration": 0.1875,
          "durationTicks": 128,
          "midi": 53,
          "name": "F3",
          "ticks": 41088,
          "time": 60.1875,
          "velocity": 0.7716535433070866
        },
        {
          "duration": 0.1875,
          "durationTicks": 128,
          "midi": 53,
          "name": "F3",
          "ticks": 41216,
          "time": 60.375,
          "velocity": 0.7716535433070866
        },
        {
          "duration": 0.1875,
          "durationTicks": 128,
          "midi": 53,
          "name": "F3",
          "ticks": 41344,
          "time": 60.5625,
          "velocity": 0.7952755905511811
        },
        {
          "duration": 0.1875,
          "durationTicks": 128,
          "midi": 53,
          "name": "F3",
          "ticks": 41472,
          "time": 60.75,
          "velocity": 0.7716535433070866
        },
        {
          "duration": 0.1875,
          "durationTicks": 128,
          "midi": 53,
          "name": "F3",
          "ticks": 41600,
          "time": 60.9375,
          "velocity": 0.7874015748031497
        },
        {
          "duration": 0.1875,
          "durationTicks": 128,
          "midi": 53,
          "name": "F3",
          "ticks": 41728,
          "time": 61.125,
          "velocity": 0.7952755905511811
        },
        {
          "duration": 0.1875,
          "durationTicks": 128,
          "midi": 53,
          "name": "F3",
          "ticks": 41856,
          "time": 61.3125,
          "velocity": 0.7795275590551181
        },
        {
          "duration": 0.375,
          "durationTicks": 256,
          "midi": 53,
          "name": "F3",
          "ticks": 41984,
          "time": 61.5,
          "velocity": 0.7795275590551181
        },
        {
          "duration": 0.375,
          "durationTicks": 256,
          "midi": 41,
          "name": "F2",
          "ticks": 42496,
          "time": 62.25,
          "velocity": 0.6850393700787402
        },
        {
          "duration": 1.14697265625,
          "durationTicks": 783,
          "midi": 62,
          "name": "D4",
          "ticks": 44032,
          "time": 64.5,
          "velocity": 0.3937007874015748
        },
        {
          "duration": 0.38232421875,
          "durationTicks": 261,
          "midi": 60,
          "name": "C4",
          "ticks": 44800,
          "time": 65.625,
          "velocity": 0.33070866141732286
        },
        {
          "duration": 0.35595703125,
          "durationTicks": 243,
          "midi": 53,
          "name": "F3",
          "ticks": 45056,
          "time": 66,
          "velocity": 0.47244094488188976
        },
        {
          "duration": 0.1875,
          "durationTicks": 128,
          "midi": 55,
          "name": "G3",
          "ticks": 46336,
          "time": 67.875,
          "velocity": 0.41732283464566927
        },
        {
          "duration": 0.38232421875,
          "durationTicks": 261,
          "midi": 55,
          "name": "G3",
          "ticks": 46592,
          "time": 68.25,
          "velocity": 0.44881889763779526
        },
        {
          "duration": 0.35595703125,
          "durationTicks": 243,
          "midi": 52,
          "name": "E3",
          "ticks": 46848,
          "time": 68.625,
          "velocity": 0.4409448818897638
        },
        {
          "duration": 0.75,
          "durationTicks": 512,
          "midi": 53,
          "name": "F3",
          "ticks": 47104,
          "time": 69,
          "velocity": 0.5039370078740157
        },
        {
          "duration": 1.14697265625,
          "durationTicks": 783,
          "midi": 51,
          "name": "D#3",
          "ticks": 48128,
          "time": 70.5,
          "velocity": 0.4094488188976378
        },
        {
          "duration": 0.35595703125,
          "durationTicks": 243,
          "midi": 50,
          "name": "D3",
          "ticks": 48896,
          "time": 71.625,
          "velocity": 0.3779527559055118
        },
        {
          "duration": 0.38232421875,
          "durationTicks": 261,
          "midi": 55,
          "name": "G3",
          "ticks": 49152,
          "time": 72,
          "velocity": 0.5196850393700787
        },
        {
          "duration": 0.38232421875,
          "durationTicks": 261,
          "midi": 48,
          "name": "C3",
          "ticks": 49408,
          "time": 72.375,
          "velocity": 0.4881889763779528
        },
        {
          "duration": 0.38232421875,
          "durationTicks": 261,
          "midi": 53,
          "name": "F3",
          "ticks": 49664,
          "time": 72.75,
          "velocity": 0.4881889763779528
        },
        {
          "duration": 0.35595703125,
          "durationTicks": 243,
          "midi": 46,
          "name": "A#2",
          "ticks": 49920,
          "time": 73.125,
          "velocity": 0.4566929133858268
        },
        {
          "duration": 0.375,
          "durationTicks": 256,
          "midi": 51,
          "name": "D#3",
          "ticks": 50176,
          "time": 73.5,
          "velocity": 0.4881889763779528
        },
        {
          "duration": 0.375,
          "durationTicks": 256,
          "midi": 53,
          "name": "F3",
          "ticks": 50688,
          "time": 74.25,
          "velocity": 0.3937007874015748
        },
        {
          "duration": 0.375,
          "durationTicks": 256,
          "midi": 46,
          "name": "A#2",
          "ticks": 51200,
          "time": 75,
          "velocity": 0.4409448818897638
        },
        {
          "duration": 1.14697265625,
          "durationTicks": 783,
          "midi": 63,
          "name": "D#4",
          "ticks": 56320,
          "time": 82.5,
          "velocity": 0.4566929133858268
        },
        {
          "duration": 0.35595703125,
          "durationTicks": 243,
          "midi": 62,
          "name": "D4",
          "ticks": 57088,
          "time": 83.625,
          "velocity": 0.4015748031496063
        },
        {
          "duration": 0.38232421875,
          "durationTicks": 261,
          "midi": 55,
          "name": "G3",
          "ticks": 57344,
          "time": 84,
          "velocity": 0.4409448818897638
        },
        {
          "duration": 0.38232421875,
          "durationTicks": 261,
          "midi": 60,
          "name": "C4",
          "ticks": 57600,
          "time": 84.375,
          "velocity": 0.5196850393700787
        },
        {
          "duration": 0.38232421875,
          "durationTicks": 261,
          "midi": 53,
          "name": "F3",
          "ticks": 57856,
          "time": 84.75,
          "velocity": 0.4645669291338583
        },
        {
          "duration": 0.35595703125,
          "durationTicks": 243,
          "midi": 58,
          "name": "A#3",
          "ticks": 58112,
          "time": 85.125,
          "velocity": 0.5039370078740157
        },
        {
          "duration": 1.5,
          "durationTicks": 1024,
          "midi": 51,
          "name": "D#3",
          "ticks": 58368,
          "time": 85.5,
          "velocity": 0.48031496062992124
        },
        {
          "duration": 1.5,
          "durationTicks": 1024,
          "midi": 51,
          "name": "D#3",
          "ticks": 59392,
          "time": 87,
          "velocity": 0.5039370078740157
        },
        {
          "duration": 1.5,
          "durationTicks": 1024,
          "midi": 51,
          "name": "D#3",
          "ticks": 60416,
          "time": 88.5,
          "velocity": 0.48031496062992124
        },
        {
          "duration": 1.5,
          "durationTicks": 1024,
          "midi": 51,
          "name": "D#3",
          "ticks": 61440,
          "time": 90,
          "velocity": 0.47244094488188976
        },
        {
          "duration": 0.1875,
          "durationTicks": 128,
          "midi": 51,
          "name": "D#3",
          "ticks": 62464,
          "time": 91.5,
          "velocity": 0.4881889763779528
        },
        {
          "duration": 0.1875,
          "durationTicks": 128,
          "midi": 51,
          "name": "D#3",
          "ticks": 62592,
          "time": 91.6875,
          "velocity": 0.5039370078740157
        },
        {
          "duration": 0.1875,
          "durationTicks": 128,
          "midi": 51,
          "name": "D#3",
          "ticks": 62720,
          "time": 91.875,
          "velocity": 0.5354330708661418
        },
        {
          "duration": 0.1875,
          "durationTicks": 128,
          "midi": 51,
          "name": "D#3",
          "ticks": 62848,
          "time": 92.0625,
          "velocity": 0.5275590551181102
        },
        {
          "duration": 0.1875,
          "durationTicks": 128,
          "midi": 51,
          "name": "D#3",
          "ticks": 62976,
          "time": 92.25,
          "velocity": 0.5826771653543307
        },
        {
          "duration": 0.1875,
          "durationTicks": 128,
          "midi": 51,
          "name": "D#3",
          "ticks": 63104,
          "time": 92.4375,
          "velocity": 0.5196850393700787
        },
        {
          "duration": 0.1875,
          "durationTicks": 128,
          "midi": 51,
          "name": "D#3",
          "ticks": 63232,
          "time": 92.625,
          "velocity": 0.5905511811023622
        },
        {
          "duration": 0.1875,
          "durationTicks": 128,
          "midi": 51,
          "name": "D#3",
          "ticks": 63360,
          "time": 92.8125,
          "velocity": 0.6456692913385826
        },
        {
          "duration": 0.1875,
          "durationTicks": 128,
          "midi": 52,
          "name": "E3",
          "ticks": 63488,
          "time": 93,
          "velocity": 0.6377952755905512
        },
        {
          "duration": 0.1875,
          "durationTicks": 128,
          "midi": 52,
          "name": "E3",
          "ticks": 63616,
          "time": 93.1875,
          "velocity": 0.6692913385826772
        },
        {
          "duration": 0.1875,
          "durationTicks": 128,
          "midi": 52,
          "name": "E3",
          "ticks": 63744,
          "time": 93.375,
          "velocity": 0.6456692913385826
        },
        {
          "duration": 0.1875,
          "durationTicks": 128,
          "midi": 52,
          "name": "E3",
          "ticks": 63872,
          "time": 93.5625,
          "velocity": 0.7007874015748031
        },
        {
          "duration": 0.1875,
          "durationTicks": 128,
          "midi": 52,
          "name": "E3",
          "ticks": 64000,
          "time": 93.75,
          "velocity": 0.6929133858267716
        },
        {
          "duration": 0.1875,
          "durationTicks": 128,
          "midi": 52,
          "name": "E3",
          "ticks": 64128,
          "time": 93.9375,
          "velocity": 0.6929133858267716
        },
        {
          "duration": 0.1875,
          "durationTicks": 128,
          "midi": 52,
          "name": "E3",
          "ticks": 64256,
          "time": 94.125,
          "velocity": 0.7165354330708661
        },
        {
          "duration": 0.1875,
          "durationTicks": 128,
          "midi": 52,
          "name": "E3",
          "ticks": 64384,
          "time": 94.3125,
          "velocity": 0.7322834645669292
        },
        {
          "duration": 0.1875,
          "durationTicks": 128,
          "midi": 53,
          "name": "F3",
          "ticks": 64512,
          "time": 94.5,
          "velocity": 0.8110236220472441
        },
        {
          "duration": 0.1875,
          "durationTicks": 128,
          "midi": 53,
          "name": "F3",
          "ticks": 64640,
          "time": 94.6875,
          "velocity": 0.7874015748031497
        },
        {
          "duration": 0.1875,
          "durationTicks": 128,
          "midi": 53,
          "name": "F3",
          "ticks": 64768,
          "time": 94.875,
          "velocity": 0.7716535433070866
        },
        {
          "duration": 0.1875,
          "durationTicks": 128,
          "midi": 53,
          "name": "F3",
          "ticks": 64896,
          "time": 95.0625,
          "velocity": 0.7480314960629921
        },
        {
          "duration": 0.1875,
          "durationTicks": 128,
          "midi": 53,
          "name": "F3",
          "ticks": 65024,
          "time": 95.25,
          "velocity": 0.7559055118110236
        },
        {
          "duration": 0.1875,
          "durationTicks": 128,
          "midi": 53,
          "name": "F3",
          "ticks": 65152,
          "time": 95.4375,
          "velocity": 0.7795275590551181
        },
        {
          "duration": 0.1875,
          "durationTicks": 128,
          "midi": 53,
          "name": "F3",
          "ticks": 65280,
          "time": 95.625,
          "velocity": 0.7952755905511811
        },
        {
          "duration": 0.1875,
          "durationTicks": 128,
          "midi": 53,
          "name": "F3",
          "ticks": 65408,
          "time": 95.8125,
          "velocity": 0.7322834645669292
        },
        {
          "duration": 0.1875,
          "durationTicks": 128,
          "midi": 41,
          "name": "F2",
          "ticks": 65536,
          "time": 96,
          "velocity": 0.6929133858267716
        },
        {
          "duration": 0.1875,
          "durationTicks": 128,
          "midi": 41,
          "name": "F2",
          "ticks": 65664,
          "time": 96.1875,
          "velocity": 0.7322834645669292
        },
        {
          "duration": 0.1875,
          "durationTicks": 128,
          "midi": 41,
          "name": "F2",
          "ticks": 65792,
          "time": 96.375,
          "velocity": 0.7795275590551181
        },
        {
          "duration": 0.1875,
          "durationTicks": 128,
          "midi": 41,
          "name": "F2",
          "ticks": 65920,
          "time": 96.5625,
          "velocity": 0.8031496062992126
        },
        {
          "duration": 0.1875,
          "durationTicks": 128,
          "midi": 41,
          "name": "F2",
          "ticks": 66048,
          "time": 96.75,
          "velocity": 0.7637795275590551
        },
        {
          "duration": 0.1875,
          "durationTicks": 128,
          "midi": 41,
          "name": "F2",
          "ticks": 66176,
          "time": 96.9375,
          "velocity": 0.7244094488188977
        },
        {
          "duration": 0.1875,
          "durationTicks": 128,
          "midi": 41,
          "name": "F2",
          "ticks": 66304,
          "time": 97.125,
          "velocity": 0.7795275590551181
        },
        {
          "duration": 0.1875,
          "durationTicks": 128,
          "midi": 41,
          "name": "F2",
          "ticks": 66432,
          "time": 97.3125,
          "velocity": 0.7952755905511811
        },
        {
          "duration": 0.375,
          "durationTicks": 256,
          "midi": 46,
          "name": "A#2",
          "ticks": 66560,
          "time": 97.5,
          "velocity": 0.7795275590551181
        },
        {
          "duration": 0.75,
          "durationTicks": 512,
          "midi": 50,
          "name": "D3",
          "ticks": 66816,
          "time": 97.875,
          "velocity": 0.8110236220472441
        },
        {
          "duration": 0.1875,
          "durationTicks": 128,
          "midi": 51,
          "name": "D#3",
          "ticks": 67328,
          "time": 98.625,
          "velocity": 0.7637795275590551
        },
        {
          "duration": 0.1875,
          "durationTicks": 128,
          "midi": 52,
          "name": "E3",
          "ticks": 67584,
          "time": 99,
          "velocity": 0.7952755905511811
        },
        {
          "duration": 0.1875,
          "durationTicks": 128,
          "midi": 53,
          "name": "F3",
          "ticks": 67840,
          "time": 99.375,
          "velocity": 0.7795275590551181
        },
        {
          "duration": 0.1875,
          "durationTicks": 128,
          "midi": 54,
          "name": "F#3",
          "ticks": 68096,
          "time": 99.75,
          "velocity": 0.7795275590551181
        },
        {
          "duration": 0.1875,
          "durationTicks": 128,
          "midi": 55,
          "name": "G3",
          "ticks": 68352,
          "time": 100.125,
          "velocity": 0.7716535433070866
        },
        {
          "duration": 0.375,
          "durationTicks": 256,
          "midi": 56,
          "name": "G#3",
          "ticks": 68608,
          "time": 100.5,
          "velocity": 0.7637795275590551
        },
        {
          "duration": 0.09375,
          "durationTicks": 64,
          "midi": 56,
          "name": "G#3",
          "ticks": 69056,
          "time": 101.15625,
          "velocity": 0.6850393700787402
        },
        {
          "duration": 0.375,
          "durationTicks": 256,
          "midi": 55,
          "name": "G3",
          "ticks": 69120,
          "time": 101.25,
          "velocity": 0.7480314960629921
        },
        {
          "duration": 0.09375,
          "durationTicks": 64,
          "midi": 55,
          "name": "G3",
          "ticks": 69568,
          "time": 101.90625,
          "velocity": 0.7086614173228346
        },
        {
          "duration": 0.375,
          "durationTicks": 256,
          "midi": 63,
          "name": "D#4",
          "ticks": 69632,
          "time": 102,
          "velocity": 0.905511811023622
        },
        {
          "duration": 0.09375,
          "durationTicks": 64,
          "midi": 63,
          "name": "D#4",
          "ticks": 70080,
          "time": 102.65625,
          "velocity": 0.6850393700787402
        },
        {
          "duration": 0.375,
          "durationTicks": 256,
          "midi": 62,
          "name": "D4",
          "ticks": 70144,
          "time": 102.75,
          "velocity": 0.7165354330708661
        },
        {
          "duration": 0.09375,
          "durationTicks": 64,
          "midi": 62,
          "name": "D4",
          "ticks": 70592,
          "time": 103.40625,
          "velocity": 0.7086614173228346
        },
        {
          "duration": 0.375,
          "durationTicks": 256,
          "midi": 51,
          "name": "D#3",
          "ticks": 70656,
          "time": 103.5,
          "velocity": 0.6614173228346457
        },
        {
          "duration": 0.375,
          "durationTicks": 256,
          "midi": 53,
          "name": "F3",
          "ticks": 71680,
          "time": 105,
          "velocity": 0.4330708661417323
        },
        {
          "duration": 1.5,
          "durationTicks": 1024,
          "midi": 51,
          "name": "D#3",
          "ticks": 74240,
          "time": 108.75,
          "velocity": 0.41732283464566927
        },
        {
          "duration": 0.35595703125,
          "durationTicks": 243,
          "midi": 50,
          "name": "D3",
          "ticks": 75264,
          "time": 110.25,
          "velocity": 0.4409448818897638
        },
        {
          "duration": 1.5,
          "durationTicks": 1024,
          "midi": 51,
          "name": "D#3",
          "ticks": 76288,
          "time": 111.75,
          "velocity": 0.4409448818897638
        },
        {
          "duration": 0.35595703125,
          "durationTicks": 243,
          "midi": 50,
          "name": "D3",
          "ticks": 77312,
          "time": 113.25,
          "velocity": 0.4566929133858268
        },
        {
          "duration": 0.1875,
          "durationTicks": 128,
          "midi": 50,
          "name": "D3",
          "ticks": 77824,
          "time": 114,
          "velocity": 0.7322834645669292
        },
        {
          "duration": 0.1875,
          "durationTicks": 128,
          "midi": 50,
          "name": "D3",
          "ticks": 77952,
          "time": 114.1875,
          "velocity": 0.7795275590551181
        },
        {
          "duration": 0.1875,
          "durationTicks": 128,
          "midi": 50,
          "name": "D3",
          "ticks": 78080,
          "time": 114.375,
          "velocity": 0.7559055118110236
        },
        {
          "duration": 0.1875,
          "durationTicks": 128,
          "midi": 50,
          "name": "D3",
          "ticks": 78208,
          "time": 114.5625,
          "velocity": 0.7795275590551181
        },
        {
          "duration": 0.1875,
          "durationTicks": 128,
          "midi": 50,
          "name": "D3",
          "ticks": 78336,
          "time": 114.75,
          "velocity": 0.7637795275590551
        },
        {
          "duration": 0.1875,
          "durationTicks": 128,
          "midi": 50,
          "name": "D3",
          "ticks": 78464,
          "time": 114.9375,
          "velocity": 0.7322834645669292
        },
        {
          "duration": 0.1875,
          "durationTicks": 128,
          "midi": 50,
          "name": "D3",
          "ticks": 78592,
          "time": 115.125,
          "velocity": 0.7401574803149606
        },
        {
          "duration": 0.1875,
          "durationTicks": 128,
          "midi": 50,
          "name": "D3",
          "ticks": 78720,
          "time": 115.3125,
          "velocity": 0.7480314960629921
        },
        {
          "duration": 0.1875,
          "durationTicks": 128,
          "midi": 55,
          "name": "G3",
          "ticks": 78848,
          "time": 115.5,
          "velocity": 0.8582677165354331
        },
        {
          "duration": 0.1875,
          "durationTicks": 128,
          "midi": 55,
          "name": "G3",
          "ticks": 78976,
          "time": 115.6875,
          "velocity": 0.7874015748031497
        },
        {
          "duration": 0.1875,
          "durationTicks": 128,
          "midi": 55,
          "name": "G3",
          "ticks": 79104,
          "time": 115.875,
          "velocity": 0.7795275590551181
        },
        {
          "duration": 0.1875,
          "durationTicks": 128,
          "midi": 55,
          "name": "G3",
          "ticks": 79232,
          "time": 116.0625,
          "velocity": 0.7637795275590551
        },
        {
          "duration": 0.1875,
          "durationTicks": 128,
          "midi": 51,
          "name": "D#3",
          "ticks": 79360,
          "time": 116.25,
          "velocity": 0.7401574803149606
        },
        {
          "duration": 0.1875,
          "durationTicks": 128,
          "midi": 51,
          "name": "D#3",
          "ticks": 79488,
          "time": 116.4375,
          "velocity": 0.7559055118110236
        },
        {
          "duration": 0.1875,
          "durationTicks": 128,
          "midi": 51,
          "name": "D#3",
          "ticks": 79616,
          "time": 116.625,
          "velocity": 0.7874015748031497
        },
        {
          "duration": 0.1875,
          "durationTicks": 128,
          "midi": 51,
          "name": "D#3",
          "ticks": 79744,
          "time": 116.8125,
          "velocity": 0.7637795275590551
        },
        {
          "duration": 0.1875,
          "durationTicks": 128,
          "midi": 53,
          "name": "F3",
          "ticks": 79872,
          "time": 117,
          "velocity": 0.7952755905511811
        },
        {
          "duration": 0.1875,
          "durationTicks": 128,
          "midi": 53,
          "name": "F3",
          "ticks": 80000,
          "time": 117.1875,
          "velocity": 0.7637795275590551
        },
        {
          "duration": 0.1875,
          "durationTicks": 128,
          "midi": 53,
          "name": "F3",
          "ticks": 80128,
          "time": 117.375,
          "velocity": 0.7716535433070866
        },
        {
          "duration": 0.1875,
          "durationTicks": 128,
          "midi": 53,
          "name": "F3",
          "ticks": 80256,
          "time": 117.5625,
          "velocity": 0.7637795275590551
        },
        {
          "duration": 0.1875,
          "durationTicks": 128,
          "midi": 41,
          "name": "F2",
          "ticks": 80384,
          "time": 117.75,
          "velocity": 0.6929133858267716
        },
        {
          "duration": 0.1875,
          "durationTicks": 128,
          "midi": 41,
          "name": "F2",
          "ticks": 80512,
          "time": 117.9375,
          "velocity": 0.7322834645669292
        },
        {
          "duration": 0.1875,
          "durationTicks": 128,
          "midi": 41,
          "name": "F2",
          "ticks": 80640,
          "time": 118.125,
          "velocity": 0.7401574803149606
        },
        {
          "duration": 0.1875,
          "durationTicks": 128,
          "midi": 41,
          "name": "F2",
          "ticks": 80768,
          "time": 118.3125,
          "velocity": 0.8031496062992126
        },
        {
          "duration": 0.375,
          "durationTicks": 256,
          "midi": 46,
          "name": "A#2",
          "ticks": 80896,
          "time": 118.5,
          "velocity": 0.8582677165354331
        },
        {
          "duration": 1.875,
          "durationTicks": 1280,
          "midi": 58,
          "name": "A#3",
          "ticks": 81408,
          "time": 119.25,
          "velocity": 0.4330708661417323
        },
        {
          "duration": 1.5,
          "durationTicks": 1024,
          "midi": 46,
          "name": "A#2",
          "ticks": 83456,
          "time": 122.25,
          "velocity": 0.4094488188976378
        },
        {
          "duration": 0.35595703125,
          "durationTicks": 243,
          "midi": 45,
          "name": "A2",
          "ticks": 84480,
          "time": 123.75,
          "velocity": 0.4881889763779528
        },
        {
          "duration": 0.1875,
          "durationTicks": 128,
          "midi": 50,
          "name": "D3",
          "ticks": 86016,
          "time": 126,
          "velocity": 0.7086614173228346
        },
        {
          "duration": 0.1875,
          "durationTicks": 128,
          "midi": 50,
          "name": "D3",
          "ticks": 86144,
          "time": 126.1875,
          "velocity": 0.7559055118110236
        },
        {
          "duration": 0.1875,
          "durationTicks": 128,
          "midi": 50,
          "name": "D3",
          "ticks": 86272,
          "time": 126.375,
          "velocity": 0.7795275590551181
        },
        {
          "duration": 0.1875,
          "durationTicks": 128,
          "midi": 50,
          "name": "D3",
          "ticks": 86400,
          "time": 126.5625,
          "velocity": 0.7795275590551181
        },
        {
          "duration": 0.1875,
          "durationTicks": 128,
          "midi": 50,
          "name": "D3",
          "ticks": 86528,
          "time": 126.75,
          "velocity": 0.7559055118110236
        },
        {
          "duration": 0.1875,
          "durationTicks": 128,
          "midi": 50,
          "name": "D3",
          "ticks": 86656,
          "time": 126.9375,
          "velocity": 0.7952755905511811
        },
        {
          "duration": 0.1875,
          "durationTicks": 128,
          "midi": 50,
          "name": "D3",
          "ticks": 86784,
          "time": 127.125,
          "velocity": 0.7952755905511811
        },
        {
          "duration": 0.1875,
          "durationTicks": 128,
          "midi": 50,
          "name": "D3",
          "ticks": 86912,
          "time": 127.3125,
          "velocity": 0.7559055118110236
        },
        {
          "duration": 0.1875,
          "durationTicks": 128,
          "midi": 55,
          "name": "G3",
          "ticks": 87040,
          "time": 127.5,
          "velocity": 0.8110236220472441
        },
        {
          "duration": 0.1875,
          "durationTicks": 128,
          "midi": 55,
          "name": "G3",
          "ticks": 87168,
          "time": 127.6875,
          "velocity": 0.7874015748031497
        },
        {
          "duration": 0.1875,
          "durationTicks": 128,
          "midi": 55,
          "name": "G3",
          "ticks": 87296,
          "time": 127.875,
          "velocity": 0.7716535433070866
        },
        {
          "duration": 0.1875,
          "durationTicks": 128,
          "midi": 55,
          "name": "G3",
          "ticks": 87424,
          "time": 128.0625,
          "velocity": 0.7716535433070866
        },
        {
          "duration": 0.1875,
          "durationTicks": 128,
          "midi": 51,
          "name": "D#3",
          "ticks": 87552,
          "time": 128.25,
          "velocity": 0.7086614173228346
        },
        {
          "duration": 0.1875,
          "durationTicks": 128,
          "midi": 51,
          "name": "D#3",
          "ticks": 87680,
          "time": 128.4375,
          "velocity": 0.7401574803149606
        },
        {
          "duration": 0.1875,
          "durationTicks": 128,
          "midi": 51,
          "name": "D#3",
          "ticks": 87808,
          "time": 128.625,
          "velocity": 0.7480314960629921
        },
        {
          "duration": 0.1875,
          "durationTicks": 128,
          "midi": 51,
          "name": "D#3",
          "ticks": 87936,
          "time": 128.8125,
          "velocity": 0.7559055118110236
        },
        {
          "duration": 0.1875,
          "durationTicks": 128,
          "midi": 53,
          "name": "F3",
          "ticks": 88064,
          "time": 129,
          "velocity": 0.7952755905511811
        },
        {
          "duration": 0.1875,
          "durationTicks": 128,
          "midi": 53,
          "name": "F3",
          "ticks": 88192,
          "time": 129.1875,
          "velocity": 0.7795275590551181
        },
        {
          "duration": 0.1875,
          "durationTicks": 128,
          "midi": 53,
          "name": "F3",
          "ticks": 88320,
          "time": 129.375,
          "velocity": 0.7716535433070866
        },
        {
          "duration": 0.1875,
          "durationTicks": 128,
          "midi": 53,
          "name": "F3",
          "ticks": 88448,
          "time": 129.5625,
          "velocity": 0.7559055118110236
        },
        {
          "duration": 0.1875,
          "durationTicks": 128,
          "midi": 41,
          "name": "F2",
          "ticks": 88576,
          "time": 129.75,
          "velocity": 0.6535433070866141
        },
        {
          "duration": 0.1875,
          "durationTicks": 128,
          "midi": 41,
          "name": "F2",
          "ticks": 88704,
          "time": 129.9375,
          "velocity": 0.7401574803149606
        },
        {
          "duration": 0.1875,
          "durationTicks": 128,
          "midi": 41,
          "name": "F2",
          "ticks": 88832,
          "time": 130.125,
          "velocity": 0.7637795275590551
        },
        {
          "duration": 0.1875,
          "durationTicks": 128,
          "midi": 41,
          "name": "F2",
          "ticks": 88960,
          "time": 130.3125,
          "velocity": 0.7716535433070866
        },
        {
          "duration": 0.75,
          "durationTicks": 512,
          "midi": 46,
          "name": "A#2",
          "ticks": 89088,
          "time": 130.5,
          "velocity": 0.8110236220472441
        },
        {
          "duration": 0.1875,
          "durationTicks": 128,
          "midi": 65,
          "name": "F4",
          "ticks": 89984,
          "time": 131.8125,
          "velocity": 0.6929133858267716
        },
        {
          "duration": 0.1875,
          "durationTicks": 128,
          "midi": 63,
          "name": "D#4",
          "ticks": 90112,
          "time": 132,
          "velocity": 0.6929133858267716
        },
        {
          "duration": 0.1875,
          "durationTicks": 128,
          "midi": 62,
          "name": "D4",
          "ticks": 90240,
          "time": 132.1875,
          "velocity": 0.7716535433070866
        },
        {
          "duration": 0.1875,
          "durationTicks": 128,
          "midi": 60,
          "name": "C4",
          "ticks": 90368,
          "time": 132.375,
          "velocity": 0.7007874015748031
        },
        {
          "duration": 0.1875,
          "durationTicks": 128,
          "midi": 58,
          "name": "A#3",
          "ticks": 90496,
          "time": 132.5625,
          "velocity": 0.7480314960629921
        },
        {
          "duration": 0.1875,
          "durationTicks": 128,
          "midi": 57,
          "name": "A3",
          "ticks": 90624,
          "time": 132.75,
          "velocity": 0.7637795275590551
        },
        {
          "duration": 0.1875,
          "durationTicks": 128,
          "midi": 55,
          "name": "G3",
          "ticks": 90752,
          "time": 132.9375,
          "velocity": 0.7401574803149606
        },
        {
          "duration": 0.1875,
          "durationTicks": 128,
          "midi": 53,
          "name": "F3",
          "ticks": 90880,
          "time": 133.125,
          "velocity": 0.7559055118110236
        },
        {
          "duration": 0.1875,
          "durationTicks": 128,
          "midi": 51,
          "name": "D#3",
          "ticks": 91008,
          "time": 133.3125,
          "velocity": 0.7480314960629921
        },
        {
          "duration": 0.375,
          "durationTicks": 256,
          "midi": 50,
          "name": "D3",
          "ticks": 91136,
          "time": 133.5,
          "velocity": 0.7165354330708661
        },
        {
          "duration": 0.375,
          "durationTicks": 256,
          "midi": 50,
          "name": "D3",
          "ticks": 91392,
          "time": 133.875,
          "velocity": 0.7559055118110236
        },
        {
          "duration": 0.375,
          "durationTicks": 256,
          "midi": 51,
          "name": "D#3",
          "ticks": 91648,
          "time": 134.25,
          "velocity": 0.8110236220472441
        },
        {
          "duration": 0.375,
          "durationTicks": 256,
          "midi": 53,
          "name": "F3",
          "ticks": 91904,
          "time": 134.625,
          "velocity": 0.7874015748031497
        },
        {
          "duration": 0.1875,
          "durationTicks": 128,
          "midi": 58,
          "name": "A#3",
          "ticks": 92160,
          "time": 135,
          "velocity": 0.8031496062992126
        },
        {
          "duration": 0.1875,
          "durationTicks": 128,
          "midi": 53,
          "name": "F3",
          "ticks": 92288,
          "time": 135.1875,
          "velocity": 0.7322834645669292
        },
        {
          "duration": 0.1875,
          "durationTicks": 128,
          "midi": 62,
          "name": "D4",
          "ticks": 92416,
          "time": 135.375,
          "velocity": 0.9291338582677166
        },
        {
          "duration": 0.1875,
          "durationTicks": 128,
          "midi": 60,
          "name": "C4",
          "ticks": 92544,
          "time": 135.5625,
          "velocity": 0.7322834645669292
        },
        {
          "duration": 0.1875,
          "durationTicks": 128,
          "midi": 58,
          "name": "A#3",
          "ticks": 92672,
          "time": 135.75,
          "velocity": 0.7795275590551181
        },
        {
          "duration": 0.1875,
          "durationTicks": 128,
          "midi": 57,
          "name": "A3",
          "ticks": 92800,
          "time": 135.9375,
          "velocity": 0.7480314960629921
        },
        {
          "duration": 0.1875,
          "durationTicks": 128,
          "midi": 55,
          "name": "G3",
          "ticks": 92928,
          "time": 136.125,
          "velocity": 0.7401574803149606
        },
        {
          "duration": 0.1875,
          "durationTicks": 128,
          "midi": 53,
          "name": "F3",
          "ticks": 93056,
          "time": 136.3125,
          "velocity": 0.7401574803149606
        },
        {
          "duration": 0.1875,
          "durationTicks": 128,
          "midi": 51,
          "name": "D#3",
          "ticks": 93184,
          "time": 136.5,
          "velocity": 0.7401574803149606
        },
        {
          "duration": 0.1875,
          "durationTicks": 128,
          "midi": 50,
          "name": "D3",
          "ticks": 93312,
          "time": 136.6875,
          "velocity": 0.7559055118110236
        },
        {
          "duration": 0.1875,
          "durationTicks": 128,
          "midi": 48,
          "name": "C3",
          "ticks": 93440,
          "time": 136.875,
          "velocity": 0.7637795275590551
        },
        {
          "duration": 0.1875,
          "durationTicks": 128,
          "midi": 46,
          "name": "A#2",
          "ticks": 93568,
          "time": 137.0625,
          "velocity": 0.7637795275590551
        },
        {
          "duration": 0.1875,
          "durationTicks": 128,
          "midi": 45,
          "name": "A2",
          "ticks": 93696,
          "time": 137.25,
          "velocity": 0.7637795275590551
        },
        {
          "duration": 0.1875,
          "durationTicks": 128,
          "midi": 48,
          "name": "C3",
          "ticks": 93824,
          "time": 137.4375,
          "velocity": 0.7952755905511811
        },
        {
          "duration": 0.1875,
          "durationTicks": 128,
          "midi": 53,
          "name": "F3",
          "ticks": 93952,
          "time": 137.625,
          "velocity": 0.8188976377952756
        },
        {
          "duration": 0.1875,
          "durationTicks": 128,
          "midi": 51,
          "name": "D#3",
          "ticks": 94080,
          "time": 137.8125,
          "velocity": 0.7480314960629921
        },
        {
          "duration": 0.375,
          "durationTicks": 256,
          "midi": 50,
          "name": "D3",
          "ticks": 94208,
          "time": 138,
          "velocity": 0.7637795275590551
        },
        {
          "duration": 0.375,
          "durationTicks": 256,
          "midi": 50,
          "name": "D3",
          "ticks": 94464,
          "time": 138.375,
          "velocity": 0.7637795275590551
        },
        {
          "duration": 0.375,
          "durationTicks": 256,
          "midi": 51,
          "name": "D#3",
          "ticks": 94720,
          "time": 138.75,
          "velocity": 0.7716535433070866
        },
        {
          "duration": 0.375,
          "durationTicks": 256,
          "midi": 53,
          "name": "F3",
          "ticks": 94976,
          "time": 139.125,
          "velocity": 0.8267716535433071
        },
        {
          "duration": 0.375,
          "durationTicks": 256,
          "midi": 55,
          "name": "G3",
          "ticks": 95232,
          "time": 139.5,
          "velocity": 0.7874015748031497
        },
        {
          "duration": 0.375,
          "durationTicks": 256,
          "midi": 51,
          "name": "D#3",
          "ticks": 95488,
          "time": 139.875,
          "velocity": 0.7480314960629921
        },
        {
          "duration": 0.375,
          "durationTicks": 256,
          "midi": 53,
          "name": "F3",
          "ticks": 95744,
          "time": 140.25,
          "velocity": 0.7795275590551181
        },
        {
          "duration": 0.375,
          "durationTicks": 256,
          "midi": 41,
          "name": "F2",
          "ticks": 96000,
          "time": 140.625,
          "velocity": 0.6692913385826772
        },
        {
          "duration": 0.375,
          "durationTicks": 256,
          "midi": 46,
          "name": "A#2",
          "ticks": 96256,
          "time": 141,
          "velocity": 0.8031496062992126
        },
        {
          "duration": 0.375,
          "durationTicks": 256,
          "midi": 53,
          "name": "F3",
          "ticks": 96768,
          "time": 141.75,
          "velocity": 0.7244094488188977
        },
        {
          "duration": 0.375,
          "durationTicks": 256,
          "midi": 58,
          "name": "A#3",
          "ticks": 97280,
          "time": 142.5,
          "velocity": 0.6771653543307087
        },
        {
          "duration": 0.375,
          "durationTicks": 256,
          "midi": 53,
          "name": "F3",
          "ticks": 97792,
          "time": 143.25,
          "velocity": 0.6850393700787402
        },
        {
          "duration": 0.375,
          "durationTicks": 256,
          "midi": 58,
          "name": "A#3",
          "ticks": 98304,
          "time": 144,
          "velocity": 0.6850393700787402
        },
        {
          "duration": 0.375,
          "durationTicks": 256,
          "midi": 53,
          "name": "F3",
          "ticks": 98816,
          "time": 144.75,
          "velocity": 0.6929133858267716
        },
        {
          "duration": 0.375,
          "durationTicks": 256,
          "midi": 58,
          "name": "A#3",
          "ticks": 99328,
          "time": 145.5,
          "velocity": 0.7086614173228346
        },
        {
          "duration": 0.375,
          "durationTicks": 256,
          "midi": 53,
          "name": "F3",
          "ticks": 99584,
          "time": 145.875,
          "velocity": 0.7480314960629921
        },
        {
          "duration": 0.375,
          "durationTicks": 256,
          "midi": 58,
          "name": "A#3",
          "ticks": 99840,
          "time": 146.25,
          "velocity": 0.8031496062992126
        },
        {
          "duration": 0.375,
          "durationTicks": 256,
          "midi": 53,
          "name": "F3",
          "ticks": 100096,
          "time": 146.625,
          "velocity": 0.7086614173228346
        },
        {
          "duration": 0.375,
          "durationTicks": 256,
          "midi": 58,
          "name": "A#3",
          "ticks": 100352,
          "time": 147,
          "velocity": 0.8031496062992126
        },
        {
          "duration": 0.375,
          "durationTicks": 256,
          "midi": 57,
          "name": "A3",
          "ticks": 101376,
          "time": 148.5,
          "velocity": 0.6771653543307087
        },
        {
          "duration": 0.375,
          "durationTicks": 256,
          "midi": 43,
          "name": "G2",
          "ticks": 102400,
          "time": 150,
          "velocity": 0.4251968503937008
        },
        {
          "duration": 0.375,
          "durationTicks": 256,
          "midi": 55,
          "name": "G3",
          "ticks": 103424,
          "time": 151.5,
          "velocity": 0.4409448818897638
        },
        {
          "duration": 0.375,
          "durationTicks": 256,
          "midi": 43,
          "name": "G2",
          "ticks": 104448,
          "time": 153,
          "velocity": 0.4409448818897638
        },
        {
          "duration": 0.375,
          "durationTicks": 256,
          "midi": 55,
          "name": "G3",
          "ticks": 105472,
          "time": 154.5,
          "velocity": 0.4330708661417323
        },
        {
          "duration": 0.375,
          "durationTicks": 256,
          "midi": 43,
          "name": "G2",
          "ticks": 106496,
          "time": 156,
          "velocity": 0.4015748031496063
        },
        {
          "duration": 0.375,
          "durationTicks": 256,
          "midi": 55,
          "name": "G3",
          "ticks": 107520,
          "time": 157.5,
          "velocity": 0.4330708661417323
        },
        {
          "duration": 0.375,
          "durationTicks": 256,
          "midi": 42,
          "name": "F#2",
          "ticks": 108544,
          "time": 159,
          "velocity": 0.4566929133858268
        },
        {
          "duration": 0.375,
          "durationTicks": 256,
          "midi": 50,
          "name": "D3",
          "ticks": 109568,
          "time": 160.5,
          "velocity": 0.4251968503937008
        },
        {
          "duration": 0.375,
          "durationTicks": 256,
          "midi": 43,
          "name": "G2",
          "ticks": 110592,
          "time": 162,
          "velocity": 0.4094488188976378
        },
        {
          "duration": 1.5,
          "durationTicks": 1024,
          "midi": 48,
          "name": "C3",
          "ticks": 111616,
          "time": 163.5,
          "velocity": 0.3937007874015748
        },
        {
          "duration": 1.5,
          "durationTicks": 1024,
          "midi": 46,
          "name": "A#2",
          "ticks": 112640,
          "time": 165,
          "velocity": 0.44881889763779526
        },
        {
          "duration": 1.5,
          "durationTicks": 1024,
          "midi": 48,
          "name": "C3",
          "ticks": 113664,
          "time": 166.5,
          "velocity": 0.49606299212598426
        },
        {
          "duration": 1.5,
          "durationTicks": 1024,
          "midi": 46,
          "name": "A#2",
          "ticks": 114688,
          "time": 168,
          "velocity": 0.48031496062992124
        },
        {
          "duration": 1.5,
          "durationTicks": 1024,
          "midi": 52,
          "name": "E3",
          "ticks": 115712,
          "time": 169.5,
          "velocity": 0.5275590551181102
        },
        {
          "duration": 1.5,
          "durationTicks": 1024,
          "midi": 51,
          "name": "D#3",
          "ticks": 116736,
          "time": 171,
          "velocity": 0.5118110236220472
        },
        {
          "duration": 0.75,
          "durationTicks": 512,
          "midi": 50,
          "name": "D3",
          "ticks": 117760,
          "time": 172.5,
          "velocity": 0.5196850393700787
        },
        {
          "duration": 0.1875,
          "durationTicks": 128,
          "midi": 50,
          "name": "D3",
          "ticks": 118528,
          "time": 173.625,
          "velocity": 0.7165354330708661
        },
        {
          "duration": 0.1875,
          "durationTicks": 128,
          "midi": 50,
          "name": "D3",
          "ticks": 118656,
          "time": 173.8125,
          "velocity": 0.7401574803149606
        },
        {
          "duration": 0.75,
          "durationTicks": 512,
          "midi": 50,
          "name": "D3",
          "ticks": 118784,
          "time": 174,
          "velocity": 0.7795275590551181
        },
        {
          "duration": 0.1875,
          "durationTicks": 128,
          "midi": 50,
          "name": "D3",
          "ticks": 119552,
          "time": 175.125,
          "velocity": 0.6850393700787402
        },
        {
          "duration": 0.1875,
          "durationTicks": 128,
          "midi": 50,
          "name": "D3",
          "ticks": 119680,
          "time": 175.3125,
          "velocity": 0.7795275590551181
        },
        {
          "duration": 0.75,
          "durationTicks": 512,
          "midi": 50,
          "name": "D3",
          "ticks": 119808,
          "time": 175.5,
          "velocity": 0.7716535433070866
        },
        {
          "duration": 0.1875,
          "durationTicks": 128,
          "midi": 50,
          "name": "D3",
          "ticks": 120576,
          "time": 176.625,
          "velocity": 0.6850393700787402
        },
        {
          "duration": 0.1875,
          "durationTicks": 128,
          "midi": 50,
          "name": "D3",
          "ticks": 120704,
          "time": 176.8125,
          "velocity": 0.7401574803149606
        },
        {
          "duration": 0.375,
          "durationTicks": 256,
          "midi": 50,
          "name": "D3",
          "ticks": 120832,
          "time": 177,
          "velocity": 0.7559055118110236
        },
        {
          "duration": 0.1875,
          "durationTicks": 128,
          "midi": 50,
          "name": "D3",
          "ticks": 121088,
          "time": 177.375,
          "velocity": 0.7716535433070866
        },
        {
          "duration": 0.1875,
          "durationTicks": 128,
          "midi": 50,
          "name": "D3",
          "ticks": 121216,
          "time": 177.5625,
          "velocity": 0.7795275590551181
        },
        {
          "duration": 0.375,
          "durationTicks": 256,
          "midi": 50,
          "name": "D3",
          "ticks": 121344,
          "time": 177.75,
          "velocity": 0.7716535433070866
        },
        {
          "duration": 0.1875,
          "durationTicks": 128,
          "midi": 50,
          "name": "D3",
          "ticks": 121600,
          "time": 178.125,
          "velocity": 0.7795275590551181
        },
        {
          "duration": 0.1875,
          "durationTicks": 128,
          "midi": 50,
          "name": "D3",
          "ticks": 121728,
          "time": 178.3125,
          "velocity": 0.7795275590551181
        },
        {
          "duration": 0.75,
          "durationTicks": 512,
          "midi": 50,
          "name": "D3",
          "ticks": 121856,
          "time": 178.5,
          "velocity": 0.7952755905511811
        },
        {
          "duration": 0.375,
          "durationTicks": 256,
          "midi": 43,
          "name": "G2",
          "ticks": 123904,
          "time": 181.5,
          "velocity": 0.4251968503937008
        },
        {
          "duration": 0.375,
          "durationTicks": 256,
          "midi": 55,
          "name": "G3",
          "ticks": 124928,
          "time": 183,
          "velocity": 0.3937007874015748
        },
        {
          "duration": 0.375,
          "durationTicks": 256,
          "midi": 39,
          "name": "D#2",
          "ticks": 125952,
          "time": 184.5,
          "velocity": 0.47244094488188976
        },
        {
          "duration": 0.375,
          "durationTicks": 256,
          "midi": 48,
          "name": "C3",
          "ticks": 126976,
          "time": 186,
          "velocity": 0.4330708661417323
        },
        {
          "duration": 0.375,
          "durationTicks": 256,
          "midi": 41,
          "name": "F2",
          "ticks": 128000,
          "time": 187.5,
          "velocity": 0.4251968503937008
        },
        {
          "duration": 0.375,
          "durationTicks": 256,
          "midi": 53,
          "name": "F3",
          "ticks": 129024,
          "time": 189,
          "velocity": 0.4645669291338583
        },
        {
          "duration": 0.1875,
          "durationTicks": 128,
          "midi": 58,
          "name": "A#3",
          "ticks": 130048,
          "time": 190.5,
          "velocity": 0.6850393700787402
        },
        {
          "duration": 0.1875,
          "durationTicks": 128,
          "midi": 62,
          "name": "D4",
          "ticks": 130176,
          "time": 190.6875,
          "velocity": 0.8110236220472441
        },
        {
          "duration": 0.1875,
          "durationTicks": 128,
          "midi": 58,
          "name": "A#3",
          "ticks": 130304,
          "time": 190.875,
          "velocity": 0.7244094488188977
        },
        {
          "duration": 0.1875,
          "durationTicks": 128,
          "midi": 62,
          "name": "D4",
          "ticks": 130432,
          "time": 191.0625,
          "velocity": 0.8582677165354331
        },
        {
          "duration": 0.1875,
          "durationTicks": 128,
          "midi": 58,
          "name": "A#3",
          "ticks": 130560,
          "time": 191.25,
          "velocity": 0.7480314960629921
        },
        {
          "duration": 0.1875,
          "durationTicks": 128,
          "midi": 62,
          "name": "D4",
          "ticks": 130688,
          "time": 191.4375,
          "velocity": 0.8740157480314961
        },
        {
          "duration": 0.1875,
          "durationTicks": 128,
          "midi": 58,
          "name": "A#3",
          "ticks": 130816,
          "time": 191.625,
          "velocity": 0.7401574803149606
        },
        {
          "duration": 0.1875,
          "durationTicks": 128,
          "midi": 62,
          "name": "D4",
          "ticks": 130944,
          "time": 191.8125,
          "velocity": 0.8503937007874016
        },
        {
          "duration": 0.1875,
          "durationTicks": 128,
          "midi": 57,
          "name": "A3",
          "ticks": 131072,
          "time": 192,
          "velocity": 0.7716535433070866
        },
        {
          "duration": 0.1875,
          "durationTicks": 128,
          "midi": 60,
          "name": "C4",
          "ticks": 131200,
          "time": 192.1875,
          "velocity": 0.8110236220472441
        },
        {
          "duration": 0.1875,
          "durationTicks": 128,
          "midi": 57,
          "name": "A3",
          "ticks": 131328,
          "time": 192.375,
          "velocity": 0.7480314960629921
        },
        {
          "duration": 0.1875,
          "durationTicks": 128,
          "midi": 60,
          "name": "C4",
          "ticks": 131456,
          "time": 192.5625,
          "velocity": 0.8267716535433071
        },
        {
          "duration": 0.1875,
          "durationTicks": 128,
          "midi": 57,
          "name": "A3",
          "ticks": 131584,
          "time": 192.75,
          "velocity": 0.7480314960629921
        },
        {
          "duration": 0.1875,
          "durationTicks": 128,
          "midi": 60,
          "name": "C4",
          "ticks": 131712,
          "time": 192.9375,
          "velocity": 0.8346456692913385
        },
        {
          "duration": 0.1875,
          "durationTicks": 128,
          "midi": 57,
          "name": "A3",
          "ticks": 131840,
          "time": 193.125,
          "velocity": 0.7401574803149606
        },
        {
          "duration": 0.1875,
          "durationTicks": 128,
          "midi": 60,
          "name": "C4",
          "ticks": 131968,
          "time": 193.3125,
          "velocity": 0.8582677165354331
        },
        {
          "duration": 0.1875,
          "durationTicks": 128,
          "midi": 55,
          "name": "G3",
          "ticks": 132096,
          "time": 193.5,
          "velocity": 0.7559055118110236
        },
        {
          "duration": 0.1875,
          "durationTicks": 128,
          "midi": 58,
          "name": "A#3",
          "ticks": 132224,
          "time": 193.6875,
          "velocity": 0.8031496062992126
        },
        {
          "duration": 0.1875,
          "durationTicks": 128,
          "midi": 55,
          "name": "G3",
          "ticks": 132352,
          "time": 193.875,
          "velocity": 0.7165354330708661
        },
        {
          "duration": 0.1875,
          "durationTicks": 128,
          "midi": 58,
          "name": "A#3",
          "ticks": 132480,
          "time": 194.0625,
          "velocity": 0.8110236220472441
        },
        {
          "duration": 0.1875,
          "durationTicks": 128,
          "midi": 55,
          "name": "G3",
          "ticks": 132608,
          "time": 194.25,
          "velocity": 0.7401574803149606
        },
        {
          "duration": 0.1875,
          "durationTicks": 128,
          "midi": 58,
          "name": "A#3",
          "ticks": 132736,
          "time": 194.4375,
          "velocity": 0.8188976377952756
        },
        {
          "duration": 0.1875,
          "durationTicks": 128,
          "midi": 55,
          "name": "G3",
          "ticks": 132864,
          "time": 194.625,
          "velocity": 0.7244094488188977
        },
        {
          "duration": 0.1875,
          "durationTicks": 128,
          "midi": 58,
          "name": "A#3",
          "ticks": 132992,
          "time": 194.8125,
          "velocity": 0.8267716535433071
        },
        {
          "duration": 0.1875,
          "durationTicks": 128,
          "midi": 53,
          "name": "F3",
          "ticks": 133120,
          "time": 195,
          "velocity": 0.7086614173228346
        },
        {
          "duration": 0.1875,
          "durationTicks": 128,
          "midi": 58,
          "name": "A#3",
          "ticks": 133248,
          "time": 195.1875,
          "velocity": 0.7874015748031497
        },
        {
          "duration": 0.1875,
          "durationTicks": 128,
          "midi": 53,
          "name": "F3",
          "ticks": 133376,
          "time": 195.375,
          "velocity": 0.7086614173228346
        },
        {
          "duration": 0.1875,
          "durationTicks": 128,
          "midi": 58,
          "name": "A#3",
          "ticks": 133504,
          "time": 195.5625,
          "velocity": 0.8031496062992126
        },
        {
          "duration": 0.1875,
          "durationTicks": 128,
          "midi": 53,
          "name": "F3",
          "ticks": 133632,
          "time": 195.75,
          "velocity": 0.7559055118110236
        },
        {
          "duration": 0.1875,
          "durationTicks": 128,
          "midi": 58,
          "name": "A#3",
          "ticks": 133760,
          "time": 195.9375,
          "velocity": 0.84251968503937
        },
        {
          "duration": 0.1875,
          "durationTicks": 128,
          "midi": 53,
          "name": "F3",
          "ticks": 133888,
          "time": 196.125,
          "velocity": 0.7165354330708661
        },
        {
          "duration": 0.1875,
          "durationTicks": 128,
          "midi": 58,
          "name": "A#3",
          "ticks": 134016,
          "time": 196.3125,
          "velocity": 0.7952755905511811
        },
        {
          "duration": 0.1875,
          "durationTicks": 128,
          "midi": 51,
          "name": "D#3",
          "ticks": 134144,
          "time": 196.5,
          "velocity": 0.6929133858267716
        },
        {
          "duration": 0.1875,
          "durationTicks": 128,
          "midi": 55,
          "name": "G3",
          "ticks": 134272,
          "time": 196.6875,
          "velocity": 0.84251968503937
        },
        {
          "duration": 0.1875,
          "durationTicks": 128,
          "midi": 51,
          "name": "D#3",
          "ticks": 134400,
          "time": 196.875,
          "velocity": 0.7322834645669292
        },
        {
          "duration": 0.1875,
          "durationTicks": 128,
          "midi": 55,
          "name": "G3",
          "ticks": 134528,
          "time": 197.0625,
          "velocity": 0.7874015748031497
        },
        {
          "duration": 0.1875,
          "durationTicks": 128,
          "midi": 51,
          "name": "D#3",
          "ticks": 134656,
          "time": 197.25,
          "velocity": 0.7322834645669292
        },
        {
          "duration": 0.1875,
          "durationTicks": 128,
          "midi": 55,
          "name": "G3",
          "ticks": 134784,
          "time": 197.4375,
          "velocity": 0.7795275590551181
        },
        {
          "duration": 0.1875,
          "durationTicks": 128,
          "midi": 51,
          "name": "D#3",
          "ticks": 134912,
          "time": 197.625,
          "velocity": 0.7322834645669292
        },
        {
          "duration": 0.1875,
          "durationTicks": 128,
          "midi": 55,
          "name": "G3",
          "ticks": 135040,
          "time": 197.8125,
          "velocity": 0.8188976377952756
        },
        {
          "duration": 0.1875,
          "durationTicks": 128,
          "midi": 50,
          "name": "D3",
          "ticks": 135168,
          "time": 198,
          "velocity": 0.7559055118110236
        },
        {
          "duration": 0.1875,
          "durationTicks": 128,
          "midi": 53,
          "name": "F3",
          "ticks": 135296,
          "time": 198.1875,
          "velocity": 0.7637795275590551
        },
        {
          "duration": 0.1875,
          "durationTicks": 128,
          "midi": 50,
          "name": "D3",
          "ticks": 135424,
          "time": 198.375,
          "velocity": 0.7637795275590551
        },
        {
          "duration": 0.1875,
          "durationTicks": 128,
          "midi": 53,
          "name": "F3",
          "ticks": 135552,
          "time": 198.5625,
          "velocity": 0.7480314960629921
        },
        {
          "duration": 0.1875,
          "durationTicks": 128,
          "midi": 50,
          "name": "D3",
          "ticks": 135680,
          "time": 198.75,
          "velocity": 0.7244094488188977
        },
        {
          "duration": 0.1875,
          "durationTicks": 128,
          "midi": 53,
          "name": "F3",
          "ticks": 135808,
          "time": 198.9375,
          "velocity": 0.8346456692913385
        },
        {
          "duration": 0.1875,
          "durationTicks": 128,
          "midi": 50,
          "name": "D3",
          "ticks": 135936,
          "time": 199.125,
          "velocity": 0.7322834645669292
        },
        {
          "duration": 0.1875,
          "durationTicks": 128,
          "midi": 53,
          "name": "F3",
          "ticks": 136064,
          "time": 199.3125,
          "velocity": 0.8110236220472441
        },
        {
          "duration": 0.75,
          "durationTicks": 512,
          "midi": 48,
          "name": "C3",
          "ticks": 136192,
          "time": 199.5,
          "velocity": 0.7244094488188977
        },
        {
          "duration": 0.375,
          "durationTicks": 256,
          "midi": 48,
          "name": "C3",
          "ticks": 137216,
          "time": 201,
          "velocity": 0.7559055118110236
        },
        {
          "duration": 0.375,
          "durationTicks": 256,
          "midi": 49,
          "name": "C#3",
          "ticks": 137728,
          "time": 201.75,
          "velocity": 0.7952755905511811
        },
        {
          "duration": 0.375,
          "durationTicks": 256,
          "midi": 48,
          "name": "C3",
          "ticks": 138240,
          "time": 202.5,
          "velocity": 0.7637795275590551
        },
        {
          "duration": 0.375,
          "durationTicks": 256,
          "midi": 49,
          "name": "C#3",
          "ticks": 138752,
          "time": 203.25,
          "velocity": 0.8110236220472441
        },
        {
          "duration": 0.375,
          "durationTicks": 256,
          "midi": 48,
          "name": "C3",
          "ticks": 139264,
          "time": 204,
          "velocity": 0.7401574803149606
        },
        {
          "duration": 0.1875,
          "durationTicks": 128,
          "midi": 48,
          "name": "C3",
          "ticks": 140160,
          "time": 205.3125,
          "velocity": 0.6850393700787402
        },
        {
          "duration": 0.1875,
          "durationTicks": 128,
          "midi": 53,
          "name": "F3",
          "ticks": 140288,
          "time": 205.5,
          "velocity": 0.8346456692913385
        },
        {
          "duration": 0.1875,
          "durationTicks": 128,
          "midi": 53,
          "name": "F3",
          "ticks": 140416,
          "time": 205.6875,
          "velocity": 0.7952755905511811
        },
        {
          "duration": 0.1875,
          "durationTicks": 128,
          "midi": 53,
          "name": "F3",
          "ticks": 140544,
          "time": 205.875,
          "velocity": 0.7401574803149606
        },
        {
          "duration": 0.1875,
          "durationTicks": 128,
          "midi": 53,
          "name": "F3",
          "ticks": 140672,
          "time": 206.0625,
          "velocity": 0.7795275590551181
        },
        {
          "duration": 0.1875,
          "durationTicks": 128,
          "midi": 53,
          "name": "F3",
          "ticks": 140800,
          "time": 206.25,
          "velocity": 0.7559055118110236
        },
        {
          "duration": 0.1875,
          "durationTicks": 128,
          "midi": 53,
          "name": "F3",
          "ticks": 140928,
          "time": 206.4375,
          "velocity": 0.7559055118110236
        },
        {
          "duration": 0.1875,
          "durationTicks": 128,
          "midi": 53,
          "name": "F3",
          "ticks": 141056,
          "time": 206.625,
          "velocity": 0.7716535433070866
        },
        {
          "duration": 0.1875,
          "durationTicks": 128,
          "midi": 53,
          "name": "F3",
          "ticks": 141184,
          "time": 206.8125,
          "velocity": 0.8110236220472441
        },
        {
          "duration": 0.1875,
          "durationTicks": 128,
          "midi": 53,
          "name": "F3",
          "ticks": 141312,
          "time": 207,
          "velocity": 0.7795275590551181
        },
        {
          "duration": 0.1875,
          "durationTicks": 128,
          "midi": 53,
          "name": "F3",
          "ticks": 141440,
          "time": 207.1875,
          "velocity": 0.7716535433070866
        },
        {
          "duration": 0.1875,
          "durationTicks": 128,
          "midi": 53,
          "name": "F3",
          "ticks": 141568,
          "time": 207.375,
          "velocity": 0.7795275590551181
        },
        {
          "duration": 0.1875,
          "durationTicks": 128,
          "midi": 53,
          "name": "F3",
          "ticks": 141696,
          "time": 207.5625,
          "velocity": 0.7952755905511811
        },
        {
          "duration": 0.1875,
          "durationTicks": 128,
          "midi": 53,
          "name": "F3",
          "ticks": 141824,
          "time": 207.75,
          "velocity": 0.7322834645669292
        },
        {
          "duration": 0.1875,
          "durationTicks": 128,
          "midi": 53,
          "name": "F3",
          "ticks": 141952,
          "time": 207.9375,
          "velocity": 0.7795275590551181
        },
        {
          "duration": 0.1875,
          "durationTicks": 128,
          "midi": 53,
          "name": "F3",
          "ticks": 142080,
          "time": 208.125,
          "velocity": 0.7637795275590551
        },
        {
          "duration": 0.1875,
          "durationTicks": 128,
          "midi": 53,
          "name": "F3",
          "ticks": 142208,
          "time": 208.3125,
          "velocity": 0.7795275590551181
        },
        {
          "duration": 0.1875,
          "durationTicks": 128,
          "midi": 53,
          "name": "F3",
          "ticks": 142336,
          "time": 208.5,
          "velocity": 0.7716535433070866
        },
        {
          "duration": 0.1875,
          "durationTicks": 128,
          "midi": 53,
          "name": "F3",
          "ticks": 142464,
          "time": 208.6875,
          "velocity": 0.7952755905511811
        },
        {
          "duration": 0.1875,
          "durationTicks": 128,
          "midi": 53,
          "name": "F3",
          "ticks": 142592,
          "time": 208.875,
          "velocity": 0.7716535433070866
        },
        {
          "duration": 0.1875,
          "durationTicks": 128,
          "midi": 53,
          "name": "F3",
          "ticks": 142720,
          "time": 209.0625,
          "velocity": 0.7480314960629921
        },
        {
          "duration": 0.1875,
          "durationTicks": 128,
          "midi": 53,
          "name": "F3",
          "ticks": 142848,
          "time": 209.25,
          "velocity": 0.7322834645669292
        },
        {
          "duration": 0.1875,
          "durationTicks": 128,
          "midi": 53,
          "name": "F3",
          "ticks": 142976,
          "time": 209.4375,
          "velocity": 0.8031496062992126
        },
        {
          "duration": 0.1875,
          "durationTicks": 128,
          "midi": 53,
          "name": "F3",
          "ticks": 143104,
          "time": 209.625,
          "velocity": 0.7795275590551181
        },
        {
          "duration": 0.1875,
          "durationTicks": 128,
          "midi": 53,
          "name": "F3",
          "ticks": 143232,
          "time": 209.8125,
          "velocity": 0.7637795275590551
        },
        {
          "duration": 0.1875,
          "durationTicks": 128,
          "midi": 53,
          "name": "F3",
          "ticks": 143360,
          "time": 210,
          "velocity": 0.7716535433070866
        },
        {
          "duration": 0.1875,
          "durationTicks": 128,
          "midi": 53,
          "name": "F3",
          "ticks": 143488,
          "time": 210.1875,
          "velocity": 0.7795275590551181
        },
        {
          "duration": 0.1875,
          "durationTicks": 128,
          "midi": 53,
          "name": "F3",
          "ticks": 143616,
          "time": 210.375,
          "velocity": 0.7322834645669292
        },
        {
          "duration": 0.1875,
          "durationTicks": 128,
          "midi": 53,
          "name": "F3",
          "ticks": 143744,
          "time": 210.5625,
          "velocity": 0.7795275590551181
        },
        {
          "duration": 0.1875,
          "durationTicks": 128,
          "midi": 53,
          "name": "F3",
          "ticks": 143872,
          "time": 210.75,
          "velocity": 0.7559055118110236
        },
        {
          "duration": 0.1875,
          "durationTicks": 128,
          "midi": 53,
          "name": "F3",
          "ticks": 144000,
          "time": 210.9375,
          "velocity": 0.7401574803149606
        },
        {
          "duration": 0.1875,
          "durationTicks": 128,
          "midi": 53,
          "name": "F3",
          "ticks": 144128,
          "time": 211.125,
          "velocity": 0.7716535433070866
        },
        {
          "duration": 0.1875,
          "durationTicks": 128,
          "midi": 53,
          "name": "F3",
          "ticks": 144256,
          "time": 211.3125,
          "velocity": 0.8188976377952756
        },
        {
          "duration": 0.375,
          "durationTicks": 256,
          "midi": 53,
          "name": "F3",
          "ticks": 144384,
          "time": 211.5,
          "velocity": 0.7716535433070866
        },
        {
          "duration": 0.375,
          "durationTicks": 256,
          "midi": 41,
          "name": "F2",
          "ticks": 144896,
          "time": 212.25,
          "velocity": 0.7007874015748031
        },
        {
          "duration": 1.14697265625,
          "durationTicks": 783,
          "midi": 62,
          "name": "D4",
          "ticks": 146432,
          "time": 214.5,
          "velocity": 0.44881889763779526
        },
        {
          "duration": 0.38232421875,
          "durationTicks": 261,
          "midi": 60,
          "name": "C4",
          "ticks": 147200,
          "time": 215.625,
          "velocity": 0.4015748031496063
        },
        {
          "duration": 0.35595703125,
          "durationTicks": 243,
          "midi": 53,
          "name": "F3",
          "ticks": 147456,
          "time": 216,
          "velocity": 0.4330708661417323
        },
        {
          "duration": 0.1875,
          "durationTicks": 128,
          "midi": 55,
          "name": "G3",
          "ticks": 148736,
          "time": 217.875,
          "velocity": 0.4409448818897638
        },
        {
          "duration": 0.38232421875,
          "durationTicks": 261,
          "midi": 55,
          "name": "G3",
          "ticks": 148992,
          "time": 218.25,
          "velocity": 0.4881889763779528
        },
        {
          "duration": 0.35595703125,
          "durationTicks": 243,
          "midi": 52,
          "name": "E3",
          "ticks": 149248,
          "time": 218.625,
          "velocity": 0.47244094488188976
        },
        {
          "duration": 0.75,
          "durationTicks": 512,
          "midi": 53,
          "name": "F3",
          "ticks": 149504,
          "time": 219,
          "velocity": 0.47244094488188976
        },
        {
          "duration": 1.14697265625,
          "durationTicks": 783,
          "midi": 51,
          "name": "D#3",
          "ticks": 150528,
          "time": 220.5,
          "velocity": 0.41732283464566927
        },
        {
          "duration": 0.35595703125,
          "durationTicks": 243,
          "midi": 50,
          "name": "D3",
          "ticks": 151296,
          "time": 221.625,
          "velocity": 0.4409448818897638
        },
        {
          "duration": 0.38232421875,
          "durationTicks": 261,
          "midi": 55,
          "name": "G3",
          "ticks": 151552,
          "time": 222,
          "velocity": 0.49606299212598426
        },
        {
          "duration": 0.38232421875,
          "durationTicks": 261,
          "midi": 48,
          "name": "C3",
          "ticks": 151808,
          "time": 222.375,
          "velocity": 0.47244094488188976
        },
        {
          "duration": 0.38232421875,
          "durationTicks": 261,
          "midi": 53,
          "name": "F3",
          "ticks": 152064,
          "time": 222.75,
          "velocity": 0.4881889763779528
        },
        {
          "duration": 0.35595703125,
          "durationTicks": 243,
          "midi": 46,
          "name": "A#2",
          "ticks": 152320,
          "time": 223.125,
          "velocity": 0.4566929133858268
        },
        {
          "duration": 0.375,
          "durationTicks": 256,
          "midi": 51,
          "name": "D#3",
          "ticks": 152576,
          "time": 223.5,
          "velocity": 0.49606299212598426
        },
        {
          "duration": 0.375,
          "durationTicks": 256,
          "midi": 53,
          "name": "F3",
          "ticks": 153088,
          "time": 224.25,
          "velocity": 0.41732283464566927
        },
        {
          "duration": 0.375,
          "durationTicks": 256,
          "midi": 46,
          "name": "A#2",
          "ticks": 153600,
          "time": 225,
          "velocity": 0.4094488188976378
        },
        {
          "duration": 1.14697265625,
          "durationTicks": 783,
          "midi": 63,
          "name": "D#4",
          "ticks": 158720,
          "time": 232.5,
          "velocity": 0.44881889763779526
        },
        {
          "duration": 0.35595703125,
          "durationTicks": 243,
          "midi": 62,
          "name": "D4",
          "ticks": 159488,
          "time": 233.625,
          "velocity": 0.41732283464566927
        },
        {
          "duration": 0.38232421875,
          "durationTicks": 261,
          "midi": 55,
          "name": "G3",
          "ticks": 159744,
          "time": 234,
          "velocity": 0.4094488188976378
        },
        {
          "duration": 0.38232421875,
          "durationTicks": 261,
          "midi": 60,
          "name": "C4",
          "ticks": 160000,
          "time": 234.375,
          "velocity": 0.47244094488188976
        },
        {
          "duration": 0.38232421875,
          "durationTicks": 261,
          "midi": 53,
          "name": "F3",
          "ticks": 160256,
          "time": 234.75,
          "velocity": 0.4409448818897638
        },
        {
          "duration": 0.35595703125,
          "durationTicks": 243,
          "midi": 58,
          "name": "A#3",
          "ticks": 160512,
          "time": 235.125,
          "velocity": 0.44881889763779526
        },
        {
          "duration": 1.5,
          "durationTicks": 1024,
          "midi": 51,
          "name": "D#3",
          "ticks": 160768,
          "time": 235.5,
          "velocity": 0.4330708661417323
        },
        {
          "duration": 1.5,
          "durationTicks": 1024,
          "midi": 51,
          "name": "D#3",
          "ticks": 161792,
          "time": 237,
          "velocity": 0.47244094488188976
        },
        {
          "duration": 1.5,
          "durationTicks": 1024,
          "midi": 51,
          "name": "D#3",
          "ticks": 162816,
          "time": 238.5,
          "velocity": 0.48031496062992124
        },
        {
          "duration": 1.5,
          "durationTicks": 1024,
          "midi": 51,
          "name": "D#3",
          "ticks": 163840,
          "time": 240,
          "velocity": 0.48031496062992124
        },
        {
          "duration": 0.1875,
          "durationTicks": 128,
          "midi": 51,
          "name": "D#3",
          "ticks": 164864,
          "time": 241.5,
          "velocity": 0.48031496062992124
        },
        {
          "duration": 0.1875,
          "durationTicks": 128,
          "midi": 51,
          "name": "D#3",
          "ticks": 164992,
          "time": 241.6875,
          "velocity": 0.47244094488188976
        },
        {
          "duration": 0.1875,
          "durationTicks": 128,
          "midi": 51,
          "name": "D#3",
          "ticks": 165120,
          "time": 241.875,
          "velocity": 0.4881889763779528
        },
        {
          "duration": 0.1875,
          "durationTicks": 128,
          "midi": 51,
          "name": "D#3",
          "ticks": 165248,
          "time": 242.0625,
          "velocity": 0.5196850393700787
        },
        {
          "duration": 0.1875,
          "durationTicks": 128,
          "midi": 51,
          "name": "D#3",
          "ticks": 165376,
          "time": 242.25,
          "velocity": 0.5748031496062992
        },
        {
          "duration": 0.1875,
          "durationTicks": 128,
          "midi": 51,
          "name": "D#3",
          "ticks": 165504,
          "time": 242.4375,
          "velocity": 0.5275590551181102
        },
        {
          "duration": 0.1875,
          "durationTicks": 128,
          "midi": 51,
          "name": "D#3",
          "ticks": 165632,
          "time": 242.625,
          "velocity": 0.5905511811023622
        },
        {
          "duration": 0.1875,
          "durationTicks": 128,
          "midi": 51,
          "name": "D#3",
          "ticks": 165760,
          "time": 242.8125,
          "velocity": 0.6299212598425197
        },
        {
          "duration": 0.1875,
          "durationTicks": 128,
          "midi": 52,
          "name": "E3",
          "ticks": 165888,
          "time": 243,
          "velocity": 0.6299212598425197
        },
        {
          "duration": 0.1875,
          "durationTicks": 128,
          "midi": 52,
          "name": "E3",
          "ticks": 166016,
          "time": 243.1875,
          "velocity": 0.6299212598425197
        },
        {
          "duration": 0.1875,
          "durationTicks": 128,
          "midi": 52,
          "name": "E3",
          "ticks": 166144,
          "time": 243.375,
          "velocity": 0.6692913385826772
        },
        {
          "duration": 0.1875,
          "durationTicks": 128,
          "midi": 52,
          "name": "E3",
          "ticks": 166272,
          "time": 243.5625,
          "velocity": 0.7007874015748031
        },
        {
          "duration": 0.1875,
          "durationTicks": 128,
          "midi": 52,
          "name": "E3",
          "ticks": 166400,
          "time": 243.75,
          "velocity": 0.6535433070866141
        },
        {
          "duration": 0.1875,
          "durationTicks": 128,
          "midi": 52,
          "name": "E3",
          "ticks": 166528,
          "time": 243.9375,
          "velocity": 0.7322834645669292
        },
        {
          "duration": 0.1875,
          "durationTicks": 128,
          "midi": 52,
          "name": "E3",
          "ticks": 166656,
          "time": 244.125,
          "velocity": 0.7401574803149606
        },
        {
          "duration": 0.1875,
          "durationTicks": 128,
          "midi": 52,
          "name": "E3",
          "ticks": 166784,
          "time": 244.3125,
          "velocity": 0.7322834645669292
        },
        {
          "duration": 0.1875,
          "durationTicks": 128,
          "midi": 53,
          "name": "F3",
          "ticks": 166912,
          "time": 244.5,
          "velocity": 0.7716535433070866
        },
        {
          "duration": 0.1875,
          "durationTicks": 128,
          "midi": 53,
          "name": "F3",
          "ticks": 167040,
          "time": 244.6875,
          "velocity": 0.7165354330708661
        },
        {
          "duration": 0.1875,
          "durationTicks": 128,
          "midi": 53,
          "name": "F3",
          "ticks": 167168,
          "time": 244.875,
          "velocity": 0.7716535433070866
        },
        {
          "duration": 0.1875,
          "durationTicks": 128,
          "midi": 53,
          "name": "F3",
          "ticks": 167296,
          "time": 245.0625,
          "velocity": 0.7559055118110236
        },
        {
          "duration": 0.1875,
          "durationTicks": 128,
          "midi": 53,
          "name": "F3",
          "ticks": 167424,
          "time": 245.25,
          "velocity": 0.7952755905511811
        },
        {
          "duration": 0.1875,
          "durationTicks": 128,
          "midi": 53,
          "name": "F3",
          "ticks": 167552,
          "time": 245.4375,
          "velocity": 0.7559055118110236
        },
        {
          "duration": 0.1875,
          "durationTicks": 128,
          "midi": 53,
          "name": "F3",
          "ticks": 167680,
          "time": 245.625,
          "velocity": 0.7637795275590551
        },
        {
          "duration": 0.1875,
          "durationTicks": 128,
          "midi": 53,
          "name": "F3",
          "ticks": 167808,
          "time": 245.8125,
          "velocity": 0.7795275590551181
        },
        {
          "duration": 0.1875,
          "durationTicks": 128,
          "midi": 41,
          "name": "F2",
          "ticks": 167936,
          "time": 246,
          "velocity": 0.7007874015748031
        },
        {
          "duration": 0.1875,
          "durationTicks": 128,
          "midi": 41,
          "name": "F2",
          "ticks": 168064,
          "time": 246.1875,
          "velocity": 0.7795275590551181
        },
        {
          "duration": 0.1875,
          "durationTicks": 128,
          "midi": 41,
          "name": "F2",
          "ticks": 168192,
          "time": 246.375,
          "velocity": 0.7401574803149606
        },
        {
          "duration": 0.1875,
          "durationTicks": 128,
          "midi": 41,
          "name": "F2",
          "ticks": 168320,
          "time": 246.5625,
          "velocity": 0.7716535433070866
        },
        {
          "duration": 0.1875,
          "durationTicks": 128,
          "midi": 41,
          "name": "F2",
          "ticks": 168448,
          "time": 246.75,
          "velocity": 0.7637795275590551
        },
        {
          "duration": 0.1875,
          "durationTicks": 128,
          "midi": 41,
          "name": "F2",
          "ticks": 168576,
          "time": 246.9375,
          "velocity": 0.7480314960629921
        },
        {
          "duration": 0.1875,
          "durationTicks": 128,
          "midi": 41,
          "name": "F2",
          "ticks": 168704,
          "time": 247.125,
          "velocity": 0.7322834645669292
        },
        {
          "duration": 0.1875,
          "durationTicks": 128,
          "midi": 41,
          "name": "F2",
          "ticks": 168832,
          "time": 247.3125,
          "velocity": 0.7716535433070866
        },
        {
          "duration": 0.375,
          "durationTicks": 256,
          "midi": 46,
          "name": "A#2",
          "ticks": 168960,
          "time": 247.5,
          "velocity": 0.8503937007874016
        },
        {
          "duration": 0.75,
          "durationTicks": 512,
          "midi": 50,
          "name": "D3",
          "ticks": 169216,
          "time": 247.875,
          "velocity": 0.7716535433070866
        },
        {
          "duration": 0.1875,
          "durationTicks": 128,
          "midi": 51,
          "name": "D#3",
          "ticks": 169728,
          "time": 248.625,
          "velocity": 0.8188976377952756
        },
        {
          "duration": 0.1875,
          "durationTicks": 128,
          "midi": 52,
          "name": "E3",
          "ticks": 169984,
          "time": 249,
          "velocity": 0.8031496062992126
        },
        {
          "duration": 0.1875,
          "durationTicks": 128,
          "midi": 53,
          "name": "F3",
          "ticks": 170240,
          "time": 249.375,
          "velocity": 0.7952755905511811
        },
        {
          "duration": 0.1875,
          "durationTicks": 128,
          "midi": 54,
          "name": "F#3",
          "ticks": 170496,
          "time": 249.75,
          "velocity": 0.7874015748031497
        },
        {
          "duration": 0.1875,
          "durationTicks": 128,
          "midi": 55,
          "name": "G3",
          "ticks": 170752,
          "time": 250.125,
          "velocity": 0.8188976377952756
        },
        {
          "duration": 0.375,
          "durationTicks": 256,
          "midi": 56,
          "name": "G#3",
          "ticks": 171008,
          "time": 250.5,
          "velocity": 0.7874015748031497
        },
        {
          "duration": 0.09375,
          "durationTicks": 64,
          "midi": 56,
          "name": "G#3",
          "ticks": 171456,
          "time": 251.15625,
          "velocity": 0.6850393700787402
        },
        {
          "duration": 0.375,
          "durationTicks": 256,
          "midi": 55,
          "name": "G3",
          "ticks": 171520,
          "time": 251.25,
          "velocity": 0.7480314960629921
        },
        {
          "duration": 0.09375,
          "durationTicks": 64,
          "midi": 55,
          "name": "G3",
          "ticks": 171968,
          "time": 251.90625,
          "velocity": 0.6929133858267716
        },
        {
          "duration": 0.375,
          "durationTicks": 256,
          "midi": 63,
          "name": "D#4",
          "ticks": 172032,
          "time": 252,
          "velocity": 0.905511811023622
        },
        {
          "duration": 0.09375,
          "durationTicks": 64,
          "midi": 63,
          "name": "D#4",
          "ticks": 172480,
          "time": 252.65625,
          "velocity": 0.7007874015748031
        },
        {
          "duration": 0.375,
          "durationTicks": 256,
          "midi": 62,
          "name": "D4",
          "ticks": 172544,
          "time": 252.75,
          "velocity": 0.7244094488188977
        },
        {
          "duration": 0.09375,
          "durationTicks": 64,
          "midi": 62,
          "name": "D4",
          "ticks": 172992,
          "time": 253.40625,
          "velocity": 0.6614173228346457
        },
        {
          "duration": 0.375,
          "durationTicks": 256,
          "midi": 51,
          "name": "D#3",
          "ticks": 173056,
          "time": 253.5,
          "velocity": 0.6692913385826772
        },
        {
          "duration": 0.375,
          "durationTicks": 256,
          "midi": 53,
          "name": "F3",
          "ticks": 174080,
          "time": 255,
          "velocity": 0.4330708661417323
        },
        {
          "duration": 1.5,
          "durationTicks": 1024,
          "midi": 51,
          "name": "D#3",
          "ticks": 176640,
          "time": 258.75,
          "velocity": 0.4094488188976378
        },
        {
          "duration": 0.35595703125,
          "durationTicks": 243,
          "midi": 50,
          "name": "D3",
          "ticks": 177664,
          "time": 260.25,
          "velocity": 0.4409448818897638
        },
        {
          "duration": 1.5,
          "durationTicks": 1024,
          "midi": 51,
          "name": "D#3",
          "ticks": 178688,
          "time": 261.75,
          "velocity": 0.4409448818897638
        },
        {
          "duration": 0.35595703125,
          "durationTicks": 243,
          "midi": 50,
          "name": "D3",
          "ticks": 179712,
          "time": 263.25,
          "velocity": 0.44881889763779526
        },
        {
          "duration": 0.1875,
          "durationTicks": 128,
          "midi": 50,
          "name": "D3",
          "ticks": 180224,
          "time": 264,
          "velocity": 0.6692913385826772
        },
        {
          "duration": 0.1875,
          "durationTicks": 128,
          "midi": 50,
          "name": "D3",
          "ticks": 180352,
          "time": 264.1875,
          "velocity": 0.7637795275590551
        },
        {
          "duration": 0.1875,
          "durationTicks": 128,
          "midi": 50,
          "name": "D3",
          "ticks": 180480,
          "time": 264.375,
          "velocity": 0.8031496062992126
        },
        {
          "duration": 0.1875,
          "durationTicks": 128,
          "midi": 50,
          "name": "D3",
          "ticks": 180608,
          "time": 264.5625,
          "velocity": 0.7165354330708661
        },
        {
          "duration": 0.1875,
          "durationTicks": 128,
          "midi": 50,
          "name": "D3",
          "ticks": 180736,
          "time": 264.75,
          "velocity": 0.7952755905511811
        },
        {
          "duration": 0.1875,
          "durationTicks": 128,
          "midi": 50,
          "name": "D3",
          "ticks": 180864,
          "time": 264.9375,
          "velocity": 0.7480314960629921
        },
        {
          "duration": 0.1875,
          "durationTicks": 128,
          "midi": 50,
          "name": "D3",
          "ticks": 180992,
          "time": 265.125,
          "velocity": 0.7637795275590551
        },
        {
          "duration": 0.1875,
          "durationTicks": 128,
          "midi": 50,
          "name": "D3",
          "ticks": 181120,
          "time": 265.3125,
          "velocity": 0.7637795275590551
        },
        {
          "duration": 0.1875,
          "durationTicks": 128,
          "midi": 55,
          "name": "G3",
          "ticks": 181248,
          "time": 265.5,
          "velocity": 0.8346456692913385
        },
        {
          "duration": 0.1875,
          "durationTicks": 128,
          "midi": 55,
          "name": "G3",
          "ticks": 181376,
          "time": 265.6875,
          "velocity": 0.7559055118110236
        },
        {
          "duration": 0.1875,
          "durationTicks": 128,
          "midi": 55,
          "name": "G3",
          "ticks": 181504,
          "time": 265.875,
          "velocity": 0.7637795275590551
        },
        {
          "duration": 0.1875,
          "durationTicks": 128,
          "midi": 55,
          "name": "G3",
          "ticks": 181632,
          "time": 266.0625,
          "velocity": 0.7480314960629921
        },
        {
          "duration": 0.1875,
          "durationTicks": 128,
          "midi": 51,
          "name": "D#3",
          "ticks": 181760,
          "time": 266.25,
          "velocity": 0.7007874015748031
        },
        {
          "duration": 0.1875,
          "durationTicks": 128,
          "midi": 51,
          "name": "D#3",
          "ticks": 181888,
          "time": 266.4375,
          "velocity": 0.7559055118110236
        },
        {
          "duration": 0.1875,
          "durationTicks": 128,
          "midi": 51,
          "name": "D#3",
          "ticks": 182016,
          "time": 266.625,
          "velocity": 0.7322834645669292
        },
        {
          "duration": 0.1875,
          "durationTicks": 128,
          "midi": 51,
          "name": "D#3",
          "ticks": 182144,
          "time": 266.8125,
          "velocity": 0.7244094488188977
        },
        {
          "duration": 0.1875,
          "durationTicks": 128,
          "midi": 53,
          "name": "F3",
          "ticks": 182272,
          "time": 267,
          "velocity": 0.7716535433070866
        },
        {
          "duration": 0.1875,
          "durationTicks": 128,
          "midi": 53,
          "name": "F3",
          "ticks": 182400,
          "time": 267.1875,
          "velocity": 0.7559055118110236
        },
        {
          "duration": 0.1875,
          "durationTicks": 128,
          "midi": 53,
          "name": "F3",
          "ticks": 182528,
          "time": 267.375,
          "velocity": 0.7795275590551181
        },
        {
          "duration": 0.1875,
          "durationTicks": 128,
          "midi": 53,
          "name": "F3",
          "ticks": 182656,
          "time": 267.5625,
          "velocity": 0.8110236220472441
        },
        {
          "duration": 0.1875,
          "durationTicks": 128,
          "midi": 41,
          "name": "F2",
          "ticks": 182784,
          "time": 267.75,
          "velocity": 0.6771653543307087
        },
        {
          "duration": 0.1875,
          "durationTicks": 128,
          "midi": 41,
          "name": "F2",
          "ticks": 182912,
          "time": 267.9375,
          "velocity": 0.7795275590551181
        },
        {
          "duration": 0.1875,
          "durationTicks": 128,
          "midi": 41,
          "name": "F2",
          "ticks": 183040,
          "time": 268.125,
          "velocity": 0.7637795275590551
        },
        {
          "duration": 0.1875,
          "durationTicks": 128,
          "midi": 41,
          "name": "F2",
          "ticks": 183168,
          "time": 268.3125,
          "velocity": 0.7637795275590551
        },
        {
          "duration": 0.375,
          "durationTicks": 256,
          "midi": 46,
          "name": "A#2",
          "ticks": 183296,
          "time": 268.5,
          "velocity": 0.84251968503937
        },
        {
          "duration": 1.875,
          "durationTicks": 1280,
          "midi": 58,
          "name": "A#3",
          "ticks": 183808,
          "time": 269.25,
          "velocity": 0.4094488188976378
        },
        {
          "duration": 1.5,
          "durationTicks": 1024,
          "midi": 46,
          "name": "A#2",
          "ticks": 185856,
          "time": 272.25,
          "velocity": 0.4409448818897638
        },
        {
          "duration": 0.35595703125,
          "durationTicks": 243,
          "midi": 45,
          "name": "A2",
          "ticks": 186880,
          "time": 273.75,
          "velocity": 0.4566929133858268
        },
        {
          "duration": 0.1875,
          "durationTicks": 128,
          "midi": 50,
          "name": "D3",
          "ticks": 188416,
          "time": 276,
          "velocity": 0.6535433070866141
        },
        {
          "duration": 0.1875,
          "durationTicks": 128,
          "midi": 50,
          "name": "D3",
          "ticks": 188544,
          "time": 276.1875,
          "velocity": 0.7716535433070866
        },
        {
          "duration": 0.1875,
          "durationTicks": 128,
          "midi": 50,
          "name": "D3",
          "ticks": 188672,
          "time": 276.375,
          "velocity": 0.7401574803149606
        },
        {
          "duration": 0.1875,
          "durationTicks": 128,
          "midi": 50,
          "name": "D3",
          "ticks": 188800,
          "time": 276.5625,
          "velocity": 0.7559055118110236
        },
        {
          "duration": 0.1875,
          "durationTicks": 128,
          "midi": 50,
          "name": "D3",
          "ticks": 188928,
          "time": 276.75,
          "velocity": 0.7716535433070866
        },
        {
          "duration": 0.1875,
          "durationTicks": 128,
          "midi": 50,
          "name": "D3",
          "ticks": 189056,
          "time": 276.9375,
          "velocity": 0.7480314960629921
        },
        {
          "duration": 0.1875,
          "durationTicks": 128,
          "midi": 50,
          "name": "D3",
          "ticks": 189184,
          "time": 277.125,
          "velocity": 0.7559055118110236
        },
        {
          "duration": 0.1875,
          "durationTicks": 128,
          "midi": 50,
          "name": "D3",
          "ticks": 189312,
          "time": 277.3125,
          "velocity": 0.7874015748031497
        },
        {
          "duration": 0.1875,
          "durationTicks": 128,
          "midi": 55,
          "name": "G3",
          "ticks": 189440,
          "time": 277.5,
          "velocity": 0.8267716535433071
        },
        {
          "duration": 0.1875,
          "durationTicks": 128,
          "midi": 55,
          "name": "G3",
          "ticks": 189568,
          "time": 277.6875,
          "velocity": 0.8031496062992126
        },
        {
          "duration": 0.1875,
          "durationTicks": 128,
          "midi": 55,
          "name": "G3",
          "ticks": 189696,
          "time": 277.875,
          "velocity": 0.7874015748031497
        },
        {
          "duration": 0.1875,
          "durationTicks": 128,
          "midi": 55,
          "name": "G3",
          "ticks": 189824,
          "time": 278.0625,
          "velocity": 0.7480314960629921
        },
        {
          "duration": 0.1875,
          "durationTicks": 128,
          "midi": 51,
          "name": "D#3",
          "ticks": 189952,
          "time": 278.25,
          "velocity": 0.7244094488188977
        },
        {
          "duration": 0.1875,
          "durationTicks": 128,
          "midi": 51,
          "name": "D#3",
          "ticks": 190080,
          "time": 278.4375,
          "velocity": 0.7637795275590551
        },
        {
          "duration": 0.1875,
          "durationTicks": 128,
          "midi": 51,
          "name": "D#3",
          "ticks": 190208,
          "time": 278.625,
          "velocity": 0.7480314960629921
        },
        {
          "duration": 0.1875,
          "durationTicks": 128,
          "midi": 51,
          "name": "D#3",
          "ticks": 190336,
          "time": 278.8125,
          "velocity": 0.7480314960629921
        },
        {
          "duration": 0.1875,
          "durationTicks": 128,
          "midi": 53,
          "name": "F3",
          "ticks": 190464,
          "time": 279,
          "velocity": 0.8188976377952756
        },
        {
          "duration": 0.1875,
          "durationTicks": 128,
          "midi": 53,
          "name": "F3",
          "ticks": 190592,
          "time": 279.1875,
          "velocity": 0.7716535433070866
        },
        {
          "duration": 0.1875,
          "durationTicks": 128,
          "midi": 53,
          "name": "F3",
          "ticks": 190720,
          "time": 279.375,
          "velocity": 0.7795275590551181
        },
        {
          "duration": 0.1875,
          "durationTicks": 128,
          "midi": 53,
          "name": "F3",
          "ticks": 190848,
          "time": 279.5625,
          "velocity": 0.7952755905511811
        },
        {
          "duration": 0.1875,
          "durationTicks": 128,
          "midi": 41,
          "name": "F2",
          "ticks": 190976,
          "time": 279.75,
          "velocity": 0.6377952755905512
        },
        {
          "duration": 0.1875,
          "durationTicks": 128,
          "midi": 41,
          "name": "F2",
          "ticks": 191104,
          "time": 279.9375,
          "velocity": 0.7480314960629921
        },
        {
          "duration": 0.1875,
          "durationTicks": 128,
          "midi": 41,
          "name": "F2",
          "ticks": 191232,
          "time": 280.125,
          "velocity": 0.7716535433070866
        },
        {
          "duration": 0.1875,
          "durationTicks": 128,
          "midi": 41,
          "name": "F2",
          "ticks": 191360,
          "time": 280.3125,
          "velocity": 0.7480314960629921
        },
        {
          "duration": 0.75,
          "durationTicks": 512,
          "midi": 46,
          "name": "A#2",
          "ticks": 191488,
          "time": 280.5,
          "velocity": 0.8188976377952756
        },
        {
          "duration": 0.1875,
          "durationTicks": 128,
          "midi": 65,
          "name": "F4",
          "ticks": 192384,
          "time": 281.8125,
          "velocity": 0.7086614173228346
        },
        {
          "duration": 0.1875,
          "durationTicks": 128,
          "midi": 63,
          "name": "D#4",
          "ticks": 192512,
          "time": 282,
          "velocity": 0.7086614173228346
        },
        {
          "duration": 0.1875,
          "durationTicks": 128,
          "midi": 62,
          "name": "D4",
          "ticks": 192640,
          "time": 282.1875,
          "velocity": 0.7244094488188977
        },
        {
          "duration": 0.1875,
          "durationTicks": 128,
          "midi": 60,
          "name": "C4",
          "ticks": 192768,
          "time": 282.375,
          "velocity": 0.7322834645669292
        },
        {
          "duration": 0.1875,
          "durationTicks": 128,
          "midi": 58,
          "name": "A#3",
          "ticks": 192896,
          "time": 282.5625,
          "velocity": 0.7559055118110236
        },
        {
          "duration": 0.1875,
          "durationTicks": 128,
          "midi": 57,
          "name": "A3",
          "ticks": 193024,
          "time": 282.75,
          "velocity": 0.7637795275590551
        },
        {
          "duration": 0.1875,
          "durationTicks": 128,
          "midi": 55,
          "name": "G3",
          "ticks": 193152,
          "time": 282.9375,
          "velocity": 0.7716535433070866
        },
        {
          "duration": 0.1875,
          "durationTicks": 128,
          "midi": 53,
          "name": "F3",
          "ticks": 193280,
          "time": 283.125,
          "velocity": 0.7401574803149606
        },
        {
          "duration": 0.1875,
          "durationTicks": 128,
          "midi": 51,
          "name": "D#3",
          "ticks": 193408,
          "time": 283.3125,
          "velocity": 0.7559055118110236
        },
        {
          "duration": 0.375,
          "durationTicks": 256,
          "midi": 50,
          "name": "D3",
          "ticks": 193536,
          "time": 283.5,
          "velocity": 0.7480314960629921
        },
        {
          "duration": 0.375,
          "durationTicks": 256,
          "midi": 50,
          "name": "D3",
          "ticks": 193792,
          "time": 283.875,
          "velocity": 0.7716535433070866
        },
        {
          "duration": 0.375,
          "durationTicks": 256,
          "midi": 51,
          "name": "D#3",
          "ticks": 194048,
          "time": 284.25,
          "velocity": 0.8031496062992126
        },
        {
          "duration": 0.375,
          "durationTicks": 256,
          "midi": 53,
          "name": "F3",
          "ticks": 194304,
          "time": 284.625,
          "velocity": 0.7401574803149606
        },
        {
          "duration": 0.1875,
          "durationTicks": 128,
          "midi": 58,
          "name": "A#3",
          "ticks": 194560,
          "time": 285,
          "velocity": 0.8346456692913385
        },
        {
          "duration": 0.1875,
          "durationTicks": 128,
          "midi": 53,
          "name": "F3",
          "ticks": 194688,
          "time": 285.1875,
          "velocity": 0.7480314960629921
        },
        {
          "duration": 0.1875,
          "durationTicks": 128,
          "midi": 62,
          "name": "D4",
          "ticks": 194816,
          "time": 285.375,
          "velocity": 0.9448818897637795
        },
        {
          "duration": 0.1875,
          "durationTicks": 128,
          "midi": 60,
          "name": "C4",
          "ticks": 194944,
          "time": 285.5625,
          "velocity": 0.7559055118110236
        },
        {
          "duration": 0.1875,
          "durationTicks": 128,
          "midi": 58,
          "name": "A#3",
          "ticks": 195072,
          "time": 285.75,
          "velocity": 0.7637795275590551
        },
        {
          "duration": 0.1875,
          "durationTicks": 128,
          "midi": 57,
          "name": "A3",
          "ticks": 195200,
          "time": 285.9375,
          "velocity": 0.7559055118110236
        },
        {
          "duration": 0.1875,
          "durationTicks": 128,
          "midi": 55,
          "name": "G3",
          "ticks": 195328,
          "time": 286.125,
          "velocity": 0.7165354330708661
        },
        {
          "duration": 0.1875,
          "durationTicks": 128,
          "midi": 53,
          "name": "F3",
          "ticks": 195456,
          "time": 286.3125,
          "velocity": 0.7401574803149606
        },
        {
          "duration": 0.1875,
          "durationTicks": 128,
          "midi": 51,
          "name": "D#3",
          "ticks": 195584,
          "time": 286.5,
          "velocity": 0.7322834645669292
        },
        {
          "duration": 0.1875,
          "durationTicks": 128,
          "midi": 50,
          "name": "D3",
          "ticks": 195712,
          "time": 286.6875,
          "velocity": 0.7559055118110236
        },
        {
          "duration": 0.1875,
          "durationTicks": 128,
          "midi": 48,
          "name": "C3",
          "ticks": 195840,
          "time": 286.875,
          "velocity": 0.7401574803149606
        },
        {
          "duration": 0.1875,
          "durationTicks": 128,
          "midi": 46,
          "name": "A#2",
          "ticks": 195968,
          "time": 287.0625,
          "velocity": 0.7165354330708661
        },
        {
          "duration": 0.1875,
          "durationTicks": 128,
          "midi": 45,
          "name": "A2",
          "ticks": 196096,
          "time": 287.25,
          "velocity": 0.7716535433070866
        },
        {
          "duration": 0.1875,
          "durationTicks": 128,
          "midi": 48,
          "name": "C3",
          "ticks": 196224,
          "time": 287.4375,
          "velocity": 0.8031496062992126
        },
        {
          "duration": 0.1875,
          "durationTicks": 128,
          "midi": 53,
          "name": "F3",
          "ticks": 196352,
          "time": 287.625,
          "velocity": 0.8346456692913385
        },
        {
          "duration": 0.1875,
          "durationTicks": 128,
          "midi": 51,
          "name": "D#3",
          "ticks": 196480,
          "time": 287.8125,
          "velocity": 0.7559055118110236
        },
        {
          "duration": 0.375,
          "durationTicks": 256,
          "midi": 50,
          "name": "D3",
          "ticks": 196608,
          "time": 288,
          "velocity": 0.7165354330708661
        },
        {
          "duration": 0.375,
          "durationTicks": 256,
          "midi": 50,
          "name": "D3",
          "ticks": 196864,
          "time": 288.375,
          "velocity": 0.8188976377952756
        },
        {
          "duration": 0.375,
          "durationTicks": 256,
          "midi": 51,
          "name": "D#3",
          "ticks": 197120,
          "time": 288.75,
          "velocity": 0.8031496062992126
        },
        {
          "duration": 0.375,
          "durationTicks": 256,
          "midi": 53,
          "name": "F3",
          "ticks": 197376,
          "time": 289.125,
          "velocity": 0.8031496062992126
        },
        {
          "duration": 0.375,
          "durationTicks": 256,
          "midi": 55,
          "name": "G3",
          "ticks": 197632,
          "time": 289.5,
          "velocity": 0.7795275590551181
        },
        {
          "duration": 0.375,
          "durationTicks": 256,
          "midi": 51,
          "name": "D#3",
          "ticks": 197888,
          "time": 289.875,
          "velocity": 0.7322834645669292
        },
        {
          "duration": 0.375,
          "durationTicks": 256,
          "midi": 53,
          "name": "F3",
          "ticks": 198144,
          "time": 290.25,
          "velocity": 0.7874015748031497
        },
        {
          "duration": 0.375,
          "durationTicks": 256,
          "midi": 41,
          "name": "F2",
          "ticks": 198400,
          "time": 290.625,
          "velocity": 0.6692913385826772
        },
        {
          "duration": 0.375,
          "durationTicks": 256,
          "midi": 46,
          "name": "A#2",
          "ticks": 198656,
          "time": 291,
          "velocity": 0.7795275590551181
        },
        {
          "duration": 0.375,
          "durationTicks": 256,
          "midi": 53,
          "name": "F3",
          "ticks": 199168,
          "time": 291.75,
          "velocity": 0.7322834645669292
        },
        {
          "duration": 0.375,
          "durationTicks": 256,
          "midi": 58,
          "name": "A#3",
          "ticks": 199680,
          "time": 292.5,
          "velocity": 0.6692913385826772
        },
        {
          "duration": 0.375,
          "durationTicks": 256,
          "midi": 53,
          "name": "F3",
          "ticks": 200192,
          "time": 293.25,
          "velocity": 0.7007874015748031
        },
        {
          "duration": 0.375,
          "durationTicks": 256,
          "midi": 58,
          "name": "A#3",
          "ticks": 200704,
          "time": 294,
          "velocity": 0.6850393700787402
        },
        {
          "duration": 0.375,
          "durationTicks": 256,
          "midi": 53,
          "name": "F3",
          "ticks": 201216,
          "time": 294.75,
          "velocity": 0.6850393700787402
        },
        {
          "duration": 0.375,
          "durationTicks": 256,
          "midi": 58,
          "name": "A#3",
          "ticks": 201728,
          "time": 295.5,
          "velocity": 0.6850393700787402
        },
        {
          "duration": 0.375,
          "durationTicks": 256,
          "midi": 53,
          "name": "F3",
          "ticks": 201984,
          "time": 295.875,
          "velocity": 0.7244094488188977
        },
        {
          "duration": 0.375,
          "durationTicks": 256,
          "midi": 58,
          "name": "A#3",
          "ticks": 202240,
          "time": 296.25,
          "velocity": 0.7952755905511811
        },
        {
          "duration": 0.375,
          "durationTicks": 256,
          "midi": 53,
          "name": "F3",
          "ticks": 202496,
          "time": 296.625,
          "velocity": 0.7007874015748031
        },
        {
          "duration": 0.375,
          "durationTicks": 256,
          "midi": 58,
          "name": "A#3",
          "ticks": 202752,
          "time": 297,
          "velocity": 0.8110236220472441
        },
        {
          "duration": 0.375,
          "durationTicks": 256,
          "midi": 57,
          "name": "A3",
          "ticks": 203776,
          "time": 298.5,
          "velocity": 0.6929133858267716
        },
        {
          "duration": 0.375,
          "durationTicks": 256,
          "midi": 55,
          "name": "G3",
          "ticks": 204800,
          "time": 300,
          "velocity": 0.6850393700787402
        },
        {
          "duration": 0.375,
          "durationTicks": 256,
          "midi": 53,
          "name": "F3",
          "ticks": 205312,
          "time": 300.75,
          "velocity": 0.7007874015748031
        },
        {
          "duration": 0.375,
          "durationTicks": 256,
          "midi": 42,
          "name": "F#2",
          "ticks": 208896,
          "time": 306,
          "velocity": 0.4409448818897638
        },
        {
          "duration": 0.375,
          "durationTicks": 256,
          "midi": 54,
          "name": "F#3",
          "ticks": 209920,
          "time": 307.5,
          "velocity": 0.4409448818897638
        },
        {
          "duration": 0.375,
          "durationTicks": 256,
          "midi": 42,
          "name": "F#2",
          "ticks": 210944,
          "time": 309,
          "velocity": 0.4251968503937008
        },
        {
          "duration": 0.375,
          "durationTicks": 256,
          "midi": 54,
          "name": "F#3",
          "ticks": 211968,
          "time": 310.5,
          "velocity": 0.4330708661417323
        },
        {
          "duration": 0.375,
          "durationTicks": 256,
          "midi": 41,
          "name": "F2",
          "ticks": 212992,
          "time": 312,
          "velocity": 0.41732283464566927
        },
        {
          "duration": 0.375,
          "durationTicks": 256,
          "midi": 53,
          "name": "F3",
          "ticks": 214016,
          "time": 313.5,
          "velocity": 0.4330708661417323
        },
        {
          "duration": 0.375,
          "durationTicks": 256,
          "midi": 40,
          "name": "E2",
          "ticks": 215040,
          "time": 315,
          "velocity": 0.4251968503937008
        },
        {
          "duration": 0.375,
          "durationTicks": 256,
          "midi": 52,
          "name": "E3",
          "ticks": 216064,
          "time": 316.5,
          "velocity": 0.4409448818897638
        },
        {
          "duration": 0.375,
          "durationTicks": 256,
          "midi": 39,
          "name": "D#2",
          "ticks": 217088,
          "time": 318,
          "velocity": 0.4251968503937008
        },
        {
          "duration": 0.375,
          "durationTicks": 256,
          "midi": 47,
          "name": "B2",
          "ticks": 218112,
          "time": 319.5,
          "velocity": 0.4251968503937008
        },
        {
          "duration": 0.1904296875,
          "durationTicks": 130,
          "midi": 60,
          "name": "C4",
          "ticks": 218880,
          "time": 320.625,
          "velocity": 0.6771653543307087
        },
        {
          "duration": 0.17724609375,
          "durationTicks": 121,
          "midi": 59,
          "name": "B3",
          "ticks": 219008,
          "time": 320.8125,
          "velocity": 0.6299212598425197
        },
        {
          "duration": 0.375,
          "durationTicks": 256,
          "midi": 59,
          "name": "B3",
          "ticks": 219136,
          "time": 321,
          "velocity": 0.8188976377952756
        },
        {
          "duration": 0.1904296875,
          "durationTicks": 130,
          "midi": 60,
          "name": "C4",
          "ticks": 219392,
          "time": 321.375,
          "velocity": 0.7874015748031497
        },
        {
          "duration": 0.17724609375,
          "durationTicks": 121,
          "midi": 59,
          "name": "B3",
          "ticks": 219520,
          "time": 321.5625,
          "velocity": 0.7874015748031497
        },
        {
          "duration": 0.375,
          "durationTicks": 256,
          "midi": 59,
          "name": "B3",
          "ticks": 219648,
          "time": 321.75,
          "velocity": 0.8031496062992126
        },
        {
          "duration": 0.1904296875,
          "durationTicks": 130,
          "midi": 60,
          "name": "C4",
          "ticks": 219904,
          "time": 322.125,
          "velocity": 0.7952755905511811
        },
        {
          "duration": 0.17724609375,
          "durationTicks": 121,
          "midi": 59,
          "name": "B3",
          "ticks": 220032,
          "time": 322.3125,
          "velocity": 0.7559055118110236
        },
        {
          "duration": 0.38232421875,
          "durationTicks": 261,
          "midi": 59,
          "name": "B3",
          "ticks": 220160,
          "time": 322.5,
          "velocity": 0.7480314960629921
        },
        {
          "duration": 0.35595703125,
          "durationTicks": 243,
          "midi": 67,
          "name": "G4",
          "ticks": 220416,
          "time": 322.875,
          "velocity": 0.8740157480314961
        },
        {
          "duration": 0.1904296875,
          "durationTicks": 130,
          "midi": 67,
          "name": "G4",
          "ticks": 220928,
          "time": 323.625,
          "velocity": 0.6771653543307087
        },
        {
          "duration": 0.17724609375,
          "durationTicks": 121,
          "midi": 66,
          "name": "F#4",
          "ticks": 221056,
          "time": 323.8125,
          "velocity": 0.6220472440944882
        },
        {
          "duration": 0.375,
          "durationTicks": 256,
          "midi": 64,
          "name": "E4",
          "ticks": 221184,
          "time": 324,
          "velocity": 0.7322834645669292
        },
        {
          "duration": 0.1904296875,
          "durationTicks": 130,
          "midi": 64,
          "name": "E4",
          "ticks": 221440,
          "time": 324.375,
          "velocity": 0.7637795275590551
        },
        {
          "duration": 0.17724609375,
          "durationTicks": 121,
          "midi": 62,
          "name": "D4",
          "ticks": 221568,
          "time": 324.5625,
          "velocity": 0.7086614173228346
        },
        {
          "duration": 0.375,
          "durationTicks": 256,
          "midi": 60,
          "name": "C4",
          "ticks": 221696,
          "time": 324.75,
          "velocity": 0.7086614173228346
        },
        {
          "duration": 0.1904296875,
          "durationTicks": 130,
          "midi": 60,
          "name": "C4",
          "ticks": 221952,
          "time": 325.125,
          "velocity": 0.7559055118110236
        },
        {
          "duration": 0.17724609375,
          "durationTicks": 121,
          "midi": 59,
          "name": "B3",
          "ticks": 222080,
          "time": 325.3125,
          "velocity": 0.7637795275590551
        },
        {
          "duration": 0.09375,
          "durationTicks": 64,
          "midi": 57,
          "name": "A3",
          "ticks": 222208,
          "time": 325.5,
          "velocity": 0.7637795275590551
        },
        {
          "duration": 0.09375,
          "durationTicks": 64,
          "midi": 59,
          "name": "B3",
          "ticks": 222336,
          "time": 325.6875,
          "velocity": 0.7795275590551181
        },
        {
          "duration": 0.09375,
          "durationTicks": 64,
          "midi": 60,
          "name": "C4",
          "ticks": 222464,
          "time": 325.875,
          "velocity": 0.8031496062992126
        },
        {
          "duration": 0.09375,
          "durationTicks": 64,
          "midi": 59,
          "name": "B3",
          "ticks": 222592,
          "time": 326.0625,
          "velocity": 0.7716535433070866
        },
        {
          "duration": 0.09375,
          "durationTicks": 64,
          "midi": 57,
          "name": "A3",
          "ticks": 222720,
          "time": 326.25,
          "velocity": 0.7480314960629921
        },
        {
          "duration": 0.09375,
          "durationTicks": 64,
          "midi": 58,
          "name": "A#3",
          "ticks": 222848,
          "time": 326.4375,
          "velocity": 0.7637795275590551
        },
        {
          "duration": 0.09375,
          "durationTicks": 64,
          "midi": 55,
          "name": "G3",
          "ticks": 222976,
          "time": 326.625,
          "velocity": 0.7637795275590551
        },
        {
          "duration": 0.09375,
          "durationTicks": 64,
          "midi": 57,
          "name": "A3",
          "ticks": 223104,
          "time": 326.8125,
          "velocity": 0.7795275590551181
        },
        {
          "duration": 0.09375,
          "durationTicks": 64,
          "midi": 53,
          "name": "F3",
          "ticks": 223232,
          "time": 327,
          "velocity": 0.7086614173228346
        },
        {
          "duration": 0.09375,
          "durationTicks": 64,
          "midi": 57,
          "name": "A3",
          "ticks": 223360,
          "time": 327.1875,
          "velocity": 0.8503937007874016
        },
        {
          "duration": 0.09375,
          "durationTicks": 64,
          "midi": 62,
          "name": "D4",
          "ticks": 223488,
          "time": 327.375,
          "velocity": 0.8976377952755905
        },
        {
          "duration": 0.09375,
          "durationTicks": 64,
          "midi": 53,
          "name": "F3",
          "ticks": 223616,
          "time": 327.5625,
          "velocity": 0.6929133858267716
        },
        {
          "duration": 0.09375,
          "durationTicks": 64,
          "midi": 52,
          "name": "E3",
          "ticks": 223744,
          "time": 327.75,
          "velocity": 0.7401574803149606
        },
        {
          "duration": 0.09375,
          "durationTicks": 64,
          "midi": 55,
          "name": "G3",
          "ticks": 223872,
          "time": 327.9375,
          "velocity": 0.7795275590551181
        },
        {
          "duration": 0.09375,
          "durationTicks": 64,
          "midi": 61,
          "name": "C#4",
          "ticks": 224000,
          "time": 328.125,
          "velocity": 0.8661417322834646
        },
        {
          "duration": 0.09375,
          "durationTicks": 64,
          "midi": 52,
          "name": "E3",
          "ticks": 224128,
          "time": 328.3125,
          "velocity": 0.7007874015748031
        },
        {
          "duration": 0.1875,
          "durationTicks": 128,
          "midi": 50,
          "name": "D3",
          "ticks": 224256,
          "time": 328.5,
          "velocity": 0.7244094488188977
        },
        {
          "duration": 0.1875,
          "durationTicks": 128,
          "midi": 45,
          "name": "A2",
          "ticks": 224384,
          "time": 328.6875,
          "velocity": 0.6771653543307087
        },
        {
          "duration": 0.1875,
          "durationTicks": 128,
          "midi": 47,
          "name": "B2",
          "ticks": 224512,
          "time": 328.875,
          "velocity": 0.7716535433070866
        },
        {
          "duration": 0.1875,
          "durationTicks": 128,
          "midi": 49,
          "name": "C#3",
          "ticks": 224640,
          "time": 329.0625,
          "velocity": 0.7637795275590551
        },
        {
          "duration": 0.1875,
          "durationTicks": 128,
          "midi": 50,
          "name": "D3",
          "ticks": 224768,
          "time": 329.25,
          "velocity": 0.7874015748031497
        },
        {
          "duration": 0.1875,
          "durationTicks": 128,
          "midi": 45,
          "name": "A2",
          "ticks": 224896,
          "time": 329.4375,
          "velocity": 0.7165354330708661
        },
        {
          "duration": 0.1875,
          "durationTicks": 128,
          "midi": 50,
          "name": "D3",
          "ticks": 225024,
          "time": 329.625,
          "velocity": 0.8110236220472441
        },
        {
          "duration": 0.1875,
          "durationTicks": 128,
          "midi": 52,
          "name": "E3",
          "ticks": 225152,
          "time": 329.8125,
          "velocity": 0.7952755905511811
        },
        {
          "duration": 0.1875,
          "durationTicks": 128,
          "midi": 53,
          "name": "F3",
          "ticks": 225280,
          "time": 330,
          "velocity": 0.8188976377952756
        },
        {
          "duration": 0.1875,
          "durationTicks": 128,
          "midi": 50,
          "name": "D3",
          "ticks": 225408,
          "time": 330.1875,
          "velocity": 0.7795275590551181
        },
        {
          "duration": 0.1875,
          "durationTicks": 128,
          "midi": 52,
          "name": "E3",
          "ticks": 225536,
          "time": 330.375,
          "velocity": 0.8110236220472441
        },
        {
          "duration": 0.1875,
          "durationTicks": 128,
          "midi": 54,
          "name": "F#3",
          "ticks": 225664,
          "time": 330.5625,
          "velocity": 0.7716535433070866
        },
        {
          "duration": 0.1875,
          "durationTicks": 128,
          "midi": 55,
          "name": "G3",
          "ticks": 225792,
          "time": 330.75,
          "velocity": 0.7952755905511811
        },
        {
          "duration": 0.1875,
          "durationTicks": 128,
          "midi": 50,
          "name": "D3",
          "ticks": 225920,
          "time": 330.9375,
          "velocity": 0.7559055118110236
        },
        {
          "duration": 0.1875,
          "durationTicks": 128,
          "midi": 55,
          "name": "G3",
          "ticks": 226048,
          "time": 331.125,
          "velocity": 0.8267716535433071
        },
        {
          "duration": 0.1875,
          "durationTicks": 128,
          "midi": 57,
          "name": "A3",
          "ticks": 226176,
          "time": 331.3125,
          "velocity": 0.7874015748031497
        },
        {
          "duration": 0.375,
          "durationTicks": 256,
          "midi": 58,
          "name": "A#3",
          "ticks": 226304,
          "time": 331.5,
          "velocity": 0.7952755905511811
        },
        {
          "duration": 0.375,
          "durationTicks": 256,
          "midi": 43,
          "name": "G2",
          "ticks": 226560,
          "time": 331.875,
          "velocity": 0.7007874015748031
        },
        {
          "duration": 0.1904296875,
          "durationTicks": 130,
          "midi": 57,
          "name": "A3",
          "ticks": 227072,
          "time": 332.625,
          "velocity": 0.6771653543307087
        },
        {
          "duration": 0.17724609375,
          "durationTicks": 121,
          "midi": 55,
          "name": "G3",
          "ticks": 227200,
          "time": 332.8125,
          "velocity": 0.6456692913385826
        },
        {
          "duration": 0.375,
          "durationTicks": 256,
          "midi": 55,
          "name": "G3",
          "ticks": 227328,
          "time": 333,
          "velocity": 0.7322834645669292
        },
        {
          "duration": 0.1904296875,
          "durationTicks": 130,
          "midi": 57,
          "name": "A3",
          "ticks": 227584,
          "time": 333.375,
          "velocity": 0.7716535433070866
        },
        {
          "duration": 0.17724609375,
          "durationTicks": 121,
          "midi": 55,
          "name": "G3",
          "ticks": 227712,
          "time": 333.5625,
          "velocity": 0.7716535433070866
        },
        {
          "duration": 0.375,
          "durationTicks": 256,
          "midi": 55,
          "name": "G3",
          "ticks": 227840,
          "time": 333.75,
          "velocity": 0.7559055118110236
        },
        {
          "duration": 0.1904296875,
          "durationTicks": 130,
          "midi": 57,
          "name": "A3",
          "ticks": 228096,
          "time": 334.125,
          "velocity": 0.8110236220472441
        },
        {
          "duration": 0.17724609375,
          "durationTicks": 121,
          "midi": 55,
          "name": "G3",
          "ticks": 228224,
          "time": 334.3125,
          "velocity": 0.7874015748031497
        },
        {
          "duration": 0.38232421875,
          "durationTicks": 261,
          "midi": 55,
          "name": "G3",
          "ticks": 228352,
          "time": 334.5,
          "velocity": 0.7401574803149606
        },
        {
          "duration": 0.35595703125,
          "durationTicks": 243,
          "midi": 64,
          "name": "E4",
          "ticks": 228608,
          "time": 334.875,
          "velocity": 0.905511811023622
        },
        {
          "duration": 0.1904296875,
          "durationTicks": 130,
          "midi": 64,
          "name": "E4",
          "ticks": 229120,
          "time": 335.625,
          "velocity": 0.6771653543307087
        },
        {
          "duration": 0.17724609375,
          "durationTicks": 121,
          "midi": 62,
          "name": "D4",
          "ticks": 229248,
          "time": 335.8125,
          "velocity": 0.5826771653543307
        },
        {
          "duration": 0.375,
          "durationTicks": 256,
          "midi": 60,
          "name": "C4",
          "ticks": 229376,
          "time": 336,
          "velocity": 0.6929133858267716
        },
        {
          "duration": 0.1904296875,
          "durationTicks": 130,
          "midi": 60,
          "name": "C4",
          "ticks": 229632,
          "time": 336.375,
          "velocity": 0.7716535433070866
        },
        {
          "duration": 0.17724609375,
          "durationTicks": 121,
          "midi": 58,
          "name": "A#3",
          "ticks": 229760,
          "time": 336.5625,
          "velocity": 0.7007874015748031
        },
        {
          "duration": 0.375,
          "durationTicks": 256,
          "midi": 57,
          "name": "A3",
          "ticks": 229888,
          "time": 336.75,
          "velocity": 0.7559055118110236
        },
        {
          "duration": 0.1875,
          "durationTicks": 128,
          "midi": 57,
          "name": "A3",
          "ticks": 230144,
          "time": 337.125,
          "velocity": 0.7716535433070866
        },
        {
          "duration": 0.1875,
          "durationTicks": 128,
          "midi": 55,
          "name": "G3",
          "ticks": 230272,
          "time": 337.3125,
          "velocity": 0.7244094488188977
        },
        {
          "duration": 0.09375,
          "durationTicks": 64,
          "midi": 53,
          "name": "F3",
          "ticks": 230400,
          "time": 337.5,
          "velocity": 0.7401574803149606
        },
        {
          "duration": 0.09375,
          "durationTicks": 64,
          "midi": 55,
          "name": "G3",
          "ticks": 230528,
          "time": 337.6875,
          "velocity": 0.7637795275590551
        },
        {
          "duration": 0.09375,
          "durationTicks": 64,
          "midi": 57,
          "name": "A3",
          "ticks": 230656,
          "time": 337.875,
          "velocity": 0.7795275590551181
        },
        {
          "duration": 0.09375,
          "durationTicks": 64,
          "midi": 55,
          "name": "G3",
          "ticks": 230784,
          "time": 338.0625,
          "velocity": 0.7086614173228346
        },
        {
          "duration": 0.09375,
          "durationTicks": 64,
          "midi": 53,
          "name": "F3",
          "ticks": 230912,
          "time": 338.25,
          "velocity": 0.7322834645669292
        },
        {
          "duration": 0.09375,
          "durationTicks": 64,
          "midi": 55,
          "name": "G3",
          "ticks": 231040,
          "time": 338.4375,
          "velocity": 0.7952755905511811
        },
        {
          "duration": 0.09375,
          "durationTicks": 64,
          "midi": 51,
          "name": "D#3",
          "ticks": 231168,
          "time": 338.625,
          "velocity": 0.7244094488188977
        },
        {
          "duration": 0.09375,
          "durationTicks": 64,
          "midi": 53,
          "name": "F3",
          "ticks": 231296,
          "time": 338.8125,
          "velocity": 0.7716535433070866
        },
        {
          "duration": 0.09375,
          "durationTicks": 64,
          "midi": 50,
          "name": "D3",
          "ticks": 231424,
          "time": 339,
          "velocity": 0.7795275590551181
        },
        {
          "duration": 0.09375,
          "durationTicks": 64,
          "midi": 53,
          "name": "F3",
          "ticks": 231552,
          "time": 339.1875,
          "velocity": 0.7952755905511811
        },
        {
          "duration": 0.09375,
          "durationTicks": 64,
          "midi": 58,
          "name": "A#3",
          "ticks": 231680,
          "time": 339.375,
          "velocity": 0.8110236220472441
        },
        {
          "duration": 0.09375,
          "durationTicks": 64,
          "midi": 50,
          "name": "D3",
          "ticks": 231808,
          "time": 339.5625,
          "velocity": 0.6929133858267716
        },
        {
          "duration": 0.09375,
          "durationTicks": 64,
          "midi": 48,
          "name": "C3",
          "ticks": 231936,
          "time": 339.75,
          "velocity": 0.7244094488188977
        },
        {
          "duration": 0.09375,
          "durationTicks": 64,
          "midi": 51,
          "name": "D#3",
          "ticks": 232064,
          "time": 339.9375,
          "velocity": 0.7874015748031497
        },
        {
          "duration": 0.09375,
          "durationTicks": 64,
          "midi": 57,
          "name": "A3",
          "ticks": 232192,
          "time": 340.125,
          "velocity": 0.7952755905511811
        },
        {
          "duration": 0.09375,
          "durationTicks": 64,
          "midi": 48,
          "name": "C3",
          "ticks": 232320,
          "time": 340.3125,
          "velocity": 0.6929133858267716
        },
        {
          "duration": 0.09375,
          "durationTicks": 64,
          "midi": 46,
          "name": "A#2",
          "ticks": 232448,
          "time": 340.5,
          "velocity": 0.7559055118110236
        },
        {
          "duration": 0.09375,
          "durationTicks": 64,
          "midi": 41,
          "name": "F2",
          "ticks": 232576,
          "time": 340.6875,
          "velocity": 0.6771653543307087
        },
        {
          "duration": 0.09375,
          "durationTicks": 64,
          "midi": 43,
          "name": "G2",
          "ticks": 232704,
          "time": 340.875,
          "velocity": 0.7559055118110236
        },
        {
          "duration": 0.09375,
          "durationTicks": 64,
          "midi": 45,
          "name": "A2",
          "ticks": 232832,
          "time": 341.0625,
          "velocity": 0.7874015748031497
        },
        {
          "duration": 0.09375,
          "durationTicks": 64,
          "midi": 46,
          "name": "A#2",
          "ticks": 232960,
          "time": 341.25,
          "velocity": 0.8031496062992126
        },
        {
          "duration": 0.09375,
          "durationTicks": 64,
          "midi": 45,
          "name": "A2",
          "ticks": 233088,
          "time": 341.4375,
          "velocity": 0.7795275590551181
        },
        {
          "duration": 0.09375,
          "durationTicks": 64,
          "midi": 46,
          "name": "A#2",
          "ticks": 233216,
          "time": 341.625,
          "velocity": 0.8188976377952756
        },
        {
          "duration": 0.09375,
          "durationTicks": 64,
          "midi": 48,
          "name": "C3",
          "ticks": 233344,
          "time": 341.8125,
          "velocity": 0.7637795275590551
        },
        {
          "duration": 0.09375,
          "durationTicks": 64,
          "midi": 50,
          "name": "D3",
          "ticks": 233472,
          "time": 342,
          "velocity": 0.7795275590551181
        },
        {
          "duration": 0.09375,
          "durationTicks": 64,
          "midi": 46,
          "name": "A#2",
          "ticks": 233600,
          "time": 342.1875,
          "velocity": 0.7086614173228346
        },
        {
          "duration": 0.09375,
          "durationTicks": 64,
          "midi": 48,
          "name": "C3",
          "ticks": 233728,
          "time": 342.375,
          "velocity": 0.7637795275590551
        },
        {
          "duration": 0.09375,
          "durationTicks": 64,
          "midi": 50,
          "name": "D3",
          "ticks": 233856,
          "time": 342.5625,
          "velocity": 0.8267716535433071
        },
        {
          "duration": 0.09375,
          "durationTicks": 64,
          "midi": 51,
          "name": "D#3",
          "ticks": 233984,
          "time": 342.75,
          "velocity": 0.7874015748031497
        },
        {
          "duration": 0.09375,
          "durationTicks": 64,
          "midi": 50,
          "name": "D3",
          "ticks": 234112,
          "time": 342.9375,
          "velocity": 0.7401574803149606
        },
        {
          "duration": 0.09375,
          "durationTicks": 64,
          "midi": 51,
          "name": "D#3",
          "ticks": 234240,
          "time": 343.125,
          "velocity": 0.8346456692913385
        },
        {
          "duration": 0.09375,
          "durationTicks": 64,
          "midi": 53,
          "name": "F3",
          "ticks": 234368,
          "time": 343.3125,
          "velocity": 0.7952755905511811
        },
        {
          "duration": 0.1875,
          "durationTicks": 128,
          "midi": 55,
          "name": "G3",
          "ticks": 234496,
          "time": 343.5,
          "velocity": 0.7952755905511811
        },
        {
          "duration": 0.1875,
          "durationTicks": 128,
          "midi": 39,
          "name": "D#2",
          "ticks": 234624,
          "time": 343.6875,
          "velocity": 0.6377952755905512
        },
        {
          "duration": 0.1875,
          "durationTicks": 128,
          "midi": 41,
          "name": "F2",
          "ticks": 234752,
          "time": 343.875,
          "velocity": 0.7874015748031497
        },
        {
          "duration": 0.1875,
          "durationTicks": 128,
          "midi": 43,
          "name": "G2",
          "ticks": 234880,
          "time": 344.0625,
          "velocity": 0.8031496062992126
        },
        {
          "duration": 0.1875,
          "durationTicks": 128,
          "midi": 45,
          "name": "A2",
          "ticks": 235008,
          "time": 344.25,
          "velocity": 0.7874015748031497
        },
        {
          "duration": 0.1875,
          "durationTicks": 128,
          "midi": 43,
          "name": "G2",
          "ticks": 235136,
          "time": 344.4375,
          "velocity": 0.7637795275590551
        },
        {
          "duration": 0.1875,
          "durationTicks": 128,
          "midi": 45,
          "name": "A2",
          "ticks": 235264,
          "time": 344.625,
          "velocity": 0.8031496062992126
        },
        {
          "duration": 0.1875,
          "durationTicks": 128,
          "midi": 46,
          "name": "A#2",
          "ticks": 235392,
          "time": 344.8125,
          "velocity": 0.7795275590551181
        },
        {
          "duration": 0.1875,
          "durationTicks": 128,
          "midi": 48,
          "name": "C3",
          "ticks": 235520,
          "time": 345,
          "velocity": 0.8031496062992126
        },
        {
          "duration": 0.1875,
          "durationTicks": 128,
          "midi": 45,
          "name": "A2",
          "ticks": 235648,
          "time": 345.1875,
          "velocity": 0.7480314960629921
        },
        {
          "duration": 0.1875,
          "durationTicks": 128,
          "midi": 46,
          "name": "A#2",
          "ticks": 235776,
          "time": 345.375,
          "velocity": 0.7795275590551181
        },
        {
          "duration": 0.1875,
          "durationTicks": 128,
          "midi": 48,
          "name": "C3",
          "ticks": 235904,
          "time": 345.5625,
          "velocity": 0.7952755905511811
        },
        {
          "duration": 0.1875,
          "durationTicks": 128,
          "midi": 50,
          "name": "D3",
          "ticks": 236032,
          "time": 345.75,
          "velocity": 0.7952755905511811
        },
        {
          "duration": 0.1875,
          "durationTicks": 128,
          "midi": 49,
          "name": "C#3",
          "ticks": 236160,
          "time": 345.9375,
          "velocity": 0.7401574803149606
        },
        {
          "duration": 0.1875,
          "durationTicks": 128,
          "midi": 50,
          "name": "D3",
          "ticks": 236288,
          "time": 346.125,
          "velocity": 0.7795275590551181
        },
        {
          "duration": 0.1875,
          "durationTicks": 128,
          "midi": 52,
          "name": "E3",
          "ticks": 236416,
          "time": 346.3125,
          "velocity": 0.7716535433070866
        },
        {
          "duration": 0.1875,
          "durationTicks": 128,
          "midi": 54,
          "name": "F#3",
          "ticks": 236544,
          "time": 346.5,
          "velocity": 0.8267716535433071
        },
        {
          "duration": 0.1875,
          "durationTicks": 128,
          "midi": 50,
          "name": "D3",
          "ticks": 236672,
          "time": 346.6875,
          "velocity": 0.7244094488188977
        },
        {
          "duration": 0.1875,
          "durationTicks": 128,
          "midi": 52,
          "name": "E3",
          "ticks": 236800,
          "time": 346.875,
          "velocity": 0.8031496062992126
        },
        {
          "duration": 0.1875,
          "durationTicks": 128,
          "midi": 54,
          "name": "F#3",
          "ticks": 236928,
          "time": 347.0625,
          "velocity": 0.8110236220472441
        },
        {
          "duration": 0.1875,
          "durationTicks": 128,
          "midi": 55,
          "name": "G3",
          "ticks": 237056,
          "time": 347.25,
          "velocity": 0.7952755905511811
        },
        {
          "duration": 0.1875,
          "durationTicks": 128,
          "midi": 51,
          "name": "D#3",
          "ticks": 237184,
          "time": 347.4375,
          "velocity": 0.7086614173228346
        },
        {
          "duration": 0.1875,
          "durationTicks": 128,
          "midi": 50,
          "name": "D3",
          "ticks": 237312,
          "time": 347.625,
          "velocity": 0.7165354330708661
        },
        {
          "duration": 0.1875,
          "durationTicks": 128,
          "midi": 48,
          "name": "C3",
          "ticks": 237440,
          "time": 347.8125,
          "velocity": 0.7480314960629921
        },
        {
          "duration": 0.1875,
          "durationTicks": 128,
          "midi": 46,
          "name": "A#2",
          "ticks": 237568,
          "time": 348,
          "velocity": 0.7559055118110236
        },
        {
          "duration": 0.1875,
          "durationTicks": 128,
          "midi": 48,
          "name": "C3",
          "ticks": 237696,
          "time": 348.1875,
          "velocity": 0.7401574803149606
        },
        {
          "duration": 0.1875,
          "durationTicks": 128,
          "midi": 46,
          "name": "A#2",
          "ticks": 237824,
          "time": 348.375,
          "velocity": 0.7637795275590551
        },
        {
          "duration": 0.1875,
          "durationTicks": 128,
          "midi": 45,
          "name": "A2",
          "ticks": 237952,
          "time": 348.5625,
          "velocity": 0.7480314960629921
        },
        {
          "duration": 0.1875,
          "durationTicks": 128,
          "midi": 43,
          "name": "G2",
          "ticks": 238080,
          "time": 348.75,
          "velocity": 0.7716535433070866
        },
        {
          "duration": 0.1875,
          "durationTicks": 128,
          "midi": 41,
          "name": "F2",
          "ticks": 238208,
          "time": 348.9375,
          "velocity": 0.7322834645669292
        },
        {
          "duration": 0.1875,
          "durationTicks": 128,
          "midi": 43,
          "name": "G2",
          "ticks": 238336,
          "time": 349.125,
          "velocity": 0.7795275590551181
        },
        {
          "duration": 0.1875,
          "durationTicks": 128,
          "midi": 44,
          "name": "G#2",
          "ticks": 238464,
          "time": 349.3125,
          "velocity": 0.7716535433070866
        },
        {
          "duration": 0.1875,
          "durationTicks": 128,
          "midi": 45,
          "name": "A2",
          "ticks": 238592,
          "time": 349.5,
          "velocity": 0.7401574803149606
        },
        {
          "duration": 0.1875,
          "durationTicks": 128,
          "midi": 45,
          "name": "A2",
          "ticks": 238720,
          "time": 349.6875,
          "velocity": 0.7795275590551181
        },
        {
          "duration": 0.1875,
          "durationTicks": 128,
          "midi": 45,
          "name": "A2",
          "ticks": 238848,
          "time": 349.875,
          "velocity": 0.7637795275590551
        },
        {
          "duration": 0.1875,
          "durationTicks": 128,
          "midi": 45,
          "name": "A2",
          "ticks": 238976,
          "time": 350.0625,
          "velocity": 0.8031496062992126
        },
        {
          "duration": 0.1875,
          "durationTicks": 128,
          "midi": 45,
          "name": "A2",
          "ticks": 239104,
          "time": 350.25,
          "velocity": 0.7480314960629921
        },
        {
          "duration": 0.1875,
          "durationTicks": 128,
          "midi": 45,
          "name": "A2",
          "ticks": 239232,
          "time": 350.4375,
          "velocity": 0.7874015748031497
        },
        {
          "duration": 0.1875,
          "durationTicks": 128,
          "midi": 45,
          "name": "A2",
          "ticks": 239360,
          "time": 350.625,
          "velocity": 0.7716535433070866
        },
        {
          "duration": 0.1875,
          "durationTicks": 128,
          "midi": 45,
          "name": "A2",
          "ticks": 239488,
          "time": 350.8125,
          "velocity": 0.7952755905511811
        },
        {
          "duration": 0.1875,
          "durationTicks": 128,
          "midi": 45,
          "name": "A2",
          "ticks": 239616,
          "time": 351,
          "velocity": 0.7716535433070866
        },
        {
          "duration": 0.1875,
          "durationTicks": 128,
          "midi": 45,
          "name": "A2",
          "ticks": 239744,
          "time": 351.1875,
          "velocity": 0.7559055118110236
        },
        {
          "duration": 0.1875,
          "durationTicks": 128,
          "midi": 45,
          "name": "A2",
          "ticks": 239872,
          "time": 351.375,
          "velocity": 0.7795275590551181
        },
        {
          "duration": 0.1875,
          "durationTicks": 128,
          "midi": 45,
          "name": "A2",
          "ticks": 240000,
          "time": 351.5625,
          "velocity": 0.7480314960629921
        },
        {
          "duration": 0.1875,
          "durationTicks": 128,
          "midi": 45,
          "name": "A2",
          "ticks": 240128,
          "time": 351.75,
          "velocity": 0.7716535433070866
        },
        {
          "duration": 0.1875,
          "durationTicks": 128,
          "midi": 45,
          "name": "A2",
          "ticks": 240256,
          "time": 351.9375,
          "velocity": 0.7952755905511811
        },
        {
          "duration": 0.1875,
          "durationTicks": 128,
          "midi": 45,
          "name": "A2",
          "ticks": 240384,
          "time": 352.125,
          "velocity": 0.7716535433070866
        },
        {
          "duration": 0.1875,
          "durationTicks": 128,
          "midi": 45,
          "name": "A2",
          "ticks": 240512,
          "time": 352.3125,
          "velocity": 0.7716535433070866
        },
        {
          "duration": 0.1875,
          "durationTicks": 128,
          "midi": 45,
          "name": "A2",
          "ticks": 240640,
          "time": 352.5,
          "velocity": 0.7559055118110236
        },
        {
          "duration": 0.1875,
          "durationTicks": 128,
          "midi": 45,
          "name": "A2",
          "ticks": 240768,
          "time": 352.6875,
          "velocity": 0.7795275590551181
        },
        {
          "duration": 0.1875,
          "durationTicks": 128,
          "midi": 45,
          "name": "A2",
          "ticks": 240896,
          "time": 352.875,
          "velocity": 0.7874015748031497
        },
        {
          "duration": 0.1875,
          "durationTicks": 128,
          "midi": 45,
          "name": "A2",
          "ticks": 241024,
          "time": 353.0625,
          "velocity": 0.7952755905511811
        },
        {
          "duration": 0.1875,
          "durationTicks": 128,
          "midi": 45,
          "name": "A2",
          "ticks": 241152,
          "time": 353.25,
          "velocity": 0.7480314960629921
        },
        {
          "duration": 0.1875,
          "durationTicks": 128,
          "midi": 45,
          "name": "A2",
          "ticks": 241280,
          "time": 353.4375,
          "velocity": 0.7480314960629921
        },
        {
          "duration": 0.1875,
          "durationTicks": 128,
          "midi": 45,
          "name": "A2",
          "ticks": 241408,
          "time": 353.625,
          "velocity": 0.7480314960629921
        },
        {
          "duration": 0.1875,
          "durationTicks": 128,
          "midi": 45,
          "name": "A2",
          "ticks": 241536,
          "time": 353.8125,
          "velocity": 0.8031496062992126
        },
        {
          "duration": 0.1875,
          "durationTicks": 128,
          "midi": 45,
          "name": "A2",
          "ticks": 241664,
          "time": 354,
          "velocity": 0.7716535433070866
        },
        {
          "duration": 0.1875,
          "durationTicks": 128,
          "midi": 45,
          "name": "A2",
          "ticks": 241792,
          "time": 354.1875,
          "velocity": 0.7637795275590551
        },
        {
          "duration": 0.1875,
          "durationTicks": 128,
          "midi": 45,
          "name": "A2",
          "ticks": 241920,
          "time": 354.375,
          "velocity": 0.7559055118110236
        },
        {
          "duration": 0.1875,
          "durationTicks": 128,
          "midi": 45,
          "name": "A2",
          "ticks": 242048,
          "time": 354.5625,
          "velocity": 0.7559055118110236
        },
        {
          "duration": 0.1875,
          "durationTicks": 128,
          "midi": 45,
          "name": "A2",
          "ticks": 242176,
          "time": 354.75,
          "velocity": 0.7480314960629921
        },
        {
          "duration": 0.1875,
          "durationTicks": 128,
          "midi": 45,
          "name": "A2",
          "ticks": 242304,
          "time": 354.9375,
          "velocity": 0.7716535433070866
        },
        {
          "duration": 0.1875,
          "durationTicks": 128,
          "midi": 45,
          "name": "A2",
          "ticks": 242432,
          "time": 355.125,
          "velocity": 0.7559055118110236
        },
        {
          "duration": 0.1875,
          "durationTicks": 128,
          "midi": 45,
          "name": "A2",
          "ticks": 242560,
          "time": 355.3125,
          "velocity": 0.7559055118110236
        },
        {
          "duration": 0.75,
          "durationTicks": 512,
          "midi": 45,
          "name": "A2",
          "ticks": 242688,
          "time": 355.5,
          "velocity": 0.7795275590551181
        },
        {
          "duration": 0.1904296875,
          "durationTicks": 130,
          "midi": 67,
          "name": "G4",
          "ticks": 251648,
          "time": 368.625,
          "velocity": 0.4251968503937008
        },
        {
          "duration": 0.17724609375,
          "durationTicks": 121,
          "midi": 66,
          "name": "F#4",
          "ticks": 251776,
          "time": 368.8125,
          "velocity": 0.4015748031496063
        },
        {
          "duration": 0.375,
          "durationTicks": 256,
          "midi": 66,
          "name": "F#4",
          "ticks": 251904,
          "time": 369,
          "velocity": 0.47244094488188976
        },
        {
          "duration": 0.1904296875,
          "durationTicks": 130,
          "midi": 67,
          "name": "G4",
          "ticks": 252160,
          "time": 369.375,
          "velocity": 0.5118110236220472
        },
        {
          "duration": 0.17724609375,
          "durationTicks": 121,
          "midi": 66,
          "name": "F#4",
          "ticks": 252288,
          "time": 369.5625,
          "velocity": 0.5039370078740157
        },
        {
          "duration": 0.375,
          "durationTicks": 256,
          "midi": 66,
          "name": "F#4",
          "ticks": 252416,
          "time": 369.75,
          "velocity": 0.5354330708661418
        },
        {
          "duration": 0.1904296875,
          "durationTicks": 130,
          "midi": 67,
          "name": "G4",
          "ticks": 252672,
          "time": 370.125,
          "velocity": 0.5433070866141733
        },
        {
          "duration": 0.17724609375,
          "durationTicks": 121,
          "midi": 66,
          "name": "F#4",
          "ticks": 252800,
          "time": 370.3125,
          "velocity": 0.5196850393700787
        },
        {
          "duration": 0.375,
          "durationTicks": 256,
          "midi": 66,
          "name": "F#4",
          "ticks": 252928,
          "time": 370.5,
          "velocity": 0.4881889763779528
        },
        {
          "duration": 0.1904296875,
          "durationTicks": 130,
          "midi": 63,
          "name": "D#4",
          "ticks": 253696,
          "time": 371.625,
          "velocity": 0.4251968503937008
        },
        {
          "duration": 0.17724609375,
          "durationTicks": 121,
          "midi": 62,
          "name": "D4",
          "ticks": 253824,
          "time": 371.8125,
          "velocity": 0.4330708661417323
        },
        {
          "duration": 0.375,
          "durationTicks": 256,
          "midi": 62,
          "name": "D4",
          "ticks": 253952,
          "time": 372,
          "velocity": 0.5039370078740157
        },
        {
          "duration": 0.1904296875,
          "durationTicks": 130,
          "midi": 63,
          "name": "D#4",
          "ticks": 254208,
          "time": 372.375,
          "velocity": 0.5039370078740157
        },
        {
          "duration": 0.17724609375,
          "durationTicks": 121,
          "midi": 62,
          "name": "D4",
          "ticks": 254336,
          "time": 372.5625,
          "velocity": 0.48031496062992124
        },
        {
          "duration": 0.375,
          "durationTicks": 256,
          "midi": 62,
          "name": "D4",
          "ticks": 254464,
          "time": 372.75,
          "velocity": 0.4645669291338583
        },
        {
          "duration": 0.1904296875,
          "durationTicks": 130,
          "midi": 63,
          "name": "D#4",
          "ticks": 254720,
          "time": 373.125,
          "velocity": 0.49606299212598426
        },
        {
          "duration": 0.17724609375,
          "durationTicks": 121,
          "midi": 62,
          "name": "D4",
          "ticks": 254848,
          "time": 373.3125,
          "velocity": 0.5118110236220472
        },
        {
          "duration": 0.375,
          "durationTicks": 256,
          "midi": 62,
          "name": "D4",
          "ticks": 254976,
          "time": 373.5,
          "velocity": 0.4881889763779528
        },
        {
          "duration": 0.1904296875,
          "durationTicks": 130,
          "midi": 55,
          "name": "G3",
          "ticks": 255744,
          "time": 374.625,
          "velocity": 0.4330708661417323
        },
        {
          "duration": 0.17724609375,
          "durationTicks": 121,
          "midi": 54,
          "name": "F#3",
          "ticks": 255872,
          "time": 374.8125,
          "velocity": 0.4645669291338583
        },
        {
          "duration": 0.375,
          "durationTicks": 256,
          "midi": 54,
          "name": "F#3",
          "ticks": 256000,
          "time": 375,
          "velocity": 0.4645669291338583
        },
        {
          "duration": 0.1904296875,
          "durationTicks": 130,
          "midi": 55,
          "name": "G3",
          "ticks": 256256,
          "time": 375.375,
          "velocity": 0.49606299212598426
        },
        {
          "duration": 0.17724609375,
          "durationTicks": 121,
          "midi": 54,
          "name": "F#3",
          "ticks": 256384,
          "time": 375.5625,
          "velocity": 0.4881889763779528
        },
        {
          "duration": 0.375,
          "durationTicks": 256,
          "midi": 54,
          "name": "F#3",
          "ticks": 256512,
          "time": 375.75,
          "velocity": 0.4881889763779528
        },
        {
          "duration": 0.1904296875,
          "durationTicks": 130,
          "midi": 55,
          "name": "G3",
          "ticks": 256768,
          "time": 376.125,
          "velocity": 0.5118110236220472
        },
        {
          "duration": 0.17724609375,
          "durationTicks": 121,
          "midi": 54,
          "name": "F#3",
          "ticks": 256896,
          "time": 376.3125,
          "velocity": 0.5354330708661418
        },
        {
          "duration": 0.375,
          "durationTicks": 256,
          "midi": 54,
          "name": "F#3",
          "ticks": 257024,
          "time": 376.5,
          "velocity": 0.49606299212598426
        },
        {
          "duration": 0.1904296875,
          "durationTicks": 130,
          "midi": 63,
          "name": "D#4",
          "ticks": 258304,
          "time": 378.375,
          "velocity": 0.7007874015748031
        },
        {
          "duration": 0.17724609375,
          "durationTicks": 121,
          "midi": 62,
          "name": "D4",
          "ticks": 258432,
          "time": 378.5625,
          "velocity": 0.6771653543307087
        },
        {
          "duration": 0.375,
          "durationTicks": 256,
          "midi": 62,
          "name": "D4",
          "ticks": 258560,
          "time": 378.75,
          "velocity": 0.7795275590551181
        },
        {
          "duration": 0.1904296875,
          "durationTicks": 130,
          "midi": 63,
          "name": "D#4",
          "ticks": 259328,
          "time": 379.875,
          "velocity": 0.6771653543307087
        },
        {
          "duration": 0.17724609375,
          "durationTicks": 121,
          "midi": 62,
          "name": "D4",
          "ticks": 259456,
          "time": 380.0625,
          "velocity": 0.6141732283464567
        },
        {
          "duration": 0.375,
          "durationTicks": 256,
          "midi": 62,
          "name": "D4",
          "ticks": 259584,
          "time": 380.25,
          "velocity": 0.7952755905511811
        },
        {
          "duration": 0.1904296875,
          "durationTicks": 130,
          "midi": 63,
          "name": "D#4",
          "ticks": 260352,
          "time": 381.375,
          "velocity": 0.6850393700787402
        },
        {
          "duration": 0.17724609375,
          "durationTicks": 121,
          "midi": 62,
          "name": "D4",
          "ticks": 260480,
          "time": 381.5625,
          "velocity": 0.6220472440944882
        },
        {
          "duration": 0.375,
          "durationTicks": 256,
          "midi": 62,
          "name": "D4",
          "ticks": 260608,
          "time": 381.75,
          "velocity": 0.7165354330708661
        },
        {
          "duration": 0.1904296875,
          "durationTicks": 130,
          "midi": 63,
          "name": "D#4",
          "ticks": 261376,
          "time": 382.875,
          "velocity": 0.6850393700787402
        },
        {
          "duration": 0.17724609375,
          "durationTicks": 121,
          "midi": 62,
          "name": "D4",
          "ticks": 261504,
          "time": 383.0625,
          "velocity": 0.6377952755905512
        },
        {
          "duration": 0.375,
          "durationTicks": 256,
          "midi": 62,
          "name": "D4",
          "ticks": 261632,
          "time": 383.25,
          "velocity": 0.7637795275590551
        },
        {
          "duration": 0.1904296875,
          "durationTicks": 130,
          "midi": 63,
          "name": "D#4",
          "ticks": 262400,
          "time": 384.375,
          "velocity": 0.6929133858267716
        },
        {
          "duration": 0.17724609375,
          "durationTicks": 121,
          "midi": 62,
          "name": "D4",
          "ticks": 262528,
          "time": 384.5625,
          "velocity": 0.6692913385826772
        },
        {
          "duration": 0.375,
          "durationTicks": 256,
          "midi": 62,
          "name": "D4",
          "ticks": 262656,
          "time": 384.75,
          "velocity": 0.7795275590551181
        },
        {
          "duration": 0.1904296875,
          "durationTicks": 130,
          "midi": 63,
          "name": "D#4",
          "ticks": 263424,
          "time": 385.875,
          "velocity": 0.7086614173228346
        },
        {
          "duration": 0.17724609375,
          "durationTicks": 121,
          "midi": 62,
          "name": "D4",
          "ticks": 263552,
          "time": 386.0625,
          "velocity": 0.6614173228346457
        },
        {
          "duration": 0.375,
          "durationTicks": 256,
          "midi": 62,
          "name": "D4",
          "ticks": 263680,
          "time": 386.25,
          "velocity": 0.7559055118110236
        },
        {
          "duration": 0.1904296875,
          "durationTicks": 130,
          "midi": 63,
          "name": "D#4",
          "ticks": 264448,
          "time": 387.375,
          "velocity": 0.6771653543307087
        },
        {
          "duration": 0.17724609375,
          "durationTicks": 121,
          "midi": 62,
          "name": "D4",
          "ticks": 264576,
          "time": 387.5625,
          "velocity": 0.6377952755905512
        },
        {
          "duration": 0.375,
          "durationTicks": 256,
          "midi": 62,
          "name": "D4",
          "ticks": 264704,
          "time": 387.75,
          "velocity": 0.7795275590551181
        },
        {
          "duration": 0.1904296875,
          "durationTicks": 130,
          "midi": 63,
          "name": "D#4",
          "ticks": 264960,
          "time": 388.125,
          "velocity": 0.7874015748031497
        },
        {
          "duration": 0.17724609375,
          "durationTicks": 121,
          "midi": 62,
          "name": "D4",
          "ticks": 265088,
          "time": 388.3125,
          "velocity": 0.7795275590551181
        },
        {
          "duration": 0.375,
          "durationTicks": 256,
          "midi": 62,
          "name": "D4",
          "ticks": 265216,
          "time": 388.5,
          "velocity": 0.7559055118110236
        },
        {
          "duration": 0.375,
          "durationTicks": 256,
          "midi": 43,
          "name": "G2",
          "ticks": 271360,
          "time": 397.5,
          "velocity": 0.4094488188976378
        },
        {
          "duration": 0.375,
          "durationTicks": 256,
          "midi": 55,
          "name": "G3",
          "ticks": 272384,
          "time": 399,
          "velocity": 0.4251968503937008
        },
        {
          "duration": 0.375,
          "durationTicks": 256,
          "midi": 43,
          "name": "G2",
          "ticks": 273408,
          "time": 400.5,
          "velocity": 0.41732283464566927
        },
        {
          "duration": 0.375,
          "durationTicks": 256,
          "midi": 55,
          "name": "G3",
          "ticks": 274432,
          "time": 402,
          "velocity": 0.4251968503937008
        },
        {
          "duration": 0.375,
          "durationTicks": 256,
          "midi": 42,
          "name": "F#2",
          "ticks": 275456,
          "time": 403.5,
          "velocity": 0.44881889763779526
        },
        {
          "duration": 0.375,
          "durationTicks": 256,
          "midi": 50,
          "name": "D3",
          "ticks": 276480,
          "time": 405,
          "velocity": 0.41732283464566927
        },
        {
          "duration": 0.375,
          "durationTicks": 256,
          "midi": 43,
          "name": "G2",
          "ticks": 277504,
          "time": 406.5,
          "velocity": 0.4409448818897638
        },
        {
          "duration": 1.529296875,
          "durationTicks": 1044,
          "midi": 48,
          "name": "C3",
          "ticks": 278528,
          "time": 408,
          "velocity": 0.4566929133858268
        },
        {
          "duration": 1.529296875,
          "durationTicks": 1044,
          "midi": 46,
          "name": "A#2",
          "ticks": 279552,
          "time": 409.5,
          "velocity": 0.4094488188976378
        },
        {
          "duration": 1.529296875,
          "durationTicks": 1044,
          "midi": 48,
          "name": "C3",
          "ticks": 280576,
          "time": 411,
          "velocity": 0.49606299212598426
        },
        {
          "duration": 1.423828125,
          "durationTicks": 972,
          "midi": 46,
          "name": "A#2",
          "ticks": 281600,
          "time": 412.5,
          "velocity": 0.4566929133858268
        },
        {
          "duration": 1.529296875,
          "durationTicks": 1044,
          "midi": 52,
          "name": "E3",
          "ticks": 282624,
          "time": 414,
          "velocity": 0.5590551181102362
        },
        {
          "duration": 1.529296875,
          "durationTicks": 1044,
          "midi": 51,
          "name": "D#3",
          "ticks": 283648,
          "time": 415.5,
          "velocity": 0.5196850393700787
        },
        {
          "duration": 0.7119140625,
          "durationTicks": 486,
          "midi": 50,
          "name": "D3",
          "ticks": 284672,
          "time": 417,
          "velocity": 0.4566929133858268
        },
        {
          "duration": 0.1875,
          "durationTicks": 128,
          "midi": 50,
          "name": "D3",
          "ticks": 285440,
          "time": 418.125,
          "velocity": 0.6850393700787402
        },
        {
          "duration": 0.1875,
          "durationTicks": 128,
          "midi": 50,
          "name": "D3",
          "ticks": 285568,
          "time": 418.3125,
          "velocity": 0.7480314960629921
        },
        {
          "duration": 0.75,
          "durationTicks": 512,
          "midi": 50,
          "name": "D3",
          "ticks": 285696,
          "time": 418.5,
          "velocity": 0.7795275590551181
        },
        {
          "duration": 0.1875,
          "durationTicks": 128,
          "midi": 50,
          "name": "D3",
          "ticks": 286464,
          "time": 419.625,
          "velocity": 0.6850393700787402
        },
        {
          "duration": 0.1875,
          "durationTicks": 128,
          "midi": 50,
          "name": "D3",
          "ticks": 286592,
          "time": 419.8125,
          "velocity": 0.7716535433070866
        },
        {
          "duration": 0.75,
          "durationTicks": 512,
          "midi": 50,
          "name": "D3",
          "ticks": 286720,
          "time": 420,
          "velocity": 0.7716535433070866
        },
        {
          "duration": 0.1875,
          "durationTicks": 128,
          "midi": 50,
          "name": "D3",
          "ticks": 287488,
          "time": 421.125,
          "velocity": 0.7165354330708661
        },
        {
          "duration": 0.1875,
          "durationTicks": 128,
          "midi": 50,
          "name": "D3",
          "ticks": 287616,
          "time": 421.3125,
          "velocity": 0.7952755905511811
        },
        {
          "duration": 0.375,
          "durationTicks": 256,
          "midi": 50,
          "name": "D3",
          "ticks": 287744,
          "time": 421.5,
          "velocity": 0.7795275590551181
        },
        {
          "duration": 0.1875,
          "durationTicks": 128,
          "midi": 50,
          "name": "D3",
          "ticks": 288000,
          "time": 421.875,
          "velocity": 0.7716535433070866
        },
        {
          "duration": 0.1875,
          "durationTicks": 128,
          "midi": 50,
          "name": "D3",
          "ticks": 288128,
          "time": 422.0625,
          "velocity": 0.7795275590551181
        },
        {
          "duration": 0.375,
          "durationTicks": 256,
          "midi": 50,
          "name": "D3",
          "ticks": 288256,
          "time": 422.25,
          "velocity": 0.7480314960629921
        },
        {
          "duration": 0.1875,
          "durationTicks": 128,
          "midi": 50,
          "name": "D3",
          "ticks": 288512,
          "time": 422.625,
          "velocity": 0.7480314960629921
        },
        {
          "duration": 0.1875,
          "durationTicks": 128,
          "midi": 50,
          "name": "D3",
          "ticks": 288640,
          "time": 422.8125,
          "velocity": 0.7795275590551181
        },
        {
          "duration": 0.75,
          "durationTicks": 512,
          "midi": 50,
          "name": "D3",
          "ticks": 288768,
          "time": 423,
          "velocity": 0.7716535433070866
        },
        {
          "duration": 0.375,
          "durationTicks": 256,
          "midi": 43,
          "name": "G2",
          "ticks": 290816,
          "time": 426,
          "velocity": 0.4330708661417323
        },
        {
          "duration": 0.375,
          "durationTicks": 256,
          "midi": 55,
          "name": "G3",
          "ticks": 291840,
          "time": 427.5,
          "velocity": 0.41732283464566927
        },
        {
          "duration": 0.375,
          "durationTicks": 256,
          "midi": 53,
          "name": "F3",
          "ticks": 292864,
          "time": 429,
          "velocity": 0.44881889763779526
        },
        {
          "duration": 0.375,
          "durationTicks": 256,
          "midi": 51,
          "name": "D#3",
          "ticks": 293888,
          "time": 430.5,
          "velocity": 0.47244094488188976
        },
        {
          "duration": 0.375,
          "durationTicks": 256,
          "midi": 50,
          "name": "D3",
          "ticks": 294912,
          "time": 432,
          "velocity": 0.47244094488188976
        },
        {
          "duration": 0.375,
          "durationTicks": 256,
          "midi": 46,
          "name": "A#2",
          "ticks": 295936,
          "time": 433.5,
          "velocity": 0.4566929133858268
        },
        {
          "duration": 0.09375,
          "durationTicks": 64,
          "midi": 51,
          "name": "D#3",
          "ticks": 296960,
          "time": 435,
          "velocity": 0.6929133858267716
        },
        {
          "duration": 0.09375,
          "durationTicks": 64,
          "midi": 55,
          "name": "G3",
          "ticks": 297088,
          "time": 435.1875,
          "velocity": 0.7874015748031497
        },
        {
          "duration": 0.09375,
          "durationTicks": 64,
          "midi": 58,
          "name": "A#3",
          "ticks": 297216,
          "time": 435.375,
          "velocity": 0.8031496062992126
        },
        {
          "duration": 0.09375,
          "durationTicks": 64,
          "midi": 63,
          "name": "D#4",
          "ticks": 297344,
          "time": 435.5625,
          "velocity": 0.889763779527559
        },
        {
          "duration": 0.09375,
          "durationTicks": 64,
          "midi": 67,
          "name": "G4",
          "ticks": 297472,
          "time": 435.75,
          "velocity": 0.8818897637795275
        },
        {
          "duration": 0.09375,
          "durationTicks": 64,
          "midi": 65,
          "name": "F4",
          "ticks": 297600,
          "time": 435.9375,
          "velocity": 0.7480314960629921
        },
        {
          "duration": 0.09375,
          "durationTicks": 64,
          "midi": 67,
          "name": "G4",
          "ticks": 297728,
          "time": 436.125,
          "velocity": 0.8188976377952756
        },
        {
          "duration": 0.09375,
          "durationTicks": 64,
          "midi": 63,
          "name": "D#4",
          "ticks": 297856,
          "time": 436.3125,
          "velocity": 0.6771653543307087
        },
        {
          "duration": 0.09375,
          "durationTicks": 64,
          "midi": 62,
          "name": "D4",
          "ticks": 297984,
          "time": 436.5,
          "velocity": 0.7086614173228346
        },
        {
          "duration": 0.09375,
          "durationTicks": 64,
          "midi": 63,
          "name": "D#4",
          "ticks": 298112,
          "time": 436.6875,
          "velocity": 0.7952755905511811
        },
        {
          "duration": 0.09375,
          "durationTicks": 64,
          "midi": 65,
          "name": "F4",
          "ticks": 298240,
          "time": 436.875,
          "velocity": 0.8267716535433071
        },
        {
          "duration": 0.09375,
          "durationTicks": 64,
          "midi": 63,
          "name": "D#4",
          "ticks": 298368,
          "time": 437.0625,
          "velocity": 0.7086614173228346
        },
        {
          "duration": 0.09375,
          "durationTicks": 64,
          "midi": 62,
          "name": "D4",
          "ticks": 298496,
          "time": 437.25,
          "velocity": 0.7322834645669292
        },
        {
          "duration": 0.09375,
          "durationTicks": 64,
          "midi": 60,
          "name": "C4",
          "ticks": 298624,
          "time": 437.4375,
          "velocity": 0.7165354330708661
        },
        {
          "duration": 0.09375,
          "durationTicks": 64,
          "midi": 62,
          "name": "D4",
          "ticks": 298752,
          "time": 437.625,
          "velocity": 0.8267716535433071
        },
        {
          "duration": 0.09375,
          "durationTicks": 64,
          "midi": 58,
          "name": "A#3",
          "ticks": 298880,
          "time": 437.8125,
          "velocity": 0.7480314960629921
        },
        {
          "duration": 0.1875,
          "durationTicks": 128,
          "midi": 60,
          "name": "C4",
          "ticks": 299008,
          "time": 438,
          "velocity": 0.8031496062992126
        },
        {
          "duration": 0.1875,
          "durationTicks": 128,
          "midi": 63,
          "name": "D#4",
          "ticks": 299136,
          "time": 438.1875,
          "velocity": 0.8031496062992126
        },
        {
          "duration": 0.1875,
          "durationTicks": 128,
          "midi": 60,
          "name": "C4",
          "ticks": 299264,
          "time": 438.375,
          "velocity": 0.7401574803149606
        },
        {
          "duration": 0.1875,
          "durationTicks": 128,
          "midi": 63,
          "name": "D#4",
          "ticks": 299392,
          "time": 438.5625,
          "velocity": 0.8503937007874016
        },
        {
          "duration": 0.1875,
          "durationTicks": 128,
          "midi": 60,
          "name": "C4",
          "ticks": 299520,
          "time": 438.75,
          "velocity": 0.6771653543307087
        },
        {
          "duration": 0.1875,
          "durationTicks": 128,
          "midi": 63,
          "name": "D#4",
          "ticks": 299648,
          "time": 438.9375,
          "velocity": 0.8188976377952756
        },
        {
          "duration": 0.1875,
          "durationTicks": 128,
          "midi": 60,
          "name": "C4",
          "ticks": 299776,
          "time": 439.125,
          "velocity": 0.6929133858267716
        },
        {
          "duration": 0.1875,
          "durationTicks": 128,
          "midi": 63,
          "name": "D#4",
          "ticks": 299904,
          "time": 439.3125,
          "velocity": 0.8110236220472441
        },
        {
          "duration": 0.1875,
          "durationTicks": 128,
          "midi": 58,
          "name": "A#3",
          "ticks": 300032,
          "time": 439.5,
          "velocity": 0.7322834645669292
        },
        {
          "duration": 0.1875,
          "durationTicks": 128,
          "midi": 63,
          "name": "D#4",
          "ticks": 300160,
          "time": 439.6875,
          "velocity": 0.84251968503937
        },
        {
          "duration": 0.1875,
          "durationTicks": 128,
          "midi": 58,
          "name": "A#3",
          "ticks": 300288,
          "time": 439.875,
          "velocity": 0.7401574803149606
        },
        {
          "duration": 0.1875,
          "durationTicks": 128,
          "midi": 63,
          "name": "D#4",
          "ticks": 300416,
          "time": 440.0625,
          "velocity": 0.8503937007874016
        },
        {
          "duration": 0.1875,
          "durationTicks": 128,
          "midi": 58,
          "name": "A#3",
          "ticks": 300544,
          "time": 440.25,
          "velocity": 0.7244094488188977
        },
        {
          "duration": 0.1875,
          "durationTicks": 128,
          "midi": 63,
          "name": "D#4",
          "ticks": 300672,
          "time": 440.4375,
          "velocity": 0.8818897637795275
        },
        {
          "duration": 0.1875,
          "durationTicks": 128,
          "midi": 58,
          "name": "A#3",
          "ticks": 300800,
          "time": 440.625,
          "velocity": 0.7480314960629921
        },
        {
          "duration": 0.1875,
          "durationTicks": 128,
          "midi": 63,
          "name": "D#4",
          "ticks": 300928,
          "time": 440.8125,
          "velocity": 0.8740157480314961
        },
        {
          "duration": 0.1875,
          "durationTicks": 128,
          "midi": 56,
          "name": "G#3",
          "ticks": 301056,
          "time": 441,
          "velocity": 0.7086614173228346
        },
        {
          "duration": 0.1875,
          "durationTicks": 128,
          "midi": 60,
          "name": "C4",
          "ticks": 301184,
          "time": 441.1875,
          "velocity": 0.84251968503937
        },
        {
          "duration": 0.1875,
          "durationTicks": 128,
          "midi": 56,
          "name": "G#3",
          "ticks": 301312,
          "time": 441.375,
          "velocity": 0.7637795275590551
        },
        {
          "duration": 0.1875,
          "durationTicks": 128,
          "midi": 60,
          "name": "C4",
          "ticks": 301440,
          "time": 441.5625,
          "velocity": 0.84251968503937
        },
        {
          "duration": 0.1875,
          "durationTicks": 128,
          "midi": 56,
          "name": "G#3",
          "ticks": 301568,
          "time": 441.75,
          "velocity": 0.7401574803149606
        },
        {
          "duration": 0.1875,
          "durationTicks": 128,
          "midi": 60,
          "name": "C4",
          "ticks": 301696,
          "time": 441.9375,
          "velocity": 0.8582677165354331
        },
        {
          "duration": 0.1875,
          "durationTicks": 128,
          "midi": 56,
          "name": "G#3",
          "ticks": 301824,
          "time": 442.125,
          "velocity": 0.7322834645669292
        },
        {
          "duration": 0.1875,
          "durationTicks": 128,
          "midi": 60,
          "name": "C4",
          "ticks": 301952,
          "time": 442.3125,
          "velocity": 0.8740157480314961
        },
        {
          "duration": 0.1875,
          "durationTicks": 128,
          "midi": 55,
          "name": "G3",
          "ticks": 302080,
          "time": 442.5,
          "velocity": 0.7480314960629921
        },
        {
          "duration": 0.1875,
          "durationTicks": 128,
          "midi": 58,
          "name": "A#3",
          "ticks": 302208,
          "time": 442.6875,
          "velocity": 0.7795275590551181
        },
        {
          "duration": 0.1875,
          "durationTicks": 128,
          "midi": 55,
          "name": "G3",
          "ticks": 302336,
          "time": 442.875,
          "velocity": 0.7401574803149606
        },
        {
          "duration": 0.1875,
          "durationTicks": 128,
          "midi": 58,
          "name": "A#3",
          "ticks": 302464,
          "time": 443.0625,
          "velocity": 0.7716535433070866
        },
        {
          "duration": 0.1875,
          "durationTicks": 128,
          "midi": 53,
          "name": "F3",
          "ticks": 302592,
          "time": 443.25,
          "velocity": 0.7244094488188977
        },
        {
          "duration": 0.1875,
          "durationTicks": 128,
          "midi": 56,
          "name": "G#3",
          "ticks": 302720,
          "time": 443.4375,
          "velocity": 0.7795275590551181
        },
        {
          "duration": 0.1875,
          "durationTicks": 128,
          "midi": 53,
          "name": "F3",
          "ticks": 302848,
          "time": 443.625,
          "velocity": 0.7559055118110236
        },
        {
          "duration": 0.1875,
          "durationTicks": 128,
          "midi": 56,
          "name": "G#3",
          "ticks": 302976,
          "time": 443.8125,
          "velocity": 0.8031496062992126
        },
        {
          "duration": 0.1875,
          "durationTicks": 128,
          "midi": 52,
          "name": "E3",
          "ticks": 303104,
          "time": 444,
          "velocity": 0.7165354330708661
        },
        {
          "duration": 0.1875,
          "durationTicks": 128,
          "midi": 55,
          "name": "G3",
          "ticks": 303232,
          "time": 444.1875,
          "velocity": 0.8346456692913385
        },
        {
          "duration": 0.1875,
          "durationTicks": 128,
          "midi": 52,
          "name": "E3",
          "ticks": 303360,
          "time": 444.375,
          "velocity": 0.7322834645669292
        },
        {
          "duration": 0.1875,
          "durationTicks": 128,
          "midi": 55,
          "name": "G3",
          "ticks": 303488,
          "time": 444.5625,
          "velocity": 0.7952755905511811
        },
        {
          "duration": 0.1875,
          "durationTicks": 128,
          "midi": 48,
          "name": "C3",
          "ticks": 303616,
          "time": 444.75,
          "velocity": 0.7086614173228346
        },
        {
          "duration": 0.1875,
          "durationTicks": 128,
          "midi": 52,
          "name": "E3",
          "ticks": 303744,
          "time": 444.9375,
          "velocity": 0.7874015748031497
        },
        {
          "duration": 0.1875,
          "durationTicks": 128,
          "midi": 48,
          "name": "C3",
          "ticks": 303872,
          "time": 445.125,
          "velocity": 0.7401574803149606
        },
        {
          "duration": 0.1875,
          "durationTicks": 128,
          "midi": 52,
          "name": "E3",
          "ticks": 304000,
          "time": 445.3125,
          "velocity": 0.8110236220472441
        },
        {
          "duration": 1.5,
          "durationTicks": 1024,
          "midi": 53,
          "name": "F3",
          "ticks": 304128,
          "time": 445.5,
          "velocity": 0.7874015748031497
        },
        {
          "duration": 1.125,
          "durationTicks": 768,
          "midi": 60,
          "name": "C4",
          "ticks": 305152,
          "time": 447,
          "velocity": 0.9448818897637795
        },
        {
          "duration": 0.1875,
          "durationTicks": 128,
          "midi": 60,
          "name": "C4",
          "ticks": 306048,
          "time": 448.3125,
          "velocity": 0.7086614173228346
        },
        {
          "duration": 0.1875,
          "durationTicks": 128,
          "midi": 58,
          "name": "A#3",
          "ticks": 306176,
          "time": 448.5,
          "velocity": 0.7244094488188977
        },
        {
          "duration": 0.1875,
          "durationTicks": 128,
          "midi": 61,
          "name": "C#4",
          "ticks": 306432,
          "time": 448.875,
          "velocity": 0.8267716535433071
        },
        {
          "duration": 0.1875,
          "durationTicks": 128,
          "midi": 67,
          "name": "G4",
          "ticks": 306688,
          "time": 449.25,
          "velocity": 0.905511811023622
        },
        {
          "duration": 0.1875,
          "durationTicks": 128,
          "midi": 56,
          "name": "G#3",
          "ticks": 307200,
          "time": 450,
          "velocity": 0.6771653543307087
        },
        {
          "duration": 0.1875,
          "durationTicks": 128,
          "midi": 60,
          "name": "C4",
          "ticks": 307456,
          "time": 450.375,
          "velocity": 0.8346456692913385
        },
        {
          "duration": 0.1875,
          "durationTicks": 128,
          "midi": 65,
          "name": "F4",
          "ticks": 307712,
          "time": 450.75,
          "velocity": 0.8818897637795275
        },
        {
          "duration": 0.1875,
          "durationTicks": 128,
          "midi": 56,
          "name": "G#3",
          "ticks": 308096,
          "time": 451.3125,
          "velocity": 0.6692913385826772
        },
        {
          "duration": 0.1875,
          "durationTicks": 128,
          "midi": 55,
          "name": "G3",
          "ticks": 308224,
          "time": 451.5,
          "velocity": 0.7480314960629921
        },
        {
          "duration": 0.1875,
          "durationTicks": 128,
          "midi": 58,
          "name": "A#3",
          "ticks": 308480,
          "time": 451.875,
          "velocity": 0.7637795275590551
        },
        {
          "duration": 0.1875,
          "durationTicks": 128,
          "midi": 64,
          "name": "E4",
          "ticks": 308736,
          "time": 452.25,
          "velocity": 0.8740157480314961
        },
        {
          "duration": 0.1875,
          "durationTicks": 128,
          "midi": 55,
          "name": "G3",
          "ticks": 309120,
          "time": 452.8125,
          "velocity": 0.7480314960629921
        },
        {
          "duration": 0.1875,
          "durationTicks": 128,
          "midi": 53,
          "name": "F3",
          "ticks": 309248,
          "time": 453,
          "velocity": 0.7244094488188977
        },
        {
          "duration": 0.1875,
          "durationTicks": 128,
          "midi": 56,
          "name": "G#3",
          "ticks": 309504,
          "time": 453.375,
          "velocity": 0.7952755905511811
        },
        {
          "duration": 0.1875,
          "durationTicks": 128,
          "midi": 60,
          "name": "C4",
          "ticks": 309760,
          "time": 453.75,
          "velocity": 0.8346456692913385
        },
        {
          "duration": 0.1875,
          "durationTicks": 128,
          "midi": 41,
          "name": "F2",
          "ticks": 310144,
          "time": 454.3125,
          "velocity": 0.6929133858267716
        },
        {
          "duration": 0.1875,
          "durationTicks": 128,
          "midi": 46,
          "name": "A#2",
          "ticks": 310272,
          "time": 454.5,
          "velocity": 0.7874015748031497
        },
        {
          "duration": 0.1875,
          "durationTicks": 128,
          "midi": 50,
          "name": "D3",
          "ticks": 310528,
          "time": 454.875,
          "velocity": 0.8267716535433071
        },
        {
          "duration": 0.1875,
          "durationTicks": 128,
          "midi": 53,
          "name": "F3",
          "ticks": 310784,
          "time": 455.25,
          "velocity": 0.84251968503937
        },
        {
          "duration": 0.1875,
          "durationTicks": 128,
          "midi": 46,
          "name": "A#2",
          "ticks": 311168,
          "time": 455.8125,
          "velocity": 0.6929133858267716
        },
        {
          "duration": 0.1875,
          "durationTicks": 128,
          "midi": 51,
          "name": "D#3",
          "ticks": 311296,
          "time": 456,
          "velocity": 0.8110236220472441
        },
        {
          "duration": 0.1875,
          "durationTicks": 128,
          "midi": 55,
          "name": "G3",
          "ticks": 311552,
          "time": 456.375,
          "velocity": 0.8503937007874016
        },
        {
          "duration": 0.1875,
          "durationTicks": 128,
          "midi": 58,
          "name": "A#3",
          "ticks": 311808,
          "time": 456.75,
          "velocity": 0.7874015748031497
        },
        {
          "duration": 0.1875,
          "durationTicks": 128,
          "midi": 39,
          "name": "D#2",
          "ticks": 312192,
          "time": 457.3125,
          "velocity": 0.7165354330708661
        },
        {
          "duration": 0.375,
          "durationTicks": 256,
          "midi": 44,
          "name": "G#2",
          "ticks": 312320,
          "time": 457.5,
          "velocity": 0.7795275590551181
        },
        {
          "duration": 0.375,
          "durationTicks": 256,
          "midi": 48,
          "name": "C3",
          "ticks": 312576,
          "time": 457.875,
          "velocity": 0.8110236220472441
        },
        {
          "duration": 0.375,
          "durationTicks": 256,
          "midi": 51,
          "name": "D#3",
          "ticks": 312832,
          "time": 458.25,
          "velocity": 0.8346456692913385
        },
        {
          "duration": 0.1875,
          "durationTicks": 128,
          "midi": 44,
          "name": "G#2",
          "ticks": 313216,
          "time": 458.8125,
          "velocity": 0.6692913385826772
        },
        {
          "duration": 0.375,
          "durationTicks": 256,
          "midi": 50,
          "name": "D3",
          "ticks": 313344,
          "time": 459,
          "velocity": 0.8188976377952756
        },
        {
          "duration": 0.375,
          "durationTicks": 256,
          "midi": 53,
          "name": "F3",
          "ticks": 313600,
          "time": 459.375,
          "velocity": 0.7795275590551181
        },
        {
          "duration": 0.375,
          "durationTicks": 256,
          "midi": 57,
          "name": "A3",
          "ticks": 313856,
          "time": 459.75,
          "velocity": 0.8188976377952756
        },
        {
          "duration": 0.1875,
          "durationTicks": 128,
          "midi": 50,
          "name": "D3",
          "ticks": 314240,
          "time": 460.3125,
          "velocity": 0.7007874015748031
        },
        {
          "duration": 0.375,
          "durationTicks": 256,
          "midi": 55,
          "name": "G3",
          "ticks": 314368,
          "time": 460.5,
          "velocity": 0.8267716535433071
        },
        {
          "duration": 0.375,
          "durationTicks": 256,
          "midi": 59,
          "name": "B3",
          "ticks": 314624,
          "time": 460.875,
          "velocity": 0.8267716535433071
        },
        {
          "duration": 0.375,
          "durationTicks": 256,
          "midi": 62,
          "name": "D4",
          "ticks": 314880,
          "time": 461.25,
          "velocity": 0.8267716535433071
        },
        {
          "duration": 0.1875,
          "durationTicks": 128,
          "midi": 43,
          "name": "G2",
          "ticks": 315264,
          "time": 461.8125,
          "velocity": 0.7086614173228346
        },
        {
          "duration": 0.375,
          "durationTicks": 256,
          "midi": 48,
          "name": "C3",
          "ticks": 315392,
          "time": 462,
          "velocity": 0.8110236220472441
        },
        {
          "duration": 0.375,
          "durationTicks": 256,
          "midi": 51,
          "name": "D#3",
          "ticks": 315648,
          "time": 462.375,
          "velocity": 0.8110236220472441
        },
        {
          "duration": 0.375,
          "durationTicks": 256,
          "midi": 55,
          "name": "G3",
          "ticks": 315904,
          "time": 462.75,
          "velocity": 0.8582677165354331
        },
        {
          "duration": 0.1875,
          "durationTicks": 128,
          "midi": 48,
          "name": "C3",
          "ticks": 316288,
          "time": 463.3125,
          "velocity": 0.7086614173228346
        },
        {
          "duration": 0.375,
          "durationTicks": 256,
          "midi": 50,
          "name": "D3",
          "ticks": 316416,
          "time": 463.5,
          "velocity": 0.7480314960629921
        },
        {
          "duration": 0.375,
          "durationTicks": 256,
          "midi": 54,
          "name": "F#3",
          "ticks": 316672,
          "time": 463.875,
          "velocity": 0.7952755905511811
        },
        {
          "duration": 0.375,
          "durationTicks": 256,
          "midi": 57,
          "name": "A3",
          "ticks": 316928,
          "time": 464.25,
          "velocity": 0.8110236220472441
        },
        {
          "duration": 0.1875,
          "durationTicks": 128,
          "midi": 55,
          "name": "G3",
          "ticks": 317440,
          "time": 465,
          "velocity": 0.6850393700787402
        },
        {
          "duration": 0.1875,
          "durationTicks": 128,
          "midi": 58,
          "name": "A#3",
          "ticks": 317568,
          "time": 465.1875,
          "velocity": 0.7637795275590551
        },
        {
          "duration": 0.1875,
          "durationTicks": 128,
          "midi": 55,
          "name": "G3",
          "ticks": 317696,
          "time": 465.375,
          "velocity": 0.7165354330708661
        },
        {
          "duration": 0.1875,
          "durationTicks": 128,
          "midi": 58,
          "name": "A#3",
          "ticks": 317824,
          "time": 465.5625,
          "velocity": 0.8031496062992126
        },
        {
          "duration": 0.1875,
          "durationTicks": 128,
          "midi": 55,
          "name": "G3",
          "ticks": 317952,
          "time": 465.75,
          "velocity": 0.7086614173228346
        },
        {
          "duration": 0.1875,
          "durationTicks": 128,
          "midi": 58,
          "name": "A#3",
          "ticks": 318080,
          "time": 465.9375,
          "velocity": 0.7716535433070866
        },
        {
          "duration": 0.1875,
          "durationTicks": 128,
          "midi": 55,
          "name": "G3",
          "ticks": 318208,
          "time": 466.125,
          "velocity": 0.7165354330708661
        },
        {
          "duration": 0.1875,
          "durationTicks": 128,
          "midi": 58,
          "name": "A#3",
          "ticks": 318336,
          "time": 466.3125,
          "velocity": 0.7874015748031497
        },
        {
          "duration": 0.1875,
          "durationTicks": 128,
          "midi": 53,
          "name": "F3",
          "ticks": 318464,
          "time": 466.5,
          "velocity": 0.7007874015748031
        },
        {
          "duration": 0.1875,
          "durationTicks": 128,
          "midi": 57,
          "name": "A3",
          "ticks": 318592,
          "time": 466.6875,
          "velocity": 0.7874015748031497
        },
        {
          "duration": 0.1875,
          "durationTicks": 128,
          "midi": 53,
          "name": "F3",
          "ticks": 318720,
          "time": 466.875,
          "velocity": 0.7322834645669292
        },
        {
          "duration": 0.1875,
          "durationTicks": 128,
          "midi": 57,
          "name": "A3",
          "ticks": 318848,
          "time": 467.0625,
          "velocity": 0.7952755905511811
        },
        {
          "duration": 0.1875,
          "durationTicks": 128,
          "midi": 53,
          "name": "F3",
          "ticks": 318976,
          "time": 467.25,
          "velocity": 0.7007874015748031
        },
        {
          "duration": 0.1875,
          "durationTicks": 128,
          "midi": 57,
          "name": "A3",
          "ticks": 319104,
          "time": 467.4375,
          "velocity": 0.7874015748031497
        },
        {
          "duration": 0.1875,
          "durationTicks": 128,
          "midi": 53,
          "name": "F3",
          "ticks": 319232,
          "time": 467.625,
          "velocity": 0.7086614173228346
        },
        {
          "duration": 0.1875,
          "durationTicks": 128,
          "midi": 57,
          "name": "A3",
          "ticks": 319360,
          "time": 467.8125,
          "velocity": 0.8031496062992126
        },
        {
          "duration": 0.1875,
          "durationTicks": 128,
          "midi": 51,
          "name": "D#3",
          "ticks": 319488,
          "time": 468,
          "velocity": 0.7165354330708661
        },
        {
          "duration": 0.1875,
          "durationTicks": 128,
          "midi": 55,
          "name": "G3",
          "ticks": 319616,
          "time": 468.1875,
          "velocity": 0.8110236220472441
        },
        {
          "duration": 0.1875,
          "durationTicks": 128,
          "midi": 51,
          "name": "D#3",
          "ticks": 319744,
          "time": 468.375,
          "velocity": 0.7559055118110236
        },
        {
          "duration": 0.1875,
          "durationTicks": 128,
          "midi": 55,
          "name": "G3",
          "ticks": 319872,
          "time": 468.5625,
          "velocity": 0.7874015748031497
        },
        {
          "duration": 0.1875,
          "durationTicks": 128,
          "midi": 51,
          "name": "D#3",
          "ticks": 320000,
          "time": 468.75,
          "velocity": 0.7244094488188977
        },
        {
          "duration": 0.1875,
          "durationTicks": 128,
          "midi": 55,
          "name": "G3",
          "ticks": 320128,
          "time": 468.9375,
          "velocity": 0.7952755905511811
        },
        {
          "duration": 0.1875,
          "durationTicks": 128,
          "midi": 51,
          "name": "D#3",
          "ticks": 320256,
          "time": 469.125,
          "velocity": 0.7165354330708661
        },
        {
          "duration": 0.1875,
          "durationTicks": 128,
          "midi": 55,
          "name": "G3",
          "ticks": 320384,
          "time": 469.3125,
          "velocity": 0.7952755905511811
        },
        {
          "duration": 0.1875,
          "durationTicks": 128,
          "midi": 50,
          "name": "D3",
          "ticks": 320512,
          "time": 469.5,
          "velocity": 0.7165354330708661
        },
        {
          "duration": 0.1875,
          "durationTicks": 128,
          "midi": 55,
          "name": "G3",
          "ticks": 320640,
          "time": 469.6875,
          "velocity": 0.8031496062992126
        },
        {
          "duration": 0.1875,
          "durationTicks": 128,
          "midi": 50,
          "name": "D3",
          "ticks": 320768,
          "time": 469.875,
          "velocity": 0.7244094488188977
        },
        {
          "duration": 0.1875,
          "durationTicks": 128,
          "midi": 55,
          "name": "G3",
          "ticks": 320896,
          "time": 470.0625,
          "velocity": 0.8188976377952756
        },
        {
          "duration": 0.1875,
          "durationTicks": 128,
          "midi": 50,
          "name": "D3",
          "ticks": 321024,
          "time": 470.25,
          "velocity": 0.7401574803149606
        },
        {
          "duration": 0.1875,
          "durationTicks": 128,
          "midi": 55,
          "name": "G3",
          "ticks": 321152,
          "time": 470.4375,
          "velocity": 0.8031496062992126
        },
        {
          "duration": 0.1875,
          "durationTicks": 128,
          "midi": 50,
          "name": "D3",
          "ticks": 321280,
          "time": 470.625,
          "velocity": 0.7165354330708661
        },
        {
          "duration": 0.1875,
          "durationTicks": 128,
          "midi": 55,
          "name": "G3",
          "ticks": 321408,
          "time": 470.8125,
          "velocity": 0.8188976377952756
        },
        {
          "duration": 0.1875,
          "durationTicks": 128,
          "midi": 48,
          "name": "C3",
          "ticks": 321536,
          "time": 471,
          "velocity": 0.7244094488188977
        },
        {
          "duration": 0.1875,
          "durationTicks": 128,
          "midi": 51,
          "name": "D#3",
          "ticks": 321664,
          "time": 471.1875,
          "velocity": 0.8267716535433071
        },
        {
          "duration": 0.1875,
          "durationTicks": 128,
          "midi": 48,
          "name": "C3",
          "ticks": 321792,
          "time": 471.375,
          "velocity": 0.7559055118110236
        },
        {
          "duration": 0.1875,
          "durationTicks": 128,
          "midi": 51,
          "name": "D#3",
          "ticks": 321920,
          "time": 471.5625,
          "velocity": 0.8188976377952756
        },
        {
          "duration": 0.1875,
          "durationTicks": 128,
          "midi": 48,
          "name": "C3",
          "ticks": 322048,
          "time": 471.75,
          "velocity": 0.7795275590551181
        },
        {
          "duration": 0.1875,
          "durationTicks": 128,
          "midi": 51,
          "name": "D#3",
          "ticks": 322176,
          "time": 471.9375,
          "velocity": 0.7952755905511811
        },
        {
          "duration": 0.1875,
          "durationTicks": 128,
          "midi": 48,
          "name": "C3",
          "ticks": 322304,
          "time": 472.125,
          "velocity": 0.7086614173228346
        },
        {
          "duration": 0.1875,
          "durationTicks": 128,
          "midi": 51,
          "name": "D#3",
          "ticks": 322432,
          "time": 472.3125,
          "velocity": 0.8110236220472441
        },
        {
          "duration": 0.1875,
          "durationTicks": 128,
          "midi": 46,
          "name": "A#2",
          "ticks": 322560,
          "time": 472.5,
          "velocity": 0.7165354330708661
        },
        {
          "duration": 0.1875,
          "durationTicks": 128,
          "midi": 50,
          "name": "D3",
          "ticks": 322688,
          "time": 472.6875,
          "velocity": 0.8110236220472441
        },
        {
          "duration": 0.1875,
          "durationTicks": 128,
          "midi": 46,
          "name": "A#2",
          "ticks": 322816,
          "time": 472.875,
          "velocity": 0.7480314960629921
        },
        {
          "duration": 0.1875,
          "durationTicks": 128,
          "midi": 50,
          "name": "D3",
          "ticks": 322944,
          "time": 473.0625,
          "velocity": 0.84251968503937
        },
        {
          "duration": 0.1875,
          "durationTicks": 128,
          "midi": 46,
          "name": "A#2",
          "ticks": 323072,
          "time": 473.25,
          "velocity": 0.7480314960629921
        },
        {
          "duration": 0.1875,
          "durationTicks": 128,
          "midi": 50,
          "name": "D3",
          "ticks": 323200,
          "time": 473.4375,
          "velocity": 0.8346456692913385
        },
        {
          "duration": 0.1875,
          "durationTicks": 128,
          "midi": 46,
          "name": "A#2",
          "ticks": 323328,
          "time": 473.625,
          "velocity": 0.7480314960629921
        },
        {
          "duration": 0.1875,
          "durationTicks": 128,
          "midi": 50,
          "name": "D3",
          "ticks": 323456,
          "time": 473.8125,
          "velocity": 0.8110236220472441
        },
        {
          "duration": 1.5,
          "durationTicks": 1024,
          "midi": 45,
          "name": "A2",
          "ticks": 323584,
          "time": 474,
          "velocity": 0.7165354330708661
        },
        {
          "duration": 0.75,
          "durationTicks": 512,
          "midi": 45,
          "name": "A2",
          "ticks": 324608,
          "time": 475.5,
          "velocity": 0.7480314960629921
        },
        {
          "duration": 0.75,
          "durationTicks": 512,
          "midi": 46,
          "name": "A#2",
          "ticks": 325120,
          "time": 476.25,
          "velocity": 0.7716535433070866
        },
        {
          "duration": 0.75,
          "durationTicks": 512,
          "midi": 45,
          "name": "A2",
          "ticks": 325632,
          "time": 477,
          "velocity": 0.7637795275590551
        },
        {
          "duration": 0.75,
          "durationTicks": 512,
          "midi": 46,
          "name": "A#2",
          "ticks": 326144,
          "time": 477.75,
          "velocity": 0.7874015748031497
        },
        {
          "duration": 0.75,
          "durationTicks": 512,
          "midi": 45,
          "name": "A2",
          "ticks": 326656,
          "time": 478.5,
          "velocity": 0.7559055118110236
        },
        {
          "duration": 0.1875,
          "durationTicks": 128,
          "midi": 45,
          "name": "A2",
          "ticks": 327552,
          "time": 479.8125,
          "velocity": 0.6850393700787402
        },
        {
          "duration": 0.1875,
          "durationTicks": 128,
          "midi": 50,
          "name": "D3",
          "ticks": 327680,
          "time": 480,
          "velocity": 0.8031496062992126
        },
        {
          "duration": 0.1875,
          "durationTicks": 128,
          "midi": 62,
          "name": "D4",
          "ticks": 327808,
          "time": 480.1875,
          "velocity": 0.968503937007874
        },
        {
          "duration": 0.1875,
          "durationTicks": 128,
          "midi": 62,
          "name": "D4",
          "ticks": 327936,
          "time": 480.375,
          "velocity": 0.8031496062992126
        },
        {
          "duration": 0.1875,
          "durationTicks": 128,
          "midi": 62,
          "name": "D4",
          "ticks": 328064,
          "time": 480.5625,
          "velocity": 0.7559055118110236
        },
        {
          "duration": 0.1875,
          "durationTicks": 128,
          "midi": 62,
          "name": "D4",
          "ticks": 328192,
          "time": 480.75,
          "velocity": 0.7795275590551181
        },
        {
          "duration": 0.1875,
          "durationTicks": 128,
          "midi": 62,
          "name": "D4",
          "ticks": 328320,
          "time": 480.9375,
          "velocity": 0.8110236220472441
        },
        {
          "duration": 0.1875,
          "durationTicks": 128,
          "midi": 62,
          "name": "D4",
          "ticks": 328448,
          "time": 481.125,
          "velocity": 0.7952755905511811
        },
        {
          "duration": 0.1875,
          "durationTicks": 128,
          "midi": 62,
          "name": "D4",
          "ticks": 328576,
          "time": 481.3125,
          "velocity": 0.7322834645669292
        },
        {
          "duration": 0.1875,
          "durationTicks": 128,
          "midi": 62,
          "name": "D4",
          "ticks": 328704,
          "time": 481.5,
          "velocity": 0.7637795275590551
        },
        {
          "duration": 0.1875,
          "durationTicks": 128,
          "midi": 62,
          "name": "D4",
          "ticks": 328832,
          "time": 481.6875,
          "velocity": 0.7637795275590551
        },
        {
          "duration": 0.1875,
          "durationTicks": 128,
          "midi": 62,
          "name": "D4",
          "ticks": 328960,
          "time": 481.875,
          "velocity": 0.7874015748031497
        },
        {
          "duration": 0.1875,
          "durationTicks": 128,
          "midi": 62,
          "name": "D4",
          "ticks": 329088,
          "time": 482.0625,
          "velocity": 0.7559055118110236
        },
        {
          "duration": 0.1875,
          "durationTicks": 128,
          "midi": 62,
          "name": "D4",
          "ticks": 329216,
          "time": 482.25,
          "velocity": 0.8031496062992126
        },
        {
          "duration": 0.1875,
          "durationTicks": 128,
          "midi": 62,
          "name": "D4",
          "ticks": 329344,
          "time": 482.4375,
          "velocity": 0.7716535433070866
        },
        {
          "duration": 0.1875,
          "durationTicks": 128,
          "midi": 62,
          "name": "D4",
          "ticks": 329472,
          "time": 482.625,
          "velocity": 0.8188976377952756
        },
        {
          "duration": 0.1875,
          "durationTicks": 128,
          "midi": 62,
          "name": "D4",
          "ticks": 329600,
          "time": 482.8125,
          "velocity": 0.7874015748031497
        },
        {
          "duration": 0.1875,
          "durationTicks": 128,
          "midi": 62,
          "name": "D4",
          "ticks": 329728,
          "time": 483,
          "velocity": 0.7795275590551181
        },
        {
          "duration": 0.1875,
          "durationTicks": 128,
          "midi": 62,
          "name": "D4",
          "ticks": 329856,
          "time": 483.1875,
          "velocity": 0.8031496062992126
        },
        {
          "duration": 0.1875,
          "durationTicks": 128,
          "midi": 62,
          "name": "D4",
          "ticks": 329984,
          "time": 483.375,
          "velocity": 0.7795275590551181
        },
        {
          "duration": 0.1875,
          "durationTicks": 128,
          "midi": 62,
          "name": "D4",
          "ticks": 330112,
          "time": 483.5625,
          "velocity": 0.7795275590551181
        },
        {
          "duration": 0.1875,
          "durationTicks": 128,
          "midi": 62,
          "name": "D4",
          "ticks": 330240,
          "time": 483.75,
          "velocity": 0.7716535433070866
        },
        {
          "duration": 0.1875,
          "durationTicks": 128,
          "midi": 62,
          "name": "D4",
          "ticks": 330368,
          "time": 483.9375,
          "velocity": 0.7480314960629921
        },
        {
          "duration": 0.1875,
          "durationTicks": 128,
          "midi": 62,
          "name": "D4",
          "ticks": 330496,
          "time": 484.125,
          "velocity": 0.7637795275590551
        },
        {
          "duration": 0.1875,
          "durationTicks": 128,
          "midi": 62,
          "name": "D4",
          "ticks": 330624,
          "time": 484.3125,
          "velocity": 0.7716535433070866
        },
        {
          "duration": 0.1875,
          "durationTicks": 128,
          "midi": 62,
          "name": "D4",
          "ticks": 330752,
          "time": 484.5,
          "velocity": 0.7244094488188977
        },
        {
          "duration": 0.1875,
          "durationTicks": 128,
          "midi": 62,
          "name": "D4",
          "ticks": 330880,
          "time": 484.6875,
          "velocity": 0.7559055118110236
        },
        {
          "duration": 0.1875,
          "durationTicks": 128,
          "midi": 62,
          "name": "D4",
          "ticks": 331008,
          "time": 484.875,
          "velocity": 0.7480314960629921
        },
        {
          "duration": 0.1875,
          "durationTicks": 128,
          "midi": 62,
          "name": "D4",
          "ticks": 331136,
          "time": 485.0625,
          "velocity": 0.7874015748031497
        },
        {
          "duration": 0.1875,
          "durationTicks": 128,
          "midi": 62,
          "name": "D4",
          "ticks": 331264,
          "time": 485.25,
          "velocity": 0.7559055118110236
        },
        {
          "duration": 0.1875,
          "durationTicks": 128,
          "midi": 62,
          "name": "D4",
          "ticks": 331392,
          "time": 485.4375,
          "velocity": 0.8031496062992126
        },
        {
          "duration": 0.1875,
          "durationTicks": 128,
          "midi": 62,
          "name": "D4",
          "ticks": 331520,
          "time": 485.625,
          "velocity": 0.7559055118110236
        },
        {
          "duration": 0.1875,
          "durationTicks": 128,
          "midi": 62,
          "name": "D4",
          "ticks": 331648,
          "time": 485.8125,
          "velocity": 0.7637795275590551
        },
        {
          "duration": 0.375,
          "durationTicks": 256,
          "midi": 62,
          "name": "D4",
          "ticks": 331776,
          "time": 486,
          "velocity": 0.7401574803149606
        },
        {
          "duration": 0.375,
          "durationTicks": 256,
          "midi": 50,
          "name": "D3",
          "ticks": 332288,
          "time": 486.75,
          "velocity": 0.6692913385826772
        },
        {
          "duration": 1.14697265625,
          "durationTicks": 783,
          "midi": 58,
          "name": "A#3",
          "ticks": 333824,
          "time": 489,
          "velocity": 0.4409448818897638
        },
        {
          "duration": 0.38232421875,
          "durationTicks": 261,
          "midi": 57,
          "name": "A3",
          "ticks": 334592,
          "time": 490.125,
          "velocity": 0.4330708661417323
        },
        {
          "duration": 0.35595703125,
          "durationTicks": 243,
          "midi": 50,
          "name": "D3",
          "ticks": 334848,
          "time": 490.5,
          "velocity": 0.48031496062992124
        },
        {
          "duration": 0.375,
          "durationTicks": 256,
          "midi": 53,
          "name": "F3",
          "ticks": 336128,
          "time": 492.375,
          "velocity": 0.4330708661417323
        },
        {
          "duration": 0.375,
          "durationTicks": 256,
          "midi": 52,
          "name": "E3",
          "ticks": 336384,
          "time": 492.75,
          "velocity": 0.44881889763779526
        },
        {
          "duration": 0.375,
          "durationTicks": 256,
          "midi": 51,
          "name": "D#3",
          "ticks": 336640,
          "time": 493.125,
          "velocity": 0.4645669291338583
        },
        {
          "duration": 0.75,
          "durationTicks": 512,
          "midi": 50,
          "name": "D3",
          "ticks": 336896,
          "time": 493.5,
          "velocity": 0.4645669291338583
        },
        {
          "duration": 1.14697265625,
          "durationTicks": 783,
          "midi": 48,
          "name": "C3",
          "ticks": 337920,
          "time": 495,
          "velocity": 0.4015748031496063
        },
        {
          "duration": 0.38232421875,
          "durationTicks": 261,
          "midi": 46,
          "name": "A#2",
          "ticks": 338688,
          "time": 496.125,
          "velocity": 0.3543307086614173
        },
        {
          "duration": 0.38232421875,
          "durationTicks": 261,
          "midi": 45,
          "name": "A2",
          "ticks": 338944,
          "time": 496.5,
          "velocity": 0.44881889763779526
        },
        {
          "duration": 0.38232421875,
          "durationTicks": 261,
          "midi": 50,
          "name": "D3",
          "ticks": 339200,
          "time": 496.875,
          "velocity": 0.47244094488188976
        },
        {
          "duration": 0.38232421875,
          "durationTicks": 261,
          "midi": 43,
          "name": "G2",
          "ticks": 339456,
          "time": 497.25,
          "velocity": 0.4409448818897638
        },
        {
          "duration": 0.35595703125,
          "durationTicks": 243,
          "midi": 51,
          "name": "D#3",
          "ticks": 339712,
          "time": 497.625,
          "velocity": 0.4566929133858268
        },
        {
          "duration": 0.375,
          "durationTicks": 256,
          "midi": 48,
          "name": "C3",
          "ticks": 339968,
          "time": 498,
          "velocity": 0.44881889763779526
        },
        {
          "duration": 0.375,
          "durationTicks": 256,
          "midi": 50,
          "name": "D3",
          "ticks": 340480,
          "time": 498.75,
          "velocity": 0.4645669291338583
        },
        {
          "duration": 0.375,
          "durationTicks": 256,
          "midi": 43,
          "name": "G2",
          "ticks": 340992,
          "time": 499.5,
          "velocity": 0.41732283464566927
        },
        {
          "duration": 1.14697265625,
          "durationTicks": 783,
          "midi": 60,
          "name": "C4",
          "ticks": 346112,
          "time": 507,
          "velocity": 0.41732283464566927
        },
        {
          "duration": 0.38232421875,
          "durationTicks": 261,
          "midi": 58,
          "name": "A#3",
          "ticks": 346880,
          "time": 508.125,
          "velocity": 0.3779527559055118
        },
        {
          "duration": 0.38232421875,
          "durationTicks": 261,
          "midi": 57,
          "name": "A3",
          "ticks": 347136,
          "time": 508.5,
          "velocity": 0.4881889763779528
        },
        {
          "duration": 0.38232421875,
          "durationTicks": 261,
          "midi": 50,
          "name": "D3",
          "ticks": 347392,
          "time": 508.875,
          "velocity": 0.4251968503937008
        },
        {
          "duration": 0.38232421875,
          "durationTicks": 261,
          "midi": 55,
          "name": "G3",
          "ticks": 347648,
          "time": 509.25,
          "velocity": 0.4881889763779528
        },
        {
          "duration": 0.35595703125,
          "durationTicks": 243,
          "midi": 51,
          "name": "D#3",
          "ticks": 347904,
          "time": 509.625,
          "velocity": 0.4409448818897638
        },
        {
          "duration": 1.5,
          "durationTicks": 1024,
          "midi": 46,
          "name": "A#2",
          "ticks": 348160,
          "time": 510,
          "velocity": 0.4566929133858268
        },
        {
          "duration": 1.5,
          "durationTicks": 1024,
          "midi": 46,
          "name": "A#2",
          "ticks": 349184,
          "time": 511.5,
          "velocity": 0.48031496062992124
        },
        {
          "duration": 1.5,
          "durationTicks": 1024,
          "midi": 46,
          "name": "A#2",
          "ticks": 350208,
          "time": 513,
          "velocity": 0.47244094488188976
        },
        {
          "duration": 1.5,
          "durationTicks": 1024,
          "midi": 46,
          "name": "A#2",
          "ticks": 351232,
          "time": 514.5,
          "velocity": 0.47244094488188976
        },
        {
          "duration": 0.1875,
          "durationTicks": 128,
          "midi": 46,
          "name": "A#2",
          "ticks": 352256,
          "time": 516,
          "velocity": 0.4566929133858268
        },
        {
          "duration": 0.1875,
          "durationTicks": 128,
          "midi": 58,
          "name": "A#3",
          "ticks": 352384,
          "time": 516.1875,
          "velocity": 0.5354330708661418
        },
        {
          "duration": 0.1875,
          "durationTicks": 128,
          "midi": 58,
          "name": "A#3",
          "ticks": 352512,
          "time": 516.375,
          "velocity": 0.5354330708661418
        },
        {
          "duration": 0.1875,
          "durationTicks": 128,
          "midi": 58,
          "name": "A#3",
          "ticks": 352640,
          "time": 516.5625,
          "velocity": 0.5118110236220472
        },
        {
          "duration": 0.1875,
          "durationTicks": 128,
          "midi": 58,
          "name": "A#3",
          "ticks": 352768,
          "time": 516.75,
          "velocity": 0.5669291338582677
        },
        {
          "duration": 0.1875,
          "durationTicks": 128,
          "midi": 58,
          "name": "A#3",
          "ticks": 352896,
          "time": 516.9375,
          "velocity": 0.5354330708661418
        },
        {
          "duration": 0.1875,
          "durationTicks": 128,
          "midi": 58,
          "name": "A#3",
          "ticks": 353024,
          "time": 517.125,
          "velocity": 0.5433070866141733
        },
        {
          "duration": 0.1875,
          "durationTicks": 128,
          "midi": 58,
          "name": "A#3",
          "ticks": 353152,
          "time": 517.3125,
          "velocity": 0.5354330708661418
        },
        {
          "duration": 0.1875,
          "durationTicks": 128,
          "midi": 59,
          "name": "B3",
          "ticks": 353280,
          "time": 517.5,
          "velocity": 0.5590551181102362
        },
        {
          "duration": 0.1875,
          "durationTicks": 128,
          "midi": 59,
          "name": "B3",
          "ticks": 353408,
          "time": 517.6875,
          "velocity": 0.5354330708661418
        },
        {
          "duration": 0.1875,
          "durationTicks": 128,
          "midi": 59,
          "name": "B3",
          "ticks": 353536,
          "time": 517.875,
          "velocity": 0.5511811023622047
        },
        {
          "duration": 0.1875,
          "durationTicks": 128,
          "midi": 59,
          "name": "B3",
          "ticks": 353664,
          "time": 518.0625,
          "velocity": 0.5826771653543307
        },
        {
          "duration": 0.1875,
          "durationTicks": 128,
          "midi": 59,
          "name": "B3",
          "ticks": 353792,
          "time": 518.25,
          "velocity": 0.5669291338582677
        },
        {
          "duration": 0.1875,
          "durationTicks": 128,
          "midi": 59,
          "name": "B3",
          "ticks": 353920,
          "time": 518.4375,
          "velocity": 0.5669291338582677
        },
        {
          "duration": 0.1875,
          "durationTicks": 128,
          "midi": 59,
          "name": "B3",
          "ticks": 354048,
          "time": 518.625,
          "velocity": 0.5826771653543307
        },
        {
          "duration": 0.1875,
          "durationTicks": 128,
          "midi": 59,
          "name": "B3",
          "ticks": 354176,
          "time": 518.8125,
          "velocity": 0.5275590551181102
        },
        {
          "duration": 0.1875,
          "durationTicks": 128,
          "midi": 60,
          "name": "C4",
          "ticks": 354304,
          "time": 519,
          "velocity": 0.7874015748031497
        },
        {
          "duration": 0.1875,
          "durationTicks": 128,
          "midi": 60,
          "name": "C4",
          "ticks": 354432,
          "time": 519.1875,
          "velocity": 0.7874015748031497
        },
        {
          "duration": 0.1875,
          "durationTicks": 128,
          "midi": 60,
          "name": "C4",
          "ticks": 354560,
          "time": 519.375,
          "velocity": 0.7637795275590551
        },
        {
          "duration": 0.1875,
          "durationTicks": 128,
          "midi": 60,
          "name": "C4",
          "ticks": 354688,
          "time": 519.5625,
          "velocity": 0.7637795275590551
        },
        {
          "duration": 0.1875,
          "durationTicks": 128,
          "midi": 60,
          "name": "C4",
          "ticks": 354816,
          "time": 519.75,
          "velocity": 0.7480314960629921
        },
        {
          "duration": 0.1875,
          "durationTicks": 128,
          "midi": 60,
          "name": "C4",
          "ticks": 354944,
          "time": 519.9375,
          "velocity": 0.7244094488188977
        },
        {
          "duration": 0.1875,
          "durationTicks": 128,
          "midi": 60,
          "name": "C4",
          "ticks": 355072,
          "time": 520.125,
          "velocity": 0.7795275590551181
        },
        {
          "duration": 0.1875,
          "durationTicks": 128,
          "midi": 60,
          "name": "C4",
          "ticks": 355200,
          "time": 520.3125,
          "velocity": 0.8031496062992126
        },
        {
          "duration": 0.1875,
          "durationTicks": 128,
          "midi": 61,
          "name": "C#4",
          "ticks": 355328,
          "time": 520.5,
          "velocity": 0.7952755905511811
        },
        {
          "duration": 0.1875,
          "durationTicks": 128,
          "midi": 61,
          "name": "C#4",
          "ticks": 355456,
          "time": 520.6875,
          "velocity": 0.7716535433070866
        },
        {
          "duration": 0.1875,
          "durationTicks": 128,
          "midi": 61,
          "name": "C#4",
          "ticks": 355584,
          "time": 520.875,
          "velocity": 0.7322834645669292
        },
        {
          "duration": 0.1875,
          "durationTicks": 128,
          "midi": 61,
          "name": "C#4",
          "ticks": 355712,
          "time": 521.0625,
          "velocity": 0.7480314960629921
        },
        {
          "duration": 0.1875,
          "durationTicks": 128,
          "midi": 61,
          "name": "C#4",
          "ticks": 355840,
          "time": 521.25,
          "velocity": 0.7559055118110236
        },
        {
          "duration": 0.1875,
          "durationTicks": 128,
          "midi": 61,
          "name": "C#4",
          "ticks": 355968,
          "time": 521.4375,
          "velocity": 0.7716535433070866
        },
        {
          "duration": 0.1875,
          "durationTicks": 128,
          "midi": 61,
          "name": "C#4",
          "ticks": 356096,
          "time": 521.625,
          "velocity": 0.7480314960629921
        },
        {
          "duration": 0.1875,
          "durationTicks": 128,
          "midi": 61,
          "name": "C#4",
          "ticks": 356224,
          "time": 521.8125,
          "velocity": 0.7637795275590551
        },
        {
          "duration": 0.1875,
          "durationTicks": 128,
          "midi": 62,
          "name": "D4",
          "ticks": 356352,
          "time": 522,
          "velocity": 0.8031496062992126
        },
        {
          "duration": 0.1875,
          "durationTicks": 128,
          "midi": 62,
          "name": "D4",
          "ticks": 356480,
          "time": 522.1875,
          "velocity": 0.8110236220472441
        },
        {
          "duration": 0.1875,
          "durationTicks": 128,
          "midi": 62,
          "name": "D4",
          "ticks": 356608,
          "time": 522.375,
          "velocity": 0.7559055118110236
        },
        {
          "duration": 0.1875,
          "durationTicks": 128,
          "midi": 62,
          "name": "D4",
          "ticks": 356736,
          "time": 522.5625,
          "velocity": 0.7716535433070866
        },
        {
          "duration": 0.1875,
          "durationTicks": 128,
          "midi": 62,
          "name": "D4",
          "ticks": 356864,
          "time": 522.75,
          "velocity": 0.7637795275590551
        },
        {
          "duration": 0.1875,
          "durationTicks": 128,
          "midi": 62,
          "name": "D4",
          "ticks": 356992,
          "time": 522.9375,
          "velocity": 0.7716535433070866
        },
        {
          "duration": 0.1875,
          "durationTicks": 128,
          "midi": 62,
          "name": "D4",
          "ticks": 357120,
          "time": 523.125,
          "velocity": 0.7874015748031497
        },
        {
          "duration": 0.1875,
          "durationTicks": 128,
          "midi": 62,
          "name": "D4",
          "ticks": 357248,
          "time": 523.3125,
          "velocity": 0.7874015748031497
        },
        {
          "duration": 0.1875,
          "durationTicks": 128,
          "midi": 63,
          "name": "D#4",
          "ticks": 357376,
          "time": 523.5,
          "velocity": 0.8110236220472441
        },
        {
          "duration": 0.1875,
          "durationTicks": 128,
          "midi": 63,
          "name": "D#4",
          "ticks": 357504,
          "time": 523.6875,
          "velocity": 0.7716535433070866
        },
        {
          "duration": 0.1875,
          "durationTicks": 128,
          "midi": 63,
          "name": "D#4",
          "ticks": 357632,
          "time": 523.875,
          "velocity": 0.7795275590551181
        },
        {
          "duration": 0.1875,
          "durationTicks": 128,
          "midi": 63,
          "name": "D#4",
          "ticks": 357760,
          "time": 524.0625,
          "velocity": 0.7637795275590551
        },
        {
          "duration": 0.1875,
          "durationTicks": 128,
          "midi": 63,
          "name": "D#4",
          "ticks": 357888,
          "time": 524.25,
          "velocity": 0.7716535433070866
        },
        {
          "duration": 0.1875,
          "durationTicks": 128,
          "midi": 63,
          "name": "D#4",
          "ticks": 358016,
          "time": 524.4375,
          "velocity": 0.7716535433070866
        },
        {
          "duration": 0.1875,
          "durationTicks": 128,
          "midi": 63,
          "name": "D#4",
          "ticks": 358144,
          "time": 524.625,
          "velocity": 0.7795275590551181
        },
        {
          "duration": 0.1875,
          "durationTicks": 128,
          "midi": 63,
          "name": "D#4",
          "ticks": 358272,
          "time": 524.8125,
          "velocity": 0.7637795275590551
        },
        {
          "duration": 0.1875,
          "durationTicks": 128,
          "midi": 64,
          "name": "E4",
          "ticks": 358400,
          "time": 525,
          "velocity": 0.8031496062992126
        },
        {
          "duration": 0.1875,
          "durationTicks": 128,
          "midi": 64,
          "name": "E4",
          "ticks": 358528,
          "time": 525.1875,
          "velocity": 0.7795275590551181
        },
        {
          "duration": 0.1875,
          "durationTicks": 128,
          "midi": 64,
          "name": "E4",
          "ticks": 358656,
          "time": 525.375,
          "velocity": 0.8188976377952756
        },
        {
          "duration": 0.1875,
          "durationTicks": 128,
          "midi": 64,
          "name": "E4",
          "ticks": 358784,
          "time": 525.5625,
          "velocity": 0.8110236220472441
        },
        {
          "duration": 0.1875,
          "durationTicks": 128,
          "midi": 64,
          "name": "E4",
          "ticks": 358912,
          "time": 525.75,
          "velocity": 0.7795275590551181
        },
        {
          "duration": 0.1875,
          "durationTicks": 128,
          "midi": 64,
          "name": "E4",
          "ticks": 359040,
          "time": 525.9375,
          "velocity": 0.8031496062992126
        },
        {
          "duration": 0.1875,
          "durationTicks": 128,
          "midi": 64,
          "name": "E4",
          "ticks": 359168,
          "time": 526.125,
          "velocity": 0.7480314960629921
        },
        {
          "duration": 0.1875,
          "durationTicks": 128,
          "midi": 64,
          "name": "E4",
          "ticks": 359296,
          "time": 526.3125,
          "velocity": 0.7952755905511811
        },
        {
          "duration": 0.1875,
          "durationTicks": 128,
          "midi": 62,
          "name": "D4",
          "ticks": 359424,
          "time": 526.5,
          "velocity": 0.6929133858267716
        },
        {
          "duration": 0.1875,
          "durationTicks": 128,
          "midi": 62,
          "name": "D4",
          "ticks": 359552,
          "time": 526.6875,
          "velocity": 0.7874015748031497
        },
        {
          "duration": 0.1875,
          "durationTicks": 128,
          "midi": 62,
          "name": "D4",
          "ticks": 359680,
          "time": 526.875,
          "velocity": 0.7480314960629921
        },
        {
          "duration": 0.1875,
          "durationTicks": 128,
          "midi": 62,
          "name": "D4",
          "ticks": 359808,
          "time": 527.0625,
          "velocity": 0.7637795275590551
        },
        {
          "duration": 0.1875,
          "durationTicks": 128,
          "midi": 62,
          "name": "D4",
          "ticks": 359936,
          "time": 527.25,
          "velocity": 0.7559055118110236
        },
        {
          "duration": 0.1875,
          "durationTicks": 128,
          "midi": 62,
          "name": "D4",
          "ticks": 360064,
          "time": 527.4375,
          "velocity": 0.7795275590551181
        },
        {
          "duration": 0.1875,
          "durationTicks": 128,
          "midi": 62,
          "name": "D4",
          "ticks": 360192,
          "time": 527.625,
          "velocity": 0.7086614173228346
        },
        {
          "duration": 0.1875,
          "durationTicks": 128,
          "midi": 62,
          "name": "D4",
          "ticks": 360320,
          "time": 527.8125,
          "velocity": 0.7716535433070866
        },
        {
          "duration": 0.1875,
          "durationTicks": 128,
          "midi": 50,
          "name": "D3",
          "ticks": 360448,
          "time": 528,
          "velocity": 0.6929133858267716
        },
        {
          "duration": 0.1875,
          "durationTicks": 128,
          "midi": 50,
          "name": "D3",
          "ticks": 360576,
          "time": 528.1875,
          "velocity": 0.7559055118110236
        },
        {
          "duration": 0.1875,
          "durationTicks": 128,
          "midi": 50,
          "name": "D3",
          "ticks": 360704,
          "time": 528.375,
          "velocity": 0.7244094488188977
        },
        {
          "duration": 0.1875,
          "durationTicks": 128,
          "midi": 50,
          "name": "D3",
          "ticks": 360832,
          "time": 528.5625,
          "velocity": 0.7401574803149606
        },
        {
          "duration": 0.1875,
          "durationTicks": 128,
          "midi": 50,
          "name": "D3",
          "ticks": 360960,
          "time": 528.75,
          "velocity": 0.7716535433070866
        },
        {
          "duration": 0.1875,
          "durationTicks": 128,
          "midi": 50,
          "name": "D3",
          "ticks": 361088,
          "time": 528.9375,
          "velocity": 0.7637795275590551
        },
        {
          "duration": 0.1875,
          "durationTicks": 128,
          "midi": 50,
          "name": "D3",
          "ticks": 361216,
          "time": 529.125,
          "velocity": 0.7795275590551181
        },
        {
          "duration": 0.1875,
          "durationTicks": 128,
          "midi": 50,
          "name": "D3",
          "ticks": 361344,
          "time": 529.3125,
          "velocity": 0.7559055118110236
        },
        {
          "duration": 0.375,
          "durationTicks": 256,
          "midi": 55,
          "name": "G3",
          "ticks": 361472,
          "time": 529.5,
          "velocity": 0.8267716535433071
        },
        {
          "duration": 0.75,
          "durationTicks": 512,
          "midi": 46,
          "name": "A#2",
          "ticks": 361728,
          "time": 529.875,
          "velocity": 0.6929133858267716
        },
        {
          "duration": 0.375,
          "durationTicks": 256,
          "midi": 48,
          "name": "C3",
          "ticks": 362240,
          "time": 530.625,
          "velocity": 0.7637795275590551
        },
        {
          "duration": 0.375,
          "durationTicks": 256,
          "midi": 49,
          "name": "C#3",
          "ticks": 362496,
          "time": 531,
          "velocity": 0.8346456692913385
        },
        {
          "duration": 0.375,
          "durationTicks": 256,
          "midi": 50,
          "name": "D3",
          "ticks": 362752,
          "time": 531.375,
          "velocity": 0.8110236220472441
        },
        {
          "duration": 0.375,
          "durationTicks": 256,
          "midi": 51,
          "name": "D#3",
          "ticks": 363008,
          "time": 531.75,
          "velocity": 0.7637795275590551
        },
        {
          "duration": 0.375,
          "durationTicks": 256,
          "midi": 52,
          "name": "E3",
          "ticks": 363264,
          "time": 532.125,
          "velocity": 0.7716535433070866
        },
        {
          "duration": 0.375,
          "durationTicks": 256,
          "midi": 53,
          "name": "F3",
          "ticks": 363520,
          "time": 532.5,
          "velocity": 0.7795275590551181
        },
        {
          "duration": 0.09375,
          "durationTicks": 64,
          "midi": 53,
          "name": "F3",
          "ticks": 363968,
          "time": 533.15625,
          "velocity": 0.6535433070866141
        },
        {
          "duration": 0.375,
          "durationTicks": 256,
          "midi": 51,
          "name": "D#3",
          "ticks": 364032,
          "time": 533.25,
          "velocity": 0.7559055118110236
        },
        {
          "duration": 0.09375,
          "durationTicks": 64,
          "midi": 51,
          "name": "D#3",
          "ticks": 364480,
          "time": 533.90625,
          "velocity": 0.7480314960629921
        },
        {
          "duration": 0.375,
          "durationTicks": 256,
          "midi": 60,
          "name": "C4",
          "ticks": 364544,
          "time": 534,
          "velocity": 0.9212598425196851
        },
        {
          "duration": 0.09375,
          "durationTicks": 64,
          "midi": 60,
          "name": "C4",
          "ticks": 364992,
          "time": 534.65625,
          "velocity": 0.7322834645669292
        },
        {
          "duration": 0.375,
          "durationTicks": 256,
          "midi": 58,
          "name": "A#3",
          "ticks": 365056,
          "time": 534.75,
          "velocity": 0.7165354330708661
        },
        {
          "duration": 0.09375,
          "durationTicks": 64,
          "midi": 58,
          "name": "A#3",
          "ticks": 365504,
          "time": 535.40625,
          "velocity": 0.6771653543307087
        },
        {
          "duration": 0.375,
          "durationTicks": 256,
          "midi": 48,
          "name": "C3",
          "ticks": 365568,
          "time": 535.5,
          "velocity": 0.6692913385826772
        },
        {
          "duration": 0.375,
          "durationTicks": 256,
          "midi": 50,
          "name": "D3",
          "ticks": 366592,
          "time": 537,
          "velocity": 0.41732283464566927
        },
        {
          "duration": 1.5,
          "durationTicks": 1024,
          "midi": 60,
          "name": "C4",
          "ticks": 369152,
          "time": 540.75,
          "velocity": 0.4409448818897638
        },
        {
          "duration": 0.35595703125,
          "durationTicks": 243,
          "midi": 58,
          "name": "A#3",
          "ticks": 370176,
          "time": 542.25,
          "velocity": 0.4566929133858268
        },
        {
          "duration": 1.5,
          "durationTicks": 1024,
          "midi": 48,
          "name": "C3",
          "ticks": 371200,
          "time": 543.75,
          "velocity": 0.49606299212598426
        },
        {
          "duration": 0.35595703125,
          "durationTicks": 243,
          "midi": 46,
          "name": "A#2",
          "ticks": 372224,
          "time": 545.25,
          "velocity": 0.4566929133858268
        },
        {
          "duration": 0.1875,
          "durationTicks": 128,
          "midi": 55,
          "name": "G3",
          "ticks": 372736,
          "time": 546,
          "velocity": 0.6850393700787402
        },
        {
          "duration": 0.1875,
          "durationTicks": 128,
          "midi": 55,
          "name": "G3",
          "ticks": 372864,
          "time": 546.1875,
          "velocity": 0.7559055118110236
        },
        {
          "duration": 0.1875,
          "durationTicks": 128,
          "midi": 55,
          "name": "G3",
          "ticks": 372992,
          "time": 546.375,
          "velocity": 0.7559055118110236
        },
        {
          "duration": 0.1875,
          "durationTicks": 128,
          "midi": 55,
          "name": "G3",
          "ticks": 373120,
          "time": 546.5625,
          "velocity": 0.7874015748031497
        },
        {
          "duration": 0.1875,
          "durationTicks": 128,
          "midi": 55,
          "name": "G3",
          "ticks": 373248,
          "time": 546.75,
          "velocity": 0.7559055118110236
        },
        {
          "duration": 0.1875,
          "durationTicks": 128,
          "midi": 55,
          "name": "G3",
          "ticks": 373376,
          "time": 546.9375,
          "velocity": 0.7559055118110236
        },
        {
          "duration": 0.1875,
          "durationTicks": 128,
          "midi": 55,
          "name": "G3",
          "ticks": 373504,
          "time": 547.125,
          "velocity": 0.7952755905511811
        },
        {
          "duration": 0.1875,
          "durationTicks": 128,
          "midi": 55,
          "name": "G3",
          "ticks": 373632,
          "time": 547.3125,
          "velocity": 0.7716535433070866
        },
        {
          "duration": 0.1875,
          "durationTicks": 128,
          "midi": 60,
          "name": "C4",
          "ticks": 373760,
          "time": 547.5,
          "velocity": 0.8740157480314961
        },
        {
          "duration": 0.1875,
          "durationTicks": 128,
          "midi": 60,
          "name": "C4",
          "ticks": 373888,
          "time": 547.6875,
          "velocity": 0.8031496062992126
        },
        {
          "duration": 0.1875,
          "durationTicks": 128,
          "midi": 60,
          "name": "C4",
          "ticks": 374016,
          "time": 547.875,
          "velocity": 0.7637795275590551
        },
        {
          "duration": 0.1875,
          "durationTicks": 128,
          "midi": 60,
          "name": "C4",
          "ticks": 374144,
          "time": 548.0625,
          "velocity": 0.7559055118110236
        },
        {
          "duration": 0.1875,
          "durationTicks": 128,
          "midi": 60,
          "name": "C4",
          "ticks": 374272,
          "time": 548.25,
          "velocity": 0.8346456692913385
        },
        {
          "duration": 0.1875,
          "durationTicks": 128,
          "midi": 60,
          "name": "C4",
          "ticks": 374400,
          "time": 548.4375,
          "velocity": 0.7559055118110236
        },
        {
          "duration": 0.1875,
          "durationTicks": 128,
          "midi": 60,
          "name": "C4",
          "ticks": 374528,
          "time": 548.625,
          "velocity": 0.7637795275590551
        },
        {
          "duration": 0.1875,
          "durationTicks": 128,
          "midi": 60,
          "name": "C4",
          "ticks": 374656,
          "time": 548.8125,
          "velocity": 0.7952755905511811
        },
        {
          "duration": 0.1875,
          "durationTicks": 128,
          "midi": 62,
          "name": "D4",
          "ticks": 374784,
          "time": 549,
          "velocity": 0.8110236220472441
        },
        {
          "duration": 0.1875,
          "durationTicks": 128,
          "midi": 62,
          "name": "D4",
          "ticks": 374912,
          "time": 549.1875,
          "velocity": 0.7244094488188977
        },
        {
          "duration": 0.1875,
          "durationTicks": 128,
          "midi": 62,
          "name": "D4",
          "ticks": 375040,
          "time": 549.375,
          "velocity": 0.7637795275590551
        },
        {
          "duration": 0.1875,
          "durationTicks": 128,
          "midi": 62,
          "name": "D4",
          "ticks": 375168,
          "time": 549.5625,
          "velocity": 0.7795275590551181
        },
        {
          "duration": 0.1875,
          "durationTicks": 128,
          "midi": 50,
          "name": "D3",
          "ticks": 375296,
          "time": 549.75,
          "velocity": 0.6614173228346457
        },
        {
          "duration": 0.1875,
          "durationTicks": 128,
          "midi": 50,
          "name": "D3",
          "ticks": 375424,
          "time": 549.9375,
          "velocity": 0.7716535433070866
        },
        {
          "duration": 0.1875,
          "durationTicks": 128,
          "midi": 50,
          "name": "D3",
          "ticks": 375552,
          "time": 550.125,
          "velocity": 0.7716535433070866
        },
        {
          "duration": 0.1875,
          "durationTicks": 128,
          "midi": 50,
          "name": "D3",
          "ticks": 375680,
          "time": 550.3125,
          "velocity": 0.7795275590551181
        },
        {
          "duration": 0.1875,
          "durationTicks": 128,
          "midi": 55,
          "name": "G3",
          "ticks": 375808,
          "time": 550.5,
          "velocity": 0.7874015748031497
        },
        {
          "duration": 1.5,
          "durationTicks": 1024,
          "midi": 55,
          "name": "G3",
          "ticks": 376320,
          "time": 551.25,
          "velocity": 0.41732283464566927
        },
        {
          "duration": 0.35595703125,
          "durationTicks": 243,
          "midi": 54,
          "name": "F#3",
          "ticks": 377344,
          "time": 552.75,
          "velocity": 0.47244094488188976
        },
        {
          "duration": 1.5,
          "durationTicks": 1024,
          "midi": 43,
          "name": "G2",
          "ticks": 378368,
          "time": 554.25,
          "velocity": 0.4330708661417323
        },
        {
          "duration": 0.35595703125,
          "durationTicks": 243,
          "midi": 42,
          "name": "F#2",
          "ticks": 379392,
          "time": 555.75,
          "velocity": 0.4881889763779528
        },
        {
          "duration": 0.1875,
          "durationTicks": 128,
          "midi": 55,
          "name": "G3",
          "ticks": 380928,
          "time": 558,
          "velocity": 0.6692913385826772
        },
        {
          "duration": 0.1875,
          "durationTicks": 128,
          "midi": 55,
          "name": "G3",
          "ticks": 381056,
          "time": 558.1875,
          "velocity": 0.7322834645669292
        },
        {
          "duration": 0.1875,
          "durationTicks": 128,
          "midi": 55,
          "name": "G3",
          "ticks": 381184,
          "time": 558.375,
          "velocity": 0.7401574803149606
        },
        {
          "duration": 0.1875,
          "durationTicks": 128,
          "midi": 55,
          "name": "G3",
          "ticks": 381312,
          "time": 558.5625,
          "velocity": 0.8031496062992126
        },
        {
          "duration": 0.1875,
          "durationTicks": 128,
          "midi": 55,
          "name": "G3",
          "ticks": 381440,
          "time": 558.75,
          "velocity": 0.7401574803149606
        },
        {
          "duration": 0.1875,
          "durationTicks": 128,
          "midi": 55,
          "name": "G3",
          "ticks": 381568,
          "time": 558.9375,
          "velocity": 0.7559055118110236
        },
        {
          "duration": 0.1875,
          "durationTicks": 128,
          "midi": 55,
          "name": "G3",
          "ticks": 381696,
          "time": 559.125,
          "velocity": 0.7795275590551181
        },
        {
          "duration": 0.1875,
          "durationTicks": 128,
          "midi": 55,
          "name": "G3",
          "ticks": 381824,
          "time": 559.3125,
          "velocity": 0.7952755905511811
        },
        {
          "duration": 0.1875,
          "durationTicks": 128,
          "midi": 60,
          "name": "C4",
          "ticks": 381952,
          "time": 559.5,
          "velocity": 0.889763779527559
        },
        {
          "duration": 0.1875,
          "durationTicks": 128,
          "midi": 60,
          "name": "C4",
          "ticks": 382080,
          "time": 559.6875,
          "velocity": 0.8188976377952756
        },
        {
          "duration": 0.1875,
          "durationTicks": 128,
          "midi": 60,
          "name": "C4",
          "ticks": 382208,
          "time": 559.875,
          "velocity": 0.7716535433070866
        },
        {
          "duration": 0.1875,
          "durationTicks": 128,
          "midi": 60,
          "name": "C4",
          "ticks": 382336,
          "time": 560.0625,
          "velocity": 0.7716535433070866
        },
        {
          "duration": 0.1875,
          "durationTicks": 128,
          "midi": 60,
          "name": "C4",
          "ticks": 382464,
          "time": 560.25,
          "velocity": 0.8031496062992126
        },
        {
          "duration": 0.1875,
          "durationTicks": 128,
          "midi": 60,
          "name": "C4",
          "ticks": 382592,
          "time": 560.4375,
          "velocity": 0.7716535433070866
        },
        {
          "duration": 0.1875,
          "durationTicks": 128,
          "midi": 60,
          "name": "C4",
          "ticks": 382720,
          "time": 560.625,
          "velocity": 0.7480314960629921
        },
        {
          "duration": 0.1875,
          "durationTicks": 128,
          "midi": 60,
          "name": "C4",
          "ticks": 382848,
          "time": 560.8125,
          "velocity": 0.7559055118110236
        },
        {
          "duration": 0.1875,
          "durationTicks": 128,
          "midi": 62,
          "name": "D4",
          "ticks": 382976,
          "time": 561,
          "velocity": 0.7716535433070866
        },
        {
          "duration": 0.1875,
          "durationTicks": 128,
          "midi": 62,
          "name": "D4",
          "ticks": 383104,
          "time": 561.1875,
          "velocity": 0.7795275590551181
        },
        {
          "duration": 0.1875,
          "durationTicks": 128,
          "midi": 62,
          "name": "D4",
          "ticks": 383232,
          "time": 561.375,
          "velocity": 0.7637795275590551
        },
        {
          "duration": 0.1875,
          "durationTicks": 128,
          "midi": 62,
          "name": "D4",
          "ticks": 383360,
          "time": 561.5625,
          "velocity": 0.7952755905511811
        },
        {
          "duration": 0.1875,
          "durationTicks": 128,
          "midi": 50,
          "name": "D3",
          "ticks": 383488,
          "time": 561.75,
          "velocity": 0.6377952755905512
        },
        {
          "duration": 0.1875,
          "durationTicks": 128,
          "midi": 50,
          "name": "D3",
          "ticks": 383616,
          "time": 561.9375,
          "velocity": 0.7401574803149606
        },
        {
          "duration": 0.1875,
          "durationTicks": 128,
          "midi": 50,
          "name": "D3",
          "ticks": 383744,
          "time": 562.125,
          "velocity": 0.7795275590551181
        },
        {
          "duration": 0.1875,
          "durationTicks": 128,
          "midi": 50,
          "name": "D3",
          "ticks": 383872,
          "time": 562.3125,
          "velocity": 0.7637795275590551
        },
        {
          "duration": 0.75,
          "durationTicks": 512,
          "midi": 55,
          "name": "G3",
          "ticks": 384000,
          "time": 562.5,
          "velocity": 0.8346456692913385
        },
        {
          "duration": 0.1875,
          "durationTicks": 128,
          "midi": 62,
          "name": "D4",
          "ticks": 384896,
          "time": 563.8125,
          "velocity": 0.6771653543307087
        },
        {
          "duration": 0.1875,
          "durationTicks": 128,
          "midi": 60,
          "name": "C4",
          "ticks": 385024,
          "time": 564,
          "velocity": 0.7165354330708661
        },
        {
          "duration": 0.1875,
          "durationTicks": 128,
          "midi": 58,
          "name": "A#3",
          "ticks": 385152,
          "time": 564.1875,
          "velocity": 0.7480314960629921
        },
        {
          "duration": 0.1875,
          "durationTicks": 128,
          "midi": 57,
          "name": "A3",
          "ticks": 385280,
          "time": 564.375,
          "velocity": 0.7322834645669292
        },
        {
          "duration": 0.1875,
          "durationTicks": 128,
          "midi": 55,
          "name": "G3",
          "ticks": 385408,
          "time": 564.5625,
          "velocity": 0.7322834645669292
        },
        {
          "duration": 0.1875,
          "durationTicks": 128,
          "midi": 54,
          "name": "F#3",
          "ticks": 385536,
          "time": 564.75,
          "velocity": 0.7559055118110236
        },
        {
          "duration": 0.1875,
          "durationTicks": 128,
          "midi": 51,
          "name": "D#3",
          "ticks": 385664,
          "time": 564.9375,
          "velocity": 0.7322834645669292
        },
        {
          "duration": 0.1875,
          "durationTicks": 128,
          "midi": 50,
          "name": "D3",
          "ticks": 385792,
          "time": 565.125,
          "velocity": 0.7795275590551181
        },
        {
          "duration": 0.1875,
          "durationTicks": 128,
          "midi": 48,
          "name": "C3",
          "ticks": 385920,
          "time": 565.3125,
          "velocity": 0.7716535433070866
        },
        {
          "duration": 0.375,
          "durationTicks": 256,
          "midi": 46,
          "name": "A#2",
          "ticks": 386048,
          "time": 565.5,
          "velocity": 0.7165354330708661
        },
        {
          "duration": 0.375,
          "durationTicks": 256,
          "midi": 46,
          "name": "A#2",
          "ticks": 386304,
          "time": 565.875,
          "velocity": 0.7559055118110236
        },
        {
          "duration": 0.375,
          "durationTicks": 256,
          "midi": 48,
          "name": "C3",
          "ticks": 386560,
          "time": 566.25,
          "velocity": 0.8110236220472441
        },
        {
          "duration": 0.375,
          "durationTicks": 256,
          "midi": 50,
          "name": "D3",
          "ticks": 386816,
          "time": 566.625,
          "velocity": 0.7637795275590551
        },
        {
          "duration": 0.1875,
          "durationTicks": 128,
          "midi": 55,
          "name": "G3",
          "ticks": 387072,
          "time": 567,
          "velocity": 0.8031496062992126
        },
        {
          "duration": 0.1875,
          "durationTicks": 128,
          "midi": 50,
          "name": "D3",
          "ticks": 387200,
          "time": 567.1875,
          "velocity": 0.7165354330708661
        },
        {
          "duration": 0.1875,
          "durationTicks": 128,
          "midi": 58,
          "name": "A#3",
          "ticks": 387328,
          "time": 567.375,
          "velocity": 0.8267716535433071
        },
        {
          "duration": 0.1875,
          "durationTicks": 128,
          "midi": 57,
          "name": "A3",
          "ticks": 387456,
          "time": 567.5625,
          "velocity": 0.7795275590551181
        },
        {
          "duration": 0.1875,
          "durationTicks": 128,
          "midi": 55,
          "name": "G3",
          "ticks": 387584,
          "time": 567.75,
          "velocity": 0.7165354330708661
        },
        {
          "duration": 0.1875,
          "durationTicks": 128,
          "midi": 53,
          "name": "F3",
          "ticks": 387712,
          "time": 567.9375,
          "velocity": 0.7716535433070866
        },
        {
          "duration": 0.1875,
          "durationTicks": 128,
          "midi": 51,
          "name": "D#3",
          "ticks": 387840,
          "time": 568.125,
          "velocity": 0.7480314960629921
        },
        {
          "duration": 0.1875,
          "durationTicks": 128,
          "midi": 50,
          "name": "D3",
          "ticks": 387968,
          "time": 568.3125,
          "velocity": 0.7559055118110236
        },
        {
          "duration": 0.1875,
          "durationTicks": 128,
          "midi": 49,
          "name": "C#3",
          "ticks": 388096,
          "time": 568.5,
          "velocity": 0.7244094488188977
        },
        {
          "duration": 0.1875,
          "durationTicks": 128,
          "midi": 52,
          "name": "E3",
          "ticks": 388224,
          "time": 568.6875,
          "velocity": 0.7874015748031497
        },
        {
          "duration": 0.1875,
          "durationTicks": 128,
          "midi": 57,
          "name": "A3",
          "ticks": 388352,
          "time": 568.875,
          "velocity": 0.8267716535433071
        },
        {
          "duration": 0.1875,
          "durationTicks": 128,
          "midi": 55,
          "name": "G3",
          "ticks": 388480,
          "time": 569.0625,
          "velocity": 0.7401574803149606
        },
        {
          "duration": 0.1875,
          "durationTicks": 128,
          "midi": 54,
          "name": "F#3",
          "ticks": 388608,
          "time": 569.25,
          "velocity": 0.7401574803149606
        },
        {
          "duration": 0.1875,
          "durationTicks": 128,
          "midi": 51,
          "name": "D#3",
          "ticks": 388736,
          "time": 569.4375,
          "velocity": 0.7322834645669292
        },
        {
          "duration": 0.1875,
          "durationTicks": 128,
          "midi": 50,
          "name": "D3",
          "ticks": 388864,
          "time": 569.625,
          "velocity": 0.7322834645669292
        },
        {
          "duration": 0.1875,
          "durationTicks": 128,
          "midi": 48,
          "name": "C3",
          "ticks": 388992,
          "time": 569.8125,
          "velocity": 0.7637795275590551
        },
        {
          "duration": 0.375,
          "durationTicks": 256,
          "midi": 46,
          "name": "A#2",
          "ticks": 389120,
          "time": 570,
          "velocity": 0.7165354330708661
        },
        {
          "duration": 0.09375,
          "durationTicks": 64,
          "midi": 47,
          "name": "B2",
          "ticks": 389568,
          "time": 570.65625,
          "velocity": 0.6692913385826772
        },
        {
          "duration": 0.375,
          "durationTicks": 256,
          "midi": 47,
          "name": "B2",
          "ticks": 389632,
          "time": 570.75,
          "velocity": 0.7401574803149606
        },
        {
          "duration": 0.09375,
          "durationTicks": 64,
          "midi": 48,
          "name": "C3",
          "ticks": 390080,
          "time": 571.40625,
          "velocity": 0.6850393700787402
        },
        {
          "duration": 0.375,
          "durationTicks": 256,
          "midi": 48,
          "name": "C3",
          "ticks": 390144,
          "time": 571.5,
          "velocity": 0.7795275590551181
        },
        {
          "duration": 0.09375,
          "durationTicks": 64,
          "midi": 49,
          "name": "C#3",
          "ticks": 390592,
          "time": 572.15625,
          "velocity": 0.6850393700787402
        },
        {
          "duration": 0.375,
          "durationTicks": 256,
          "midi": 49,
          "name": "C#3",
          "ticks": 390656,
          "time": 572.25,
          "velocity": 0.7795275590551181
        },
        {
          "duration": 0.09375,
          "durationTicks": 64,
          "midi": 50,
          "name": "D3",
          "ticks": 391104,
          "time": 572.90625,
          "velocity": 0.6614173228346457
        },
        {
          "duration": 0.375,
          "durationTicks": 256,
          "midi": 50,
          "name": "D3",
          "ticks": 391168,
          "time": 573,
          "velocity": 0.7559055118110236
        },
        {
          "duration": 0.09375,
          "durationTicks": 64,
          "midi": 53,
          "name": "F3",
          "ticks": 391616,
          "time": 573.65625,
          "velocity": 0.7086614173228346
        },
        {
          "duration": 0.375,
          "durationTicks": 256,
          "midi": 53,
          "name": "F3",
          "ticks": 391680,
          "time": 573.75,
          "velocity": 0.7322834645669292
        },
        {
          "duration": 0.09375,
          "durationTicks": 64,
          "midi": 52,
          "name": "E3",
          "ticks": 392128,
          "time": 574.40625,
          "velocity": 0.6614173228346457
        },
        {
          "duration": 0.375,
          "durationTicks": 256,
          "midi": 52,
          "name": "E3",
          "ticks": 392192,
          "time": 574.5,
          "velocity": 0.7401574803149606
        },
        {
          "duration": 0.09375,
          "durationTicks": 64,
          "midi": 51,
          "name": "D#3",
          "ticks": 392640,
          "time": 575.15625,
          "velocity": 0.7007874015748031
        },
        {
          "duration": 0.375,
          "durationTicks": 256,
          "midi": 51,
          "name": "D#3",
          "ticks": 392704,
          "time": 575.25,
          "velocity": 0.7401574803149606
        },
        {
          "duration": 0.7646484375,
          "durationTicks": 522,
          "midi": 43,
          "name": "G2",
          "ticks": 395264,
          "time": 579,
          "velocity": 0.4409448818897638
        },
        {
          "duration": 0.7646484375,
          "durationTicks": 522,
          "midi": 47,
          "name": "B2",
          "ticks": 395776,
          "time": 579.75,
          "velocity": 0.4881889763779528
        },
        {
          "duration": 0.7646484375,
          "durationTicks": 522,
          "midi": 50,
          "name": "D3",
          "ticks": 396288,
          "time": 580.5,
          "velocity": 0.47244094488188976
        },
        {
          "duration": 0.7119140625,
          "durationTicks": 486,
          "midi": 47,
          "name": "B2",
          "ticks": 396800,
          "time": 581.25,
          "velocity": 0.4330708661417323
        },
        {
          "duration": 0.7646484375,
          "durationTicks": 522,
          "midi": 43,
          "name": "G2",
          "ticks": 397312,
          "time": 582,
          "velocity": 0.47244094488188976
        },
        {
          "duration": 0.7646484375,
          "durationTicks": 522,
          "midi": 48,
          "name": "C3",
          "ticks": 397824,
          "time": 582.75,
          "velocity": 0.5275590551181102
        },
        {
          "duration": 0.7646484375,
          "durationTicks": 522,
          "midi": 51,
          "name": "D#3",
          "ticks": 398336,
          "time": 583.5,
          "velocity": 0.5275590551181102
        },
        {
          "duration": 0.7119140625,
          "durationTicks": 486,
          "midi": 48,
          "name": "C3",
          "ticks": 398848,
          "time": 584.25,
          "velocity": 0.5039370078740157
        },
        {
          "duration": 0.7646484375,
          "durationTicks": 522,
          "midi": 43,
          "name": "G2",
          "ticks": 399360,
          "time": 585,
          "velocity": 0.4409448818897638
        },
        {
          "duration": 0.7646484375,
          "durationTicks": 522,
          "midi": 48,
          "name": "C3",
          "ticks": 399872,
          "time": 585.75,
          "velocity": 0.4566929133858268
        },
        {
          "duration": 0.7646484375,
          "durationTicks": 522,
          "midi": 54,
          "name": "F#3",
          "ticks": 400384,
          "time": 586.5,
          "velocity": 0.5354330708661418
        },
        {
          "duration": 0.7119140625,
          "durationTicks": 486,
          "midi": 48,
          "name": "C3",
          "ticks": 400896,
          "time": 587.25,
          "velocity": 0.5039370078740157
        },
        {
          "duration": 0.375,
          "durationTicks": 256,
          "midi": 43,
          "name": "G2",
          "ticks": 401408,
          "time": 588,
          "velocity": 0.7007874015748031
        },
        {
          "duration": 0.375,
          "durationTicks": 256,
          "midi": 50,
          "name": "D3",
          "ticks": 401920,
          "time": 588.75,
          "velocity": 0.6771653543307087
        },
        {
          "duration": 0.375,
          "durationTicks": 256,
          "midi": 55,
          "name": "G3",
          "ticks": 402432,
          "time": 589.5,
          "velocity": 0.7007874015748031
        },
        {
          "duration": 0.375,
          "durationTicks": 256,
          "midi": 50,
          "name": "D3",
          "ticks": 402944,
          "time": 590.25,
          "velocity": 0.6850393700787402
        },
        {
          "duration": 0.375,
          "durationTicks": 256,
          "midi": 55,
          "name": "G3",
          "ticks": 403456,
          "time": 591,
          "velocity": 0.6771653543307087
        },
        {
          "duration": 0.375,
          "durationTicks": 256,
          "midi": 50,
          "name": "D3",
          "ticks": 403968,
          "time": 591.75,
          "velocity": 0.6929133858267716
        },
        {
          "duration": 0.375,
          "durationTicks": 256,
          "midi": 55,
          "name": "G3",
          "ticks": 404480,
          "time": 592.5,
          "velocity": 0.7086614173228346
        },
        {
          "duration": 0.375,
          "durationTicks": 256,
          "midi": 50,
          "name": "D3",
          "ticks": 404736,
          "time": 592.875,
          "velocity": 0.6692913385826772
        },
        {
          "duration": 0.375,
          "durationTicks": 256,
          "midi": 55,
          "name": "G3",
          "ticks": 404992,
          "time": 593.25,
          "velocity": 0.7874015748031497
        },
        {
          "duration": 0.375,
          "durationTicks": 256,
          "midi": 50,
          "name": "D3",
          "ticks": 405248,
          "time": 593.625,
          "velocity": 0.7244094488188977
        },
        {
          "duration": 0.375,
          "durationTicks": 256,
          "midi": 55,
          "name": "G3",
          "ticks": 405504,
          "time": 594,
          "velocity": 0.8110236220472441
        },
        {
          "duration": 0.375,
          "durationTicks": 256,
          "midi": 43,
          "name": "G2",
          "ticks": 406528,
          "time": 595.5,
          "velocity": 0.6850393700787402
        },
        {
          "duration": 0.375,
          "durationTicks": 256,
          "midi": 55,
          "name": "G3",
          "ticks": 407040,
          "time": 596.25,
          "velocity": 0.7086614173228346
        },
        {
          "duration": 0.75,
          "durationTicks": 512,
          "midi": 43,
          "name": "G2",
          "ticks": 407552,
          "time": 597,
          "velocity": 0.7007874015748031
        }
      ],
      "endOfTrackTicks": 408065
    },
    {
      "channel": 11,
      "controlChanges": {
        "7": [
          {
            "number": 7,
            "ticks": 0,
            "time": 0,
            "value": 0.9606299212598425
          }
        ],
        "10": [
          {
            "number": 10,
            "ticks": 0,
            "time": 0,
            "value": 0.7480314960629921
          }
        ],
        "64": [
          {
            "number": 64,
            "ticks": 0,
            "time": 0,
            "value": 0
          }
        ],
        "91": [
          {
            "number": 91,
            "ticks": 0,
            "time": 0,
            "value": 0.5669291338582677
          }
        ],
        "121": [
          {
            "number": 121,
            "ticks": 0,
            "time": 0,
            "value": 0
          }
        ]
      },
      "pitchBends": [],
      "instrument": {
        "family": "ensemble",
        "number": 48,
        "name": "string ensemble 1"
      },
      "name": "Double Bass",
      "notes": [
        {
          "duration": 0.375,
          "durationTicks": 256,
          "midi": 31,
          "name": "G1",
          "ticks": 0,
          "time": 0,
          "velocity": 0.3937007874015748
        },
        {
          "duration": 0.375,
          "durationTicks": 256,
          "midi": 43,
          "name": "G2",
          "ticks": 1024,
          "time": 1.5,
          "velocity": 0.44881889763779526
        },
        {
          "duration": 0.375,
          "durationTicks": 256,
          "midi": 31,
          "name": "G1",
          "ticks": 2048,
          "time": 3,
          "velocity": 0.4645669291338583
        },
        {
          "duration": 0.375,
          "durationTicks": 256,
          "midi": 43,
          "name": "G2",
          "ticks": 3072,
          "time": 4.5,
          "velocity": 0.4409448818897638
        },
        {
          "duration": 0.375,
          "durationTicks": 256,
          "midi": 31,
          "name": "G1",
          "ticks": 4096,
          "time": 6,
          "velocity": 0.4251968503937008
        },
        {
          "duration": 0.375,
          "durationTicks": 256,
          "midi": 43,
          "name": "G2",
          "ticks": 5120,
          "time": 7.5,
          "velocity": 0.47244094488188976
        },
        {
          "duration": 0.375,
          "durationTicks": 256,
          "midi": 30,
          "name": "F#1",
          "ticks": 6144,
          "time": 9,
          "velocity": 0.41732283464566927
        },
        {
          "duration": 0.375,
          "durationTicks": 256,
          "midi": 38,
          "name": "D2",
          "ticks": 7168,
          "time": 10.5,
          "velocity": 0.41732283464566927
        },
        {
          "duration": 0.375,
          "durationTicks": 256,
          "midi": 31,
          "name": "G1",
          "ticks": 8192,
          "time": 12,
          "velocity": 0.4566929133858268
        },
        {
          "duration": 1.5,
          "durationTicks": 1024,
          "midi": 36,
          "name": "C2",
          "ticks": 9216,
          "time": 13.5,
          "velocity": 0.4251968503937008
        },
        {
          "duration": 1.5,
          "durationTicks": 1024,
          "midi": 34,
          "name": "A#1",
          "ticks": 10240,
          "time": 15,
          "velocity": 0.4881889763779528
        },
        {
          "duration": 1.5,
          "durationTicks": 1024,
          "midi": 36,
          "name": "C2",
          "ticks": 11264,
          "time": 16.5,
          "velocity": 0.48031496062992124
        },
        {
          "duration": 1.5,
          "durationTicks": 1024,
          "midi": 34,
          "name": "A#1",
          "ticks": 12288,
          "time": 18,
          "velocity": 0.5039370078740157
        },
        {
          "duration": 1.5,
          "durationTicks": 1024,
          "midi": 40,
          "name": "E2",
          "ticks": 13312,
          "time": 19.5,
          "velocity": 0.5039370078740157
        },
        {
          "duration": 1.5,
          "durationTicks": 1024,
          "midi": 39,
          "name": "D#2",
          "ticks": 14336,
          "time": 21,
          "velocity": 0.4645669291338583
        },
        {
          "duration": 0.75,
          "durationTicks": 512,
          "midi": 38,
          "name": "D2",
          "ticks": 15360,
          "time": 22.5,
          "velocity": 0.4645669291338583
        },
        {
          "duration": 0.1875,
          "durationTicks": 128,
          "midi": 38,
          "name": "D2",
          "ticks": 16128,
          "time": 23.625,
          "velocity": 0.6771653543307087
        },
        {
          "duration": 0.1875,
          "durationTicks": 128,
          "midi": 38,
          "name": "D2",
          "ticks": 16256,
          "time": 23.8125,
          "velocity": 0.7716535433070866
        },
        {
          "duration": 0.75,
          "durationTicks": 512,
          "midi": 38,
          "name": "D2",
          "ticks": 16384,
          "time": 24,
          "velocity": 0.7716535433070866
        },
        {
          "duration": 0.1875,
          "durationTicks": 128,
          "midi": 38,
          "name": "D2",
          "ticks": 17152,
          "time": 25.125,
          "velocity": 0.7086614173228346
        },
        {
          "duration": 0.1875,
          "durationTicks": 128,
          "midi": 38,
          "name": "D2",
          "ticks": 17280,
          "time": 25.3125,
          "velocity": 0.7559055118110236
        },
        {
          "duration": 0.75,
          "durationTicks": 512,
          "midi": 38,
          "name": "D2",
          "ticks": 17408,
          "time": 25.5,
          "velocity": 0.7480314960629921
        },
        {
          "duration": 0.1875,
          "durationTicks": 128,
          "midi": 38,
          "name": "D2",
          "ticks": 18176,
          "time": 26.625,
          "velocity": 0.7165354330708661
        },
        {
          "duration": 0.1875,
          "durationTicks": 128,
          "midi": 38,
          "name": "D2",
          "ticks": 18304,
          "time": 26.8125,
          "velocity": 0.7086614173228346
        },
        {
          "duration": 0.375,
          "durationTicks": 256,
          "midi": 38,
          "name": "D2",
          "ticks": 18432,
          "time": 27,
          "velocity": 0.7637795275590551
        },
        {
          "duration": 0.1875,
          "durationTicks": 128,
          "midi": 38,
          "name": "D2",
          "ticks": 18688,
          "time": 27.375,
          "velocity": 0.7795275590551181
        },
        {
          "duration": 0.1875,
          "durationTicks": 128,
          "midi": 38,
          "name": "D2",
          "ticks": 18816,
          "time": 27.5625,
          "velocity": 0.7716535433070866
        },
        {
          "duration": 0.375,
          "durationTicks": 256,
          "midi": 38,
          "name": "D2",
          "ticks": 18944,
          "time": 27.75,
          "velocity": 0.7716535433070866
        },
        {
          "duration": 0.1875,
          "durationTicks": 128,
          "midi": 38,
          "name": "D2",
          "ticks": 19200,
          "time": 28.125,
          "velocity": 0.7244094488188977
        },
        {
          "duration": 0.1875,
          "durationTicks": 128,
          "midi": 38,
          "name": "D2",
          "ticks": 19328,
          "time": 28.3125,
          "velocity": 0.7716535433070866
        },
        {
          "duration": 0.75,
          "durationTicks": 512,
          "midi": 38,
          "name": "D2",
          "ticks": 19456,
          "time": 28.5,
          "velocity": 0.7401574803149606
        },
        {
          "duration": 0.375,
          "durationTicks": 256,
          "midi": 31,
          "name": "G1",
          "ticks": 21504,
          "time": 31.5,
          "velocity": 0.4409448818897638
        },
        {
          "duration": 0.375,
          "durationTicks": 256,
          "midi": 43,
          "name": "G2",
          "ticks": 22528,
          "time": 33,
          "velocity": 0.41732283464566927
        },
        {
          "duration": 0.375,
          "durationTicks": 256,
          "midi": 27,
          "name": "D#1",
          "ticks": 23552,
          "time": 34.5,
          "velocity": 0.44881889763779526
        },
        {
          "duration": 0.375,
          "durationTicks": 256,
          "midi": 36,
          "name": "C2",
          "ticks": 24576,
          "time": 36,
          "velocity": 0.44881889763779526
        },
        {
          "duration": 0.375,
          "durationTicks": 256,
          "midi": 29,
          "name": "F1",
          "ticks": 25600,
          "time": 37.5,
          "velocity": 0.48031496062992124
        },
        {
          "duration": 0.375,
          "durationTicks": 256,
          "midi": 41,
          "name": "F2",
          "ticks": 26624,
          "time": 39,
          "velocity": 0.4409448818897638
        },
        {
          "duration": 0.1875,
          "durationTicks": 128,
          "midi": 46,
          "name": "A#2",
          "ticks": 27648,
          "time": 40.5,
          "velocity": 0.6692913385826772
        },
        {
          "duration": 0.1875,
          "durationTicks": 128,
          "midi": 50,
          "name": "D3",
          "ticks": 27776,
          "time": 40.6875,
          "velocity": 0.7874015748031497
        },
        {
          "duration": 0.1875,
          "durationTicks": 128,
          "midi": 46,
          "name": "A#2",
          "ticks": 27904,
          "time": 40.875,
          "velocity": 0.7165354330708661
        },
        {
          "duration": 0.1875,
          "durationTicks": 128,
          "midi": 50,
          "name": "D3",
          "ticks": 28032,
          "time": 41.0625,
          "velocity": 0.8031496062992126
        },
        {
          "duration": 0.1875,
          "durationTicks": 128,
          "midi": 46,
          "name": "A#2",
          "ticks": 28160,
          "time": 41.25,
          "velocity": 0.7322834645669292
        },
        {
          "duration": 0.1875,
          "durationTicks": 128,
          "midi": 50,
          "name": "D3",
          "ticks": 28288,
          "time": 41.4375,
          "velocity": 0.8188976377952756
        },
        {
          "duration": 0.1875,
          "durationTicks": 128,
          "midi": 46,
          "name": "A#2",
          "ticks": 28416,
          "time": 41.625,
          "velocity": 0.7401574803149606
        },
        {
          "duration": 0.1875,
          "durationTicks": 128,
          "midi": 50,
          "name": "D3",
          "ticks": 28544,
          "time": 41.8125,
          "velocity": 0.8031496062992126
        },
        {
          "duration": 0.1875,
          "durationTicks": 128,
          "midi": 45,
          "name": "A2",
          "ticks": 28672,
          "time": 42,
          "velocity": 0.7322834645669292
        },
        {
          "duration": 0.1875,
          "durationTicks": 128,
          "midi": 48,
          "name": "C3",
          "ticks": 28800,
          "time": 42.1875,
          "velocity": 0.7874015748031497
        },
        {
          "duration": 0.1875,
          "durationTicks": 128,
          "midi": 45,
          "name": "A2",
          "ticks": 28928,
          "time": 42.375,
          "velocity": 0.7165354330708661
        },
        {
          "duration": 0.1875,
          "durationTicks": 128,
          "midi": 48,
          "name": "C3",
          "ticks": 29056,
          "time": 42.5625,
          "velocity": 0.8267716535433071
        },
        {
          "duration": 0.1875,
          "durationTicks": 128,
          "midi": 45,
          "name": "A2",
          "ticks": 29184,
          "time": 42.75,
          "velocity": 0.7322834645669292
        },
        {
          "duration": 0.1875,
          "durationTicks": 128,
          "midi": 48,
          "name": "C3",
          "ticks": 29312,
          "time": 42.9375,
          "velocity": 0.8188976377952756
        },
        {
          "duration": 0.1875,
          "durationTicks": 128,
          "midi": 45,
          "name": "A2",
          "ticks": 29440,
          "time": 43.125,
          "velocity": 0.7086614173228346
        },
        {
          "duration": 0.1875,
          "durationTicks": 128,
          "midi": 48,
          "name": "C3",
          "ticks": 29568,
          "time": 43.3125,
          "velocity": 0.8110236220472441
        },
        {
          "duration": 0.1875,
          "durationTicks": 128,
          "midi": 43,
          "name": "G2",
          "ticks": 29696,
          "time": 43.5,
          "velocity": 0.7165354330708661
        },
        {
          "duration": 0.1875,
          "durationTicks": 128,
          "midi": 46,
          "name": "A#2",
          "ticks": 29824,
          "time": 43.6875,
          "velocity": 0.7795275590551181
        },
        {
          "duration": 0.1875,
          "durationTicks": 128,
          "midi": 43,
          "name": "G2",
          "ticks": 29952,
          "time": 43.875,
          "velocity": 0.7795275590551181
        },
        {
          "duration": 0.1875,
          "durationTicks": 128,
          "midi": 46,
          "name": "A#2",
          "ticks": 30080,
          "time": 44.0625,
          "velocity": 0.7874015748031497
        },
        {
          "duration": 0.1875,
          "durationTicks": 128,
          "midi": 43,
          "name": "G2",
          "ticks": 30208,
          "time": 44.25,
          "velocity": 0.7322834645669292
        },
        {
          "duration": 0.1875,
          "durationTicks": 128,
          "midi": 46,
          "name": "A#2",
          "ticks": 30336,
          "time": 44.4375,
          "velocity": 0.8110236220472441
        },
        {
          "duration": 0.1875,
          "durationTicks": 128,
          "midi": 43,
          "name": "G2",
          "ticks": 30464,
          "time": 44.625,
          "velocity": 0.7480314960629921
        },
        {
          "duration": 0.1875,
          "durationTicks": 128,
          "midi": 46,
          "name": "A#2",
          "ticks": 30592,
          "time": 44.8125,
          "velocity": 0.8031496062992126
        },
        {
          "duration": 0.1875,
          "durationTicks": 128,
          "midi": 41,
          "name": "F2",
          "ticks": 30720,
          "time": 45,
          "velocity": 0.7007874015748031
        },
        {
          "duration": 0.1875,
          "durationTicks": 128,
          "midi": 46,
          "name": "A#2",
          "ticks": 30848,
          "time": 45.1875,
          "velocity": 0.7952755905511811
        },
        {
          "duration": 0.1875,
          "durationTicks": 128,
          "midi": 41,
          "name": "F2",
          "ticks": 30976,
          "time": 45.375,
          "velocity": 0.7165354330708661
        },
        {
          "duration": 0.1875,
          "durationTicks": 128,
          "midi": 46,
          "name": "A#2",
          "ticks": 31104,
          "time": 45.5625,
          "velocity": 0.7952755905511811
        },
        {
          "duration": 0.1875,
          "durationTicks": 128,
          "midi": 41,
          "name": "F2",
          "ticks": 31232,
          "time": 45.75,
          "velocity": 0.7401574803149606
        },
        {
          "duration": 0.1875,
          "durationTicks": 128,
          "midi": 46,
          "name": "A#2",
          "ticks": 31360,
          "time": 45.9375,
          "velocity": 0.7874015748031497
        },
        {
          "duration": 0.1875,
          "durationTicks": 128,
          "midi": 41,
          "name": "F2",
          "ticks": 31488,
          "time": 46.125,
          "velocity": 0.7401574803149606
        },
        {
          "duration": 0.1875,
          "durationTicks": 128,
          "midi": 46,
          "name": "A#2",
          "ticks": 31616,
          "time": 46.3125,
          "velocity": 0.8031496062992126
        },
        {
          "duration": 0.1875,
          "durationTicks": 128,
          "midi": 39,
          "name": "D#2",
          "ticks": 31744,
          "time": 46.5,
          "velocity": 0.6929133858267716
        },
        {
          "duration": 0.1875,
          "durationTicks": 128,
          "midi": 43,
          "name": "G2",
          "ticks": 31872,
          "time": 46.6875,
          "velocity": 0.8267716535433071
        },
        {
          "duration": 0.1875,
          "durationTicks": 128,
          "midi": 39,
          "name": "D#2",
          "ticks": 32000,
          "time": 46.875,
          "velocity": 0.7165354330708661
        },
        {
          "duration": 0.1875,
          "durationTicks": 128,
          "midi": 43,
          "name": "G2",
          "ticks": 32128,
          "time": 47.0625,
          "velocity": 0.8110236220472441
        },
        {
          "duration": 0.1875,
          "durationTicks": 128,
          "midi": 39,
          "name": "D#2",
          "ticks": 32256,
          "time": 47.25,
          "velocity": 0.7401574803149606
        },
        {
          "duration": 0.1875,
          "durationTicks": 128,
          "midi": 43,
          "name": "G2",
          "ticks": 32384,
          "time": 47.4375,
          "velocity": 0.8267716535433071
        },
        {
          "duration": 0.1875,
          "durationTicks": 128,
          "midi": 39,
          "name": "D#2",
          "ticks": 32512,
          "time": 47.625,
          "velocity": 0.7086614173228346
        },
        {
          "duration": 0.1875,
          "durationTicks": 128,
          "midi": 43,
          "name": "G2",
          "ticks": 32640,
          "time": 47.8125,
          "velocity": 0.7874015748031497
        },
        {
          "duration": 0.1875,
          "durationTicks": 128,
          "midi": 38,
          "name": "D2",
          "ticks": 32768,
          "time": 48,
          "velocity": 0.7401574803149606
        },
        {
          "duration": 0.1875,
          "durationTicks": 128,
          "midi": 41,
          "name": "F2",
          "ticks": 32896,
          "time": 48.1875,
          "velocity": 0.7952755905511811
        },
        {
          "duration": 0.1875,
          "durationTicks": 128,
          "midi": 38,
          "name": "D2",
          "ticks": 33024,
          "time": 48.375,
          "velocity": 0.7322834645669292
        },
        {
          "duration": 0.1875,
          "durationTicks": 128,
          "midi": 41,
          "name": "F2",
          "ticks": 33152,
          "time": 48.5625,
          "velocity": 0.7874015748031497
        },
        {
          "duration": 0.1875,
          "durationTicks": 128,
          "midi": 38,
          "name": "D2",
          "ticks": 33280,
          "time": 48.75,
          "velocity": 0.7637795275590551
        },
        {
          "duration": 0.1875,
          "durationTicks": 128,
          "midi": 41,
          "name": "F2",
          "ticks": 33408,
          "time": 48.9375,
          "velocity": 0.8110236220472441
        },
        {
          "duration": 0.1875,
          "durationTicks": 128,
          "midi": 38,
          "name": "D2",
          "ticks": 33536,
          "time": 49.125,
          "velocity": 0.7795275590551181
        },
        {
          "duration": 0.1875,
          "durationTicks": 128,
          "midi": 41,
          "name": "F2",
          "ticks": 33664,
          "time": 49.3125,
          "velocity": 0.7952755905511811
        },
        {
          "duration": 0.75,
          "durationTicks": 512,
          "midi": 36,
          "name": "C2",
          "ticks": 33792,
          "time": 49.5,
          "velocity": 0.7244094488188977
        },
        {
          "duration": 0.375,
          "durationTicks": 256,
          "midi": 36,
          "name": "C2",
          "ticks": 34816,
          "time": 51,
          "velocity": 0.7716535433070866
        },
        {
          "duration": 0.375,
          "durationTicks": 256,
          "midi": 37,
          "name": "C#2",
          "ticks": 35328,
          "time": 51.75,
          "velocity": 0.8031496062992126
        },
        {
          "duration": 0.375,
          "durationTicks": 256,
          "midi": 36,
          "name": "C2",
          "ticks": 35840,
          "time": 52.5,
          "velocity": 0.7637795275590551
        },
        {
          "duration": 0.375,
          "durationTicks": 256,
          "midi": 37,
          "name": "C#2",
          "ticks": 36352,
          "time": 53.25,
          "velocity": 0.7716535433070866
        },
        {
          "duration": 0.375,
          "durationTicks": 256,
          "midi": 36,
          "name": "C2",
          "ticks": 36864,
          "time": 54,
          "velocity": 0.7874015748031497
        },
        {
          "duration": 0.1875,
          "durationTicks": 128,
          "midi": 36,
          "name": "C2",
          "ticks": 37760,
          "time": 55.3125,
          "velocity": 0.7165354330708661
        },
        {
          "duration": 0.1875,
          "durationTicks": 128,
          "midi": 41,
          "name": "F2",
          "ticks": 37888,
          "time": 55.5,
          "velocity": 0.7716535433070866
        },
        {
          "duration": 0.1875,
          "durationTicks": 128,
          "midi": 41,
          "name": "F2",
          "ticks": 38016,
          "time": 55.6875,
          "velocity": 0.7480314960629921
        },
        {
          "duration": 0.1875,
          "durationTicks": 128,
          "midi": 41,
          "name": "F2",
          "ticks": 38144,
          "time": 55.875,
          "velocity": 0.7559055118110236
        },
        {
          "duration": 0.1875,
          "durationTicks": 128,
          "midi": 41,
          "name": "F2",
          "ticks": 38272,
          "time": 56.0625,
          "velocity": 0.7559055118110236
        },
        {
          "duration": 0.1875,
          "durationTicks": 128,
          "midi": 41,
          "name": "F2",
          "ticks": 38400,
          "time": 56.25,
          "velocity": 0.7716535433070866
        },
        {
          "duration": 0.1875,
          "durationTicks": 128,
          "midi": 41,
          "name": "F2",
          "ticks": 38528,
          "time": 56.4375,
          "velocity": 0.7637795275590551
        },
        {
          "duration": 0.1875,
          "durationTicks": 128,
          "midi": 41,
          "name": "F2",
          "ticks": 38656,
          "time": 56.625,
          "velocity": 0.7322834645669292
        },
        {
          "duration": 0.1875,
          "durationTicks": 128,
          "midi": 41,
          "name": "F2",
          "ticks": 38784,
          "time": 56.8125,
          "velocity": 0.7795275590551181
        },
        {
          "duration": 0.1875,
          "durationTicks": 128,
          "midi": 41,
          "name": "F2",
          "ticks": 38912,
          "time": 57,
          "velocity": 0.8188976377952756
        },
        {
          "duration": 0.1875,
          "durationTicks": 128,
          "midi": 41,
          "name": "F2",
          "ticks": 39040,
          "time": 57.1875,
          "velocity": 0.8110236220472441
        },
        {
          "duration": 0.1875,
          "durationTicks": 128,
          "midi": 41,
          "name": "F2",
          "ticks": 39168,
          "time": 57.375,
          "velocity": 0.8031496062992126
        },
        {
          "duration": 0.1875,
          "durationTicks": 128,
          "midi": 41,
          "name": "F2",
          "ticks": 39296,
          "time": 57.5625,
          "velocity": 0.7480314960629921
        },
        {
          "duration": 0.1875,
          "durationTicks": 128,
          "midi": 41,
          "name": "F2",
          "ticks": 39424,
          "time": 57.75,
          "velocity": 0.7952755905511811
        },
        {
          "duration": 0.1875,
          "durationTicks": 128,
          "midi": 41,
          "name": "F2",
          "ticks": 39552,
          "time": 57.9375,
          "velocity": 0.7244094488188977
        },
        {
          "duration": 0.1875,
          "durationTicks": 128,
          "midi": 41,
          "name": "F2",
          "ticks": 39680,
          "time": 58.125,
          "velocity": 0.7874015748031497
        },
        {
          "duration": 0.1875,
          "durationTicks": 128,
          "midi": 41,
          "name": "F2",
          "ticks": 39808,
          "time": 58.3125,
          "velocity": 0.7952755905511811
        },
        {
          "duration": 0.1875,
          "durationTicks": 128,
          "midi": 41,
          "name": "F2",
          "ticks": 39936,
          "time": 58.5,
          "velocity": 0.7637795275590551
        },
        {
          "duration": 0.1875,
          "durationTicks": 128,
          "midi": 41,
          "name": "F2",
          "ticks": 40064,
          "time": 58.6875,
          "velocity": 0.7480314960629921
        },
        {
          "duration": 0.1875,
          "durationTicks": 128,
          "midi": 41,
          "name": "F2",
          "ticks": 40192,
          "time": 58.875,
          "velocity": 0.7716535433070866
        },
        {
          "duration": 0.1875,
          "durationTicks": 128,
          "midi": 41,
          "name": "F2",
          "ticks": 40320,
          "time": 59.0625,
          "velocity": 0.7716535433070866
        },
        {
          "duration": 0.1875,
          "durationTicks": 128,
          "midi": 41,
          "name": "F2",
          "ticks": 40448,
          "time": 59.25,
          "velocity": 0.7874015748031497
        },
        {
          "duration": 0.1875,
          "durationTicks": 128,
          "midi": 41,
          "name": "F2",
          "ticks": 40576,
          "time": 59.4375,
          "velocity": 0.7559055118110236
        },
        {
          "duration": 0.1875,
          "durationTicks": 128,
          "midi": 41,
          "name": "F2",
          "ticks": 40704,
          "time": 59.625,
          "velocity": 0.7559055118110236
        },
        {
          "duration": 0.1875,
          "durationTicks": 128,
          "midi": 41,
          "name": "F2",
          "ticks": 40832,
          "time": 59.8125,
          "velocity": 0.7795275590551181
        },
        {
          "duration": 0.1875,
          "durationTicks": 128,
          "midi": 41,
          "name": "F2",
          "ticks": 40960,
          "time": 60,
          "velocity": 0.7559055118110236
        },
        {
          "duration": 0.1875,
          "durationTicks": 128,
          "midi": 41,
          "name": "F2",
          "ticks": 41088,
          "time": 60.1875,
          "velocity": 0.7637795275590551
        },
        {
          "duration": 0.1875,
          "durationTicks": 128,
          "midi": 41,
          "name": "F2",
          "ticks": 41216,
          "time": 60.375,
          "velocity": 0.7559055118110236
        },
        {
          "duration": 0.1875,
          "durationTicks": 128,
          "midi": 41,
          "name": "F2",
          "ticks": 41344,
          "time": 60.5625,
          "velocity": 0.7401574803149606
        },
        {
          "duration": 0.1875,
          "durationTicks": 128,
          "midi": 41,
          "name": "F2",
          "ticks": 41472,
          "time": 60.75,
          "velocity": 0.7795275590551181
        },
        {
          "duration": 0.1875,
          "durationTicks": 128,
          "midi": 41,
          "name": "F2",
          "ticks": 41600,
          "time": 60.9375,
          "velocity": 0.7322834645669292
        },
        {
          "duration": 0.1875,
          "durationTicks": 128,
          "midi": 41,
          "name": "F2",
          "ticks": 41728,
          "time": 61.125,
          "velocity": 0.7716535433070866
        },
        {
          "duration": 0.1875,
          "durationTicks": 128,
          "midi": 41,
          "name": "F2",
          "ticks": 41856,
          "time": 61.3125,
          "velocity": 0.7952755905511811
        },
        {
          "duration": 0.375,
          "durationTicks": 256,
          "midi": 41,
          "name": "F2",
          "ticks": 41984,
          "time": 61.5,
          "velocity": 0.7480314960629921
        },
        {
          "duration": 0.375,
          "durationTicks": 256,
          "midi": 29,
          "name": "F1",
          "ticks": 42496,
          "time": 62.25,
          "velocity": 0.6535433070866141
        },
        {
          "duration": 1.14697265625,
          "durationTicks": 783,
          "midi": 50,
          "name": "D3",
          "ticks": 44032,
          "time": 64.5,
          "velocity": 0.4094488188976378
        },
        {
          "duration": 0.38232421875,
          "durationTicks": 261,
          "midi": 48,
          "name": "C3",
          "ticks": 44800,
          "time": 65.625,
          "velocity": 0.41732283464566927
        },
        {
          "duration": 0.35595703125,
          "durationTicks": 243,
          "midi": 41,
          "name": "F2",
          "ticks": 45056,
          "time": 66,
          "velocity": 0.4330708661417323
        },
        {
          "duration": 0.1875,
          "durationTicks": 128,
          "midi": 43,
          "name": "G2",
          "ticks": 46336,
          "time": 67.875,
          "velocity": 0.4251968503937008
        },
        {
          "duration": 0.38232421875,
          "durationTicks": 261,
          "midi": 43,
          "name": "G2",
          "ticks": 46592,
          "time": 68.25,
          "velocity": 0.4409448818897638
        },
        {
          "duration": 0.35595703125,
          "durationTicks": 243,
          "midi": 40,
          "name": "E2",
          "ticks": 46848,
          "time": 68.625,
          "velocity": 0.4409448818897638
        },
        {
          "duration": 0.75,
          "durationTicks": 512,
          "midi": 41,
          "name": "F2",
          "ticks": 47104,
          "time": 69,
          "velocity": 0.49606299212598426
        },
        {
          "duration": 1.14697265625,
          "durationTicks": 783,
          "midi": 39,
          "name": "D#2",
          "ticks": 48128,
          "time": 70.5,
          "velocity": 0.41732283464566927
        },
        {
          "duration": 0.35595703125,
          "durationTicks": 243,
          "midi": 38,
          "name": "D2",
          "ticks": 48896,
          "time": 71.625,
          "velocity": 0.41732283464566927
        },
        {
          "duration": 0.38232421875,
          "durationTicks": 261,
          "midi": 43,
          "name": "G2",
          "ticks": 49152,
          "time": 72,
          "velocity": 0.5275590551181102
        },
        {
          "duration": 0.38232421875,
          "durationTicks": 261,
          "midi": 36,
          "name": "C2",
          "ticks": 49408,
          "time": 72.375,
          "velocity": 0.47244094488188976
        },
        {
          "duration": 0.38232421875,
          "durationTicks": 261,
          "midi": 41,
          "name": "F2",
          "ticks": 49664,
          "time": 72.75,
          "velocity": 0.5118110236220472
        },
        {
          "duration": 0.35595703125,
          "durationTicks": 243,
          "midi": 34,
          "name": "A#1",
          "ticks": 49920,
          "time": 73.125,
          "velocity": 0.4881889763779528
        },
        {
          "duration": 0.375,
          "durationTicks": 256,
          "midi": 39,
          "name": "D#2",
          "ticks": 50176,
          "time": 73.5,
          "velocity": 0.5433070866141733
        },
        {
          "duration": 0.375,
          "durationTicks": 256,
          "midi": 41,
          "name": "F2",
          "ticks": 50688,
          "time": 74.25,
          "velocity": 0.41732283464566927
        },
        {
          "duration": 0.375,
          "durationTicks": 256,
          "midi": 34,
          "name": "A#1",
          "ticks": 51200,
          "time": 75,
          "velocity": 0.41732283464566927
        },
        {
          "duration": 1.14697265625,
          "durationTicks": 783,
          "midi": 51,
          "name": "D#3",
          "ticks": 56320,
          "time": 82.5,
          "velocity": 0.4015748031496063
        },
        {
          "duration": 0.35595703125,
          "durationTicks": 243,
          "midi": 50,
          "name": "D3",
          "ticks": 57088,
          "time": 83.625,
          "velocity": 0.3937007874015748
        },
        {
          "duration": 0.38232421875,
          "durationTicks": 261,
          "midi": 43,
          "name": "G2",
          "ticks": 57344,
          "time": 84,
          "velocity": 0.4251968503937008
        },
        {
          "duration": 0.38232421875,
          "durationTicks": 261,
          "midi": 48,
          "name": "C3",
          "ticks": 57600,
          "time": 84.375,
          "velocity": 0.41732283464566927
        },
        {
          "duration": 0.38232421875,
          "durationTicks": 261,
          "midi": 41,
          "name": "F2",
          "ticks": 57856,
          "time": 84.75,
          "velocity": 0.4330708661417323
        },
        {
          "duration": 0.35595703125,
          "durationTicks": 243,
          "midi": 46,
          "name": "A#2",
          "ticks": 58112,
          "time": 85.125,
          "velocity": 0.4566929133858268
        },
        {
          "duration": 1.5,
          "durationTicks": 1024,
          "midi": 39,
          "name": "D#2",
          "ticks": 58368,
          "time": 85.5,
          "velocity": 0.4251968503937008
        },
        {
          "duration": 1.5,
          "durationTicks": 1024,
          "midi": 39,
          "name": "D#2",
          "ticks": 59392,
          "time": 87,
          "velocity": 0.4566929133858268
        },
        {
          "duration": 1.5,
          "durationTicks": 1024,
          "midi": 39,
          "name": "D#2",
          "ticks": 60416,
          "time": 88.5,
          "velocity": 0.47244094488188976
        },
        {
          "duration": 1.5,
          "durationTicks": 1024,
          "midi": 39,
          "name": "D#2",
          "ticks": 61440,
          "time": 90,
          "velocity": 0.47244094488188976
        },
        {
          "duration": 0.1875,
          "durationTicks": 128,
          "midi": 39,
          "name": "D#2",
          "ticks": 62464,
          "time": 91.5,
          "velocity": 0.48031496062992124
        },
        {
          "duration": 0.1875,
          "durationTicks": 128,
          "midi": 39,
          "name": "D#2",
          "ticks": 62592,
          "time": 91.6875,
          "velocity": 0.4645669291338583
        },
        {
          "duration": 0.1875,
          "durationTicks": 128,
          "midi": 39,
          "name": "D#2",
          "ticks": 62720,
          "time": 91.875,
          "velocity": 0.49606299212598426
        },
        {
          "duration": 0.1875,
          "durationTicks": 128,
          "midi": 39,
          "name": "D#2",
          "ticks": 62848,
          "time": 92.0625,
          "velocity": 0.5196850393700787
        },
        {
          "duration": 0.1875,
          "durationTicks": 128,
          "midi": 39,
          "name": "D#2",
          "ticks": 62976,
          "time": 92.25,
          "velocity": 0.5669291338582677
        },
        {
          "duration": 0.1875,
          "durationTicks": 128,
          "midi": 39,
          "name": "D#2",
          "ticks": 63104,
          "time": 92.4375,
          "velocity": 0.5984251968503937
        },
        {
          "duration": 0.1875,
          "durationTicks": 128,
          "midi": 39,
          "name": "D#2",
          "ticks": 63232,
          "time": 92.625,
          "velocity": 0.5905511811023622
        },
        {
          "duration": 0.1875,
          "durationTicks": 128,
          "midi": 39,
          "name": "D#2",
          "ticks": 63360,
          "time": 92.8125,
          "velocity": 0.6062992125984252
        },
        {
          "duration": 0.1875,
          "durationTicks": 128,
          "midi": 40,
          "name": "E2",
          "ticks": 63488,
          "time": 93,
          "velocity": 0.6299212598425197
        },
        {
          "duration": 0.1875,
          "durationTicks": 128,
          "midi": 40,
          "name": "E2",
          "ticks": 63616,
          "time": 93.1875,
          "velocity": 0.6377952755905512
        },
        {
          "duration": 0.1875,
          "durationTicks": 128,
          "midi": 40,
          "name": "E2",
          "ticks": 63744,
          "time": 93.375,
          "velocity": 0.6456692913385826
        },
        {
          "duration": 0.1875,
          "durationTicks": 128,
          "midi": 40,
          "name": "E2",
          "ticks": 63872,
          "time": 93.5625,
          "velocity": 0.6692913385826772
        },
        {
          "duration": 0.1875,
          "durationTicks": 128,
          "midi": 40,
          "name": "E2",
          "ticks": 64000,
          "time": 93.75,
          "velocity": 0.7007874015748031
        },
        {
          "duration": 0.1875,
          "durationTicks": 128,
          "midi": 40,
          "name": "E2",
          "ticks": 64128,
          "time": 93.9375,
          "velocity": 0.7086614173228346
        },
        {
          "duration": 0.1875,
          "durationTicks": 128,
          "midi": 40,
          "name": "E2",
          "ticks": 64256,
          "time": 94.125,
          "velocity": 0.7559055118110236
        },
        {
          "duration": 0.1875,
          "durationTicks": 128,
          "midi": 40,
          "name": "E2",
          "ticks": 64384,
          "time": 94.3125,
          "velocity": 0.7716535433070866
        },
        {
          "duration": 0.1875,
          "durationTicks": 128,
          "midi": 41,
          "name": "F2",
          "ticks": 64512,
          "time": 94.5,
          "velocity": 0.7952755905511811
        },
        {
          "duration": 0.1875,
          "durationTicks": 128,
          "midi": 41,
          "name": "F2",
          "ticks": 64640,
          "time": 94.6875,
          "velocity": 0.8031496062992126
        },
        {
          "duration": 0.1875,
          "durationTicks": 128,
          "midi": 41,
          "name": "F2",
          "ticks": 64768,
          "time": 94.875,
          "velocity": 0.7401574803149606
        },
        {
          "duration": 0.1875,
          "durationTicks": 128,
          "midi": 41,
          "name": "F2",
          "ticks": 64896,
          "time": 95.0625,
          "velocity": 0.7480314960629921
        },
        {
          "duration": 0.1875,
          "durationTicks": 128,
          "midi": 41,
          "name": "F2",
          "ticks": 65024,
          "time": 95.25,
          "velocity": 0.7637795275590551
        },
        {
          "duration": 0.1875,
          "durationTicks": 128,
          "midi": 41,
          "name": "F2",
          "ticks": 65152,
          "time": 95.4375,
          "velocity": 0.7480314960629921
        },
        {
          "duration": 0.1875,
          "durationTicks": 128,
          "midi": 41,
          "name": "F2",
          "ticks": 65280,
          "time": 95.625,
          "velocity": 0.7480314960629921
        },
        {
          "duration": 0.1875,
          "durationTicks": 128,
          "midi": 41,
          "name": "F2",
          "ticks": 65408,
          "time": 95.8125,
          "velocity": 0.8110236220472441
        },
        {
          "duration": 0.1875,
          "durationTicks": 128,
          "midi": 29,
          "name": "F1",
          "ticks": 65536,
          "time": 96,
          "velocity": 0.6614173228346457
        },
        {
          "duration": 0.1875,
          "durationTicks": 128,
          "midi": 29,
          "name": "F1",
          "ticks": 65664,
          "time": 96.1875,
          "velocity": 0.7716535433070866
        },
        {
          "duration": 0.1875,
          "durationTicks": 128,
          "midi": 29,
          "name": "F1",
          "ticks": 65792,
          "time": 96.375,
          "velocity": 0.7952755905511811
        },
        {
          "duration": 0.1875,
          "durationTicks": 128,
          "midi": 29,
          "name": "F1",
          "ticks": 65920,
          "time": 96.5625,
          "velocity": 0.7637795275590551
        },
        {
          "duration": 0.1875,
          "durationTicks": 128,
          "midi": 29,
          "name": "F1",
          "ticks": 66048,
          "time": 96.75,
          "velocity": 0.7637795275590551
        },
        {
          "duration": 0.1875,
          "durationTicks": 128,
          "midi": 29,
          "name": "F1",
          "ticks": 66176,
          "time": 96.9375,
          "velocity": 0.7795275590551181
        },
        {
          "duration": 0.1875,
          "durationTicks": 128,
          "midi": 29,
          "name": "F1",
          "ticks": 66304,
          "time": 97.125,
          "velocity": 0.7559055118110236
        },
        {
          "duration": 0.1875,
          "durationTicks": 128,
          "midi": 29,
          "name": "F1",
          "ticks": 66432,
          "time": 97.3125,
          "velocity": 0.7480314960629921
        },
        {
          "duration": 0.375,
          "durationTicks": 256,
          "midi": 34,
          "name": "A#1",
          "ticks": 66560,
          "time": 97.5,
          "velocity": 0.84251968503937
        },
        {
          "duration": 0.75,
          "durationTicks": 512,
          "midi": 38,
          "name": "D2",
          "ticks": 66816,
          "time": 97.875,
          "velocity": 0.8188976377952756
        },
        {
          "duration": 0.1875,
          "durationTicks": 128,
          "midi": 39,
          "name": "D#2",
          "ticks": 67328,
          "time": 98.625,
          "velocity": 0.7795275590551181
        },
        {
          "duration": 0.1875,
          "durationTicks": 128,
          "midi": 40,
          "name": "E2",
          "ticks": 67584,
          "time": 99,
          "velocity": 0.7637795275590551
        },
        {
          "duration": 0.1875,
          "durationTicks": 128,
          "midi": 41,
          "name": "F2",
          "ticks": 67840,
          "time": 99.375,
          "velocity": 0.7874015748031497
        },
        {
          "duration": 0.1875,
          "durationTicks": 128,
          "midi": 42,
          "name": "F#2",
          "ticks": 68096,
          "time": 99.75,
          "velocity": 0.7637795275590551
        },
        {
          "duration": 0.1875,
          "durationTicks": 128,
          "midi": 43,
          "name": "G2",
          "ticks": 68352,
          "time": 100.125,
          "velocity": 0.7795275590551181
        },
        {
          "duration": 0.375,
          "durationTicks": 256,
          "midi": 44,
          "name": "G#2",
          "ticks": 68608,
          "time": 100.5,
          "velocity": 0.8267716535433071
        },
        {
          "duration": 0.09375,
          "durationTicks": 64,
          "midi": 44,
          "name": "G#2",
          "ticks": 69056,
          "time": 101.15625,
          "velocity": 0.6692913385826772
        },
        {
          "duration": 0.375,
          "durationTicks": 256,
          "midi": 43,
          "name": "G2",
          "ticks": 69120,
          "time": 101.25,
          "velocity": 0.7165354330708661
        },
        {
          "duration": 0.09375,
          "durationTicks": 64,
          "midi": 43,
          "name": "G2",
          "ticks": 69568,
          "time": 101.90625,
          "velocity": 0.6850393700787402
        },
        {
          "duration": 0.375,
          "durationTicks": 256,
          "midi": 51,
          "name": "D#3",
          "ticks": 69632,
          "time": 102,
          "velocity": 0.8503937007874016
        },
        {
          "duration": 0.09375,
          "durationTicks": 64,
          "midi": 51,
          "name": "D#3",
          "ticks": 70080,
          "time": 102.65625,
          "velocity": 0.7165354330708661
        },
        {
          "duration": 0.375,
          "durationTicks": 256,
          "midi": 50,
          "name": "D3",
          "ticks": 70144,
          "time": 102.75,
          "velocity": 0.7007874015748031
        },
        {
          "duration": 0.09375,
          "durationTicks": 64,
          "midi": 50,
          "name": "D3",
          "ticks": 70592,
          "time": 103.40625,
          "velocity": 0.6535433070866141
        },
        {
          "duration": 0.375,
          "durationTicks": 256,
          "midi": 39,
          "name": "D#2",
          "ticks": 70656,
          "time": 103.5,
          "velocity": 0.6535433070866141
        },
        {
          "duration": 0.375,
          "durationTicks": 256,
          "midi": 41,
          "name": "F2",
          "ticks": 71680,
          "time": 105,
          "velocity": 0.41732283464566927
        },
        {
          "duration": 1.5,
          "durationTicks": 1024,
          "midi": 39,
          "name": "D#2",
          "ticks": 74240,
          "time": 108.75,
          "velocity": 0.44881889763779526
        },
        {
          "duration": 0.35595703125,
          "durationTicks": 243,
          "midi": 38,
          "name": "D2",
          "ticks": 75264,
          "time": 110.25,
          "velocity": 0.4409448818897638
        },
        {
          "duration": 1.5,
          "durationTicks": 1024,
          "midi": 39,
          "name": "D#2",
          "ticks": 76288,
          "time": 111.75,
          "velocity": 0.44881889763779526
        },
        {
          "duration": 0.35595703125,
          "durationTicks": 243,
          "midi": 38,
          "name": "D2",
          "ticks": 77312,
          "time": 113.25,
          "velocity": 0.47244094488188976
        },
        {
          "duration": 0.1875,
          "durationTicks": 128,
          "midi": 38,
          "name": "D2",
          "ticks": 77824,
          "time": 114,
          "velocity": 0.7244094488188977
        },
        {
          "duration": 0.1875,
          "durationTicks": 128,
          "midi": 38,
          "name": "D2",
          "ticks": 77952,
          "time": 114.1875,
          "velocity": 0.7559055118110236
        },
        {
          "duration": 0.1875,
          "durationTicks": 128,
          "midi": 38,
          "name": "D2",
          "ticks": 78080,
          "time": 114.375,
          "velocity": 0.8031496062992126
        },
        {
          "duration": 0.1875,
          "durationTicks": 128,
          "midi": 38,
          "name": "D2",
          "ticks": 78208,
          "time": 114.5625,
          "velocity": 0.7952755905511811
        },
        {
          "duration": 0.1875,
          "durationTicks": 128,
          "midi": 38,
          "name": "D2",
          "ticks": 78336,
          "time": 114.75,
          "velocity": 0.7559055118110236
        },
        {
          "duration": 0.1875,
          "durationTicks": 128,
          "midi": 38,
          "name": "D2",
          "ticks": 78464,
          "time": 114.9375,
          "velocity": 0.7559055118110236
        },
        {
          "duration": 0.1875,
          "durationTicks": 128,
          "midi": 38,
          "name": "D2",
          "ticks": 78592,
          "time": 115.125,
          "velocity": 0.7637795275590551
        },
        {
          "duration": 0.1875,
          "durationTicks": 128,
          "midi": 38,
          "name": "D2",
          "ticks": 78720,
          "time": 115.3125,
          "velocity": 0.7401574803149606
        },
        {
          "duration": 0.1875,
          "durationTicks": 128,
          "midi": 43,
          "name": "G2",
          "ticks": 78848,
          "time": 115.5,
          "velocity": 0.8740157480314961
        },
        {
          "duration": 0.1875,
          "durationTicks": 128,
          "midi": 43,
          "name": "G2",
          "ticks": 78976,
          "time": 115.6875,
          "velocity": 0.7716535433070866
        },
        {
          "duration": 0.1875,
          "durationTicks": 128,
          "midi": 43,
          "name": "G2",
          "ticks": 79104,
          "time": 115.875,
          "velocity": 0.7559055118110236
        },
        {
          "duration": 0.1875,
          "durationTicks": 128,
          "midi": 43,
          "name": "G2",
          "ticks": 79232,
          "time": 116.0625,
          "velocity": 0.8110236220472441
        },
        {
          "duration": 0.1875,
          "durationTicks": 128,
          "midi": 39,
          "name": "D#2",
          "ticks": 79360,
          "time": 116.25,
          "velocity": 0.7480314960629921
        },
        {
          "duration": 0.1875,
          "durationTicks": 128,
          "midi": 39,
          "name": "D#2",
          "ticks": 79488,
          "time": 116.4375,
          "velocity": 0.7874015748031497
        },
        {
          "duration": 0.1875,
          "durationTicks": 128,
          "midi": 39,
          "name": "D#2",
          "ticks": 79616,
          "time": 116.625,
          "velocity": 0.7795275590551181
        },
        {
          "duration": 0.1875,
          "durationTicks": 128,
          "midi": 39,
          "name": "D#2",
          "ticks": 79744,
          "time": 116.8125,
          "velocity": 0.7716535433070866
        },
        {
          "duration": 0.1875,
          "durationTicks": 128,
          "midi": 41,
          "name": "F2",
          "ticks": 79872,
          "time": 117,
          "velocity": 0.8267716535433071
        },
        {
          "duration": 0.1875,
          "durationTicks": 128,
          "midi": 41,
          "name": "F2",
          "ticks": 80000,
          "time": 117.1875,
          "velocity": 0.7401574803149606
        },
        {
          "duration": 0.1875,
          "durationTicks": 128,
          "midi": 41,
          "name": "F2",
          "ticks": 80128,
          "time": 117.375,
          "velocity": 0.7795275590551181
        },
        {
          "duration": 0.1875,
          "durationTicks": 128,
          "midi": 41,
          "name": "F2",
          "ticks": 80256,
          "time": 117.5625,
          "velocity": 0.7559055118110236
        },
        {
          "duration": 0.1875,
          "durationTicks": 128,
          "midi": 29,
          "name": "F1",
          "ticks": 80384,
          "time": 117.75,
          "velocity": 0.6692913385826772
        },
        {
          "duration": 0.1875,
          "durationTicks": 128,
          "midi": 29,
          "name": "F1",
          "ticks": 80512,
          "time": 117.9375,
          "velocity": 0.7795275590551181
        },
        {
          "duration": 0.1875,
          "durationTicks": 128,
          "midi": 29,
          "name": "F1",
          "ticks": 80640,
          "time": 118.125,
          "velocity": 0.7874015748031497
        },
        {
          "duration": 0.1875,
          "durationTicks": 128,
          "midi": 29,
          "name": "F1",
          "ticks": 80768,
          "time": 118.3125,
          "velocity": 0.7559055118110236
        },
        {
          "duration": 0.375,
          "durationTicks": 256,
          "midi": 34,
          "name": "A#1",
          "ticks": 80896,
          "time": 118.5,
          "velocity": 0.8267716535433071
        },
        {
          "duration": 1.875,
          "durationTicks": 1280,
          "midi": 46,
          "name": "A#2",
          "ticks": 81408,
          "time": 119.25,
          "velocity": 0.4645669291338583
        },
        {
          "duration": 1.5,
          "durationTicks": 1024,
          "midi": 34,
          "name": "A#1",
          "ticks": 83456,
          "time": 122.25,
          "velocity": 0.4566929133858268
        },
        {
          "duration": 0.35595703125,
          "durationTicks": 243,
          "midi": 33,
          "name": "A1",
          "ticks": 84480,
          "time": 123.75,
          "velocity": 0.4645669291338583
        },
        {
          "duration": 0.1875,
          "durationTicks": 128,
          "midi": 38,
          "name": "D2",
          "ticks": 86016,
          "time": 126,
          "velocity": 0.7007874015748031
        },
        {
          "duration": 0.1875,
          "durationTicks": 128,
          "midi": 38,
          "name": "D2",
          "ticks": 86144,
          "time": 126.1875,
          "velocity": 0.7716535433070866
        },
        {
          "duration": 0.1875,
          "durationTicks": 128,
          "midi": 38,
          "name": "D2",
          "ticks": 86272,
          "time": 126.375,
          "velocity": 0.7559055118110236
        },
        {
          "duration": 0.1875,
          "durationTicks": 128,
          "midi": 38,
          "name": "D2",
          "ticks": 86400,
          "time": 126.5625,
          "velocity": 0.7952755905511811
        },
        {
          "duration": 0.1875,
          "durationTicks": 128,
          "midi": 38,
          "name": "D2",
          "ticks": 86528,
          "time": 126.75,
          "velocity": 0.8031496062992126
        },
        {
          "duration": 0.1875,
          "durationTicks": 128,
          "midi": 38,
          "name": "D2",
          "ticks": 86656,
          "time": 126.9375,
          "velocity": 0.7795275590551181
        },
        {
          "duration": 0.1875,
          "durationTicks": 128,
          "midi": 38,
          "name": "D2",
          "ticks": 86784,
          "time": 127.125,
          "velocity": 0.7716535433070866
        },
        {
          "duration": 0.1875,
          "durationTicks": 128,
          "midi": 38,
          "name": "D2",
          "ticks": 86912,
          "time": 127.3125,
          "velocity": 0.7637795275590551
        },
        {
          "duration": 0.1875,
          "durationTicks": 128,
          "midi": 43,
          "name": "G2",
          "ticks": 87040,
          "time": 127.5,
          "velocity": 0.7480314960629921
        },
        {
          "duration": 0.1875,
          "durationTicks": 128,
          "midi": 43,
          "name": "G2",
          "ticks": 87168,
          "time": 127.6875,
          "velocity": 0.7795275590551181
        },
        {
          "duration": 0.1875,
          "durationTicks": 128,
          "midi": 43,
          "name": "G2",
          "ticks": 87296,
          "time": 127.875,
          "velocity": 0.7637795275590551
        },
        {
          "duration": 0.1875,
          "durationTicks": 128,
          "midi": 43,
          "name": "G2",
          "ticks": 87424,
          "time": 128.0625,
          "velocity": 0.7716535433070866
        },
        {
          "duration": 0.1875,
          "durationTicks": 128,
          "midi": 39,
          "name": "D#2",
          "ticks": 87552,
          "time": 128.25,
          "velocity": 0.7480314960629921
        },
        {
          "duration": 0.1875,
          "durationTicks": 128,
          "midi": 39,
          "name": "D#2",
          "ticks": 87680,
          "time": 128.4375,
          "velocity": 0.7637795275590551
        },
        {
          "duration": 0.1875,
          "durationTicks": 128,
          "midi": 39,
          "name": "D#2",
          "ticks": 87808,
          "time": 128.625,
          "velocity": 0.7480314960629921
        },
        {
          "duration": 0.1875,
          "durationTicks": 128,
          "midi": 39,
          "name": "D#2",
          "ticks": 87936,
          "time": 128.8125,
          "velocity": 0.7637795275590551
        },
        {
          "duration": 0.1875,
          "durationTicks": 128,
          "midi": 41,
          "name": "F2",
          "ticks": 88064,
          "time": 129,
          "velocity": 0.7874015748031497
        },
        {
          "duration": 0.1875,
          "durationTicks": 128,
          "midi": 41,
          "name": "F2",
          "ticks": 88192,
          "time": 129.1875,
          "velocity": 0.7716535433070866
        },
        {
          "duration": 0.1875,
          "durationTicks": 128,
          "midi": 41,
          "name": "F2",
          "ticks": 88320,
          "time": 129.375,
          "velocity": 0.7086614173228346
        },
        {
          "duration": 0.1875,
          "durationTicks": 128,
          "midi": 41,
          "name": "F2",
          "ticks": 88448,
          "time": 129.5625,
          "velocity": 0.7637795275590551
        },
        {
          "duration": 0.1875,
          "durationTicks": 128,
          "midi": 29,
          "name": "F1",
          "ticks": 88576,
          "time": 129.75,
          "velocity": 0.7007874015748031
        },
        {
          "duration": 0.1875,
          "durationTicks": 128,
          "midi": 29,
          "name": "F1",
          "ticks": 88704,
          "time": 129.9375,
          "velocity": 0.7559055118110236
        },
        {
          "duration": 0.1875,
          "durationTicks": 128,
          "midi": 29,
          "name": "F1",
          "ticks": 88832,
          "time": 130.125,
          "velocity": 0.7401574803149606
        },
        {
          "duration": 0.1875,
          "durationTicks": 128,
          "midi": 29,
          "name": "F1",
          "ticks": 88960,
          "time": 130.3125,
          "velocity": 0.7874015748031497
        },
        {
          "duration": 0.75,
          "durationTicks": 512,
          "midi": 34,
          "name": "A#1",
          "ticks": 89088,
          "time": 130.5,
          "velocity": 0.8267716535433071
        },
        {
          "duration": 0.1875,
          "durationTicks": 128,
          "midi": 53,
          "name": "F3",
          "ticks": 89984,
          "time": 131.8125,
          "velocity": 0.6850393700787402
        },
        {
          "duration": 0.1875,
          "durationTicks": 128,
          "midi": 51,
          "name": "D#3",
          "ticks": 90112,
          "time": 132,
          "velocity": 0.7244094488188977
        },
        {
          "duration": 0.1875,
          "durationTicks": 128,
          "midi": 50,
          "name": "D3",
          "ticks": 90240,
          "time": 132.1875,
          "velocity": 0.7322834645669292
        },
        {
          "duration": 0.1875,
          "durationTicks": 128,
          "midi": 48,
          "name": "C3",
          "ticks": 90368,
          "time": 132.375,
          "velocity": 0.7716535433070866
        },
        {
          "duration": 0.1875,
          "durationTicks": 128,
          "midi": 46,
          "name": "A#2",
          "ticks": 90496,
          "time": 132.5625,
          "velocity": 0.7401574803149606
        },
        {
          "duration": 0.1875,
          "durationTicks": 128,
          "midi": 45,
          "name": "A2",
          "ticks": 90624,
          "time": 132.75,
          "velocity": 0.7401574803149606
        },
        {
          "duration": 0.1875,
          "durationTicks": 128,
          "midi": 43,
          "name": "G2",
          "ticks": 90752,
          "time": 132.9375,
          "velocity": 0.7244094488188977
        },
        {
          "duration": 0.1875,
          "durationTicks": 128,
          "midi": 41,
          "name": "F2",
          "ticks": 90880,
          "time": 133.125,
          "velocity": 0.7716535433070866
        },
        {
          "duration": 0.1875,
          "durationTicks": 128,
          "midi": 39,
          "name": "D#2",
          "ticks": 91008,
          "time": 133.3125,
          "velocity": 0.7559055118110236
        },
        {
          "duration": 0.375,
          "durationTicks": 256,
          "midi": 38,
          "name": "D2",
          "ticks": 91136,
          "time": 133.5,
          "velocity": 0.7952755905511811
        },
        {
          "duration": 0.375,
          "durationTicks": 256,
          "midi": 38,
          "name": "D2",
          "ticks": 91392,
          "time": 133.875,
          "velocity": 0.7874015748031497
        },
        {
          "duration": 0.375,
          "durationTicks": 256,
          "midi": 39,
          "name": "D#2",
          "ticks": 91648,
          "time": 134.25,
          "velocity": 0.7480314960629921
        },
        {
          "duration": 0.375,
          "durationTicks": 256,
          "midi": 41,
          "name": "F2",
          "ticks": 91904,
          "time": 134.625,
          "velocity": 0.7795275590551181
        },
        {
          "duration": 0.1875,
          "durationTicks": 128,
          "midi": 46,
          "name": "A#2",
          "ticks": 92160,
          "time": 135,
          "velocity": 0.7795275590551181
        },
        {
          "duration": 0.1875,
          "durationTicks": 128,
          "midi": 41,
          "name": "F2",
          "ticks": 92288,
          "time": 135.1875,
          "velocity": 0.7322834645669292
        },
        {
          "duration": 0.1875,
          "durationTicks": 128,
          "midi": 50,
          "name": "D3",
          "ticks": 92416,
          "time": 135.375,
          "velocity": 0.8582677165354331
        },
        {
          "duration": 0.1875,
          "durationTicks": 128,
          "midi": 48,
          "name": "C3",
          "ticks": 92544,
          "time": 135.5625,
          "velocity": 0.7401574803149606
        },
        {
          "duration": 0.1875,
          "durationTicks": 128,
          "midi": 46,
          "name": "A#2",
          "ticks": 92672,
          "time": 135.75,
          "velocity": 0.7637795275590551
        },
        {
          "duration": 0.1875,
          "durationTicks": 128,
          "midi": 45,
          "name": "A2",
          "ticks": 92800,
          "time": 135.9375,
          "velocity": 0.7637795275590551
        },
        {
          "duration": 0.1875,
          "durationTicks": 128,
          "midi": 43,
          "name": "G2",
          "ticks": 92928,
          "time": 136.125,
          "velocity": 0.7480314960629921
        },
        {
          "duration": 0.1875,
          "durationTicks": 128,
          "midi": 41,
          "name": "F2",
          "ticks": 93056,
          "time": 136.3125,
          "velocity": 0.7322834645669292
        },
        {
          "duration": 0.1875,
          "durationTicks": 128,
          "midi": 39,
          "name": "D#2",
          "ticks": 93184,
          "time": 136.5,
          "velocity": 0.7244094488188977
        },
        {
          "duration": 0.1875,
          "durationTicks": 128,
          "midi": 38,
          "name": "D2",
          "ticks": 93312,
          "time": 136.6875,
          "velocity": 0.7637795275590551
        },
        {
          "duration": 0.1875,
          "durationTicks": 128,
          "midi": 36,
          "name": "C2",
          "ticks": 93440,
          "time": 136.875,
          "velocity": 0.7637795275590551
        },
        {
          "duration": 0.1875,
          "durationTicks": 128,
          "midi": 34,
          "name": "A#1",
          "ticks": 93568,
          "time": 137.0625,
          "velocity": 0.7716535433070866
        },
        {
          "duration": 0.1875,
          "durationTicks": 128,
          "midi": 33,
          "name": "A1",
          "ticks": 93696,
          "time": 137.25,
          "velocity": 0.7401574803149606
        },
        {
          "duration": 0.1875,
          "durationTicks": 128,
          "midi": 36,
          "name": "C2",
          "ticks": 93824,
          "time": 137.4375,
          "velocity": 0.7795275590551181
        },
        {
          "duration": 0.1875,
          "durationTicks": 128,
          "midi": 41,
          "name": "F2",
          "ticks": 93952,
          "time": 137.625,
          "velocity": 0.8346456692913385
        },
        {
          "duration": 0.1875,
          "durationTicks": 128,
          "midi": 39,
          "name": "D#2",
          "ticks": 94080,
          "time": 137.8125,
          "velocity": 0.8031496062992126
        },
        {
          "duration": 0.375,
          "durationTicks": 256,
          "midi": 38,
          "name": "D2",
          "ticks": 94208,
          "time": 138,
          "velocity": 0.7244094488188977
        },
        {
          "duration": 0.375,
          "durationTicks": 256,
          "midi": 38,
          "name": "D2",
          "ticks": 94464,
          "time": 138.375,
          "velocity": 0.7637795275590551
        },
        {
          "duration": 0.375,
          "durationTicks": 256,
          "midi": 39,
          "name": "D#2",
          "ticks": 94720,
          "time": 138.75,
          "velocity": 0.7716535433070866
        },
        {
          "duration": 0.375,
          "durationTicks": 256,
          "midi": 41,
          "name": "F2",
          "ticks": 94976,
          "time": 139.125,
          "velocity": 0.8031496062992126
        },
        {
          "duration": 0.375,
          "durationTicks": 256,
          "midi": 43,
          "name": "G2",
          "ticks": 95232,
          "time": 139.5,
          "velocity": 0.7874015748031497
        },
        {
          "duration": 0.375,
          "durationTicks": 256,
          "midi": 39,
          "name": "D#2",
          "ticks": 95488,
          "time": 139.875,
          "velocity": 0.7244094488188977
        },
        {
          "duration": 0.375,
          "durationTicks": 256,
          "midi": 41,
          "name": "F2",
          "ticks": 95744,
          "time": 140.25,
          "velocity": 0.7716535433070866
        },
        {
          "duration": 0.375,
          "durationTicks": 256,
          "midi": 29,
          "name": "F1",
          "ticks": 96000,
          "time": 140.625,
          "velocity": 0.6535433070866141
        },
        {
          "duration": 0.375,
          "durationTicks": 256,
          "midi": 34,
          "name": "A#1",
          "ticks": 96256,
          "time": 141,
          "velocity": 0.8346456692913385
        },
        {
          "duration": 0.375,
          "durationTicks": 256,
          "midi": 41,
          "name": "F2",
          "ticks": 96768,
          "time": 141.75,
          "velocity": 0.6929133858267716
        },
        {
          "duration": 0.375,
          "durationTicks": 256,
          "midi": 46,
          "name": "A#2",
          "ticks": 97280,
          "time": 142.5,
          "velocity": 0.7086614173228346
        },
        {
          "duration": 0.375,
          "durationTicks": 256,
          "midi": 41,
          "name": "F2",
          "ticks": 97792,
          "time": 143.25,
          "velocity": 0.7322834645669292
        },
        {
          "duration": 0.375,
          "durationTicks": 256,
          "midi": 46,
          "name": "A#2",
          "ticks": 98304,
          "time": 144,
          "velocity": 0.7244094488188977
        },
        {
          "duration": 0.375,
          "durationTicks": 256,
          "midi": 41,
          "name": "F2",
          "ticks": 98816,
          "time": 144.75,
          "velocity": 0.7007874015748031
        },
        {
          "duration": 0.375,
          "durationTicks": 256,
          "midi": 46,
          "name": "A#2",
          "ticks": 99328,
          "time": 145.5,
          "velocity": 0.7086614173228346
        },
        {
          "duration": 0.375,
          "durationTicks": 256,
          "midi": 41,
          "name": "F2",
          "ticks": 99584,
          "time": 145.875,
          "velocity": 0.6692913385826772
        },
        {
          "duration": 0.375,
          "durationTicks": 256,
          "midi": 46,
          "name": "A#2",
          "ticks": 99840,
          "time": 146.25,
          "velocity": 0.8188976377952756
        },
        {
          "duration": 0.375,
          "durationTicks": 256,
          "midi": 41,
          "name": "F2",
          "ticks": 100096,
          "time": 146.625,
          "velocity": 0.7165354330708661
        },
        {
          "duration": 0.375,
          "durationTicks": 256,
          "midi": 46,
          "name": "A#2",
          "ticks": 100352,
          "time": 147,
          "velocity": 0.7874015748031497
        },
        {
          "duration": 0.375,
          "durationTicks": 256,
          "midi": 45,
          "name": "A2",
          "ticks": 101376,
          "time": 148.5,
          "velocity": 0.6771653543307087
        },
        {
          "duration": 0.375,
          "durationTicks": 256,
          "midi": 31,
          "name": "G1",
          "ticks": 102400,
          "time": 150,
          "velocity": 0.4094488188976378
        },
        {
          "duration": 0.375,
          "durationTicks": 256,
          "midi": 43,
          "name": "G2",
          "ticks": 103424,
          "time": 151.5,
          "velocity": 0.44881889763779526
        },
        {
          "duration": 0.375,
          "durationTicks": 256,
          "midi": 31,
          "name": "G1",
          "ticks": 104448,
          "time": 153,
          "velocity": 0.4251968503937008
        },
        {
          "duration": 0.375,
          "durationTicks": 256,
          "midi": 43,
          "name": "G2",
          "ticks": 105472,
          "time": 154.5,
          "velocity": 0.4015748031496063
        },
        {
          "duration": 0.375,
          "durationTicks": 256,
          "midi": 31,
          "name": "G1",
          "ticks": 106496,
          "time": 156,
          "velocity": 0.4015748031496063
        },
        {
          "duration": 0.375,
          "durationTicks": 256,
          "midi": 43,
          "name": "G2",
          "ticks": 107520,
          "time": 157.5,
          "velocity": 0.4566929133858268
        },
        {
          "duration": 0.375,
          "durationTicks": 256,
          "midi": 30,
          "name": "F#1",
          "ticks": 108544,
          "time": 159,
          "velocity": 0.4015748031496063
        },
        {
          "duration": 0.375,
          "durationTicks": 256,
          "midi": 38,
          "name": "D2",
          "ticks": 109568,
          "time": 160.5,
          "velocity": 0.4251968503937008
        },
        {
          "duration": 0.375,
          "durationTicks": 256,
          "midi": 31,
          "name": "G1",
          "ticks": 110592,
          "time": 162,
          "velocity": 0.41732283464566927
        },
        {
          "duration": 1.5,
          "durationTicks": 1024,
          "midi": 36,
          "name": "C2",
          "ticks": 111616,
          "time": 163.5,
          "velocity": 0.4094488188976378
        },
        {
          "duration": 1.5,
          "durationTicks": 1024,
          "midi": 34,
          "name": "A#1",
          "ticks": 112640,
          "time": 165,
          "velocity": 0.4094488188976378
        },
        {
          "duration": 1.5,
          "durationTicks": 1024,
          "midi": 36,
          "name": "C2",
          "ticks": 113664,
          "time": 166.5,
          "velocity": 0.5433070866141733
        },
        {
          "duration": 1.5,
          "durationTicks": 1024,
          "midi": 34,
          "name": "A#1",
          "ticks": 114688,
          "time": 168,
          "velocity": 0.4566929133858268
        },
        {
          "duration": 1.5,
          "durationTicks": 1024,
          "midi": 40,
          "name": "E2",
          "ticks": 115712,
          "time": 169.5,
          "velocity": 0.5433070866141733
        },
        {
          "duration": 1.5,
          "durationTicks": 1024,
          "midi": 39,
          "name": "D#2",
          "ticks": 116736,
          "time": 171,
          "velocity": 0.4566929133858268
        },
        {
          "duration": 0.75,
          "durationTicks": 512,
          "midi": 38,
          "name": "D2",
          "ticks": 117760,
          "time": 172.5,
          "velocity": 0.4566929133858268
        },
        {
          "duration": 0.1875,
          "durationTicks": 128,
          "midi": 38,
          "name": "D2",
          "ticks": 118528,
          "time": 173.625,
          "velocity": 0.6929133858267716
        },
        {
          "duration": 0.1875,
          "durationTicks": 128,
          "midi": 38,
          "name": "D2",
          "ticks": 118656,
          "time": 173.8125,
          "velocity": 0.7480314960629921
        },
        {
          "duration": 0.75,
          "durationTicks": 512,
          "midi": 38,
          "name": "D2",
          "ticks": 118784,
          "time": 174,
          "velocity": 0.7559055118110236
        },
        {
          "duration": 0.1875,
          "durationTicks": 128,
          "midi": 38,
          "name": "D2",
          "ticks": 119552,
          "time": 175.125,
          "velocity": 0.6929133858267716
        },
        {
          "duration": 0.1875,
          "durationTicks": 128,
          "midi": 38,
          "name": "D2",
          "ticks": 119680,
          "time": 175.3125,
          "velocity": 0.7874015748031497
        },
        {
          "duration": 0.75,
          "durationTicks": 512,
          "midi": 38,
          "name": "D2",
          "ticks": 119808,
          "time": 175.5,
          "velocity": 0.7559055118110236
        },
        {
          "duration": 0.1875,
          "durationTicks": 128,
          "midi": 38,
          "name": "D2",
          "ticks": 120576,
          "time": 176.625,
          "velocity": 0.6850393700787402
        },
        {
          "duration": 0.1875,
          "durationTicks": 128,
          "midi": 38,
          "name": "D2",
          "ticks": 120704,
          "time": 176.8125,
          "velocity": 0.7480314960629921
        },
        {
          "duration": 0.375,
          "durationTicks": 256,
          "midi": 38,
          "name": "D2",
          "ticks": 120832,
          "time": 177,
          "velocity": 0.7795275590551181
        },
        {
          "duration": 0.1875,
          "durationTicks": 128,
          "midi": 38,
          "name": "D2",
          "ticks": 121088,
          "time": 177.375,
          "velocity": 0.7480314960629921
        },
        {
          "duration": 0.1875,
          "durationTicks": 128,
          "midi": 38,
          "name": "D2",
          "ticks": 121216,
          "time": 177.5625,
          "velocity": 0.7952755905511811
        },
        {
          "duration": 0.375,
          "durationTicks": 256,
          "midi": 38,
          "name": "D2",
          "ticks": 121344,
          "time": 177.75,
          "velocity": 0.7795275590551181
        },
        {
          "duration": 0.1875,
          "durationTicks": 128,
          "midi": 38,
          "name": "D2",
          "ticks": 121600,
          "time": 178.125,
          "velocity": 0.7401574803149606
        },
        {
          "duration": 0.1875,
          "durationTicks": 128,
          "midi": 38,
          "name": "D2",
          "ticks": 121728,
          "time": 178.3125,
          "velocity": 0.7637795275590551
        },
        {
          "duration": 0.75,
          "durationTicks": 512,
          "midi": 38,
          "name": "D2",
          "ticks": 121856,
          "time": 178.5,
          "velocity": 0.8031496062992126
        },
        {
          "duration": 0.375,
          "durationTicks": 256,
          "midi": 31,
          "name": "G1",
          "ticks": 123904,
          "time": 181.5,
          "velocity": 0.4015748031496063
        },
        {
          "duration": 0.375,
          "durationTicks": 256,
          "midi": 43,
          "name": "G2",
          "ticks": 124928,
          "time": 183,
          "velocity": 0.4645669291338583
        },
        {
          "duration": 0.375,
          "durationTicks": 256,
          "midi": 27,
          "name": "D#1",
          "ticks": 125952,
          "time": 184.5,
          "velocity": 0.44881889763779526
        },
        {
          "duration": 0.375,
          "durationTicks": 256,
          "midi": 36,
          "name": "C2",
          "ticks": 126976,
          "time": 186,
          "velocity": 0.41732283464566927
        },
        {
          "duration": 0.375,
          "durationTicks": 256,
          "midi": 29,
          "name": "F1",
          "ticks": 128000,
          "time": 187.5,
          "velocity": 0.41732283464566927
        },
        {
          "duration": 0.375,
          "durationTicks": 256,
          "midi": 41,
          "name": "F2",
          "ticks": 129024,
          "time": 189,
          "velocity": 0.4015748031496063
        },
        {
          "duration": 0.1875,
          "durationTicks": 128,
          "midi": 46,
          "name": "A#2",
          "ticks": 130048,
          "time": 190.5,
          "velocity": 0.6850393700787402
        },
        {
          "duration": 0.1875,
          "durationTicks": 128,
          "midi": 50,
          "name": "D3",
          "ticks": 130176,
          "time": 190.6875,
          "velocity": 0.8110236220472441
        },
        {
          "duration": 0.1875,
          "durationTicks": 128,
          "midi": 46,
          "name": "A#2",
          "ticks": 130304,
          "time": 190.875,
          "velocity": 0.7086614173228346
        },
        {
          "duration": 0.1875,
          "durationTicks": 128,
          "midi": 50,
          "name": "D3",
          "ticks": 130432,
          "time": 191.0625,
          "velocity": 0.7795275590551181
        },
        {
          "duration": 0.1875,
          "durationTicks": 128,
          "midi": 46,
          "name": "A#2",
          "ticks": 130560,
          "time": 191.25,
          "velocity": 0.7480314960629921
        },
        {
          "duration": 0.1875,
          "durationTicks": 128,
          "midi": 50,
          "name": "D3",
          "ticks": 130688,
          "time": 191.4375,
          "velocity": 0.8346456692913385
        },
        {
          "duration": 0.1875,
          "durationTicks": 128,
          "midi": 46,
          "name": "A#2",
          "ticks": 130816,
          "time": 191.625,
          "velocity": 0.7244094488188977
        },
        {
          "duration": 0.1875,
          "durationTicks": 128,
          "midi": 50,
          "name": "D3",
          "ticks": 130944,
          "time": 191.8125,
          "velocity": 0.7874015748031497
        },
        {
          "duration": 0.1875,
          "durationTicks": 128,
          "midi": 45,
          "name": "A2",
          "ticks": 131072,
          "time": 192,
          "velocity": 0.7244094488188977
        },
        {
          "duration": 0.1875,
          "durationTicks": 128,
          "midi": 48,
          "name": "C3",
          "ticks": 131200,
          "time": 192.1875,
          "velocity": 0.7952755905511811
        },
        {
          "duration": 0.1875,
          "durationTicks": 128,
          "midi": 45,
          "name": "A2",
          "ticks": 131328,
          "time": 192.375,
          "velocity": 0.7480314960629921
        },
        {
          "duration": 0.1875,
          "durationTicks": 128,
          "midi": 48,
          "name": "C3",
          "ticks": 131456,
          "time": 192.5625,
          "velocity": 0.7952755905511811
        },
        {
          "duration": 0.1875,
          "durationTicks": 128,
          "midi": 45,
          "name": "A2",
          "ticks": 131584,
          "time": 192.75,
          "velocity": 0.7401574803149606
        },
        {
          "duration": 0.1875,
          "durationTicks": 128,
          "midi": 48,
          "name": "C3",
          "ticks": 131712,
          "time": 192.9375,
          "velocity": 0.8031496062992126
        },
        {
          "duration": 0.1875,
          "durationTicks": 128,
          "midi": 45,
          "name": "A2",
          "ticks": 131840,
          "time": 193.125,
          "velocity": 0.7165354330708661
        },
        {
          "duration": 0.1875,
          "durationTicks": 128,
          "midi": 48,
          "name": "C3",
          "ticks": 131968,
          "time": 193.3125,
          "velocity": 0.7952755905511811
        },
        {
          "duration": 0.1875,
          "durationTicks": 128,
          "midi": 43,
          "name": "G2",
          "ticks": 132096,
          "time": 193.5,
          "velocity": 0.7007874015748031
        },
        {
          "duration": 0.1875,
          "durationTicks": 128,
          "midi": 46,
          "name": "A#2",
          "ticks": 132224,
          "time": 193.6875,
          "velocity": 0.7637795275590551
        },
        {
          "duration": 0.1875,
          "durationTicks": 128,
          "midi": 43,
          "name": "G2",
          "ticks": 132352,
          "time": 193.875,
          "velocity": 0.7401574803149606
        },
        {
          "duration": 0.1875,
          "durationTicks": 128,
          "midi": 46,
          "name": "A#2",
          "ticks": 132480,
          "time": 194.0625,
          "velocity": 0.7559055118110236
        },
        {
          "duration": 0.1875,
          "durationTicks": 128,
          "midi": 43,
          "name": "G2",
          "ticks": 132608,
          "time": 194.25,
          "velocity": 0.7559055118110236
        },
        {
          "duration": 0.1875,
          "durationTicks": 128,
          "midi": 46,
          "name": "A#2",
          "ticks": 132736,
          "time": 194.4375,
          "velocity": 0.8110236220472441
        },
        {
          "duration": 0.1875,
          "durationTicks": 128,
          "midi": 43,
          "name": "G2",
          "ticks": 132864,
          "time": 194.625,
          "velocity": 0.7086614173228346
        },
        {
          "duration": 0.1875,
          "durationTicks": 128,
          "midi": 46,
          "name": "A#2",
          "ticks": 132992,
          "time": 194.8125,
          "velocity": 0.8031496062992126
        },
        {
          "duration": 0.1875,
          "durationTicks": 128,
          "midi": 41,
          "name": "F2",
          "ticks": 133120,
          "time": 195,
          "velocity": 0.7165354330708661
        },
        {
          "duration": 0.1875,
          "durationTicks": 128,
          "midi": 46,
          "name": "A#2",
          "ticks": 133248,
          "time": 195.1875,
          "velocity": 0.7952755905511811
        },
        {
          "duration": 0.1875,
          "durationTicks": 128,
          "midi": 41,
          "name": "F2",
          "ticks": 133376,
          "time": 195.375,
          "velocity": 0.7244094488188977
        },
        {
          "duration": 0.1875,
          "durationTicks": 128,
          "midi": 46,
          "name": "A#2",
          "ticks": 133504,
          "time": 195.5625,
          "velocity": 0.8031496062992126
        },
        {
          "duration": 0.1875,
          "durationTicks": 128,
          "midi": 41,
          "name": "F2",
          "ticks": 133632,
          "time": 195.75,
          "velocity": 0.7165354330708661
        },
        {
          "duration": 0.1875,
          "durationTicks": 128,
          "midi": 46,
          "name": "A#2",
          "ticks": 133760,
          "time": 195.9375,
          "velocity": 0.7952755905511811
        },
        {
          "duration": 0.1875,
          "durationTicks": 128,
          "midi": 41,
          "name": "F2",
          "ticks": 133888,
          "time": 196.125,
          "velocity": 0.7716535433070866
        },
        {
          "duration": 0.1875,
          "durationTicks": 128,
          "midi": 46,
          "name": "A#2",
          "ticks": 134016,
          "time": 196.3125,
          "velocity": 0.8188976377952756
        },
        {
          "duration": 0.1875,
          "durationTicks": 128,
          "midi": 39,
          "name": "D#2",
          "ticks": 134144,
          "time": 196.5,
          "velocity": 0.7244094488188977
        },
        {
          "duration": 0.1875,
          "durationTicks": 128,
          "midi": 43,
          "name": "G2",
          "ticks": 134272,
          "time": 196.6875,
          "velocity": 0.7795275590551181
        },
        {
          "duration": 0.1875,
          "durationTicks": 128,
          "midi": 39,
          "name": "D#2",
          "ticks": 134400,
          "time": 196.875,
          "velocity": 0.7086614173228346
        },
        {
          "duration": 0.1875,
          "durationTicks": 128,
          "midi": 43,
          "name": "G2",
          "ticks": 134528,
          "time": 197.0625,
          "velocity": 0.8110236220472441
        },
        {
          "duration": 0.1875,
          "durationTicks": 128,
          "midi": 39,
          "name": "D#2",
          "ticks": 134656,
          "time": 197.25,
          "velocity": 0.7559055118110236
        },
        {
          "duration": 0.1875,
          "durationTicks": 128,
          "midi": 43,
          "name": "G2",
          "ticks": 134784,
          "time": 197.4375,
          "velocity": 0.8110236220472441
        },
        {
          "duration": 0.1875,
          "durationTicks": 128,
          "midi": 39,
          "name": "D#2",
          "ticks": 134912,
          "time": 197.625,
          "velocity": 0.7401574803149606
        },
        {
          "duration": 0.1875,
          "durationTicks": 128,
          "midi": 43,
          "name": "G2",
          "ticks": 135040,
          "time": 197.8125,
          "velocity": 0.8110236220472441
        },
        {
          "duration": 0.1875,
          "durationTicks": 128,
          "midi": 38,
          "name": "D2",
          "ticks": 135168,
          "time": 198,
          "velocity": 0.7086614173228346
        },
        {
          "duration": 0.1875,
          "durationTicks": 128,
          "midi": 41,
          "name": "F2",
          "ticks": 135296,
          "time": 198.1875,
          "velocity": 0.7874015748031497
        },
        {
          "duration": 0.1875,
          "durationTicks": 128,
          "midi": 38,
          "name": "D2",
          "ticks": 135424,
          "time": 198.375,
          "velocity": 0.7007874015748031
        },
        {
          "duration": 0.1875,
          "durationTicks": 128,
          "midi": 41,
          "name": "F2",
          "ticks": 135552,
          "time": 198.5625,
          "velocity": 0.7952755905511811
        },
        {
          "duration": 0.1875,
          "durationTicks": 128,
          "midi": 38,
          "name": "D2",
          "ticks": 135680,
          "time": 198.75,
          "velocity": 0.7480314960629921
        },
        {
          "duration": 0.1875,
          "durationTicks": 128,
          "midi": 41,
          "name": "F2",
          "ticks": 135808,
          "time": 198.9375,
          "velocity": 0.8031496062992126
        },
        {
          "duration": 0.1875,
          "durationTicks": 128,
          "midi": 38,
          "name": "D2",
          "ticks": 135936,
          "time": 199.125,
          "velocity": 0.7401574803149606
        },
        {
          "duration": 0.1875,
          "durationTicks": 128,
          "midi": 41,
          "name": "F2",
          "ticks": 136064,
          "time": 199.3125,
          "velocity": 0.7795275590551181
        },
        {
          "duration": 0.75,
          "durationTicks": 512,
          "midi": 36,
          "name": "C2",
          "ticks": 136192,
          "time": 199.5,
          "velocity": 0.7244094488188977
        },
        {
          "duration": 0.375,
          "durationTicks": 256,
          "midi": 36,
          "name": "C2",
          "ticks": 137216,
          "time": 201,
          "velocity": 0.7244094488188977
        },
        {
          "duration": 0.375,
          "durationTicks": 256,
          "midi": 37,
          "name": "C#2",
          "ticks": 137728,
          "time": 201.75,
          "velocity": 0.8110236220472441
        },
        {
          "duration": 0.375,
          "durationTicks": 256,
          "midi": 36,
          "name": "C2",
          "ticks": 138240,
          "time": 202.5,
          "velocity": 0.8031496062992126
        },
        {
          "duration": 0.375,
          "durationTicks": 256,
          "midi": 37,
          "name": "C#2",
          "ticks": 138752,
          "time": 203.25,
          "velocity": 0.8031496062992126
        },
        {
          "duration": 0.375,
          "durationTicks": 256,
          "midi": 36,
          "name": "C2",
          "ticks": 139264,
          "time": 204,
          "velocity": 0.7559055118110236
        },
        {
          "duration": 0.1875,
          "durationTicks": 128,
          "midi": 36,
          "name": "C2",
          "ticks": 140160,
          "time": 205.3125,
          "velocity": 0.6850393700787402
        },
        {
          "duration": 0.1875,
          "durationTicks": 128,
          "midi": 41,
          "name": "F2",
          "ticks": 140288,
          "time": 205.5,
          "velocity": 0.7952755905511811
        },
        {
          "duration": 0.1875,
          "durationTicks": 128,
          "midi": 41,
          "name": "F2",
          "ticks": 140416,
          "time": 205.6875,
          "velocity": 0.7795275590551181
        },
        {
          "duration": 0.1875,
          "durationTicks": 128,
          "midi": 41,
          "name": "F2",
          "ticks": 140544,
          "time": 205.875,
          "velocity": 0.8110236220472441
        },
        {
          "duration": 0.1875,
          "durationTicks": 128,
          "midi": 41,
          "name": "F2",
          "ticks": 140672,
          "time": 206.0625,
          "velocity": 0.7874015748031497
        },
        {
          "duration": 0.1875,
          "durationTicks": 128,
          "midi": 41,
          "name": "F2",
          "ticks": 140800,
          "time": 206.25,
          "velocity": 0.7716535433070866
        },
        {
          "duration": 0.1875,
          "durationTicks": 128,
          "midi": 41,
          "name": "F2",
          "ticks": 140928,
          "time": 206.4375,
          "velocity": 0.7795275590551181
        },
        {
          "duration": 0.1875,
          "durationTicks": 128,
          "midi": 41,
          "name": "F2",
          "ticks": 141056,
          "time": 206.625,
          "velocity": 0.7716535433070866
        },
        {
          "duration": 0.1875,
          "durationTicks": 128,
          "midi": 41,
          "name": "F2",
          "ticks": 141184,
          "time": 206.8125,
          "velocity": 0.7559055118110236
        },
        {
          "duration": 0.1875,
          "durationTicks": 128,
          "midi": 41,
          "name": "F2",
          "ticks": 141312,
          "time": 207,
          "velocity": 0.7716535433070866
        },
        {
          "duration": 0.1875,
          "durationTicks": 128,
          "midi": 41,
          "name": "F2",
          "ticks": 141440,
          "time": 207.1875,
          "velocity": 0.7637795275590551
        },
        {
          "duration": 0.1875,
          "durationTicks": 128,
          "midi": 41,
          "name": "F2",
          "ticks": 141568,
          "time": 207.375,
          "velocity": 0.7716535433070866
        },
        {
          "duration": 0.1875,
          "durationTicks": 128,
          "midi": 41,
          "name": "F2",
          "ticks": 141696,
          "time": 207.5625,
          "velocity": 0.7795275590551181
        },
        {
          "duration": 0.1875,
          "durationTicks": 128,
          "midi": 41,
          "name": "F2",
          "ticks": 141824,
          "time": 207.75,
          "velocity": 0.7480314960629921
        },
        {
          "duration": 0.1875,
          "durationTicks": 128,
          "midi": 41,
          "name": "F2",
          "ticks": 141952,
          "time": 207.9375,
          "velocity": 0.7559055118110236
        },
        {
          "duration": 0.1875,
          "durationTicks": 128,
          "midi": 41,
          "name": "F2",
          "ticks": 142080,
          "time": 208.125,
          "velocity": 0.7401574803149606
        },
        {
          "duration": 0.1875,
          "durationTicks": 128,
          "midi": 41,
          "name": "F2",
          "ticks": 142208,
          "time": 208.3125,
          "velocity": 0.7322834645669292
        },
        {
          "duration": 0.1875,
          "durationTicks": 128,
          "midi": 41,
          "name": "F2",
          "ticks": 142336,
          "time": 208.5,
          "velocity": 0.7480314960629921
        },
        {
          "duration": 0.1875,
          "durationTicks": 128,
          "midi": 41,
          "name": "F2",
          "ticks": 142464,
          "time": 208.6875,
          "velocity": 0.7716535433070866
        },
        {
          "duration": 0.1875,
          "durationTicks": 128,
          "midi": 41,
          "name": "F2",
          "ticks": 142592,
          "time": 208.875,
          "velocity": 0.7322834645669292
        },
        {
          "duration": 0.1875,
          "durationTicks": 128,
          "midi": 41,
          "name": "F2",
          "ticks": 142720,
          "time": 209.0625,
          "velocity": 0.7952755905511811
        },
        {
          "duration": 0.1875,
          "durationTicks": 128,
          "midi": 41,
          "name": "F2",
          "ticks": 142848,
          "time": 209.25,
          "velocity": 0.7401574803149606
        },
        {
          "duration": 0.1875,
          "durationTicks": 128,
          "midi": 41,
          "name": "F2",
          "ticks": 142976,
          "time": 209.4375,
          "velocity": 0.7559055118110236
        },
        {
          "duration": 0.1875,
          "durationTicks": 128,
          "midi": 41,
          "name": "F2",
          "ticks": 143104,
          "time": 209.625,
          "velocity": 0.7322834645669292
        },
        {
          "duration": 0.1875,
          "durationTicks": 128,
          "midi": 41,
          "name": "F2",
          "ticks": 143232,
          "time": 209.8125,
          "velocity": 0.8188976377952756
        },
        {
          "duration": 0.1875,
          "durationTicks": 128,
          "midi": 41,
          "name": "F2",
          "ticks": 143360,
          "time": 210,
          "velocity": 0.7795275590551181
        },
        {
          "duration": 0.1875,
          "durationTicks": 128,
          "midi": 41,
          "name": "F2",
          "ticks": 143488,
          "time": 210.1875,
          "velocity": 0.7716535433070866
        },
        {
          "duration": 0.1875,
          "durationTicks": 128,
          "midi": 41,
          "name": "F2",
          "ticks": 143616,
          "time": 210.375,
          "velocity": 0.7716535433070866
        },
        {
          "duration": 0.1875,
          "durationTicks": 128,
          "midi": 41,
          "name": "F2",
          "ticks": 143744,
          "time": 210.5625,
          "velocity": 0.7716535433070866
        },
        {
          "duration": 0.1875,
          "durationTicks": 128,
          "midi": 41,
          "name": "F2",
          "ticks": 143872,
          "time": 210.75,
          "velocity": 0.7559055118110236
        },
        {
          "duration": 0.1875,
          "durationTicks": 128,
          "midi": 41,
          "name": "F2",
          "ticks": 144000,
          "time": 210.9375,
          "velocity": 0.7874015748031497
        },
        {
          "duration": 0.1875,
          "durationTicks": 128,
          "midi": 41,
          "name": "F2",
          "ticks": 144128,
          "time": 211.125,
          "velocity": 0.7637795275590551
        },
        {
          "duration": 0.1875,
          "durationTicks": 128,
          "midi": 41,
          "name": "F2",
          "ticks": 144256,
          "time": 211.3125,
          "velocity": 0.7952755905511811
        },
        {
          "duration": 0.375,
          "durationTicks": 256,
          "midi": 41,
          "name": "F2",
          "ticks": 144384,
          "time": 211.5,
          "velocity": 0.7795275590551181
        },
        {
          "duration": 0.375,
          "durationTicks": 256,
          "midi": 29,
          "name": "F1",
          "ticks": 144896,
          "time": 212.25,
          "velocity": 0.7244094488188977
        },
        {
          "duration": 1.14697265625,
          "durationTicks": 783,
          "midi": 50,
          "name": "D3",
          "ticks": 146432,
          "time": 214.5,
          "velocity": 0.4330708661417323
        },
        {
          "duration": 0.38232421875,
          "durationTicks": 261,
          "midi": 48,
          "name": "C3",
          "ticks": 147200,
          "time": 215.625,
          "velocity": 0.4015748031496063
        },
        {
          "duration": 0.35595703125,
          "durationTicks": 243,
          "midi": 41,
          "name": "F2",
          "ticks": 147456,
          "time": 216,
          "velocity": 0.41732283464566927
        },
        {
          "duration": 0.1875,
          "durationTicks": 128,
          "midi": 43,
          "name": "G2",
          "ticks": 148736,
          "time": 217.875,
          "velocity": 0.3858267716535433
        },
        {
          "duration": 0.38232421875,
          "durationTicks": 261,
          "midi": 43,
          "name": "G2",
          "ticks": 148992,
          "time": 218.25,
          "velocity": 0.5118110236220472
        },
        {
          "duration": 0.35595703125,
          "durationTicks": 243,
          "midi": 40,
          "name": "E2",
          "ticks": 149248,
          "time": 218.625,
          "velocity": 0.4881889763779528
        },
        {
          "duration": 0.75,
          "durationTicks": 512,
          "midi": 41,
          "name": "F2",
          "ticks": 149504,
          "time": 219,
          "velocity": 0.48031496062992124
        },
        {
          "duration": 1.14697265625,
          "durationTicks": 783,
          "midi": 39,
          "name": "D#2",
          "ticks": 150528,
          "time": 220.5,
          "velocity": 0.4409448818897638
        },
        {
          "duration": 0.35595703125,
          "durationTicks": 243,
          "midi": 38,
          "name": "D2",
          "ticks": 151296,
          "time": 221.625,
          "velocity": 0.3858267716535433
        },
        {
          "duration": 0.38232421875,
          "durationTicks": 261,
          "midi": 43,
          "name": "G2",
          "ticks": 151552,
          "time": 222,
          "velocity": 0.4881889763779528
        },
        {
          "duration": 0.38232421875,
          "durationTicks": 261,
          "midi": 36,
          "name": "C2",
          "ticks": 151808,
          "time": 222.375,
          "velocity": 0.4566929133858268
        },
        {
          "duration": 0.38232421875,
          "durationTicks": 261,
          "midi": 41,
          "name": "F2",
          "ticks": 152064,
          "time": 222.75,
          "velocity": 0.5039370078740157
        },
        {
          "duration": 0.35595703125,
          "durationTicks": 243,
          "midi": 34,
          "name": "A#1",
          "ticks": 152320,
          "time": 223.125,
          "velocity": 0.4645669291338583
        },
        {
          "duration": 0.375,
          "durationTicks": 256,
          "midi": 39,
          "name": "D#2",
          "ticks": 152576,
          "time": 223.5,
          "velocity": 0.5511811023622047
        },
        {
          "duration": 0.375,
          "durationTicks": 256,
          "midi": 41,
          "name": "F2",
          "ticks": 153088,
          "time": 224.25,
          "velocity": 0.4409448818897638
        },
        {
          "duration": 0.375,
          "durationTicks": 256,
          "midi": 34,
          "name": "A#1",
          "ticks": 153600,
          "time": 225,
          "velocity": 0.4330708661417323
        },
        {
          "duration": 1.14697265625,
          "durationTicks": 783,
          "midi": 51,
          "name": "D#3",
          "ticks": 158720,
          "time": 232.5,
          "velocity": 0.4566929133858268
        },
        {
          "duration": 0.35595703125,
          "durationTicks": 243,
          "midi": 50,
          "name": "D3",
          "ticks": 159488,
          "time": 233.625,
          "velocity": 0.41732283464566927
        },
        {
          "duration": 0.38232421875,
          "durationTicks": 261,
          "midi": 43,
          "name": "G2",
          "ticks": 159744,
          "time": 234,
          "velocity": 0.4409448818897638
        },
        {
          "duration": 0.38232421875,
          "durationTicks": 261,
          "midi": 48,
          "name": "C3",
          "ticks": 160000,
          "time": 234.375,
          "velocity": 0.4881889763779528
        },
        {
          "duration": 0.38232421875,
          "durationTicks": 261,
          "midi": 41,
          "name": "F2",
          "ticks": 160256,
          "time": 234.75,
          "velocity": 0.49606299212598426
        },
        {
          "duration": 0.35595703125,
          "durationTicks": 243,
          "midi": 46,
          "name": "A#2",
          "ticks": 160512,
          "time": 235.125,
          "velocity": 0.5433070866141733
        },
        {
          "duration": 1.5,
          "durationTicks": 1024,
          "midi": 39,
          "name": "D#2",
          "ticks": 160768,
          "time": 235.5,
          "velocity": 0.4566929133858268
        },
        {
          "duration": 1.5,
          "durationTicks": 1024,
          "midi": 39,
          "name": "D#2",
          "ticks": 161792,
          "time": 237,
          "velocity": 0.4645669291338583
        },
        {
          "duration": 1.5,
          "durationTicks": 1024,
          "midi": 39,
          "name": "D#2",
          "ticks": 162816,
          "time": 238.5,
          "velocity": 0.47244094488188976
        },
        {
          "duration": 1.5,
          "durationTicks": 1024,
          "midi": 39,
          "name": "D#2",
          "ticks": 163840,
          "time": 240,
          "velocity": 0.4881889763779528
        },
        {
          "duration": 0.1875,
          "durationTicks": 128,
          "midi": 39,
          "name": "D#2",
          "ticks": 164864,
          "time": 241.5,
          "velocity": 0.4645669291338583
        },
        {
          "duration": 0.1875,
          "durationTicks": 128,
          "midi": 39,
          "name": "D#2",
          "ticks": 164992,
          "time": 241.6875,
          "velocity": 0.48031496062992124
        },
        {
          "duration": 0.1875,
          "durationTicks": 128,
          "midi": 39,
          "name": "D#2",
          "ticks": 165120,
          "time": 241.875,
          "velocity": 0.5196850393700787
        },
        {
          "duration": 0.1875,
          "durationTicks": 128,
          "midi": 39,
          "name": "D#2",
          "ticks": 165248,
          "time": 242.0625,
          "velocity": 0.5354330708661418
        },
        {
          "duration": 0.1875,
          "durationTicks": 128,
          "midi": 39,
          "name": "D#2",
          "ticks": 165376,
          "time": 242.25,
          "velocity": 0.5905511811023622
        },
        {
          "duration": 0.1875,
          "durationTicks": 128,
          "midi": 39,
          "name": "D#2",
          "ticks": 165504,
          "time": 242.4375,
          "velocity": 0.5826771653543307
        },
        {
          "duration": 0.1875,
          "durationTicks": 128,
          "midi": 39,
          "name": "D#2",
          "ticks": 165632,
          "time": 242.625,
          "velocity": 0.5826771653543307
        },
        {
          "duration": 0.1875,
          "durationTicks": 128,
          "midi": 39,
          "name": "D#2",
          "ticks": 165760,
          "time": 242.8125,
          "velocity": 0.5748031496062992
        },
        {
          "duration": 0.1875,
          "durationTicks": 128,
          "midi": 40,
          "name": "E2",
          "ticks": 165888,
          "time": 243,
          "velocity": 0.6771653543307087
        },
        {
          "duration": 0.1875,
          "durationTicks": 128,
          "midi": 40,
          "name": "E2",
          "ticks": 166016,
          "time": 243.1875,
          "velocity": 0.6062992125984252
        },
        {
          "duration": 0.1875,
          "durationTicks": 128,
          "midi": 40,
          "name": "E2",
          "ticks": 166144,
          "time": 243.375,
          "velocity": 0.6692913385826772
        },
        {
          "duration": 0.1875,
          "durationTicks": 128,
          "midi": 40,
          "name": "E2",
          "ticks": 166272,
          "time": 243.5625,
          "velocity": 0.6771653543307087
        },
        {
          "duration": 0.1875,
          "durationTicks": 128,
          "midi": 40,
          "name": "E2",
          "ticks": 166400,
          "time": 243.75,
          "velocity": 0.6929133858267716
        },
        {
          "duration": 0.1875,
          "durationTicks": 128,
          "midi": 40,
          "name": "E2",
          "ticks": 166528,
          "time": 243.9375,
          "velocity": 0.7086614173228346
        },
        {
          "duration": 0.1875,
          "durationTicks": 128,
          "midi": 40,
          "name": "E2",
          "ticks": 166656,
          "time": 244.125,
          "velocity": 0.7401574803149606
        },
        {
          "duration": 0.1875,
          "durationTicks": 128,
          "midi": 40,
          "name": "E2",
          "ticks": 166784,
          "time": 244.3125,
          "velocity": 0.7795275590551181
        },
        {
          "duration": 0.1875,
          "durationTicks": 128,
          "midi": 41,
          "name": "F2",
          "ticks": 166912,
          "time": 244.5,
          "velocity": 0.7874015748031497
        },
        {
          "duration": 0.1875,
          "durationTicks": 128,
          "midi": 41,
          "name": "F2",
          "ticks": 167040,
          "time": 244.6875,
          "velocity": 0.8031496062992126
        },
        {
          "duration": 0.1875,
          "durationTicks": 128,
          "midi": 41,
          "name": "F2",
          "ticks": 167168,
          "time": 244.875,
          "velocity": 0.7716535433070866
        },
        {
          "duration": 0.1875,
          "durationTicks": 128,
          "midi": 41,
          "name": "F2",
          "ticks": 167296,
          "time": 245.0625,
          "velocity": 0.7480314960629921
        },
        {
          "duration": 0.1875,
          "durationTicks": 128,
          "midi": 41,
          "name": "F2",
          "ticks": 167424,
          "time": 245.25,
          "velocity": 0.7952755905511811
        },
        {
          "duration": 0.1875,
          "durationTicks": 128,
          "midi": 41,
          "name": "F2",
          "ticks": 167552,
          "time": 245.4375,
          "velocity": 0.7795275590551181
        },
        {
          "duration": 0.1875,
          "durationTicks": 128,
          "midi": 41,
          "name": "F2",
          "ticks": 167680,
          "time": 245.625,
          "velocity": 0.7795275590551181
        },
        {
          "duration": 0.1875,
          "durationTicks": 128,
          "midi": 41,
          "name": "F2",
          "ticks": 167808,
          "time": 245.8125,
          "velocity": 0.7637795275590551
        },
        {
          "duration": 0.1875,
          "durationTicks": 128,
          "midi": 29,
          "name": "F1",
          "ticks": 167936,
          "time": 246,
          "velocity": 0.6456692913385826
        },
        {
          "duration": 0.1875,
          "durationTicks": 128,
          "midi": 29,
          "name": "F1",
          "ticks": 168064,
          "time": 246.1875,
          "velocity": 0.7480314960629921
        },
        {
          "duration": 0.1875,
          "durationTicks": 128,
          "midi": 29,
          "name": "F1",
          "ticks": 168192,
          "time": 246.375,
          "velocity": 0.7480314960629921
        },
        {
          "duration": 0.1875,
          "durationTicks": 128,
          "midi": 29,
          "name": "F1",
          "ticks": 168320,
          "time": 246.5625,
          "velocity": 0.7480314960629921
        },
        {
          "duration": 0.1875,
          "durationTicks": 128,
          "midi": 29,
          "name": "F1",
          "ticks": 168448,
          "time": 246.75,
          "velocity": 0.7480314960629921
        },
        {
          "duration": 0.1875,
          "durationTicks": 128,
          "midi": 29,
          "name": "F1",
          "ticks": 168576,
          "time": 246.9375,
          "velocity": 0.7480314960629921
        },
        {
          "duration": 0.1875,
          "durationTicks": 128,
          "midi": 29,
          "name": "F1",
          "ticks": 168704,
          "time": 247.125,
          "velocity": 0.7716535433070866
        },
        {
          "duration": 0.1875,
          "durationTicks": 128,
          "midi": 29,
          "name": "F1",
          "ticks": 168832,
          "time": 247.3125,
          "velocity": 0.7401574803149606
        },
        {
          "duration": 0.375,
          "durationTicks": 256,
          "midi": 34,
          "name": "A#1",
          "ticks": 168960,
          "time": 247.5,
          "velocity": 0.8110236220472441
        },
        {
          "duration": 0.75,
          "durationTicks": 512,
          "midi": 38,
          "name": "D2",
          "ticks": 169216,
          "time": 247.875,
          "velocity": 0.8188976377952756
        },
        {
          "duration": 0.1875,
          "durationTicks": 128,
          "midi": 39,
          "name": "D#2",
          "ticks": 169728,
          "time": 248.625,
          "velocity": 0.7952755905511811
        },
        {
          "duration": 0.1875,
          "durationTicks": 128,
          "midi": 40,
          "name": "E2",
          "ticks": 169984,
          "time": 249,
          "velocity": 0.8110236220472441
        },
        {
          "duration": 0.1875,
          "durationTicks": 128,
          "midi": 41,
          "name": "F2",
          "ticks": 170240,
          "time": 249.375,
          "velocity": 0.7874015748031497
        },
        {
          "duration": 0.1875,
          "durationTicks": 128,
          "midi": 42,
          "name": "F#2",
          "ticks": 170496,
          "time": 249.75,
          "velocity": 0.7874015748031497
        },
        {
          "duration": 0.1875,
          "durationTicks": 128,
          "midi": 43,
          "name": "G2",
          "ticks": 170752,
          "time": 250.125,
          "velocity": 0.7874015748031497
        },
        {
          "duration": 0.375,
          "durationTicks": 256,
          "midi": 44,
          "name": "G#2",
          "ticks": 171008,
          "time": 250.5,
          "velocity": 0.8267716535433071
        },
        {
          "duration": 0.09375,
          "durationTicks": 64,
          "midi": 44,
          "name": "G#2",
          "ticks": 171456,
          "time": 251.15625,
          "velocity": 0.6850393700787402
        },
        {
          "duration": 0.375,
          "durationTicks": 256,
          "midi": 43,
          "name": "G2",
          "ticks": 171520,
          "time": 251.25,
          "velocity": 0.7165354330708661
        },
        {
          "duration": 0.09375,
          "durationTicks": 64,
          "midi": 43,
          "name": "G2",
          "ticks": 171968,
          "time": 251.90625,
          "velocity": 0.6771653543307087
        },
        {
          "duration": 0.375,
          "durationTicks": 256,
          "midi": 51,
          "name": "D#3",
          "ticks": 172032,
          "time": 252,
          "velocity": 0.8267716535433071
        },
        {
          "duration": 0.09375,
          "durationTicks": 64,
          "midi": 51,
          "name": "D#3",
          "ticks": 172480,
          "time": 252.65625,
          "velocity": 0.6929133858267716
        },
        {
          "duration": 0.375,
          "durationTicks": 256,
          "midi": 50,
          "name": "D3",
          "ticks": 172544,
          "time": 252.75,
          "velocity": 0.7322834645669292
        },
        {
          "duration": 0.09375,
          "durationTicks": 64,
          "midi": 50,
          "name": "D3",
          "ticks": 172992,
          "time": 253.40625,
          "velocity": 0.6771653543307087
        },
        {
          "duration": 0.375,
          "durationTicks": 256,
          "midi": 39,
          "name": "D#2",
          "ticks": 173056,
          "time": 253.5,
          "velocity": 0.6456692913385826
        },
        {
          "duration": 0.375,
          "durationTicks": 256,
          "midi": 41,
          "name": "F2",
          "ticks": 174080,
          "time": 255,
          "velocity": 0.4330708661417323
        },
        {
          "duration": 1.5,
          "durationTicks": 1024,
          "midi": 39,
          "name": "D#2",
          "ticks": 176640,
          "time": 258.75,
          "velocity": 0.41732283464566927
        },
        {
          "duration": 0.35595703125,
          "durationTicks": 243,
          "midi": 38,
          "name": "D2",
          "ticks": 177664,
          "time": 260.25,
          "velocity": 0.4330708661417323
        },
        {
          "duration": 1.5,
          "durationTicks": 1024,
          "midi": 39,
          "name": "D#2",
          "ticks": 178688,
          "time": 261.75,
          "velocity": 0.41732283464566927
        },
        {
          "duration": 0.35595703125,
          "durationTicks": 243,
          "midi": 38,
          "name": "D2",
          "ticks": 179712,
          "time": 263.25,
          "velocity": 0.47244094488188976
        },
        {
          "duration": 0.1875,
          "durationTicks": 128,
          "midi": 38,
          "name": "D2",
          "ticks": 180224,
          "time": 264,
          "velocity": 0.7401574803149606
        },
        {
          "duration": 0.1875,
          "durationTicks": 128,
          "midi": 38,
          "name": "D2",
          "ticks": 180352,
          "time": 264.1875,
          "velocity": 0.7716535433070866
        },
        {
          "duration": 0.1875,
          "durationTicks": 128,
          "midi": 38,
          "name": "D2",
          "ticks": 180480,
          "time": 264.375,
          "velocity": 0.8031496062992126
        },
        {
          "duration": 0.1875,
          "durationTicks": 128,
          "midi": 38,
          "name": "D2",
          "ticks": 180608,
          "time": 264.5625,
          "velocity": 0.7874015748031497
        },
        {
          "duration": 0.1875,
          "durationTicks": 128,
          "midi": 38,
          "name": "D2",
          "ticks": 180736,
          "time": 264.75,
          "velocity": 0.7637795275590551
        },
        {
          "duration": 0.1875,
          "durationTicks": 128,
          "midi": 38,
          "name": "D2",
          "ticks": 180864,
          "time": 264.9375,
          "velocity": 0.7716535433070866
        },
        {
          "duration": 0.1875,
          "durationTicks": 128,
          "midi": 38,
          "name": "D2",
          "ticks": 180992,
          "time": 265.125,
          "velocity": 0.7795275590551181
        },
        {
          "duration": 0.1875,
          "durationTicks": 128,
          "midi": 38,
          "name": "D2",
          "ticks": 181120,
          "time": 265.3125,
          "velocity": 0.7716535433070866
        },
        {
          "duration": 0.1875,
          "durationTicks": 128,
          "midi": 43,
          "name": "G2",
          "ticks": 181248,
          "time": 265.5,
          "velocity": 0.8188976377952756
        },
        {
          "duration": 0.1875,
          "durationTicks": 128,
          "midi": 43,
          "name": "G2",
          "ticks": 181376,
          "time": 265.6875,
          "velocity": 0.7559055118110236
        },
        {
          "duration": 0.1875,
          "durationTicks": 128,
          "midi": 43,
          "name": "G2",
          "ticks": 181504,
          "time": 265.875,
          "velocity": 0.7559055118110236
        },
        {
          "duration": 0.1875,
          "durationTicks": 128,
          "midi": 43,
          "name": "G2",
          "ticks": 181632,
          "time": 266.0625,
          "velocity": 0.7952755905511811
        },
        {
          "duration": 0.1875,
          "durationTicks": 128,
          "midi": 39,
          "name": "D#2",
          "ticks": 181760,
          "time": 266.25,
          "velocity": 0.7244094488188977
        },
        {
          "duration": 0.1875,
          "durationTicks": 128,
          "midi": 39,
          "name": "D#2",
          "ticks": 181888,
          "time": 266.4375,
          "velocity": 0.7559055118110236
        },
        {
          "duration": 0.1875,
          "durationTicks": 128,
          "midi": 39,
          "name": "D#2",
          "ticks": 182016,
          "time": 266.625,
          "velocity": 0.7874015748031497
        },
        {
          "duration": 0.1875,
          "durationTicks": 128,
          "midi": 39,
          "name": "D#2",
          "ticks": 182144,
          "time": 266.8125,
          "velocity": 0.8188976377952756
        },
        {
          "duration": 0.1875,
          "durationTicks": 128,
          "midi": 41,
          "name": "F2",
          "ticks": 182272,
          "time": 267,
          "velocity": 0.7716535433070866
        },
        {
          "duration": 0.1875,
          "durationTicks": 128,
          "midi": 41,
          "name": "F2",
          "ticks": 182400,
          "time": 267.1875,
          "velocity": 0.7952755905511811
        },
        {
          "duration": 0.1875,
          "durationTicks": 128,
          "midi": 41,
          "name": "F2",
          "ticks": 182528,
          "time": 267.375,
          "velocity": 0.8031496062992126
        },
        {
          "duration": 0.1875,
          "durationTicks": 128,
          "midi": 41,
          "name": "F2",
          "ticks": 182656,
          "time": 267.5625,
          "velocity": 0.7401574803149606
        },
        {
          "duration": 0.1875,
          "durationTicks": 128,
          "midi": 29,
          "name": "F1",
          "ticks": 182784,
          "time": 267.75,
          "velocity": 0.6535433070866141
        },
        {
          "duration": 0.1875,
          "durationTicks": 128,
          "midi": 29,
          "name": "F1",
          "ticks": 182912,
          "time": 267.9375,
          "velocity": 0.7795275590551181
        },
        {
          "duration": 0.1875,
          "durationTicks": 128,
          "midi": 29,
          "name": "F1",
          "ticks": 183040,
          "time": 268.125,
          "velocity": 0.7559055118110236
        },
        {
          "duration": 0.1875,
          "durationTicks": 128,
          "midi": 29,
          "name": "F1",
          "ticks": 183168,
          "time": 268.3125,
          "velocity": 0.7559055118110236
        },
        {
          "duration": 0.375,
          "durationTicks": 256,
          "midi": 34,
          "name": "A#1",
          "ticks": 183296,
          "time": 268.5,
          "velocity": 0.8188976377952756
        },
        {
          "duration": 1.875,
          "durationTicks": 1280,
          "midi": 46,
          "name": "A#2",
          "ticks": 183808,
          "time": 269.25,
          "velocity": 0.41732283464566927
        },
        {
          "duration": 1.5,
          "durationTicks": 1024,
          "midi": 34,
          "name": "A#1",
          "ticks": 185856,
          "time": 272.25,
          "velocity": 0.4015748031496063
        },
        {
          "duration": 0.35595703125,
          "durationTicks": 243,
          "midi": 33,
          "name": "A1",
          "ticks": 186880,
          "time": 273.75,
          "velocity": 0.4566929133858268
        },
        {
          "duration": 0.1875,
          "durationTicks": 128,
          "midi": 38,
          "name": "D2",
          "ticks": 188416,
          "time": 276,
          "velocity": 0.7401574803149606
        },
        {
          "duration": 0.1875,
          "durationTicks": 128,
          "midi": 38,
          "name": "D2",
          "ticks": 188544,
          "time": 276.1875,
          "velocity": 0.7716535433070866
        },
        {
          "duration": 0.1875,
          "durationTicks": 128,
          "midi": 38,
          "name": "D2",
          "ticks": 188672,
          "time": 276.375,
          "velocity": 0.7559055118110236
        },
        {
          "duration": 0.1875,
          "durationTicks": 128,
          "midi": 38,
          "name": "D2",
          "ticks": 188800,
          "time": 276.5625,
          "velocity": 0.7716535433070866
        },
        {
          "duration": 0.1875,
          "durationTicks": 128,
          "midi": 38,
          "name": "D2",
          "ticks": 188928,
          "time": 276.75,
          "velocity": 0.7637795275590551
        },
        {
          "duration": 0.1875,
          "durationTicks": 128,
          "midi": 38,
          "name": "D2",
          "ticks": 189056,
          "time": 276.9375,
          "velocity": 0.7559055118110236
        },
        {
          "duration": 0.1875,
          "durationTicks": 128,
          "midi": 38,
          "name": "D2",
          "ticks": 189184,
          "time": 277.125,
          "velocity": 0.7401574803149606
        },
        {
          "duration": 0.1875,
          "durationTicks": 128,
          "midi": 38,
          "name": "D2",
          "ticks": 189312,
          "time": 277.3125,
          "velocity": 0.8110236220472441
        },
        {
          "duration": 0.1875,
          "durationTicks": 128,
          "midi": 43,
          "name": "G2",
          "ticks": 189440,
          "time": 277.5,
          "velocity": 0.7874015748031497
        },
        {
          "duration": 0.1875,
          "durationTicks": 128,
          "midi": 43,
          "name": "G2",
          "ticks": 189568,
          "time": 277.6875,
          "velocity": 0.7795275590551181
        },
        {
          "duration": 0.1875,
          "durationTicks": 128,
          "midi": 43,
          "name": "G2",
          "ticks": 189696,
          "time": 277.875,
          "velocity": 0.7716535433070866
        },
        {
          "duration": 0.1875,
          "durationTicks": 128,
          "midi": 43,
          "name": "G2",
          "ticks": 189824,
          "time": 278.0625,
          "velocity": 0.7165354330708661
        },
        {
          "duration": 0.1875,
          "durationTicks": 128,
          "midi": 39,
          "name": "D#2",
          "ticks": 189952,
          "time": 278.25,
          "velocity": 0.7244094488188977
        },
        {
          "duration": 0.1875,
          "durationTicks": 128,
          "midi": 39,
          "name": "D#2",
          "ticks": 190080,
          "time": 278.4375,
          "velocity": 0.7637795275590551
        },
        {
          "duration": 0.1875,
          "durationTicks": 128,
          "midi": 39,
          "name": "D#2",
          "ticks": 190208,
          "time": 278.625,
          "velocity": 0.7559055118110236
        },
        {
          "duration": 0.1875,
          "durationTicks": 128,
          "midi": 39,
          "name": "D#2",
          "ticks": 190336,
          "time": 278.8125,
          "velocity": 0.7559055118110236
        },
        {
          "duration": 0.1875,
          "durationTicks": 128,
          "midi": 41,
          "name": "F2",
          "ticks": 190464,
          "time": 279,
          "velocity": 0.7874015748031497
        },
        {
          "duration": 0.1875,
          "durationTicks": 128,
          "midi": 41,
          "name": "F2",
          "ticks": 190592,
          "time": 279.1875,
          "velocity": 0.7322834645669292
        },
        {
          "duration": 0.1875,
          "durationTicks": 128,
          "midi": 41,
          "name": "F2",
          "ticks": 190720,
          "time": 279.375,
          "velocity": 0.7322834645669292
        },
        {
          "duration": 0.1875,
          "durationTicks": 128,
          "midi": 41,
          "name": "F2",
          "ticks": 190848,
          "time": 279.5625,
          "velocity": 0.7401574803149606
        },
        {
          "duration": 0.1875,
          "durationTicks": 128,
          "midi": 29,
          "name": "F1",
          "ticks": 190976,
          "time": 279.75,
          "velocity": 0.7086614173228346
        },
        {
          "duration": 0.1875,
          "durationTicks": 128,
          "midi": 29,
          "name": "F1",
          "ticks": 191104,
          "time": 279.9375,
          "velocity": 0.7716535433070866
        },
        {
          "duration": 0.1875,
          "durationTicks": 128,
          "midi": 29,
          "name": "F1",
          "ticks": 191232,
          "time": 280.125,
          "velocity": 0.7716535433070866
        },
        {
          "duration": 0.1875,
          "durationTicks": 128,
          "midi": 29,
          "name": "F1",
          "ticks": 191360,
          "time": 280.3125,
          "velocity": 0.7480314960629921
        },
        {
          "duration": 0.75,
          "durationTicks": 512,
          "midi": 34,
          "name": "A#1",
          "ticks": 191488,
          "time": 280.5,
          "velocity": 0.8110236220472441
        },
        {
          "duration": 0.1875,
          "durationTicks": 128,
          "midi": 53,
          "name": "F3",
          "ticks": 192384,
          "time": 281.8125,
          "velocity": 0.6614173228346457
        },
        {
          "duration": 0.1875,
          "durationTicks": 128,
          "midi": 51,
          "name": "D#3",
          "ticks": 192512,
          "time": 282,
          "velocity": 0.7795275590551181
        },
        {
          "duration": 0.1875,
          "durationTicks": 128,
          "midi": 50,
          "name": "D3",
          "ticks": 192640,
          "time": 282.1875,
          "velocity": 0.7244094488188977
        },
        {
          "duration": 0.1875,
          "durationTicks": 128,
          "midi": 48,
          "name": "C3",
          "ticks": 192768,
          "time": 282.375,
          "velocity": 0.7244094488188977
        },
        {
          "duration": 0.1875,
          "durationTicks": 128,
          "midi": 46,
          "name": "A#2",
          "ticks": 192896,
          "time": 282.5625,
          "velocity": 0.7795275590551181
        },
        {
          "duration": 0.1875,
          "durationTicks": 128,
          "midi": 45,
          "name": "A2",
          "ticks": 193024,
          "time": 282.75,
          "velocity": 0.7401574803149606
        },
        {
          "duration": 0.1875,
          "durationTicks": 128,
          "midi": 43,
          "name": "G2",
          "ticks": 193152,
          "time": 282.9375,
          "velocity": 0.7165354330708661
        },
        {
          "duration": 0.1875,
          "durationTicks": 128,
          "midi": 41,
          "name": "F2",
          "ticks": 193280,
          "time": 283.125,
          "velocity": 0.7716535433070866
        },
        {
          "duration": 0.1875,
          "durationTicks": 128,
          "midi": 39,
          "name": "D#2",
          "ticks": 193408,
          "time": 283.3125,
          "velocity": 0.7401574803149606
        },
        {
          "duration": 0.375,
          "durationTicks": 256,
          "midi": 38,
          "name": "D2",
          "ticks": 193536,
          "time": 283.5,
          "velocity": 0.7401574803149606
        },
        {
          "duration": 0.375,
          "durationTicks": 256,
          "midi": 38,
          "name": "D2",
          "ticks": 193792,
          "time": 283.875,
          "velocity": 0.7559055118110236
        },
        {
          "duration": 0.375,
          "durationTicks": 256,
          "midi": 39,
          "name": "D#2",
          "ticks": 194048,
          "time": 284.25,
          "velocity": 0.7952755905511811
        },
        {
          "duration": 0.375,
          "durationTicks": 256,
          "midi": 41,
          "name": "F2",
          "ticks": 194304,
          "time": 284.625,
          "velocity": 0.7637795275590551
        },
        {
          "duration": 0.1875,
          "durationTicks": 128,
          "midi": 46,
          "name": "A#2",
          "ticks": 194560,
          "time": 285,
          "velocity": 0.8110236220472441
        },
        {
          "duration": 0.1875,
          "durationTicks": 128,
          "midi": 41,
          "name": "F2",
          "ticks": 194688,
          "time": 285.1875,
          "velocity": 0.7086614173228346
        },
        {
          "duration": 0.1875,
          "durationTicks": 128,
          "midi": 50,
          "name": "D3",
          "ticks": 194816,
          "time": 285.375,
          "velocity": 0.8503937007874016
        },
        {
          "duration": 0.1875,
          "durationTicks": 128,
          "midi": 48,
          "name": "C3",
          "ticks": 194944,
          "time": 285.5625,
          "velocity": 0.7874015748031497
        },
        {
          "duration": 0.1875,
          "durationTicks": 128,
          "midi": 46,
          "name": "A#2",
          "ticks": 195072,
          "time": 285.75,
          "velocity": 0.7244094488188977
        },
        {
          "duration": 0.1875,
          "durationTicks": 128,
          "midi": 45,
          "name": "A2",
          "ticks": 195200,
          "time": 285.9375,
          "velocity": 0.7480314960629921
        },
        {
          "duration": 0.1875,
          "durationTicks": 128,
          "midi": 43,
          "name": "G2",
          "ticks": 195328,
          "time": 286.125,
          "velocity": 0.7322834645669292
        },
        {
          "duration": 0.1875,
          "durationTicks": 128,
          "midi": 41,
          "name": "F2",
          "ticks": 195456,
          "time": 286.3125,
          "velocity": 0.7165354330708661
        },
        {
          "duration": 0.1875,
          "durationTicks": 128,
          "midi": 39,
          "name": "D#2",
          "ticks": 195584,
          "time": 286.5,
          "velocity": 0.7795275590551181
        },
        {
          "duration": 0.1875,
          "durationTicks": 128,
          "midi": 38,
          "name": "D2",
          "ticks": 195712,
          "time": 286.6875,
          "velocity": 0.7322834645669292
        },
        {
          "duration": 0.1875,
          "durationTicks": 128,
          "midi": 36,
          "name": "C2",
          "ticks": 195840,
          "time": 286.875,
          "velocity": 0.7322834645669292
        },
        {
          "duration": 0.1875,
          "durationTicks": 128,
          "midi": 34,
          "name": "A#1",
          "ticks": 195968,
          "time": 287.0625,
          "velocity": 0.7165354330708661
        },
        {
          "duration": 0.1875,
          "durationTicks": 128,
          "midi": 33,
          "name": "A1",
          "ticks": 196096,
          "time": 287.25,
          "velocity": 0.7322834645669292
        },
        {
          "duration": 0.1875,
          "durationTicks": 128,
          "midi": 36,
          "name": "C2",
          "ticks": 196224,
          "time": 287.4375,
          "velocity": 0.7874015748031497
        },
        {
          "duration": 0.1875,
          "durationTicks": 128,
          "midi": 41,
          "name": "F2",
          "ticks": 196352,
          "time": 287.625,
          "velocity": 0.8188976377952756
        },
        {
          "duration": 0.1875,
          "durationTicks": 128,
          "midi": 39,
          "name": "D#2",
          "ticks": 196480,
          "time": 287.8125,
          "velocity": 0.7480314960629921
        },
        {
          "duration": 0.375,
          "durationTicks": 256,
          "midi": 38,
          "name": "D2",
          "ticks": 196608,
          "time": 288,
          "velocity": 0.7716535433070866
        },
        {
          "duration": 0.375,
          "durationTicks": 256,
          "midi": 38,
          "name": "D2",
          "ticks": 196864,
          "time": 288.375,
          "velocity": 0.7716535433070866
        },
        {
          "duration": 0.375,
          "durationTicks": 256,
          "midi": 39,
          "name": "D#2",
          "ticks": 197120,
          "time": 288.75,
          "velocity": 0.7952755905511811
        },
        {
          "duration": 0.375,
          "durationTicks": 256,
          "midi": 41,
          "name": "F2",
          "ticks": 197376,
          "time": 289.125,
          "velocity": 0.7795275590551181
        },
        {
          "duration": 0.375,
          "durationTicks": 256,
          "midi": 43,
          "name": "G2",
          "ticks": 197632,
          "time": 289.5,
          "velocity": 0.8188976377952756
        },
        {
          "duration": 0.375,
          "durationTicks": 256,
          "midi": 39,
          "name": "D#2",
          "ticks": 197888,
          "time": 289.875,
          "velocity": 0.7716535433070866
        },
        {
          "duration": 0.375,
          "durationTicks": 256,
          "midi": 41,
          "name": "F2",
          "ticks": 198144,
          "time": 290.25,
          "velocity": 0.8188976377952756
        },
        {
          "duration": 0.375,
          "durationTicks": 256,
          "midi": 29,
          "name": "F1",
          "ticks": 198400,
          "time": 290.625,
          "velocity": 0.6535433070866141
        },
        {
          "duration": 0.375,
          "durationTicks": 256,
          "midi": 34,
          "name": "A#1",
          "ticks": 198656,
          "time": 291,
          "velocity": 0.7952755905511811
        },
        {
          "duration": 0.375,
          "durationTicks": 256,
          "midi": 41,
          "name": "F2",
          "ticks": 199168,
          "time": 291.75,
          "velocity": 0.6850393700787402
        },
        {
          "duration": 0.375,
          "durationTicks": 256,
          "midi": 46,
          "name": "A#2",
          "ticks": 199680,
          "time": 292.5,
          "velocity": 0.6771653543307087
        },
        {
          "duration": 0.375,
          "durationTicks": 256,
          "midi": 41,
          "name": "F2",
          "ticks": 200192,
          "time": 293.25,
          "velocity": 0.6456692913385826
        },
        {
          "duration": 0.375,
          "durationTicks": 256,
          "midi": 46,
          "name": "A#2",
          "ticks": 200704,
          "time": 294,
          "velocity": 0.7086614173228346
        },
        {
          "duration": 0.375,
          "durationTicks": 256,
          "midi": 41,
          "name": "F2",
          "ticks": 201216,
          "time": 294.75,
          "velocity": 0.7007874015748031
        },
        {
          "duration": 0.375,
          "durationTicks": 256,
          "midi": 46,
          "name": "A#2",
          "ticks": 201728,
          "time": 295.5,
          "velocity": 0.7007874015748031
        },
        {
          "duration": 0.375,
          "durationTicks": 256,
          "midi": 41,
          "name": "F2",
          "ticks": 201984,
          "time": 295.875,
          "velocity": 0.6929133858267716
        },
        {
          "duration": 0.375,
          "durationTicks": 256,
          "midi": 46,
          "name": "A#2",
          "ticks": 202240,
          "time": 296.25,
          "velocity": 0.8110236220472441
        },
        {
          "duration": 0.375,
          "durationTicks": 256,
          "midi": 41,
          "name": "F2",
          "ticks": 202496,
          "time": 296.625,
          "velocity": 0.7401574803149606
        },
        {
          "duration": 0.375,
          "durationTicks": 256,
          "midi": 46,
          "name": "A#2",
          "ticks": 202752,
          "time": 297,
          "velocity": 0.8503937007874016
        },
        {
          "duration": 0.375,
          "durationTicks": 256,
          "midi": 45,
          "name": "A2",
          "ticks": 203776,
          "time": 298.5,
          "velocity": 0.6771653543307087
        },
        {
          "duration": 0.375,
          "durationTicks": 256,
          "midi": 43,
          "name": "G2",
          "ticks": 204800,
          "time": 300,
          "velocity": 0.6771653543307087
        },
        {
          "duration": 0.375,
          "durationTicks": 256,
          "midi": 41,
          "name": "F2",
          "ticks": 205312,
          "time": 300.75,
          "velocity": 0.7007874015748031
        },
        {
          "duration": 0.375,
          "durationTicks": 256,
          "midi": 30,
          "name": "F#1",
          "ticks": 208896,
          "time": 306,
          "velocity": 0.4251968503937008
        },
        {
          "duration": 0.375,
          "durationTicks": 256,
          "midi": 42,
          "name": "F#2",
          "ticks": 209920,
          "time": 307.5,
          "velocity": 0.4251968503937008
        },
        {
          "duration": 0.375,
          "durationTicks": 256,
          "midi": 30,
          "name": "F#1",
          "ticks": 210944,
          "time": 309,
          "velocity": 0.4566929133858268
        },
        {
          "duration": 0.375,
          "durationTicks": 256,
          "midi": 42,
          "name": "F#2",
          "ticks": 211968,
          "time": 310.5,
          "velocity": 0.4409448818897638
        },
        {
          "duration": 0.375,
          "durationTicks": 256,
          "midi": 29,
          "name": "F1",
          "ticks": 212992,
          "time": 312,
          "velocity": 0.44881889763779526
        },
        {
          "duration": 0.375,
          "durationTicks": 256,
          "midi": 41,
          "name": "F2",
          "ticks": 214016,
          "time": 313.5,
          "velocity": 0.4330708661417323
        },
        {
          "duration": 0.375,
          "durationTicks": 256,
          "midi": 28,
          "name": "E1",
          "ticks": 215040,
          "time": 315,
          "velocity": 0.44881889763779526
        },
        {
          "duration": 0.375,
          "durationTicks": 256,
          "midi": 40,
          "name": "E2",
          "ticks": 216064,
          "time": 316.5,
          "velocity": 0.4015748031496063
        },
        {
          "duration": 0.375,
          "durationTicks": 256,
          "midi": 39,
          "name": "D#2",
          "ticks": 217088,
          "time": 318,
          "velocity": 0.41732283464566927
        },
        {
          "duration": 0.375,
          "durationTicks": 256,
          "midi": 35,
          "name": "B1",
          "ticks": 218112,
          "time": 319.5,
          "velocity": 0.4409448818897638
        },
        {
          "duration": 0.1904296875,
          "durationTicks": 130,
          "midi": 48,
          "name": "C3",
          "ticks": 218880,
          "time": 320.625,
          "velocity": 0.7165354330708661
        },
        {
          "duration": 0.17724609375,
          "durationTicks": 121,
          "midi": 47,
          "name": "B2",
          "ticks": 219008,
          "time": 320.8125,
          "velocity": 0.7007874015748031
        },
        {
          "duration": 0.375,
          "durationTicks": 256,
          "midi": 47,
          "name": "B2",
          "ticks": 219136,
          "time": 321,
          "velocity": 0.7322834645669292
        },
        {
          "duration": 0.1904296875,
          "durationTicks": 130,
          "midi": 48,
          "name": "C3",
          "ticks": 219392,
          "time": 321.375,
          "velocity": 0.7874015748031497
        },
        {
          "duration": 0.17724609375,
          "durationTicks": 121,
          "midi": 47,
          "name": "B2",
          "ticks": 219520,
          "time": 321.5625,
          "velocity": 0.7559055118110236
        },
        {
          "duration": 0.375,
          "durationTicks": 256,
          "midi": 47,
          "name": "B2",
          "ticks": 219648,
          "time": 321.75,
          "velocity": 0.7795275590551181
        },
        {
          "duration": 0.1904296875,
          "durationTicks": 130,
          "midi": 48,
          "name": "C3",
          "ticks": 219904,
          "time": 322.125,
          "velocity": 0.7795275590551181
        },
        {
          "duration": 0.17724609375,
          "durationTicks": 121,
          "midi": 47,
          "name": "B2",
          "ticks": 220032,
          "time": 322.3125,
          "velocity": 0.7559055118110236
        },
        {
          "duration": 0.38232421875,
          "durationTicks": 261,
          "midi": 47,
          "name": "B2",
          "ticks": 220160,
          "time": 322.5,
          "velocity": 0.7559055118110236
        },
        {
          "duration": 0.35595703125,
          "durationTicks": 243,
          "midi": 55,
          "name": "G3",
          "ticks": 220416,
          "time": 322.875,
          "velocity": 0.8503937007874016
        },
        {
          "duration": 0.1904296875,
          "durationTicks": 130,
          "midi": 55,
          "name": "G3",
          "ticks": 220928,
          "time": 323.625,
          "velocity": 0.7007874015748031
        },
        {
          "duration": 0.17724609375,
          "durationTicks": 121,
          "midi": 54,
          "name": "F#3",
          "ticks": 221056,
          "time": 323.8125,
          "velocity": 0.6535433070866141
        },
        {
          "duration": 0.375,
          "durationTicks": 256,
          "midi": 52,
          "name": "E3",
          "ticks": 221184,
          "time": 324,
          "velocity": 0.7716535433070866
        },
        {
          "duration": 0.1904296875,
          "durationTicks": 130,
          "midi": 52,
          "name": "E3",
          "ticks": 221440,
          "time": 324.375,
          "velocity": 0.7795275590551181
        },
        {
          "duration": 0.17724609375,
          "durationTicks": 121,
          "midi": 50,
          "name": "D3",
          "ticks": 221568,
          "time": 324.5625,
          "velocity": 0.7559055118110236
        },
        {
          "duration": 0.375,
          "durationTicks": 256,
          "midi": 48,
          "name": "C3",
          "ticks": 221696,
          "time": 324.75,
          "velocity": 0.7165354330708661
        },
        {
          "duration": 0.1904296875,
          "durationTicks": 130,
          "midi": 48,
          "name": "C3",
          "ticks": 221952,
          "time": 325.125,
          "velocity": 0.7165354330708661
        },
        {
          "duration": 0.17724609375,
          "durationTicks": 121,
          "midi": 47,
          "name": "B2",
          "ticks": 222080,
          "time": 325.3125,
          "velocity": 0.6771653543307087
        },
        {
          "duration": 0.09375,
          "durationTicks": 64,
          "midi": 45,
          "name": "A2",
          "ticks": 222208,
          "time": 325.5,
          "velocity": 0.7401574803149606
        },
        {
          "duration": 0.09375,
          "durationTicks": 64,
          "midi": 47,
          "name": "B2",
          "ticks": 222336,
          "time": 325.6875,
          "velocity": 0.8031496062992126
        },
        {
          "duration": 0.09375,
          "durationTicks": 64,
          "midi": 48,
          "name": "C3",
          "ticks": 222464,
          "time": 325.875,
          "velocity": 0.8110236220472441
        },
        {
          "duration": 0.09375,
          "durationTicks": 64,
          "midi": 47,
          "name": "B2",
          "ticks": 222592,
          "time": 326.0625,
          "velocity": 0.7637795275590551
        },
        {
          "duration": 0.09375,
          "durationTicks": 64,
          "midi": 45,
          "name": "A2",
          "ticks": 222720,
          "time": 326.25,
          "velocity": 0.7165354330708661
        },
        {
          "duration": 0.09375,
          "durationTicks": 64,
          "midi": 46,
          "name": "A#2",
          "ticks": 222848,
          "time": 326.4375,
          "velocity": 0.7401574803149606
        },
        {
          "duration": 0.09375,
          "durationTicks": 64,
          "midi": 43,
          "name": "G2",
          "ticks": 222976,
          "time": 326.625,
          "velocity": 0.7244094488188977
        },
        {
          "duration": 0.09375,
          "durationTicks": 64,
          "midi": 45,
          "name": "A2",
          "ticks": 223104,
          "time": 326.8125,
          "velocity": 0.8031496062992126
        },
        {
          "duration": 0.09375,
          "durationTicks": 64,
          "midi": 41,
          "name": "F2",
          "ticks": 223232,
          "time": 327,
          "velocity": 0.7244094488188977
        },
        {
          "duration": 0.09375,
          "durationTicks": 64,
          "midi": 45,
          "name": "A2",
          "ticks": 223360,
          "time": 327.1875,
          "velocity": 0.7952755905511811
        },
        {
          "duration": 0.09375,
          "durationTicks": 64,
          "midi": 50,
          "name": "D3",
          "ticks": 223488,
          "time": 327.375,
          "velocity": 0.8267716535433071
        },
        {
          "duration": 0.09375,
          "durationTicks": 64,
          "midi": 41,
          "name": "F2",
          "ticks": 223616,
          "time": 327.5625,
          "velocity": 0.6850393700787402
        },
        {
          "duration": 0.09375,
          "durationTicks": 64,
          "midi": 40,
          "name": "E2",
          "ticks": 223744,
          "time": 327.75,
          "velocity": 0.7086614173228346
        },
        {
          "duration": 0.09375,
          "durationTicks": 64,
          "midi": 43,
          "name": "G2",
          "ticks": 223872,
          "time": 327.9375,
          "velocity": 0.8031496062992126
        },
        {
          "duration": 0.09375,
          "durationTicks": 64,
          "midi": 49,
          "name": "C#3",
          "ticks": 224000,
          "time": 328.125,
          "velocity": 0.8346456692913385
        },
        {
          "duration": 0.09375,
          "durationTicks": 64,
          "midi": 40,
          "name": "E2",
          "ticks": 224128,
          "time": 328.3125,
          "velocity": 0.6771653543307087
        },
        {
          "duration": 0.1875,
          "durationTicks": 128,
          "midi": 38,
          "name": "D2",
          "ticks": 224256,
          "time": 328.5,
          "velocity": 0.7165354330708661
        },
        {
          "duration": 0.1875,
          "durationTicks": 128,
          "midi": 33,
          "name": "A1",
          "ticks": 224384,
          "time": 328.6875,
          "velocity": 0.6929133858267716
        },
        {
          "duration": 0.1875,
          "durationTicks": 128,
          "midi": 35,
          "name": "B1",
          "ticks": 224512,
          "time": 328.875,
          "velocity": 0.7795275590551181
        },
        {
          "duration": 0.1875,
          "durationTicks": 128,
          "midi": 37,
          "name": "C#2",
          "ticks": 224640,
          "time": 329.0625,
          "velocity": 0.7716535433070866
        },
        {
          "duration": 0.1875,
          "durationTicks": 128,
          "midi": 38,
          "name": "D2",
          "ticks": 224768,
          "time": 329.25,
          "velocity": 0.7716535433070866
        },
        {
          "duration": 0.1875,
          "durationTicks": 128,
          "midi": 33,
          "name": "A1",
          "ticks": 224896,
          "time": 329.4375,
          "velocity": 0.7322834645669292
        },
        {
          "duration": 0.1875,
          "durationTicks": 128,
          "midi": 38,
          "name": "D2",
          "ticks": 225024,
          "time": 329.625,
          "velocity": 0.8110236220472441
        },
        {
          "duration": 0.1875,
          "durationTicks": 128,
          "midi": 40,
          "name": "E2",
          "ticks": 225152,
          "time": 329.8125,
          "velocity": 0.7716535433070866
        },
        {
          "duration": 0.1875,
          "durationTicks": 128,
          "midi": 41,
          "name": "F2",
          "ticks": 225280,
          "time": 330,
          "velocity": 0.7952755905511811
        },
        {
          "duration": 0.1875,
          "durationTicks": 128,
          "midi": 38,
          "name": "D2",
          "ticks": 225408,
          "time": 330.1875,
          "velocity": 0.7480314960629921
        },
        {
          "duration": 0.1875,
          "durationTicks": 128,
          "midi": 40,
          "name": "E2",
          "ticks": 225536,
          "time": 330.375,
          "velocity": 0.7795275590551181
        },
        {
          "duration": 0.1875,
          "durationTicks": 128,
          "midi": 42,
          "name": "F#2",
          "ticks": 225664,
          "time": 330.5625,
          "velocity": 0.8031496062992126
        },
        {
          "duration": 0.1875,
          "durationTicks": 128,
          "midi": 43,
          "name": "G2",
          "ticks": 225792,
          "time": 330.75,
          "velocity": 0.8031496062992126
        },
        {
          "duration": 0.1875,
          "durationTicks": 128,
          "midi": 38,
          "name": "D2",
          "ticks": 225920,
          "time": 330.9375,
          "velocity": 0.6929133858267716
        },
        {
          "duration": 0.1875,
          "durationTicks": 128,
          "midi": 43,
          "name": "G2",
          "ticks": 226048,
          "time": 331.125,
          "velocity": 0.7716535433070866
        },
        {
          "duration": 0.1875,
          "durationTicks": 128,
          "midi": 45,
          "name": "A2",
          "ticks": 226176,
          "time": 331.3125,
          "velocity": 0.8110236220472441
        },
        {
          "duration": 0.375,
          "durationTicks": 256,
          "midi": 46,
          "name": "A#2",
          "ticks": 226304,
          "time": 331.5,
          "velocity": 0.7716535433070866
        },
        {
          "duration": 0.375,
          "durationTicks": 256,
          "midi": 31,
          "name": "G1",
          "ticks": 226560,
          "time": 331.875,
          "velocity": 0.6850393700787402
        },
        {
          "duration": 0.1904296875,
          "durationTicks": 130,
          "midi": 45,
          "name": "A2",
          "ticks": 227072,
          "time": 332.625,
          "velocity": 0.7007874015748031
        },
        {
          "duration": 0.17724609375,
          "durationTicks": 121,
          "midi": 43,
          "name": "G2",
          "ticks": 227200,
          "time": 332.8125,
          "velocity": 0.6692913385826772
        },
        {
          "duration": 0.375,
          "durationTicks": 256,
          "midi": 43,
          "name": "G2",
          "ticks": 227328,
          "time": 333,
          "velocity": 0.8031496062992126
        },
        {
          "duration": 0.1904296875,
          "durationTicks": 130,
          "midi": 45,
          "name": "A2",
          "ticks": 227584,
          "time": 333.375,
          "velocity": 0.7952755905511811
        },
        {
          "duration": 0.17724609375,
          "durationTicks": 121,
          "midi": 43,
          "name": "G2",
          "ticks": 227712,
          "time": 333.5625,
          "velocity": 0.7559055118110236
        },
        {
          "duration": 0.375,
          "durationTicks": 256,
          "midi": 43,
          "name": "G2",
          "ticks": 227840,
          "time": 333.75,
          "velocity": 0.7952755905511811
        },
        {
          "duration": 0.1904296875,
          "durationTicks": 130,
          "midi": 45,
          "name": "A2",
          "ticks": 228096,
          "time": 334.125,
          "velocity": 0.8031496062992126
        },
        {
          "duration": 0.17724609375,
          "durationTicks": 121,
          "midi": 43,
          "name": "G2",
          "ticks": 228224,
          "time": 334.3125,
          "velocity": 0.8031496062992126
        },
        {
          "duration": 0.38232421875,
          "durationTicks": 261,
          "midi": 43,
          "name": "G2",
          "ticks": 228352,
          "time": 334.5,
          "velocity": 0.7874015748031497
        },
        {
          "duration": 0.35595703125,
          "durationTicks": 243,
          "midi": 52,
          "name": "E3",
          "ticks": 228608,
          "time": 334.875,
          "velocity": 0.8740157480314961
        },
        {
          "duration": 0.1904296875,
          "durationTicks": 130,
          "midi": 52,
          "name": "E3",
          "ticks": 229120,
          "time": 335.625,
          "velocity": 0.6771653543307087
        },
        {
          "duration": 0.17724609375,
          "durationTicks": 121,
          "midi": 50,
          "name": "D3",
          "ticks": 229248,
          "time": 335.8125,
          "velocity": 0.6771653543307087
        },
        {
          "duration": 0.375,
          "durationTicks": 256,
          "midi": 48,
          "name": "C3",
          "ticks": 229376,
          "time": 336,
          "velocity": 0.7401574803149606
        },
        {
          "duration": 0.1904296875,
          "durationTicks": 130,
          "midi": 48,
          "name": "C3",
          "ticks": 229632,
          "time": 336.375,
          "velocity": 0.7559055118110236
        },
        {
          "duration": 0.17724609375,
          "durationTicks": 121,
          "midi": 46,
          "name": "A#2",
          "ticks": 229760,
          "time": 336.5625,
          "velocity": 0.7244094488188977
        },
        {
          "duration": 0.375,
          "durationTicks": 256,
          "midi": 45,
          "name": "A2",
          "ticks": 229888,
          "time": 336.75,
          "velocity": 0.7874015748031497
        },
        {
          "duration": 0.1875,
          "durationTicks": 128,
          "midi": 45,
          "name": "A2",
          "ticks": 230144,
          "time": 337.125,
          "velocity": 0.7559055118110236
        },
        {
          "duration": 0.1875,
          "durationTicks": 128,
          "midi": 43,
          "name": "G2",
          "ticks": 230272,
          "time": 337.3125,
          "velocity": 0.7322834645669292
        },
        {
          "duration": 0.09375,
          "durationTicks": 64,
          "midi": 41,
          "name": "F2",
          "ticks": 230400,
          "time": 337.5,
          "velocity": 0.7244094488188977
        },
        {
          "duration": 0.09375,
          "durationTicks": 64,
          "midi": 43,
          "name": "G2",
          "ticks": 230528,
          "time": 337.6875,
          "velocity": 0.7952755905511811
        },
        {
          "duration": 0.09375,
          "durationTicks": 64,
          "midi": 45,
          "name": "A2",
          "ticks": 230656,
          "time": 337.875,
          "velocity": 0.7952755905511811
        },
        {
          "duration": 0.09375,
          "durationTicks": 64,
          "midi": 43,
          "name": "G2",
          "ticks": 230784,
          "time": 338.0625,
          "velocity": 0.7795275590551181
        },
        {
          "duration": 0.09375,
          "durationTicks": 64,
          "midi": 41,
          "name": "F2",
          "ticks": 230912,
          "time": 338.25,
          "velocity": 0.7559055118110236
        },
        {
          "duration": 0.09375,
          "durationTicks": 64,
          "midi": 43,
          "name": "G2",
          "ticks": 231040,
          "time": 338.4375,
          "velocity": 0.7716535433070866
        },
        {
          "duration": 0.09375,
          "durationTicks": 64,
          "midi": 39,
          "name": "D#2",
          "ticks": 231168,
          "time": 338.625,
          "velocity": 0.7401574803149606
        },
        {
          "duration": 0.09375,
          "durationTicks": 64,
          "midi": 41,
          "name": "F2",
          "ticks": 231296,
          "time": 338.8125,
          "velocity": 0.7795275590551181
        },
        {
          "duration": 0.09375,
          "durationTicks": 64,
          "midi": 38,
          "name": "D2",
          "ticks": 231424,
          "time": 339,
          "velocity": 0.7637795275590551
        },
        {
          "duration": 0.09375,
          "durationTicks": 64,
          "midi": 41,
          "name": "F2",
          "ticks": 231552,
          "time": 339.1875,
          "velocity": 0.8110236220472441
        },
        {
          "duration": 0.09375,
          "durationTicks": 64,
          "midi": 46,
          "name": "A#2",
          "ticks": 231680,
          "time": 339.375,
          "velocity": 0.7952755905511811
        },
        {
          "duration": 0.09375,
          "durationTicks": 64,
          "midi": 38,
          "name": "D2",
          "ticks": 231808,
          "time": 339.5625,
          "velocity": 0.6692913385826772
        },
        {
          "duration": 0.09375,
          "durationTicks": 64,
          "midi": 36,
          "name": "C2",
          "ticks": 231936,
          "time": 339.75,
          "velocity": 0.7322834645669292
        },
        {
          "duration": 0.09375,
          "durationTicks": 64,
          "midi": 39,
          "name": "D#2",
          "ticks": 232064,
          "time": 339.9375,
          "velocity": 0.7480314960629921
        },
        {
          "duration": 0.09375,
          "durationTicks": 64,
          "midi": 45,
          "name": "A2",
          "ticks": 232192,
          "time": 340.125,
          "velocity": 0.8188976377952756
        },
        {
          "duration": 0.09375,
          "durationTicks": 64,
          "midi": 36,
          "name": "C2",
          "ticks": 232320,
          "time": 340.3125,
          "velocity": 0.6929133858267716
        },
        {
          "duration": 0.09375,
          "durationTicks": 64,
          "midi": 34,
          "name": "A#1",
          "ticks": 232448,
          "time": 340.5,
          "velocity": 0.7322834645669292
        },
        {
          "duration": 0.09375,
          "durationTicks": 64,
          "midi": 29,
          "name": "F1",
          "ticks": 232576,
          "time": 340.6875,
          "velocity": 0.6929133858267716
        },
        {
          "duration": 0.09375,
          "durationTicks": 64,
          "midi": 31,
          "name": "G1",
          "ticks": 232704,
          "time": 340.875,
          "velocity": 0.7874015748031497
        },
        {
          "duration": 0.09375,
          "durationTicks": 64,
          "midi": 33,
          "name": "A1",
          "ticks": 232832,
          "time": 341.0625,
          "velocity": 0.7952755905511811
        },
        {
          "duration": 0.09375,
          "durationTicks": 64,
          "midi": 34,
          "name": "A#1",
          "ticks": 232960,
          "time": 341.25,
          "velocity": 0.8031496062992126
        },
        {
          "duration": 0.09375,
          "durationTicks": 64,
          "midi": 33,
          "name": "A1",
          "ticks": 233088,
          "time": 341.4375,
          "velocity": 0.7401574803149606
        },
        {
          "duration": 0.09375,
          "durationTicks": 64,
          "midi": 34,
          "name": "A#1",
          "ticks": 233216,
          "time": 341.625,
          "velocity": 0.8110236220472441
        },
        {
          "duration": 0.09375,
          "durationTicks": 64,
          "midi": 36,
          "name": "C2",
          "ticks": 233344,
          "time": 341.8125,
          "velocity": 0.7716535433070866
        },
        {
          "duration": 0.09375,
          "durationTicks": 64,
          "midi": 38,
          "name": "D2",
          "ticks": 233472,
          "time": 342,
          "velocity": 0.7874015748031497
        },
        {
          "duration": 0.09375,
          "durationTicks": 64,
          "midi": 34,
          "name": "A#1",
          "ticks": 233600,
          "time": 342.1875,
          "velocity": 0.7244094488188977
        },
        {
          "duration": 0.09375,
          "durationTicks": 64,
          "midi": 36,
          "name": "C2",
          "ticks": 233728,
          "time": 342.375,
          "velocity": 0.7952755905511811
        },
        {
          "duration": 0.09375,
          "durationTicks": 64,
          "midi": 38,
          "name": "D2",
          "ticks": 233856,
          "time": 342.5625,
          "velocity": 0.8267716535433071
        },
        {
          "duration": 0.09375,
          "durationTicks": 64,
          "midi": 39,
          "name": "D#2",
          "ticks": 233984,
          "time": 342.75,
          "velocity": 0.8188976377952756
        },
        {
          "duration": 0.09375,
          "durationTicks": 64,
          "midi": 38,
          "name": "D2",
          "ticks": 234112,
          "time": 342.9375,
          "velocity": 0.7244094488188977
        },
        {
          "duration": 0.09375,
          "durationTicks": 64,
          "midi": 39,
          "name": "D#2",
          "ticks": 234240,
          "time": 343.125,
          "velocity": 0.7716535433070866
        },
        {
          "duration": 0.09375,
          "durationTicks": 64,
          "midi": 41,
          "name": "F2",
          "ticks": 234368,
          "time": 343.3125,
          "velocity": 0.8267716535433071
        },
        {
          "duration": 0.1875,
          "durationTicks": 128,
          "midi": 43,
          "name": "G2",
          "ticks": 234496,
          "time": 343.5,
          "velocity": 0.7795275590551181
        },
        {
          "duration": 0.1875,
          "durationTicks": 128,
          "midi": 39,
          "name": "D#2",
          "ticks": 234624,
          "time": 343.6875,
          "velocity": 0.6929133858267716
        },
        {
          "duration": 0.1875,
          "durationTicks": 128,
          "midi": 29,
          "name": "F1",
          "ticks": 234752,
          "time": 343.875,
          "velocity": 0.6929133858267716
        },
        {
          "duration": 0.1875,
          "durationTicks": 128,
          "midi": 31,
          "name": "G1",
          "ticks": 234880,
          "time": 344.0625,
          "velocity": 0.8110236220472441
        },
        {
          "duration": 0.1875,
          "durationTicks": 128,
          "midi": 33,
          "name": "A1",
          "ticks": 235008,
          "time": 344.25,
          "velocity": 0.7874015748031497
        },
        {
          "duration": 0.1875,
          "durationTicks": 128,
          "midi": 31,
          "name": "G1",
          "ticks": 235136,
          "time": 344.4375,
          "velocity": 0.7086614173228346
        },
        {
          "duration": 0.1875,
          "durationTicks": 128,
          "midi": 33,
          "name": "A1",
          "ticks": 235264,
          "time": 344.625,
          "velocity": 0.8031496062992126
        },
        {
          "duration": 0.1875,
          "durationTicks": 128,
          "midi": 34,
          "name": "A#1",
          "ticks": 235392,
          "time": 344.8125,
          "velocity": 0.8031496062992126
        },
        {
          "duration": 0.1875,
          "durationTicks": 128,
          "midi": 36,
          "name": "C2",
          "ticks": 235520,
          "time": 345,
          "velocity": 0.7874015748031497
        },
        {
          "duration": 0.1875,
          "durationTicks": 128,
          "midi": 33,
          "name": "A1",
          "ticks": 235648,
          "time": 345.1875,
          "velocity": 0.7480314960629921
        },
        {
          "duration": 0.1875,
          "durationTicks": 128,
          "midi": 34,
          "name": "A#1",
          "ticks": 235776,
          "time": 345.375,
          "velocity": 0.8267716535433071
        },
        {
          "duration": 0.1875,
          "durationTicks": 128,
          "midi": 36,
          "name": "C2",
          "ticks": 235904,
          "time": 345.5625,
          "velocity": 0.8110236220472441
        },
        {
          "duration": 0.1875,
          "durationTicks": 128,
          "midi": 38,
          "name": "D2",
          "ticks": 236032,
          "time": 345.75,
          "velocity": 0.8267716535433071
        },
        {
          "duration": 0.1875,
          "durationTicks": 128,
          "midi": 37,
          "name": "C#2",
          "ticks": 236160,
          "time": 345.9375,
          "velocity": 0.7559055118110236
        },
        {
          "duration": 0.1875,
          "durationTicks": 128,
          "midi": 38,
          "name": "D2",
          "ticks": 236288,
          "time": 346.125,
          "velocity": 0.7795275590551181
        },
        {
          "duration": 0.1875,
          "durationTicks": 128,
          "midi": 40,
          "name": "E2",
          "ticks": 236416,
          "time": 346.3125,
          "velocity": 0.7795275590551181
        },
        {
          "duration": 0.1875,
          "durationTicks": 128,
          "midi": 42,
          "name": "F#2",
          "ticks": 236544,
          "time": 346.5,
          "velocity": 0.7952755905511811
        },
        {
          "duration": 0.1875,
          "durationTicks": 128,
          "midi": 38,
          "name": "D2",
          "ticks": 236672,
          "time": 346.6875,
          "velocity": 0.7165354330708661
        },
        {
          "duration": 0.1875,
          "durationTicks": 128,
          "midi": 40,
          "name": "E2",
          "ticks": 236800,
          "time": 346.875,
          "velocity": 0.7716535433070866
        },
        {
          "duration": 0.1875,
          "durationTicks": 128,
          "midi": 42,
          "name": "F#2",
          "ticks": 236928,
          "time": 347.0625,
          "velocity": 0.7874015748031497
        },
        {
          "duration": 0.1875,
          "durationTicks": 128,
          "midi": 43,
          "name": "G2",
          "ticks": 237056,
          "time": 347.25,
          "velocity": 0.7874015748031497
        },
        {
          "duration": 0.1875,
          "durationTicks": 128,
          "midi": 39,
          "name": "D#2",
          "ticks": 237184,
          "time": 347.4375,
          "velocity": 0.7401574803149606
        },
        {
          "duration": 0.1875,
          "durationTicks": 128,
          "midi": 38,
          "name": "D2",
          "ticks": 237312,
          "time": 347.625,
          "velocity": 0.7086614173228346
        },
        {
          "duration": 0.1875,
          "durationTicks": 128,
          "midi": 36,
          "name": "C2",
          "ticks": 237440,
          "time": 347.8125,
          "velocity": 0.7322834645669292
        },
        {
          "duration": 0.1875,
          "durationTicks": 128,
          "midi": 34,
          "name": "A#1",
          "ticks": 237568,
          "time": 348,
          "velocity": 0.7244094488188977
        },
        {
          "duration": 0.1875,
          "durationTicks": 128,
          "midi": 36,
          "name": "C2",
          "ticks": 237696,
          "time": 348.1875,
          "velocity": 0.7795275590551181
        },
        {
          "duration": 0.1875,
          "durationTicks": 128,
          "midi": 34,
          "name": "A#1",
          "ticks": 237824,
          "time": 348.375,
          "velocity": 0.7322834645669292
        },
        {
          "duration": 0.1875,
          "durationTicks": 128,
          "midi": 33,
          "name": "A1",
          "ticks": 237952,
          "time": 348.5625,
          "velocity": 0.7795275590551181
        },
        {
          "duration": 0.1875,
          "durationTicks": 128,
          "midi": 31,
          "name": "G1",
          "ticks": 238080,
          "time": 348.75,
          "velocity": 0.7244094488188977
        },
        {
          "duration": 0.1875,
          "durationTicks": 128,
          "midi": 29,
          "name": "F1",
          "ticks": 238208,
          "time": 348.9375,
          "velocity": 0.7007874015748031
        },
        {
          "duration": 0.1875,
          "durationTicks": 128,
          "midi": 31,
          "name": "G1",
          "ticks": 238336,
          "time": 349.125,
          "velocity": 0.7716535433070866
        },
        {
          "duration": 0.1875,
          "durationTicks": 128,
          "midi": 32,
          "name": "G#1",
          "ticks": 238464,
          "time": 349.3125,
          "velocity": 0.8110236220472441
        },
        {
          "duration": 0.1875,
          "durationTicks": 128,
          "midi": 33,
          "name": "A1",
          "ticks": 238592,
          "time": 349.5,
          "velocity": 0.8188976377952756
        },
        {
          "duration": 0.1875,
          "durationTicks": 128,
          "midi": 33,
          "name": "A1",
          "ticks": 238720,
          "time": 349.6875,
          "velocity": 0.8110236220472441
        },
        {
          "duration": 0.1875,
          "durationTicks": 128,
          "midi": 33,
          "name": "A1",
          "ticks": 238848,
          "time": 349.875,
          "velocity": 0.7795275590551181
        },
        {
          "duration": 0.1875,
          "durationTicks": 128,
          "midi": 33,
          "name": "A1",
          "ticks": 238976,
          "time": 350.0625,
          "velocity": 0.7244094488188977
        },
        {
          "duration": 0.1875,
          "durationTicks": 128,
          "midi": 33,
          "name": "A1",
          "ticks": 239104,
          "time": 350.25,
          "velocity": 0.7716535433070866
        },
        {
          "duration": 0.1875,
          "durationTicks": 128,
          "midi": 33,
          "name": "A1",
          "ticks": 239232,
          "time": 350.4375,
          "velocity": 0.7952755905511811
        },
        {
          "duration": 0.1875,
          "durationTicks": 128,
          "midi": 33,
          "name": "A1",
          "ticks": 239360,
          "time": 350.625,
          "velocity": 0.7795275590551181
        },
        {
          "duration": 0.1875,
          "durationTicks": 128,
          "midi": 33,
          "name": "A1",
          "ticks": 239488,
          "time": 350.8125,
          "velocity": 0.7952755905511811
        },
        {
          "duration": 0.1875,
          "durationTicks": 128,
          "midi": 33,
          "name": "A1",
          "ticks": 239616,
          "time": 351,
          "velocity": 0.7952755905511811
        },
        {
          "duration": 0.1875,
          "durationTicks": 128,
          "midi": 33,
          "name": "A1",
          "ticks": 239744,
          "time": 351.1875,
          "velocity": 0.7795275590551181
        },
        {
          "duration": 0.1875,
          "durationTicks": 128,
          "midi": 33,
          "name": "A1",
          "ticks": 239872,
          "time": 351.375,
          "velocity": 0.7716535433070866
        },
        {
          "duration": 0.1875,
          "durationTicks": 128,
          "midi": 33,
          "name": "A1",
          "ticks": 240000,
          "time": 351.5625,
          "velocity": 0.7716535433070866
        },
        {
          "duration": 0.1875,
          "durationTicks": 128,
          "midi": 33,
          "name": "A1",
          "ticks": 240128,
          "time": 351.75,
          "velocity": 0.7716535433070866
        },
        {
          "duration": 0.1875,
          "durationTicks": 128,
          "midi": 33,
          "name": "A1",
          "ticks": 240256,
          "time": 351.9375,
          "velocity": 0.7716535433070866
        },
        {
          "duration": 0.1875,
          "durationTicks": 128,
          "midi": 33,
          "name": "A1",
          "ticks": 240384,
          "time": 352.125,
          "velocity": 0.7874015748031497
        },
        {
          "duration": 0.1875,
          "durationTicks": 128,
          "midi": 33,
          "name": "A1",
          "ticks": 240512,
          "time": 352.3125,
          "velocity": 0.7716535433070866
        },
        {
          "duration": 0.1875,
          "durationTicks": 128,
          "midi": 33,
          "name": "A1",
          "ticks": 240640,
          "time": 352.5,
          "velocity": 0.7716535433070866
        },
        {
          "duration": 0.1875,
          "durationTicks": 128,
          "midi": 33,
          "name": "A1",
          "ticks": 240768,
          "time": 352.6875,
          "velocity": 0.7401574803149606
        },
        {
          "duration": 0.1875,
          "durationTicks": 128,
          "midi": 33,
          "name": "A1",
          "ticks": 240896,
          "time": 352.875,
          "velocity": 0.7874015748031497
        },
        {
          "duration": 0.1875,
          "durationTicks": 128,
          "midi": 33,
          "name": "A1",
          "ticks": 241024,
          "time": 353.0625,
          "velocity": 0.7795275590551181
        },
        {
          "duration": 0.1875,
          "durationTicks": 128,
          "midi": 33,
          "name": "A1",
          "ticks": 241152,
          "time": 353.25,
          "velocity": 0.7716535433070866
        },
        {
          "duration": 0.1875,
          "durationTicks": 128,
          "midi": 33,
          "name": "A1",
          "ticks": 241280,
          "time": 353.4375,
          "velocity": 0.7795275590551181
        },
        {
          "duration": 0.1875,
          "durationTicks": 128,
          "midi": 33,
          "name": "A1",
          "ticks": 241408,
          "time": 353.625,
          "velocity": 0.7559055118110236
        },
        {
          "duration": 0.1875,
          "durationTicks": 128,
          "midi": 33,
          "name": "A1",
          "ticks": 241536,
          "time": 353.8125,
          "velocity": 0.7795275590551181
        },
        {
          "duration": 0.1875,
          "durationTicks": 128,
          "midi": 33,
          "name": "A1",
          "ticks": 241664,
          "time": 354,
          "velocity": 0.7480314960629921
        },
        {
          "duration": 0.1875,
          "durationTicks": 128,
          "midi": 33,
          "name": "A1",
          "ticks": 241792,
          "time": 354.1875,
          "velocity": 0.7874015748031497
        },
        {
          "duration": 0.1875,
          "durationTicks": 128,
          "midi": 33,
          "name": "A1",
          "ticks": 241920,
          "time": 354.375,
          "velocity": 0.7716535433070866
        },
        {
          "duration": 0.1875,
          "durationTicks": 128,
          "midi": 33,
          "name": "A1",
          "ticks": 242048,
          "time": 354.5625,
          "velocity": 0.7716535433070866
        },
        {
          "duration": 0.1875,
          "durationTicks": 128,
          "midi": 33,
          "name": "A1",
          "ticks": 242176,
          "time": 354.75,
          "velocity": 0.7716535433070866
        },
        {
          "duration": 0.1875,
          "durationTicks": 128,
          "midi": 33,
          "name": "A1",
          "ticks": 242304,
          "time": 354.9375,
          "velocity": 0.7716535433070866
        },
        {
          "duration": 0.1875,
          "durationTicks": 128,
          "midi": 33,
          "name": "A1",
          "ticks": 242432,
          "time": 355.125,
          "velocity": 0.7716535433070866
        },
        {
          "duration": 0.1875,
          "durationTicks": 128,
          "midi": 33,
          "name": "A1",
          "ticks": 242560,
          "time": 355.3125,
          "velocity": 0.7795275590551181
        },
        {
          "duration": 0.75,
          "durationTicks": 512,
          "midi": 33,
          "name": "A1",
          "ticks": 242688,
          "time": 355.5,
          "velocity": 0.7874015748031497
        },
        {
          "duration": 0.1904296875,
          "durationTicks": 130,
          "midi": 55,
          "name": "G3",
          "ticks": 251648,
          "time": 368.625,
          "velocity": 0.4094488188976378
        },
        {
          "duration": 0.17724609375,
          "durationTicks": 121,
          "midi": 54,
          "name": "F#3",
          "ticks": 251776,
          "time": 368.8125,
          "velocity": 0.3858267716535433
        },
        {
          "duration": 0.375,
          "durationTicks": 256,
          "midi": 54,
          "name": "F#3",
          "ticks": 251904,
          "time": 369,
          "velocity": 0.48031496062992124
        },
        {
          "duration": 0.1904296875,
          "durationTicks": 130,
          "midi": 55,
          "name": "G3",
          "ticks": 252160,
          "time": 369.375,
          "velocity": 0.5354330708661418
        },
        {
          "duration": 0.17724609375,
          "durationTicks": 121,
          "midi": 54,
          "name": "F#3",
          "ticks": 252288,
          "time": 369.5625,
          "velocity": 0.5590551181102362
        },
        {
          "duration": 0.375,
          "durationTicks": 256,
          "midi": 54,
          "name": "F#3",
          "ticks": 252416,
          "time": 369.75,
          "velocity": 0.5118110236220472
        },
        {
          "duration": 0.1904296875,
          "durationTicks": 130,
          "midi": 55,
          "name": "G3",
          "ticks": 252672,
          "time": 370.125,
          "velocity": 0.4645669291338583
        },
        {
          "duration": 0.17724609375,
          "durationTicks": 121,
          "midi": 54,
          "name": "F#3",
          "ticks": 252800,
          "time": 370.3125,
          "velocity": 0.47244094488188976
        },
        {
          "duration": 0.375,
          "durationTicks": 256,
          "midi": 54,
          "name": "F#3",
          "ticks": 252928,
          "time": 370.5,
          "velocity": 0.47244094488188976
        },
        {
          "duration": 0.1904296875,
          "durationTicks": 130,
          "midi": 51,
          "name": "D#3",
          "ticks": 253696,
          "time": 371.625,
          "velocity": 0.4094488188976378
        },
        {
          "duration": 0.17724609375,
          "durationTicks": 121,
          "midi": 50,
          "name": "D3",
          "ticks": 253824,
          "time": 371.8125,
          "velocity": 0.3937007874015748
        },
        {
          "duration": 0.375,
          "durationTicks": 256,
          "midi": 50,
          "name": "D3",
          "ticks": 253952,
          "time": 372,
          "velocity": 0.4881889763779528
        },
        {
          "duration": 0.1904296875,
          "durationTicks": 130,
          "midi": 51,
          "name": "D#3",
          "ticks": 254208,
          "time": 372.375,
          "velocity": 0.4566929133858268
        },
        {
          "duration": 0.17724609375,
          "durationTicks": 121,
          "midi": 50,
          "name": "D3",
          "ticks": 254336,
          "time": 372.5625,
          "velocity": 0.4566929133858268
        },
        {
          "duration": 0.375,
          "durationTicks": 256,
          "midi": 50,
          "name": "D3",
          "ticks": 254464,
          "time": 372.75,
          "velocity": 0.47244094488188976
        },
        {
          "duration": 0.1904296875,
          "durationTicks": 130,
          "midi": 51,
          "name": "D#3",
          "ticks": 254720,
          "time": 373.125,
          "velocity": 0.5196850393700787
        },
        {
          "duration": 0.17724609375,
          "durationTicks": 121,
          "midi": 50,
          "name": "D3",
          "ticks": 254848,
          "time": 373.3125,
          "velocity": 0.5118110236220472
        },
        {
          "duration": 0.375,
          "durationTicks": 256,
          "midi": 50,
          "name": "D3",
          "ticks": 254976,
          "time": 373.5,
          "velocity": 0.4645669291338583
        },
        {
          "duration": 0.1904296875,
          "durationTicks": 130,
          "midi": 43,
          "name": "G2",
          "ticks": 255744,
          "time": 374.625,
          "velocity": 0.4330708661417323
        },
        {
          "duration": 0.17724609375,
          "durationTicks": 121,
          "midi": 42,
          "name": "F#2",
          "ticks": 255872,
          "time": 374.8125,
          "velocity": 0.4094488188976378
        },
        {
          "duration": 0.375,
          "durationTicks": 256,
          "midi": 42,
          "name": "F#2",
          "ticks": 256000,
          "time": 375,
          "velocity": 0.49606299212598426
        },
        {
          "duration": 0.1904296875,
          "durationTicks": 130,
          "midi": 43,
          "name": "G2",
          "ticks": 256256,
          "time": 375.375,
          "velocity": 0.48031496062992124
        },
        {
          "duration": 0.17724609375,
          "durationTicks": 121,
          "midi": 42,
          "name": "F#2",
          "ticks": 256384,
          "time": 375.5625,
          "velocity": 0.48031496062992124
        },
        {
          "duration": 0.375,
          "durationTicks": 256,
          "midi": 42,
          "name": "F#2",
          "ticks": 256512,
          "time": 375.75,
          "velocity": 0.47244094488188976
        },
        {
          "duration": 0.1904296875,
          "durationTicks": 130,
          "midi": 43,
          "name": "G2",
          "ticks": 256768,
          "time": 376.125,
          "velocity": 0.4881889763779528
        },
        {
          "duration": 0.17724609375,
          "durationTicks": 121,
          "midi": 42,
          "name": "F#2",
          "ticks": 256896,
          "time": 376.3125,
          "velocity": 0.49606299212598426
        },
        {
          "duration": 0.375,
          "durationTicks": 256,
          "midi": 42,
          "name": "F#2",
          "ticks": 257024,
          "time": 376.5,
          "velocity": 0.4645669291338583
        },
        {
          "duration": 0.1904296875,
          "durationTicks": 130,
          "midi": 51,
          "name": "D#3",
          "ticks": 258304,
          "time": 378.375,
          "velocity": 0.7086614173228346
        },
        {
          "duration": 0.17724609375,
          "durationTicks": 121,
          "midi": 50,
          "name": "D3",
          "ticks": 258432,
          "time": 378.5625,
          "velocity": 0.6614173228346457
        },
        {
          "duration": 0.375,
          "durationTicks": 256,
          "midi": 50,
          "name": "D3",
          "ticks": 258560,
          "time": 378.75,
          "velocity": 0.8110236220472441
        },
        {
          "duration": 0.1904296875,
          "durationTicks": 130,
          "midi": 51,
          "name": "D#3",
          "ticks": 259328,
          "time": 379.875,
          "velocity": 0.6929133858267716
        },
        {
          "duration": 0.17724609375,
          "durationTicks": 121,
          "midi": 50,
          "name": "D3",
          "ticks": 259456,
          "time": 380.0625,
          "velocity": 0.6929133858267716
        },
        {
          "duration": 0.375,
          "durationTicks": 256,
          "midi": 50,
          "name": "D3",
          "ticks": 259584,
          "time": 380.25,
          "velocity": 0.7874015748031497
        },
        {
          "duration": 0.1904296875,
          "durationTicks": 130,
          "midi": 51,
          "name": "D#3",
          "ticks": 260352,
          "time": 381.375,
          "velocity": 0.6692913385826772
        },
        {
          "duration": 0.17724609375,
          "durationTicks": 121,
          "midi": 50,
          "name": "D3",
          "ticks": 260480,
          "time": 381.5625,
          "velocity": 0.6535433070866141
        },
        {
          "duration": 0.375,
          "durationTicks": 256,
          "midi": 50,
          "name": "D3",
          "ticks": 260608,
          "time": 381.75,
          "velocity": 0.7795275590551181
        },
        {
          "duration": 0.1904296875,
          "durationTicks": 130,
          "midi": 51,
          "name": "D#3",
          "ticks": 261376,
          "time": 382.875,
          "velocity": 0.7165354330708661
        },
        {
          "duration": 0.17724609375,
          "durationTicks": 121,
          "midi": 50,
          "name": "D3",
          "ticks": 261504,
          "time": 383.0625,
          "velocity": 0.6692913385826772
        },
        {
          "duration": 0.375,
          "durationTicks": 256,
          "midi": 50,
          "name": "D3",
          "ticks": 261632,
          "time": 383.25,
          "velocity": 0.7952755905511811
        },
        {
          "duration": 0.1904296875,
          "durationTicks": 130,
          "midi": 51,
          "name": "D#3",
          "ticks": 262400,
          "time": 384.375,
          "velocity": 0.6771653543307087
        },
        {
          "duration": 0.17724609375,
          "durationTicks": 121,
          "midi": 50,
          "name": "D3",
          "ticks": 262528,
          "time": 384.5625,
          "velocity": 0.6771653543307087
        },
        {
          "duration": 0.375,
          "durationTicks": 256,
          "midi": 50,
          "name": "D3",
          "ticks": 262656,
          "time": 384.75,
          "velocity": 0.7716535433070866
        },
        {
          "duration": 0.1904296875,
          "durationTicks": 130,
          "midi": 51,
          "name": "D#3",
          "ticks": 263424,
          "time": 385.875,
          "velocity": 0.6692913385826772
        },
        {
          "duration": 0.17724609375,
          "durationTicks": 121,
          "midi": 50,
          "name": "D3",
          "ticks": 263552,
          "time": 386.0625,
          "velocity": 0.6456692913385826
        },
        {
          "duration": 0.375,
          "durationTicks": 256,
          "midi": 50,
          "name": "D3",
          "ticks": 263680,
          "time": 386.25,
          "velocity": 0.7559055118110236
        },
        {
          "duration": 0.1904296875,
          "durationTicks": 130,
          "midi": 51,
          "name": "D#3",
          "ticks": 264448,
          "time": 387.375,
          "velocity": 0.7007874015748031
        },
        {
          "duration": 0.17724609375,
          "durationTicks": 121,
          "midi": 50,
          "name": "D3",
          "ticks": 264576,
          "time": 387.5625,
          "velocity": 0.6692913385826772
        },
        {
          "duration": 0.375,
          "durationTicks": 256,
          "midi": 50,
          "name": "D3",
          "ticks": 264704,
          "time": 387.75,
          "velocity": 0.7716535433070866
        },
        {
          "duration": 0.1904296875,
          "durationTicks": 130,
          "midi": 51,
          "name": "D#3",
          "ticks": 264960,
          "time": 388.125,
          "velocity": 0.7874015748031497
        },
        {
          "duration": 0.17724609375,
          "durationTicks": 121,
          "midi": 50,
          "name": "D3",
          "ticks": 265088,
          "time": 388.3125,
          "velocity": 0.7480314960629921
        },
        {
          "duration": 0.375,
          "durationTicks": 256,
          "midi": 50,
          "name": "D3",
          "ticks": 265216,
          "time": 388.5,
          "velocity": 0.7559055118110236
        },
        {
          "duration": 0.375,
          "durationTicks": 256,
          "midi": 31,
          "name": "G1",
          "ticks": 271360,
          "time": 397.5,
          "velocity": 0.4409448818897638
        },
        {
          "duration": 0.375,
          "durationTicks": 256,
          "midi": 43,
          "name": "G2",
          "ticks": 272384,
          "time": 399,
          "velocity": 0.41732283464566927
        },
        {
          "duration": 0.375,
          "durationTicks": 256,
          "midi": 31,
          "name": "G1",
          "ticks": 273408,
          "time": 400.5,
          "velocity": 0.4330708661417323
        },
        {
          "duration": 0.375,
          "durationTicks": 256,
          "midi": 43,
          "name": "G2",
          "ticks": 274432,
          "time": 402,
          "velocity": 0.41732283464566927
        },
        {
          "duration": 0.375,
          "durationTicks": 256,
          "midi": 30,
          "name": "F#1",
          "ticks": 275456,
          "time": 403.5,
          "velocity": 0.48031496062992124
        },
        {
          "duration": 0.375,
          "durationTicks": 256,
          "midi": 38,
          "name": "D2",
          "ticks": 276480,
          "time": 405,
          "velocity": 0.41732283464566927
        },
        {
          "duration": 0.375,
          "durationTicks": 256,
          "midi": 31,
          "name": "G1",
          "ticks": 277504,
          "time": 406.5,
          "velocity": 0.4409448818897638
        },
        {
          "duration": 1.529296875,
          "durationTicks": 1044,
          "midi": 36,
          "name": "C2",
          "ticks": 278528,
          "time": 408,
          "velocity": 0.4015748031496063
        },
        {
          "duration": 1.529296875,
          "durationTicks": 1044,
          "midi": 34,
          "name": "A#1",
          "ticks": 279552,
          "time": 409.5,
          "velocity": 0.3858267716535433
        },
        {
          "duration": 1.529296875,
          "durationTicks": 1044,
          "midi": 36,
          "name": "C2",
          "ticks": 280576,
          "time": 411,
          "velocity": 0.4881889763779528
        },
        {
          "duration": 1.423828125,
          "durationTicks": 972,
          "midi": 34,
          "name": "A#1",
          "ticks": 281600,
          "time": 412.5,
          "velocity": 0.48031496062992124
        },
        {
          "duration": 1.529296875,
          "durationTicks": 1044,
          "midi": 40,
          "name": "E2",
          "ticks": 282624,
          "time": 414,
          "velocity": 0.5433070866141733
        },
        {
          "duration": 1.529296875,
          "durationTicks": 1044,
          "midi": 39,
          "name": "D#2",
          "ticks": 283648,
          "time": 415.5,
          "velocity": 0.5275590551181102
        },
        {
          "duration": 0.7119140625,
          "durationTicks": 486,
          "midi": 38,
          "name": "D2",
          "ticks": 284672,
          "time": 417,
          "velocity": 0.4645669291338583
        },
        {
          "duration": 0.1875,
          "durationTicks": 128,
          "midi": 38,
          "name": "D2",
          "ticks": 285440,
          "time": 418.125,
          "velocity": 0.7007874015748031
        },
        {
          "duration": 0.1875,
          "durationTicks": 128,
          "midi": 38,
          "name": "D2",
          "ticks": 285568,
          "time": 418.3125,
          "velocity": 0.7637795275590551
        },
        {
          "duration": 0.75,
          "durationTicks": 512,
          "midi": 38,
          "name": "D2",
          "ticks": 285696,
          "time": 418.5,
          "velocity": 0.8188976377952756
        },
        {
          "duration": 0.1875,
          "durationTicks": 128,
          "midi": 38,
          "name": "D2",
          "ticks": 286464,
          "time": 419.625,
          "velocity": 0.7165354330708661
        },
        {
          "duration": 0.1875,
          "durationTicks": 128,
          "midi": 38,
          "name": "D2",
          "ticks": 286592,
          "time": 419.8125,
          "velocity": 0.7874015748031497
        },
        {
          "duration": 0.75,
          "durationTicks": 512,
          "midi": 38,
          "name": "D2",
          "ticks": 286720,
          "time": 420,
          "velocity": 0.8031496062992126
        },
        {
          "duration": 0.1875,
          "durationTicks": 128,
          "midi": 38,
          "name": "D2",
          "ticks": 287488,
          "time": 421.125,
          "velocity": 0.7007874015748031
        },
        {
          "duration": 0.1875,
          "durationTicks": 128,
          "midi": 38,
          "name": "D2",
          "ticks": 287616,
          "time": 421.3125,
          "velocity": 0.7165354330708661
        },
        {
          "duration": 0.375,
          "durationTicks": 256,
          "midi": 38,
          "name": "D2",
          "ticks": 287744,
          "time": 421.5,
          "velocity": 0.7559055118110236
        },
        {
          "duration": 0.1875,
          "durationTicks": 128,
          "midi": 38,
          "name": "D2",
          "ticks": 288000,
          "time": 421.875,
          "velocity": 0.7165354330708661
        },
        {
          "duration": 0.1875,
          "durationTicks": 128,
          "midi": 38,
          "name": "D2",
          "ticks": 288128,
          "time": 422.0625,
          "velocity": 0.7480314960629921
        },
        {
          "duration": 0.375,
          "durationTicks": 256,
          "midi": 38,
          "name": "D2",
          "ticks": 288256,
          "time": 422.25,
          "velocity": 0.7559055118110236
        },
        {
          "duration": 0.1875,
          "durationTicks": 128,
          "midi": 38,
          "name": "D2",
          "ticks": 288512,
          "time": 422.625,
          "velocity": 0.7559055118110236
        },
        {
          "duration": 0.1875,
          "durationTicks": 128,
          "midi": 38,
          "name": "D2",
          "ticks": 288640,
          "time": 422.8125,
          "velocity": 0.7637795275590551
        },
        {
          "duration": 0.75,
          "durationTicks": 512,
          "midi": 38,
          "name": "D2",
          "ticks": 288768,
          "time": 423,
          "velocity": 0.7716535433070866
        },
        {
          "duration": 0.375,
          "durationTicks": 256,
          "midi": 31,
          "name": "G1",
          "ticks": 290816,
          "time": 426,
          "velocity": 0.4330708661417323
        },
        {
          "duration": 0.375,
          "durationTicks": 256,
          "midi": 43,
          "name": "G2",
          "ticks": 291840,
          "time": 427.5,
          "velocity": 0.4409448818897638
        },
        {
          "duration": 0.375,
          "durationTicks": 256,
          "midi": 41,
          "name": "F2",
          "ticks": 292864,
          "time": 429,
          "velocity": 0.4645669291338583
        },
        {
          "duration": 0.375,
          "durationTicks": 256,
          "midi": 39,
          "name": "D#2",
          "ticks": 293888,
          "time": 430.5,
          "velocity": 0.3937007874015748
        },
        {
          "duration": 0.375,
          "durationTicks": 256,
          "midi": 38,
          "name": "D2",
          "ticks": 294912,
          "time": 432,
          "velocity": 0.4409448818897638
        },
        {
          "duration": 0.375,
          "durationTicks": 256,
          "midi": 34,
          "name": "A#1",
          "ticks": 295936,
          "time": 433.5,
          "velocity": 0.4330708661417323
        },
        {
          "duration": 0.09375,
          "durationTicks": 64,
          "midi": 39,
          "name": "D#2",
          "ticks": 296960,
          "time": 435,
          "velocity": 0.7086614173228346
        },
        {
          "duration": 0.09375,
          "durationTicks": 64,
          "midi": 43,
          "name": "G2",
          "ticks": 297088,
          "time": 435.1875,
          "velocity": 0.8346456692913385
        },
        {
          "duration": 0.09375,
          "durationTicks": 64,
          "midi": 46,
          "name": "A#2",
          "ticks": 297216,
          "time": 435.375,
          "velocity": 0.7874015748031497
        },
        {
          "duration": 0.09375,
          "durationTicks": 64,
          "midi": 51,
          "name": "D#3",
          "ticks": 297344,
          "time": 435.5625,
          "velocity": 0.8346456692913385
        },
        {
          "duration": 0.09375,
          "durationTicks": 64,
          "midi": 55,
          "name": "G3",
          "ticks": 297472,
          "time": 435.75,
          "velocity": 0.8188976377952756
        },
        {
          "duration": 0.09375,
          "durationTicks": 64,
          "midi": 53,
          "name": "F3",
          "ticks": 297600,
          "time": 435.9375,
          "velocity": 0.7559055118110236
        },
        {
          "duration": 0.09375,
          "durationTicks": 64,
          "midi": 55,
          "name": "G3",
          "ticks": 297728,
          "time": 436.125,
          "velocity": 0.7952755905511811
        },
        {
          "duration": 0.09375,
          "durationTicks": 64,
          "midi": 51,
          "name": "D#3",
          "ticks": 297856,
          "time": 436.3125,
          "velocity": 0.7165354330708661
        },
        {
          "duration": 0.09375,
          "durationTicks": 64,
          "midi": 50,
          "name": "D3",
          "ticks": 297984,
          "time": 436.5,
          "velocity": 0.7480314960629921
        },
        {
          "duration": 0.09375,
          "durationTicks": 64,
          "midi": 51,
          "name": "D#3",
          "ticks": 298112,
          "time": 436.6875,
          "velocity": 0.7874015748031497
        },
        {
          "duration": 0.09375,
          "durationTicks": 64,
          "midi": 53,
          "name": "F3",
          "ticks": 298240,
          "time": 436.875,
          "velocity": 0.7559055118110236
        },
        {
          "duration": 0.09375,
          "durationTicks": 64,
          "midi": 51,
          "name": "D#3",
          "ticks": 298368,
          "time": 437.0625,
          "velocity": 0.7322834645669292
        },
        {
          "duration": 0.09375,
          "durationTicks": 64,
          "midi": 50,
          "name": "D3",
          "ticks": 298496,
          "time": 437.25,
          "velocity": 0.7401574803149606
        },
        {
          "duration": 0.09375,
          "durationTicks": 64,
          "midi": 48,
          "name": "C3",
          "ticks": 298624,
          "time": 437.4375,
          "velocity": 0.7480314960629921
        },
        {
          "duration": 0.09375,
          "durationTicks": 64,
          "midi": 50,
          "name": "D3",
          "ticks": 298752,
          "time": 437.625,
          "velocity": 0.7559055118110236
        },
        {
          "duration": 0.09375,
          "durationTicks": 64,
          "midi": 46,
          "name": "A#2",
          "ticks": 298880,
          "time": 437.8125,
          "velocity": 0.7480314960629921
        },
        {
          "duration": 0.1875,
          "durationTicks": 128,
          "midi": 48,
          "name": "C3",
          "ticks": 299008,
          "time": 438,
          "velocity": 0.7874015748031497
        },
        {
          "duration": 0.1875,
          "durationTicks": 128,
          "midi": 51,
          "name": "D#3",
          "ticks": 299136,
          "time": 438.1875,
          "velocity": 0.8031496062992126
        },
        {
          "duration": 0.1875,
          "durationTicks": 128,
          "midi": 48,
          "name": "C3",
          "ticks": 299264,
          "time": 438.375,
          "velocity": 0.7244094488188977
        },
        {
          "duration": 0.1875,
          "durationTicks": 128,
          "midi": 51,
          "name": "D#3",
          "ticks": 299392,
          "time": 438.5625,
          "velocity": 0.8267716535433071
        },
        {
          "duration": 0.1875,
          "durationTicks": 128,
          "midi": 48,
          "name": "C3",
          "ticks": 299520,
          "time": 438.75,
          "velocity": 0.7401574803149606
        },
        {
          "duration": 0.1875,
          "durationTicks": 128,
          "midi": 51,
          "name": "D#3",
          "ticks": 299648,
          "time": 438.9375,
          "velocity": 0.8188976377952756
        },
        {
          "duration": 0.1875,
          "durationTicks": 128,
          "midi": 48,
          "name": "C3",
          "ticks": 299776,
          "time": 439.125,
          "velocity": 0.7795275590551181
        },
        {
          "duration": 0.1875,
          "durationTicks": 128,
          "midi": 51,
          "name": "D#3",
          "ticks": 299904,
          "time": 439.3125,
          "velocity": 0.8267716535433071
        },
        {
          "duration": 0.1875,
          "durationTicks": 128,
          "midi": 46,
          "name": "A#2",
          "ticks": 300032,
          "time": 439.5,
          "velocity": 0.7007874015748031
        },
        {
          "duration": 0.1875,
          "durationTicks": 128,
          "midi": 51,
          "name": "D#3",
          "ticks": 300160,
          "time": 439.6875,
          "velocity": 0.7637795275590551
        },
        {
          "duration": 0.1875,
          "durationTicks": 128,
          "midi": 46,
          "name": "A#2",
          "ticks": 300288,
          "time": 439.875,
          "velocity": 0.7322834645669292
        },
        {
          "duration": 0.1875,
          "durationTicks": 128,
          "midi": 51,
          "name": "D#3",
          "ticks": 300416,
          "time": 440.0625,
          "velocity": 0.8110236220472441
        },
        {
          "duration": 0.1875,
          "durationTicks": 128,
          "midi": 46,
          "name": "A#2",
          "ticks": 300544,
          "time": 440.25,
          "velocity": 0.6850393700787402
        },
        {
          "duration": 0.1875,
          "durationTicks": 128,
          "midi": 51,
          "name": "D#3",
          "ticks": 300672,
          "time": 440.4375,
          "velocity": 0.7952755905511811
        },
        {
          "duration": 0.1875,
          "durationTicks": 128,
          "midi": 46,
          "name": "A#2",
          "ticks": 300800,
          "time": 440.625,
          "velocity": 0.6929133858267716
        },
        {
          "duration": 0.1875,
          "durationTicks": 128,
          "midi": 51,
          "name": "D#3",
          "ticks": 300928,
          "time": 440.8125,
          "velocity": 0.8031496062992126
        },
        {
          "duration": 0.1875,
          "durationTicks": 128,
          "midi": 44,
          "name": "G#2",
          "ticks": 301056,
          "time": 441,
          "velocity": 0.7244094488188977
        },
        {
          "duration": 0.1875,
          "durationTicks": 128,
          "midi": 48,
          "name": "C3",
          "ticks": 301184,
          "time": 441.1875,
          "velocity": 0.8346456692913385
        },
        {
          "duration": 0.1875,
          "durationTicks": 128,
          "midi": 44,
          "name": "G#2",
          "ticks": 301312,
          "time": 441.375,
          "velocity": 0.7480314960629921
        },
        {
          "duration": 0.1875,
          "durationTicks": 128,
          "midi": 48,
          "name": "C3",
          "ticks": 301440,
          "time": 441.5625,
          "velocity": 0.8188976377952756
        },
        {
          "duration": 0.1875,
          "durationTicks": 128,
          "midi": 44,
          "name": "G#2",
          "ticks": 301568,
          "time": 441.75,
          "velocity": 0.7401574803149606
        },
        {
          "duration": 0.1875,
          "durationTicks": 128,
          "midi": 48,
          "name": "C3",
          "ticks": 301696,
          "time": 441.9375,
          "velocity": 0.7795275590551181
        },
        {
          "duration": 0.1875,
          "durationTicks": 128,
          "midi": 44,
          "name": "G#2",
          "ticks": 301824,
          "time": 442.125,
          "velocity": 0.7007874015748031
        },
        {
          "duration": 0.1875,
          "durationTicks": 128,
          "midi": 48,
          "name": "C3",
          "ticks": 301952,
          "time": 442.3125,
          "velocity": 0.8267716535433071
        },
        {
          "duration": 0.1875,
          "durationTicks": 128,
          "midi": 43,
          "name": "G2",
          "ticks": 302080,
          "time": 442.5,
          "velocity": 0.7165354330708661
        },
        {
          "duration": 0.1875,
          "durationTicks": 128,
          "midi": 46,
          "name": "A#2",
          "ticks": 302208,
          "time": 442.6875,
          "velocity": 0.8031496062992126
        },
        {
          "duration": 0.1875,
          "durationTicks": 128,
          "midi": 43,
          "name": "G2",
          "ticks": 302336,
          "time": 442.875,
          "velocity": 0.7559055118110236
        },
        {
          "duration": 0.1875,
          "durationTicks": 128,
          "midi": 46,
          "name": "A#2",
          "ticks": 302464,
          "time": 443.0625,
          "velocity": 0.8267716535433071
        },
        {
          "duration": 0.1875,
          "durationTicks": 128,
          "midi": 41,
          "name": "F2",
          "ticks": 302592,
          "time": 443.25,
          "velocity": 0.6929133858267716
        },
        {
          "duration": 0.1875,
          "durationTicks": 128,
          "midi": 44,
          "name": "G#2",
          "ticks": 302720,
          "time": 443.4375,
          "velocity": 0.7874015748031497
        },
        {
          "duration": 0.1875,
          "durationTicks": 128,
          "midi": 41,
          "name": "F2",
          "ticks": 302848,
          "time": 443.625,
          "velocity": 0.7637795275590551
        },
        {
          "duration": 0.1875,
          "durationTicks": 128,
          "midi": 44,
          "name": "G#2",
          "ticks": 302976,
          "time": 443.8125,
          "velocity": 0.8267716535433071
        },
        {
          "duration": 0.1875,
          "durationTicks": 128,
          "midi": 40,
          "name": "E2",
          "ticks": 303104,
          "time": 444,
          "velocity": 0.7244094488188977
        },
        {
          "duration": 0.1875,
          "durationTicks": 128,
          "midi": 43,
          "name": "G2",
          "ticks": 303232,
          "time": 444.1875,
          "velocity": 0.7795275590551181
        },
        {
          "duration": 0.1875,
          "durationTicks": 128,
          "midi": 40,
          "name": "E2",
          "ticks": 303360,
          "time": 444.375,
          "velocity": 0.7322834645669292
        },
        {
          "duration": 0.1875,
          "durationTicks": 128,
          "midi": 43,
          "name": "G2",
          "ticks": 303488,
          "time": 444.5625,
          "velocity": 0.7952755905511811
        },
        {
          "duration": 0.1875,
          "durationTicks": 128,
          "midi": 36,
          "name": "C2",
          "ticks": 303616,
          "time": 444.75,
          "velocity": 0.7086614173228346
        },
        {
          "duration": 0.1875,
          "durationTicks": 128,
          "midi": 40,
          "name": "E2",
          "ticks": 303744,
          "time": 444.9375,
          "velocity": 0.84251968503937
        },
        {
          "duration": 0.1875,
          "durationTicks": 128,
          "midi": 36,
          "name": "C2",
          "ticks": 303872,
          "time": 445.125,
          "velocity": 0.7244094488188977
        },
        {
          "duration": 0.1875,
          "durationTicks": 128,
          "midi": 40,
          "name": "E2",
          "ticks": 304000,
          "time": 445.3125,
          "velocity": 0.8188976377952756
        },
        {
          "duration": 1.5,
          "durationTicks": 1024,
          "midi": 41,
          "name": "F2",
          "ticks": 304128,
          "time": 445.5,
          "velocity": 0.8110236220472441
        },
        {
          "duration": 1.125,
          "durationTicks": 768,
          "midi": 48,
          "name": "C3",
          "ticks": 305152,
          "time": 447,
          "velocity": 0.84251968503937
        },
        {
          "duration": 0.1875,
          "durationTicks": 128,
          "midi": 48,
          "name": "C3",
          "ticks": 306048,
          "time": 448.3125,
          "velocity": 0.6850393700787402
        },
        {
          "duration": 0.1875,
          "durationTicks": 128,
          "midi": 46,
          "name": "A#2",
          "ticks": 306176,
          "time": 448.5,
          "velocity": 0.7637795275590551
        },
        {
          "duration": 0.1875,
          "durationTicks": 128,
          "midi": 49,
          "name": "C#3",
          "ticks": 306432,
          "time": 448.875,
          "velocity": 0.7480314960629921
        },
        {
          "duration": 0.1875,
          "durationTicks": 128,
          "midi": 55,
          "name": "G3",
          "ticks": 306688,
          "time": 449.25,
          "velocity": 0.8582677165354331
        },
        {
          "duration": 0.1875,
          "durationTicks": 128,
          "midi": 44,
          "name": "G#2",
          "ticks": 307200,
          "time": 450,
          "velocity": 0.6850393700787402
        },
        {
          "duration": 0.1875,
          "durationTicks": 128,
          "midi": 48,
          "name": "C3",
          "ticks": 307456,
          "time": 450.375,
          "velocity": 0.7874015748031497
        },
        {
          "duration": 0.1875,
          "durationTicks": 128,
          "midi": 53,
          "name": "F3",
          "ticks": 307712,
          "time": 450.75,
          "velocity": 0.7874015748031497
        },
        {
          "duration": 0.1875,
          "durationTicks": 128,
          "midi": 44,
          "name": "G#2",
          "ticks": 308096,
          "time": 451.3125,
          "velocity": 0.6929133858267716
        },
        {
          "duration": 0.1875,
          "durationTicks": 128,
          "midi": 43,
          "name": "G2",
          "ticks": 308224,
          "time": 451.5,
          "velocity": 0.7401574803149606
        },
        {
          "duration": 0.1875,
          "durationTicks": 128,
          "midi": 46,
          "name": "A#2",
          "ticks": 308480,
          "time": 451.875,
          "velocity": 0.7874015748031497
        },
        {
          "duration": 0.1875,
          "durationTicks": 128,
          "midi": 52,
          "name": "E3",
          "ticks": 308736,
          "time": 452.25,
          "velocity": 0.8267716535433071
        },
        {
          "duration": 0.1875,
          "durationTicks": 128,
          "midi": 43,
          "name": "G2",
          "ticks": 309120,
          "time": 452.8125,
          "velocity": 0.7086614173228346
        },
        {
          "duration": 0.1875,
          "durationTicks": 128,
          "midi": 41,
          "name": "F2",
          "ticks": 309248,
          "time": 453,
          "velocity": 0.7322834645669292
        },
        {
          "duration": 0.1875,
          "durationTicks": 128,
          "midi": 44,
          "name": "G#2",
          "ticks": 309504,
          "time": 453.375,
          "velocity": 0.7795275590551181
        },
        {
          "duration": 0.1875,
          "durationTicks": 128,
          "midi": 48,
          "name": "C3",
          "ticks": 309760,
          "time": 453.75,
          "velocity": 0.8346456692913385
        },
        {
          "duration": 0.1875,
          "durationTicks": 128,
          "midi": 29,
          "name": "F1",
          "ticks": 310144,
          "time": 454.3125,
          "velocity": 0.7165354330708661
        },
        {
          "duration": 0.1875,
          "durationTicks": 128,
          "midi": 34,
          "name": "A#1",
          "ticks": 310272,
          "time": 454.5,
          "velocity": 0.8031496062992126
        },
        {
          "duration": 0.1875,
          "durationTicks": 128,
          "midi": 38,
          "name": "D2",
          "ticks": 310528,
          "time": 454.875,
          "velocity": 0.8346456692913385
        },
        {
          "duration": 0.1875,
          "durationTicks": 128,
          "midi": 41,
          "name": "F2",
          "ticks": 310784,
          "time": 455.25,
          "velocity": 0.8188976377952756
        },
        {
          "duration": 0.1875,
          "durationTicks": 128,
          "midi": 34,
          "name": "A#1",
          "ticks": 311168,
          "time": 455.8125,
          "velocity": 0.6692913385826772
        },
        {
          "duration": 0.1875,
          "durationTicks": 128,
          "midi": 39,
          "name": "D#2",
          "ticks": 311296,
          "time": 456,
          "velocity": 0.7874015748031497
        },
        {
          "duration": 0.1875,
          "durationTicks": 128,
          "midi": 43,
          "name": "G2",
          "ticks": 311552,
          "time": 456.375,
          "velocity": 0.8031496062992126
        },
        {
          "duration": 0.1875,
          "durationTicks": 128,
          "midi": 46,
          "name": "A#2",
          "ticks": 311808,
          "time": 456.75,
          "velocity": 0.8110236220472441
        },
        {
          "duration": 0.1875,
          "durationTicks": 128,
          "midi": 27,
          "name": "D#1",
          "ticks": 312192,
          "time": 457.3125,
          "velocity": 0.7086614173228346
        },
        {
          "duration": 0.375,
          "durationTicks": 256,
          "midi": 32,
          "name": "G#1",
          "ticks": 312320,
          "time": 457.5,
          "velocity": 0.7952755905511811
        },
        {
          "duration": 0.375,
          "durationTicks": 256,
          "midi": 36,
          "name": "C2",
          "ticks": 312576,
          "time": 457.875,
          "velocity": 0.84251968503937
        },
        {
          "duration": 0.375,
          "durationTicks": 256,
          "midi": 39,
          "name": "D#2",
          "ticks": 312832,
          "time": 458.25,
          "velocity": 0.8188976377952756
        },
        {
          "duration": 0.1875,
          "durationTicks": 128,
          "midi": 32,
          "name": "G#1",
          "ticks": 313216,
          "time": 458.8125,
          "velocity": 0.7007874015748031
        },
        {
          "duration": 0.375,
          "durationTicks": 256,
          "midi": 38,
          "name": "D2",
          "ticks": 313344,
          "time": 459,
          "velocity": 0.8582677165354331
        },
        {
          "duration": 0.375,
          "durationTicks": 256,
          "midi": 41,
          "name": "F2",
          "ticks": 313600,
          "time": 459.375,
          "velocity": 0.8346456692913385
        },
        {
          "duration": 0.375,
          "durationTicks": 256,
          "midi": 45,
          "name": "A2",
          "ticks": 313856,
          "time": 459.75,
          "velocity": 0.8188976377952756
        },
        {
          "duration": 0.1875,
          "durationTicks": 128,
          "midi": 38,
          "name": "D2",
          "ticks": 314240,
          "time": 460.3125,
          "velocity": 0.6929133858267716
        },
        {
          "duration": 0.375,
          "durationTicks": 256,
          "midi": 43,
          "name": "G2",
          "ticks": 314368,
          "time": 460.5,
          "velocity": 0.7952755905511811
        },
        {
          "duration": 0.375,
          "durationTicks": 256,
          "midi": 47,
          "name": "B2",
          "ticks": 314624,
          "time": 460.875,
          "velocity": 0.8188976377952756
        },
        {
          "duration": 0.375,
          "durationTicks": 256,
          "midi": 50,
          "name": "D3",
          "ticks": 314880,
          "time": 461.25,
          "velocity": 0.84251968503937
        },
        {
          "duration": 0.1875,
          "durationTicks": 128,
          "midi": 31,
          "name": "G1",
          "ticks": 315264,
          "time": 461.8125,
          "velocity": 0.7007874015748031
        },
        {
          "duration": 0.375,
          "durationTicks": 256,
          "midi": 36,
          "name": "C2",
          "ticks": 315392,
          "time": 462,
          "velocity": 0.7874015748031497
        },
        {
          "duration": 0.375,
          "durationTicks": 256,
          "midi": 39,
          "name": "D#2",
          "ticks": 315648,
          "time": 462.375,
          "velocity": 0.8267716535433071
        },
        {
          "duration": 0.375,
          "durationTicks": 256,
          "midi": 43,
          "name": "G2",
          "ticks": 315904,
          "time": 462.75,
          "velocity": 0.8188976377952756
        },
        {
          "duration": 0.1875,
          "durationTicks": 128,
          "midi": 36,
          "name": "C2",
          "ticks": 316288,
          "time": 463.3125,
          "velocity": 0.6929133858267716
        },
        {
          "duration": 0.375,
          "durationTicks": 256,
          "midi": 38,
          "name": "D2",
          "ticks": 316416,
          "time": 463.5,
          "velocity": 0.7952755905511811
        },
        {
          "duration": 0.375,
          "durationTicks": 256,
          "midi": 42,
          "name": "F#2",
          "ticks": 316672,
          "time": 463.875,
          "velocity": 0.8267716535433071
        },
        {
          "duration": 0.375,
          "durationTicks": 256,
          "midi": 45,
          "name": "A2",
          "ticks": 316928,
          "time": 464.25,
          "velocity": 0.8346456692913385
        },
        {
          "duration": 0.1875,
          "durationTicks": 128,
          "midi": 43,
          "name": "G2",
          "ticks": 317440,
          "time": 465,
          "velocity": 0.6850393700787402
        },
        {
          "duration": 0.1875,
          "durationTicks": 128,
          "midi": 46,
          "name": "A#2",
          "ticks": 317568,
          "time": 465.1875,
          "velocity": 0.7874015748031497
        },
        {
          "duration": 0.1875,
          "durationTicks": 128,
          "midi": 43,
          "name": "G2",
          "ticks": 317696,
          "time": 465.375,
          "velocity": 0.7322834645669292
        },
        {
          "duration": 0.1875,
          "durationTicks": 128,
          "midi": 46,
          "name": "A#2",
          "ticks": 317824,
          "time": 465.5625,
          "velocity": 0.8031496062992126
        },
        {
          "duration": 0.1875,
          "durationTicks": 128,
          "midi": 43,
          "name": "G2",
          "ticks": 317952,
          "time": 465.75,
          "velocity": 0.7401574803149606
        },
        {
          "duration": 0.1875,
          "durationTicks": 128,
          "midi": 46,
          "name": "A#2",
          "ticks": 318080,
          "time": 465.9375,
          "velocity": 0.7952755905511811
        },
        {
          "duration": 0.1875,
          "durationTicks": 128,
          "midi": 43,
          "name": "G2",
          "ticks": 318208,
          "time": 466.125,
          "velocity": 0.7637795275590551
        },
        {
          "duration": 0.1875,
          "durationTicks": 128,
          "midi": 46,
          "name": "A#2",
          "ticks": 318336,
          "time": 466.3125,
          "velocity": 0.8110236220472441
        },
        {
          "duration": 0.1875,
          "durationTicks": 128,
          "midi": 41,
          "name": "F2",
          "ticks": 318464,
          "time": 466.5,
          "velocity": 0.7637795275590551
        },
        {
          "duration": 0.1875,
          "durationTicks": 128,
          "midi": 45,
          "name": "A2",
          "ticks": 318592,
          "time": 466.6875,
          "velocity": 0.7795275590551181
        },
        {
          "duration": 0.1875,
          "durationTicks": 128,
          "midi": 41,
          "name": "F2",
          "ticks": 318720,
          "time": 466.875,
          "velocity": 0.7716535433070866
        },
        {
          "duration": 0.1875,
          "durationTicks": 128,
          "midi": 45,
          "name": "A2",
          "ticks": 318848,
          "time": 467.0625,
          "velocity": 0.7874015748031497
        },
        {
          "duration": 0.1875,
          "durationTicks": 128,
          "midi": 41,
          "name": "F2",
          "ticks": 318976,
          "time": 467.25,
          "velocity": 0.6929133858267716
        },
        {
          "duration": 0.1875,
          "durationTicks": 128,
          "midi": 45,
          "name": "A2",
          "ticks": 319104,
          "time": 467.4375,
          "velocity": 0.84251968503937
        },
        {
          "duration": 0.1875,
          "durationTicks": 128,
          "midi": 41,
          "name": "F2",
          "ticks": 319232,
          "time": 467.625,
          "velocity": 0.7637795275590551
        },
        {
          "duration": 0.1875,
          "durationTicks": 128,
          "midi": 45,
          "name": "A2",
          "ticks": 319360,
          "time": 467.8125,
          "velocity": 0.7874015748031497
        },
        {
          "duration": 0.1875,
          "durationTicks": 128,
          "midi": 39,
          "name": "D#2",
          "ticks": 319488,
          "time": 468,
          "velocity": 0.7322834645669292
        },
        {
          "duration": 0.1875,
          "durationTicks": 128,
          "midi": 43,
          "name": "G2",
          "ticks": 319616,
          "time": 468.1875,
          "velocity": 0.7952755905511811
        },
        {
          "duration": 0.1875,
          "durationTicks": 128,
          "midi": 39,
          "name": "D#2",
          "ticks": 319744,
          "time": 468.375,
          "velocity": 0.7480314960629921
        },
        {
          "duration": 0.1875,
          "durationTicks": 128,
          "midi": 43,
          "name": "G2",
          "ticks": 319872,
          "time": 468.5625,
          "velocity": 0.8031496062992126
        },
        {
          "duration": 0.1875,
          "durationTicks": 128,
          "midi": 39,
          "name": "D#2",
          "ticks": 320000,
          "time": 468.75,
          "velocity": 0.7007874015748031
        },
        {
          "duration": 0.1875,
          "durationTicks": 128,
          "midi": 43,
          "name": "G2",
          "ticks": 320128,
          "time": 468.9375,
          "velocity": 0.8110236220472441
        },
        {
          "duration": 0.1875,
          "durationTicks": 128,
          "midi": 39,
          "name": "D#2",
          "ticks": 320256,
          "time": 469.125,
          "velocity": 0.7165354330708661
        },
        {
          "duration": 0.1875,
          "durationTicks": 128,
          "midi": 43,
          "name": "G2",
          "ticks": 320384,
          "time": 469.3125,
          "velocity": 0.7952755905511811
        },
        {
          "duration": 0.1875,
          "durationTicks": 128,
          "midi": 38,
          "name": "D2",
          "ticks": 320512,
          "time": 469.5,
          "velocity": 0.7165354330708661
        },
        {
          "duration": 0.1875,
          "durationTicks": 128,
          "midi": 43,
          "name": "G2",
          "ticks": 320640,
          "time": 469.6875,
          "velocity": 0.8267716535433071
        },
        {
          "duration": 0.1875,
          "durationTicks": 128,
          "midi": 38,
          "name": "D2",
          "ticks": 320768,
          "time": 469.875,
          "velocity": 0.7401574803149606
        },
        {
          "duration": 0.1875,
          "durationTicks": 128,
          "midi": 43,
          "name": "G2",
          "ticks": 320896,
          "time": 470.0625,
          "velocity": 0.7952755905511811
        },
        {
          "duration": 0.1875,
          "durationTicks": 128,
          "midi": 38,
          "name": "D2",
          "ticks": 321024,
          "time": 470.25,
          "velocity": 0.7007874015748031
        },
        {
          "duration": 0.1875,
          "durationTicks": 128,
          "midi": 43,
          "name": "G2",
          "ticks": 321152,
          "time": 470.4375,
          "velocity": 0.8346456692913385
        },
        {
          "duration": 0.1875,
          "durationTicks": 128,
          "midi": 38,
          "name": "D2",
          "ticks": 321280,
          "time": 470.625,
          "velocity": 0.7401574803149606
        },
        {
          "duration": 0.1875,
          "durationTicks": 128,
          "midi": 43,
          "name": "G2",
          "ticks": 321408,
          "time": 470.8125,
          "velocity": 0.84251968503937
        },
        {
          "duration": 0.1875,
          "durationTicks": 128,
          "midi": 36,
          "name": "C2",
          "ticks": 321536,
          "time": 471,
          "velocity": 0.7401574803149606
        },
        {
          "duration": 0.1875,
          "durationTicks": 128,
          "midi": 39,
          "name": "D#2",
          "ticks": 321664,
          "time": 471.1875,
          "velocity": 0.7637795275590551
        },
        {
          "duration": 0.1875,
          "durationTicks": 128,
          "midi": 36,
          "name": "C2",
          "ticks": 321792,
          "time": 471.375,
          "velocity": 0.7401574803149606
        },
        {
          "duration": 0.1875,
          "durationTicks": 128,
          "midi": 39,
          "name": "D#2",
          "ticks": 321920,
          "time": 471.5625,
          "velocity": 0.7952755905511811
        },
        {
          "duration": 0.1875,
          "durationTicks": 128,
          "midi": 36,
          "name": "C2",
          "ticks": 322048,
          "time": 471.75,
          "velocity": 0.7244094488188977
        },
        {
          "duration": 0.1875,
          "durationTicks": 128,
          "midi": 39,
          "name": "D#2",
          "ticks": 322176,
          "time": 471.9375,
          "velocity": 0.8267716535433071
        },
        {
          "duration": 0.1875,
          "durationTicks": 128,
          "midi": 36,
          "name": "C2",
          "ticks": 322304,
          "time": 472.125,
          "velocity": 0.7480314960629921
        },
        {
          "duration": 0.1875,
          "durationTicks": 128,
          "midi": 39,
          "name": "D#2",
          "ticks": 322432,
          "time": 472.3125,
          "velocity": 0.8031496062992126
        },
        {
          "duration": 0.1875,
          "durationTicks": 128,
          "midi": 34,
          "name": "A#1",
          "ticks": 322560,
          "time": 472.5,
          "velocity": 0.7322834645669292
        },
        {
          "duration": 0.1875,
          "durationTicks": 128,
          "midi": 38,
          "name": "D2",
          "ticks": 322688,
          "time": 472.6875,
          "velocity": 0.7952755905511811
        },
        {
          "duration": 0.1875,
          "durationTicks": 128,
          "midi": 34,
          "name": "A#1",
          "ticks": 322816,
          "time": 472.875,
          "velocity": 0.7165354330708661
        },
        {
          "duration": 0.1875,
          "durationTicks": 128,
          "midi": 38,
          "name": "D2",
          "ticks": 322944,
          "time": 473.0625,
          "velocity": 0.7874015748031497
        },
        {
          "duration": 0.1875,
          "durationTicks": 128,
          "midi": 34,
          "name": "A#1",
          "ticks": 323072,
          "time": 473.25,
          "velocity": 0.7480314960629921
        },
        {
          "duration": 0.1875,
          "durationTicks": 128,
          "midi": 38,
          "name": "D2",
          "ticks": 323200,
          "time": 473.4375,
          "velocity": 0.8188976377952756
        },
        {
          "duration": 0.1875,
          "durationTicks": 128,
          "midi": 34,
          "name": "A#1",
          "ticks": 323328,
          "time": 473.625,
          "velocity": 0.7165354330708661
        },
        {
          "duration": 0.1875,
          "durationTicks": 128,
          "midi": 38,
          "name": "D2",
          "ticks": 323456,
          "time": 473.8125,
          "velocity": 0.8188976377952756
        },
        {
          "duration": 1.5,
          "durationTicks": 1024,
          "midi": 33,
          "name": "A1",
          "ticks": 323584,
          "time": 474,
          "velocity": 0.7165354330708661
        },
        {
          "duration": 0.75,
          "durationTicks": 512,
          "midi": 33,
          "name": "A1",
          "ticks": 324608,
          "time": 475.5,
          "velocity": 0.7244094488188977
        },
        {
          "duration": 0.75,
          "durationTicks": 512,
          "midi": 34,
          "name": "A#1",
          "ticks": 325120,
          "time": 476.25,
          "velocity": 0.8031496062992126
        },
        {
          "duration": 0.75,
          "durationTicks": 512,
          "midi": 33,
          "name": "A1",
          "ticks": 325632,
          "time": 477,
          "velocity": 0.7637795275590551
        },
        {
          "duration": 0.75,
          "durationTicks": 512,
          "midi": 34,
          "name": "A#1",
          "ticks": 326144,
          "time": 477.75,
          "velocity": 0.8031496062992126
        },
        {
          "duration": 0.75,
          "durationTicks": 512,
          "midi": 33,
          "name": "A1",
          "ticks": 326656,
          "time": 478.5,
          "velocity": 0.7244094488188977
        },
        {
          "duration": 0.1875,
          "durationTicks": 128,
          "midi": 33,
          "name": "A1",
          "ticks": 327552,
          "time": 479.8125,
          "velocity": 0.7401574803149606
        },
        {
          "duration": 0.1875,
          "durationTicks": 128,
          "midi": 38,
          "name": "D2",
          "ticks": 327680,
          "time": 480,
          "velocity": 0.8188976377952756
        },
        {
          "duration": 0.1875,
          "durationTicks": 128,
          "midi": 50,
          "name": "D3",
          "ticks": 327808,
          "time": 480.1875,
          "velocity": 0.8818897637795275
        },
        {
          "duration": 0.1875,
          "durationTicks": 128,
          "midi": 50,
          "name": "D3",
          "ticks": 327936,
          "time": 480.375,
          "velocity": 0.7559055118110236
        },
        {
          "duration": 0.1875,
          "durationTicks": 128,
          "midi": 50,
          "name": "D3",
          "ticks": 328064,
          "time": 480.5625,
          "velocity": 0.7480314960629921
        },
        {
          "duration": 0.1875,
          "durationTicks": 128,
          "midi": 50,
          "name": "D3",
          "ticks": 328192,
          "time": 480.75,
          "velocity": 0.7559055118110236
        },
        {
          "duration": 0.1875,
          "durationTicks": 128,
          "midi": 50,
          "name": "D3",
          "ticks": 328320,
          "time": 480.9375,
          "velocity": 0.7637795275590551
        },
        {
          "duration": 0.1875,
          "durationTicks": 128,
          "midi": 50,
          "name": "D3",
          "ticks": 328448,
          "time": 481.125,
          "velocity": 0.7874015748031497
        },
        {
          "duration": 0.1875,
          "durationTicks": 128,
          "midi": 50,
          "name": "D3",
          "ticks": 328576,
          "time": 481.3125,
          "velocity": 0.7952755905511811
        },
        {
          "duration": 0.1875,
          "durationTicks": 128,
          "midi": 50,
          "name": "D3",
          "ticks": 328704,
          "time": 481.5,
          "velocity": 0.7874015748031497
        },
        {
          "duration": 0.1875,
          "durationTicks": 128,
          "midi": 50,
          "name": "D3",
          "ticks": 328832,
          "time": 481.6875,
          "velocity": 0.7952755905511811
        },
        {
          "duration": 0.1875,
          "durationTicks": 128,
          "midi": 50,
          "name": "D3",
          "ticks": 328960,
          "time": 481.875,
          "velocity": 0.7559055118110236
        },
        {
          "duration": 0.1875,
          "durationTicks": 128,
          "midi": 50,
          "name": "D3",
          "ticks": 329088,
          "time": 482.0625,
          "velocity": 0.7874015748031497
        },
        {
          "duration": 0.1875,
          "durationTicks": 128,
          "midi": 50,
          "name": "D3",
          "ticks": 329216,
          "time": 482.25,
          "velocity": 0.7716535433070866
        },
        {
          "duration": 0.1875,
          "durationTicks": 128,
          "midi": 50,
          "name": "D3",
          "ticks": 329344,
          "time": 482.4375,
          "velocity": 0.7795275590551181
        },
        {
          "duration": 0.1875,
          "durationTicks": 128,
          "midi": 50,
          "name": "D3",
          "ticks": 329472,
          "time": 482.625,
          "velocity": 0.7874015748031497
        },
        {
          "duration": 0.1875,
          "durationTicks": 128,
          "midi": 50,
          "name": "D3",
          "ticks": 329600,
          "time": 482.8125,
          "velocity": 0.7716535433070866
        },
        {
          "duration": 0.1875,
          "durationTicks": 128,
          "midi": 50,
          "name": "D3",
          "ticks": 329728,
          "time": 483,
          "velocity": 0.7716535433070866
        },
        {
          "duration": 0.1875,
          "durationTicks": 128,
          "midi": 50,
          "name": "D3",
          "ticks": 329856,
          "time": 483.1875,
          "velocity": 0.7795275590551181
        },
        {
          "duration": 0.1875,
          "durationTicks": 128,
          "midi": 50,
          "name": "D3",
          "ticks": 329984,
          "time": 483.375,
          "velocity": 0.7637795275590551
        },
        {
          "duration": 0.1875,
          "durationTicks": 128,
          "midi": 50,
          "name": "D3",
          "ticks": 330112,
          "time": 483.5625,
          "velocity": 0.7716535433070866
        },
        {
          "duration": 0.1875,
          "durationTicks": 128,
          "midi": 50,
          "name": "D3",
          "ticks": 330240,
          "time": 483.75,
          "velocity": 0.7559055118110236
        },
        {
          "duration": 0.1875,
          "durationTicks": 128,
          "midi": 50,
          "name": "D3",
          "ticks": 330368,
          "time": 483.9375,
          "velocity": 0.7795275590551181
        },
        {
          "duration": 0.1875,
          "durationTicks": 128,
          "midi": 50,
          "name": "D3",
          "ticks": 330496,
          "time": 484.125,
          "velocity": 0.8031496062992126
        },
        {
          "duration": 0.1875,
          "durationTicks": 128,
          "midi": 50,
          "name": "D3",
          "ticks": 330624,
          "time": 484.3125,
          "velocity": 0.7952755905511811
        },
        {
          "duration": 0.1875,
          "durationTicks": 128,
          "midi": 50,
          "name": "D3",
          "ticks": 330752,
          "time": 484.5,
          "velocity": 0.7952755905511811
        },
        {
          "duration": 0.1875,
          "durationTicks": 128,
          "midi": 50,
          "name": "D3",
          "ticks": 330880,
          "time": 484.6875,
          "velocity": 0.7559055118110236
        },
        {
          "duration": 0.1875,
          "durationTicks": 128,
          "midi": 50,
          "name": "D3",
          "ticks": 331008,
          "time": 484.875,
          "velocity": 0.7637795275590551
        },
        {
          "duration": 0.1875,
          "durationTicks": 128,
          "midi": 50,
          "name": "D3",
          "ticks": 331136,
          "time": 485.0625,
          "velocity": 0.7952755905511811
        },
        {
          "duration": 0.1875,
          "durationTicks": 128,
          "midi": 50,
          "name": "D3",
          "ticks": 331264,
          "time": 485.25,
          "velocity": 0.7637795275590551
        },
        {
          "duration": 0.1875,
          "durationTicks": 128,
          "midi": 50,
          "name": "D3",
          "ticks": 331392,
          "time": 485.4375,
          "velocity": 0.7480314960629921
        },
        {
          "duration": 0.1875,
          "durationTicks": 128,
          "midi": 50,
          "name": "D3",
          "ticks": 331520,
          "time": 485.625,
          "velocity": 0.7559055118110236
        },
        {
          "duration": 0.1875,
          "durationTicks": 128,
          "midi": 50,
          "name": "D3",
          "ticks": 331648,
          "time": 485.8125,
          "velocity": 0.7952755905511811
        },
        {
          "duration": 0.375,
          "durationTicks": 256,
          "midi": 50,
          "name": "D3",
          "ticks": 331776,
          "time": 486,
          "velocity": 0.8267716535433071
        },
        {
          "duration": 0.375,
          "durationTicks": 256,
          "midi": 38,
          "name": "D2",
          "ticks": 332288,
          "time": 486.75,
          "velocity": 0.7007874015748031
        },
        {
          "duration": 1.14697265625,
          "durationTicks": 783,
          "midi": 46,
          "name": "A#2",
          "ticks": 333824,
          "time": 489,
          "velocity": 0.4409448818897638
        },
        {
          "duration": 0.38232421875,
          "durationTicks": 261,
          "midi": 45,
          "name": "A2",
          "ticks": 334592,
          "time": 490.125,
          "velocity": 0.41732283464566927
        },
        {
          "duration": 0.35595703125,
          "durationTicks": 243,
          "midi": 38,
          "name": "D2",
          "ticks": 334848,
          "time": 490.5,
          "velocity": 0.4566929133858268
        },
        {
          "duration": 0.375,
          "durationTicks": 256,
          "midi": 41,
          "name": "F2",
          "ticks": 336128,
          "time": 492.375,
          "velocity": 0.4251968503937008
        },
        {
          "duration": 0.375,
          "durationTicks": 256,
          "midi": 40,
          "name": "E2",
          "ticks": 336384,
          "time": 492.75,
          "velocity": 0.4645669291338583
        },
        {
          "duration": 0.375,
          "durationTicks": 256,
          "midi": 39,
          "name": "D#2",
          "ticks": 336640,
          "time": 493.125,
          "velocity": 0.4409448818897638
        },
        {
          "duration": 0.75,
          "durationTicks": 512,
          "midi": 38,
          "name": "D2",
          "ticks": 336896,
          "time": 493.5,
          "velocity": 0.4881889763779528
        },
        {
          "duration": 1.14697265625,
          "durationTicks": 783,
          "midi": 36,
          "name": "C2",
          "ticks": 337920,
          "time": 495,
          "velocity": 0.4330708661417323
        },
        {
          "duration": 0.38232421875,
          "durationTicks": 261,
          "midi": 34,
          "name": "A#1",
          "ticks": 338688,
          "time": 496.125,
          "velocity": 0.36220472440944884
        },
        {
          "duration": 0.38232421875,
          "durationTicks": 261,
          "midi": 33,
          "name": "A1",
          "ticks": 338944,
          "time": 496.5,
          "velocity": 0.4645669291338583
        },
        {
          "duration": 0.38232421875,
          "durationTicks": 261,
          "midi": 38,
          "name": "D2",
          "ticks": 339200,
          "time": 496.875,
          "velocity": 0.5039370078740157
        },
        {
          "duration": 0.38232421875,
          "durationTicks": 261,
          "midi": 31,
          "name": "G1",
          "ticks": 339456,
          "time": 497.25,
          "velocity": 0.41732283464566927
        },
        {
          "duration": 0.35595703125,
          "durationTicks": 243,
          "midi": 39,
          "name": "D#2",
          "ticks": 339712,
          "time": 497.625,
          "velocity": 0.4645669291338583
        },
        {
          "duration": 0.375,
          "durationTicks": 256,
          "midi": 36,
          "name": "C2",
          "ticks": 339968,
          "time": 498,
          "velocity": 0.5118110236220472
        },
        {
          "duration": 0.375,
          "durationTicks": 256,
          "midi": 38,
          "name": "D2",
          "ticks": 340480,
          "time": 498.75,
          "velocity": 0.41732283464566927
        },
        {
          "duration": 0.375,
          "durationTicks": 256,
          "midi": 31,
          "name": "G1",
          "ticks": 340992,
          "time": 499.5,
          "velocity": 0.4251968503937008
        },
        {
          "duration": 1.14697265625,
          "durationTicks": 783,
          "midi": 48,
          "name": "C3",
          "ticks": 346112,
          "time": 507,
          "velocity": 0.4566929133858268
        },
        {
          "duration": 0.38232421875,
          "durationTicks": 261,
          "midi": 46,
          "name": "A#2",
          "ticks": 346880,
          "time": 508.125,
          "velocity": 0.4330708661417323
        },
        {
          "duration": 0.38232421875,
          "durationTicks": 261,
          "midi": 45,
          "name": "A2",
          "ticks": 347136,
          "time": 508.5,
          "velocity": 0.47244094488188976
        },
        {
          "duration": 0.38232421875,
          "durationTicks": 261,
          "midi": 38,
          "name": "D2",
          "ticks": 347392,
          "time": 508.875,
          "velocity": 0.4566929133858268
        },
        {
          "duration": 0.38232421875,
          "durationTicks": 261,
          "midi": 43,
          "name": "G2",
          "ticks": 347648,
          "time": 509.25,
          "velocity": 0.5118110236220472
        },
        {
          "duration": 0.35595703125,
          "durationTicks": 243,
          "midi": 39,
          "name": "D#2",
          "ticks": 347904,
          "time": 509.625,
          "velocity": 0.5275590551181102
        },
        {
          "duration": 1.5,
          "durationTicks": 1024,
          "midi": 34,
          "name": "A#1",
          "ticks": 348160,
          "time": 510,
          "velocity": 0.4330708661417323
        },
        {
          "duration": 1.5,
          "durationTicks": 1024,
          "midi": 34,
          "name": "A#1",
          "ticks": 349184,
          "time": 511.5,
          "velocity": 0.4645669291338583
        },
        {
          "duration": 1.5,
          "durationTicks": 1024,
          "midi": 34,
          "name": "A#1",
          "ticks": 350208,
          "time": 513,
          "velocity": 0.4881889763779528
        },
        {
          "duration": 1.5,
          "durationTicks": 1024,
          "midi": 34,
          "name": "A#1",
          "ticks": 351232,
          "time": 514.5,
          "velocity": 0.48031496062992124
        },
        {
          "duration": 0.1875,
          "durationTicks": 128,
          "midi": 34,
          "name": "A#1",
          "ticks": 352256,
          "time": 516,
          "velocity": 0.4566929133858268
        },
        {
          "duration": 0.1875,
          "durationTicks": 128,
          "midi": 46,
          "name": "A#2",
          "ticks": 352384,
          "time": 516.1875,
          "velocity": 0.5590551181102362
        },
        {
          "duration": 0.1875,
          "durationTicks": 128,
          "midi": 46,
          "name": "A#2",
          "ticks": 352512,
          "time": 516.375,
          "velocity": 0.5354330708661418
        },
        {
          "duration": 0.1875,
          "durationTicks": 128,
          "midi": 46,
          "name": "A#2",
          "ticks": 352640,
          "time": 516.5625,
          "velocity": 0.49606299212598426
        },
        {
          "duration": 0.1875,
          "durationTicks": 128,
          "midi": 46,
          "name": "A#2",
          "ticks": 352768,
          "time": 516.75,
          "velocity": 0.5196850393700787
        },
        {
          "duration": 0.1875,
          "durationTicks": 128,
          "midi": 46,
          "name": "A#2",
          "ticks": 352896,
          "time": 516.9375,
          "velocity": 0.5118110236220472
        },
        {
          "duration": 0.1875,
          "durationTicks": 128,
          "midi": 46,
          "name": "A#2",
          "ticks": 353024,
          "time": 517.125,
          "velocity": 0.5511811023622047
        },
        {
          "duration": 0.1875,
          "durationTicks": 128,
          "midi": 46,
          "name": "A#2",
          "ticks": 353152,
          "time": 517.3125,
          "velocity": 0.5511811023622047
        },
        {
          "duration": 0.1875,
          "durationTicks": 128,
          "midi": 47,
          "name": "B2",
          "ticks": 353280,
          "time": 517.5,
          "velocity": 0.5433070866141733
        },
        {
          "duration": 0.1875,
          "durationTicks": 128,
          "midi": 47,
          "name": "B2",
          "ticks": 353408,
          "time": 517.6875,
          "velocity": 0.5511811023622047
        },
        {
          "duration": 0.1875,
          "durationTicks": 128,
          "midi": 47,
          "name": "B2",
          "ticks": 353536,
          "time": 517.875,
          "velocity": 0.5748031496062992
        },
        {
          "duration": 0.1875,
          "durationTicks": 128,
          "midi": 47,
          "name": "B2",
          "ticks": 353664,
          "time": 518.0625,
          "velocity": 0.5748031496062992
        },
        {
          "duration": 0.1875,
          "durationTicks": 128,
          "midi": 47,
          "name": "B2",
          "ticks": 353792,
          "time": 518.25,
          "velocity": 0.5511811023622047
        },
        {
          "duration": 0.1875,
          "durationTicks": 128,
          "midi": 47,
          "name": "B2",
          "ticks": 353920,
          "time": 518.4375,
          "velocity": 0.5984251968503937
        },
        {
          "duration": 0.1875,
          "durationTicks": 128,
          "midi": 47,
          "name": "B2",
          "ticks": 354048,
          "time": 518.625,
          "velocity": 0.5669291338582677
        },
        {
          "duration": 0.1875,
          "durationTicks": 128,
          "midi": 47,
          "name": "B2",
          "ticks": 354176,
          "time": 518.8125,
          "velocity": 0.5590551181102362
        },
        {
          "duration": 0.1875,
          "durationTicks": 128,
          "midi": 48,
          "name": "C3",
          "ticks": 354304,
          "time": 519,
          "velocity": 0.7952755905511811
        },
        {
          "duration": 0.1875,
          "durationTicks": 128,
          "midi": 48,
          "name": "C3",
          "ticks": 354432,
          "time": 519.1875,
          "velocity": 0.7086614173228346
        },
        {
          "duration": 0.1875,
          "durationTicks": 128,
          "midi": 48,
          "name": "C3",
          "ticks": 354560,
          "time": 519.375,
          "velocity": 0.7480314960629921
        },
        {
          "duration": 0.1875,
          "durationTicks": 128,
          "midi": 48,
          "name": "C3",
          "ticks": 354688,
          "time": 519.5625,
          "velocity": 0.8188976377952756
        },
        {
          "duration": 0.1875,
          "durationTicks": 128,
          "midi": 48,
          "name": "C3",
          "ticks": 354816,
          "time": 519.75,
          "velocity": 0.7480314960629921
        },
        {
          "duration": 0.1875,
          "durationTicks": 128,
          "midi": 48,
          "name": "C3",
          "ticks": 354944,
          "time": 519.9375,
          "velocity": 0.7559055118110236
        },
        {
          "duration": 0.1875,
          "durationTicks": 128,
          "midi": 48,
          "name": "C3",
          "ticks": 355072,
          "time": 520.125,
          "velocity": 0.7244094488188977
        },
        {
          "duration": 0.1875,
          "durationTicks": 128,
          "midi": 48,
          "name": "C3",
          "ticks": 355200,
          "time": 520.3125,
          "velocity": 0.8188976377952756
        },
        {
          "duration": 0.1875,
          "durationTicks": 128,
          "midi": 49,
          "name": "C#3",
          "ticks": 355328,
          "time": 520.5,
          "velocity": 0.7952755905511811
        },
        {
          "duration": 0.1875,
          "durationTicks": 128,
          "midi": 49,
          "name": "C#3",
          "ticks": 355456,
          "time": 520.6875,
          "velocity": 0.7952755905511811
        },
        {
          "duration": 0.1875,
          "durationTicks": 128,
          "midi": 49,
          "name": "C#3",
          "ticks": 355584,
          "time": 520.875,
          "velocity": 0.7637795275590551
        },
        {
          "duration": 0.1875,
          "durationTicks": 128,
          "midi": 49,
          "name": "C#3",
          "ticks": 355712,
          "time": 521.0625,
          "velocity": 0.7559055118110236
        },
        {
          "duration": 0.1875,
          "durationTicks": 128,
          "midi": 49,
          "name": "C#3",
          "ticks": 355840,
          "time": 521.25,
          "velocity": 0.7401574803149606
        },
        {
          "duration": 0.1875,
          "durationTicks": 128,
          "midi": 49,
          "name": "C#3",
          "ticks": 355968,
          "time": 521.4375,
          "velocity": 0.7795275590551181
        },
        {
          "duration": 0.1875,
          "durationTicks": 128,
          "midi": 49,
          "name": "C#3",
          "ticks": 356096,
          "time": 521.625,
          "velocity": 0.8110236220472441
        },
        {
          "duration": 0.1875,
          "durationTicks": 128,
          "midi": 49,
          "name": "C#3",
          "ticks": 356224,
          "time": 521.8125,
          "velocity": 0.7716535433070866
        },
        {
          "duration": 0.1875,
          "durationTicks": 128,
          "midi": 50,
          "name": "D3",
          "ticks": 356352,
          "time": 522,
          "velocity": 0.7716535433070866
        },
        {
          "duration": 0.1875,
          "durationTicks": 128,
          "midi": 50,
          "name": "D3",
          "ticks": 356480,
          "time": 522.1875,
          "velocity": 0.7795275590551181
        },
        {
          "duration": 0.1875,
          "durationTicks": 128,
          "midi": 50,
          "name": "D3",
          "ticks": 356608,
          "time": 522.375,
          "velocity": 0.7637795275590551
        },
        {
          "duration": 0.1875,
          "durationTicks": 128,
          "midi": 50,
          "name": "D3",
          "ticks": 356736,
          "time": 522.5625,
          "velocity": 0.7559055118110236
        },
        {
          "duration": 0.1875,
          "durationTicks": 128,
          "midi": 50,
          "name": "D3",
          "ticks": 356864,
          "time": 522.75,
          "velocity": 0.7480314960629921
        },
        {
          "duration": 0.1875,
          "durationTicks": 128,
          "midi": 50,
          "name": "D3",
          "ticks": 356992,
          "time": 522.9375,
          "velocity": 0.7559055118110236
        },
        {
          "duration": 0.1875,
          "durationTicks": 128,
          "midi": 50,
          "name": "D3",
          "ticks": 357120,
          "time": 523.125,
          "velocity": 0.7637795275590551
        },
        {
          "duration": 0.1875,
          "durationTicks": 128,
          "midi": 50,
          "name": "D3",
          "ticks": 357248,
          "time": 523.3125,
          "velocity": 0.7716535433070866
        },
        {
          "duration": 0.1875,
          "durationTicks": 128,
          "midi": 51,
          "name": "D#3",
          "ticks": 357376,
          "time": 523.5,
          "velocity": 0.7952755905511811
        },
        {
          "duration": 0.1875,
          "durationTicks": 128,
          "midi": 51,
          "name": "D#3",
          "ticks": 357504,
          "time": 523.6875,
          "velocity": 0.7716535433070866
        },
        {
          "duration": 0.1875,
          "durationTicks": 128,
          "midi": 51,
          "name": "D#3",
          "ticks": 357632,
          "time": 523.875,
          "velocity": 0.7874015748031497
        },
        {
          "duration": 0.1875,
          "durationTicks": 128,
          "midi": 51,
          "name": "D#3",
          "ticks": 357760,
          "time": 524.0625,
          "velocity": 0.7795275590551181
        },
        {
          "duration": 0.1875,
          "durationTicks": 128,
          "midi": 51,
          "name": "D#3",
          "ticks": 357888,
          "time": 524.25,
          "velocity": 0.7637795275590551
        },
        {
          "duration": 0.1875,
          "durationTicks": 128,
          "midi": 51,
          "name": "D#3",
          "ticks": 358016,
          "time": 524.4375,
          "velocity": 0.8110236220472441
        },
        {
          "duration": 0.1875,
          "durationTicks": 128,
          "midi": 51,
          "name": "D#3",
          "ticks": 358144,
          "time": 524.625,
          "velocity": 0.7952755905511811
        },
        {
          "duration": 0.1875,
          "durationTicks": 128,
          "midi": 51,
          "name": "D#3",
          "ticks": 358272,
          "time": 524.8125,
          "velocity": 0.7716535433070866
        },
        {
          "duration": 0.1875,
          "durationTicks": 128,
          "midi": 52,
          "name": "E3",
          "ticks": 358400,
          "time": 525,
          "velocity": 0.8188976377952756
        },
        {
          "duration": 0.1875,
          "durationTicks": 128,
          "midi": 52,
          "name": "E3",
          "ticks": 358528,
          "time": 525.1875,
          "velocity": 0.7480314960629921
        },
        {
          "duration": 0.1875,
          "durationTicks": 128,
          "midi": 52,
          "name": "E3",
          "ticks": 358656,
          "time": 525.375,
          "velocity": 0.7401574803149606
        },
        {
          "duration": 0.1875,
          "durationTicks": 128,
          "midi": 52,
          "name": "E3",
          "ticks": 358784,
          "time": 525.5625,
          "velocity": 0.7795275590551181
        },
        {
          "duration": 0.1875,
          "durationTicks": 128,
          "midi": 52,
          "name": "E3",
          "ticks": 358912,
          "time": 525.75,
          "velocity": 0.7559055118110236
        },
        {
          "duration": 0.1875,
          "durationTicks": 128,
          "midi": 52,
          "name": "E3",
          "ticks": 359040,
          "time": 525.9375,
          "velocity": 0.7480314960629921
        },
        {
          "duration": 0.1875,
          "durationTicks": 128,
          "midi": 52,
          "name": "E3",
          "ticks": 359168,
          "time": 526.125,
          "velocity": 0.7322834645669292
        },
        {
          "duration": 0.1875,
          "durationTicks": 128,
          "midi": 52,
          "name": "E3",
          "ticks": 359296,
          "time": 526.3125,
          "velocity": 0.7401574803149606
        },
        {
          "duration": 0.1875,
          "durationTicks": 128,
          "midi": 50,
          "name": "D3",
          "ticks": 359424,
          "time": 526.5,
          "velocity": 0.7322834645669292
        },
        {
          "duration": 0.1875,
          "durationTicks": 128,
          "midi": 50,
          "name": "D3",
          "ticks": 359552,
          "time": 526.6875,
          "velocity": 0.7559055118110236
        },
        {
          "duration": 0.1875,
          "durationTicks": 128,
          "midi": 50,
          "name": "D3",
          "ticks": 359680,
          "time": 526.875,
          "velocity": 0.8031496062992126
        },
        {
          "duration": 0.1875,
          "durationTicks": 128,
          "midi": 50,
          "name": "D3",
          "ticks": 359808,
          "time": 527.0625,
          "velocity": 0.7716535433070866
        },
        {
          "duration": 0.1875,
          "durationTicks": 128,
          "midi": 50,
          "name": "D3",
          "ticks": 359936,
          "time": 527.25,
          "velocity": 0.7322834645669292
        },
        {
          "duration": 0.1875,
          "durationTicks": 128,
          "midi": 50,
          "name": "D3",
          "ticks": 360064,
          "time": 527.4375,
          "velocity": 0.7480314960629921
        },
        {
          "duration": 0.1875,
          "durationTicks": 128,
          "midi": 50,
          "name": "D3",
          "ticks": 360192,
          "time": 527.625,
          "velocity": 0.7795275590551181
        },
        {
          "duration": 0.1875,
          "durationTicks": 128,
          "midi": 50,
          "name": "D3",
          "ticks": 360320,
          "time": 527.8125,
          "velocity": 0.7874015748031497
        },
        {
          "duration": 0.1875,
          "durationTicks": 128,
          "midi": 38,
          "name": "D2",
          "ticks": 360448,
          "time": 528,
          "velocity": 0.6850393700787402
        },
        {
          "duration": 0.1875,
          "durationTicks": 128,
          "midi": 38,
          "name": "D2",
          "ticks": 360576,
          "time": 528.1875,
          "velocity": 0.7401574803149606
        },
        {
          "duration": 0.1875,
          "durationTicks": 128,
          "midi": 38,
          "name": "D2",
          "ticks": 360704,
          "time": 528.375,
          "velocity": 0.7795275590551181
        },
        {
          "duration": 0.1875,
          "durationTicks": 128,
          "midi": 38,
          "name": "D2",
          "ticks": 360832,
          "time": 528.5625,
          "velocity": 0.7637795275590551
        },
        {
          "duration": 0.1875,
          "durationTicks": 128,
          "midi": 38,
          "name": "D2",
          "ticks": 360960,
          "time": 528.75,
          "velocity": 0.7637795275590551
        },
        {
          "duration": 0.1875,
          "durationTicks": 128,
          "midi": 38,
          "name": "D2",
          "ticks": 361088,
          "time": 528.9375,
          "velocity": 0.7401574803149606
        },
        {
          "duration": 0.1875,
          "durationTicks": 128,
          "midi": 38,
          "name": "D2",
          "ticks": 361216,
          "time": 529.125,
          "velocity": 0.7401574803149606
        },
        {
          "duration": 0.1875,
          "durationTicks": 128,
          "midi": 38,
          "name": "D2",
          "ticks": 361344,
          "time": 529.3125,
          "velocity": 0.7795275590551181
        },
        {
          "duration": 0.375,
          "durationTicks": 256,
          "midi": 43,
          "name": "G2",
          "ticks": 361472,
          "time": 529.5,
          "velocity": 0.8346456692913385
        },
        {
          "duration": 0.75,
          "durationTicks": 512,
          "midi": 34,
          "name": "A#1",
          "ticks": 361728,
          "time": 529.875,
          "velocity": 0.7007874015748031
        },
        {
          "duration": 0.375,
          "durationTicks": 256,
          "midi": 36,
          "name": "C2",
          "ticks": 362240,
          "time": 530.625,
          "velocity": 0.7952755905511811
        },
        {
          "duration": 0.375,
          "durationTicks": 256,
          "midi": 37,
          "name": "C#2",
          "ticks": 362496,
          "time": 531,
          "velocity": 0.7952755905511811
        },
        {
          "duration": 0.375,
          "durationTicks": 256,
          "midi": 38,
          "name": "D2",
          "ticks": 362752,
          "time": 531.375,
          "velocity": 0.7795275590551181
        },
        {
          "duration": 0.375,
          "durationTicks": 256,
          "midi": 39,
          "name": "D#2",
          "ticks": 363008,
          "time": 531.75,
          "velocity": 0.7559055118110236
        },
        {
          "duration": 0.375,
          "durationTicks": 256,
          "midi": 40,
          "name": "E2",
          "ticks": 363264,
          "time": 532.125,
          "velocity": 0.7165354330708661
        },
        {
          "duration": 0.375,
          "durationTicks": 256,
          "midi": 41,
          "name": "F2",
          "ticks": 363520,
          "time": 532.5,
          "velocity": 0.7874015748031497
        },
        {
          "duration": 0.09375,
          "durationTicks": 64,
          "midi": 41,
          "name": "F2",
          "ticks": 363968,
          "time": 533.15625,
          "velocity": 0.7007874015748031
        },
        {
          "duration": 0.375,
          "durationTicks": 256,
          "midi": 39,
          "name": "D#2",
          "ticks": 364032,
          "time": 533.25,
          "velocity": 0.7322834645669292
        },
        {
          "duration": 0.09375,
          "durationTicks": 64,
          "midi": 39,
          "name": "D#2",
          "ticks": 364480,
          "time": 533.90625,
          "velocity": 0.6850393700787402
        },
        {
          "duration": 0.375,
          "durationTicks": 256,
          "midi": 48,
          "name": "C3",
          "ticks": 364544,
          "time": 534,
          "velocity": 0.8661417322834646
        },
        {
          "duration": 0.09375,
          "durationTicks": 64,
          "midi": 48,
          "name": "C3",
          "ticks": 364992,
          "time": 534.65625,
          "velocity": 0.6771653543307087
        },
        {
          "duration": 0.375,
          "durationTicks": 256,
          "midi": 46,
          "name": "A#2",
          "ticks": 365056,
          "time": 534.75,
          "velocity": 0.7401574803149606
        },
        {
          "duration": 0.09375,
          "durationTicks": 64,
          "midi": 46,
          "name": "A#2",
          "ticks": 365504,
          "time": 535.40625,
          "velocity": 0.6929133858267716
        },
        {
          "duration": 0.375,
          "durationTicks": 256,
          "midi": 36,
          "name": "C2",
          "ticks": 365568,
          "time": 535.5,
          "velocity": 0.6771653543307087
        },
        {
          "duration": 0.375,
          "durationTicks": 256,
          "midi": 38,
          "name": "D2",
          "ticks": 366592,
          "time": 537,
          "velocity": 0.4094488188976378
        },
        {
          "duration": 1.5,
          "durationTicks": 1024,
          "midi": 48,
          "name": "C3",
          "ticks": 369152,
          "time": 540.75,
          "velocity": 0.4330708661417323
        },
        {
          "duration": 0.35595703125,
          "durationTicks": 243,
          "midi": 46,
          "name": "A#2",
          "ticks": 370176,
          "time": 542.25,
          "velocity": 0.47244094488188976
        },
        {
          "duration": 1.5,
          "durationTicks": 1024,
          "midi": 36,
          "name": "C2",
          "ticks": 371200,
          "time": 543.75,
          "velocity": 0.4251968503937008
        },
        {
          "duration": 0.35595703125,
          "durationTicks": 243,
          "midi": 34,
          "name": "A#1",
          "ticks": 372224,
          "time": 545.25,
          "velocity": 0.44881889763779526
        },
        {
          "duration": 0.1875,
          "durationTicks": 128,
          "midi": 43,
          "name": "G2",
          "ticks": 372736,
          "time": 546,
          "velocity": 0.6929133858267716
        },
        {
          "duration": 0.1875,
          "durationTicks": 128,
          "midi": 43,
          "name": "G2",
          "ticks": 372864,
          "time": 546.1875,
          "velocity": 0.7322834645669292
        },
        {
          "duration": 0.1875,
          "durationTicks": 128,
          "midi": 43,
          "name": "G2",
          "ticks": 372992,
          "time": 546.375,
          "velocity": 0.8110236220472441
        },
        {
          "duration": 0.1875,
          "durationTicks": 128,
          "midi": 43,
          "name": "G2",
          "ticks": 373120,
          "time": 546.5625,
          "velocity": 0.7874015748031497
        },
        {
          "duration": 0.1875,
          "durationTicks": 128,
          "midi": 43,
          "name": "G2",
          "ticks": 373248,
          "time": 546.75,
          "velocity": 0.7401574803149606
        },
        {
          "duration": 0.1875,
          "durationTicks": 128,
          "midi": 43,
          "name": "G2",
          "ticks": 373376,
          "time": 546.9375,
          "velocity": 0.7716535433070866
        },
        {
          "duration": 0.1875,
          "durationTicks": 128,
          "midi": 43,
          "name": "G2",
          "ticks": 373504,
          "time": 547.125,
          "velocity": 0.7716535433070866
        },
        {
          "duration": 0.1875,
          "durationTicks": 128,
          "midi": 43,
          "name": "G2",
          "ticks": 373632,
          "time": 547.3125,
          "velocity": 0.7401574803149606
        },
        {
          "duration": 0.1875,
          "durationTicks": 128,
          "midi": 48,
          "name": "C3",
          "ticks": 373760,
          "time": 547.5,
          "velocity": 0.8188976377952756
        },
        {
          "duration": 0.1875,
          "durationTicks": 128,
          "midi": 48,
          "name": "C3",
          "ticks": 373888,
          "time": 547.6875,
          "velocity": 0.8031496062992126
        },
        {
          "duration": 0.1875,
          "durationTicks": 128,
          "midi": 48,
          "name": "C3",
          "ticks": 374016,
          "time": 547.875,
          "velocity": 0.7874015748031497
        },
        {
          "duration": 0.1875,
          "durationTicks": 128,
          "midi": 48,
          "name": "C3",
          "ticks": 374144,
          "time": 548.0625,
          "velocity": 0.7244094488188977
        },
        {
          "duration": 0.1875,
          "durationTicks": 128,
          "midi": 48,
          "name": "C3",
          "ticks": 374272,
          "time": 548.25,
          "velocity": 0.8188976377952756
        },
        {
          "duration": 0.1875,
          "durationTicks": 128,
          "midi": 48,
          "name": "C3",
          "ticks": 374400,
          "time": 548.4375,
          "velocity": 0.7559055118110236
        },
        {
          "duration": 0.1875,
          "durationTicks": 128,
          "midi": 48,
          "name": "C3",
          "ticks": 374528,
          "time": 548.625,
          "velocity": 0.7716535433070866
        },
        {
          "duration": 0.1875,
          "durationTicks": 128,
          "midi": 48,
          "name": "C3",
          "ticks": 374656,
          "time": 548.8125,
          "velocity": 0.7480314960629921
        },
        {
          "duration": 0.1875,
          "durationTicks": 128,
          "midi": 50,
          "name": "D3",
          "ticks": 374784,
          "time": 549,
          "velocity": 0.8031496062992126
        },
        {
          "duration": 0.1875,
          "durationTicks": 128,
          "midi": 50,
          "name": "D3",
          "ticks": 374912,
          "time": 549.1875,
          "velocity": 0.7716535433070866
        },
        {
          "duration": 0.1875,
          "durationTicks": 128,
          "midi": 50,
          "name": "D3",
          "ticks": 375040,
          "time": 549.375,
          "velocity": 0.7952755905511811
        },
        {
          "duration": 0.1875,
          "durationTicks": 128,
          "midi": 50,
          "name": "D3",
          "ticks": 375168,
          "time": 549.5625,
          "velocity": 0.7559055118110236
        },
        {
          "duration": 0.1875,
          "durationTicks": 128,
          "midi": 38,
          "name": "D2",
          "ticks": 375296,
          "time": 549.75,
          "velocity": 0.6850393700787402
        },
        {
          "duration": 0.1875,
          "durationTicks": 128,
          "midi": 38,
          "name": "D2",
          "ticks": 375424,
          "time": 549.9375,
          "velocity": 0.7401574803149606
        },
        {
          "duration": 0.1875,
          "durationTicks": 128,
          "midi": 38,
          "name": "D2",
          "ticks": 375552,
          "time": 550.125,
          "velocity": 0.7559055118110236
        },
        {
          "duration": 0.1875,
          "durationTicks": 128,
          "midi": 38,
          "name": "D2",
          "ticks": 375680,
          "time": 550.3125,
          "velocity": 0.7716535433070866
        },
        {
          "duration": 0.1875,
          "durationTicks": 128,
          "midi": 43,
          "name": "G2",
          "ticks": 375808,
          "time": 550.5,
          "velocity": 0.8188976377952756
        },
        {
          "duration": 1.5,
          "durationTicks": 1024,
          "midi": 43,
          "name": "G2",
          "ticks": 376320,
          "time": 551.25,
          "velocity": 0.4409448818897638
        },
        {
          "duration": 0.35595703125,
          "durationTicks": 243,
          "midi": 42,
          "name": "F#2",
          "ticks": 377344,
          "time": 552.75,
          "velocity": 0.47244094488188976
        },
        {
          "duration": 1.5,
          "durationTicks": 1024,
          "midi": 31,
          "name": "G1",
          "ticks": 378368,
          "time": 554.25,
          "velocity": 0.4094488188976378
        },
        {
          "duration": 0.35595703125,
          "durationTicks": 243,
          "midi": 30,
          "name": "F#1",
          "ticks": 379392,
          "time": 555.75,
          "velocity": 0.47244094488188976
        },
        {
          "duration": 0.1875,
          "durationTicks": 128,
          "midi": 43,
          "name": "G2",
          "ticks": 380928,
          "time": 558,
          "velocity": 0.6614173228346457
        },
        {
          "duration": 0.1875,
          "durationTicks": 128,
          "midi": 43,
          "name": "G2",
          "ticks": 381056,
          "time": 558.1875,
          "velocity": 0.7559055118110236
        },
        {
          "duration": 0.1875,
          "durationTicks": 128,
          "midi": 43,
          "name": "G2",
          "ticks": 381184,
          "time": 558.375,
          "velocity": 0.7244094488188977
        },
        {
          "duration": 0.1875,
          "durationTicks": 128,
          "midi": 43,
          "name": "G2",
          "ticks": 381312,
          "time": 558.5625,
          "velocity": 0.7559055118110236
        },
        {
          "duration": 0.1875,
          "durationTicks": 128,
          "midi": 43,
          "name": "G2",
          "ticks": 381440,
          "time": 558.75,
          "velocity": 0.7637795275590551
        },
        {
          "duration": 0.1875,
          "durationTicks": 128,
          "midi": 43,
          "name": "G2",
          "ticks": 381568,
          "time": 558.9375,
          "velocity": 0.7480314960629921
        },
        {
          "duration": 0.1875,
          "durationTicks": 128,
          "midi": 43,
          "name": "G2",
          "ticks": 381696,
          "time": 559.125,
          "velocity": 0.7480314960629921
        },
        {
          "duration": 0.1875,
          "durationTicks": 128,
          "midi": 43,
          "name": "G2",
          "ticks": 381824,
          "time": 559.3125,
          "velocity": 0.7716535433070866
        },
        {
          "duration": 0.1875,
          "durationTicks": 128,
          "midi": 48,
          "name": "C3",
          "ticks": 381952,
          "time": 559.5,
          "velocity": 0.8346456692913385
        },
        {
          "duration": 0.1875,
          "durationTicks": 128,
          "midi": 48,
          "name": "C3",
          "ticks": 382080,
          "time": 559.6875,
          "velocity": 0.7952755905511811
        },
        {
          "duration": 0.1875,
          "durationTicks": 128,
          "midi": 48,
          "name": "C3",
          "ticks": 382208,
          "time": 559.875,
          "velocity": 0.7874015748031497
        },
        {
          "duration": 0.1875,
          "durationTicks": 128,
          "midi": 48,
          "name": "C3",
          "ticks": 382336,
          "time": 560.0625,
          "velocity": 0.7874015748031497
        },
        {
          "duration": 0.1875,
          "durationTicks": 128,
          "midi": 48,
          "name": "C3",
          "ticks": 382464,
          "time": 560.25,
          "velocity": 0.7559055118110236
        },
        {
          "duration": 0.1875,
          "durationTicks": 128,
          "midi": 48,
          "name": "C3",
          "ticks": 382592,
          "time": 560.4375,
          "velocity": 0.7795275590551181
        },
        {
          "duration": 0.1875,
          "durationTicks": 128,
          "midi": 48,
          "name": "C3",
          "ticks": 382720,
          "time": 560.625,
          "velocity": 0.7559055118110236
        },
        {
          "duration": 0.1875,
          "durationTicks": 128,
          "midi": 48,
          "name": "C3",
          "ticks": 382848,
          "time": 560.8125,
          "velocity": 0.7874015748031497
        },
        {
          "duration": 0.1875,
          "durationTicks": 128,
          "midi": 50,
          "name": "D3",
          "ticks": 382976,
          "time": 561,
          "velocity": 0.8031496062992126
        },
        {
          "duration": 0.1875,
          "durationTicks": 128,
          "midi": 50,
          "name": "D3",
          "ticks": 383104,
          "time": 561.1875,
          "velocity": 0.7637795275590551
        },
        {
          "duration": 0.1875,
          "durationTicks": 128,
          "midi": 50,
          "name": "D3",
          "ticks": 383232,
          "time": 561.375,
          "velocity": 0.7795275590551181
        },
        {
          "duration": 0.1875,
          "durationTicks": 128,
          "midi": 50,
          "name": "D3",
          "ticks": 383360,
          "time": 561.5625,
          "velocity": 0.7480314960629921
        },
        {
          "duration": 0.1875,
          "durationTicks": 128,
          "midi": 38,
          "name": "D2",
          "ticks": 383488,
          "time": 561.75,
          "velocity": 0.6850393700787402
        },
        {
          "duration": 0.1875,
          "durationTicks": 128,
          "midi": 38,
          "name": "D2",
          "ticks": 383616,
          "time": 561.9375,
          "velocity": 0.7480314960629921
        },
        {
          "duration": 0.1875,
          "durationTicks": 128,
          "midi": 38,
          "name": "D2",
          "ticks": 383744,
          "time": 562.125,
          "velocity": 0.7401574803149606
        },
        {
          "duration": 0.1875,
          "durationTicks": 128,
          "midi": 38,
          "name": "D2",
          "ticks": 383872,
          "time": 562.3125,
          "velocity": 0.7637795275590551
        },
        {
          "duration": 0.75,
          "durationTicks": 512,
          "midi": 43,
          "name": "G2",
          "ticks": 384000,
          "time": 562.5,
          "velocity": 0.7874015748031497
        },
        {
          "duration": 0.1875,
          "durationTicks": 128,
          "midi": 50,
          "name": "D3",
          "ticks": 384896,
          "time": 563.8125,
          "velocity": 0.6929133858267716
        },
        {
          "duration": 0.1875,
          "durationTicks": 128,
          "midi": 48,
          "name": "C3",
          "ticks": 385024,
          "time": 564,
          "velocity": 0.7716535433070866
        },
        {
          "duration": 0.1875,
          "durationTicks": 128,
          "midi": 46,
          "name": "A#2",
          "ticks": 385152,
          "time": 564.1875,
          "velocity": 0.7637795275590551
        },
        {
          "duration": 0.1875,
          "durationTicks": 128,
          "midi": 45,
          "name": "A2",
          "ticks": 385280,
          "time": 564.375,
          "velocity": 0.7401574803149606
        },
        {
          "duration": 0.1875,
          "durationTicks": 128,
          "midi": 43,
          "name": "G2",
          "ticks": 385408,
          "time": 564.5625,
          "velocity": 0.7559055118110236
        },
        {
          "duration": 0.1875,
          "durationTicks": 128,
          "midi": 42,
          "name": "F#2",
          "ticks": 385536,
          "time": 564.75,
          "velocity": 0.7165354330708661
        },
        {
          "duration": 0.1875,
          "durationTicks": 128,
          "midi": 39,
          "name": "D#2",
          "ticks": 385664,
          "time": 564.9375,
          "velocity": 0.7559055118110236
        },
        {
          "duration": 0.1875,
          "durationTicks": 128,
          "midi": 38,
          "name": "D2",
          "ticks": 385792,
          "time": 565.125,
          "velocity": 0.7559055118110236
        },
        {
          "duration": 0.1875,
          "durationTicks": 128,
          "midi": 36,
          "name": "C2",
          "ticks": 385920,
          "time": 565.3125,
          "velocity": 0.7559055118110236
        },
        {
          "duration": 0.375,
          "durationTicks": 256,
          "midi": 34,
          "name": "A#1",
          "ticks": 386048,
          "time": 565.5,
          "velocity": 0.7401574803149606
        },
        {
          "duration": 0.375,
          "durationTicks": 256,
          "midi": 34,
          "name": "A#1",
          "ticks": 386304,
          "time": 565.875,
          "velocity": 0.7559055118110236
        },
        {
          "duration": 0.375,
          "durationTicks": 256,
          "midi": 36,
          "name": "C2",
          "ticks": 386560,
          "time": 566.25,
          "velocity": 0.7952755905511811
        },
        {
          "duration": 0.375,
          "durationTicks": 256,
          "midi": 38,
          "name": "D2",
          "ticks": 386816,
          "time": 566.625,
          "velocity": 0.7952755905511811
        },
        {
          "duration": 0.1875,
          "durationTicks": 128,
          "midi": 43,
          "name": "G2",
          "ticks": 387072,
          "time": 567,
          "velocity": 0.8031496062992126
        },
        {
          "duration": 0.1875,
          "durationTicks": 128,
          "midi": 38,
          "name": "D2",
          "ticks": 387200,
          "time": 567.1875,
          "velocity": 0.7401574803149606
        },
        {
          "duration": 0.1875,
          "durationTicks": 128,
          "midi": 46,
          "name": "A#2",
          "ticks": 387328,
          "time": 567.375,
          "velocity": 0.8503937007874016
        },
        {
          "duration": 0.1875,
          "durationTicks": 128,
          "midi": 45,
          "name": "A2",
          "ticks": 387456,
          "time": 567.5625,
          "velocity": 0.7480314960629921
        },
        {
          "duration": 0.1875,
          "durationTicks": 128,
          "midi": 43,
          "name": "G2",
          "ticks": 387584,
          "time": 567.75,
          "velocity": 0.7165354330708661
        },
        {
          "duration": 0.1875,
          "durationTicks": 128,
          "midi": 41,
          "name": "F2",
          "ticks": 387712,
          "time": 567.9375,
          "velocity": 0.7165354330708661
        },
        {
          "duration": 0.1875,
          "durationTicks": 128,
          "midi": 39,
          "name": "D#2",
          "ticks": 387840,
          "time": 568.125,
          "velocity": 0.7559055118110236
        },
        {
          "duration": 0.1875,
          "durationTicks": 128,
          "midi": 38,
          "name": "D2",
          "ticks": 387968,
          "time": 568.3125,
          "velocity": 0.7716535433070866
        },
        {
          "duration": 0.1875,
          "durationTicks": 128,
          "midi": 37,
          "name": "C#2",
          "ticks": 388096,
          "time": 568.5,
          "velocity": 0.7952755905511811
        },
        {
          "duration": 0.1875,
          "durationTicks": 128,
          "midi": 40,
          "name": "E2",
          "ticks": 388224,
          "time": 568.6875,
          "velocity": 0.8110236220472441
        },
        {
          "duration": 0.1875,
          "durationTicks": 128,
          "midi": 45,
          "name": "A2",
          "ticks": 388352,
          "time": 568.875,
          "velocity": 0.8031496062992126
        },
        {
          "duration": 0.1875,
          "durationTicks": 128,
          "midi": 43,
          "name": "G2",
          "ticks": 388480,
          "time": 569.0625,
          "velocity": 0.7716535433070866
        },
        {
          "duration": 0.1875,
          "durationTicks": 128,
          "midi": 42,
          "name": "F#2",
          "ticks": 388608,
          "time": 569.25,
          "velocity": 0.7322834645669292
        },
        {
          "duration": 0.1875,
          "durationTicks": 128,
          "midi": 39,
          "name": "D#2",
          "ticks": 388736,
          "time": 569.4375,
          "velocity": 0.7480314960629921
        },
        {
          "duration": 0.1875,
          "durationTicks": 128,
          "midi": 38,
          "name": "D2",
          "ticks": 388864,
          "time": 569.625,
          "velocity": 0.7716535433070866
        },
        {
          "duration": 0.1875,
          "durationTicks": 128,
          "midi": 36,
          "name": "C2",
          "ticks": 388992,
          "time": 569.8125,
          "velocity": 0.7401574803149606
        },
        {
          "duration": 0.375,
          "durationTicks": 256,
          "midi": 34,
          "name": "A#1",
          "ticks": 389120,
          "time": 570,
          "velocity": 0.7637795275590551
        },
        {
          "duration": 0.09375,
          "durationTicks": 64,
          "midi": 35,
          "name": "B1",
          "ticks": 389568,
          "time": 570.65625,
          "velocity": 0.7086614173228346
        },
        {
          "duration": 0.375,
          "durationTicks": 256,
          "midi": 35,
          "name": "B1",
          "ticks": 389632,
          "time": 570.75,
          "velocity": 0.7559055118110236
        },
        {
          "duration": 0.09375,
          "durationTicks": 64,
          "midi": 36,
          "name": "C2",
          "ticks": 390080,
          "time": 571.40625,
          "velocity": 0.6850393700787402
        },
        {
          "duration": 0.375,
          "durationTicks": 256,
          "midi": 36,
          "name": "C2",
          "ticks": 390144,
          "time": 571.5,
          "velocity": 0.7795275590551181
        },
        {
          "duration": 0.09375,
          "durationTicks": 64,
          "midi": 37,
          "name": "C#2",
          "ticks": 390592,
          "time": 572.15625,
          "velocity": 0.6850393700787402
        },
        {
          "duration": 0.375,
          "durationTicks": 256,
          "midi": 37,
          "name": "C#2",
          "ticks": 390656,
          "time": 572.25,
          "velocity": 0.7874015748031497
        },
        {
          "duration": 0.09375,
          "durationTicks": 64,
          "midi": 38,
          "name": "D2",
          "ticks": 391104,
          "time": 572.90625,
          "velocity": 0.7165354330708661
        },
        {
          "duration": 0.375,
          "durationTicks": 256,
          "midi": 38,
          "name": "D2",
          "ticks": 391168,
          "time": 573,
          "velocity": 0.7716535433070866
        },
        {
          "duration": 0.09375,
          "durationTicks": 64,
          "midi": 41,
          "name": "F2",
          "ticks": 391616,
          "time": 573.65625,
          "velocity": 0.7086614173228346
        },
        {
          "duration": 0.375,
          "durationTicks": 256,
          "midi": 41,
          "name": "F2",
          "ticks": 391680,
          "time": 573.75,
          "velocity": 0.7559055118110236
        },
        {
          "duration": 0.09375,
          "durationTicks": 64,
          "midi": 40,
          "name": "E2",
          "ticks": 392128,
          "time": 574.40625,
          "velocity": 0.6535433070866141
        },
        {
          "duration": 0.375,
          "durationTicks": 256,
          "midi": 40,
          "name": "E2",
          "ticks": 392192,
          "time": 574.5,
          "velocity": 0.7559055118110236
        },
        {
          "duration": 0.09375,
          "durationTicks": 64,
          "midi": 39,
          "name": "D#2",
          "ticks": 392640,
          "time": 575.15625,
          "velocity": 0.6771653543307087
        },
        {
          "duration": 0.375,
          "durationTicks": 256,
          "midi": 39,
          "name": "D#2",
          "ticks": 392704,
          "time": 575.25,
          "velocity": 0.7480314960629921
        },
        {
          "duration": 0.7646484375,
          "durationTicks": 522,
          "midi": 31,
          "name": "G1",
          "ticks": 395264,
          "time": 579,
          "velocity": 0.44881889763779526
        },
        {
          "duration": 0.7646484375,
          "durationTicks": 522,
          "midi": 35,
          "name": "B1",
          "ticks": 395776,
          "time": 579.75,
          "velocity": 0.4330708661417323
        },
        {
          "duration": 0.7646484375,
          "durationTicks": 522,
          "midi": 38,
          "name": "D2",
          "ticks": 396288,
          "time": 580.5,
          "velocity": 0.5118110236220472
        },
        {
          "duration": 0.7119140625,
          "durationTicks": 486,
          "midi": 35,
          "name": "B1",
          "ticks": 396800,
          "time": 581.25,
          "velocity": 0.47244094488188976
        },
        {
          "duration": 0.7646484375,
          "durationTicks": 522,
          "midi": 31,
          "name": "G1",
          "ticks": 397312,
          "time": 582,
          "velocity": 0.4094488188976378
        },
        {
          "duration": 0.7646484375,
          "durationTicks": 522,
          "midi": 36,
          "name": "C2",
          "ticks": 397824,
          "time": 582.75,
          "velocity": 0.41732283464566927
        },
        {
          "duration": 0.7646484375,
          "durationTicks": 522,
          "midi": 39,
          "name": "D#2",
          "ticks": 398336,
          "time": 583.5,
          "velocity": 0.49606299212598426
        },
        {
          "duration": 0.7119140625,
          "durationTicks": 486,
          "midi": 36,
          "name": "C2",
          "ticks": 398848,
          "time": 584.25,
          "velocity": 0.4645669291338583
        },
        {
          "duration": 0.7646484375,
          "durationTicks": 522,
          "midi": 31,
          "name": "G1",
          "ticks": 399360,
          "time": 585,
          "velocity": 0.48031496062992124
        },
        {
          "duration": 0.7646484375,
          "durationTicks": 522,
          "midi": 36,
          "name": "C2",
          "ticks": 399872,
          "time": 585.75,
          "velocity": 0.5354330708661418
        },
        {
          "duration": 0.7646484375,
          "durationTicks": 522,
          "midi": 42,
          "name": "F#2",
          "ticks": 400384,
          "time": 586.5,
          "velocity": 0.49606299212598426
        },
        {
          "duration": 0.7119140625,
          "durationTicks": 486,
          "midi": 36,
          "name": "C2",
          "ticks": 400896,
          "time": 587.25,
          "velocity": 0.4645669291338583
        },
        {
          "duration": 0.375,
          "durationTicks": 256,
          "midi": 31,
          "name": "G1",
          "ticks": 401408,
          "time": 588,
          "velocity": 0.7007874015748031
        },
        {
          "duration": 0.375,
          "durationTicks": 256,
          "midi": 38,
          "name": "D2",
          "ticks": 401920,
          "time": 588.75,
          "velocity": 0.6929133858267716
        },
        {
          "duration": 0.375,
          "durationTicks": 256,
          "midi": 43,
          "name": "G2",
          "ticks": 402432,
          "time": 589.5,
          "velocity": 0.6771653543307087
        },
        {
          "duration": 0.375,
          "durationTicks": 256,
          "midi": 38,
          "name": "D2",
          "ticks": 402944,
          "time": 590.25,
          "velocity": 0.6929133858267716
        },
        {
          "duration": 0.375,
          "durationTicks": 256,
          "midi": 43,
          "name": "G2",
          "ticks": 403456,
          "time": 591,
          "velocity": 0.6929133858267716
        },
        {
          "duration": 0.375,
          "durationTicks": 256,
          "midi": 38,
          "name": "D2",
          "ticks": 403968,
          "time": 591.75,
          "velocity": 0.7086614173228346
        },
        {
          "duration": 0.375,
          "durationTicks": 256,
          "midi": 43,
          "name": "G2",
          "ticks": 404480,
          "time": 592.5,
          "velocity": 0.7244094488188977
        },
        {
          "duration": 0.375,
          "durationTicks": 256,
          "midi": 38,
          "name": "D2",
          "ticks": 404736,
          "time": 592.875,
          "velocity": 0.7244094488188977
        },
        {
          "duration": 0.375,
          "durationTicks": 256,
          "midi": 43,
          "name": "G2",
          "ticks": 404992,
          "time": 593.25,
          "velocity": 0.7952755905511811
        },
        {
          "duration": 0.375,
          "durationTicks": 256,
          "midi": 38,
          "name": "D2",
          "ticks": 405248,
          "time": 593.625,
          "velocity": 0.7086614173228346
        },
        {
          "duration": 0.375,
          "durationTicks": 256,
          "midi": 43,
          "name": "G2",
          "ticks": 405504,
          "time": 594,
          "velocity": 0.7874015748031497
        },
        {
          "duration": 0.375,
          "durationTicks": 256,
          "midi": 31,
          "name": "G1",
          "ticks": 406528,
          "time": 595.5,
          "velocity": 0.6850393700787402
        },
        {
          "duration": 0.375,
          "durationTicks": 256,
          "midi": 43,
          "name": "G2",
          "ticks": 407040,
          "time": 596.25,
          "velocity": 0.6771653543307087
        },
        {
          "duration": 0.75,
          "durationTicks": 512,
          "midi": 31,
          "name": "G1",
          "ticks": 407552,
          "time": 597,
          "velocity": 0.7086614173228346
        }
      ],
      "endOfTrackTicks": 408065
    }
  ]
}]